G04*
G04 #@! TF.GenerationSoftware,Altium Limited,Altium Designer,20.1.14 (287)*
G04*
G04 Layer_Color=2752767*
%FSLAX25Y25*%
%MOIN*%
G70*
G04*
G04 #@! TF.SameCoordinates,3184D8B6-75A7-45C6-B4AC-6B65BD642244*
G04*
G04*
G04 #@! TF.FilePolarity,Positive*
G04*
G01*
G75*
%ADD118C,0.00200*%
%ADD119C,0.00267*%
D118*
X215985Y55700D02*
Y57300D01*
X217585D01*
Y55700D01*
X215985D01*
X211758Y64763D02*
Y66363D01*
X213358D01*
Y64763D01*
X211758D01*
X224437Y37574D02*
Y39174D01*
X226037D01*
Y37574D01*
X224437D01*
X220211Y46637D02*
Y48237D01*
X221811D01*
Y46637D01*
X220211D01*
X206696Y21656D02*
Y23257D01*
X208296D01*
Y21656D01*
X206696D01*
X213767Y28728D02*
Y30328D01*
X215367D01*
Y28728D01*
X213767D01*
X182481Y23482D02*
Y25082D01*
X184081D01*
Y23482D01*
X182481D01*
X163163Y28658D02*
Y30258D01*
X164763D01*
Y28658D01*
X163163D01*
X172822Y26070D02*
Y27670D01*
X174422D01*
Y26070D01*
X172822D01*
X253523Y246058D02*
Y247658D01*
X255123D01*
Y246058D01*
X253523D01*
X246452Y253129D02*
Y254729D01*
X248052D01*
Y253129D01*
X246452D01*
X-3957Y248798D02*
Y250398D01*
X-2357D01*
Y248798D01*
X-3957D01*
X-11028Y241727D02*
Y243327D01*
X-9428D01*
Y241727D01*
X-11028D01*
X21328Y47925D02*
X20528Y49525D01*
X22128D01*
X21328Y47925D01*
X24695Y57174D02*
X23895Y58774D01*
X25495D01*
X24695Y57174D01*
X28061Y66423D02*
X27261Y68023D01*
X28861D01*
X28061Y66423D01*
X34794Y84921D02*
X33994Y86521D01*
X35594D01*
X34794Y84921D01*
X31427Y75672D02*
X30628Y77272D01*
X32228D01*
X31427Y75672D01*
X17962Y38676D02*
X17162Y40276D01*
X18762D01*
X17962Y38676D01*
X80408Y52856D02*
Y54456D01*
X82008D01*
Y52856D01*
X80408D01*
X70748Y50268D02*
Y51868D01*
X72348D01*
Y50268D01*
X70748D01*
X72027Y39576D02*
Y41176D01*
X73627D01*
Y39576D01*
X72027D01*
X81686Y42164D02*
Y43764D01*
X83286D01*
Y42164D01*
X81686D01*
X84274Y32505D02*
Y34105D01*
X85874D01*
Y32505D01*
X84274D01*
X74615Y29916D02*
Y31516D01*
X76215D01*
Y29916D01*
X74615D01*
X64956Y27328D02*
Y28928D01*
X66556D01*
Y27328D01*
X64956D01*
X62368Y36988D02*
Y38587D01*
X63968D01*
Y36988D01*
X62368D01*
X55296Y24740D02*
Y26340D01*
X56897D01*
Y24740D01*
X55296D01*
X52708Y34399D02*
Y35999D01*
X54308D01*
Y34399D01*
X52708D01*
X6294Y11791D02*
Y13391D01*
X7894D01*
Y11791D01*
X6294D01*
X13365Y4720D02*
Y6320D01*
X14965D01*
Y4720D01*
X13365D01*
X199091Y78220D02*
X199491Y78620D01*
X199891D01*
X199491Y79020D01*
X199891Y79420D01*
X199491D01*
X199091Y79820D01*
X198691Y79420D01*
X198291D01*
X198691Y79020D01*
X198291Y78620D01*
X198691D01*
X199091Y78220D01*
X189091D02*
X189491Y78620D01*
X189891D01*
X189491Y79020D01*
X189891Y79420D01*
X189491D01*
X189091Y79820D01*
X188691Y79420D01*
X188291D01*
X188691Y79020D01*
X188291Y78620D01*
X188691D01*
X189091Y78220D01*
X199091Y88220D02*
X199491Y88620D01*
X199891D01*
X199491Y89020D01*
X199891Y89420D01*
X199491D01*
X199091Y89820D01*
X198691Y89420D01*
X198291D01*
X198691Y89020D01*
X198291Y88620D01*
X198691D01*
X199091Y88220D01*
X189091D02*
X189491Y88620D01*
X189891D01*
X189491Y89020D01*
X189891Y89420D01*
X189491D01*
X189091Y89820D01*
X188691Y89420D01*
X188291D01*
X188691Y89020D01*
X188291Y88620D01*
X188691D01*
X189091Y88220D01*
X199091Y98220D02*
X199491Y98620D01*
X199891D01*
X199491Y99020D01*
X199891Y99420D01*
X199491D01*
X199091Y99820D01*
X198691Y99420D01*
X198291D01*
X198691Y99020D01*
X198291Y98620D01*
X198691D01*
X199091Y98220D01*
X189091D02*
X189491Y98620D01*
X189891D01*
X189491Y99020D01*
X189891Y99420D01*
X189491D01*
X189091Y99820D01*
X188691Y99420D01*
X188291D01*
X188691Y99020D01*
X188291Y98620D01*
X188691D01*
X189091Y98220D01*
X199091Y108220D02*
X199491Y108620D01*
X199891D01*
X199491Y109020D01*
X199891Y109420D01*
X199491D01*
X199091Y109820D01*
X198691Y109420D01*
X198291D01*
X198691Y109020D01*
X198291Y108620D01*
X198691D01*
X199091Y108220D01*
X189091D02*
X189491Y108620D01*
X189891D01*
X189491Y109020D01*
X189891Y109420D01*
X189491D01*
X189091Y109820D01*
X188691Y109420D01*
X188291D01*
X188691Y109020D01*
X188291Y108620D01*
X188691D01*
X189091Y108220D01*
X199091Y118220D02*
X199491Y118620D01*
X199891D01*
X199491Y119020D01*
X199891Y119420D01*
X199491D01*
X199091Y119820D01*
X198691Y119420D01*
X198291D01*
X198691Y119020D01*
X198291Y118620D01*
X198691D01*
X199091Y118220D01*
X189091D02*
X189491Y118620D01*
X189891D01*
X189491Y119020D01*
X189891Y119420D01*
X189491D01*
X189091Y119820D01*
X188691Y119420D01*
X188291D01*
X188691Y119020D01*
X188291Y118620D01*
X188691D01*
X189091Y118220D01*
X141326Y112192D02*
X141726Y112992D01*
X141326Y113792D01*
X142126Y113392D01*
X142926Y113792D01*
X142526Y112992D01*
X142926Y112192D01*
X142126Y112592D01*
X141326Y112192D01*
X126415Y95509D02*
X126815Y96309D01*
X126415Y97109D01*
X127215Y96709D01*
X128015Y97109D01*
X127615Y96309D01*
X128015Y95509D01*
X127215Y95909D01*
X126415Y95509D01*
X135421Y152350D02*
X135820Y153150D01*
X135421Y153950D01*
X136221Y153550D01*
X137021Y153950D01*
X136620Y153150D01*
X137021Y152350D01*
X136221Y152750D01*
X135421Y152350D01*
X110617Y131877D02*
X111017Y132677D01*
X110617Y133477D01*
X111417Y133077D01*
X112217Y133477D01*
X111817Y132677D01*
X112217Y131877D01*
X111417Y132277D01*
X110617Y131877D01*
X194082Y131483D02*
X194482Y132283D01*
X194082Y133083D01*
X194882Y132684D01*
X195682Y133083D01*
X195282Y132283D01*
X195682Y131483D01*
X194882Y131884D01*
X194082Y131483D01*
X74003Y97232D02*
X74403Y98032D01*
X74003Y98831D01*
X74803Y98431D01*
X75603Y98831D01*
X75203Y98032D01*
X75603Y97232D01*
X74803Y97632D01*
X74003Y97232D01*
Y115735D02*
X74403Y116535D01*
X74003Y117335D01*
X74803Y116935D01*
X75603Y117335D01*
X75203Y116535D01*
X75603Y115735D01*
X74803Y116135D01*
X74003Y115735D01*
X224791Y231484D02*
X225190Y232283D01*
X224791Y233084D01*
X225590Y232683D01*
X226391Y233084D01*
X225991Y232283D01*
X226391Y231484D01*
X225590Y231884D01*
X224791Y231484D01*
X193688Y170853D02*
X194088Y171653D01*
X193688Y172453D01*
X194488Y172054D01*
X195288Y172453D01*
X194888Y171653D01*
X195288Y170853D01*
X194488Y171254D01*
X193688Y170853D01*
Y152743D02*
X194088Y153543D01*
X193688Y154343D01*
X194488Y153943D01*
X195288Y154343D01*
X194888Y153543D01*
X195288Y152743D01*
X194488Y153143D01*
X193688Y152743D01*
X224791Y212586D02*
X225190Y213386D01*
X224791Y214186D01*
X225590Y213786D01*
X226391Y214186D01*
X225991Y213386D01*
X226391Y212586D01*
X225590Y212986D01*
X224791Y212586D01*
X30309Y59541D02*
Y59141D01*
X31109D01*
Y59541D01*
X31509D01*
Y60341D01*
X31109D01*
Y60741D01*
X30309D01*
Y60341D01*
X29909D01*
Y59541D01*
X30309D01*
X154718Y37002D02*
Y36602D01*
X155518D01*
Y37002D01*
X155918D01*
Y37802D01*
X155518D01*
Y38202D01*
X154718D01*
Y37802D01*
X154318D01*
Y37002D01*
X154718D01*
X158261Y32474D02*
Y32074D01*
X159061D01*
Y32474D01*
X159461D01*
Y33274D01*
X159061D01*
Y33674D01*
X158261D01*
Y33274D01*
X157861D01*
Y32474D01*
X158261D01*
X180407Y44974D02*
Y44574D01*
X181207D01*
Y44974D01*
X181607D01*
Y45774D01*
X181207D01*
Y46174D01*
X180407D01*
Y45774D01*
X180007D01*
Y44974D01*
X180407D01*
X178619Y40063D02*
Y39663D01*
X179419D01*
Y40063D01*
X179819D01*
Y40863D01*
X179419D01*
Y41263D01*
X178619D01*
Y40863D01*
X178219D01*
Y40063D01*
X178619D01*
X177356Y33045D02*
Y32645D01*
X178156D01*
Y33045D01*
X178556D01*
Y33845D01*
X178156D01*
Y34245D01*
X177356D01*
Y33845D01*
X176956D01*
Y33045D01*
X177356D01*
X184935Y54423D02*
Y54023D01*
X185735D01*
Y54423D01*
X186135D01*
Y55223D01*
X185735D01*
Y55623D01*
X184935D01*
Y55223D01*
X184535D01*
Y54423D01*
X184935D01*
X186135Y35895D02*
Y35495D01*
X186935D01*
Y35895D01*
X187335D01*
Y36695D01*
X186935D01*
Y37095D01*
X186135D01*
Y36695D01*
X185735D01*
Y35895D01*
X186135D01*
X185525Y66726D02*
Y66326D01*
X186325D01*
Y66726D01*
X186725D01*
Y67526D01*
X186325D01*
Y67926D01*
X185525D01*
Y67526D01*
X185125D01*
Y66726D01*
X185525D01*
X169088Y74010D02*
Y73610D01*
X169888D01*
Y74010D01*
X170288D01*
Y74809D01*
X169888D01*
Y75209D01*
X169088D01*
Y74809D01*
X168688D01*
Y74010D01*
X169088D01*
X174502Y78734D02*
Y78334D01*
X175302D01*
Y78734D01*
X175702D01*
Y79534D01*
X175302D01*
Y79934D01*
X174502D01*
Y79534D01*
X174102D01*
Y78734D01*
X174502D01*
X195663Y113478D02*
Y113078D01*
X196463D01*
Y113478D01*
X196863D01*
Y114278D01*
X196463D01*
Y114678D01*
X195663D01*
Y114278D01*
X195263D01*
Y113478D01*
X195663D01*
X57572Y155013D02*
Y154613D01*
X58372D01*
Y155013D01*
X58772D01*
Y155813D01*
X58372D01*
Y156213D01*
X57572D01*
Y155813D01*
X57172D01*
Y155013D01*
X57572D01*
X202946Y145269D02*
Y144869D01*
X203747D01*
Y145269D01*
X204147D01*
Y146069D01*
X203747D01*
Y146469D01*
X202946D01*
Y146069D01*
X202547D01*
Y145269D01*
X202946D01*
X168498Y118990D02*
Y118590D01*
X169298D01*
Y118990D01*
X169698D01*
Y119790D01*
X169298D01*
Y120190D01*
X168498D01*
Y119790D01*
X168098D01*
Y118990D01*
X168498D01*
X190446Y70663D02*
Y70263D01*
X191246D01*
Y70663D01*
X191647D01*
Y71463D01*
X191246D01*
Y71863D01*
X190446D01*
Y71463D01*
X190047D01*
Y70663D01*
X190446D01*
X33590Y40858D02*
Y40458D01*
X34390D01*
Y40858D01*
X34790D01*
Y41658D01*
X34390D01*
Y42058D01*
X33590D01*
Y41658D01*
X33190D01*
Y40858D01*
X33590D01*
X61214Y58360D02*
Y57960D01*
X62014D01*
Y58360D01*
X62414D01*
Y59160D01*
X62014D01*
Y59560D01*
X61214D01*
Y59160D01*
X60814D01*
Y58360D01*
X61214D01*
X188084Y18596D02*
Y18196D01*
X188884D01*
Y18596D01*
X189284D01*
Y19396D01*
X188884D01*
Y19796D01*
X188084D01*
Y19396D01*
X187684D01*
Y18596D01*
X188084D01*
X94068Y42415D02*
Y42015D01*
X94868D01*
Y42415D01*
X95268D01*
Y43215D01*
X94868D01*
Y43615D01*
X94068D01*
Y43215D01*
X93669D01*
Y42415D01*
X94068D01*
X97572D02*
Y42015D01*
X98373D01*
Y42415D01*
X98773D01*
Y43215D01*
X98373D01*
Y43615D01*
X97572D01*
Y43215D01*
X97172D01*
Y42415D01*
X97572D01*
X128653Y30525D02*
Y30125D01*
X129453D01*
Y30525D01*
X129853D01*
Y31325D01*
X129453D01*
Y31725D01*
X128653D01*
Y31325D01*
X128253D01*
Y30525D01*
X128653D01*
X144187Y29029D02*
Y28629D01*
X144987D01*
Y29029D01*
X145387D01*
Y29829D01*
X144987D01*
Y30229D01*
X144187D01*
Y29829D01*
X143787D01*
Y29029D01*
X144187D01*
X97632Y39836D02*
Y39436D01*
X98431D01*
Y39836D01*
X98831D01*
Y40636D01*
X98431D01*
Y41036D01*
X97632D01*
Y40636D01*
X97232D01*
Y39836D01*
X97632D01*
X101568Y59974D02*
Y59574D01*
X102368D01*
Y59974D01*
X102769D01*
Y60774D01*
X102368D01*
Y61174D01*
X101568D01*
Y60774D01*
X101169D01*
Y59974D01*
X101568D01*
X85919Y58852D02*
Y58452D01*
X86719D01*
Y58852D01*
X87119D01*
Y59652D01*
X86719D01*
Y60052D01*
X85919D01*
Y59652D01*
X85519D01*
Y58852D01*
X85919D01*
X119285Y47435D02*
Y47035D01*
X120085D01*
Y47435D01*
X120485D01*
Y48235D01*
X120085D01*
Y48635D01*
X119285D01*
Y48235D01*
X118885D01*
Y47435D01*
X119285D01*
X113665Y53161D02*
Y52761D01*
X114465D01*
Y53161D01*
X114866D01*
Y53961D01*
X114465D01*
Y54361D01*
X113665D01*
Y53961D01*
X113266D01*
Y53161D01*
X113665D01*
X113861Y55594D02*
Y55194D01*
X114661D01*
Y55594D01*
X115061D01*
Y56394D01*
X114661D01*
Y56794D01*
X113861D01*
Y56394D01*
X113461D01*
Y55594D01*
X113861D01*
X113773Y50722D02*
Y50322D01*
X114573D01*
Y50722D01*
X114973D01*
Y51522D01*
X114573D01*
Y51922D01*
X113773D01*
Y51522D01*
X113373D01*
Y50722D01*
X113773D01*
X116135Y57868D02*
Y57468D01*
X116935D01*
Y57868D01*
X117335D01*
Y58668D01*
X116935D01*
Y59068D01*
X116135D01*
Y58668D01*
X115735D01*
Y57868D01*
X116135D01*
X132525Y47053D02*
Y46653D01*
X133325D01*
Y47053D01*
X133725D01*
Y47853D01*
X133325D01*
Y48253D01*
X132525D01*
Y47853D01*
X132125D01*
Y47053D01*
X132525D01*
X232109Y4961D02*
Y4561D01*
X232909D01*
Y4961D01*
X233309D01*
Y5762D01*
X232909D01*
Y6162D01*
X232109D01*
Y5762D01*
X231709D01*
Y4961D01*
X232109D01*
X183532Y41254D02*
Y40854D01*
X184332D01*
Y41254D01*
X184732D01*
Y42054D01*
X184332D01*
Y42454D01*
X183532D01*
Y42054D01*
X183132D01*
Y41254D01*
X183532D01*
X104948Y44351D02*
Y43951D01*
X105748D01*
Y44351D01*
X106148D01*
Y45151D01*
X105748D01*
Y45551D01*
X104948D01*
Y45151D01*
X104548D01*
Y44351D01*
X104948D01*
X124797Y42021D02*
Y41621D01*
X125597D01*
Y42021D01*
X125997D01*
Y42821D01*
X125597D01*
Y43221D01*
X124797D01*
Y42821D01*
X124397D01*
Y42021D01*
X124797D01*
X-12309Y-6404D02*
Y-6804D01*
X-11509D01*
Y-6404D01*
X-11109D01*
Y-5604D01*
X-11509D01*
Y-5204D01*
X-12309D01*
Y-5604D01*
X-12709D01*
Y-6404D01*
X-12309D01*
X126568Y82179D02*
Y81779D01*
X127368D01*
Y82179D01*
X127769D01*
Y82979D01*
X127368D01*
Y83379D01*
X126568D01*
Y82979D01*
X126169D01*
Y82179D01*
X126568D01*
X171844Y86903D02*
Y86503D01*
X172644D01*
Y86903D01*
X173044D01*
Y87703D01*
X172644D01*
Y88103D01*
X171844D01*
Y87703D01*
X171444D01*
Y86903D01*
X171844D01*
X200552Y71109D02*
Y70709D01*
X201352D01*
Y71109D01*
X201752D01*
Y71909D01*
X201352D01*
Y72309D01*
X200552D01*
Y71909D01*
X200152D01*
Y71109D01*
X200552D01*
X93399Y62297D02*
Y61897D01*
X94199D01*
Y62297D01*
X94599D01*
Y63097D01*
X94199D01*
Y63497D01*
X93399D01*
Y63097D01*
X92999D01*
Y62297D01*
X93399D01*
X43694Y59049D02*
Y58649D01*
X44495D01*
Y59049D01*
X44894D01*
Y59849D01*
X44495D01*
Y60249D01*
X43694D01*
Y59849D01*
X43295D01*
Y59049D01*
X43694D01*
X171746Y75486D02*
Y75086D01*
X172546D01*
Y75486D01*
X172946D01*
Y76286D01*
X172546D01*
Y76686D01*
X171746D01*
Y76286D01*
X171346D01*
Y75486D01*
X171746D01*
X178143Y81490D02*
Y81090D01*
X178943D01*
Y81490D01*
X179343D01*
Y82290D01*
X178943D01*
Y82690D01*
X178143D01*
Y82290D01*
X177743D01*
Y81490D01*
X178143D01*
X115982Y91545D02*
Y91145D01*
X116782D01*
Y91545D01*
X117182D01*
Y92345D01*
X116782D01*
Y92745D01*
X115982D01*
Y92345D01*
X115582D01*
Y91545D01*
X115982D01*
X135722Y57868D02*
Y57468D01*
X136522D01*
Y57868D01*
X136922D01*
Y58668D01*
X136522D01*
Y59068D01*
X135722D01*
Y58668D01*
X135322D01*
Y57868D01*
X135722D01*
X132572Y57769D02*
Y57369D01*
X133372D01*
Y57769D01*
X133772D01*
Y58569D01*
X133372D01*
Y58969D01*
X132572D01*
Y58569D01*
X132172D01*
Y57769D01*
X132572D01*
X129521D02*
Y57369D01*
X130321D01*
Y57769D01*
X130721D01*
Y58569D01*
X130321D01*
Y58969D01*
X129521D01*
Y58569D01*
X129121D01*
Y57769D01*
X129521D01*
X125683Y57572D02*
Y57172D01*
X126483D01*
Y57572D01*
X126883D01*
Y58372D01*
X126483D01*
Y58772D01*
X125683D01*
Y58372D01*
X125283D01*
Y57572D01*
X125683D01*
X135820Y61706D02*
Y61306D01*
X136620D01*
Y61706D01*
X137021D01*
Y62506D01*
X136620D01*
Y62906D01*
X135820D01*
Y62506D01*
X135421D01*
Y61706D01*
X135820D01*
X132261Y61572D02*
Y61172D01*
X133061D01*
Y61572D01*
X133461D01*
Y62372D01*
X133061D01*
Y62773D01*
X132261D01*
Y62372D01*
X131861D01*
Y61572D01*
X132261D01*
X129269D02*
Y61172D01*
X130069D01*
Y61572D01*
X130469D01*
Y62372D01*
X130069D01*
Y62773D01*
X129269D01*
Y62372D01*
X128869D01*
Y61572D01*
X129269D01*
X125781Y61608D02*
Y61208D01*
X126581D01*
Y61608D01*
X126981D01*
Y62408D01*
X126581D01*
Y62808D01*
X125781D01*
Y62408D01*
X125381D01*
Y61608D01*
X125781D01*
X136116Y65348D02*
Y64948D01*
X136916D01*
Y65348D01*
X137316D01*
Y66148D01*
X136916D01*
Y66548D01*
X136116D01*
Y66148D01*
X135716D01*
Y65348D01*
X136116D01*
X132478Y65649D02*
Y65249D01*
X133278D01*
Y65649D01*
X133678D01*
Y66449D01*
X133278D01*
Y66849D01*
X132478D01*
Y66449D01*
X132078D01*
Y65649D01*
X132478D01*
X129620Y65151D02*
Y64751D01*
X130420D01*
Y65151D01*
X130820D01*
Y65951D01*
X130420D01*
Y66351D01*
X129620D01*
Y65951D01*
X129220D01*
Y65151D01*
X129620D01*
X125978D02*
Y64751D01*
X126778D01*
Y65151D01*
X127178D01*
Y65951D01*
X126778D01*
Y66351D01*
X125978D01*
Y65951D01*
X125578D01*
Y65151D01*
X125978D01*
X135919Y68596D02*
Y68196D01*
X136719D01*
Y68596D01*
X137119D01*
Y69396D01*
X136719D01*
Y69796D01*
X135919D01*
Y69396D01*
X135519D01*
Y68596D01*
X135919D01*
X132474D02*
Y68196D01*
X133274D01*
Y68596D01*
X133674D01*
Y69396D01*
X133274D01*
Y69796D01*
X132474D01*
Y69396D01*
X132074D01*
Y68596D01*
X132474D01*
X129324Y68498D02*
Y68098D01*
X130124D01*
Y68498D01*
X130524D01*
Y69298D01*
X130124D01*
Y69698D01*
X129324D01*
Y69298D01*
X128924D01*
Y68498D01*
X129324D01*
X125978Y68596D02*
Y68196D01*
X126778D01*
Y68596D01*
X127178D01*
Y69396D01*
X126778D01*
Y69796D01*
X125978D01*
Y69396D01*
X125578D01*
Y68596D01*
X125978D01*
X147750Y67968D02*
Y67568D01*
X148550D01*
Y67968D01*
X148950D01*
Y68768D01*
X148550D01*
Y69168D01*
X147750D01*
Y68768D01*
X147350D01*
Y67968D01*
X147750D01*
X21647Y27454D02*
Y27054D01*
X22447D01*
Y27454D01*
X22847D01*
Y28254D01*
X22447D01*
Y28654D01*
X21647D01*
Y28254D01*
X21247D01*
Y27454D01*
X21647D01*
X90151Y51864D02*
Y51464D01*
X90951D01*
Y51864D01*
X91351D01*
Y52664D01*
X90951D01*
Y53064D01*
X90151D01*
Y52664D01*
X89751D01*
Y51864D01*
X90151D01*
X22533Y224895D02*
Y224495D01*
X23333D01*
Y224895D01*
X23733D01*
Y225695D01*
X23333D01*
Y226095D01*
X22533D01*
Y225695D01*
X22133D01*
Y224895D01*
X22533D01*
X198419Y42710D02*
Y42310D01*
X199219D01*
Y42710D01*
X199619D01*
Y43510D01*
X199219D01*
Y43910D01*
X198419D01*
Y43510D01*
X198019D01*
Y42710D01*
X198419D01*
X167710Y50092D02*
Y49692D01*
X168510D01*
Y50092D01*
X168910D01*
Y50892D01*
X168510D01*
Y51292D01*
X167710D01*
Y50892D01*
X167310D01*
Y50092D01*
X167710D01*
X95916Y88141D02*
Y87741D01*
X96715D01*
Y88141D01*
X97115D01*
Y88941D01*
X96715D01*
Y89341D01*
X95916D01*
Y88941D01*
X95516D01*
Y88141D01*
X95916D01*
X98475Y81817D02*
Y81417D01*
X99275D01*
Y81817D01*
X99675D01*
Y82617D01*
X99275D01*
Y83017D01*
X98475D01*
Y82617D01*
X98075D01*
Y81817D01*
X98475D01*
X89364Y80506D02*
Y80106D01*
X90164D01*
Y80506D01*
X90564D01*
Y81305D01*
X90164D01*
Y81705D01*
X89364D01*
Y81305D01*
X88964D01*
Y80506D01*
X89364D01*
X108065Y59541D02*
Y59141D01*
X108865D01*
Y59541D01*
X109265D01*
Y60341D01*
X108865D01*
Y60741D01*
X108065D01*
Y60341D01*
X107665D01*
Y59541D01*
X108065D01*
X108950Y44383D02*
Y43984D01*
X109750D01*
Y44383D01*
X110150D01*
Y45184D01*
X109750D01*
Y45584D01*
X108950D01*
Y45184D01*
X108550D01*
Y44383D01*
X108950D01*
X97385Y71532D02*
Y71132D01*
X98185D01*
Y71532D01*
X98585D01*
Y72333D01*
X98185D01*
Y72733D01*
X97385D01*
Y72333D01*
X96985D01*
Y71532D01*
X97385D01*
X143361Y47848D02*
Y47448D01*
X144161D01*
Y47848D01*
X144561D01*
Y48648D01*
X144161D01*
Y49048D01*
X143361D01*
Y48648D01*
X142961D01*
Y47848D01*
X143361D01*
X142120Y43990D02*
Y43590D01*
X142920D01*
Y43990D01*
X143320D01*
Y44790D01*
X142920D01*
Y45190D01*
X142120D01*
Y44790D01*
X141720D01*
Y43990D01*
X142120D01*
X141431Y49698D02*
Y49298D01*
X142231D01*
Y49698D01*
X142631D01*
Y50498D01*
X142231D01*
Y50898D01*
X141431D01*
Y50498D01*
X141031D01*
Y49698D01*
X141431D01*
X190348Y51667D02*
Y51267D01*
X191148D01*
Y51667D01*
X191548D01*
Y52467D01*
X191148D01*
Y52867D01*
X190348D01*
Y52467D01*
X189948D01*
Y51667D01*
X190348D01*
X192997Y59774D02*
Y59374D01*
X193797D01*
Y59774D01*
X194196D01*
Y60574D01*
X193797D01*
Y60974D01*
X192997D01*
Y60574D01*
X192596D01*
Y59774D01*
X192997D01*
X188675Y67317D02*
Y66917D01*
X189475D01*
Y67317D01*
X189875D01*
Y68116D01*
X189475D01*
Y68516D01*
X188675D01*
Y68116D01*
X188275D01*
Y67317D01*
X188675D01*
X195171Y66431D02*
Y66031D01*
X195971D01*
Y66431D01*
X196371D01*
Y67231D01*
X195971D01*
Y67631D01*
X195171D01*
Y67231D01*
X194771D01*
Y66431D01*
X195171D01*
X183065Y71943D02*
Y71543D01*
X183865D01*
Y71943D01*
X184265D01*
Y72742D01*
X183865D01*
Y73142D01*
X183065D01*
Y72742D01*
X182665D01*
Y71943D01*
X183065D01*
X176765Y74403D02*
Y74003D01*
X177565D01*
Y74403D01*
X177965D01*
Y75203D01*
X177565D01*
Y75603D01*
X176765D01*
Y75203D01*
X176365D01*
Y74403D01*
X176765D01*
X156490Y62002D02*
Y61602D01*
X157290D01*
Y62002D01*
X157690D01*
Y62802D01*
X157290D01*
Y63202D01*
X156490D01*
Y62802D01*
X156090D01*
Y62002D01*
X156490D01*
X152454Y55309D02*
Y54909D01*
X153254D01*
Y55309D01*
X153654D01*
Y56109D01*
X153254D01*
Y56509D01*
X152454D01*
Y56109D01*
X152054D01*
Y55309D01*
X152454D01*
X152294Y60545D02*
Y60145D01*
X153094D01*
Y60545D01*
X153494D01*
Y61345D01*
X153094D01*
Y61745D01*
X152294D01*
Y61345D01*
X151894D01*
Y60545D01*
X152294D01*
X149324Y57376D02*
Y56976D01*
X150124D01*
Y57376D01*
X150524D01*
Y58176D01*
X150124D01*
Y58576D01*
X149324D01*
Y58176D01*
X148924D01*
Y57376D01*
X149324D01*
X160336Y64465D02*
Y64065D01*
X161136D01*
Y64465D01*
X161536D01*
Y65265D01*
X161136D01*
Y65665D01*
X160336D01*
Y65265D01*
X159936D01*
Y64465D01*
X160336D01*
X165123Y68104D02*
Y67704D01*
X165923D01*
Y68104D01*
X166323D01*
Y68904D01*
X165923D01*
Y69304D01*
X165123D01*
Y68904D01*
X164723D01*
Y68104D01*
X165123D01*
X131785Y120269D02*
Y119869D01*
X132585D01*
Y120269D01*
X132985D01*
Y121069D01*
X132585D01*
Y121469D01*
X131785D01*
Y121069D01*
X131385D01*
Y120269D01*
X131785D01*
X137926Y120250D02*
Y119850D01*
X138725D01*
Y120250D01*
X139126D01*
Y121050D01*
X138725D01*
Y121450D01*
X137926D01*
Y121050D01*
X137525D01*
Y120250D01*
X137926D01*
X135624Y100092D02*
Y99692D01*
X136424D01*
Y100092D01*
X136824D01*
Y100892D01*
X136424D01*
Y101292D01*
X135624D01*
Y100892D01*
X135224D01*
Y100092D01*
X135624D01*
X136214Y90840D02*
Y90440D01*
X137014D01*
Y90840D01*
X137414D01*
Y91640D01*
X137014D01*
Y92040D01*
X136214D01*
Y91640D01*
X135814D01*
Y90840D01*
X136214D01*
X126765Y121254D02*
Y120853D01*
X127565D01*
Y121254D01*
X127965D01*
Y122054D01*
X127565D01*
Y122453D01*
X126765D01*
Y122054D01*
X126365D01*
Y121254D01*
X126765D01*
X152750Y82671D02*
Y82271D01*
X153550D01*
Y82671D01*
X153950D01*
Y83471D01*
X153550D01*
Y83871D01*
X152750D01*
Y83471D01*
X152350D01*
Y82671D01*
X152750D01*
X96380Y123992D02*
Y123591D01*
X97180D01*
Y123992D01*
X97580D01*
Y124792D01*
X97180D01*
Y125191D01*
X96380D01*
Y124792D01*
X95980D01*
Y123992D01*
X96380D01*
X136141Y78566D02*
Y78167D01*
X136941D01*
Y78566D01*
X137340D01*
Y79366D01*
X136941D01*
Y79766D01*
X136141D01*
Y79366D01*
X135740D01*
Y78566D01*
X136141D01*
X136214Y84738D02*
Y84338D01*
X137014D01*
Y84738D01*
X137414D01*
Y85538D01*
X137014D01*
Y85938D01*
X136214D01*
Y85538D01*
X135814D01*
Y84738D01*
X136214D01*
X130536Y76556D02*
Y76156D01*
X131336D01*
Y76556D01*
X131737D01*
Y77355D01*
X131336D01*
Y77755D01*
X130536D01*
Y77355D01*
X130137D01*
Y76556D01*
X130536D01*
X147435Y93498D02*
Y93098D01*
X148235D01*
Y93498D01*
X148635D01*
Y94298D01*
X148235D01*
Y94698D01*
X147435D01*
Y94298D01*
X147035D01*
Y93498D01*
X147435D01*
X141332Y90643D02*
Y90243D01*
X142132D01*
Y90643D01*
X142532D01*
Y91443D01*
X142132D01*
Y91843D01*
X141332D01*
Y91443D01*
X140932D01*
Y90643D01*
X141332D01*
X149734Y28188D02*
Y27788D01*
X150534D01*
Y28188D01*
X150934D01*
Y28988D01*
X150534D01*
Y29388D01*
X149734D01*
Y28988D01*
X149334D01*
Y28188D01*
X149734D01*
X138281Y28537D02*
Y28137D01*
X139081D01*
Y28537D01*
X139481D01*
Y29337D01*
X139081D01*
Y29737D01*
X138281D01*
Y29337D01*
X137881D01*
Y28537D01*
X138281D01*
X120860Y151667D02*
Y151267D01*
X121660D01*
Y151667D01*
X122060D01*
Y152467D01*
X121660D01*
Y152867D01*
X120860D01*
Y152467D01*
X120460D01*
Y151667D01*
X120860D01*
X152356Y170860D02*
Y170460D01*
X153156D01*
Y170860D01*
X153556D01*
Y171660D01*
X153156D01*
Y172060D01*
X152356D01*
Y171660D01*
X151956D01*
Y170860D01*
X152356D01*
X59344Y75978D02*
Y75578D01*
X60144D01*
Y75978D01*
X60544D01*
Y76778D01*
X60144D01*
Y77178D01*
X59344D01*
Y76778D01*
X58944D01*
Y75978D01*
X59344D01*
X46057Y53734D02*
Y53334D01*
X46857D01*
Y53734D01*
X47257D01*
Y54534D01*
X46857D01*
Y54934D01*
X46057D01*
Y54534D01*
X45657D01*
Y53734D01*
X46057D01*
X29226Y26470D02*
Y26070D01*
X30026D01*
Y26470D01*
X30426D01*
Y27270D01*
X30026D01*
Y27670D01*
X29226D01*
Y27270D01*
X28826D01*
Y26470D01*
X29226D01*
X148950Y41236D02*
Y40836D01*
X149750D01*
Y41236D01*
X150150D01*
Y42036D01*
X149750D01*
Y42436D01*
X148950D01*
Y42036D01*
X148550D01*
Y41236D01*
X148950D01*
X159617Y53005D02*
Y52605D01*
X160417D01*
Y53005D01*
X160817D01*
Y53806D01*
X160417D01*
Y54206D01*
X159617D01*
Y53806D01*
X159217D01*
Y53005D01*
X159617D01*
X149009Y37986D02*
Y37586D01*
X149809D01*
Y37986D01*
X150209D01*
Y38786D01*
X149809D01*
Y39186D01*
X149009D01*
Y38786D01*
X148609D01*
Y37986D01*
X149009D01*
X162691Y50191D02*
Y49791D01*
X163491D01*
Y50191D01*
X163891D01*
Y50991D01*
X163491D01*
Y51390D01*
X162691D01*
Y50991D01*
X162291D01*
Y50191D01*
X162691D01*
X186509Y60525D02*
Y60125D01*
X187309D01*
Y60525D01*
X187709D01*
Y61325D01*
X187309D01*
Y61725D01*
X186509D01*
Y61325D01*
X186109D01*
Y60525D01*
X186509D01*
X145368Y51765D02*
Y51365D01*
X146168D01*
Y51765D01*
X146568D01*
Y52565D01*
X146168D01*
Y52965D01*
X145368D01*
Y52565D01*
X144968D01*
Y51765D01*
X145368D01*
X84738Y76765D02*
Y76365D01*
X85538D01*
Y76765D01*
X85938D01*
Y77565D01*
X85538D01*
Y77965D01*
X84738D01*
Y77565D01*
X84338D01*
Y76765D01*
X84738D01*
X83655Y62691D02*
Y62291D01*
X84455D01*
Y62691D01*
X84855D01*
Y63490D01*
X84455D01*
Y63890D01*
X83655D01*
Y63490D01*
X83255D01*
Y62691D01*
X83655D01*
X95015Y39960D02*
Y39560D01*
X95815D01*
Y39960D01*
X96215D01*
Y40760D01*
X95815D01*
Y41160D01*
X95015D01*
Y40760D01*
X94615D01*
Y39960D01*
X95015D01*
X127061Y46844D02*
Y46444D01*
X127861D01*
Y46844D01*
X128261D01*
Y47644D01*
X127861D01*
Y48044D01*
X127061D01*
Y47644D01*
X126661D01*
Y46844D01*
X127061D01*
X147238Y32966D02*
Y32566D01*
X148038D01*
Y32966D01*
X148438D01*
Y33766D01*
X148038D01*
Y34166D01*
X147238D01*
Y33766D01*
X146838D01*
Y32966D01*
X147238D01*
X152750Y45663D02*
Y45263D01*
X153550D01*
Y45663D01*
X153950D01*
Y46463D01*
X153550D01*
Y46863D01*
X152750D01*
Y46463D01*
X152350D01*
Y45663D01*
X152750D01*
X134049Y41431D02*
Y41031D01*
X134849D01*
Y41431D01*
X135249D01*
Y42231D01*
X134849D01*
Y42631D01*
X134049D01*
Y42231D01*
X133649D01*
Y41431D01*
X134049D01*
X139364Y46057D02*
Y45657D01*
X140164D01*
Y46057D01*
X140564D01*
Y46857D01*
X140164D01*
Y47257D01*
X139364D01*
Y46857D01*
X138964D01*
Y46057D01*
X139364D01*
X136116Y45565D02*
Y45165D01*
X136916D01*
Y45565D01*
X137316D01*
Y46365D01*
X136916D01*
Y46765D01*
X136116D01*
Y46365D01*
X135716D01*
Y45565D01*
X136116D01*
X113478Y43399D02*
Y42999D01*
X114278D01*
Y43399D01*
X114678D01*
Y44199D01*
X114278D01*
Y44599D01*
X113478D01*
Y44199D01*
X113078D01*
Y43399D01*
X113478D01*
X101076Y43596D02*
Y43196D01*
X101876D01*
Y43596D01*
X102276D01*
Y44396D01*
X101876D01*
Y44796D01*
X101076D01*
Y44396D01*
X100676D01*
Y43596D01*
X101076D01*
X150978Y74600D02*
Y74200D01*
X151778D01*
Y74600D01*
X152178D01*
Y75400D01*
X151778D01*
Y75800D01*
X150978D01*
Y75400D01*
X150578D01*
Y74600D01*
X150978D01*
X151076Y79226D02*
Y78826D01*
X151876D01*
Y79226D01*
X152276D01*
Y80026D01*
X151876D01*
Y80426D01*
X151076D01*
Y80026D01*
X150676D01*
Y79226D01*
X151076D01*
X149305Y88380D02*
Y87980D01*
X150105D01*
Y88380D01*
X150505D01*
Y89179D01*
X150105D01*
Y89579D01*
X149305D01*
Y89179D01*
X148905D01*
Y88380D01*
X149305D01*
X112494Y76569D02*
Y76169D01*
X113294D01*
Y76569D01*
X113694D01*
Y77368D01*
X113294D01*
Y77768D01*
X112494D01*
Y77368D01*
X112094D01*
Y76569D01*
X112494D01*
X113596Y66754D02*
Y66354D01*
X114396D01*
Y66754D01*
X114796D01*
Y67554D01*
X114396D01*
Y67954D01*
X113596D01*
Y67554D01*
X113196D01*
Y66754D01*
X113596D01*
X120020Y72828D02*
Y72428D01*
X120820D01*
Y72828D01*
X121220D01*
Y73628D01*
X120820D01*
Y74028D01*
X120020D01*
Y73628D01*
X119620D01*
Y72828D01*
X120020D01*
X140446Y78045D02*
Y77645D01*
X141246D01*
Y78045D01*
X141647D01*
Y78845D01*
X141246D01*
Y79245D01*
X140446D01*
Y78845D01*
X140047D01*
Y78045D01*
X140446D01*
X141628Y74502D02*
Y74102D01*
X142428D01*
Y74502D01*
X142828D01*
Y75302D01*
X142428D01*
Y75702D01*
X141628D01*
Y75302D01*
X141228D01*
Y74502D01*
X141628D01*
X152356Y68891D02*
Y68491D01*
X153156D01*
Y68891D01*
X153556D01*
Y69691D01*
X153156D01*
Y70091D01*
X152356D01*
Y69691D01*
X151956D01*
Y68891D01*
X152356D01*
X161411Y74403D02*
Y74003D01*
X162211D01*
Y74403D01*
X162611D01*
Y75203D01*
X162211D01*
Y75603D01*
X161411D01*
Y75203D01*
X161011D01*
Y74403D01*
X161411D01*
X163970Y79128D02*
Y78728D01*
X164770D01*
Y79128D01*
X165170D01*
Y79928D01*
X164770D01*
Y80328D01*
X163970D01*
Y79928D01*
X163570D01*
Y79128D01*
X163970D01*
X175702Y44758D02*
Y44357D01*
X176502D01*
Y44758D01*
X176902D01*
Y45557D01*
X176502D01*
Y45957D01*
X175702D01*
Y45557D01*
X175302D01*
Y44758D01*
X175702D01*
X147632Y55506D02*
Y55106D01*
X148432D01*
Y55506D01*
X148831D01*
Y56305D01*
X148432D01*
Y56705D01*
X147632D01*
Y56305D01*
X147231D01*
Y55506D01*
X147632D01*
X174403Y62986D02*
Y62586D01*
X175203D01*
Y62986D01*
X175603D01*
Y63786D01*
X175203D01*
Y64186D01*
X174403D01*
Y63786D01*
X174003D01*
Y62986D01*
X174403D01*
X119672Y168098D02*
X120072D01*
X120472Y168498D01*
X120872Y168098D01*
X121272D01*
Y168498D01*
X120872Y168898D01*
X121272Y169298D01*
Y169698D01*
X120872D01*
X120472Y169298D01*
X120072Y169698D01*
X119672D01*
Y169298D01*
X120072Y168898D01*
X119672Y168498D01*
Y168098D01*
X90145Y157468D02*
X90545D01*
X90945Y157868D01*
X91345Y157468D01*
X91745D01*
Y157868D01*
X91345Y158268D01*
X91745Y158668D01*
Y159068D01*
X91345D01*
X90945Y158668D01*
X90545Y159068D01*
X90145D01*
Y158668D01*
X90545Y158268D01*
X90145Y157868D01*
Y157468D01*
X164687Y82259D02*
Y81859D01*
X165487D01*
Y82259D01*
X165887D01*
Y83059D01*
X165487D01*
Y83459D01*
X164687D01*
Y83059D01*
X164287D01*
Y82259D01*
X164687D01*
X164293Y87377D02*
Y86977D01*
X165093D01*
Y87377D01*
X165493D01*
Y88177D01*
X165093D01*
Y88577D01*
X164293D01*
Y88177D01*
X163893D01*
Y87377D01*
X164293D01*
X164687Y92102D02*
Y91702D01*
X165487D01*
Y92102D01*
X165887D01*
Y92902D01*
X165487D01*
Y93302D01*
X164687D01*
Y92902D01*
X164287D01*
Y92102D01*
X164687D01*
X88176Y109043D02*
Y110643D01*
X89776D01*
Y109043D01*
X88176D01*
X114015Y63925D02*
Y63525D01*
X114815D01*
Y63925D01*
X115215D01*
Y64725D01*
X114815D01*
Y65125D01*
X114015D01*
Y64725D01*
X113615D01*
Y63925D01*
X114015D01*
X147632Y70466D02*
Y70066D01*
X148432D01*
Y70466D01*
X148831D01*
Y71266D01*
X148432D01*
Y71666D01*
X147632D01*
Y71266D01*
X147231D01*
Y70466D01*
X147632D01*
X148025Y59443D02*
Y59043D01*
X148825D01*
Y59443D01*
X149225D01*
Y60242D01*
X148825D01*
Y60642D01*
X148025D01*
Y60242D01*
X147625D01*
Y59443D01*
X148025D01*
X146450Y62986D02*
Y62586D01*
X147250D01*
Y62986D01*
X147650D01*
Y63786D01*
X147250D01*
Y64186D01*
X146450D01*
Y63786D01*
X146050D01*
Y62986D01*
X146450D01*
X199600Y194088D02*
Y193688D01*
X200400D01*
Y194088D01*
X200800D01*
Y194888D01*
X200400D01*
Y195288D01*
X199600D01*
Y194888D01*
X199200D01*
Y194088D01*
X199600D01*
X243694Y231096D02*
Y230696D01*
X244495D01*
Y231096D01*
X244895D01*
Y231896D01*
X244495D01*
Y232296D01*
X243694D01*
Y231896D01*
X243295D01*
Y231096D01*
X243694D01*
X781Y224797D02*
Y224397D01*
X1581D01*
Y224797D01*
X1981D01*
Y225597D01*
X1581D01*
Y225997D01*
X781D01*
Y225597D01*
X381D01*
Y224797D01*
X781D01*
X42513Y166135D02*
Y165735D01*
X43313D01*
Y166135D01*
X43713D01*
Y166935D01*
X43313D01*
Y167335D01*
X42513D01*
Y166935D01*
X42113D01*
Y166135D01*
X42513D01*
X74797Y190939D02*
Y190539D01*
X75597D01*
Y190939D01*
X75997D01*
Y191739D01*
X75597D01*
Y192139D01*
X74797D01*
Y191739D01*
X74397D01*
Y190939D01*
X74797D01*
X60230Y183852D02*
Y183452D01*
X61030D01*
Y183852D01*
X61430D01*
Y184652D01*
X61030D01*
Y185052D01*
X60230D01*
Y184652D01*
X59830D01*
Y183852D01*
X60230D01*
X59830Y178334D02*
X60230D01*
X60630Y178734D01*
X61030Y178334D01*
X61430D01*
Y178734D01*
X61030Y179134D01*
X61430Y179534D01*
Y179934D01*
X61030D01*
X60630Y179534D01*
X60230Y179934D01*
X59830D01*
Y179534D01*
X60230Y179134D01*
X59830Y178734D01*
Y178334D01*
X72435Y196057D02*
Y195657D01*
X73235D01*
Y196057D01*
X73635D01*
Y196857D01*
X73235D01*
Y197257D01*
X72435D01*
Y196857D01*
X72035D01*
Y196057D01*
X72435D01*
X26759Y171247D02*
X27159D01*
X27559Y171647D01*
X27959Y171247D01*
X28359D01*
Y171647D01*
X27959Y172047D01*
X28359Y172447D01*
Y172847D01*
X27959D01*
X27559Y172447D01*
X27159Y172847D01*
X26759D01*
Y172447D01*
X27159Y172047D01*
X26759Y171647D01*
Y171247D01*
X225584Y200781D02*
Y200381D01*
X226384D01*
Y200781D01*
X226784D01*
Y201581D01*
X226384D01*
Y201981D01*
X225584D01*
Y201581D01*
X225184D01*
Y200781D01*
X225584D01*
X60617Y198806D02*
X61017D01*
X61417Y199206D01*
X61817Y198806D01*
X62217D01*
Y199206D01*
X61817Y199606D01*
X62217Y200006D01*
Y200406D01*
X61817D01*
X61417Y200006D01*
X61017Y200406D01*
X60617D01*
Y200006D01*
X61017Y199606D01*
X60617Y199206D01*
Y198806D01*
X40539Y152350D02*
X40939D01*
X41339Y152750D01*
X41739Y152350D01*
X42139D01*
Y152750D01*
X41739Y153150D01*
X42139Y153550D01*
Y153950D01*
X41739D01*
X41339Y153550D01*
X40939Y153950D01*
X40539D01*
Y153550D01*
X40939Y153150D01*
X40539Y152750D01*
Y152350D01*
X-28359Y266142D02*
X-27559Y266942D01*
X-26759Y266142D01*
X-27559Y265342D01*
X-28359Y266142D01*
X264161D02*
X264961Y266942D01*
X265761Y266142D01*
X264961Y265342D01*
X264161Y266142D01*
Y-26772D02*
X264961Y-25972D01*
X265761Y-26772D01*
X264961Y-27572D01*
X264161Y-26772D01*
X-28359D02*
X-27559Y-25972D01*
X-26759Y-26772D01*
X-27559Y-27572D01*
X-28359Y-26772D01*
D119*
X305123Y300401D02*
G03*
X305123Y300401I-800J0D01*
G01*
X298052Y307472D02*
G03*
X298052Y307472I-800J0D01*
G01*
X-61027Y306284D02*
G03*
X-61027Y306284I-800J0D01*
G01*
X-68098Y299213D02*
G03*
X-68098Y299213I-800J0D01*
G01*
X-66909Y-59850D02*
G03*
X-66909Y-59850I-800J0D01*
G01*
X-59838Y-66921D02*
G03*
X-59838Y-66921I-800J0D01*
G01*
X302382Y-70465D02*
G03*
X302382Y-70465I-800J0D01*
G01*
X309454Y-63394D02*
G03*
X309454Y-63394I-800J0D01*
G01*
M02*
