G04*
G04 #@! TF.GenerationSoftware,Altium Limited,Altium Designer,20.1.14 (287)*
G04*
G04 Layer_Physical_Order=1*
G04 Layer_Color=255*
%FSLAX25Y25*%
%MOIN*%
G70*
G04*
G04 #@! TF.SameCoordinates,3184D8B6-75A7-45C6-B4AC-6B65BD642244*
G04*
G04*
G04 #@! TF.FilePolarity,Positive*
G04*
G01*
G75*
%ADD11C,0.01181*%
%ADD12C,0.00787*%
%ADD15C,0.00591*%
%ADD27R,0.03543X0.03543*%
G04:AMPARAMS|DCode=28|XSize=9.06mil|YSize=31.5mil|CornerRadius=2.26mil|HoleSize=0mil|Usage=FLASHONLY|Rotation=270.000|XOffset=0mil|YOffset=0mil|HoleType=Round|Shape=RoundedRectangle|*
%AMROUNDEDRECTD28*
21,1,0.00906,0.02697,0,0,270.0*
21,1,0.00453,0.03150,0,0,270.0*
1,1,0.00453,-0.01348,-0.00226*
1,1,0.00453,-0.01348,0.00226*
1,1,0.00453,0.01348,0.00226*
1,1,0.00453,0.01348,-0.00226*
%
%ADD28ROUNDEDRECTD28*%
G04:AMPARAMS|DCode=29|XSize=9.06mil|YSize=31.5mil|CornerRadius=2.26mil|HoleSize=0mil|Usage=FLASHONLY|Rotation=180.000|XOffset=0mil|YOffset=0mil|HoleType=Round|Shape=RoundedRectangle|*
%AMROUNDEDRECTD29*
21,1,0.00906,0.02697,0,0,180.0*
21,1,0.00453,0.03150,0,0,180.0*
1,1,0.00453,-0.00226,0.01348*
1,1,0.00453,0.00226,0.01348*
1,1,0.00453,0.00226,-0.01348*
1,1,0.00453,-0.00226,-0.01348*
%
%ADD29ROUNDEDRECTD29*%
G04:AMPARAMS|DCode=30|XSize=157.48mil|YSize=157.48mil|CornerRadius=3.94mil|HoleSize=0mil|Usage=FLASHONLY|Rotation=0.000|XOffset=0mil|YOffset=0mil|HoleType=Round|Shape=RoundedRectangle|*
%AMROUNDEDRECTD30*
21,1,0.15748,0.14961,0,0,0.0*
21,1,0.14961,0.15748,0,0,0.0*
1,1,0.00787,0.07480,-0.07480*
1,1,0.00787,-0.07480,-0.07480*
1,1,0.00787,-0.07480,0.07480*
1,1,0.00787,0.07480,0.07480*
%
%ADD30ROUNDEDRECTD30*%
%ADD31R,0.03543X0.03543*%
%ADD32R,0.06299X0.05906*%
%ADD33R,0.03347X0.03937*%
G04:AMPARAMS|DCode=34|XSize=39.37mil|YSize=39.37mil|CornerRadius=0mil|HoleSize=0mil|Usage=FLASHONLY|Rotation=225.000|XOffset=0mil|YOffset=0mil|HoleType=Round|Shape=Rectangle|*
%AMROTATEDRECTD34*
4,1,4,0.00000,0.02784,0.02784,0.00000,0.00000,-0.02784,-0.02784,0.00000,0.00000,0.02784,0.0*
%
%ADD34ROTATEDRECTD34*%

%ADD35P,0.05011X4X180.0*%
%ADD36R,0.09843X0.13386*%
%ADD37R,0.03740X0.07480*%
%ADD38R,0.26772X0.27165*%
G04:AMPARAMS|DCode=39|XSize=39.37mil|YSize=39.37mil|CornerRadius=0mil|HoleSize=0mil|Usage=FLASHONLY|Rotation=315.000|XOffset=0mil|YOffset=0mil|HoleType=Round|Shape=Rectangle|*
%AMROTATEDRECTD39*
4,1,4,-0.02784,0.00000,0.00000,0.02784,0.02784,0.00000,0.00000,-0.02784,-0.02784,0.00000,0.0*
%
%ADD39ROTATEDRECTD39*%

%ADD40R,0.03937X0.03937*%
%ADD41R,0.09055X0.09843*%
%ADD42R,0.04724X0.08661*%
%ADD43R,0.14173X0.08661*%
%ADD44P,0.05011X4X90.0*%
%ADD45R,0.06299X0.03543*%
%ADD46R,0.07087X0.16142*%
%ADD47P,0.05011X4X300.0*%
%ADD48R,0.04803X0.15748*%
%ADD49R,0.37008X0.32677*%
%ADD79C,0.07087*%
%ADD90C,0.01968*%
%ADD91C,0.00472*%
%ADD92C,0.07874*%
%ADD93C,0.01575*%
%ADD94C,0.03937*%
%ADD95C,0.05906*%
%ADD96C,0.03150*%
%ADD97C,0.07874*%
%ADD98P,0.11136X4X250.0*%
%ADD99P,0.11136X4X360.0*%
%ADD100P,0.11136X4X120.0*%
%ADD101C,0.06693*%
%ADD102P,0.11136X4X90.0*%
%ADD103P,0.10022X4X295.0*%
%ADD104P,0.11136X4X150.0*%
%ADD105R,0.05906X0.05906*%
%ADD106C,0.05906*%
%ADD107C,0.11811*%
%ADD108C,0.01968*%
%ADD109C,0.03937*%
%ADD110C,0.16929*%
G36*
X28958Y238832D02*
X29005Y238597D01*
X29220Y238275D01*
X29445Y238125D01*
X29426Y238093D01*
X29781Y237884D01*
X29857Y237844D01*
X37364Y233887D01*
X45124Y230244D01*
X53044Y226964D01*
X61107Y224052D01*
X69296Y221517D01*
X74789Y220090D01*
X74690Y219599D01*
X69288Y220371D01*
X69259Y220440D01*
X68898Y220590D01*
X61024D01*
X60662Y220440D01*
X58300Y218078D01*
X58150Y217717D01*
X58150Y197638D01*
X58300Y197276D01*
X58661Y197126D01*
X61373D01*
X61417Y197117D01*
X61462Y197126D01*
X68898Y197126D01*
X69259Y197276D01*
X69409Y197638D01*
X69409Y207756D01*
X76654D01*
Y205118D01*
X76804Y204756D01*
X77165Y204607D01*
X88071D01*
Y201969D01*
X88221Y201607D01*
X88583Y201457D01*
X89293D01*
X89646Y201104D01*
Y198031D01*
Y180315D01*
X89796Y179953D01*
X90158Y179804D01*
X175197D01*
X175558Y179953D01*
X177416Y181811D01*
X180394D01*
Y206380D01*
X202872D01*
Y205433D01*
X212872D01*
Y209342D01*
X215129D01*
X215156Y209347D01*
X215457Y209223D01*
X215473Y209198D01*
X220227Y204444D01*
X220247Y204431D01*
X220371Y204133D01*
X220365Y204106D01*
Y202362D01*
X220365Y202362D01*
X220394Y202219D01*
Y199331D01*
X224882D01*
Y199696D01*
X225984D01*
X226553Y199809D01*
X227034Y200131D01*
X227356Y200613D01*
X227469Y201181D01*
X227356Y201749D01*
X227034Y202231D01*
X226553Y202553D01*
X225984Y202666D01*
X224882D01*
Y203819D01*
X223718D01*
X223337Y204106D01*
X223219Y205000D01*
X222874Y205833D01*
X222330Y206542D01*
X222330Y206542D01*
X222328Y206544D01*
X222328Y206544D01*
X221979Y206893D01*
X217575Y211297D01*
X217576Y211297D01*
X217572Y211301D01*
X216857Y211851D01*
X216023Y212196D01*
X215129Y212313D01*
Y212312D01*
X215129Y212312D01*
X212872D01*
Y216221D01*
X202872D01*
Y215275D01*
X176575D01*
X175424Y215123D01*
X174351Y214679D01*
X173430Y213972D01*
X169812Y210354D01*
X104076D01*
X95064Y215637D01*
X95226Y216121D01*
X102957Y215224D01*
X111509Y214631D01*
X120079Y214433D01*
X128649Y214631D01*
X137201Y215224D01*
X145716Y216212D01*
X154177Y217592D01*
X162565Y219362D01*
X170862Y221517D01*
X179050Y224052D01*
X187113Y226964D01*
X195033Y230244D01*
X202793Y233887D01*
X210377Y237884D01*
X210967Y238231D01*
X210952Y238259D01*
X211175Y238409D01*
X211239Y238504D01*
X211317Y238556D01*
X294194Y321434D01*
X296545Y321302D01*
X299353Y320825D01*
X302089Y320036D01*
X304721Y318946D01*
X307214Y317568D01*
X309536Y315920D01*
X311660Y314022D01*
X313558Y311899D01*
X315206Y309576D01*
X316584Y307083D01*
X317674Y304452D01*
X318462Y301715D01*
X318939Y298907D01*
X319099Y296063D01*
X319083Y295781D01*
X236131Y212829D01*
X235861Y212648D01*
X235711Y212424D01*
X235678Y212442D01*
X235470Y212088D01*
X235430Y212011D01*
X231473Y204504D01*
X227830Y196744D01*
X224550Y188824D01*
X221638Y180761D01*
X219103Y172573D01*
X216948Y164275D01*
X215178Y155888D01*
X213798Y147427D01*
X212810Y138912D01*
X212217Y130360D01*
X212019Y121790D01*
X212217Y113220D01*
X212810Y104668D01*
X213605Y97818D01*
X213124Y97623D01*
X213070Y97693D01*
X213070Y97692D01*
X213070Y97692D01*
X211076Y99686D01*
X211053Y99702D01*
X210930Y99998D01*
X210934Y100019D01*
Y175984D01*
X210934Y175984D01*
X210821Y176553D01*
X210499Y177034D01*
X210499Y177034D01*
X196958Y190576D01*
Y199331D01*
X197716D01*
Y203819D01*
X193228D01*
Y199331D01*
X193987D01*
Y189961D01*
X193987Y189961D01*
X194100Y189392D01*
X194422Y188910D01*
X207964Y175369D01*
Y100019D01*
X207965Y100012D01*
X207965Y100012D01*
X208080Y99134D01*
X208425Y98301D01*
X208974Y97585D01*
X208975Y97586D01*
X210852Y95709D01*
X211093Y95332D01*
X211099Y95319D01*
X211100Y95319D01*
X211101Y95320D01*
X211861Y90632D01*
X211902Y90148D01*
X211902Y90148D01*
X211755Y89708D01*
X211307Y89260D01*
X210807Y89468D01*
Y93976D01*
X206516D01*
Y92318D01*
X204331D01*
X204031Y92259D01*
X203777Y92089D01*
X203608Y91835D01*
X203548Y91535D01*
Y79802D01*
X202516D01*
Y82445D01*
X195968D01*
X195665Y82445D01*
X195468Y82863D01*
Y93898D01*
X195468Y93898D01*
X195408Y94197D01*
X195238Y94451D01*
X194156Y95534D01*
X193902Y95704D01*
X193602Y95763D01*
X191294D01*
X191125Y96263D01*
X191533Y96577D01*
X192083Y97292D01*
X192428Y98125D01*
X192545Y99020D01*
X192428Y99914D01*
X192083Y100747D01*
X191533Y101463D01*
X190818Y102012D01*
X189985Y102357D01*
X189091Y102474D01*
X188196Y102357D01*
X187363Y102012D01*
X186648Y101463D01*
X186099Y100747D01*
X185754Y99914D01*
X185636Y99020D01*
X185754Y98125D01*
X186099Y97292D01*
X186648Y96577D01*
X187057Y96263D01*
X186887Y95763D01*
X180510D01*
X180507Y95766D01*
Y96772D01*
X185118D01*
Y111102D01*
X184397D01*
Y113391D01*
X193239D01*
X193539Y113450D01*
X193793Y113620D01*
X194254Y114081D01*
X194424Y114335D01*
X194483Y114635D01*
X194483Y114635D01*
Y121723D01*
X197175Y124414D01*
X202756D01*
X203056Y124474D01*
X203309Y124643D01*
X206065Y127399D01*
X206235Y127653D01*
X206295Y127953D01*
Y156693D01*
X206295Y156693D01*
X206235Y156992D01*
X206065Y157246D01*
X200160Y163152D01*
X199906Y163322D01*
X199606Y163381D01*
X184843D01*
X184543Y163322D01*
X184289Y163152D01*
X183218Y162081D01*
X182756Y162272D01*
Y165236D01*
X178268D01*
Y160748D01*
X178268D01*
Y160512D01*
X178268D01*
Y156420D01*
X177768Y156213D01*
X176850Y157131D01*
Y160512D01*
X176850D01*
Y160748D01*
X176850D01*
Y165236D01*
X172362D01*
Y160748D01*
X172362D01*
Y160512D01*
X172362D01*
Y156024D01*
X175743D01*
X176858Y154909D01*
X176651Y154409D01*
X171771D01*
Y166812D01*
X190335D01*
X190928Y166325D01*
X192036Y165733D01*
X193238Y165368D01*
X194488Y165245D01*
X195738Y165368D01*
X196941Y165733D01*
X198049Y166325D01*
X198642Y166812D01*
X200787D01*
X201149Y166961D01*
X201299Y167323D01*
X201299Y177559D01*
X201149Y177921D01*
X200787Y178070D01*
X165748Y178070D01*
X165386Y177921D01*
X161217Y173751D01*
X160717Y173958D01*
Y174755D01*
X160567Y175117D01*
X160173Y175511D01*
X159823Y175656D01*
Y175669D01*
X155138D01*
Y175660D01*
X155087D01*
X154726Y175511D01*
X154576Y175149D01*
Y172043D01*
X153985D01*
X153806Y172310D01*
X153324Y172632D01*
X152756Y172745D01*
X152188Y172632D01*
X151706Y172310D01*
X151384Y171828D01*
X151271Y171260D01*
X151384Y170692D01*
X151706Y170210D01*
X152188Y169888D01*
X152756Y169775D01*
X153324Y169888D01*
X153806Y170210D01*
X153985Y170477D01*
X154576D01*
Y156884D01*
X154076Y156677D01*
X153622Y157131D01*
Y160512D01*
X153622D01*
Y160748D01*
X153622D01*
Y165236D01*
X149134D01*
Y160748D01*
X149134D01*
Y160512D01*
X149134D01*
Y156420D01*
X148634Y156213D01*
X147716Y157131D01*
Y160512D01*
X147717D01*
Y160748D01*
X147716D01*
Y165236D01*
X143228D01*
Y160748D01*
X143228D01*
Y160512D01*
X143228D01*
Y156024D01*
X146609D01*
X148117Y154516D01*
X148089Y154310D01*
X147941Y154016D01*
X142544D01*
X142506Y154400D01*
X142141Y155602D01*
X141549Y156710D01*
X140752Y157681D01*
X139781Y158478D01*
X138673Y159071D01*
X138307Y159182D01*
Y165536D01*
X139188Y166418D01*
X144095D01*
X144456Y166568D01*
X144606Y166929D01*
Y174803D01*
X144456Y175165D01*
X144095Y175314D01*
X129134D01*
X128772Y175165D01*
X127321Y173713D01*
X126859Y173904D01*
Y174362D01*
X126709Y174723D01*
X126358Y175074D01*
Y175079D01*
X126353D01*
X126315Y175117D01*
X125954Y175267D01*
X121229D01*
X120868Y175117D01*
X120718Y174755D01*
Y171588D01*
X120472Y171386D01*
X119520Y171197D01*
X118713Y170658D01*
X118606Y170497D01*
X118106Y170649D01*
Y176704D01*
X118106Y176704D01*
X118046Y177004D01*
X117876Y177258D01*
X117415Y177719D01*
X117161Y177889D01*
X116862Y177948D01*
X92520D01*
X92220Y177889D01*
X91966Y177719D01*
X88769Y174521D01*
X88307Y174713D01*
Y183465D01*
X88279Y183532D01*
X88287Y183605D01*
X87519Y186292D01*
Y201969D01*
X87370Y202330D01*
X87008Y202480D01*
X86890D01*
Y202638D01*
X82402D01*
Y202366D01*
X82316Y202330D01*
X82166Y201969D01*
Y184464D01*
X81134Y183432D01*
X80985Y183071D01*
Y175605D01*
X72908Y167528D01*
X62500D01*
X62500Y167528D01*
X61932Y167415D01*
X61450Y167094D01*
X52141Y157784D01*
X44513D01*
X43373Y158924D01*
X42891Y159246D01*
X42323Y159359D01*
X42323Y159359D01*
X33465D01*
X33465Y159359D01*
X32896Y159246D01*
X32414Y158924D01*
X32414Y158924D01*
X25721Y152231D01*
X25400Y151750D01*
X25286Y151181D01*
X25286Y151181D01*
Y124648D01*
X24786Y124643D01*
X24739Y126680D01*
X24146Y135232D01*
X23158Y143747D01*
X21778Y152208D01*
X20008Y160596D01*
X17853Y168893D01*
X15318Y177082D01*
X12406Y185145D01*
X9126Y193065D01*
X5483Y200825D01*
X1486Y208408D01*
X1139Y208999D01*
X1111Y208983D01*
X962Y209206D01*
X640Y209421D01*
X274Y209494D01*
X-82537Y292305D01*
X-82541Y292375D01*
X-82357Y295638D01*
X-81810Y298860D01*
X-80905Y302000D01*
X-79655Y305019D01*
X-78074Y307879D01*
X-76183Y310545D01*
X-74005Y312981D01*
X-71568Y315159D01*
X-68903Y317050D01*
X-66043Y318631D01*
X-63024Y319882D01*
X-59883Y320786D01*
X-56661Y321334D01*
X-53709Y321499D01*
X28958Y238832D01*
D02*
G37*
G36*
X68898Y219910D02*
X92520Y216535D01*
X103937Y209842D01*
X175984D01*
X179528Y206299D01*
Y184646D01*
X175197Y180315D01*
X90158D01*
Y198031D01*
Y201969D01*
X88583Y201969D01*
Y205118D01*
X77165D01*
Y208268D01*
X77165Y208268D01*
X68898D01*
X68898Y197638D01*
X58661Y197638D01*
X58661Y217717D01*
X61024Y220079D01*
X68898D01*
Y219910D01*
D02*
G37*
G36*
X87008Y186221D02*
X87795Y183465D01*
Y173228D01*
X81496D01*
Y183071D01*
X82677Y184252D01*
Y201969D01*
X87008D01*
Y186221D01*
D02*
G37*
G36*
X87879Y172661D02*
Y168907D01*
X84092Y165120D01*
X83922Y164866D01*
X83863Y164567D01*
Y152362D01*
X83922Y152063D01*
X84092Y151809D01*
X87099Y148802D01*
X86887Y148307D01*
X86669Y148307D01*
X79843D01*
Y147548D01*
X78819D01*
Y148307D01*
X71575D01*
Y143819D01*
X78819D01*
Y144578D01*
X79843D01*
Y143819D01*
X87087D01*
Y147857D01*
X87087Y148043D01*
X87532Y148240D01*
X87879Y147962D01*
Y135939D01*
X87417Y135747D01*
X87370Y135795D01*
X87008Y135944D01*
X79921D01*
X79560Y135795D01*
X79410Y135433D01*
Y125591D01*
X79560Y125229D01*
X79921Y125079D01*
X81586D01*
Y117836D01*
X81089Y117786D01*
X80724Y118988D01*
X80132Y120096D01*
X79335Y121067D01*
X78364Y121864D01*
X77784Y122174D01*
Y126102D01*
X78031D01*
Y130591D01*
X75931D01*
X75787Y130619D01*
X75644Y130591D01*
X73543D01*
Y129619D01*
X73536Y129614D01*
X72996Y128807D01*
X72807Y127854D01*
Y122595D01*
X72351Y122456D01*
X71243Y121864D01*
X71087Y121736D01*
X63687D01*
X45786Y139637D01*
Y145472D01*
X45634Y146624D01*
X45354Y147300D01*
Y151334D01*
X45402Y151575D01*
X45354Y151815D01*
Y154016D01*
X43707D01*
X43473Y154440D01*
X43743Y154845D01*
X43898Y154814D01*
X43898Y154814D01*
X52756D01*
X52756Y154814D01*
X53324Y154927D01*
X53806Y155249D01*
X63115Y164558D01*
X73523D01*
X73524Y164558D01*
X74092Y164671D01*
X74574Y164993D01*
X82298Y172717D01*
X87795D01*
X87879Y172661D01*
D02*
G37*
G36*
X92146Y174977D02*
Y174741D01*
X92008Y174409D01*
Y161048D01*
X91508Y160644D01*
X90945Y160757D01*
X89992Y160567D01*
X89185Y160028D01*
X88646Y159220D01*
X88456Y158268D01*
X88646Y157315D01*
X89185Y156508D01*
X89992Y155968D01*
X90945Y155779D01*
X91514Y155892D01*
X91937Y155904D01*
X92156Y155549D01*
X92158Y155544D01*
X92596Y155106D01*
X92389Y154606D01*
X91260D01*
Y126496D01*
X100877D01*
Y87853D01*
X100990Y87285D01*
X101312Y86803D01*
X101731Y86523D01*
X102480Y85774D01*
Y83386D01*
X106968D01*
Y83386D01*
X107205D01*
Y83386D01*
X111693D01*
Y87874D01*
X110232D01*
Y88585D01*
X110234Y88587D01*
X116144D01*
X116146Y88585D01*
Y82418D01*
X116085Y82193D01*
X115650Y82007D01*
X107579D01*
X107205Y81968D01*
X106968D01*
X106968Y81968D01*
X105431D01*
X105418Y81977D01*
X105118Y82037D01*
X104819Y81977D01*
X104805Y81968D01*
X102480D01*
Y77480D01*
X104335D01*
Y76872D01*
X104395Y76572D01*
X104565Y76318D01*
X105924Y74958D01*
X105924Y74958D01*
X106178Y74789D01*
X106478Y74729D01*
X108514D01*
X108718Y74525D01*
X108972Y74356D01*
X109272Y74296D01*
X118780D01*
X119047Y73797D01*
X118934Y73228D01*
X119047Y72660D01*
X119369Y72178D01*
X119851Y71856D01*
X120420Y71743D01*
X120988Y71856D01*
X121209Y72004D01*
X121699Y71513D01*
X121953Y71344D01*
X122252Y71284D01*
X123866D01*
X124166Y71344D01*
X124420Y71513D01*
X125199Y72293D01*
X125211Y72311D01*
X125648Y72557D01*
X125879Y72403D01*
X126152Y72348D01*
X126604D01*
X126877Y72403D01*
X126971Y72465D01*
X127437Y72237D01*
X127447Y72228D01*
Y71930D01*
X127502Y71654D01*
X127658Y71419D01*
X127935Y71143D01*
X128170Y70986D01*
X128446Y70931D01*
X140847D01*
X141123Y70986D01*
X141152Y71005D01*
X141183Y71007D01*
X141630Y70825D01*
X141806Y70352D01*
X141694Y70184D01*
X141640Y69911D01*
Y69459D01*
X141694Y69186D01*
X141849Y68955D01*
Y68840D01*
X141694Y68609D01*
X141640Y68337D01*
Y67884D01*
X141694Y67611D01*
X141849Y67380D01*
Y67266D01*
X141694Y67035D01*
X141640Y66762D01*
Y66309D01*
X141694Y66036D01*
X141849Y65805D01*
Y65691D01*
X141694Y65460D01*
X141640Y65187D01*
Y64734D01*
X141694Y64462D01*
X141849Y64230D01*
Y64116D01*
X141694Y63885D01*
X141640Y63612D01*
Y63159D01*
X141694Y62887D01*
X141849Y62656D01*
Y62541D01*
X141694Y62310D01*
X141640Y62037D01*
Y61585D01*
X141694Y61312D01*
X141849Y61081D01*
Y60966D01*
X141694Y60735D01*
X141640Y60463D01*
Y60010D01*
X141694Y59737D01*
X141849Y59506D01*
Y59392D01*
X141694Y59160D01*
X141640Y58888D01*
Y58435D01*
X141694Y58162D01*
X141849Y57931D01*
Y57817D01*
X141694Y57586D01*
X141640Y57313D01*
Y56860D01*
X141694Y56588D01*
X141849Y56356D01*
Y56242D01*
X141694Y56011D01*
X141640Y55738D01*
Y55285D01*
X141694Y55013D01*
X141570Y54710D01*
X141012Y54546D01*
X140959Y54581D01*
X140660Y54641D01*
X124212D01*
X124211Y54642D01*
X124210Y54642D01*
X123913Y54940D01*
X123617Y59896D01*
Y66879D01*
X123651Y66929D01*
X123718Y67266D01*
X123725Y67276D01*
X123730Y67276D01*
X123605Y67903D01*
X123239Y68450D01*
X122692Y68816D01*
X122469Y68860D01*
X122402Y68918D01*
X122132Y69408D01*
X122133Y69425D01*
X122140Y69459D01*
Y69911D01*
X122085Y70184D01*
X121931Y70415D01*
X121700Y70570D01*
X121427Y70624D01*
X120587D01*
X120493Y70686D01*
X120079Y70769D01*
X117378D01*
X116434Y71713D01*
X116333Y72222D01*
X116011Y72704D01*
X115529Y73026D01*
X114961Y73139D01*
X105340D01*
X94751Y83727D01*
X84556Y93922D01*
Y107685D01*
X85056Y107784D01*
X85125Y107619D01*
X85831Y106698D01*
X86753Y105991D01*
X87825Y105547D01*
X88976Y105395D01*
X89291Y105119D01*
Y96772D01*
X100079D01*
Y111102D01*
X93227D01*
X92828Y112066D01*
X92121Y112987D01*
X91200Y113694D01*
X90127Y114138D01*
X88976Y114290D01*
X87825Y114138D01*
X86753Y113694D01*
X85831Y112987D01*
X85125Y112066D01*
X85056Y111901D01*
X84556Y112000D01*
Y125079D01*
X86221D01*
X86619Y124703D01*
Y117390D01*
X86678Y117091D01*
X86848Y116837D01*
X87309Y116376D01*
X87563Y116206D01*
X87863Y116146D01*
X87863Y116146D01*
X93721D01*
Y111929D01*
X98405D01*
Y120354D01*
X97239D01*
Y122998D01*
X97348Y123019D01*
X97830Y123341D01*
X98152Y123823D01*
X98265Y124391D01*
X98152Y124960D01*
X97830Y125442D01*
X97348Y125764D01*
X96780Y125877D01*
X96211Y125764D01*
X95729Y125442D01*
X95407Y124960D01*
X95294Y124391D01*
X95407Y123823D01*
X95674Y123424D01*
Y120354D01*
X93721D01*
Y117712D01*
X88187D01*
X88184Y117715D01*
Y125223D01*
X89215Y126253D01*
X89385Y126507D01*
X89444Y126807D01*
X89444Y126807D01*
Y148346D01*
X89385Y148646D01*
X89215Y148900D01*
X85428Y152686D01*
Y164243D01*
X89215Y168029D01*
X89385Y168283D01*
X89444Y168583D01*
Y172983D01*
X91720Y175259D01*
X92146Y174977D01*
D02*
G37*
G36*
X160205Y174755D02*
Y155858D01*
X155875D01*
X155087Y156645D01*
Y175149D01*
X159812D01*
X160205Y174755D01*
D02*
G37*
G36*
X42100Y155997D02*
X41853Y155536D01*
X41339Y155638D01*
X40386Y155449D01*
X39579Y154909D01*
X39039Y154102D01*
X39022Y154016D01*
X37323D01*
Y147300D01*
X37043Y146624D01*
X36891Y145472D01*
Y137795D01*
X37043Y136644D01*
X37487Y135572D01*
X38194Y134650D01*
X58700Y114144D01*
X59621Y113437D01*
X60694Y112993D01*
X61845Y112841D01*
X61845Y112841D01*
X69584D01*
X70271Y112004D01*
X71243Y111207D01*
X72351Y110615D01*
X73553Y110250D01*
X74803Y110127D01*
X76053Y110250D01*
X77256Y110615D01*
X78364Y111207D01*
X79335Y112004D01*
X80132Y112975D01*
X80724Y114083D01*
X81089Y115285D01*
X81586Y115235D01*
Y93307D01*
X81586Y93307D01*
X81699Y92739D01*
X82021Y92257D01*
X91850Y82427D01*
X91822Y82284D01*
Y70157D01*
X91063D01*
Y65669D01*
X90573Y65645D01*
X90144D01*
X89845Y65585D01*
X89591Y65416D01*
X89131Y64956D01*
X88583D01*
X88283Y64896D01*
X88029Y64727D01*
X85965Y62663D01*
X85504Y62909D01*
X85540Y63090D01*
X85427Y63659D01*
X85105Y64141D01*
X84838Y64319D01*
Y75434D01*
X85138Y75680D01*
X85706Y75793D01*
X86188Y76115D01*
X86510Y76597D01*
X86623Y77165D01*
X86510Y77734D01*
X86188Y78216D01*
X85706Y78537D01*
X85138Y78651D01*
X84569Y78537D01*
X84088Y78216D01*
X83766Y77734D01*
X83653Y77165D01*
X83715Y76850D01*
X83502Y76636D01*
X83332Y76382D01*
X83272Y76083D01*
Y64319D01*
X83005Y64141D01*
X82683Y63659D01*
X82570Y63090D01*
X82683Y62522D01*
X82761Y62405D01*
X82494Y61905D01*
X58760D01*
X58460Y61845D01*
X58206Y61676D01*
X47314Y50783D01*
X46988Y50577D01*
X46868Y50517D01*
X46736Y50473D01*
X46363Y50389D01*
X39435Y50389D01*
X39328Y50413D01*
X39314Y50422D01*
X39228Y50439D01*
X38843Y50934D01*
X38992Y51491D01*
X34657Y52652D01*
X34657Y52652D01*
X34153Y52702D01*
X29932Y53833D01*
X28771Y49498D01*
X30737Y48971D01*
Y47783D01*
X30703Y47734D01*
X30636Y47396D01*
X30631D01*
X30521Y46561D01*
X30199Y45784D01*
X29687Y45116D01*
X29594Y44968D01*
X29499Y44826D01*
X29496Y44812D01*
X29437Y44717D01*
X28006Y43286D01*
X28002Y43284D01*
X27910Y43224D01*
X27894Y43221D01*
X27607Y43029D01*
X27239Y42713D01*
X26232Y41887D01*
X24654Y41043D01*
X22941Y40524D01*
X21876Y40419D01*
X21633Y41188D01*
X21065Y42080D01*
X20285Y42794D01*
X19347Y43282D01*
X18315Y43511D01*
X17259Y43465D01*
X16250Y43147D01*
X15359Y42579D01*
X14644Y41799D01*
X14156Y40861D01*
X13927Y39829D01*
X13973Y38773D01*
X14291Y37764D01*
X14859Y36873D01*
X15639Y36158D01*
X16577Y35670D01*
X17609Y35441D01*
X18665Y35487D01*
X19674Y35805D01*
X20566Y36373D01*
X21280Y37153D01*
X21768Y38091D01*
X21889Y38634D01*
X22866Y38710D01*
X24529Y39110D01*
X26109Y39764D01*
X27567Y40658D01*
X28868Y41769D01*
X28856Y41780D01*
X29048Y42067D01*
X29059Y42125D01*
X30544Y43611D01*
X30958Y43845D01*
X30958D01*
X31756Y44885D01*
X32257Y46096D01*
X32428Y47396D01*
X32402D01*
X32335Y47734D01*
X32302Y47783D01*
Y48051D01*
X32700Y48386D01*
X33106Y48336D01*
X33495Y48317D01*
Y48317D01*
X37830Y47155D01*
X38272Y48804D01*
X38976Y48712D01*
Y48723D01*
X39314Y48790D01*
X39364Y48823D01*
X46459Y48823D01*
X46573Y48795D01*
X46580Y48790D01*
X46918Y48708D01*
X46918Y48708D01*
X47563Y48836D01*
X48107Y49200D01*
X48098Y49209D01*
X48098Y49211D01*
X48290Y49498D01*
X48301Y49556D01*
X59084Y60339D01*
X85532D01*
X85831Y60399D01*
X86085Y60569D01*
X88907Y63390D01*
X89455D01*
X89755Y63450D01*
X90009Y63620D01*
X90469Y64079D01*
X95394D01*
Y59764D01*
X100624D01*
X100918Y59324D01*
X101400Y59002D01*
X101969Y58889D01*
X102537Y59002D01*
X103019Y59324D01*
X103313Y59764D01*
X104213D01*
Y64252D01*
X102433D01*
X102299Y64429D01*
X102193Y64752D01*
X102298Y64909D01*
X102358Y65208D01*
Y65630D01*
X112205D01*
X112299Y65669D01*
X112874D01*
X112874Y65669D01*
Y65669D01*
X113241Y65384D01*
X113276Y65344D01*
X113296Y65273D01*
X113042Y64894D01*
X112929Y64325D01*
X113042Y63757D01*
X113365Y63275D01*
X113846Y62953D01*
X114373Y62848D01*
X114470Y62692D01*
X114593Y62366D01*
X112296Y60148D01*
X109014Y58958D01*
X103094Y58342D01*
X87650D01*
X87650Y58342D01*
X87351Y58282D01*
X87097Y58113D01*
X86474Y57490D01*
X86427Y57419D01*
X86368Y57358D01*
X86343Y57294D01*
X86304Y57236D01*
X86288Y57153D01*
X86257Y57074D01*
X86056Y55949D01*
X86058Y55889D01*
X86045Y55832D01*
X86016Y54744D01*
X85515Y54718D01*
X85504Y54807D01*
X85059Y55880D01*
X84352Y56801D01*
X83431Y57508D01*
X82359Y57952D01*
X81208Y58104D01*
X80057Y57952D01*
X78984Y57508D01*
X78063Y56801D01*
X77356Y55880D01*
X76912Y54807D01*
X76760Y53656D01*
X76912Y52505D01*
X77356Y51433D01*
X78063Y50511D01*
X78984Y49805D01*
X80057Y49360D01*
X81208Y49209D01*
X82359Y49360D01*
X83431Y49805D01*
X84352Y50511D01*
X85059Y51433D01*
X85455Y52387D01*
X85952Y52281D01*
X85860Y48752D01*
X85604Y48364D01*
X85604Y48364D01*
X85604Y48364D01*
X77086Y46082D01*
X77264Y45416D01*
X76816Y45157D01*
X74995Y46978D01*
X75124Y47461D01*
X76949Y47950D01*
X74666Y56469D01*
X66148Y54186D01*
X68430Y45668D01*
X72895Y46864D01*
X74948Y44811D01*
X74665Y44387D01*
X73978Y44672D01*
X72827Y44823D01*
X71676Y44672D01*
X70603Y44227D01*
X70341Y44026D01*
X70240Y44088D01*
X68150Y44954D01*
X65951Y45482D01*
X64186Y45620D01*
X63696Y45659D01*
X63606Y45641D01*
X55366Y45364D01*
X55250Y45337D01*
X54583Y45249D01*
X53750Y44904D01*
X53034Y44355D01*
X52485Y43639D01*
X52140Y42806D01*
X52022Y41912D01*
X52023D01*
X52023Y41912D01*
Y39357D01*
X51285Y39051D01*
X50363Y38344D01*
X49657Y37423D01*
X49212Y36350D01*
X49061Y35199D01*
X49209Y34075D01*
X47438Y33538D01*
X45605Y33358D01*
X45518Y33375D01*
X9703D01*
X9312Y33682D01*
X9266Y34010D01*
X9412Y34488D01*
X18803Y61340D01*
X19296Y61256D01*
Y52192D01*
X18725Y51828D01*
X18011Y51048D01*
X17522Y50110D01*
X17293Y49078D01*
X17340Y48022D01*
X17658Y47013D01*
X18226Y46121D01*
X19005Y45407D01*
X19943Y44919D01*
X20975Y44690D01*
X22032Y44736D01*
X23040Y45054D01*
X23932Y45622D01*
X24646Y46402D01*
X25135Y47340D01*
X25363Y48372D01*
X25317Y49428D01*
X24999Y50437D01*
X24431Y51328D01*
X23652Y52043D01*
X22714Y52531D01*
X21681Y52760D01*
X21223Y52740D01*
X20862Y53086D01*
Y55586D01*
X21362Y55732D01*
X21592Y55370D01*
X22372Y54656D01*
X23310Y54168D01*
X24342Y53939D01*
X25398Y53985D01*
X26406Y54303D01*
X27298Y54871D01*
X28013Y55651D01*
X28501Y56589D01*
X28635Y57191D01*
X29800D01*
X29849Y57158D01*
X30187Y57091D01*
Y57085D01*
X30407Y57056D01*
X30685Y56640D01*
X30299Y55202D01*
X34635Y54041D01*
Y54041D01*
X34635Y54041D01*
X35106Y53999D01*
X39359Y52860D01*
X40521Y57195D01*
X38170Y57825D01*
X37947Y58363D01*
X37072Y59504D01*
X37050Y59483D01*
X36764Y59674D01*
X36705Y59686D01*
X31418Y64973D01*
X31867Y65838D01*
X32096Y66870D01*
X32050Y67926D01*
X31732Y68935D01*
X31164Y69826D01*
X30384Y70541D01*
X30156Y70659D01*
X30279Y71159D01*
X38798D01*
X38848Y71126D01*
X39186Y71059D01*
Y71029D01*
X41113Y71218D01*
X42965Y71780D01*
X44673Y72693D01*
X46170Y73921D01*
X47398Y75418D01*
X48311Y77126D01*
X48873Y78979D01*
X48986Y80123D01*
X73347D01*
Y78661D01*
X77835D01*
Y83150D01*
X73347D01*
Y81688D01*
X48537D01*
X48487Y81721D01*
X48149Y81789D01*
X47811Y81721D01*
X47525Y81530D01*
X47333Y81243D01*
X47266Y80905D01*
X47224Y80423D01*
X47117Y79328D01*
X46656Y77811D01*
X45909Y76413D01*
X44903Y75188D01*
X43678Y74182D01*
X42280Y73435D01*
X40763Y72975D01*
X39669Y72867D01*
X39186Y72825D01*
X38848Y72758D01*
X38798Y72725D01*
X33950D01*
X33805Y73225D01*
X34031Y73369D01*
X34745Y74149D01*
X35234Y75086D01*
X35462Y76119D01*
X35416Y77175D01*
X35098Y78184D01*
X34530Y79075D01*
X33751Y79790D01*
X32813Y80278D01*
X31780Y80507D01*
X30724Y80461D01*
X29716Y80143D01*
X28824Y79575D01*
X28110Y78795D01*
X27621Y77857D01*
X27393Y76825D01*
X27439Y75769D01*
X27757Y74760D01*
X28325Y73868D01*
X29027Y73225D01*
X28932Y72725D01*
X28072D01*
X28022Y72758D01*
X27684Y72825D01*
X27422Y72773D01*
X27422Y72772D01*
X26083Y72317D01*
X24167Y71372D01*
X22808Y70464D01*
X22309Y70514D01*
X22142Y70605D01*
X22078Y70704D01*
X23769Y75538D01*
X23788Y75531D01*
X23861Y75705D01*
X23885Y75721D01*
X24539Y76376D01*
X24898Y76725D01*
X24898Y76725D01*
X26069Y78096D01*
X27011Y79633D01*
X27701Y81300D01*
X28122Y83053D01*
X28264Y84851D01*
X28257D01*
Y150566D01*
X34080Y156389D01*
X41708D01*
X42100Y155997D01*
D02*
G37*
G36*
X126347Y174362D02*
Y155464D01*
X122017D01*
X121229Y156251D01*
Y174755D01*
X125954D01*
X126347Y174362D01*
D02*
G37*
G36*
X97638Y174016D02*
Y155118D01*
X93307D01*
X92520Y155905D01*
Y174409D01*
X97244D01*
X97638Y174016D01*
D02*
G37*
G36*
X114961Y167323D02*
X109449D01*
Y151575D01*
X109055Y151181D01*
X99213D01*
Y174016D01*
X100000Y174803D01*
X114961D01*
Y167323D01*
D02*
G37*
G36*
X200787D02*
X171260D01*
Y148819D01*
X170866Y148425D01*
X170472Y148819D01*
X161417D01*
Y173228D01*
X165748Y177559D01*
X200787Y177559D01*
X200787Y167323D01*
D02*
G37*
G36*
X144095Y166929D02*
X138976D01*
X137795Y165748D01*
Y145669D01*
X127165D01*
Y172835D01*
X129134Y174803D01*
X144095D01*
Y166929D01*
D02*
G37*
G36*
X204729Y156369D02*
Y128277D01*
X202432Y125980D01*
X197679D01*
X197554Y126480D01*
X198442Y126955D01*
X199414Y127752D01*
X200211Y128723D01*
X200803Y129831D01*
X201168Y131033D01*
X201291Y132283D01*
X201168Y133534D01*
X200803Y134736D01*
X200211Y135844D01*
X199414Y136815D01*
X198442Y137612D01*
X197334Y138204D01*
X196132Y138569D01*
X194882Y138692D01*
X193632Y138569D01*
X192429Y138204D01*
X191321Y137612D01*
X190350Y136815D01*
X189553Y135844D01*
X188961Y134736D01*
X188596Y133534D01*
X188473Y132283D01*
X188596Y131033D01*
X188961Y129831D01*
X189553Y128723D01*
X190350Y127752D01*
X191321Y126955D01*
X192429Y126363D01*
X193632Y125998D01*
X194882Y125875D01*
X195805Y125966D01*
X196032Y125486D01*
X193147Y122601D01*
X192978Y122347D01*
X192918Y122047D01*
Y119988D01*
X192428Y119914D01*
X192083Y120747D01*
X191533Y121463D01*
X190818Y122012D01*
X189985Y122357D01*
X189091Y122474D01*
X188196Y122357D01*
X187363Y122012D01*
X186648Y121463D01*
X186099Y120747D01*
X185754Y119914D01*
X185636Y119020D01*
X185754Y118125D01*
X186099Y117292D01*
X186648Y116577D01*
X187363Y116028D01*
X188196Y115683D01*
X189091Y115565D01*
X189985Y115683D01*
X190818Y116028D01*
X191533Y116577D01*
X192083Y117292D01*
X192428Y118125D01*
X192918Y118051D01*
Y114959D01*
X192915Y114956D01*
X184397D01*
Y121350D01*
X184247Y121711D01*
X183885Y121861D01*
X173649D01*
X173287Y121711D01*
X173138Y121350D01*
Y97334D01*
X173287Y96972D01*
X173649Y96822D01*
X174331D01*
Y96772D01*
X178942D01*
Y95442D01*
X179001Y95142D01*
X179171Y94888D01*
X179632Y94427D01*
X179886Y94257D01*
X180186Y94198D01*
X180186Y94198D01*
X187873D01*
X187973Y93698D01*
X186911Y93258D01*
X186071Y92614D01*
X175816D01*
X171649Y96781D01*
Y110630D01*
X171589Y110930D01*
X171420Y111183D01*
X166105Y116498D01*
X165851Y116668D01*
X165551Y116728D01*
X162972D01*
Y120158D01*
X161413D01*
Y121723D01*
X162923Y123233D01*
X185365D01*
X185665Y123293D01*
X185919Y123462D01*
X186380Y123924D01*
X186550Y124178D01*
X186609Y124477D01*
X186609Y124477D01*
Y154657D01*
X186609Y154657D01*
X186550Y154956D01*
X186380Y155210D01*
X185919Y155672D01*
X185665Y155841D01*
X185365Y155901D01*
X183205D01*
X182756Y156024D01*
Y159405D01*
X185167Y161816D01*
X199282D01*
X204729Y156369D01*
D02*
G37*
G36*
X87795Y134646D02*
Y127165D01*
X86221Y125591D01*
X79921D01*
Y135433D01*
X87008D01*
X87795Y134646D01*
D02*
G37*
G36*
X183885Y97334D02*
X173649D01*
Y121350D01*
X183885D01*
Y97334D01*
D02*
G37*
G36*
X152389Y121276D02*
X154724Y121260D01*
Y110630D01*
X166142D01*
Y98425D01*
X164567Y96850D01*
X138583D01*
Y117779D01*
X142153Y121350D01*
X152389D01*
Y121276D01*
D02*
G37*
G36*
X119685Y96850D02*
X109449D01*
Y120866D01*
X119685D01*
Y96850D01*
D02*
G37*
G36*
X122017Y154953D02*
X126347D01*
X126654Y154748D01*
Y154016D01*
X123543D01*
Y125906D01*
X131402D01*
Y121898D01*
X131135Y121720D01*
X130813Y121238D01*
X130700Y120669D01*
X130789Y120222D01*
X130551Y119866D01*
X130437Y119764D01*
X129129D01*
Y120190D01*
X129070Y120490D01*
X128900Y120744D01*
X128541Y121102D01*
X128651Y121653D01*
X128537Y122222D01*
X128216Y122704D01*
X127734Y123026D01*
X127165Y123139D01*
X126597Y123026D01*
X126115Y122704D01*
X125793Y122222D01*
X125680Y121653D01*
X125793Y121085D01*
X126115Y120603D01*
X126597Y120281D01*
X126685Y120264D01*
X126636Y119764D01*
X126004D01*
Y111339D01*
X130689D01*
Y115095D01*
X130936D01*
X131236Y115154D01*
X131490Y115324D01*
X134289Y118123D01*
X134789Y117916D01*
Y108570D01*
X134844Y108294D01*
X135001Y108059D01*
X135301Y107759D01*
Y101761D01*
X134973Y101542D01*
X134651Y101060D01*
X134538Y100492D01*
X134651Y99924D01*
X134973Y99442D01*
X135455Y99120D01*
X136024Y99007D01*
X136592Y99120D01*
X137074Y99442D01*
X137396Y99924D01*
X137509Y100492D01*
X137396Y101060D01*
X137074Y101542D01*
X136746Y101761D01*
Y108059D01*
X136691Y108335D01*
X136535Y108569D01*
X136234Y108870D01*
Y109456D01*
X136719Y109577D01*
X136797Y109432D01*
X137594Y108460D01*
X138071Y108069D01*
Y96850D01*
X138221Y96489D01*
X138583Y96339D01*
X143483D01*
X143674Y95877D01*
X141221Y93424D01*
X141065Y93190D01*
X141010Y92913D01*
Y92313D01*
X140682Y92093D01*
X140360Y91612D01*
X140338Y91500D01*
X139838Y91549D01*
Y93917D01*
X139838Y93917D01*
X139778Y94217D01*
X139609Y94471D01*
X139333Y94746D01*
X139079Y94916D01*
X138779Y94976D01*
X135925D01*
X135626Y94916D01*
X135372Y94746D01*
X130759Y90133D01*
X130194D01*
X129894Y90074D01*
X129866Y90054D01*
X128642D01*
X128342Y89995D01*
X128088Y89825D01*
X127919Y89571D01*
X127859Y89272D01*
Y89055D01*
X121378D01*
Y84567D01*
X124785D01*
X124805Y84469D01*
X124961Y84235D01*
X125377Y83820D01*
X125611Y83663D01*
X125679Y83650D01*
X125630Y83150D01*
X121378D01*
Y78661D01*
X124489D01*
X124545Y78577D01*
X124989Y78133D01*
X124782Y77633D01*
X117715D01*
X117712Y77636D01*
Y88909D01*
X117712Y88909D01*
X117652Y89208D01*
X117483Y89462D01*
X117021Y89924D01*
X116767Y90093D01*
X116468Y90153D01*
X109910D01*
X109910Y90153D01*
X109610Y90093D01*
X109357Y89924D01*
X108895Y89462D01*
X108726Y89208D01*
X108666Y88909D01*
Y87874D01*
X107205D01*
Y87874D01*
X106968D01*
Y87874D01*
X104581D01*
X103847Y88607D01*
Y126496D01*
X109822D01*
X110167Y126391D01*
X111417Y126268D01*
X112668Y126391D01*
X113012Y126496D01*
X118976D01*
Y153935D01*
X119476Y154087D01*
X119599Y153902D01*
X119674Y153791D01*
X119967Y153460D01*
X120000Y153357D01*
X120075Y153025D01*
X120083Y152975D01*
Y152928D01*
X119888Y152635D01*
X119775Y152067D01*
X119888Y151499D01*
X120083Y151206D01*
Y121754D01*
X119685Y121378D01*
X109449D01*
X109087Y121228D01*
X108937Y120866D01*
Y96850D01*
X109087Y96489D01*
X109449Y96339D01*
X119685D01*
X120047Y96489D01*
X120196Y96850D01*
Y116333D01*
X121420Y117557D01*
X121589Y117811D01*
X121649Y118110D01*
Y150659D01*
X121828Y150695D01*
X122310Y151017D01*
X122632Y151499D01*
X122745Y152067D01*
X122632Y152635D01*
X122310Y153117D01*
X122136Y153233D01*
X121765Y153543D01*
X121636Y154189D01*
X121275Y154729D01*
X121271Y154736D01*
X121278Y154772D01*
X121363Y154847D01*
X121835Y155028D01*
X122017Y154953D01*
D02*
G37*
G36*
X170083Y110306D02*
Y96457D01*
X170143Y96157D01*
X170313Y95903D01*
X174708Y91508D01*
X174708Y91508D01*
X174939Y91277D01*
X175193Y91107D01*
X175492Y91048D01*
X175492Y91048D01*
X185701D01*
X185777Y90990D01*
X186016Y90548D01*
X185754Y89914D01*
X185636Y89020D01*
X185754Y88125D01*
X186099Y87292D01*
X186648Y86577D01*
X187363Y86028D01*
X187448Y85993D01*
X187545Y85502D01*
X181172Y79129D01*
X177953D01*
X177953Y79129D01*
X177653Y79070D01*
X177399Y78900D01*
X174080Y75581D01*
X173619Y75827D01*
X173631Y75886D01*
X173518Y76454D01*
X173196Y76936D01*
X172714Y77258D01*
X172146Y77371D01*
X171577Y77258D01*
X171096Y76936D01*
X170773Y76454D01*
X170660Y75886D01*
X170773Y75318D01*
X171096Y74836D01*
X171577Y74514D01*
X172146Y74401D01*
X172204Y74412D01*
X172451Y73952D01*
X171723Y73224D01*
X163268D01*
Y74660D01*
X163296Y74803D01*
X163268Y74946D01*
Y77911D01*
X163768Y78178D01*
X163802Y78155D01*
X164370Y78042D01*
X164938Y78155D01*
X165420Y78477D01*
X165742Y78959D01*
X165855Y79528D01*
X165742Y80096D01*
X165420Y80578D01*
X165244Y80695D01*
X165350Y81226D01*
X165655Y81287D01*
X166137Y81609D01*
X166459Y82091D01*
X166572Y82659D01*
X166459Y83228D01*
X166137Y83709D01*
X165655Y84031D01*
X165087Y84144D01*
X164518Y84031D01*
X164087Y83743D01*
X163268D01*
Y86422D01*
X163347Y86486D01*
X163768Y86644D01*
X164125Y86405D01*
X164693Y86292D01*
X165261Y86405D01*
X165743Y86727D01*
X166065Y87209D01*
X166178Y87777D01*
X166065Y88346D01*
X165743Y88828D01*
X165261Y89149D01*
X164693Y89263D01*
X164125Y89149D01*
X163768Y88911D01*
X163347Y89068D01*
X163268Y89132D01*
Y91418D01*
X164087D01*
X164518Y91130D01*
X165087Y91017D01*
X165655Y91130D01*
X166137Y91452D01*
X166459Y91933D01*
X166572Y92502D01*
X166459Y93070D01*
X166137Y93552D01*
X165655Y93874D01*
X165087Y93987D01*
X164518Y93874D01*
X164087Y93586D01*
X163268D01*
Y94764D01*
X163558Y95144D01*
X167126D01*
X167403Y95199D01*
X167637Y95355D01*
X168818Y96536D01*
X168975Y96771D01*
X169030Y97047D01*
Y110652D01*
X169520Y110870D01*
X170083Y110306D01*
D02*
G37*
G36*
X134272Y82441D02*
Y81553D01*
X134253Y81534D01*
X134096Y81300D01*
X134041Y81024D01*
Y79148D01*
X132954D01*
X132677Y79093D01*
X132443Y78936D01*
X132166Y78659D01*
X132010Y78425D01*
X131515Y78330D01*
X131481Y78332D01*
X130937Y78441D01*
X130368Y78328D01*
X129886Y78006D01*
X129592Y77565D01*
X129479Y77487D01*
X129083Y77367D01*
X128963Y77487D01*
X128709Y77657D01*
X128409Y77717D01*
X127620D01*
X127231Y78105D01*
X127231Y78105D01*
X125875Y79461D01*
X125866Y79505D01*
Y83133D01*
X125867Y83154D01*
X125966Y83608D01*
X133105D01*
X134272Y82441D01*
D02*
G37*
G36*
X115650Y77756D02*
X114173Y76279D01*
X108071D01*
X107579Y76772D01*
Y81496D01*
X115650D01*
Y77756D01*
D02*
G37*
G36*
X112205Y66142D02*
X100000D01*
Y69685D01*
X112205D01*
Y66142D01*
D02*
G37*
G36*
X103581Y70696D02*
X103485Y70332D01*
X103391Y70196D01*
X100000D01*
X99906Y70157D01*
X99724D01*
Y70082D01*
X99638Y70047D01*
X99489Y69685D01*
Y66142D01*
X99153Y65645D01*
X96041D01*
X95551Y65669D01*
Y70157D01*
X94792D01*
Y78832D01*
X95254Y79023D01*
X103581Y70696D01*
D02*
G37*
G36*
X206516Y89095D02*
X210434D01*
X210641Y88595D01*
X207611Y85565D01*
X207289Y85083D01*
X207176Y84514D01*
X207176Y84514D01*
Y80197D01*
X206516D01*
Y75315D01*
X207176D01*
Y72072D01*
X195371Y60267D01*
X194830Y60433D01*
X194769Y60742D01*
X194447Y61224D01*
X194385Y61265D01*
Y63189D01*
X194385Y63189D01*
X194325Y63489D01*
X194156Y63743D01*
X190497Y67401D01*
X190560Y67716D01*
X190447Y68285D01*
X190125Y68767D01*
X189643Y69089D01*
X189075Y69202D01*
X188506Y69089D01*
X188025Y68767D01*
X187703Y68285D01*
X187590Y67716D01*
X187703Y67148D01*
X188025Y66666D01*
X188506Y66344D01*
X189075Y66231D01*
X189390Y66294D01*
X192820Y62865D01*
Y61540D01*
X192346Y61224D01*
X192024Y60742D01*
X191911Y60174D01*
X192024Y59606D01*
X192052Y59564D01*
X191785Y59064D01*
X187577D01*
X187485Y59519D01*
X187494Y59564D01*
X187960Y59875D01*
X188282Y60357D01*
X188395Y60925D01*
X188282Y61494D01*
X187960Y61975D01*
X187478Y62297D01*
X186909Y62410D01*
X186341Y62297D01*
X185859Y61975D01*
X185537Y61494D01*
X185424Y60925D01*
X185487Y60610D01*
X184991Y60114D01*
X184812D01*
X184331Y60158D01*
Y67008D01*
X184293D01*
X184142Y67508D01*
X184215Y67557D01*
X193402Y76744D01*
X193902Y76537D01*
Y72926D01*
X193962Y72626D01*
X194132Y72373D01*
X194788Y71716D01*
Y68060D01*
X194521Y67881D01*
X194199Y67399D01*
X194086Y66831D01*
X194199Y66262D01*
X194521Y65781D01*
X195002Y65459D01*
X195571Y65346D01*
X196139Y65459D01*
X196621Y65781D01*
X196943Y66262D01*
X197056Y66831D01*
X196943Y67399D01*
X196621Y67881D01*
X196354Y68060D01*
Y72040D01*
X196294Y72340D01*
X196124Y72594D01*
X195468Y73250D01*
Y75176D01*
X195665Y75595D01*
X195968Y75595D01*
X202516D01*
Y78237D01*
X204331D01*
X204630Y78297D01*
X204884Y78466D01*
X205054Y78720D01*
X205114Y79020D01*
Y90753D01*
X206516D01*
Y89095D01*
D02*
G37*
G36*
X215042Y88525D02*
X215178Y87692D01*
X216948Y79304D01*
X219103Y71007D01*
X221638Y62818D01*
X224550Y54755D01*
X227830Y46835D01*
X231473Y39075D01*
X235470Y31492D01*
X239813Y24101D01*
X241891Y20913D01*
X241891Y20913D01*
X242006Y20741D01*
X242276Y20561D01*
X318900Y-56063D01*
X318734Y-59009D01*
X318237Y-61935D01*
X317416Y-64787D01*
X316280Y-67528D01*
X314845Y-70126D01*
X313127Y-72546D01*
X311150Y-74759D01*
X308937Y-76736D01*
X306517Y-78454D01*
X303919Y-79889D01*
X301178Y-81025D01*
X298326Y-81846D01*
X295400Y-82344D01*
X292660Y-82498D01*
X209811Y351D01*
X209558Y520D01*
X209258Y580D01*
X208807Y668D01*
X208807Y668D01*
X207858Y1225D01*
X200275Y5223D01*
X192515Y8865D01*
X184595Y12146D01*
X180877Y13488D01*
X180963Y13981D01*
X190354D01*
X190654Y14041D01*
X190908Y14210D01*
X192436Y15738D01*
X192517Y15859D01*
X192600Y15980D01*
X192601Y15986D01*
X192605Y15992D01*
X192634Y16135D01*
X192665Y16278D01*
X192830Y25951D01*
X192829Y25958D01*
X192830Y25964D01*
X192802Y26107D01*
X192776Y26252D01*
X192772Y26257D01*
X192771Y26264D01*
X192689Y26386D01*
X192610Y26508D01*
X192605Y26512D01*
X192601Y26518D01*
X192424Y26695D01*
X192424Y26695D01*
X183994Y35124D01*
X184676Y35806D01*
X185219Y35642D01*
X185485Y35244D01*
X185967Y34923D01*
X186535Y34809D01*
X186815Y34865D01*
X193099Y28580D01*
X193353Y28411D01*
X193653Y28351D01*
X194853D01*
X197009Y26195D01*
X197059Y25537D01*
X196025Y24503D01*
X195703Y24022D01*
X195590Y23453D01*
X195590Y23453D01*
Y21823D01*
X195590Y21822D01*
X195703Y21254D01*
X196025Y20772D01*
X288312Y-71515D01*
X288794Y-71837D01*
X289362Y-71950D01*
X289362Y-71950D01*
X298064D01*
X298247Y-72391D01*
X298859Y-73188D01*
X299657Y-73800D01*
X300586Y-74185D01*
X301583Y-74316D01*
X302579Y-74185D01*
X303508Y-73800D01*
X304306Y-73188D01*
X304918Y-72391D01*
X305303Y-71461D01*
X305434Y-70465D01*
X305303Y-69468D01*
X304918Y-68539D01*
X304306Y-67741D01*
X303508Y-67129D01*
X302579Y-66744D01*
X301583Y-66613D01*
X300586Y-66744D01*
X299657Y-67129D01*
X298859Y-67741D01*
X298247Y-68539D01*
X298064Y-68979D01*
X289977D01*
X198560Y22438D01*
Y22838D01*
X203221Y27499D01*
X203221Y27499D01*
X203543Y27981D01*
X203656Y28549D01*
X203656Y28549D01*
Y30180D01*
X203543Y30748D01*
X203253Y31182D01*
X204121Y32050D01*
X204621Y31843D01*
Y26529D01*
X204719Y26037D01*
X204787Y25936D01*
X204351Y25601D01*
X203644Y24680D01*
X203200Y23608D01*
X203048Y22456D01*
X203200Y21305D01*
X203644Y20233D01*
X204351Y19312D01*
X205272Y18605D01*
X206345Y18160D01*
X207496Y18009D01*
X208647Y18160D01*
X209720Y18605D01*
X210641Y19312D01*
X211348Y20233D01*
X211792Y21305D01*
X211943Y22456D01*
X211792Y23608D01*
X211348Y24680D01*
X210641Y25601D01*
X209720Y26308D01*
X208647Y26752D01*
X207496Y26904D01*
X207190Y27342D01*
Y33676D01*
X208739Y35224D01*
X209557Y34407D01*
X213009Y37859D01*
X209557Y41311D01*
X206701Y38455D01*
X206637Y38412D01*
X205485Y37261D01*
X205071Y37303D01*
X204889Y37761D01*
X209215Y42087D01*
X209385Y42341D01*
X209444Y42640D01*
Y44142D01*
X209444Y44142D01*
X209385Y44442D01*
X209215Y44696D01*
X209215Y44696D01*
X208748Y45163D01*
X208670Y45768D01*
X208671Y45770D01*
X209529Y46628D01*
X207222Y48935D01*
X207413Y49397D01*
X208551D01*
X218519Y39429D01*
X218773Y39260D01*
X219072Y39200D01*
X219986D01*
X223104Y32514D01*
X231097Y36241D01*
X227370Y44234D01*
X219932Y40766D01*
X219396D01*
X214008Y46154D01*
X214215Y46654D01*
X216634D01*
X216980Y45557D01*
X217604Y44578D01*
X218460Y43794D01*
X219490Y43258D01*
X220623Y43006D01*
X221783Y43057D01*
X222890Y43406D01*
X223869Y44030D01*
X224654Y44886D01*
X225190Y45916D01*
X225441Y47049D01*
X225391Y48209D01*
X225042Y49317D01*
X224418Y50296D01*
X223562Y51080D01*
X222532Y51616D01*
X221398Y51868D01*
X220238Y51817D01*
X219131Y51468D01*
X218152Y50844D01*
X217368Y49988D01*
X216831Y48958D01*
X216668Y48220D01*
X214230D01*
X210653Y51796D01*
X210400Y51966D01*
X210100Y52025D01*
X198542D01*
X198351Y52487D01*
X201581Y55717D01*
X212408D01*
X212754Y54620D01*
X213378Y53641D01*
X214234Y52857D01*
X215263Y52321D01*
X216397Y52069D01*
X217557Y52120D01*
X218664Y52469D01*
X219643Y53093D01*
X220428Y53949D01*
X220964Y54979D01*
X221215Y56112D01*
X221164Y57272D01*
X220815Y58380D01*
X220192Y59359D01*
X219336Y60143D01*
X218306Y60679D01*
X217172Y60931D01*
X216012Y60880D01*
X214905Y60531D01*
X213926Y59907D01*
X213141Y59051D01*
X212605Y58021D01*
X212442Y57283D01*
X201257D01*
X200957Y57223D01*
X200703Y57054D01*
X186017Y42368D01*
X185524Y42581D01*
X185529Y42744D01*
X185691Y42852D01*
X207620Y64780D01*
X208182D01*
X208528Y63683D01*
X209151Y62704D01*
X210007Y61920D01*
X211037Y61384D01*
X212171Y61133D01*
X213331Y61183D01*
X214438Y61532D01*
X215417Y62156D01*
X216201Y63012D01*
X216738Y64042D01*
X216989Y65175D01*
X216938Y66335D01*
X216589Y67443D01*
X215965Y68422D01*
X215109Y69206D01*
X214079Y69742D01*
X212946Y69994D01*
X211786Y69943D01*
X210679Y69594D01*
X209700Y68970D01*
X208915Y68114D01*
X208379Y67084D01*
X208215Y66346D01*
X207295D01*
X206996Y66286D01*
X206742Y66117D01*
X206742Y66117D01*
X192707Y52082D01*
X192192Y52274D01*
X192120Y52635D01*
X191798Y53117D01*
X191316Y53439D01*
X190748Y53552D01*
X190180Y53439D01*
X189698Y53117D01*
X189519Y52850D01*
X187021D01*
X186721Y52790D01*
X186467Y52620D01*
X184831Y50984D01*
X184331Y51191D01*
Y53228D01*
X177087D01*
Y48106D01*
X176587Y47846D01*
X176102Y47942D01*
X174685D01*
Y49488D01*
X173926D01*
Y51791D01*
X174685D01*
Y52535D01*
X175125Y52717D01*
X175840Y53266D01*
X175839Y53267D01*
X175839Y53267D01*
X178666Y56094D01*
X194783D01*
X194783Y56094D01*
X195352Y56207D01*
X195834Y56529D01*
X209712Y70407D01*
X210034Y70888D01*
X210147Y71457D01*
X210147Y71457D01*
Y75315D01*
X210807D01*
Y80197D01*
X210147D01*
Y83899D01*
X213523Y87275D01*
X213877Y87628D01*
X214426Y88344D01*
X214526Y88585D01*
X215042Y88525D01*
D02*
G37*
G36*
X24336Y68765D02*
X24255Y68608D01*
X24026Y67576D01*
X24072Y66520D01*
X24390Y65511D01*
X24958Y64619D01*
X25738Y63905D01*
X26676Y63417D01*
X27708Y63188D01*
X28765Y63234D01*
X29773Y63552D01*
X30293Y63884D01*
X35096Y59081D01*
X34837Y58633D01*
X31461Y59538D01*
X31248Y58743D01*
X30187Y58882D01*
Y58857D01*
X29849Y58790D01*
X29800Y58757D01*
X28659D01*
X28366Y59686D01*
X27798Y60577D01*
X27018Y61292D01*
X26080Y61780D01*
X25048Y62009D01*
X23991Y61963D01*
X22983Y61645D01*
X22091Y61077D01*
X21377Y60297D01*
X21362Y60268D01*
X20862Y60390D01*
Y63233D01*
X20982Y63682D01*
X21002Y63739D01*
X21032Y64235D01*
X22085Y67247D01*
X22364Y67646D01*
X22371Y67664D01*
X22781Y68164D01*
X23343Y68625D01*
X23337Y68633D01*
X23775Y69007D01*
X23957Y69118D01*
X24336Y68765D01*
D02*
G37*
G36*
X112352Y56018D02*
X112810Y55824D01*
X112889Y55425D01*
X113211Y54944D01*
Y54742D01*
X113015Y54611D01*
X112784Y54264D01*
X112284Y54416D01*
Y54606D01*
X94803D01*
Y50118D01*
X96325D01*
Y49588D01*
X96380Y49311D01*
X96453Y49201D01*
X96313Y48823D01*
X96205Y48701D01*
X90473D01*
Y44213D01*
X91934D01*
Y41911D01*
X91877Y41826D01*
X91817Y41526D01*
Y39194D01*
X91877Y38894D01*
X91934Y38809D01*
Y29177D01*
X91993Y28878D01*
X92163Y28624D01*
X92817Y27970D01*
X93071Y27800D01*
X93370Y27741D01*
X111129D01*
X111429Y27800D01*
X111683Y27970D01*
X114643Y30930D01*
X121775D01*
X122074Y30989D01*
X122328Y31159D01*
X122778Y31609D01*
X122778Y31609D01*
X122948Y31863D01*
X123007Y32162D01*
Y40207D01*
X123388Y40588D01*
X123388Y40588D01*
X123558Y40842D01*
X123617Y41142D01*
X123617Y41142D01*
Y45148D01*
X125507Y47038D01*
X126049Y46873D01*
X126089Y46676D01*
X126410Y46194D01*
X126892Y45872D01*
X127087Y45833D01*
X127252Y45291D01*
X126612Y44651D01*
X126442Y44397D01*
X126383Y44098D01*
Y40298D01*
X125765Y39681D01*
X125596Y39427D01*
X125536Y39127D01*
Y33789D01*
X125596Y33489D01*
X125765Y33235D01*
X126877Y32124D01*
X127131Y31954D01*
X127357Y31909D01*
X127521Y31699D01*
X127661Y31394D01*
X127568Y30925D01*
X127681Y30357D01*
X128003Y29875D01*
X128485Y29553D01*
X129053Y29440D01*
X129368Y29503D01*
X130488Y28383D01*
X130742Y28214D01*
X131041Y28154D01*
X137452D01*
X137631Y27887D01*
X138113Y27565D01*
X138681Y27452D01*
X139250Y27565D01*
X139731Y27887D01*
X140053Y28369D01*
X140166Y28937D01*
X140053Y29505D01*
X139731Y29987D01*
X139250Y30309D01*
X138681Y30422D01*
X138113Y30309D01*
X137631Y29987D01*
X137452Y29720D01*
X131365D01*
X130475Y30610D01*
X130538Y30925D01*
X130445Y31394D01*
X130713Y31894D01*
X143103D01*
X143933Y31255D01*
X143850Y30689D01*
X143536Y30479D01*
X143214Y29998D01*
X143101Y29429D01*
X143214Y28861D01*
X143536Y28379D01*
X143804Y28200D01*
Y25991D01*
X136262D01*
X135781Y26078D01*
X135290Y26132D01*
X133936Y26280D01*
X125756Y26816D01*
X117561Y26995D01*
X109365Y26816D01*
X101185Y26280D01*
X99443Y26089D01*
X99052D01*
X98753Y26030D01*
X98695Y25991D01*
X86225D01*
X86161Y26491D01*
X87556Y26856D01*
X87717Y26824D01*
X88055Y26891D01*
X88341Y27083D01*
X88361Y27063D01*
X89189Y28143D01*
X89710Y29399D01*
X89810Y30164D01*
X90026Y30446D01*
X90598Y31825D01*
X90793Y33305D01*
X90776D01*
X90647Y34935D01*
X90266Y36526D01*
X89640Y38037D01*
X88953Y39158D01*
X88873Y39287D01*
X88873Y39486D01*
X88897Y39522D01*
X88957Y39821D01*
Y40294D01*
X88937Y40394D01*
X88930Y40497D01*
X88873Y40709D01*
Y55713D01*
X111668D01*
X111968Y55773D01*
X112222Y55943D01*
X112300Y56021D01*
X112352Y56018D01*
D02*
G37*
G36*
X121680Y51229D02*
X121934Y51060D01*
X122233Y51000D01*
X122290D01*
Y49439D01*
X122344Y49166D01*
X122498Y48935D01*
X122620Y48854D01*
X122738Y48431D01*
X122742Y48268D01*
X121560Y47087D01*
X121085Y47266D01*
X121063Y47297D01*
X121170Y47835D01*
X121057Y48403D01*
X120735Y48885D01*
X120253Y49207D01*
X119685Y49320D01*
X119117Y49207D01*
X118635Y48885D01*
X118313Y48403D01*
X118200Y47835D01*
X118263Y47519D01*
X115555Y44811D01*
X115259Y44781D01*
X114943Y44828D01*
X114928Y44849D01*
X114446Y45171D01*
X113878Y45284D01*
X113310Y45171D01*
X112828Y44849D01*
X112506Y44368D01*
X112393Y43799D01*
X112178Y43538D01*
X108268D01*
X107991Y43483D01*
X107757Y43326D01*
X107324Y42893D01*
X107167Y42658D01*
X107116Y42402D01*
X102612D01*
X102460Y42902D01*
X102527Y42946D01*
X102849Y43428D01*
X102962Y43996D01*
X103139Y44213D01*
X103969D01*
X103975Y44183D01*
X104297Y43701D01*
X104779Y43379D01*
X105348Y43266D01*
X105916Y43379D01*
X106398Y43701D01*
X106720Y44183D01*
X106726Y44213D01*
X107953D01*
Y48701D01*
X102297D01*
Y49034D01*
X102242Y49311D01*
X102086Y49545D01*
X102013Y49618D01*
X102220Y50118D01*
X109448D01*
Y49575D01*
X109508Y49276D01*
X109678Y49022D01*
X110139Y48561D01*
X110393Y48391D01*
X110692Y48331D01*
X110692Y48331D01*
X116535D01*
X116835Y48391D01*
X117089Y48561D01*
X120009Y51481D01*
X121428D01*
X121680Y51229D01*
D02*
G37*
G36*
X142711Y47198D02*
X143193Y46876D01*
X143761Y46763D01*
X144330Y46876D01*
X144564Y47032D01*
X145064Y46765D01*
Y42257D01*
X145123Y41958D01*
X145293Y41704D01*
X145379Y41618D01*
Y39965D01*
X144913Y39684D01*
X144879Y39685D01*
X144606Y39739D01*
X139455D01*
X139055Y39980D01*
Y44469D01*
X137799D01*
X137664Y44726D01*
X137602Y44969D01*
X137888Y45396D01*
X137924Y45579D01*
X137980Y45667D01*
X138016Y45693D01*
X138556Y45643D01*
X138714Y45406D01*
X139195Y45085D01*
X139764Y44971D01*
X140332Y45085D01*
X140814Y45406D01*
X141136Y45888D01*
X141249Y46457D01*
X141152Y46946D01*
X141390Y47446D01*
X142545D01*
X142711Y47198D01*
D02*
G37*
G36*
X170197Y56279D02*
Y51791D01*
X170956D01*
Y49488D01*
X170197D01*
Y45000D01*
X169748Y44877D01*
X166473D01*
X166024Y45000D01*
Y49488D01*
X164562D01*
Y49608D01*
X164503Y49908D01*
X164444Y49995D01*
X164463Y50022D01*
X164576Y50591D01*
X164463Y51159D01*
X164141Y51641D01*
X163659Y51963D01*
X163091Y52076D01*
X162522Y51963D01*
X162165Y51724D01*
X161720Y51939D01*
X161693Y51964D01*
Y56279D01*
X162052Y56619D01*
X169837D01*
X170197Y56279D01*
D02*
G37*
G36*
X189698Y51017D02*
X190180Y50695D01*
X190541Y50623D01*
X190733Y50108D01*
X184814Y44188D01*
X177762D01*
X177494Y44688D01*
X177588Y45158D01*
Y46378D01*
X184331D01*
Y49020D01*
X184757D01*
X185056Y49080D01*
X185310Y49250D01*
X187345Y51284D01*
X189519D01*
X189698Y51017D01*
D02*
G37*
G36*
X162106Y43012D02*
X174213D01*
X174606Y42618D01*
Y39567D01*
X161909D01*
Y43110D01*
X162008D01*
X162106Y43012D01*
D02*
G37*
G36*
X204932Y48935D02*
X202625Y46628D01*
X206077Y43176D01*
X207249Y44348D01*
X207542Y44056D01*
X207796Y43887D01*
X207814Y43883D01*
X207879Y43818D01*
Y42965D01*
X203219Y38305D01*
X200203D01*
X197255Y41254D01*
X197001Y41423D01*
X196701Y41483D01*
X196212D01*
X196212Y41483D01*
X195913Y41423D01*
X195659Y41254D01*
X192515Y38110D01*
X192345Y37856D01*
X192286Y37556D01*
Y35701D01*
X190239Y33654D01*
X187951Y35943D01*
X188021Y36295D01*
X187908Y36863D01*
X187586Y37345D01*
X187188Y37611D01*
X187024Y38154D01*
X198267Y49397D01*
X204740D01*
X204932Y48935D01*
D02*
G37*
G36*
X182541Y42123D02*
X182447Y41654D01*
X182510Y41338D01*
X179278Y38106D01*
X162309D01*
X161824Y38591D01*
X162066Y39056D01*
X174606D01*
X174968Y39205D01*
X175118Y39567D01*
Y42164D01*
X175375Y42621D01*
X175580Y42623D01*
X182273D01*
X182541Y42123D01*
D02*
G37*
G36*
X65486Y42546D02*
X67232Y42127D01*
X68553Y41579D01*
X68531Y41527D01*
X68379Y40376D01*
X68531Y39225D01*
X68975Y38152D01*
X69682Y37231D01*
X70603Y36524D01*
X70899Y36402D01*
X70848Y35882D01*
X70821Y35876D01*
X70722Y35810D01*
X70274Y35511D01*
X69971Y35057D01*
X69909Y34964D01*
X69836Y34599D01*
X69791Y34606D01*
X69746Y34266D01*
X69711Y34135D01*
X69290Y33120D01*
X68871Y32573D01*
X68575Y32196D01*
X68142Y32033D01*
X68010Y31990D01*
X67897Y32014D01*
X66907Y32424D01*
X65756Y32576D01*
X64605Y32424D01*
X63532Y31980D01*
X62611Y31273D01*
X61904Y30352D01*
X61460Y29279D01*
X61308Y28128D01*
X61460Y26977D01*
X61904Y25905D01*
X62611Y24983D01*
X63532Y24277D01*
X64605Y23832D01*
X65756Y23681D01*
X66907Y23832D01*
X67980Y24277D01*
X68901Y24983D01*
X69607Y25905D01*
X70052Y26977D01*
X70203Y28128D01*
X70052Y29279D01*
X69642Y30270D01*
X69617Y30382D01*
X69659Y30510D01*
X69833Y30938D01*
X70610Y31885D01*
X70619Y31902D01*
X71103Y31747D01*
X70968Y30716D01*
X71119Y29565D01*
X71563Y28493D01*
X72270Y27572D01*
X73191Y26865D01*
X74264Y26421D01*
X75415Y26269D01*
X76566Y26421D01*
X77639Y26865D01*
X78560Y27572D01*
X79267Y28493D01*
X79711Y29565D01*
X79862Y30716D01*
X79711Y31868D01*
X79267Y32940D01*
X78560Y33861D01*
X77639Y34568D01*
X77186Y34756D01*
X77249Y35271D01*
X77262Y35273D01*
X77262D01*
X77610Y35342D01*
X77714Y35412D01*
X78157Y35708D01*
X78522Y36255D01*
X78650Y36900D01*
X78640Y36951D01*
X78629Y36951D01*
X78567Y37262D01*
X78521Y37332D01*
X78463Y39010D01*
X78961Y39084D01*
X79368Y37563D01*
X86911Y39585D01*
X87093Y39445D01*
X87268Y39162D01*
X87207Y38859D01*
X87275Y38521D01*
X87387Y38353D01*
X87361Y38335D01*
X87545Y38111D01*
X88011Y37240D01*
X87621Y36909D01*
X87298Y37156D01*
X86225Y37601D01*
X85074Y37752D01*
X83923Y37601D01*
X82851Y37156D01*
X81929Y36450D01*
X81223Y35528D01*
X80778Y34456D01*
X80627Y33305D01*
X80778Y32153D01*
X81223Y31081D01*
X81929Y30160D01*
X82851Y29453D01*
X83923Y29009D01*
X85074Y28857D01*
X86225Y29009D01*
X86857Y29270D01*
X87472Y29000D01*
X87514Y28887D01*
X87107Y28357D01*
X63492Y22173D01*
X62992Y22187D01*
X62495Y22195D01*
X61583Y22315D01*
X60270Y22859D01*
X59847Y23184D01*
X59948Y23316D01*
X60392Y24389D01*
X60544Y25540D01*
X60392Y26691D01*
X59948Y27764D01*
X59241Y28685D01*
X58320Y29392D01*
X57248Y29836D01*
X56097Y29988D01*
X54945Y29836D01*
X53873Y29392D01*
X52952Y28685D01*
X52245Y27764D01*
X51801Y26691D01*
X51649Y25540D01*
X51801Y24389D01*
X52245Y23316D01*
X52952Y22395D01*
X53873Y21688D01*
X54945Y21244D01*
X55926Y21115D01*
X55898Y20614D01*
X53641Y20566D01*
X40682D01*
X40658Y20562D01*
X38983Y20727D01*
X37350Y21222D01*
X36718Y21560D01*
X36645Y22054D01*
X37151Y22560D01*
X33978Y25734D01*
X31617Y23373D01*
X31134Y23502D01*
X30538Y25728D01*
X30676Y25820D01*
X30998Y26302D01*
X31111Y26870D01*
X30998Y27439D01*
X30676Y27920D01*
X30194Y28242D01*
X29626Y28355D01*
X29058Y28242D01*
X28576Y27920D01*
X28254Y27439D01*
X28141Y26870D01*
X28254Y26302D01*
X28576Y25820D01*
X28962Y25562D01*
X29783Y22492D01*
X29752Y22336D01*
X29797Y22112D01*
X29795Y22111D01*
X29806Y22056D01*
X29804Y21779D01*
X29688Y21444D01*
X29619Y21375D01*
X29475Y21271D01*
X29015Y21271D01*
X28627Y21659D01*
X28627Y21659D01*
X28638Y21670D01*
X27860Y22267D01*
X24998Y25129D01*
X21546Y21677D01*
X24998Y18225D01*
X26088Y19315D01*
X26527Y19559D01*
X26527Y19559D01*
X26915Y19171D01*
X26915Y18671D01*
X26628Y18384D01*
X29802Y15211D01*
X32769Y18178D01*
X32861Y18270D01*
X33196Y18386D01*
X33330Y18388D01*
X33817Y18321D01*
X33898Y18309D01*
X34121Y18354D01*
X34284Y18371D01*
X39287Y17919D01*
X39392Y17849D01*
X39652Y17797D01*
X39775Y17778D01*
X39775Y17778D01*
X40027Y17828D01*
X40172Y17841D01*
X41047Y17766D01*
X41184Y17726D01*
X41237Y17691D01*
X41479Y17640D01*
X41500Y17634D01*
X41642Y17605D01*
Y17621D01*
X41980Y17688D01*
X42030Y17721D01*
X58366D01*
X58393Y17727D01*
X58421Y17723D01*
X62458Y18006D01*
X62656Y17978D01*
X62772Y17955D01*
X62865Y17936D01*
X62902Y17943D01*
X62927Y17939D01*
X63250Y18004D01*
X63389Y18032D01*
X63600Y18173D01*
X85508Y23347D01*
X91615Y23354D01*
X91655Y22854D01*
X83463Y21517D01*
X75075Y19748D01*
X66778Y17593D01*
X58589Y15057D01*
X50526Y12146D01*
X42606Y8865D01*
X34846Y5223D01*
X27263Y1225D01*
X26672Y878D01*
X26688Y850D01*
X26464Y701D01*
X26249Y379D01*
X26203Y144D01*
X-56409Y-82467D01*
X-59056Y-82319D01*
X-61973Y-81823D01*
X-64816Y-81004D01*
X-67549Y-79872D01*
X-70138Y-78441D01*
X-72551Y-76729D01*
X-74757Y-74757D01*
X-76729Y-72551D01*
X-78441Y-70139D01*
X-79872Y-67549D01*
X-81004Y-64816D01*
X-81823Y-61973D01*
X-82319Y-59056D01*
X-82484Y-56102D01*
X-82480Y-56028D01*
X538Y26990D01*
X773Y27037D01*
X1095Y27252D01*
X1245Y27476D01*
X1278Y27458D01*
X1486Y27812D01*
X1526Y27889D01*
X5483Y35396D01*
X7717Y40154D01*
X8180Y39965D01*
X6442Y34994D01*
X6429Y34903D01*
X6366Y34752D01*
X6249Y33858D01*
X6366Y32964D01*
X6712Y32131D01*
X7260Y31415D01*
X7976Y30866D01*
X8809Y30521D01*
X9703Y30404D01*
Y30404D01*
X45518D01*
X45518Y30404D01*
Y30394D01*
X47520Y30551D01*
X49472Y31020D01*
X50927Y31622D01*
X51285Y31348D01*
X52357Y30903D01*
X53508Y30752D01*
X54659Y30903D01*
X55732Y31348D01*
X56653Y32054D01*
X57360Y32976D01*
X57804Y34048D01*
X57956Y35199D01*
X57804Y36350D01*
X57360Y37423D01*
X56653Y38344D01*
X55732Y39051D01*
X54994Y39357D01*
Y41912D01*
X54988Y41939D01*
X55123Y42265D01*
X55445Y42398D01*
X55466Y42395D01*
X62298Y42625D01*
X62339Y42126D01*
X62016Y42083D01*
X60944Y41639D01*
X60023Y40932D01*
X59316Y40011D01*
X58872Y38939D01*
X58720Y37788D01*
X58872Y36636D01*
X59316Y35564D01*
X60023Y34643D01*
X60944Y33936D01*
X62016Y33492D01*
X63168Y33340D01*
X64319Y33492D01*
X65391Y33936D01*
X66312Y34643D01*
X67019Y35564D01*
X67464Y36636D01*
X67615Y37788D01*
X67464Y38939D01*
X67019Y40011D01*
X66312Y40932D01*
X65391Y41639D01*
X64319Y42083D01*
X64288Y42088D01*
X64138Y42612D01*
X64183Y42648D01*
X65486Y42546D01*
D02*
G37*
G36*
X182063Y35426D02*
X182349Y35250D01*
Y34880D01*
X182409Y34580D01*
X182579Y34326D01*
X191259Y25646D01*
X191105Y16621D01*
X190030Y15547D01*
X178483D01*
X175134Y18895D01*
X174880Y19064D01*
X174581Y19124D01*
X167908D01*
X166499Y20534D01*
X166245Y20704D01*
X165945Y20763D01*
X164357D01*
X153461Y28986D01*
X153461Y29030D01*
X153458Y29044D01*
X153460Y29059D01*
X153426Y29973D01*
X153501Y30099D01*
X153707Y30301D01*
X153859Y30369D01*
X159233Y28844D01*
X158562Y26340D01*
X167081Y24058D01*
X169363Y32576D01*
X164354Y33918D01*
X164419Y34414D01*
X180482D01*
X180782Y34474D01*
X181036Y34643D01*
X181859Y35467D01*
X182063Y35426D01*
D02*
G37*
%LPC*%
G36*
X297252Y311324D02*
X296255Y311193D01*
X295326Y310808D01*
X294528Y310196D01*
X293916Y309398D01*
X293531Y308469D01*
X293400Y307472D01*
X293531Y306476D01*
X293916Y305547D01*
X294528Y304749D01*
X295326Y304137D01*
X296255Y303752D01*
X297252Y303621D01*
X298249Y303752D01*
X299178Y304137D01*
X299975Y304749D01*
X300588Y305547D01*
X300972Y306476D01*
X301104Y307472D01*
X300972Y308469D01*
X300588Y309398D01*
X299975Y310196D01*
X299178Y310808D01*
X298249Y311193D01*
X297252Y311324D01*
D02*
G37*
G36*
X-68898Y303064D02*
X-69895Y302933D01*
X-70824Y302548D01*
X-71621Y301936D01*
X-72233Y301138D01*
X-72618Y300209D01*
X-72750Y299213D01*
X-72618Y298216D01*
X-72233Y297287D01*
X-71621Y296489D01*
X-70824Y295877D01*
X-69895Y295492D01*
X-68898Y295361D01*
X-67901Y295492D01*
X-66972Y295877D01*
X-66174Y296489D01*
X-65562Y297287D01*
X-65177Y298216D01*
X-65046Y299213D01*
X-65177Y300209D01*
X-65562Y301138D01*
X-66174Y301936D01*
X-66972Y302548D01*
X-67901Y302933D01*
X-68898Y303064D01*
D02*
G37*
G36*
X304323Y304253D02*
X303326Y304122D01*
X302397Y303737D01*
X301599Y303125D01*
X300987Y302327D01*
X300602Y301398D01*
X300471Y300401D01*
X300602Y299405D01*
X300987Y298476D01*
X301599Y297678D01*
X302397Y297066D01*
X302838Y296883D01*
Y287028D01*
X302843Y287001D01*
X302719Y286701D01*
X302694Y286684D01*
X259105Y243095D01*
X259068Y243040D01*
X258355Y242564D01*
X257811Y242456D01*
X257811Y242456D01*
X257449Y242361D01*
X257353Y242321D01*
X256615Y242016D01*
X255900Y241466D01*
X255900Y241466D01*
X255547Y241112D01*
X252834Y238399D01*
X252233Y238354D01*
X252217Y238358D01*
X250787Y239788D01*
X247795Y236795D01*
X247713Y236713D01*
X247244Y236638D01*
X247145Y236539D01*
X244071Y233465D01*
X244109Y233426D01*
X243888Y232940D01*
X243526Y232868D01*
X243044Y232546D01*
X242722Y232064D01*
X242609Y231496D01*
X242722Y230928D01*
X243044Y230446D01*
X243526Y230124D01*
X244094Y230011D01*
X244663Y230124D01*
X245145Y230446D01*
X245467Y230928D01*
X245539Y231289D01*
X246024Y231511D01*
X247244Y230291D01*
X250237Y233284D01*
X250319Y233365D01*
X250787Y233440D01*
X250887Y233540D01*
X252496Y235149D01*
X253228Y235246D01*
X254062Y235591D01*
X254777Y236140D01*
X254776Y236140D01*
X254776Y236140D01*
X257880Y239244D01*
X258269Y239493D01*
Y239493D01*
X258753Y239592D01*
X258832Y239603D01*
X260111Y240133D01*
X260836Y240689D01*
X261210Y240975D01*
X261219Y240987D01*
X261557Y241347D01*
X304793Y284582D01*
X304793Y284582D01*
X304797Y284585D01*
X305346Y285301D01*
X305691Y286134D01*
X305809Y287028D01*
X305808D01*
X305808Y287028D01*
Y296883D01*
X306249Y297066D01*
X307047Y297678D01*
X307659Y298476D01*
X308044Y299405D01*
X308175Y300401D01*
X308044Y301398D01*
X307659Y302327D01*
X307047Y303125D01*
X306249Y303737D01*
X305320Y304122D01*
X304323Y304253D01*
D02*
G37*
G36*
X264961Y275122D02*
X263209Y274949D01*
X261524Y274438D01*
X259971Y273608D01*
X258611Y272492D01*
X257494Y271131D01*
X256664Y269578D01*
X256153Y267894D01*
X255980Y266142D01*
X256153Y264390D01*
X256664Y262705D01*
X257494Y261153D01*
X258611Y259792D01*
X259971Y258675D01*
X261524Y257845D01*
X263209Y257334D01*
X264961Y257161D01*
X266713Y257334D01*
X268397Y257845D01*
X269950Y258675D01*
X271311Y259792D01*
X272427Y261153D01*
X273257Y262705D01*
X273768Y264390D01*
X273941Y266142D01*
X273768Y267894D01*
X273257Y269578D01*
X272427Y271131D01*
X271311Y272492D01*
X269950Y273608D01*
X268397Y274438D01*
X266713Y274949D01*
X264961Y275122D01*
D02*
G37*
G36*
X-27559D02*
X-29311Y274949D01*
X-30996Y274438D01*
X-32548Y273608D01*
X-33909Y272492D01*
X-35026Y271131D01*
X-35856Y269578D01*
X-36367Y267894D01*
X-36539Y266142D01*
X-36367Y264390D01*
X-35856Y262705D01*
X-35026Y261153D01*
X-33909Y259792D01*
X-32548Y258675D01*
X-30996Y257845D01*
X-29311Y257334D01*
X-27559Y257161D01*
X-25807Y257334D01*
X-24123Y257845D01*
X-22570Y258675D01*
X-21209Y259792D01*
X-20092Y261153D01*
X-19262Y262705D01*
X-18751Y264390D01*
X-18579Y266142D01*
X-18751Y267894D01*
X-19262Y269578D01*
X-20092Y271131D01*
X-21209Y272492D01*
X-22570Y273608D01*
X-24123Y274438D01*
X-25807Y274949D01*
X-27559Y275122D01*
D02*
G37*
G36*
X247252Y260165D02*
X241016Y253929D01*
X247252Y247693D01*
X253488Y253929D01*
X247252Y260165D01*
D02*
G37*
G36*
X-61827Y310136D02*
X-62823Y310004D01*
X-63753Y309619D01*
X-64550Y309007D01*
X-65162Y308210D01*
X-65547Y307281D01*
X-65678Y306284D01*
X-65547Y305287D01*
X-65162Y304358D01*
X-64550Y303560D01*
X-63753Y302948D01*
X-62823Y302563D01*
X-61827Y302432D01*
X-60830Y302563D01*
X-59901Y302948D01*
X-59713Y303092D01*
X-24211Y279447D01*
X-23802Y279160D01*
X-23802D01*
X-23440Y278846D01*
X9769Y247613D01*
X9800Y247594D01*
X9938Y247261D01*
X9802Y246934D01*
X9778Y246918D01*
X6964Y244104D01*
X6494Y244031D01*
X3042Y247483D01*
X2208Y246649D01*
X925Y247932D01*
X1139Y248447D01*
X1290Y249599D01*
X1139Y250750D01*
X694Y251822D01*
X-13Y252743D01*
X-934Y253450D01*
X-2006Y253894D01*
X-3157Y254046D01*
X-4309Y253894D01*
X-5381Y253450D01*
X-5717Y253192D01*
X-7512Y254987D01*
X-7994Y255309D01*
X-8563Y255422D01*
X-8563Y255422D01*
X-11811D01*
X-11811Y255422D01*
X-12379Y255309D01*
X-12861Y254987D01*
X-12861Y254987D01*
X-23069Y244779D01*
X-23391Y244297D01*
X-23505Y243729D01*
X-23505Y243729D01*
Y242098D01*
X-23505Y242098D01*
X-23391Y241530D01*
X-23069Y241048D01*
X-13923Y231901D01*
X-13923Y231901D01*
X-13441Y231579D01*
X-12873Y231466D01*
X-8107D01*
X-6419Y229778D01*
X-3245Y232951D01*
X-6419Y236125D01*
X-8107Y234437D01*
X-12257D01*
X-20534Y242713D01*
Y243113D01*
X-11196Y252452D01*
X-9178D01*
X-7456Y250730D01*
X-7605Y249599D01*
X-7453Y248447D01*
X-7009Y247375D01*
X-6302Y246454D01*
X-5381Y245747D01*
X-4309Y245303D01*
X-3157Y245151D01*
X-2006Y245303D01*
X-1044Y245701D01*
X108Y244549D01*
X-410Y244031D01*
X2261Y241360D01*
X2175Y240868D01*
X-1205Y239264D01*
X-2243Y240301D01*
X-5416Y237127D01*
X-2243Y233954D01*
X668Y236864D01*
X6328Y239550D01*
X6407Y239609D01*
X6574Y239678D01*
X7290Y240227D01*
X7289Y240228D01*
X7289Y240228D01*
X11877Y244816D01*
X11878Y244816D01*
X11881Y244818D01*
X12430Y245534D01*
X12775Y246367D01*
X12893Y247261D01*
X12775Y248155D01*
X12430Y248989D01*
X11881Y249704D01*
X11826Y249746D01*
X11804Y249777D01*
X-21693Y281280D01*
X-21787Y281339D01*
X-22027Y281523D01*
X-22139Y281636D01*
X-22141Y281637D01*
X-22145Y281639D01*
X-22149Y281643D01*
X-58069Y305566D01*
X-57975Y306284D01*
X-58106Y307281D01*
X-58491Y308210D01*
X-59103Y309007D01*
X-59901Y309619D01*
X-60830Y310004D01*
X-61827Y310136D01*
D02*
G37*
G36*
X241645Y252577D02*
X238193Y249125D01*
X241645Y245673D01*
X242408Y246436D01*
X245126Y243718D01*
Y242478D01*
X243633Y240985D01*
X243561Y240963D01*
X243096Y241155D01*
Y242634D01*
X243096Y242634D01*
X243013Y243049D01*
X242778Y243400D01*
X239767Y246412D01*
X239415Y246647D01*
X239000Y246729D01*
X235244D01*
X232876Y249097D01*
X229424Y245645D01*
X232876Y242193D01*
X235244Y244562D01*
X238551D01*
X240928Y242185D01*
Y240367D01*
X241011Y239952D01*
X241246Y239601D01*
X241550Y239296D01*
X239895Y237640D01*
X243068Y234467D01*
X246061Y237460D01*
X246143Y237541D01*
X246612Y237616D01*
X246711Y237716D01*
X249785Y240790D01*
X249659Y240916D01*
X251902Y243158D01*
X252099Y243006D01*
X253172Y242562D01*
X254323Y242411D01*
X255474Y242562D01*
X256547Y243006D01*
X257468Y243713D01*
X258175Y244634D01*
X258619Y245707D01*
X258770Y246858D01*
X258619Y248009D01*
X258175Y249082D01*
X257468Y250003D01*
X256547Y250710D01*
X255474Y251154D01*
X254323Y251306D01*
X253172Y251154D01*
X252099Y250710D01*
X251178Y250003D01*
X250471Y249082D01*
X250027Y248009D01*
X249875Y246858D01*
X250027Y245707D01*
X250092Y245550D01*
X248559Y244016D01*
X248097Y244207D01*
Y244333D01*
X248097Y244333D01*
X247984Y244902D01*
X247662Y245384D01*
X244509Y248537D01*
X245097Y249125D01*
X241645Y252577D01*
D02*
G37*
G36*
X-10228Y248763D02*
X-16464Y242528D01*
X-10228Y236292D01*
X-3993Y242528D01*
X-10228Y248763D01*
D02*
G37*
G36*
X6522Y238714D02*
X3070Y235262D01*
X2875Y235183D01*
X2875D01*
X-298Y232009D01*
X2875Y228836D01*
X6049Y232009D01*
X6483Y231849D01*
X6522Y231810D01*
X9974Y235262D01*
X6522Y238714D01*
D02*
G37*
G36*
X225590Y238692D02*
X224340Y238569D01*
X223138Y238204D01*
X222030Y237612D01*
X221059Y236815D01*
X220262Y235844D01*
X219670Y234736D01*
X219305Y233534D01*
X219285Y233333D01*
X219140Y233188D01*
X208463D01*
X208174Y233150D01*
X202872D01*
Y222362D01*
X212872D01*
Y224293D01*
X220982D01*
X222133Y224445D01*
X223206Y224889D01*
X224127Y225596D01*
X224512Y225981D01*
X225590Y225875D01*
X226841Y225998D01*
X228043Y226362D01*
X229151Y226955D01*
X230122Y227752D01*
X230919Y228723D01*
X231511Y229831D01*
X231876Y231033D01*
X231999Y232283D01*
X231876Y233534D01*
X231511Y234736D01*
X230919Y235844D01*
X230122Y236815D01*
X229151Y237612D01*
X228043Y238204D01*
X226841Y238569D01*
X225590Y238692D01*
D02*
G37*
G36*
X209449Y204055D02*
X209250Y203987D01*
X208927Y203920D01*
X208858Y203915D01*
X208793Y203920D01*
X208469Y203986D01*
X208268Y204055D01*
X208197Y204055D01*
X199606D01*
X199245Y203905D01*
X199209Y203819D01*
X199134D01*
Y203637D01*
X199095Y203543D01*
Y196850D01*
X199245Y196489D01*
X199407Y196326D01*
X199272Y195754D01*
X198950Y195538D01*
X198628Y195057D01*
X198515Y194488D01*
X198628Y193920D01*
X198950Y193438D01*
X199432Y193116D01*
X200000Y193003D01*
X200568Y193116D01*
X201050Y193438D01*
X201128Y193555D01*
X202316D01*
X202731Y193638D01*
X203082Y193872D01*
X203187Y193977D01*
X207480D01*
X207842Y194127D01*
X207992Y194488D01*
Y198607D01*
X208437Y199053D01*
X208937Y198846D01*
Y193701D01*
X209087Y193339D01*
X209449Y193189D01*
X219291D01*
X219653Y193339D01*
X219803Y193701D01*
X219803Y203543D01*
X219653Y203905D01*
X219291Y204055D01*
X209525D01*
X209449Y204055D01*
D02*
G37*
G36*
X72638Y202489D02*
X71685Y202299D01*
X71603Y202244D01*
X70394D01*
Y201035D01*
X70338Y200952D01*
X70149Y200000D01*
X70338Y199048D01*
X70346Y199037D01*
Y196457D01*
X70535Y195504D01*
X71075Y194697D01*
X71405Y194476D01*
X71253Y193976D01*
X70523D01*
X70441Y194032D01*
X69488Y194221D01*
X68536Y194032D01*
X68453Y193976D01*
X67244D01*
Y192767D01*
X67189Y192685D01*
X66999Y191732D01*
Y187008D01*
Y185086D01*
X65851Y183937D01*
X63701D01*
Y182589D01*
X60630Y182589D01*
X59736Y182471D01*
X58903Y182126D01*
X58187Y181577D01*
X57638Y180861D01*
X57293Y180028D01*
X57175Y179134D01*
X57293Y178240D01*
X57638Y177407D01*
X58187Y176691D01*
X58903Y176142D01*
X59736Y175797D01*
X60630Y175679D01*
X63701Y175679D01*
Y174331D01*
X69370D01*
Y177202D01*
X69527Y177407D01*
X69872Y178240D01*
X69990Y179134D01*
X69872Y180028D01*
X69611Y180659D01*
X71248Y182295D01*
X71788Y183103D01*
X71977Y184055D01*
Y187008D01*
Y191732D01*
X71788Y192685D01*
X71732Y192767D01*
Y193702D01*
X72182Y194098D01*
X72835Y193968D01*
X73787Y194157D01*
X74594Y194697D01*
X75134Y195504D01*
X75323Y196457D01*
Y199803D01*
X75134Y200756D01*
X74882Y201133D01*
Y202244D01*
X73673D01*
X73590Y202299D01*
X72638Y202489D01*
D02*
G37*
G36*
X81181Y189252D02*
X76693D01*
Y186364D01*
X76664Y186221D01*
X76664Y186220D01*
Y184277D01*
X76325Y183937D01*
X72756D01*
Y174331D01*
X78425D01*
Y181837D01*
X79200Y182611D01*
X79522Y183093D01*
X79635Y183661D01*
X79635Y183661D01*
Y184764D01*
X81181D01*
Y189252D01*
D02*
G37*
G36*
X-1300Y231007D02*
X-4474Y227833D01*
X-1300Y224660D01*
X-841Y225119D01*
X-304Y224582D01*
Y218504D01*
X-304Y218504D01*
X-191Y217936D01*
X131Y217454D01*
X13082Y204503D01*
Y187795D01*
X13082Y187795D01*
X13195Y187227D01*
X13517Y186745D01*
X17847Y182414D01*
X18329Y182092D01*
X18898Y181979D01*
X18898Y181979D01*
X29700D01*
X41428Y170251D01*
Y166535D01*
X41541Y165967D01*
X41863Y165485D01*
X42345Y165163D01*
X42913Y165050D01*
X43482Y165163D01*
X43964Y165485D01*
X44028Y165581D01*
X44528Y165429D01*
Y159242D01*
X50276D01*
Y167782D01*
X50323Y168022D01*
Y177224D01*
X62343Y189243D01*
X63583D01*
X64535Y189433D01*
X64618Y189488D01*
X65827D01*
Y190697D01*
X65882Y190780D01*
X66071Y191732D01*
X65882Y192685D01*
X65827Y192767D01*
Y193976D01*
X64618D01*
X64535Y194032D01*
X63583Y194221D01*
X61312D01*
X60359Y194032D01*
X59552Y193492D01*
X46075Y180015D01*
X45535Y179208D01*
X45346Y178255D01*
Y175935D01*
X44528D01*
Y171972D01*
X44028Y171821D01*
X43964Y171916D01*
X31365Y184515D01*
X30883Y184837D01*
X30315Y184950D01*
X30315Y184950D01*
X19513D01*
X16052Y188410D01*
Y205118D01*
X15939Y205686D01*
X15617Y206168D01*
X15617Y206168D01*
X2666Y219119D01*
Y225197D01*
X2666Y225197D01*
X2553Y225765D01*
X2231Y226247D01*
X2231Y226247D01*
X1259Y227219D01*
X1873Y227833D01*
X-1300Y231007D01*
D02*
G37*
G36*
X27165Y178473D02*
X26213Y178284D01*
X25405Y177744D01*
X24866Y176937D01*
X24677Y175984D01*
Y175935D01*
X24528D01*
Y159242D01*
X30276D01*
Y175935D01*
X29654D01*
Y175984D01*
X29465Y176937D01*
X28925Y177744D01*
X28118Y178284D01*
X27165Y178473D01*
D02*
G37*
G36*
X199091Y122474D02*
X198196Y122357D01*
X197363Y122012D01*
X196648Y121463D01*
X196099Y120747D01*
X195754Y119914D01*
X195636Y119020D01*
X195754Y118125D01*
X196099Y117292D01*
X196648Y116577D01*
X197363Y116028D01*
X198196Y115683D01*
X199091Y115565D01*
X199985Y115683D01*
X200818Y116028D01*
X201533Y116577D01*
X202082Y117292D01*
X202428Y118125D01*
X202545Y119020D01*
X202428Y119914D01*
X202082Y120747D01*
X201533Y121463D01*
X200818Y122012D01*
X199985Y122357D01*
X199091Y122474D01*
D02*
G37*
G36*
Y112474D02*
X198196Y112357D01*
X197363Y112012D01*
X196648Y111463D01*
X196099Y110747D01*
X195754Y109914D01*
X195636Y109020D01*
X195754Y108125D01*
X196099Y107292D01*
X196648Y106577D01*
X197363Y106028D01*
X198196Y105683D01*
X199091Y105565D01*
X199985Y105683D01*
X200818Y106028D01*
X201533Y106577D01*
X202082Y107292D01*
X202428Y108125D01*
X202545Y109020D01*
X202428Y109914D01*
X202082Y110747D01*
X201533Y111463D01*
X200818Y112012D01*
X199985Y112357D01*
X199091Y112474D01*
D02*
G37*
G36*
X189091D02*
X188196Y112357D01*
X187363Y112012D01*
X186648Y111463D01*
X186099Y110747D01*
X185754Y109914D01*
X185636Y109020D01*
X185754Y108125D01*
X186099Y107292D01*
X186648Y106577D01*
X187363Y106028D01*
X188196Y105683D01*
X189091Y105565D01*
X189985Y105683D01*
X190818Y106028D01*
X191533Y106577D01*
X192083Y107292D01*
X192428Y108125D01*
X192545Y109020D01*
X192428Y109914D01*
X192083Y110747D01*
X191533Y111463D01*
X190818Y112012D01*
X189985Y112357D01*
X189091Y112474D01*
D02*
G37*
%LPD*%
G36*
X208268Y199606D02*
X207480Y198819D01*
Y194488D01*
X201969D01*
X199606Y196850D01*
Y203543D01*
X208268D01*
Y199606D01*
D02*
G37*
G36*
X219291Y193701D02*
X209449D01*
Y203543D01*
X219291D01*
X219291Y193701D01*
D02*
G37*
%LPC*%
G36*
X83150Y159528D02*
X68032D01*
Y149921D01*
X83150D01*
Y159528D01*
D02*
G37*
G36*
X78819Y135709D02*
X71575D01*
Y134950D01*
X70157D01*
Y135709D01*
X62913D01*
Y131220D01*
X70157D01*
Y131979D01*
X71575D01*
Y131220D01*
X78819D01*
Y135709D01*
D02*
G37*
G36*
X32394Y90868D02*
X29647Y83321D01*
X37194Y80574D01*
X39941Y88121D01*
X32394Y90868D01*
D02*
G37*
G36*
X59744Y77863D02*
X59176Y77750D01*
X58694Y77428D01*
X58372Y76946D01*
X58259Y76378D01*
X58372Y75810D01*
X58694Y75328D01*
X59060Y75083D01*
Y67844D01*
X46772Y55556D01*
X46457Y55619D01*
X45888Y55506D01*
X45406Y55184D01*
X45085Y54702D01*
X44971Y54134D01*
X45085Y53566D01*
X45406Y53084D01*
X45888Y52762D01*
X46457Y52649D01*
X47025Y52762D01*
X47507Y53084D01*
X47829Y53566D01*
X47942Y54134D01*
X47879Y54449D01*
X60396Y66966D01*
X60566Y67220D01*
X60625Y67520D01*
Y75215D01*
X60794Y75328D01*
X61116Y75810D01*
X61229Y76378D01*
X61116Y76946D01*
X60794Y77428D01*
X60312Y77750D01*
X59744Y77863D01*
D02*
G37*
G36*
X194488Y159952D02*
X193238Y159829D01*
X192036Y159464D01*
X190928Y158872D01*
X189956Y158075D01*
X189160Y157104D01*
X188567Y155996D01*
X188203Y154794D01*
X188079Y153543D01*
X188203Y152293D01*
X188567Y151091D01*
X189160Y149983D01*
X189956Y149012D01*
X190928Y148215D01*
X192036Y147622D01*
X193238Y147258D01*
X194488Y147134D01*
X195738Y147258D01*
X196941Y147622D01*
X198049Y148215D01*
X199020Y149012D01*
X199817Y149983D01*
X200409Y151091D01*
X200774Y152293D01*
X200897Y153543D01*
X200774Y154794D01*
X200409Y155996D01*
X199817Y157104D01*
X199020Y158075D01*
X198049Y158872D01*
X196941Y159464D01*
X195738Y159829D01*
X194488Y159952D01*
D02*
G37*
G36*
X178543Y83375D02*
X177975Y83262D01*
X177493Y82940D01*
X177171Y82458D01*
X177058Y81890D01*
X177171Y81321D01*
X177493Y80840D01*
X177975Y80518D01*
X178543Y80405D01*
X179112Y80518D01*
X179594Y80840D01*
X179915Y81321D01*
X180028Y81890D01*
X179915Y82458D01*
X179594Y82940D01*
X179112Y83262D01*
X178543Y83375D01*
D02*
G37*
G36*
X214567Y35763D02*
X208331Y29528D01*
X214567Y23292D01*
X220803Y29528D01*
X214567Y35763D01*
D02*
G37*
G36*
X264961Y-17791D02*
X263209Y-17964D01*
X261524Y-18475D01*
X259971Y-19305D01*
X258611Y-20422D01*
X257494Y-21782D01*
X256664Y-23335D01*
X256153Y-25020D01*
X255980Y-26772D01*
X256153Y-28524D01*
X256664Y-30208D01*
X257494Y-31761D01*
X258611Y-33122D01*
X259971Y-34238D01*
X261524Y-35068D01*
X263209Y-35579D01*
X264961Y-35752D01*
X266713Y-35579D01*
X268397Y-35068D01*
X269950Y-34238D01*
X271311Y-33122D01*
X272427Y-31761D01*
X273257Y-30208D01*
X273768Y-28524D01*
X273941Y-26772D01*
X273768Y-25020D01*
X273257Y-23335D01*
X272427Y-21782D01*
X271311Y-20422D01*
X269950Y-19305D01*
X268397Y-18475D01*
X266713Y-17964D01*
X264961Y-17791D01*
D02*
G37*
G36*
X308654Y-59542D02*
X307657Y-59673D01*
X306728Y-60058D01*
X305930Y-60670D01*
X305318Y-61468D01*
X304933Y-62397D01*
X304802Y-63394D01*
X304933Y-64390D01*
X305318Y-65320D01*
X305930Y-66117D01*
X306728Y-66729D01*
X307657Y-67114D01*
X308654Y-67245D01*
X309650Y-67114D01*
X310579Y-66729D01*
X311377Y-66117D01*
X311989Y-65320D01*
X312374Y-64390D01*
X312506Y-63394D01*
X312374Y-62397D01*
X311989Y-61468D01*
X311377Y-60670D01*
X310579Y-60058D01*
X309650Y-59673D01*
X308654Y-59542D01*
D02*
G37*
G36*
X16229Y21650D02*
X14009Y19430D01*
X12394Y18940D01*
X10661Y18014D01*
X9143Y16767D01*
X8665Y16713D01*
X8246Y16887D01*
X7094Y17038D01*
X5943Y16887D01*
X4871Y16442D01*
X3949Y15735D01*
X3243Y14814D01*
X2798Y13742D01*
X2647Y12591D01*
X2798Y11440D01*
X3243Y10367D01*
X3949Y9446D01*
X4871Y8739D01*
X5943Y8295D01*
X7094Y8143D01*
X8246Y8295D01*
X9318Y8739D01*
X10239Y9446D01*
X10946Y10367D01*
X11390Y11440D01*
X11542Y12591D01*
X11390Y13742D01*
X11204Y14191D01*
X11257Y14653D01*
X11625Y14971D01*
X12316Y15538D01*
X13533Y16189D01*
X14494Y16480D01*
X16229Y14746D01*
X16990Y15507D01*
X17128Y15389D01*
X18665Y14447D01*
X20331Y13757D01*
X21180Y13553D01*
X21315Y13072D01*
X18754Y10510D01*
X20443Y8822D01*
Y6185D01*
X19943Y5978D01*
X14165Y11755D01*
X7930Y5520D01*
X14165Y-716D01*
X19946Y5064D01*
X20426Y4837D01*
X20298Y3539D01*
X19813Y1938D01*
X19024Y462D01*
X18279Y-446D01*
X17949Y-817D01*
Y-817D01*
X17602Y-1164D01*
X-37105Y-55871D01*
X-37143Y-55927D01*
X-38385Y-56946D01*
X-39860Y-57735D01*
X-41461Y-58221D01*
X-43060Y-58378D01*
X-43126Y-58365D01*
X-64190D01*
X-64373Y-57924D01*
X-64985Y-57127D01*
X-65783Y-56515D01*
X-66712Y-56130D01*
X-67709Y-55998D01*
X-68706Y-56130D01*
X-69635Y-56515D01*
X-70432Y-57127D01*
X-71044Y-57924D01*
X-71429Y-58853D01*
X-71561Y-59850D01*
X-71429Y-60847D01*
X-71044Y-61776D01*
X-70432Y-62574D01*
X-69635Y-63186D01*
X-68706Y-63571D01*
X-67709Y-63702D01*
X-66712Y-63571D01*
X-65783Y-63186D01*
X-64985Y-62574D01*
X-64373Y-61776D01*
X-64190Y-61335D01*
X-43126D01*
Y-61342D01*
X-41328Y-61201D01*
X-39575Y-60780D01*
X-37909Y-60090D01*
X-36371Y-59148D01*
X-35000Y-57976D01*
X-35005Y-57972D01*
X19696Y-3271D01*
X20054Y-2922D01*
X20054Y-2922D01*
X21225Y-1551D01*
X22167Y-13D01*
X22858Y1653D01*
X23279Y3406D01*
X23420Y5204D01*
X23413D01*
Y8822D01*
X25101Y10510D01*
X22803Y12809D01*
X23013Y13263D01*
X23882Y13194D01*
Y13201D01*
X24415D01*
X26104Y11513D01*
X29277Y14686D01*
X26104Y17860D01*
X24415Y16172D01*
X23882D01*
X23816Y16158D01*
X22218Y16316D01*
X20617Y16802D01*
X19558Y17367D01*
X19467Y17983D01*
X19681Y18198D01*
X16229Y21650D01*
D02*
G37*
G36*
X-27559Y-17791D02*
X-29311Y-17964D01*
X-30996Y-18475D01*
X-32548Y-19305D01*
X-33909Y-20422D01*
X-35026Y-21782D01*
X-35856Y-23335D01*
X-36367Y-25020D01*
X-36539Y-26772D01*
X-36367Y-28524D01*
X-35856Y-30208D01*
X-35026Y-31761D01*
X-33909Y-33122D01*
X-32548Y-34238D01*
X-30996Y-35068D01*
X-29311Y-35579D01*
X-27559Y-35752D01*
X-25807Y-35579D01*
X-24123Y-35068D01*
X-22570Y-34238D01*
X-21209Y-33122D01*
X-20092Y-31761D01*
X-19262Y-30208D01*
X-18751Y-28524D01*
X-18579Y-26772D01*
X-18751Y-25020D01*
X-19262Y-23335D01*
X-20092Y-21782D01*
X-21209Y-20422D01*
X-22570Y-19305D01*
X-24123Y-18475D01*
X-25807Y-17964D01*
X-27559Y-17791D01*
D02*
G37*
G36*
X-60638Y-63069D02*
X-61635Y-63201D01*
X-62564Y-63586D01*
X-63361Y-64198D01*
X-63973Y-64995D01*
X-64358Y-65924D01*
X-64490Y-66921D01*
X-64358Y-67918D01*
X-63973Y-68847D01*
X-63361Y-69645D01*
X-62564Y-70257D01*
X-61635Y-70642D01*
X-60638Y-70773D01*
X-59641Y-70642D01*
X-58712Y-70257D01*
X-57914Y-69645D01*
X-57302Y-68847D01*
X-56917Y-67918D01*
X-56786Y-66921D01*
X-56917Y-65924D01*
X-57302Y-64995D01*
X-57914Y-64198D01*
X-58712Y-63586D01*
X-59641Y-63201D01*
X-60638Y-63069D01*
D02*
G37*
G36*
X173622Y31318D02*
X172471Y31166D01*
X171398Y30722D01*
X170477Y30015D01*
X169770Y29094D01*
X169326Y28021D01*
X169175Y26870D01*
X169326Y25719D01*
X169770Y24646D01*
X170477Y23725D01*
X171398Y23018D01*
X172471Y22574D01*
X173622Y22423D01*
X174773Y22574D01*
X175846Y23018D01*
X176767Y23725D01*
X177474Y24646D01*
X177918Y25719D01*
X178070Y26870D01*
X177918Y28021D01*
X177474Y29094D01*
X176767Y30015D01*
X175846Y30722D01*
X174773Y31166D01*
X173622Y31318D01*
D02*
G37*
G36*
X183281Y28729D02*
X182130Y28578D01*
X181058Y28134D01*
X180136Y27427D01*
X179430Y26506D01*
X178985Y25433D01*
X178834Y24282D01*
X178985Y23131D01*
X179430Y22058D01*
X180136Y21137D01*
X181058Y20430D01*
X182130Y19986D01*
X183281Y19834D01*
X184432Y19986D01*
X185505Y20430D01*
X186426Y21137D01*
X187133Y22058D01*
X187577Y23131D01*
X187729Y24282D01*
X187577Y25433D01*
X187133Y26506D01*
X186426Y27427D01*
X185505Y28134D01*
X184432Y28578D01*
X183281Y28729D01*
D02*
G37*
%LPD*%
D11*
X161297Y67323D02*
X162872Y68898D01*
X165551D01*
X161393Y74803D02*
X161811D01*
X161024Y92520D02*
X161042Y92502D01*
X165087D01*
X161024Y83071D02*
X161435Y82659D01*
X165087D01*
X209557Y37859D02*
X209557Y37859D01*
X143701Y63386D02*
X143701Y63386D01*
X146850D01*
X146850Y63386D01*
X204528Y196850D02*
Y196850D01*
X203150Y195472D02*
X204528Y196850D01*
X203150Y195472D02*
X203150D01*
X202316Y194639D02*
X203150Y195472D01*
X200151Y194639D02*
X202316D01*
X200000Y194488D02*
X200151Y194639D01*
X246063Y233465D02*
X247244D01*
X244094Y231496D02*
X246063Y233465D01*
X116929Y69685D02*
X120079D01*
X114961Y71653D02*
X116929Y69685D01*
X243068Y237640D02*
Y239311D01*
X242012Y240367D02*
X243068Y239311D01*
X242012Y240367D02*
Y242634D01*
X232876Y245645D02*
X232876Y245645D01*
X239000D01*
X242012Y242634D01*
D12*
X135587Y24145D02*
G03*
X99538Y24145I-18027J-185035D01*
G01*
X71548Y51068D02*
G03*
X72783Y48083I4225J-0D01*
G01*
X122130Y70748D02*
G03*
X121613Y70988I-703J-836D01*
G01*
X122835Y67267D02*
G03*
X122072Y68045I-787J-8D01*
G01*
X88969Y30493D02*
G03*
X89877Y33305I-3895J2811D01*
G01*
X88227Y38664D02*
G03*
X88090Y38859I-7875J-5359D01*
G01*
X89877Y33305D02*
G03*
X88227Y38664I-9525J0D01*
G01*
X151969Y124016D02*
G03*
X152756Y124803I0J787D01*
G01*
X39730Y18665D02*
G03*
X39775Y18661I952J10600D01*
G01*
X33365Y19442D02*
G03*
X33898Y19192I612J612D01*
G01*
X120866Y153543D02*
G03*
X120633Y154103I-787J0D01*
G01*
X120079Y154983D02*
G03*
X120309Y154426I787J0D01*
G01*
X120079Y155776D02*
G03*
X119848Y156333I-787J0D01*
G01*
X29528Y26476D02*
G03*
X29626Y26714I-238J238D01*
G01*
X62865Y18820D02*
G03*
X63051Y18848I-81J1159D01*
G01*
X41575Y18507D02*
G03*
X41642Y18504I67J785D01*
G01*
X30635Y22336D02*
G03*
X30860Y21948I837J224D01*
G01*
X39186Y71942D02*
G03*
X48149Y80905I0J8963D01*
G01*
X193110Y91831D02*
G03*
X186506Y91831I-3302J-3591D01*
G01*
X88953Y30301D02*
G03*
X88969Y30493I-4277J447D01*
G01*
X87717Y27707D02*
G03*
X88953Y30301I-3041J3041D01*
G01*
X146859Y68080D02*
G03*
X146642Y68110I-218J-757D01*
G01*
X22776Y69344D02*
G03*
X21647Y68226I4389J-5564D01*
G01*
X27684Y71942D02*
G03*
X22776Y69344I4650J-14715D01*
G01*
X20079Y63780D02*
G03*
X20079Y63779I787J-35D01*
G01*
X20122Y64005D02*
G03*
X20079Y63780I743J-260D01*
G01*
Y49975D02*
G03*
X21328Y48725I1250J0D01*
G01*
X21647Y68226D02*
G03*
X21518Y67995I612J-495D01*
G01*
X58527Y23109D02*
G03*
X62992Y21260I4465J4465D01*
G01*
D02*
G03*
X63192Y21285I0J787D01*
G01*
X115125Y66765D02*
G03*
X115069Y66816I-556J-557D01*
G01*
X148424Y59843D02*
G03*
X147475Y60236I-950J-951D01*
G01*
X148425Y59842D02*
G03*
X148424Y59843I-950J-950D01*
G01*
X115732Y68774D02*
G03*
X115169Y69007I-559J-554D01*
G01*
X116227Y68280D02*
G03*
X116782Y68051I555J559D01*
G01*
X114200Y69007D02*
G03*
X110630Y67913I-36J-6254D01*
G01*
X46918Y49606D02*
G03*
X47474Y49836I0J787D01*
G01*
X37567Y50054D02*
G03*
X38976Y49606I1409J1992D01*
G01*
X31519Y51085D02*
G03*
X34371Y49904I2851J2851D01*
G01*
X30315Y44488D02*
G03*
X31519Y47396I-2907J2907D01*
G01*
X21161Y39476D02*
G03*
X28232Y42405I0J10000D01*
G01*
X145180Y69685D02*
G03*
X148031Y70866I0J4033D01*
G01*
X37772Y55608D02*
G03*
X36426Y58858I-4596J0D01*
G01*
X37567Y50054D02*
G03*
X36811Y50139I-455J-643D01*
G01*
X33048Y56789D02*
G03*
X30187Y57974I-2860J-2860D01*
G01*
X69199Y31572D02*
G03*
X70690Y34452I-3787J3787D01*
G01*
X71332Y35094D02*
G03*
X70690Y34452I135J-776D01*
G01*
X77106Y36125D02*
G03*
X77752Y36924I-142J775D01*
G01*
X77627Y40531D02*
G03*
X77627Y40549I-4801J-156D01*
G01*
X77551Y42746D02*
G03*
X77524Y42924I-787J-28D01*
G01*
X77427Y43288D02*
G03*
X77219Y43647I-761J-201D01*
G01*
X99504Y24142D02*
X99538Y24145D01*
D15*
X135705Y25300D02*
G03*
X99477Y25306I-18144J-186191D01*
G01*
X136055Y25208D02*
G03*
X135705Y25300I-468J-1063D01*
G01*
X33978Y22560D02*
G03*
X40682Y19783I6704J6704D01*
G01*
X199606Y162598D02*
X205512Y156693D01*
Y127953D02*
Y156693D01*
X202756Y125197D02*
X205512Y127953D01*
X159397Y36319D02*
X161486D01*
X161545Y36260D02*
X180042D01*
X158858Y35925D02*
X159397Y36319D01*
X161486D02*
X161545Y36260D01*
X160922Y38386D02*
X161985Y37323D01*
X179602D01*
X157443Y35811D02*
X157599Y35925D01*
X179602Y37323D02*
X183932Y41654D01*
X180042Y36260D02*
X183684Y39902D01*
X157599Y35925D02*
X158858D01*
X152191Y33754D02*
X161130Y35197D01*
X180482D01*
X151774Y33750D02*
X152191Y33754D01*
X157327Y35726D02*
X157443Y35811D01*
X152579Y35551D02*
Y42652D01*
X153182Y35551D02*
X157327Y35726D01*
X152579Y35551D02*
X153182D01*
X150335Y44896D02*
X152579Y42652D01*
X155118Y37402D02*
Y41339D01*
X151516Y34008D02*
X151774Y33750D01*
X151516Y34008D02*
Y42211D01*
X162691Y28675D02*
X163180D01*
X164094Y19980D02*
X165945D01*
X153348Y31328D02*
X162691Y28675D01*
X163180D02*
X163353Y28848D01*
X152678Y28890D02*
X152678Y28596D01*
X152678Y29029D02*
X152678Y28890D01*
X152678Y28596D02*
X164094Y19980D01*
X163353Y28848D02*
X163963Y29458D01*
X152641Y29994D02*
X152678Y29029D01*
X152295Y30340D02*
X152641Y29994D01*
X146405Y30340D02*
X152295D01*
X151657Y32224D02*
X153022Y31501D01*
X159449Y38732D02*
Y41339D01*
X150354Y33527D02*
X151657Y32224D01*
X159795Y38386D02*
X160922D01*
X159449Y38732D02*
X159795Y38386D01*
X149076Y35006D02*
X150354Y33527D01*
X153022Y31501D02*
X153348Y31328D01*
X180482Y35197D02*
X184124Y38839D01*
X185098D01*
X183684Y39902D02*
X184658D01*
X186722Y36065D02*
Y36108D01*
X186535Y36295D02*
X186722Y36108D01*
X175396Y57402D02*
X177325Y59331D01*
X172441Y59646D02*
X175246D01*
X185315Y59331D02*
X186909Y60925D01*
X176526Y60925D02*
X177854D01*
X156890Y59719D02*
X159207Y57402D01*
X177325Y59331D02*
X185315D01*
X159207Y57402D02*
X175396D01*
X177854Y60925D02*
X180512Y63583D01*
X175246Y59646D02*
X176526Y60925D01*
X183661Y68110D02*
X193110Y77559D01*
X167614Y68110D02*
X183661D01*
X193110Y77559D02*
Y91831D01*
X189091Y75043D02*
Y79020D01*
X167866Y69882D02*
X183930D01*
X189091Y75043D01*
X159269Y70984D02*
X166763D01*
X167866Y69882D01*
X166114Y69291D02*
X166433D01*
X167614Y68110D01*
X172047Y72441D02*
X177953Y78347D01*
X146181Y72618D02*
X148757D01*
X148934Y72441D02*
X172047D01*
X148757Y72618D02*
X148934Y72441D01*
X157874Y69590D02*
X159269Y70984D01*
X47474Y49836D02*
X58760Y61122D01*
X85532D02*
X88583Y64173D01*
X58760Y61122D02*
X85532D01*
X92600Y41526D02*
X92716Y41642D01*
X94468Y42442D02*
Y42815D01*
X93779Y29932D02*
X94125Y29587D01*
X93663Y39634D02*
Y41086D01*
X92600Y39194D02*
Y41526D01*
X92716Y29177D02*
X93370Y28524D01*
X93779Y41753D02*
X94468Y42442D01*
X92716Y29177D02*
Y39077D01*
X93779Y29932D02*
Y39518D01*
X93663Y41086D02*
X93779Y41202D01*
Y41753D01*
X92600Y39194D02*
X92716Y39077D01*
X93663Y39634D02*
X93779Y39518D01*
X94125Y29587D02*
X110689D01*
X92716Y41642D02*
Y46457D01*
X84478Y25000D02*
X84945Y25110D01*
X99052Y25306D02*
X99477D01*
X136055Y25208D02*
X144587D01*
X99012Y24145D02*
X99504D01*
X85394Y24124D02*
X85416Y24129D01*
X73234Y22715D02*
X82303Y24982D01*
X85043Y25208D02*
X98954D01*
X82303Y24982D02*
X82373Y25000D01*
X84945Y25110D02*
X85043Y25208D01*
X144587D02*
Y29429D01*
X82373Y25000D02*
X84478D01*
X98954Y25208D02*
X99052Y25306D01*
X85416Y24129D02*
X99012Y24145D01*
X111129Y28524D02*
X114318Y31713D01*
X93370Y28524D02*
X111129D01*
X114318Y31713D02*
X121775D01*
X122835Y41142D02*
Y45472D01*
X122224Y40532D02*
X122835Y41142D01*
X122224Y32162D02*
Y40532D01*
X121775Y31713D02*
X122224Y32162D01*
X131041Y28937D02*
X138681D01*
X129053Y30925D02*
X131041Y28937D01*
X129053Y30925D02*
X129053D01*
X127431Y32677D02*
X143369D01*
X126319Y33789D02*
X127431Y32677D01*
X126319Y33789D02*
Y39127D01*
X138941Y38957D02*
X144606D01*
X135979D02*
X138941D01*
X134449Y40486D02*
X135979Y38957D01*
X143369Y32677D02*
X146405Y30340D01*
X146045Y32342D02*
X146218Y32170D01*
X127832Y33779D02*
X143810Y33740D01*
X146045Y32342D01*
X127382Y34229D02*
X127832Y33779D01*
X146218Y32170D02*
X146275Y32112D01*
X127382Y34229D02*
Y38548D01*
X146275Y32112D02*
X146655Y31732D01*
X126319Y39127D02*
X127165Y39974D01*
X127382Y38548D02*
X128543Y39709D01*
X98032Y33560D02*
Y40236D01*
X87650Y57559D02*
X103135D01*
X87028Y56936D02*
X87650Y57559D01*
X112720Y59469D02*
X116776Y63386D01*
X103135Y57559D02*
X109190Y58189D01*
X104058Y59469D02*
X104508Y59918D01*
X86827Y55811D02*
X87028Y56936D01*
X88090Y56496D02*
X111668D01*
X101243Y58622D02*
X102694D01*
X109190Y58189D02*
X112720Y59469D01*
X104508Y59918D02*
X105094Y60803D01*
X95507Y59370D02*
X101243Y58622D01*
X86505Y43425D02*
X86827Y55811D01*
X105094Y60803D02*
X106299Y62008D01*
X88090Y40606D02*
Y56496D01*
X111668D02*
X116589Y61417D01*
X102694Y58622D02*
X104058Y59469D01*
X116776Y63386D02*
X120079D01*
X88090Y40606D02*
X88174Y40294D01*
X88090Y39738D02*
X88174Y39821D01*
X88090Y38859D02*
X88090Y39738D01*
X88174Y39821D02*
Y40294D01*
X101575Y65208D02*
Y67520D01*
X89455Y64173D02*
X90144Y64862D01*
X101229D02*
X101575Y65208D01*
X90144Y64862D02*
X101229D01*
X88583Y64173D02*
X89455D01*
X105118Y76872D02*
X106478Y75512D01*
X109272Y75079D02*
X122894D01*
X106478Y75512D02*
X108839D01*
X109272Y75079D01*
X105118Y76872D02*
Y81254D01*
X116043Y44193D02*
X119685Y47835D01*
X114173Y51122D02*
X114312Y51260D01*
X114350Y55905D02*
X117060D01*
X114312Y51260D02*
X116043D01*
X114261Y55994D02*
X114350Y55905D01*
X116535Y58268D02*
X118051Y59784D01*
X116043Y40846D02*
Y44193D01*
X116535Y49114D02*
X119685Y52264D01*
X123169Y51783D02*
X123228Y51724D01*
X119685Y52264D02*
X121752D01*
X122233Y51783D01*
X123169D01*
X123228Y50787D02*
Y51724D01*
X117728Y51949D02*
X118073Y52295D01*
X116732Y51949D02*
X117728D01*
X118957Y53937D02*
X120079D01*
X118073Y53054D02*
X118957Y53937D01*
X118073Y52295D02*
Y53054D01*
X110692Y49114D02*
X116535D01*
X116043Y51260D02*
X116732Y51949D01*
X132801Y47577D02*
X132925Y47453D01*
X132801Y47577D02*
Y50664D01*
X140660Y53858D02*
X141900Y52618D01*
X138878Y53858D02*
X140660D01*
X183132Y34880D02*
X191870Y26142D01*
X183132Y34880D02*
Y35369D01*
X191870Y26142D02*
X191870D01*
X192047Y25964D01*
X183132Y35369D02*
X197943Y50180D01*
X145827Y55453D02*
X148071Y53209D01*
Y43179D02*
Y53209D01*
X191882Y16292D02*
X192047Y25964D01*
X186722Y36065D02*
X193653Y29134D01*
X185098Y38839D02*
X197502Y51243D01*
X184658Y39902D02*
X201257Y56500D01*
X193653Y29134D02*
X197244D01*
X197943Y50180D02*
X208875D01*
X185138Y43406D02*
X207295Y65563D01*
X175377Y43406D02*
X185138D01*
X197502Y51243D02*
X210100D01*
X201257Y56500D02*
X216785D01*
X174688Y44094D02*
X175377Y43406D01*
X210100Y51243D02*
X213906Y47437D01*
X208875Y50180D02*
X219072Y39983D01*
X105348Y44751D02*
Y45859D01*
X105827Y46338D01*
X127165Y44098D02*
X129862Y46794D01*
X128543Y40846D02*
X129921Y42224D01*
X127165Y39974D02*
Y44098D01*
X128543Y39709D02*
Y40846D01*
X127953Y80905D02*
X132283D01*
X129335Y64732D02*
X131890Y62598D01*
X127190Y66523D02*
X129335Y64732D01*
X122130Y70748D02*
X127190Y66523D01*
X120079Y71260D02*
X121613Y70988D01*
X122835Y67267D02*
X122835Y67264D01*
Y59872D02*
Y67264D01*
X120079Y68110D02*
X122072Y68045D01*
X146980Y68200D02*
X147982D01*
X148150Y68368D01*
X163779Y53740D02*
X168110D01*
Y54035D01*
Y47244D02*
Y53740D01*
X82486Y42964D02*
X86043D01*
X86505Y43425D01*
X97638Y67913D02*
Y71555D01*
X97736Y71653D01*
X93307Y62008D02*
X95000Y60315D01*
Y59877D02*
Y60315D01*
Y59877D02*
X95507Y59370D01*
X106299Y62008D02*
X110630D01*
X138555Y48228D02*
X143741D01*
X143761Y48248D01*
X142223Y52618D02*
X145846Y48995D01*
X141900Y52618D02*
X142223D01*
X145846Y42257D02*
Y48995D01*
Y42257D02*
X146161Y41942D01*
X145768Y51922D02*
X147008Y50682D01*
Y42738D02*
Y50682D01*
Y42738D02*
X147323Y42423D01*
X148071Y43179D02*
X149350Y41899D01*
X137559Y49224D02*
X138555Y48228D01*
X184757Y49803D02*
X187021Y52067D01*
X190748D01*
X180709Y49803D02*
X184757D01*
X189075Y67716D02*
X193602Y63189D01*
Y60335D02*
Y63189D01*
X195571Y66831D02*
Y72040D01*
X194685Y72926D02*
X195571Y72040D01*
X194685Y72926D02*
Y93898D01*
X193602Y94980D02*
X194685Y93898D01*
X180186Y94980D02*
X193602D01*
X177165Y74803D02*
X181004D01*
X183465Y72342D01*
X156890Y59719D02*
Y62402D01*
X153242Y62874D02*
X155630Y60486D01*
Y59476D02*
Y60486D01*
Y59476D02*
X156909Y58196D01*
X148031Y55905D02*
X148228Y55709D01*
X152854D01*
X148689Y59579D02*
X151582D01*
X154783Y53405D02*
Y57316D01*
X152430Y61208D02*
Y61760D01*
X151198Y62874D02*
X153242D01*
X152972Y60630D02*
Y60945D01*
X151968Y59193D02*
X152906D01*
X154783Y57316D01*
X148934Y65138D02*
X151198Y62874D01*
X152379Y61811D02*
X152430Y61760D01*
X147753Y61811D02*
X152379D01*
X151582Y59579D02*
X151968Y59193D01*
X152430Y61208D02*
X152694Y60945D01*
X155847Y52965D02*
Y57756D01*
X156909Y52525D02*
Y58196D01*
X152972Y60630D02*
X155847Y57756D01*
X149606Y57657D02*
X149724Y57776D01*
X148133Y57657D02*
X149606D01*
X153287Y51910D02*
X154783Y53405D01*
X149272Y49033D02*
X152148Y51910D01*
X153287D01*
X173324Y64865D02*
X174803Y63386D01*
X160736Y64865D02*
X173324D01*
X151969Y124016D02*
X151969D01*
X139075D02*
X151969D01*
X132185Y134744D02*
X137402Y139961D01*
X132185Y120669D02*
Y134744D01*
X128347Y115551D02*
X128673Y115877D01*
X130936D01*
X139075Y124016D01*
X127165Y121371D02*
Y121653D01*
Y121371D02*
X128347Y120190D01*
Y117421D02*
Y120190D01*
X96457Y116535D02*
Y124409D01*
X135925Y94193D02*
X138779D01*
X138976Y85728D02*
Y86611D01*
X139055Y86690D01*
Y93917D01*
X138779Y94193D02*
X139055Y93917D01*
X138976Y85728D02*
X144488D01*
X145228Y87551D02*
X146457Y88779D01*
X145228Y86468D02*
Y87551D01*
X144488Y85728D02*
X145228Y86468D01*
X147835Y93898D02*
X150787D01*
X154477Y91878D02*
X155118Y92520D01*
X152807Y91878D02*
X154477D01*
X150787Y93898D02*
X152807Y91878D01*
X131083Y89350D02*
X135925Y94193D01*
X97638Y62008D02*
X101969D01*
X149311Y27801D02*
X150134Y28588D01*
X146886Y31501D02*
X153022D01*
X39720Y18666D02*
X39730Y18665D01*
X33898Y19192D02*
X39720Y18666D01*
X149311Y24606D02*
Y27801D01*
X146655Y31732D02*
X146886Y31501D01*
X146161Y37920D02*
X149076Y35006D01*
X146161Y37920D02*
Y41942D01*
X123150Y54596D02*
X123657Y54089D01*
X165945Y19980D02*
X167584Y18341D01*
X174581D01*
X178158Y14764D01*
X190354D02*
X191882Y16292D01*
X178158Y14764D02*
X190354D01*
X39775Y18661D02*
X39779Y18660D01*
X41575Y18507D01*
X135587Y24145D02*
X148850D01*
X149311Y24606D01*
X63051Y18848D02*
X85394Y24124D01*
X122835Y45472D02*
X126122Y48760D01*
X119685Y40157D02*
X121063Y41535D01*
Y45483D01*
X124744Y49164D01*
X136909Y36417D02*
X142323D01*
X136811Y36319D02*
X136909Y36417D01*
X129921Y36319D02*
X136811D01*
X144606Y38957D02*
X145000Y38563D01*
Y36004D02*
X147638Y33366D01*
X145000Y36004D02*
Y38563D01*
X147323Y40472D02*
Y42423D01*
Y40472D02*
X149409Y38386D01*
X149350Y41636D02*
Y41899D01*
X145768Y51922D02*
Y52165D01*
X145504Y52429D02*
X145768Y52165D01*
X120309Y154426D02*
X120633Y154103D01*
X120079Y154983D02*
Y155776D01*
X120866Y118110D02*
Y153543D01*
X58366Y18504D02*
X62865Y18820D01*
X41642Y18504D02*
X58366D01*
X30860Y21948D02*
X33365Y19442D01*
X29528Y26476D02*
X30635Y22336D01*
X46457Y54134D02*
X59842Y67520D01*
Y76279D01*
X48149Y80905D02*
X75590D01*
X27684Y71942D02*
X39186D01*
X29626Y26714D02*
Y26870D01*
X40682Y19783D02*
X53650D01*
X62784Y19978D01*
X62851Y19996D01*
X73234Y22715D01*
X63192Y21285D02*
X87507Y27652D01*
X134449Y40486D02*
Y41831D01*
X123657Y54089D02*
X123657D01*
X123888Y53858D02*
X138878D01*
X123657Y54089D02*
X123888Y53858D01*
X122835Y59872D02*
X123150Y54596D01*
X163779Y47244D02*
Y49608D01*
X163091Y50297D02*
X163779Y49608D01*
X163091Y50297D02*
Y50591D01*
X149272Y44456D02*
X151516Y42211D01*
X149272Y44456D02*
Y49033D01*
X150335Y44896D02*
Y47229D01*
X152640Y44094D02*
X174688D01*
X151398Y45337D02*
X152640Y44094D01*
X151398Y45337D02*
Y46789D01*
X152579Y47970D02*
Y49334D01*
X151516Y49774D02*
X152588Y50846D01*
X151516Y48410D02*
Y49774D01*
X153728Y50846D02*
X155847Y52965D01*
X152579Y49334D02*
X153028Y49784D01*
X152588Y50846D02*
X153728D01*
X154168Y49784D02*
X156909Y52525D01*
X153028Y49784D02*
X154168D01*
X151398Y46789D02*
X152579Y47970D01*
X150335Y47229D02*
X151516Y48410D01*
X179724Y95442D02*
Y103937D01*
Y95442D02*
X180186Y94980D01*
X170866Y96457D02*
X175261Y92061D01*
X175492Y91831D01*
Y91831D02*
X186506D01*
X159449Y47244D02*
X159449Y47244D01*
X180512Y63583D02*
X180709D01*
X143701Y53937D02*
X144823D01*
X145504Y53256D01*
Y52429D02*
Y53256D01*
X159449Y47244D02*
X163779D01*
X159449Y47244D02*
X159449Y47244D01*
X84055Y63090D02*
Y76083D01*
X85138Y77165D01*
X101575Y67520D02*
X101969Y67913D01*
X95177Y31791D02*
X96319Y30650D01*
X95177Y40122D02*
X95415Y40360D01*
X95177Y31791D02*
Y40122D01*
X96319Y30650D02*
X107326D01*
X108839Y32461D02*
X110630Y34252D01*
X107326Y30650D02*
X108839Y32162D01*
Y32461D01*
X110689Y29587D02*
X115354Y34252D01*
X105169Y31940D02*
Y33121D01*
X99879Y31713D02*
X104941D01*
X105169Y33121D02*
X106299Y34252D01*
X104941Y31713D02*
X105169Y31940D01*
X98032Y33560D02*
X99879Y31713D01*
X143760Y55453D02*
X145827D01*
X115354Y40157D02*
X116043Y40846D01*
X132677Y50787D02*
X132801Y50664D01*
X92716Y46457D02*
X97047D01*
X131075Y45839D02*
X132559Y44355D01*
X131075Y45839D02*
Y50760D01*
X131102Y50787D01*
X132559Y44333D02*
X133389Y43503D01*
X132559Y44333D02*
Y44355D01*
X133389Y43503D02*
X135533D01*
X136811Y42224D01*
X129882Y48216D02*
Y49311D01*
X129862Y48196D02*
X129882Y48216D01*
X129862Y46794D02*
Y48196D01*
X137402Y50787D02*
X137559Y50630D01*
Y49224D02*
Y50630D01*
X135827Y50787D02*
X135984Y50630D01*
Y49224D02*
Y50630D01*
Y49224D02*
X138488Y46720D01*
X139500D01*
X139764Y46457D01*
X134252Y50787D02*
X134409Y50630D01*
Y49072D02*
Y50630D01*
Y49072D02*
X135413Y48068D01*
Y47440D02*
Y48068D01*
Y47440D02*
X136516Y46337D01*
Y45965D02*
Y46337D01*
X138976Y50787D02*
Y53760D01*
X138878Y53858D02*
X138976Y53760D01*
X101476Y43996D02*
Y46358D01*
X105709Y46457D02*
X105827Y46338D01*
X127953Y48109D02*
Y50787D01*
X129528Y49665D02*
X129882Y49311D01*
X129528Y49665D02*
Y50787D01*
X126122Y48760D02*
Y49409D01*
X126319Y49606D01*
X124744Y49164D02*
Y50728D01*
X126319D02*
X126378Y50787D01*
X126319Y49606D02*
Y50728D01*
X124744D02*
X124803Y50787D01*
X117992Y35945D02*
X119685Y34252D01*
X117992Y35945D02*
Y36382D01*
X116855Y37520D02*
X117992Y36382D01*
X110562Y37520D02*
X116855D01*
X110231Y49575D02*
X110692Y49114D01*
X110231Y49575D02*
Y52170D01*
X110039Y52362D02*
X110231Y52170D01*
X110630Y40157D02*
X115354D01*
X101969D02*
X106299D01*
X155020Y79626D02*
X155118Y79528D01*
X151476Y79626D02*
X155020D01*
X146457Y88779D02*
X149705D01*
X113996Y67154D02*
X114222Y66928D01*
X114956D01*
X115069Y66816D01*
X120420Y73228D02*
X121091D01*
X117060Y55905D02*
X117867Y56713D01*
X118299D01*
X118515Y56929D01*
X119921D02*
X120079Y57087D01*
X118515Y56929D02*
X119921D01*
X122894Y75079D02*
X123228Y74744D01*
X121091Y73228D02*
X122252Y72067D01*
X130194Y89350D02*
X131083D01*
X127953Y86811D02*
X128642Y87500D01*
Y89272D01*
X130115D02*
X130194Y89350D01*
X128642Y89272D02*
X130115D01*
X141969Y74961D02*
X142028Y74902D01*
X141339Y74961D02*
X141969D01*
X140669Y74291D02*
X141339Y74961D01*
X140551Y74409D02*
X140669Y74291D01*
X126677Y77552D02*
X126677D01*
X128409Y76934D02*
X129311Y76032D01*
X126677Y77552D02*
X127295Y76934D01*
X128409D01*
X129311Y74626D02*
Y76032D01*
Y74626D02*
X129528Y74409D01*
X123622Y80905D02*
X125098Y79429D01*
X125343Y76850D02*
X126221Y75973D01*
X125098Y79131D02*
Y79429D01*
X126221Y74567D02*
X126367Y74420D01*
X117390Y76850D02*
X125343D01*
X126221Y74567D02*
Y75973D01*
X125098Y79131D02*
X126677Y77552D01*
X109449Y79724D02*
X113779D01*
X143701Y71260D02*
X143858Y71417D01*
X144980D02*
X146181Y72618D01*
X143858Y71417D02*
X144980D01*
X177953Y78347D02*
X181496D01*
X188677Y88606D02*
X189091Y89020D01*
X188677Y85527D02*
Y88606D01*
X181496Y78347D02*
X188677Y85527D01*
X157874Y64173D02*
Y69590D01*
X151372Y66535D02*
X153735Y64173D01*
X157874D01*
X143701Y66535D02*
X143701Y66535D01*
X151372D01*
X145948Y64961D02*
X146125Y65138D01*
X148934D01*
X162634Y79528D02*
X164370D01*
X124646Y74252D02*
X124803Y74409D01*
X124646Y72846D02*
Y74252D01*
X123866Y72067D02*
X124646Y72846D01*
X122252Y72067D02*
X123866D01*
X124803Y74409D02*
X124961Y74252D01*
X116929Y77312D02*
Y88909D01*
X126367Y74420D02*
X126378Y74409D01*
X116929Y77312D02*
X117390Y76850D01*
X109910Y89370D02*
X116468D01*
X116929Y88909D01*
X109449D02*
X109910Y89370D01*
X109449Y86049D02*
Y88909D01*
X123228Y74409D02*
Y74744D01*
X148425Y59842D02*
X148689Y59579D01*
X110562Y37520D02*
X111024Y37058D01*
X118504Y33071D02*
X119685Y34252D01*
X104799Y37520D02*
X110562D01*
X110630Y34252D02*
X111024Y34646D01*
Y37058D01*
X103661Y36382D02*
X104799Y37520D01*
X103661Y35945D02*
Y36382D01*
X101969Y34252D02*
X103661Y35945D01*
X87507Y27652D02*
X87717Y27707D01*
X143701Y57087D02*
X146568D01*
X147749Y55905D01*
X148031D01*
X143701Y58661D02*
X147129D01*
X148133Y57657D01*
X143701Y55512D02*
X143760Y55453D01*
X163779Y59646D02*
X168110D01*
X159449D02*
X163779D01*
X146859Y68080D02*
X146980Y68200D01*
X143701Y68110D02*
X146642D01*
X24695Y57974D02*
X30187D01*
X28061Y67223D02*
X36426Y58858D01*
X27684Y71942D02*
X27684Y71942D01*
X20122Y64005D02*
X21518Y67995D01*
X20079Y63779D02*
X20079D01*
Y63780D01*
Y49975D02*
Y63779D01*
X56097Y25540D02*
X58527Y23109D01*
X157283Y171260D02*
X157382Y171358D01*
X152756Y171260D02*
X157283D01*
X160630Y115945D02*
Y122047D01*
X185827Y124477D02*
Y154657D01*
X185365Y124016D02*
X185827Y124477D01*
X162598Y124016D02*
X185365D01*
X160630Y122047D02*
X162598Y124016D01*
X177756Y155118D02*
X185365D01*
X185827Y154657D01*
X174606Y158268D02*
X177756Y155118D01*
X193701Y114635D02*
Y122047D01*
X178740Y115650D02*
Y115945D01*
Y115650D02*
X180217Y114173D01*
X193239D01*
X193701Y114635D01*
Y122047D02*
X196850Y125197D01*
X202756D01*
X184843Y162598D02*
X199606D01*
X180512Y158268D02*
X184843Y162598D01*
X160630Y115945D02*
X165551D01*
X170866Y110630D01*
Y96457D02*
Y110630D01*
X124016Y170374D02*
Y170866D01*
X122539Y168898D02*
X124016Y170374D01*
X120472Y168898D02*
X122539D01*
X96063Y116142D02*
X96457Y116535D01*
X112402Y157874D02*
Y162992D01*
X90945Y158268D02*
X95866D01*
X88661Y126807D02*
Y148346D01*
X84646Y152362D02*
X88661Y148346D01*
X84646Y152362D02*
Y164567D01*
X88661Y168583D02*
Y173307D01*
X84646Y164567D02*
X88661Y168583D01*
X87402Y125547D02*
X88661Y126807D01*
X87402Y117390D02*
X87863Y116929D01*
X87402Y117390D02*
Y125547D01*
X88661Y173307D02*
X92520Y177165D01*
X87863Y116929D02*
X95276D01*
X161024Y87795D02*
X161042Y87777D01*
X164693D01*
X115125Y66765D02*
X115126Y66764D01*
X223628Y39983D02*
X225237Y38374D01*
X219072Y39983D02*
X223628D01*
X213906Y47437D02*
X221011D01*
X207295Y65563D02*
X212558D01*
X143701Y60236D02*
X147475D01*
X115732Y68774D02*
X116227Y68280D01*
X116782Y68051D02*
Y68051D01*
X114200Y69007D02*
X115169Y69007D01*
X110630Y67913D02*
X110630Y67913D01*
X38976Y49606D02*
X46918Y49606D01*
X34371Y49904D02*
X36244D01*
X31519Y47396D02*
Y51085D01*
X28232Y42405D02*
X30315Y44488D01*
X17962Y39476D02*
X21161D01*
X147576Y61634D02*
X147753Y61811D01*
X146125Y61634D02*
X147576D01*
X145948Y61811D02*
X146125Y61634D01*
X143701Y61811D02*
X145948D01*
X143701Y64961D02*
X145948D01*
X143701Y64961D02*
X143701Y64961D01*
X196701Y40700D02*
X199879Y37522D01*
Y37522D02*
X203543D01*
X193068Y37556D02*
X196212Y40700D01*
X196701D01*
X193068Y33310D02*
Y37556D01*
X208661Y42640D02*
Y44142D01*
X206077Y46628D02*
X208095Y44610D01*
X208194D01*
X208661Y44142D01*
X203543Y37522D02*
X208661Y42640D01*
X207190Y37859D02*
X209557D01*
X209557Y37859D01*
X205791Y36459D02*
X207190Y37859D01*
X197005Y36459D02*
X205791D01*
X143701Y69685D02*
X145180D01*
X118051Y59784D02*
X118051D01*
X119895Y60052D02*
X120079Y60236D01*
X118320Y60052D02*
X119895D01*
X118051Y59784D02*
X118320Y60052D01*
X116589Y61417D02*
X117323D01*
X117902Y61997D01*
X118898Y61870D02*
X118957Y61811D01*
X118682Y61870D02*
X118898D01*
X118555Y61997D02*
X118682Y61870D01*
X117902Y61997D02*
X118555D01*
X118957Y61811D02*
X120079D01*
X115339Y64551D02*
X115748Y64961D01*
X114415Y64325D02*
X114641Y64551D01*
X115339D01*
X143701Y68110D02*
X143701Y68110D01*
X199091Y79020D02*
X204331D01*
Y91535D01*
X208661D01*
X36244Y49904D02*
X36811Y50139D01*
X115748Y64961D02*
X120079D01*
X115126Y66764D02*
X115354Y66535D01*
X116782Y68051D02*
X118475D01*
X115354Y66535D02*
X120079D01*
X77627Y40531D02*
X77751Y36927D01*
X71332Y35094D02*
X77106Y36125D01*
X70690Y34452D02*
X70690D01*
X77751Y36927D02*
X77752Y36924D01*
X77551Y42746D02*
X77627Y40549D01*
X77427Y43288D02*
X77524Y42924D01*
X72783Y48083D02*
X77219Y43647D01*
X65756Y28128D02*
X69199Y31572D01*
X152756Y124803D02*
Y153150D01*
X120079Y58661D02*
X120138Y58720D01*
X121683D01*
X122835Y59872D01*
X145472Y158268D02*
Y162992D01*
Y158268D02*
X148721Y155020D01*
X150886D01*
X152756Y153150D01*
X146457Y115551D02*
X147835Y114173D01*
X151575D01*
X154724Y117323D02*
Y154921D01*
X151575Y114173D02*
X154724Y117323D01*
X151378Y158268D02*
X154724Y154921D01*
X151378Y158268D02*
Y162992D01*
X118307Y157874D02*
X119848Y156333D01*
X118898Y116142D02*
X120866Y118110D01*
X114173Y116142D02*
X118898D01*
X118307Y157874D02*
Y162992D01*
X95276Y116929D02*
X96063Y116142D01*
X117323Y166671D02*
Y176704D01*
X116862Y177165D02*
X117323Y176704D01*
X92520Y177165D02*
X116862D01*
X113453Y166209D02*
X116862D01*
X117323Y166671D01*
X112992Y165748D02*
X113453Y166209D01*
X112992Y163583D02*
Y165748D01*
X112402Y162992D02*
X112992Y163583D01*
D27*
X113779Y79724D02*
D03*
Y85630D02*
D03*
X109449Y79724D02*
D03*
Y85630D02*
D03*
X104724Y79724D02*
D03*
Y85630D02*
D03*
X123622Y80905D02*
D03*
Y86811D02*
D03*
X127953D02*
D03*
Y80905D02*
D03*
X132283Y86811D02*
D03*
Y80905D02*
D03*
X136516Y88779D02*
D03*
Y82874D02*
D03*
X141831Y82776D02*
D03*
Y88681D02*
D03*
X146457Y88779D02*
D03*
Y82874D02*
D03*
X159449Y54035D02*
D03*
Y59941D02*
D03*
X163779Y54035D02*
D03*
Y59941D02*
D03*
X168110D02*
D03*
Y54035D02*
D03*
X172441D02*
D03*
Y59941D02*
D03*
Y41339D02*
D03*
Y47244D02*
D03*
X168110Y47244D02*
D03*
Y41339D02*
D03*
X163779Y47244D02*
D03*
Y41339D02*
D03*
X159449Y47244D02*
D03*
Y41339D02*
D03*
X155118Y47244D02*
D03*
Y41339D02*
D03*
X142323Y42323D02*
D03*
Y36417D02*
D03*
X136811Y42224D02*
D03*
Y36319D02*
D03*
X129921D02*
D03*
Y42224D02*
D03*
X119685Y40157D02*
D03*
Y34252D02*
D03*
X115354D02*
D03*
Y40157D02*
D03*
X110630D02*
D03*
Y34252D02*
D03*
X106299D02*
D03*
Y40157D02*
D03*
X101969D02*
D03*
Y34252D02*
D03*
X110039Y52362D02*
D03*
Y46457D02*
D03*
X105709D02*
D03*
Y52362D02*
D03*
X101378D02*
D03*
Y46457D02*
D03*
X97047Y52362D02*
D03*
Y46457D02*
D03*
X92716D02*
D03*
Y52362D02*
D03*
X110630Y67913D02*
D03*
Y62008D02*
D03*
X106299Y67913D02*
D03*
Y62008D02*
D03*
X101969D02*
D03*
Y67913D02*
D03*
X97638Y62008D02*
D03*
Y67913D02*
D03*
X93307D02*
D03*
Y62008D02*
D03*
X75590Y80905D02*
D03*
Y86811D02*
D03*
D28*
X143701Y64961D02*
D03*
Y63386D02*
D03*
Y61811D02*
D03*
Y60236D02*
D03*
Y58661D02*
D03*
Y66535D02*
D03*
Y68110D02*
D03*
Y69685D02*
D03*
Y71260D02*
D03*
Y57087D02*
D03*
Y55512D02*
D03*
Y53937D02*
D03*
X120079D02*
D03*
Y55512D02*
D03*
Y57087D02*
D03*
Y58661D02*
D03*
Y60236D02*
D03*
Y61811D02*
D03*
Y63386D02*
D03*
Y69685D02*
D03*
Y68110D02*
D03*
Y66535D02*
D03*
Y64961D02*
D03*
Y71260D02*
D03*
D29*
X140551Y50787D02*
D03*
X132677D02*
D03*
X134252D02*
D03*
X135827D02*
D03*
X137402D02*
D03*
X138976D02*
D03*
X124803D02*
D03*
X123228D02*
D03*
X126378D02*
D03*
X127953D02*
D03*
X129528D02*
D03*
X131102D02*
D03*
X132677Y74409D02*
D03*
X134252D02*
D03*
X135827D02*
D03*
X137402D02*
D03*
X140551D02*
D03*
X138976D02*
D03*
X124803D02*
D03*
X126378D02*
D03*
X127953D02*
D03*
X129528D02*
D03*
X131102D02*
D03*
X123228D02*
D03*
D30*
X131890Y62598D02*
D03*
D31*
X161024Y92520D02*
D03*
X155118D02*
D03*
X161024Y88189D02*
D03*
X155118D02*
D03*
X161024Y83858D02*
D03*
X155118D02*
D03*
X161024Y79528D02*
D03*
X155118D02*
D03*
X161024Y75197D02*
D03*
X155118D02*
D03*
X161024Y68110D02*
D03*
X155118D02*
D03*
X95866Y158268D02*
D03*
X101772D02*
D03*
Y162992D02*
D03*
X95866D02*
D03*
X112402Y157874D02*
D03*
X118307D02*
D03*
Y162992D02*
D03*
X112402D02*
D03*
X123425Y158071D02*
D03*
X129331D02*
D03*
Y162992D02*
D03*
X123425D02*
D03*
X157283Y163386D02*
D03*
X163189D02*
D03*
X145472Y162992D02*
D03*
X151378D02*
D03*
Y158268D02*
D03*
X145472D02*
D03*
X163189D02*
D03*
X157283D02*
D03*
X174606D02*
D03*
X180512D02*
D03*
Y162992D02*
D03*
X174606D02*
D03*
X212008Y201575D02*
D03*
X206102D02*
D03*
X222638Y201575D02*
D03*
X216732D02*
D03*
X222638Y196850D02*
D03*
X216732D02*
D03*
X201378Y201575D02*
D03*
X195472D02*
D03*
X84842Y187008D02*
D03*
X78937D02*
D03*
Y191732D02*
D03*
X84842D02*
D03*
X78740Y200394D02*
D03*
X84646D02*
D03*
X78937Y196063D02*
D03*
X84842D02*
D03*
X63583Y187008D02*
D03*
X69488D02*
D03*
Y191732D02*
D03*
X63583D02*
D03*
X72638Y200000D02*
D03*
X66732D02*
D03*
X72638Y205512D02*
D03*
X66732D02*
D03*
X81693Y128347D02*
D03*
X75787D02*
D03*
D32*
X180709Y49803D02*
D03*
Y63583D02*
D03*
D33*
X208661Y77756D02*
D03*
Y91535D02*
D03*
D34*
X206077Y46628D02*
D03*
X209557Y37859D02*
D03*
X200787Y41339D02*
D03*
X6522Y235262D02*
D03*
X3042Y244031D02*
D03*
X11811Y240551D02*
D03*
D35*
X197244Y29134D02*
D03*
X193068Y33310D02*
D03*
X201181Y32283D02*
D03*
X197005Y36459D02*
D03*
X250787Y236614D02*
D03*
X246612Y240790D02*
D03*
X247244Y233465D02*
D03*
X243068Y237640D02*
D03*
D36*
X179724Y103937D02*
D03*
X159646D02*
D03*
X147441D02*
D03*
X127362D02*
D03*
X114764D02*
D03*
X94685D02*
D03*
D37*
X96063Y116142D02*
D03*
X114173D02*
D03*
X128347Y115551D02*
D03*
X146457D02*
D03*
X160630Y115945D02*
D03*
X178740D02*
D03*
X157480Y171457D02*
D03*
X175591D02*
D03*
X124016Y170866D02*
D03*
X142126D02*
D03*
X94488D02*
D03*
X112598D02*
D03*
D38*
X105118Y140551D02*
D03*
X137402Y139961D02*
D03*
X169685Y140354D02*
D03*
X166535Y195866D02*
D03*
X133071Y195276D02*
D03*
X103543D02*
D03*
D39*
X232876Y245645D02*
D03*
X241645Y249125D02*
D03*
X238165Y240356D02*
D03*
X24998Y21677D02*
D03*
X16229Y18198D02*
D03*
X19709Y26967D02*
D03*
D40*
X212008Y196850D02*
D03*
X208268Y188189D02*
D03*
X204528Y196850D02*
D03*
D41*
X207872Y227756D02*
D03*
Y210827D02*
D03*
D42*
X84646Y179134D02*
D03*
X75590D02*
D03*
X66536D02*
D03*
D43*
X75590Y154724D02*
D03*
D44*
X-1300Y227833D02*
D03*
X2875Y232009D02*
D03*
X-2243Y237127D02*
D03*
X-6419Y232951D02*
D03*
X33978Y22560D02*
D03*
X29802Y18384D02*
D03*
X21928Y10510D02*
D03*
X26104Y14686D02*
D03*
D45*
X83465Y146063D02*
D03*
Y133465D02*
D03*
X75197D02*
D03*
Y146063D02*
D03*
X66535D02*
D03*
Y133465D02*
D03*
D46*
X41339Y111221D02*
D03*
Y145472D02*
D03*
D47*
X31519Y51085D02*
D03*
X33048Y56789D02*
D03*
X36244Y49904D02*
D03*
X37772Y55608D02*
D03*
D48*
X47402Y167589D02*
D03*
X27402D02*
D03*
D49*
X37402Y208789D02*
D03*
D79*
X21328Y48725D02*
D03*
X24695Y57974D02*
D03*
X28061Y67223D02*
D03*
X31427Y76472D02*
D03*
X17962Y39476D02*
D03*
D90*
X212575Y95536D02*
G03*
X212019Y96642I-1948J-286D01*
G01*
X209449Y100019D02*
G03*
X210025Y98636I1969J9D01*
G01*
X72827Y40376D02*
G03*
X63733Y44158I-9131J-9131D01*
G01*
D02*
G03*
X63696Y44158I-38J-12913D01*
G01*
X55416Y43879D02*
G03*
X53508Y41912I61J-1968D01*
G01*
X63667Y44157D02*
G03*
X63656Y44157I61J-1968D01*
G01*
X212826Y88679D02*
G03*
X213377Y90391I-1392J1392D01*
G01*
X173397Y53740D02*
G03*
X174789Y54317I0J1969D01*
G01*
X-43126Y-59850D02*
G03*
X-36055Y-56921I0J10000D01*
G01*
X18999Y-1867D02*
G03*
X21928Y5204I-7071J7071D01*
G01*
X27577Y20609D02*
G03*
X24998Y21677I-2579J-2579D01*
G01*
X16229Y18198D02*
G03*
X10207Y15703I0J-8517D01*
G01*
X16811Y17615D02*
G03*
X23882Y14686I7071J7071D01*
G01*
X221850Y204106D02*
G03*
X221277Y205494I-1969J0D01*
G01*
X212575Y95536D02*
G03*
X213377Y90391I293301J43060D01*
G01*
X216523Y210248D02*
G03*
X215129Y210827I-1394J-1390D01*
G01*
X74201Y204933D02*
G03*
X72807Y205512I-1394J-1390D01*
G01*
X258042Y240969D02*
G03*
X260155Y242045I-582J3757D01*
G01*
X258037Y240968D02*
G03*
X256951Y240416I306J-1945D01*
G01*
X252334Y236614D02*
G03*
X253726Y237191I0J1969D01*
G01*
X303744Y285634D02*
G03*
X304323Y287028I-1390J1394D01*
G01*
X5691Y240892D02*
G03*
X6239Y241278I-844J1778D01*
G01*
X10828Y245867D02*
G03*
X10786Y248695I-1390J1394D01*
G01*
X-22710Y280198D02*
G03*
X-22970Y280405I-1353J-1430D01*
G01*
X45518Y31890D02*
G03*
X53508Y35199I0J11300D01*
G01*
X7843Y34503D02*
G03*
X9703Y31890I1860J-645D01*
G01*
X22835Y76772D02*
G03*
X22367Y76028I1390J-1393D01*
G01*
X23843Y77780D02*
G03*
X26772Y84851I-7071J7071D01*
G01*
X209449Y100019D02*
Y175984D01*
X195472Y189961D02*
X209449Y175984D01*
X210025Y98636D02*
X212019Y96642D01*
X174789Y54317D02*
X178051Y57579D01*
X194783D01*
X208661Y71457D01*
X63667Y44157D02*
X63696Y44158D01*
X42323Y157874D02*
X43898Y156299D01*
X52756D01*
X33465Y157874D02*
X42323D01*
X208661Y71457D02*
Y77756D01*
Y84514D01*
X53508Y41912D02*
X53508D01*
X55416Y43879D02*
X63656Y44157D01*
X53508Y35199D02*
Y41912D01*
X159449Y53974D02*
X160017Y53405D01*
X159449Y53974D02*
Y54035D01*
X102362Y87853D02*
X102501D01*
X104724Y85630D01*
X109449D01*
X102362Y87853D02*
Y137795D01*
X105118Y140551D01*
X106693Y138976D01*
X93701Y82677D02*
X104724Y71653D01*
X114961D01*
X83071Y93307D02*
X93701Y82677D01*
X106693Y132677D02*
Y138976D01*
X83071Y93307D02*
Y126969D01*
X93307Y67913D02*
Y82284D01*
X176102Y45158D02*
Y46457D01*
X173228D02*
X176102D01*
X172441Y47244D02*
X173228Y46457D01*
X83465Y133268D02*
Y133465D01*
Y128543D02*
Y133268D01*
X81693Y128347D02*
X83071Y126969D01*
X172441Y53740D02*
X173397D01*
X197075Y21822D02*
X289362Y-70465D01*
X201181Y31170D02*
X201996Y30354D01*
Y30354D02*
Y30354D01*
X197075Y23453D02*
X202171Y28549D01*
X201996Y30354D02*
X202171Y30180D01*
Y28549D02*
Y30180D01*
X197075Y21822D02*
Y23453D01*
X201181Y31170D02*
Y32283D01*
X289362Y-70465D02*
X301583D01*
X-67709Y-59850D02*
X-43126D01*
X-36055Y-56921D02*
X18999Y-1867D01*
X21928Y5204D02*
Y10510D01*
X27577Y20609D02*
X29802Y18384D01*
X16229Y18198D02*
X16811Y17615D01*
X23882Y14686D02*
X26104D01*
X7094Y12591D02*
X10207Y15703D01*
X42913Y166535D02*
Y170866D01*
X30315Y183465D02*
X42913Y170866D01*
X14567Y187795D02*
X18898Y183465D01*
X30315D01*
X14567Y187795D02*
Y205118D01*
X1181Y218504D02*
Y225197D01*
Y218504D02*
X14567Y205118D01*
X-1300Y227678D02*
Y227833D01*
Y227678D02*
X1181Y225197D01*
X172441Y48228D02*
Y53740D01*
X221850Y202362D02*
Y204106D01*
X74050Y117289D02*
X75295Y118534D01*
X241645Y249125D02*
X241820D01*
X246612Y240790D02*
Y244333D01*
X241820Y249125D02*
X246612Y244333D01*
X253501Y246858D02*
X254323D01*
X247433Y240790D02*
X253501Y246858D01*
X246612Y240790D02*
X247433D01*
X208661Y84514D02*
X212826Y88679D01*
X195472Y189961D02*
Y201575D01*
X216523Y210248D02*
X221277Y205494D01*
X207872Y210827D02*
X215129D01*
X180512Y158268D02*
Y162992D01*
X174606Y158268D02*
Y162992D01*
X66535Y133465D02*
X75197D01*
Y146063D02*
X83465D01*
X78839Y191831D02*
Y200295D01*
X78543Y191339D02*
X78937Y191732D01*
X75197Y191339D02*
X78543D01*
X78839Y191831D02*
X78937Y191732D01*
X60827Y184252D02*
X63583Y187008D01*
X60630Y184252D02*
X60827D01*
X76657Y202477D02*
X78740Y200394D01*
X72638Y205512D02*
X72807D01*
X74201Y204933D02*
X76657Y202477D01*
X78740Y200394D02*
X78839Y200295D01*
X78150Y186221D02*
X78937Y187008D01*
X78150Y183661D02*
Y186221D01*
X75590Y181102D02*
X78150Y183661D01*
X75590Y179134D02*
Y181102D01*
X250787Y236614D02*
X252334D01*
X258037Y240968D02*
X258042Y240969D01*
X253726Y237191D02*
X256951Y240416D01*
X304323Y287028D02*
Y300401D01*
X260155Y242045D02*
X303744Y285634D01*
X123721Y170571D02*
X124016Y170866D01*
X123425Y158071D02*
X123721Y158366D01*
X157382Y171358D02*
X157480Y171457D01*
X157283Y158268D02*
X157382Y158366D01*
X2875Y232009D02*
X3072D01*
X6325Y235262D01*
X6522D01*
X-3157Y249599D02*
X-2842D01*
X2726Y244031D01*
X3042D01*
X-22019Y243729D02*
X-11811Y253937D01*
X-12873Y232951D02*
X-6419D01*
X-22019Y242098D02*
X-12873Y232951D01*
X-22019Y242098D02*
Y243729D01*
X-4224Y249599D02*
X-3157D01*
X-8563Y253937D02*
X-4224Y249599D01*
X-11811Y253937D02*
X-8563D01*
X-22710Y280198D02*
X10786Y248695D01*
X-2243Y237127D02*
X5691Y240892D01*
X6239Y241278D02*
X10828Y245867D01*
X-22972Y280406D02*
X-22970Y280405D01*
X-61827Y306284D02*
X-22972Y280406D01*
X7845Y34508D02*
X22367Y76028D01*
X7843Y34503D02*
X7845Y34508D01*
X9703Y31890D02*
X45518D01*
X22835Y76772D02*
X23843Y77780D01*
X22835Y76772D02*
X22835Y76772D01*
X26772Y84851D02*
Y151181D01*
X33465Y157874D01*
X84646Y177165D02*
Y179134D01*
X73524Y166043D02*
X84646Y177165D01*
X62500Y166043D02*
X73524D01*
X52756Y156299D02*
X62500Y166043D01*
X75295Y127854D02*
X75787Y128347D01*
X222638Y201575D02*
X223031Y201181D01*
X225984D01*
X221850Y202362D02*
X222638Y201575D01*
X75787Y128347D02*
Y129134D01*
D91*
X125472Y84746D02*
X125888Y84331D01*
X125472Y84746D02*
Y84961D01*
X123622Y86811D02*
X125472Y84961D01*
X125888Y84331D02*
X133404D01*
X135433Y82301D01*
X107835Y42382D02*
X108268Y42815D01*
X113844Y43799D02*
X113878D01*
X112859Y42815D02*
X113844Y43799D01*
X108268Y42815D02*
X112859D01*
X137729Y120650D02*
X138326D01*
X137704Y120675D02*
X137729Y120650D01*
X135512Y118483D02*
X137704Y120675D01*
X135512Y108570D02*
Y118483D01*
X136024Y100492D02*
Y108059D01*
X135512Y108570D02*
X136024Y108059D01*
X136614Y88779D02*
Y91240D01*
X134764Y81024D02*
X136614Y82874D01*
X136516D02*
X136614Y82972D01*
Y85138D01*
X136043Y76075D02*
X140295Y80327D01*
X134468Y76988D02*
X136447Y78966D01*
X140295Y80327D02*
Y81240D01*
X136447Y78966D02*
X136540D01*
X140295Y81240D02*
X140354Y81299D01*
X136043Y74626D02*
Y76075D01*
X140354Y81299D02*
X141732D01*
X130961Y74551D02*
Y76932D01*
X130937Y76955D02*
X130961Y76932D01*
X157265Y111339D02*
X167814D01*
X156988Y111615D02*
Y127657D01*
X168307Y97047D02*
Y110845D01*
X167814Y111339D02*
X168307Y110845D01*
X156988Y111615D02*
X157265Y111339D01*
X156988Y127657D02*
X169685Y140354D01*
X141732Y91043D02*
X142137D01*
X141339D02*
X141732D01*
X141345Y90995D02*
X141634Y88681D01*
X167126Y95866D02*
X168307Y97047D01*
X144685Y95866D02*
X167126D01*
X141732Y91043D02*
Y92913D01*
X144685Y95866D01*
X146953Y91535D02*
X147053Y91635D01*
X142137Y91043D02*
X142629Y91535D01*
X146953D01*
X141339Y91043D02*
X141345Y90995D01*
X151377Y91635D02*
X151870Y91142D01*
X147053Y91635D02*
X151377D01*
X151870Y88287D02*
Y91142D01*
X146457Y82874D02*
X151870Y88287D01*
X135728Y87894D02*
X136614Y88779D01*
X149409Y77756D02*
Y83661D01*
X154096Y87167D02*
X155118Y88189D01*
X152915Y87167D02*
X154096D01*
X149409Y83661D02*
X152915Y87167D01*
X106299Y40157D02*
X107835Y41693D01*
Y42382D01*
X101476Y46358D02*
X101575Y46457D01*
Y49034D01*
X97324Y49311D02*
X101298D01*
X101575Y49034D01*
X97047Y49588D02*
Y52362D01*
Y49588D02*
X97324Y49311D01*
X105709Y52362D02*
X110039D01*
X101378D02*
X105709D01*
X154921Y75000D02*
X155118Y75197D01*
X151378Y75000D02*
X154921D01*
X144862Y73209D02*
X149409Y77756D01*
X117795Y54350D02*
Y54551D01*
X117087Y53642D02*
X117795Y54350D01*
Y54551D02*
X118343Y55098D01*
X115100Y53642D02*
X117087D01*
X118343Y55098D02*
X118543D01*
X118957Y55512D01*
X120079D01*
X130961Y74551D02*
X131102Y74409D01*
X132283Y86811D02*
X133366Y87894D01*
X135728D01*
X146320Y82344D02*
X146457Y82480D01*
X139937Y76693D02*
X142342D01*
X146320Y80670D02*
Y82344D01*
X142342Y76693D02*
X146320Y80670D01*
X144921Y84409D02*
X146457Y82874D01*
X144527Y84409D02*
X144921D01*
X141634Y88681D02*
X142713Y87602D01*
X139193Y75948D02*
X139937Y76693D01*
X138976Y74409D02*
X139193Y74626D01*
Y75948D01*
X140847Y71653D02*
X142402Y73209D01*
X144862D01*
X137402Y74409D02*
Y75532D01*
X137815Y75945D01*
Y76145D01*
X139828Y78159D01*
X140560D01*
X140847Y78445D01*
X134252Y74409D02*
X134468Y74626D01*
Y76988D01*
X134487Y78425D02*
X134764Y78702D01*
X132954Y78425D02*
X134487D01*
X134764Y78702D02*
Y81024D01*
X137402Y73287D02*
Y74409D01*
X135827D02*
X136043Y74626D01*
X128446Y71653D02*
X140847D01*
X132677Y78148D02*
X132954Y78425D01*
X132677Y74409D02*
Y78148D01*
X128169Y71930D02*
Y74193D01*
Y71930D02*
X128446Y71653D01*
X127953Y74409D02*
X128169Y74193D01*
D92*
X127215Y96309D02*
X127264Y94980D01*
Y103839D01*
X127362Y103937D01*
X161811Y196063D02*
X176575Y210827D01*
X103543Y195276D02*
Y195472D01*
X207872Y227756D02*
Y228150D01*
X208463Y228741D01*
X220982D01*
X224525Y232283D01*
X225590D01*
X176575Y210827D02*
X207872D01*
X61845Y117289D02*
X74050D01*
X41339Y137795D02*
X61845Y117289D01*
X41339Y137795D02*
Y145472D01*
D93*
X205906Y26529D02*
Y34208D01*
X209557Y37859D01*
X206291Y23662D02*
X207496Y22456D01*
X206291Y23662D02*
Y26144D01*
X205906Y26529D02*
X206291Y26144D01*
D94*
X27165Y167825D02*
Y175984D01*
X41339Y150000D02*
X42913Y151575D01*
X72638Y200000D02*
X72835Y199803D01*
Y196457D02*
Y199803D01*
X47835Y168022D02*
Y178255D01*
X61312Y191732D01*
X63583D01*
X47402Y167589D02*
X47835Y168022D01*
X27165Y167825D02*
X27402Y167589D01*
X69488Y187008D02*
Y191732D01*
Y184055D02*
Y187008D01*
X66536Y179134D02*
Y181102D01*
X69488Y184055D01*
X75295Y118534D02*
Y127854D01*
X41339Y145472D02*
Y150000D01*
X50000Y98032D02*
X74803D01*
X41339Y106693D02*
X50000Y98032D01*
X41339Y106693D02*
Y111221D01*
D95*
X60630Y179134D02*
X66536Y179134D01*
D96*
X82087Y133465D02*
X83465D01*
X81890Y133268D02*
X82087Y133465D01*
X81890Y128543D02*
Y133268D01*
X81693Y128347D02*
X81890Y128543D01*
D97*
X216785Y56500D02*
D03*
X212558Y65563D02*
D03*
X221011Y47437D02*
D03*
X207496Y22456D02*
D03*
X183281Y24282D02*
D03*
X173622Y26870D02*
D03*
X254323Y246858D02*
D03*
X-3157Y249599D02*
D03*
X81208Y53656D02*
D03*
X72827Y40376D02*
D03*
X85074Y33305D02*
D03*
X75415Y30716D02*
D03*
X65756Y28128D02*
D03*
X63168Y37788D02*
D03*
X56097Y25540D02*
D03*
X53508Y35199D02*
D03*
X7094Y12591D02*
D03*
X88976Y109843D02*
D03*
D98*
X225237Y38374D02*
D03*
D99*
X214567Y29528D02*
D03*
X-10228Y242528D02*
D03*
D100*
X163963Y29458D02*
D03*
D101*
X304323Y300401D02*
D03*
X297252Y307472D02*
D03*
X-61827Y306284D02*
D03*
X-68898Y299213D02*
D03*
X-67709Y-59850D02*
D03*
X-60638Y-66921D02*
D03*
X301583Y-70465D02*
D03*
X308654Y-63394D02*
D03*
D102*
X247252Y253929D02*
D03*
X14165Y5520D02*
D03*
D103*
X34794Y85721D02*
D03*
D104*
X71548Y51068D02*
D03*
X82486Y42964D02*
D03*
D105*
X199091Y79020D02*
D03*
D106*
X189091D02*
D03*
X199091Y89020D02*
D03*
X189091D02*
D03*
X199091Y99020D02*
D03*
X189091D02*
D03*
X199091Y109020D02*
D03*
X189091D02*
D03*
X199091Y119020D02*
D03*
X189091D02*
D03*
D107*
X142126Y112992D02*
D03*
X127215Y96309D02*
D03*
X136221Y153150D02*
D03*
X111417Y132677D02*
D03*
X194882Y132283D02*
D03*
X74803Y98032D02*
D03*
Y116535D02*
D03*
X225590Y232283D02*
D03*
X194488Y171653D02*
D03*
Y153543D02*
D03*
X225590Y213386D02*
D03*
D108*
X30709Y59941D02*
D03*
X155118Y37402D02*
D03*
X158661Y32874D02*
D03*
X180807Y45374D02*
D03*
X179019Y40463D02*
D03*
X177756Y33445D02*
D03*
X185335Y54823D02*
D03*
X186535Y36295D02*
D03*
X185925Y67126D02*
D03*
X169488Y74410D02*
D03*
X174902Y79134D02*
D03*
X196063Y113878D02*
D03*
X57972Y155413D02*
D03*
X203346Y145669D02*
D03*
X168898Y119390D02*
D03*
X190847Y71063D02*
D03*
X33990Y41258D02*
D03*
X61614Y58760D02*
D03*
X188484Y18996D02*
D03*
X94468Y42815D02*
D03*
X97973D02*
D03*
X129053Y30925D02*
D03*
X144587Y29429D02*
D03*
X98032Y40236D02*
D03*
X101969Y60374D02*
D03*
X86319Y59252D02*
D03*
X119685Y47835D02*
D03*
X114066Y53561D02*
D03*
X114261Y55994D02*
D03*
X114173Y51122D02*
D03*
X116535Y58268D02*
D03*
X132925Y47453D02*
D03*
X232509Y5362D02*
D03*
X183932Y41654D02*
D03*
X105348Y44751D02*
D03*
X125197Y42421D02*
D03*
X-11909Y-6004D02*
D03*
X126969Y82579D02*
D03*
X172244Y87303D02*
D03*
X200952Y71509D02*
D03*
X93799Y62697D02*
D03*
X44094Y59449D02*
D03*
X172146Y75886D02*
D03*
X178543Y81890D02*
D03*
X116382Y91945D02*
D03*
X136122Y58268D02*
D03*
X132972Y58169D02*
D03*
X129921D02*
D03*
X126083Y57972D02*
D03*
X136221Y62106D02*
D03*
X132661Y61972D02*
D03*
X129669D02*
D03*
X126181Y62008D02*
D03*
X136516Y65748D02*
D03*
X132878Y66049D02*
D03*
X130020Y65551D02*
D03*
X126378D02*
D03*
X136319Y68996D02*
D03*
X132874D02*
D03*
X129724Y68898D02*
D03*
X126378Y68996D02*
D03*
X148150Y68368D02*
D03*
X22047Y27854D02*
D03*
X90551Y52264D02*
D03*
X22933Y225295D02*
D03*
X198819Y43110D02*
D03*
X168110Y50492D02*
D03*
X96315Y88541D02*
D03*
X98875Y82217D02*
D03*
X89764Y80905D02*
D03*
X108465Y59941D02*
D03*
X109350Y44783D02*
D03*
X97785Y71933D02*
D03*
X143761Y48248D02*
D03*
X142520Y44390D02*
D03*
X141831Y50098D02*
D03*
X190748Y52067D02*
D03*
X193396Y60174D02*
D03*
X189075Y67716D02*
D03*
X195571Y66831D02*
D03*
X183465Y72342D02*
D03*
X177165Y74803D02*
D03*
X156890Y62402D02*
D03*
X152854Y55709D02*
D03*
X152694Y60945D02*
D03*
X149724Y57776D02*
D03*
X160736Y64865D02*
D03*
X165523Y68504D02*
D03*
X132185Y120669D02*
D03*
X138326Y120650D02*
D03*
X136024Y100492D02*
D03*
X136614Y91240D02*
D03*
X127165Y121653D02*
D03*
X153150Y83071D02*
D03*
X96780Y124391D02*
D03*
X136540Y78966D02*
D03*
X136614Y85138D02*
D03*
X130937Y76955D02*
D03*
X147835Y93898D02*
D03*
X141732Y91043D02*
D03*
X150134Y28588D02*
D03*
X138681Y28937D02*
D03*
X121260Y152067D02*
D03*
X152756Y171260D02*
D03*
X59744Y76378D02*
D03*
X46457Y54134D02*
D03*
X29626Y26870D02*
D03*
X149350Y41636D02*
D03*
X160017Y53405D02*
D03*
X149409Y38386D02*
D03*
X163091Y50591D02*
D03*
X186909Y60925D02*
D03*
X145768Y52165D02*
D03*
X85138Y77165D02*
D03*
X84055Y63090D02*
D03*
X95415Y40360D02*
D03*
X127461Y47244D02*
D03*
X147638Y33366D02*
D03*
X153150Y46063D02*
D03*
X134449Y41831D02*
D03*
X139764Y46457D02*
D03*
X136516Y45965D02*
D03*
X113878Y43799D02*
D03*
X101476Y43996D02*
D03*
X151378Y75000D02*
D03*
X151476Y79626D02*
D03*
X149705Y88779D02*
D03*
X112894Y76968D02*
D03*
X113996Y67154D02*
D03*
X120420Y73228D02*
D03*
X140847Y78445D02*
D03*
X142028Y74902D02*
D03*
X152756Y69291D02*
D03*
X161811Y74803D02*
D03*
X164370Y79528D02*
D03*
X176102Y45158D02*
D03*
X148031Y55905D02*
D03*
X174803Y63386D02*
D03*
X165087Y82659D02*
D03*
X164693Y87777D02*
D03*
X165087Y92502D02*
D03*
X114415Y64325D02*
D03*
X148031Y70866D02*
D03*
X148425Y59842D02*
D03*
X146850Y63386D02*
D03*
X200000Y194488D02*
D03*
X244094Y231496D02*
D03*
X1181Y225197D02*
D03*
X42913Y166535D02*
D03*
X75197Y191339D02*
D03*
X60630Y184252D02*
D03*
X72835Y196457D02*
D03*
X225984Y201181D02*
D03*
D109*
X120472Y168898D02*
D03*
X90945Y158268D02*
D03*
X60630Y179134D02*
D03*
X27559Y172047D02*
D03*
X61417Y199606D02*
D03*
X41339Y153150D02*
D03*
D110*
X-27559Y266142D02*
D03*
X264961D02*
D03*
Y-26772D02*
D03*
X-27559D02*
D03*
M02*
