G04*
G04 #@! TF.GenerationSoftware,Altium Limited,Altium Designer,21.0.8 (223)*
G04*
G04 Layer_Color=255*
%FSLAX25Y25*%
%MOIN*%
G70*
G04*
G04 #@! TF.SameCoordinates,8682EA25-DCF7-411F-8805-334446643B85*
G04*
G04*
G04 #@! TF.FilePolarity,Positive*
G04*
G01*
G75*
%ADD48R,0.07874X0.07874*%
%ADD49C,0.07874*%
%ADD50C,0.07087*%
%ADD51R,0.07087X0.07087*%
%ADD52R,0.07874X0.07874*%
G04:AMPARAMS|DCode=53|XSize=55.12mil|YSize=19.68mil|CornerRadius=4.92mil|HoleSize=0mil|Usage=FLASHONLY|Rotation=0.000|XOffset=0mil|YOffset=0mil|HoleType=Round|Shape=RoundedRectangle|*
%AMROUNDEDRECTD53*
21,1,0.05512,0.00984,0,0,0.0*
21,1,0.04528,0.01968,0,0,0.0*
1,1,0.00984,0.02264,-0.00492*
1,1,0.00984,-0.02264,-0.00492*
1,1,0.00984,-0.02264,0.00492*
1,1,0.00984,0.02264,0.00492*
%
%ADD53ROUNDEDRECTD53*%
%ADD54R,0.03937X0.03937*%
%ADD55C,0.03937*%
%ADD56R,0.03937X0.03937*%
D48*
X10827Y73917D02*
D03*
X134252Y33957D02*
D03*
D49*
X10827Y64075D02*
D03*
Y54232D02*
D03*
Y44390D02*
D03*
X113779Y135433D02*
D03*
X51181Y135236D02*
D03*
X134252Y53642D02*
D03*
Y43799D02*
D03*
X113386Y16634D02*
D03*
X123228D02*
D03*
X133071D02*
D03*
X82480Y16240D02*
D03*
X73032Y135433D02*
D03*
X50787Y16634D02*
D03*
X21260D02*
D03*
X31102D02*
D03*
X40945D02*
D03*
D50*
X133858Y105217D02*
D03*
Y95374D02*
D03*
Y85532D02*
D03*
Y115059D02*
D03*
Y124902D02*
D03*
Y134744D02*
D03*
D51*
Y75689D02*
D03*
D52*
X103937Y135433D02*
D03*
X41339Y135236D02*
D03*
X103543Y16634D02*
D03*
X72638Y16240D02*
D03*
X82874Y135433D02*
D03*
X11417Y16634D02*
D03*
D53*
X6416Y138573D02*
D03*
X21377D02*
D03*
Y104557D02*
D03*
X6416D02*
D03*
D54*
X50098Y36024D02*
D03*
D55*
Y43898D02*
D03*
X51968Y63386D02*
D03*
D56*
X44094D02*
D03*
M02*
