G04*
G04 #@! TF.GenerationSoftware,Altium Limited,Altium Designer,21.0.8 (223)*
G04*
G04 Layer_Color=128*
%FSLAX25Y25*%
%MOIN*%
G70*
G04*
G04 #@! TF.SameCoordinates,8682EA25-DCF7-411F-8805-334446643B85*
G04*
G04*
G04 #@! TF.FilePolarity,Positive*
G04*
G01*
G75*
%ADD59C,0.00200*%
D59*
X8858Y73917D02*
X12795D01*
X10827Y71949D02*
Y75886D01*
X8858Y64075D02*
X12795D01*
X10827Y62106D02*
Y66043D01*
X8858Y54232D02*
X12795D01*
X10827Y52264D02*
Y56201D01*
X8858Y44390D02*
X12795D01*
X10827Y42421D02*
Y46358D01*
X131890Y105217D02*
X135827D01*
X133858Y103248D02*
Y107185D01*
X131890Y95374D02*
X135827D01*
X133858Y93405D02*
Y97342D01*
X131890Y85532D02*
X135827D01*
X133858Y83563D02*
Y87500D01*
X131890Y75689D02*
X135827D01*
X133858Y73721D02*
Y77658D01*
X131890Y115059D02*
X135827D01*
X133858Y113091D02*
Y117028D01*
X131890Y124902D02*
X135827D01*
X133858Y122933D02*
Y126870D01*
X131890Y134744D02*
X135827D01*
X133858Y132776D02*
Y136713D01*
X111811Y135433D02*
X115748D01*
X113779Y133465D02*
Y137402D01*
X101969Y135433D02*
X105905D01*
X103937Y133465D02*
Y137402D01*
X5432Y138573D02*
X7401D01*
X6416Y137589D02*
Y139557D01*
X20393Y138573D02*
X22361D01*
X21377Y137589D02*
Y139557D01*
X20393Y104557D02*
X22361D01*
X21377Y103573D02*
Y105542D01*
X5432Y104557D02*
X7401D01*
X6416Y103573D02*
Y105542D01*
X49213Y135236D02*
X53150D01*
X51181Y133268D02*
Y137205D01*
X39370Y135236D02*
X43307D01*
X41339Y133268D02*
Y137205D01*
X132283Y53642D02*
X136221D01*
X134252Y51673D02*
Y55610D01*
X132283Y43799D02*
X136221D01*
X134252Y41831D02*
Y45768D01*
X132283Y33957D02*
X136221D01*
X134252Y31988D02*
Y35925D01*
X101575Y16634D02*
X105512D01*
X103543Y14665D02*
Y18602D01*
X111417Y16634D02*
X115354D01*
X113386Y14665D02*
Y18602D01*
X121260Y16634D02*
X125197D01*
X123228Y14665D02*
Y18602D01*
X131102Y16634D02*
X135039D01*
X133071Y14665D02*
Y18602D01*
X70669Y16240D02*
X74606D01*
X72638Y14272D02*
Y18209D01*
X80512Y16240D02*
X84449D01*
X82480Y14272D02*
Y18209D01*
X71063Y135433D02*
X75000D01*
X73032Y133465D02*
Y137402D01*
X80905Y135433D02*
X84842D01*
X82874Y133465D02*
Y137402D01*
X48819Y16634D02*
X52756D01*
X50787Y14665D02*
Y18602D01*
X9449Y16634D02*
X13386D01*
X11417Y14665D02*
Y18602D01*
X19291Y16634D02*
X23228D01*
X21260Y14665D02*
Y18602D01*
X29134Y16634D02*
X33071D01*
X31102Y14665D02*
Y18602D01*
X38976Y16634D02*
X42913D01*
X40945Y14665D02*
Y18602D01*
X49114Y36024D02*
X51083D01*
X50098Y35039D02*
Y37008D01*
X49114Y43898D02*
X51083D01*
X50098Y42913D02*
Y44882D01*
X50984Y63386D02*
X52953D01*
X51968Y62402D02*
Y64370D01*
X43110Y63386D02*
X45079D01*
X44094Y62402D02*
Y64370D01*
X11986Y137106D02*
X14786D01*
X13386Y135706D02*
Y138506D01*
X79035Y35531D02*
X80216D01*
X79626Y34941D02*
Y36122D01*
X103002Y99065D02*
X104183D01*
X103593Y98474D02*
Y99655D01*
X65600Y59597D02*
X66782D01*
X66191Y59006D02*
Y60187D01*
X94488Y52264D02*
X95669D01*
X95079Y51673D02*
Y52854D01*
X106496Y76378D02*
X107677D01*
X107087Y75787D02*
Y76968D01*
X103347Y101969D02*
X104528D01*
X103937Y101378D02*
Y102559D01*
X65748Y27165D02*
X66929D01*
X66339Y26575D02*
Y27756D01*
X102165Y94095D02*
X103347D01*
X102756Y93504D02*
Y94685D01*
X87317Y98313D02*
X88498D01*
X87908Y97722D02*
Y98903D01*
X117717Y25591D02*
X118898D01*
X118307Y25000D02*
Y26181D01*
X118701Y9449D02*
X119882D01*
X119291Y8858D02*
Y10039D01*
M02*
