M48
;Layer_Color=9474304
;FILE_FORMAT=2:5
INCH,LZ
;TYPE=PLATED
T1F00S00C0.01181
T2F00S00C0.01968
T4F00S00C0.02800
T5F00S00C0.03937
%
T01
X0066339Y0027165
X0079626Y0035531
X0095079Y0052264
X0066191Y0059597
X0118307Y0025591
X0119291Y0009449
X0107087Y0076378
X0102756Y0094095
X0103593Y0099065
X0103937Y0101969
X0087908Y0098313
T02
X0050098Y0036024
Y0043898
X0051968Y0063386
X0044094
T04
X0013386Y0137106
T05
X0011417Y0016634
X002126
X0031102
X0040945
X0050787
X0072638Y001624
X008248
X0103543Y0016634
X0010827Y004439
Y0054232
X0134252Y0053642
Y0043799
Y0033957
X0133071Y0016634
X0123228
X0113386
X0133858Y0075689
Y0085532
Y0095374
Y0105217
Y0115059
Y0124902
Y0134744
X0113779Y0135433
X0103937
X0082874
X0073032
X0051181Y0135236
X0041339
X0010827Y0073917
Y0064075
M30
