G04*
G04 #@! TF.GenerationSoftware,Altium Limited,Altium Designer,21.0.8 (223)*
G04*
G04 Layer_Color=16711935*
%FSLAX25Y25*%
%MOIN*%
G70*
G04*
G04 #@! TF.SameCoordinates,8682EA25-DCF7-411F-8805-334446643B85*
G04*
G04*
G04 #@! TF.FilePolarity,Negative*
G04*
G01*
G75*
%ADD36R,0.08674X0.08674*%
%ADD37C,0.08674*%
%ADD38C,0.07887*%
%ADD39R,0.07887X0.07887*%
%ADD40R,0.08674X0.08674*%
G04:AMPARAMS|DCode=41|XSize=63.12mil|YSize=27.69mil|CornerRadius=8.92mil|HoleSize=0mil|Usage=FLASHONLY|Rotation=0.000|XOffset=0mil|YOffset=0mil|HoleType=Round|Shape=RoundedRectangle|*
%AMROUNDEDRECTD41*
21,1,0.06312,0.00984,0,0,0.0*
21,1,0.04528,0.02769,0,0,0.0*
1,1,0.01784,0.02264,-0.00492*
1,1,0.01784,-0.02264,-0.00492*
1,1,0.01784,-0.02264,0.00492*
1,1,0.01784,0.02264,0.00492*
%
%ADD41ROUNDEDRECTD41*%
%ADD42R,0.04737X0.04737*%
%ADD43C,0.04737*%
%ADD44R,0.04737X0.04737*%
%ADD45C,0.02769*%
%ADD46C,0.03162*%
D36*
X10827Y73917D02*
D03*
X134252Y33957D02*
D03*
D37*
X10827Y64075D02*
D03*
Y54232D02*
D03*
Y44390D02*
D03*
X113779Y135433D02*
D03*
X51181Y135236D02*
D03*
X134252Y53642D02*
D03*
Y43799D02*
D03*
X113386Y16634D02*
D03*
X123228D02*
D03*
X133071D02*
D03*
X82480Y16240D02*
D03*
X73032Y135433D02*
D03*
X50787Y16634D02*
D03*
X21260D02*
D03*
X31102D02*
D03*
X40945D02*
D03*
D38*
X133858Y105217D02*
D03*
Y95374D02*
D03*
Y85532D02*
D03*
Y115059D02*
D03*
Y124902D02*
D03*
Y134744D02*
D03*
D39*
Y75689D02*
D03*
D40*
X103937Y135433D02*
D03*
X41339Y135236D02*
D03*
X103543Y16634D02*
D03*
X72638Y16240D02*
D03*
X82874Y135433D02*
D03*
X11417Y16634D02*
D03*
D41*
X6416Y138573D02*
D03*
X21377D02*
D03*
Y104557D02*
D03*
X6416D02*
D03*
D42*
X50098Y36024D02*
D03*
D43*
Y43898D02*
D03*
X51968Y63386D02*
D03*
D44*
X44094D02*
D03*
D45*
X79626Y35531D02*
D03*
X103593Y99065D02*
D03*
X66191Y59597D02*
D03*
X95079Y52264D02*
D03*
X107087Y76378D02*
D03*
X103937Y101969D02*
D03*
X66339Y27165D02*
D03*
X102756Y94095D02*
D03*
X87908Y98313D02*
D03*
D46*
X118307Y25591D02*
D03*
X119291Y9449D02*
D03*
M02*
