G04*
G04 #@! TF.GenerationSoftware,Altium Limited,Altium Designer,21.0.8 (223)*
G04*
G04 Layer_Color=32896*
%FSLAX25Y25*%
%MOIN*%
G70*
G04*
G04 #@! TF.SameCoordinates,8682EA25-DCF7-411F-8805-334446643B85*
G04*
G04*
G04 #@! TF.FilePolarity,Positive*
G04*
G01*
G75*
%ADD14C,0.01000*%
%ADD17C,0.00500*%
%ADD18C,0.00394*%
%ADD47C,0.01968*%
G36*
X51947Y83250D02*
X51886Y83127D01*
X51793Y83166D01*
X51709Y83189D01*
X51640Y83212D01*
X51578Y83220D01*
X51525Y83227D01*
X51486Y83235D01*
X51456D01*
X51379Y83227D01*
X51317Y83204D01*
X51279Y83181D01*
X51264Y83174D01*
X51210Y83127D01*
X51171Y83081D01*
X51156Y83051D01*
X51148Y83043D01*
Y83035D01*
X51133Y82997D01*
X51125Y82943D01*
X51118Y82874D01*
Y82805D01*
X51110Y82744D01*
Y82690D01*
Y82651D01*
Y82636D01*
Y80194D01*
Y80109D01*
Y80040D01*
X51118Y79909D01*
X51125Y79810D01*
X51133Y79733D01*
X51141Y79679D01*
X51148Y79641D01*
X51156Y79625D01*
Y79618D01*
X51179Y79579D01*
X51202Y79541D01*
X51264Y79479D01*
X51310Y79449D01*
X51325Y79433D01*
X51333D01*
X51386Y79410D01*
X51456Y79395D01*
X51594Y79372D01*
X51663D01*
X51717Y79364D01*
X51886D01*
Y79241D01*
X49413D01*
Y79364D01*
X49612D01*
X49697Y79372D01*
X49758Y79387D01*
X49820Y79403D01*
X49858Y79410D01*
X49889Y79426D01*
X49904Y79433D01*
X49912D01*
X49950Y79464D01*
X49989Y79495D01*
X50035Y79564D01*
X50065Y79610D01*
X50073Y79625D01*
Y79633D01*
X50081Y79694D01*
X50089Y79771D01*
X50096Y79864D01*
Y79963D01*
X50104Y80048D01*
Y80125D01*
Y80155D01*
Y80178D01*
Y80186D01*
Y80194D01*
Y84041D01*
X50219D01*
X51947Y83250D01*
D02*
G37*
G36*
X46617D02*
X46556Y83127D01*
X46464Y83166D01*
X46379Y83189D01*
X46310Y83212D01*
X46248Y83220D01*
X46195Y83227D01*
X46156Y83235D01*
X46126D01*
X46049Y83227D01*
X45987Y83204D01*
X45949Y83181D01*
X45934Y83174D01*
X45880Y83127D01*
X45842Y83081D01*
X45826Y83051D01*
X45818Y83043D01*
Y83035D01*
X45803Y82997D01*
X45795Y82943D01*
X45788Y82874D01*
Y82805D01*
X45780Y82744D01*
Y82690D01*
Y82651D01*
Y82636D01*
Y80194D01*
Y80109D01*
Y80040D01*
X45788Y79909D01*
X45795Y79810D01*
X45803Y79733D01*
X45811Y79679D01*
X45818Y79641D01*
X45826Y79625D01*
Y79618D01*
X45849Y79579D01*
X45872Y79541D01*
X45934Y79479D01*
X45980Y79449D01*
X45995Y79433D01*
X46003D01*
X46057Y79410D01*
X46126Y79395D01*
X46264Y79372D01*
X46333D01*
X46387Y79364D01*
X46556D01*
Y79241D01*
X44083D01*
Y79364D01*
X44282D01*
X44367Y79372D01*
X44428Y79387D01*
X44490Y79403D01*
X44528Y79410D01*
X44559Y79426D01*
X44574Y79433D01*
X44582D01*
X44620Y79464D01*
X44659Y79495D01*
X44705Y79564D01*
X44736Y79610D01*
X44743Y79625D01*
Y79633D01*
X44751Y79694D01*
X44759Y79771D01*
X44766Y79864D01*
Y79963D01*
X44774Y80048D01*
Y80125D01*
Y80155D01*
Y80178D01*
Y80186D01*
Y80194D01*
Y84041D01*
X44889D01*
X46617Y83250D01*
D02*
G37*
G36*
X57492Y83826D02*
X57400Y83811D01*
X57323Y83788D01*
X57254Y83757D01*
X57208Y83734D01*
X57170Y83704D01*
X57146Y83688D01*
X57131Y83673D01*
X57123Y83665D01*
X57100Y83634D01*
X57077Y83596D01*
X57047Y83550D01*
X57024Y83496D01*
X56954Y83365D01*
X56893Y83227D01*
X56832Y83097D01*
X56801Y83035D01*
X56778Y82981D01*
X56762Y82936D01*
X56747Y82905D01*
X56732Y82882D01*
Y82874D01*
X55127Y79134D01*
X55004D01*
X53383Y82728D01*
X53329Y82843D01*
X53283Y82951D01*
X53237Y83043D01*
X53199Y83127D01*
X53161Y83204D01*
X53122Y83273D01*
X53091Y83327D01*
X53061Y83381D01*
X53015Y83458D01*
X52984Y83512D01*
X52961Y83542D01*
X52953Y83550D01*
X52876Y83627D01*
X52800Y83688D01*
X52723Y83742D01*
X52646Y83773D01*
X52584Y83803D01*
X52538Y83819D01*
X52500Y83826D01*
X52492D01*
Y83949D01*
X54036D01*
Y83826D01*
X53952D01*
X53867Y83819D01*
X53798Y83811D01*
X53744Y83796D01*
X53698Y83788D01*
X53667Y83773D01*
X53644Y83765D01*
X53637D01*
X53568Y83727D01*
X53514Y83680D01*
X53483Y83650D01*
X53475Y83642D01*
Y83634D01*
X53445Y83573D01*
X53429Y83519D01*
X53422Y83473D01*
Y83465D01*
Y83458D01*
X53429Y83381D01*
X53437Y83312D01*
X53445Y83281D01*
X53452Y83258D01*
X53460Y83243D01*
Y83235D01*
X53483Y83174D01*
X53506Y83104D01*
X53544Y83020D01*
X53575Y82936D01*
X53614Y82851D01*
X53637Y82789D01*
X53660Y82744D01*
X53667Y82736D01*
Y82728D01*
X54589Y80639D01*
X55595Y82981D01*
X55649Y83112D01*
X55695Y83212D01*
X55726Y83296D01*
X55749Y83350D01*
X55772Y83396D01*
X55779Y83427D01*
X55787Y83435D01*
Y83442D01*
X55802Y83504D01*
X55810Y83550D01*
Y83581D01*
Y83588D01*
X55795Y83657D01*
X55772Y83704D01*
X55749Y83734D01*
X55733Y83742D01*
X55680Y83773D01*
X55618Y83788D01*
X55480Y83819D01*
X55411D01*
X55357Y83826D01*
X55234D01*
Y83949D01*
X57492D01*
Y83826D01*
D02*
G37*
G36*
X48061Y80294D02*
X48138Y80270D01*
X48207Y80247D01*
X48268Y80217D01*
X48314Y80178D01*
X48353Y80155D01*
X48376Y80132D01*
X48384Y80125D01*
X48437Y80055D01*
X48476Y79986D01*
X48506Y79925D01*
X48522Y79856D01*
X48537Y79802D01*
X48545Y79756D01*
Y79725D01*
Y79717D01*
X48537Y79633D01*
X48522Y79556D01*
X48491Y79487D01*
X48460Y79426D01*
X48437Y79380D01*
X48407Y79341D01*
X48391Y79318D01*
X48384Y79311D01*
X48314Y79257D01*
X48245Y79218D01*
X48184Y79188D01*
X48115Y79172D01*
X48061Y79157D01*
X48015Y79149D01*
X47976D01*
X47892Y79157D01*
X47815Y79172D01*
X47746Y79203D01*
X47685Y79234D01*
X47639Y79257D01*
X47600Y79287D01*
X47577Y79303D01*
X47570Y79311D01*
X47508Y79380D01*
X47470Y79449D01*
X47439Y79510D01*
X47416Y79579D01*
X47401Y79633D01*
X47393Y79679D01*
Y79710D01*
Y79717D01*
X47401Y79802D01*
X47416Y79879D01*
X47447Y79948D01*
X47477Y80009D01*
X47508Y80055D01*
X47539Y80094D01*
X47554Y80117D01*
X47562Y80125D01*
X47631Y80186D01*
X47700Y80224D01*
X47769Y80255D01*
X47831Y80278D01*
X47892Y80294D01*
X47938Y80301D01*
X47976D01*
X48061Y80294D01*
D02*
G37*
G36*
X89669Y91317D02*
X89746Y91302D01*
X89807Y91271D01*
X89861Y91248D01*
X89907Y91217D01*
X89938Y91187D01*
X89961Y91171D01*
X89969Y91164D01*
X90022Y91102D01*
X90061Y91033D01*
X90084Y90972D01*
X90099Y90910D01*
X90114Y90856D01*
X90122Y90818D01*
Y90787D01*
Y90780D01*
X90114Y90703D01*
X90099Y90626D01*
X90076Y90565D01*
X90045Y90511D01*
X90015Y90465D01*
X89992Y90434D01*
X89976Y90411D01*
X89969Y90403D01*
X89907Y90350D01*
X89846Y90311D01*
X89784Y90288D01*
X89723Y90273D01*
X89669Y90257D01*
X89631Y90250D01*
X89592D01*
X89508Y90257D01*
X89439Y90273D01*
X89369Y90296D01*
X89316Y90326D01*
X89270Y90357D01*
X89239Y90380D01*
X89216Y90396D01*
X89208Y90403D01*
X89154Y90465D01*
X89116Y90526D01*
X89085Y90588D01*
X89070Y90649D01*
X89055Y90703D01*
X89047Y90741D01*
Y90772D01*
Y90780D01*
X89055Y90864D01*
X89070Y90933D01*
X89101Y91002D01*
X89124Y91056D01*
X89154Y91102D01*
X89185Y91133D01*
X89201Y91156D01*
X89208Y91164D01*
X89270Y91217D01*
X89331Y91256D01*
X89400Y91286D01*
X89454Y91302D01*
X89508Y91317D01*
X89554Y91325D01*
X89592D01*
X89669Y91317D01*
D02*
G37*
G36*
X54541Y91317D02*
X54618Y91302D01*
X54679Y91271D01*
X54733Y91248D01*
X54779Y91217D01*
X54809Y91187D01*
X54833Y91171D01*
X54840Y91163D01*
X54894Y91102D01*
X54932Y91033D01*
X54955Y90972D01*
X54971Y90910D01*
X54986Y90856D01*
X54994Y90818D01*
Y90787D01*
Y90780D01*
X54986Y90703D01*
X54971Y90626D01*
X54948Y90565D01*
X54917Y90511D01*
X54886Y90465D01*
X54863Y90434D01*
X54848Y90411D01*
X54840Y90403D01*
X54779Y90350D01*
X54717Y90311D01*
X54656Y90288D01*
X54594Y90273D01*
X54541Y90257D01*
X54502Y90250D01*
X54464D01*
X54379Y90257D01*
X54310Y90273D01*
X54241Y90296D01*
X54187Y90326D01*
X54141Y90357D01*
X54111Y90380D01*
X54088Y90396D01*
X54080Y90403D01*
X54026Y90465D01*
X53988Y90526D01*
X53957Y90588D01*
X53942Y90649D01*
X53926Y90703D01*
X53919Y90741D01*
Y90772D01*
Y90780D01*
X53926Y90864D01*
X53942Y90933D01*
X53972Y91002D01*
X53995Y91056D01*
X54026Y91102D01*
X54057Y91133D01*
X54072Y91156D01*
X54080Y91163D01*
X54141Y91217D01*
X54203Y91256D01*
X54272Y91286D01*
X54326Y91302D01*
X54379Y91317D01*
X54426Y91325D01*
X54464D01*
X54541Y91317D01*
D02*
G37*
G36*
X75269Y91094D02*
X75115D01*
X75039Y91087D01*
X74962Y91079D01*
X74900Y91064D01*
X74854Y91048D01*
X74808Y91025D01*
X74778Y91010D01*
X74762Y91002D01*
X74754Y90995D01*
X74693Y90933D01*
X74655Y90872D01*
X74639Y90826D01*
X74632Y90810D01*
Y90803D01*
X74624Y90764D01*
X74616Y90710D01*
Y90649D01*
X74608Y90580D01*
Y90518D01*
Y90465D01*
Y90426D01*
Y90411D01*
Y87316D01*
Y87193D01*
X74616Y87093D01*
X74624Y87016D01*
Y86955D01*
X74632Y86917D01*
X74639Y86886D01*
X74647Y86878D01*
Y86870D01*
X74693Y86794D01*
X74739Y86740D01*
X74770Y86709D01*
X74778Y86702D01*
X74785D01*
X74893Y86663D01*
X75000Y86640D01*
X75046D01*
X75085Y86632D01*
X75269D01*
Y86510D01*
X71206D01*
X70991Y87999D01*
X71122D01*
X71199Y87784D01*
X71283Y87592D01*
X71383Y87431D01*
X71475Y87300D01*
X71560Y87201D01*
X71629Y87132D01*
X71682Y87085D01*
X71690Y87078D01*
X71698Y87070D01*
X71851Y86970D01*
X72028Y86893D01*
X72205Y86847D01*
X72374Y86809D01*
X72520Y86786D01*
X72581Y86778D01*
X72642D01*
X72689Y86771D01*
X73103D01*
X73165Y86778D01*
X73211Y86786D01*
X73257Y86801D01*
X73288Y86809D01*
X73311Y86817D01*
X73318Y86824D01*
X73326D01*
X73387Y86870D01*
X73418Y86917D01*
X73441Y86947D01*
X73449Y86963D01*
X73457Y87009D01*
X73464Y87078D01*
X73472Y87155D01*
Y87239D01*
X73480Y87316D01*
Y87377D01*
Y87423D01*
Y87431D01*
Y87439D01*
Y88767D01*
X73357D01*
X73257Y88752D01*
X73165Y88737D01*
X73096Y88721D01*
X73042Y88706D01*
X72996Y88691D01*
X72973Y88683D01*
X72965Y88675D01*
X72904Y88637D01*
X72842Y88583D01*
X72788Y88529D01*
X72742Y88468D01*
X72712Y88414D01*
X72681Y88376D01*
X72666Y88345D01*
X72658Y88330D01*
X72612Y88230D01*
X72573Y88122D01*
X72535Y88015D01*
X72512Y87907D01*
X72496Y87815D01*
X72481Y87746D01*
Y87715D01*
X72474Y87692D01*
Y87685D01*
Y87677D01*
X72343D01*
Y90142D01*
X72474D01*
X72504Y89950D01*
X72543Y89781D01*
X72589Y89635D01*
X72627Y89520D01*
X72673Y89428D01*
X72712Y89359D01*
X72735Y89320D01*
X72742Y89305D01*
X72827Y89213D01*
X72927Y89144D01*
X73034Y89098D01*
X73142Y89067D01*
X73234Y89044D01*
X73311Y89036D01*
X73341Y89029D01*
X73480D01*
Y90948D01*
X72804D01*
X72650Y90941D01*
X72527Y90926D01*
X72427Y90918D01*
X72358Y90902D01*
X72304Y90887D01*
X72274Y90879D01*
X72266D01*
X72143Y90833D01*
X72043Y90787D01*
X71951Y90733D01*
X71882Y90680D01*
X71828Y90634D01*
X71782Y90595D01*
X71759Y90565D01*
X71752Y90557D01*
X71682Y90465D01*
X71629Y90350D01*
X71575Y90227D01*
X71536Y90111D01*
X71506Y89996D01*
X71483Y89912D01*
X71467Y89873D01*
Y89850D01*
X71460Y89835D01*
Y89827D01*
X71329D01*
Y91217D01*
X75269D01*
Y91094D01*
D02*
G37*
G36*
X97948Y89843D02*
X98086Y89835D01*
X98209Y89812D01*
X98324Y89789D01*
X98417Y89766D01*
X98486Y89750D01*
X98532Y89735D01*
X98539Y89727D01*
X98547D01*
X98670Y89674D01*
X98785Y89620D01*
X98877Y89558D01*
X98954Y89505D01*
X99016Y89451D01*
X99062Y89412D01*
X99092Y89382D01*
X99100Y89374D01*
X99161Y89290D01*
X99208Y89205D01*
X99246Y89128D01*
X99269Y89052D01*
X99284Y88990D01*
X99292Y88944D01*
Y88913D01*
Y88898D01*
X99284Y88836D01*
X99269Y88775D01*
X99246Y88721D01*
X99215Y88675D01*
X99192Y88644D01*
X99169Y88614D01*
X99154Y88598D01*
X99146Y88591D01*
X99085Y88545D01*
X99031Y88514D01*
X98970Y88491D01*
X98908Y88476D01*
X98862Y88468D01*
X98824Y88460D01*
X98785D01*
X98708Y88468D01*
X98647Y88476D01*
X98585Y88499D01*
X98539Y88522D01*
X98501Y88537D01*
X98478Y88560D01*
X98463Y88568D01*
X98455Y88575D01*
X98409Y88621D01*
X98378Y88675D01*
X98355Y88721D01*
X98340Y88767D01*
X98332Y88806D01*
X98324Y88836D01*
Y88860D01*
Y88867D01*
X98332Y88921D01*
X98347Y88975D01*
X98386Y89067D01*
X98417Y89105D01*
X98432Y89136D01*
X98447Y89151D01*
X98455Y89159D01*
X98486Y89197D01*
X98509Y89236D01*
X98539Y89290D01*
X98555Y89320D01*
Y89336D01*
X98547Y89366D01*
X98539Y89397D01*
X98509Y89443D01*
X98478Y89474D01*
X98463Y89482D01*
X98401Y89520D01*
X98340Y89543D01*
X98225Y89574D01*
X98171Y89582D01*
X98132Y89589D01*
X98094D01*
X97994Y89574D01*
X97917Y89551D01*
X97887Y89535D01*
X97864Y89528D01*
X97856Y89512D01*
X97848D01*
X97779Y89459D01*
X97725Y89405D01*
X97702Y89359D01*
X97695Y89351D01*
Y89343D01*
X97679Y89297D01*
X97664Y89236D01*
X97656Y89159D01*
Y89082D01*
X97649Y89006D01*
Y88944D01*
Y88898D01*
Y88890D01*
Y88883D01*
Y88560D01*
X97840Y88468D01*
X98017Y88383D01*
X98178Y88299D01*
X98317Y88222D01*
X98447Y88153D01*
X98562Y88092D01*
X98662Y88030D01*
X98747Y87976D01*
X98824Y87923D01*
X98885Y87884D01*
X98939Y87846D01*
X98977Y87815D01*
X99008Y87792D01*
X99031Y87777D01*
X99039Y87761D01*
X99046D01*
X99154Y87646D01*
X99231Y87539D01*
X99284Y87423D01*
X99323Y87324D01*
X99346Y87231D01*
X99353Y87162D01*
X99361Y87116D01*
Y87108D01*
Y87101D01*
X99353Y87001D01*
X99330Y86909D01*
X99307Y86832D01*
X99269Y86771D01*
X99238Y86717D01*
X99215Y86671D01*
X99192Y86648D01*
X99185Y86640D01*
X99108Y86579D01*
X99031Y86540D01*
X98954Y86510D01*
X98877Y86486D01*
X98816Y86471D01*
X98762Y86463D01*
X98716D01*
X98624Y86471D01*
X98532Y86486D01*
X98440Y86510D01*
X98355Y86548D01*
X98171Y86632D01*
X98010Y86725D01*
X97864Y86824D01*
X97802Y86863D01*
X97748Y86901D01*
X97710Y86940D01*
X97672Y86963D01*
X97656Y86978D01*
X97649Y86986D01*
X97633Y86893D01*
X97610Y86809D01*
X97579Y86740D01*
X97541Y86686D01*
X97518Y86640D01*
X97487Y86609D01*
X97472Y86594D01*
X97464Y86586D01*
X97403Y86548D01*
X97334Y86517D01*
X97257Y86494D01*
X97188Y86479D01*
X97126Y86471D01*
X97080Y86463D01*
X97034D01*
X96950Y86471D01*
X96865Y86479D01*
X96796Y86502D01*
X96735Y86525D01*
X96681Y86540D01*
X96642Y86563D01*
X96619Y86571D01*
X96612Y86579D01*
X96543Y86625D01*
X96473Y86686D01*
X96420Y86748D01*
X96358Y86809D01*
X96320Y86863D01*
X96281Y86909D01*
X96258Y86940D01*
X96251Y86947D01*
X96358Y87032D01*
X96389Y86993D01*
X96427Y86963D01*
X96458Y86940D01*
X96481Y86924D01*
X96520Y86909D01*
X96535D01*
X96566Y86917D01*
X96596Y86924D01*
X96612Y86932D01*
X96619D01*
X96642Y86955D01*
X96650Y86986D01*
X96666Y87009D01*
Y87016D01*
X96673Y87047D01*
Y87085D01*
X96681Y87185D01*
Y87224D01*
Y87262D01*
Y87293D01*
Y87300D01*
Y88552D01*
Y88644D01*
Y88737D01*
X96688Y88814D01*
Y88883D01*
X96696Y88998D01*
X96704Y89090D01*
X96719Y89151D01*
X96727Y89197D01*
X96735Y89220D01*
Y89228D01*
X96773Y89313D01*
X96819Y89389D01*
X96881Y89459D01*
X96934Y89520D01*
X96988Y89574D01*
X97034Y89620D01*
X97065Y89643D01*
X97080Y89651D01*
X97188Y89720D01*
X97311Y89766D01*
X97426Y89804D01*
X97549Y89827D01*
X97649Y89843D01*
X97733Y89850D01*
X97810D01*
X97948Y89843D01*
D02*
G37*
G36*
X88563Y89628D02*
X88463Y89589D01*
X88386Y89551D01*
X88348Y89520D01*
X88333Y89512D01*
Y89505D01*
X88310Y89482D01*
X88287Y89443D01*
X88233Y89359D01*
X88179Y89267D01*
X88133Y89167D01*
X88087Y89075D01*
X88048Y88998D01*
X88033Y88967D01*
X88025Y88944D01*
X88018Y88929D01*
Y88921D01*
X86927Y86417D01*
X86766D01*
X85691Y88959D01*
X85652Y89044D01*
X85622Y89113D01*
X85560Y89236D01*
X85514Y89328D01*
X85476Y89405D01*
X85437Y89451D01*
X85414Y89482D01*
X85407Y89497D01*
X85399Y89505D01*
X85314Y89566D01*
X85238Y89605D01*
X85207Y89612D01*
X85176Y89620D01*
X85161Y89628D01*
X85153D01*
Y89750D01*
X86205D01*
Y89628D01*
X86136Y89620D01*
X86075Y89612D01*
X86029Y89597D01*
X85990Y89589D01*
X85967Y89574D01*
X85944Y89558D01*
X85929Y89551D01*
X85883Y89497D01*
X85860Y89436D01*
X85852Y89389D01*
Y89382D01*
Y89374D01*
X85860Y89290D01*
X85883Y89190D01*
X85913Y89082D01*
X85944Y88982D01*
X85975Y88883D01*
X86006Y88806D01*
X86021Y88775D01*
X86029Y88752D01*
X86036Y88737D01*
Y88729D01*
X86459Y87685D01*
X86996Y88898D01*
X87050Y89021D01*
X87089Y89121D01*
X87112Y89205D01*
X87127Y89274D01*
X87142Y89320D01*
X87150Y89359D01*
Y89374D01*
Y89382D01*
X87142Y89420D01*
X87135Y89459D01*
X87104Y89512D01*
X87081Y89551D01*
X87066Y89566D01*
X87035Y89589D01*
X87004Y89605D01*
X86927Y89620D01*
X86897Y89628D01*
X86843D01*
Y89750D01*
X88563D01*
Y89628D01*
D02*
G37*
G36*
X53435Y89627D02*
X53335Y89589D01*
X53258Y89551D01*
X53220Y89520D01*
X53204Y89512D01*
Y89505D01*
X53181Y89482D01*
X53158Y89443D01*
X53105Y89359D01*
X53051Y89267D01*
X53005Y89167D01*
X52959Y89075D01*
X52920Y88998D01*
X52905Y88967D01*
X52897Y88944D01*
X52890Y88929D01*
Y88921D01*
X51799Y86417D01*
X51638D01*
X50562Y88959D01*
X50524Y89044D01*
X50493Y89113D01*
X50432Y89236D01*
X50386Y89328D01*
X50347Y89405D01*
X50309Y89451D01*
X50286Y89482D01*
X50278Y89497D01*
X50271Y89505D01*
X50186Y89566D01*
X50109Y89605D01*
X50079Y89612D01*
X50048Y89620D01*
X50033Y89627D01*
X50025D01*
Y89750D01*
X51077D01*
Y89627D01*
X51008Y89620D01*
X50946Y89612D01*
X50900Y89597D01*
X50862Y89589D01*
X50839Y89574D01*
X50816Y89558D01*
X50801Y89551D01*
X50754Y89497D01*
X50731Y89436D01*
X50724Y89389D01*
Y89382D01*
Y89374D01*
X50731Y89290D01*
X50754Y89190D01*
X50785Y89082D01*
X50816Y88982D01*
X50847Y88883D01*
X50877Y88806D01*
X50893Y88775D01*
X50900Y88752D01*
X50908Y88737D01*
Y88729D01*
X51330Y87685D01*
X51868Y88898D01*
X51922Y89021D01*
X51960Y89121D01*
X51983Y89205D01*
X51999Y89274D01*
X52014Y89320D01*
X52022Y89359D01*
Y89374D01*
Y89382D01*
X52014Y89420D01*
X52006Y89459D01*
X51976Y89512D01*
X51952Y89551D01*
X51937Y89566D01*
X51906Y89589D01*
X51876Y89605D01*
X51799Y89620D01*
X51768Y89627D01*
X51714D01*
Y89750D01*
X53435D01*
Y89627D01*
D02*
G37*
G36*
X94477Y89843D02*
X94607Y89827D01*
X94722Y89797D01*
X94838Y89758D01*
X94945Y89712D01*
X95037Y89658D01*
X95130Y89605D01*
X95206Y89551D01*
X95275Y89489D01*
X95337Y89436D01*
X95391Y89382D01*
X95437Y89336D01*
X95467Y89297D01*
X95490Y89267D01*
X95506Y89251D01*
X95513Y89244D01*
X95575Y89144D01*
X95629Y89052D01*
X95721Y88844D01*
X95782Y88652D01*
X95821Y88468D01*
X95836Y88391D01*
X95851Y88314D01*
X95859Y88245D01*
Y88191D01*
X95867Y88138D01*
Y88107D01*
Y88084D01*
Y88076D01*
X95859Y87953D01*
X95851Y87830D01*
X95805Y87608D01*
X95744Y87408D01*
X95713Y87316D01*
X95675Y87231D01*
X95636Y87162D01*
X95606Y87093D01*
X95575Y87039D01*
X95544Y86986D01*
X95521Y86955D01*
X95498Y86924D01*
X95490Y86909D01*
X95483Y86901D01*
X95406Y86817D01*
X95329Y86740D01*
X95245Y86678D01*
X95152Y86625D01*
X95068Y86579D01*
X94984Y86532D01*
X94815Y86479D01*
X94669Y86440D01*
X94607Y86433D01*
X94554Y86425D01*
X94507Y86417D01*
X94446D01*
X94300Y86425D01*
X94169Y86448D01*
X94039Y86486D01*
X93931Y86525D01*
X93847Y86556D01*
X93778Y86594D01*
X93732Y86617D01*
X93716Y86625D01*
X93594Y86709D01*
X93478Y86809D01*
X93378Y86917D01*
X93302Y87024D01*
X93233Y87116D01*
X93179Y87193D01*
X93163Y87224D01*
X93148Y87247D01*
X93140Y87254D01*
Y87262D01*
X93248Y87347D01*
X93325Y87270D01*
X93394Y87208D01*
X93455Y87155D01*
X93509Y87116D01*
X93555Y87085D01*
X93586Y87062D01*
X93609Y87055D01*
X93616Y87047D01*
X93732Y87001D01*
X93832Y86978D01*
X93878D01*
X93908Y86970D01*
X93939D01*
X94031Y86978D01*
X94116Y86993D01*
X94192Y87016D01*
X94262Y87047D01*
X94315Y87070D01*
X94354Y87093D01*
X94377Y87108D01*
X94384Y87116D01*
X94477Y87201D01*
X94554Y87300D01*
X94623Y87408D01*
X94676Y87508D01*
X94722Y87600D01*
X94753Y87669D01*
X94769Y87700D01*
X94776Y87723D01*
X94784Y87731D01*
Y87738D01*
X94830Y87892D01*
X94868Y88053D01*
X94891Y88199D01*
X94914Y88330D01*
X94922Y88445D01*
Y88491D01*
X94930Y88537D01*
Y88568D01*
Y88591D01*
Y88606D01*
Y88614D01*
X94922Y88806D01*
X94899Y88975D01*
X94876Y89113D01*
X94838Y89228D01*
X94807Y89313D01*
X94784Y89382D01*
X94761Y89412D01*
X94753Y89428D01*
X94707Y89489D01*
X94661Y89535D01*
X94615Y89566D01*
X94569Y89589D01*
X94530Y89605D01*
X94500Y89612D01*
X94431D01*
X94392Y89597D01*
X94338Y89566D01*
X94300Y89535D01*
X94285Y89528D01*
Y89520D01*
X94254Y89482D01*
X94231Y89436D01*
X94200Y89336D01*
X94185Y89290D01*
Y89251D01*
X94177Y89220D01*
Y89213D01*
X94162Y89090D01*
X94139Y88990D01*
X94116Y88906D01*
X94085Y88844D01*
X94062Y88790D01*
X94039Y88760D01*
X94024Y88737D01*
X94016Y88729D01*
X93962Y88683D01*
X93908Y88652D01*
X93855Y88629D01*
X93801Y88614D01*
X93747Y88606D01*
X93709Y88598D01*
X93678D01*
X93609Y88606D01*
X93547Y88614D01*
X93494Y88637D01*
X93448Y88660D01*
X93409Y88675D01*
X93386Y88698D01*
X93371Y88706D01*
X93363Y88714D01*
X93325Y88760D01*
X93294Y88814D01*
X93271Y88867D01*
X93256Y88913D01*
X93248Y88959D01*
X93240Y88998D01*
Y89021D01*
Y89029D01*
X93256Y89144D01*
X93286Y89251D01*
X93332Y89343D01*
X93386Y89428D01*
X93448Y89497D01*
X93494Y89551D01*
X93524Y89589D01*
X93540Y89597D01*
X93663Y89681D01*
X93793Y89743D01*
X93924Y89789D01*
X94054Y89820D01*
X94162Y89835D01*
X94254Y89850D01*
X94338D01*
X94477Y89843D01*
D02*
G37*
G36*
X101212D02*
X101320Y89827D01*
X101412Y89804D01*
X101512Y89773D01*
X101681Y89697D01*
X101834Y89612D01*
X101896Y89566D01*
X101957Y89520D01*
X102003Y89482D01*
X102049Y89443D01*
X102080Y89412D01*
X102103Y89389D01*
X102118Y89374D01*
X102126Y89366D01*
X102203Y89274D01*
X102272Y89174D01*
X102326Y89075D01*
X102379Y88967D01*
X102418Y88860D01*
X102456Y88752D01*
X102510Y88545D01*
X102525Y88445D01*
X102541Y88360D01*
X102548Y88284D01*
X102556Y88214D01*
X102564Y88153D01*
Y88115D01*
Y88084D01*
Y88076D01*
X102548Y87838D01*
X102518Y87623D01*
X102472Y87439D01*
X102448Y87354D01*
X102418Y87278D01*
X102387Y87208D01*
X102364Y87147D01*
X102341Y87093D01*
X102318Y87047D01*
X102295Y87016D01*
X102287Y86993D01*
X102272Y86978D01*
Y86970D01*
X102195Y86870D01*
X102118Y86786D01*
X102034Y86717D01*
X101942Y86648D01*
X101849Y86594D01*
X101757Y86556D01*
X101665Y86517D01*
X101581Y86486D01*
X101419Y86448D01*
X101350Y86433D01*
X101289Y86425D01*
X101243D01*
X101204Y86417D01*
X101174D01*
X101020Y86425D01*
X100882Y86456D01*
X100759Y86486D01*
X100651Y86532D01*
X100567Y86571D01*
X100498Y86609D01*
X100459Y86632D01*
X100444Y86640D01*
X100329Y86740D01*
X100214Y86855D01*
X100114Y86978D01*
X100029Y87108D01*
X99953Y87224D01*
X99922Y87278D01*
X99899Y87316D01*
X99876Y87354D01*
X99868Y87385D01*
X99853Y87400D01*
Y87408D01*
X99976Y87485D01*
X100045Y87377D01*
X100114Y87293D01*
X100175Y87216D01*
X100229Y87162D01*
X100275Y87116D01*
X100313Y87085D01*
X100337Y87070D01*
X100344Y87062D01*
X100406Y87024D01*
X100475Y86993D01*
X100536Y86978D01*
X100598Y86963D01*
X100644Y86955D01*
X100682Y86947D01*
X100721D01*
X100843Y86963D01*
X100951Y86993D01*
X101051Y87039D01*
X101135Y87093D01*
X101204Y87139D01*
X101250Y87185D01*
X101289Y87216D01*
X101296Y87231D01*
X101396Y87385D01*
X101481Y87554D01*
X101535Y87723D01*
X101581Y87884D01*
X101611Y88038D01*
X101619Y88099D01*
X101627Y88153D01*
Y88199D01*
X101634Y88230D01*
Y88253D01*
Y88261D01*
X99853D01*
X99860Y88406D01*
X99876Y88537D01*
X99899Y88660D01*
X99929Y88775D01*
X99960Y88883D01*
X99991Y88982D01*
X100022Y89067D01*
X100060Y89144D01*
X100098Y89213D01*
X100129Y89274D01*
X100160Y89328D01*
X100191Y89366D01*
X100214Y89405D01*
X100229Y89428D01*
X100237Y89436D01*
X100244Y89443D01*
X100313Y89512D01*
X100383Y89582D01*
X100459Y89635D01*
X100529Y89681D01*
X100674Y89750D01*
X100813Y89797D01*
X100928Y89827D01*
X100974Y89835D01*
X101020Y89843D01*
X101058Y89850D01*
X101104D01*
X101212Y89843D01*
D02*
G37*
G36*
X83448D02*
X83556Y89827D01*
X83648Y89804D01*
X83748Y89773D01*
X83917Y89697D01*
X84070Y89612D01*
X84132Y89566D01*
X84193Y89520D01*
X84239Y89482D01*
X84285Y89443D01*
X84316Y89412D01*
X84339Y89389D01*
X84354Y89374D01*
X84362Y89366D01*
X84439Y89274D01*
X84508Y89174D01*
X84562Y89075D01*
X84616Y88967D01*
X84654Y88860D01*
X84692Y88752D01*
X84746Y88545D01*
X84762Y88445D01*
X84777Y88360D01*
X84785Y88284D01*
X84792Y88214D01*
X84800Y88153D01*
Y88115D01*
Y88084D01*
Y88076D01*
X84785Y87838D01*
X84754Y87623D01*
X84708Y87439D01*
X84685Y87354D01*
X84654Y87278D01*
X84623Y87208D01*
X84600Y87147D01*
X84577Y87093D01*
X84554Y87047D01*
X84531Y87016D01*
X84523Y86993D01*
X84508Y86978D01*
Y86970D01*
X84431Y86870D01*
X84354Y86786D01*
X84270Y86717D01*
X84178Y86648D01*
X84086Y86594D01*
X83994Y86556D01*
X83901Y86517D01*
X83817Y86486D01*
X83656Y86448D01*
X83586Y86433D01*
X83525Y86425D01*
X83479D01*
X83441Y86417D01*
X83410D01*
X83256Y86425D01*
X83118Y86456D01*
X82995Y86486D01*
X82888Y86532D01*
X82803Y86571D01*
X82734Y86609D01*
X82696Y86632D01*
X82680Y86640D01*
X82565Y86740D01*
X82450Y86855D01*
X82350Y86978D01*
X82266Y87108D01*
X82189Y87224D01*
X82158Y87278D01*
X82135Y87316D01*
X82112Y87354D01*
X82104Y87385D01*
X82089Y87400D01*
Y87408D01*
X82212Y87485D01*
X82281Y87377D01*
X82350Y87293D01*
X82411Y87216D01*
X82465Y87162D01*
X82511Y87116D01*
X82550Y87085D01*
X82573Y87070D01*
X82580Y87062D01*
X82642Y87024D01*
X82711Y86993D01*
X82772Y86978D01*
X82834Y86963D01*
X82880Y86955D01*
X82918Y86947D01*
X82957D01*
X83080Y86963D01*
X83187Y86993D01*
X83287Y87039D01*
X83371Y87093D01*
X83441Y87139D01*
X83487Y87185D01*
X83525Y87216D01*
X83533Y87231D01*
X83632Y87385D01*
X83717Y87554D01*
X83771Y87723D01*
X83817Y87884D01*
X83848Y88038D01*
X83855Y88099D01*
X83863Y88153D01*
Y88199D01*
X83871Y88230D01*
Y88253D01*
Y88261D01*
X82089D01*
X82096Y88406D01*
X82112Y88537D01*
X82135Y88660D01*
X82166Y88775D01*
X82196Y88883D01*
X82227Y88982D01*
X82258Y89067D01*
X82296Y89144D01*
X82335Y89213D01*
X82365Y89274D01*
X82396Y89328D01*
X82427Y89366D01*
X82450Y89405D01*
X82465Y89428D01*
X82473Y89436D01*
X82481Y89443D01*
X82550Y89512D01*
X82619Y89582D01*
X82696Y89635D01*
X82765Y89681D01*
X82911Y89750D01*
X83049Y89797D01*
X83164Y89827D01*
X83210Y89835D01*
X83256Y89843D01*
X83295Y89850D01*
X83341D01*
X83448Y89843D01*
D02*
G37*
G36*
X48320Y89843D02*
X48427Y89827D01*
X48520Y89804D01*
X48619Y89773D01*
X48788Y89697D01*
X48942Y89612D01*
X49003Y89566D01*
X49065Y89520D01*
X49111Y89482D01*
X49157Y89443D01*
X49188Y89412D01*
X49211Y89389D01*
X49226Y89374D01*
X49234Y89366D01*
X49311Y89274D01*
X49380Y89174D01*
X49433Y89075D01*
X49487Y88967D01*
X49526Y88860D01*
X49564Y88752D01*
X49618Y88545D01*
X49633Y88445D01*
X49648Y88360D01*
X49656Y88284D01*
X49664Y88214D01*
X49672Y88153D01*
Y88115D01*
Y88084D01*
Y88076D01*
X49656Y87838D01*
X49626Y87623D01*
X49579Y87439D01*
X49556Y87354D01*
X49526Y87278D01*
X49495Y87208D01*
X49472Y87147D01*
X49449Y87093D01*
X49426Y87047D01*
X49403Y87016D01*
X49395Y86993D01*
X49380Y86978D01*
Y86970D01*
X49303Y86870D01*
X49226Y86786D01*
X49142Y86717D01*
X49049Y86648D01*
X48957Y86594D01*
X48865Y86556D01*
X48773Y86517D01*
X48689Y86486D01*
X48527Y86448D01*
X48458Y86433D01*
X48397Y86425D01*
X48351D01*
X48312Y86417D01*
X48281D01*
X48128Y86425D01*
X47990Y86456D01*
X47867Y86486D01*
X47759Y86532D01*
X47675Y86571D01*
X47606Y86609D01*
X47567Y86632D01*
X47552Y86640D01*
X47437Y86740D01*
X47322Y86855D01*
X47222Y86978D01*
X47137Y87108D01*
X47060Y87224D01*
X47030Y87278D01*
X47007Y87316D01*
X46984Y87354D01*
X46976Y87385D01*
X46960Y87400D01*
Y87408D01*
X47083Y87485D01*
X47153Y87377D01*
X47222Y87293D01*
X47283Y87216D01*
X47337Y87162D01*
X47383Y87116D01*
X47421Y87085D01*
X47444Y87070D01*
X47452Y87062D01*
X47513Y87024D01*
X47583Y86993D01*
X47644Y86978D01*
X47706Y86963D01*
X47752Y86955D01*
X47790Y86947D01*
X47828D01*
X47951Y86963D01*
X48059Y86993D01*
X48159Y87039D01*
X48243Y87093D01*
X48312Y87139D01*
X48358Y87185D01*
X48397Y87216D01*
X48404Y87231D01*
X48504Y87385D01*
X48589Y87554D01*
X48642Y87723D01*
X48689Y87884D01*
X48719Y88038D01*
X48727Y88099D01*
X48735Y88153D01*
Y88199D01*
X48742Y88230D01*
Y88253D01*
Y88261D01*
X46960D01*
X46968Y88406D01*
X46984Y88537D01*
X47007Y88660D01*
X47037Y88775D01*
X47068Y88883D01*
X47099Y88982D01*
X47129Y89067D01*
X47168Y89144D01*
X47206Y89213D01*
X47237Y89274D01*
X47268Y89328D01*
X47298Y89366D01*
X47322Y89405D01*
X47337Y89428D01*
X47344Y89436D01*
X47352Y89443D01*
X47421Y89512D01*
X47490Y89582D01*
X47567Y89635D01*
X47636Y89681D01*
X47782Y89750D01*
X47921Y89797D01*
X48036Y89827D01*
X48082Y89835D01*
X48128Y89843D01*
X48166Y89850D01*
X48212D01*
X48320Y89843D01*
D02*
G37*
G36*
X91658Y90787D02*
X91750Y90641D01*
X91835Y90511D01*
X91919Y90396D01*
X91996Y90303D01*
X92050Y90234D01*
X92088Y90188D01*
X92104Y90180D01*
Y90173D01*
X92226Y90050D01*
X92349Y89927D01*
X92472Y89820D01*
X92587Y89727D01*
X92687Y89643D01*
X92772Y89582D01*
X92802Y89558D01*
X92818Y89543D01*
X92833Y89528D01*
X92841D01*
Y89412D01*
X92418D01*
Y87654D01*
Y87562D01*
Y87477D01*
Y87400D01*
X92411Y87331D01*
Y87278D01*
Y87224D01*
X92403Y87139D01*
X92395Y87078D01*
Y87039D01*
X92388Y87024D01*
Y87016D01*
X92357Y86940D01*
X92319Y86863D01*
X92273Y86801D01*
X92226Y86748D01*
X92188Y86694D01*
X92150Y86663D01*
X92127Y86640D01*
X92119Y86632D01*
X92034Y86579D01*
X91942Y86532D01*
X91858Y86502D01*
X91773Y86486D01*
X91697Y86471D01*
X91643Y86463D01*
X91589D01*
X91474Y86471D01*
X91366Y86494D01*
X91274Y86525D01*
X91182Y86571D01*
X91097Y86617D01*
X91021Y86678D01*
X90898Y86801D01*
X90798Y86924D01*
X90760Y86978D01*
X90729Y87024D01*
X90706Y87070D01*
X90690Y87101D01*
X90675Y87124D01*
Y87132D01*
X90783Y87208D01*
X90821Y87147D01*
X90859Y87093D01*
X90936Y87009D01*
X91005Y86947D01*
X91074Y86909D01*
X91128Y86878D01*
X91174Y86870D01*
X91205Y86863D01*
X91213D01*
X91251Y86870D01*
X91297Y86886D01*
X91320Y86901D01*
X91336Y86909D01*
X91382Y86955D01*
X91405Y86993D01*
X91420Y87024D01*
X91428Y87039D01*
X91435Y87078D01*
X91443Y87132D01*
X91451Y87254D01*
Y87316D01*
Y87362D01*
Y87393D01*
Y87408D01*
Y89412D01*
X90683D01*
Y89750D01*
X91451D01*
Y90941D01*
X91566D01*
X91658Y90787D01*
D02*
G37*
G36*
X80008Y91094D02*
X79785D01*
X79723Y91087D01*
X79670Y91071D01*
X79631Y91064D01*
X79593Y91048D01*
X79570Y91033D01*
X79554Y91025D01*
X79547D01*
X79501Y91002D01*
X79470Y90972D01*
X79416Y90918D01*
X79393Y90879D01*
X79386Y90872D01*
Y90864D01*
X79370Y90818D01*
X79362Y90756D01*
X79355Y90680D01*
Y90603D01*
X79347Y90534D01*
Y90472D01*
Y90426D01*
Y90419D01*
Y90411D01*
Y87316D01*
Y87193D01*
X79355Y87093D01*
X79362Y87016D01*
Y86955D01*
X79370Y86917D01*
X79378Y86886D01*
X79386Y86878D01*
Y86870D01*
X79432Y86794D01*
X79478Y86740D01*
X79508Y86709D01*
X79516Y86702D01*
X79524D01*
X79631Y86663D01*
X79739Y86640D01*
X79785D01*
X79823Y86632D01*
X80008D01*
Y86510D01*
X75837Y86510D01*
X75661Y88161D01*
X75807D01*
X75868Y87961D01*
X75929Y87792D01*
X75991Y87646D01*
X76045Y87531D01*
X76091Y87439D01*
X76129Y87370D01*
X76152Y87331D01*
X76160Y87316D01*
X76229Y87216D01*
X76298Y87132D01*
X76375Y87062D01*
X76444Y87001D01*
X76498Y86955D01*
X76544Y86924D01*
X76582Y86909D01*
X76590Y86901D01*
X76690Y86855D01*
X76790Y86824D01*
X76889Y86801D01*
X76989Y86786D01*
X77074Y86778D01*
X77143Y86771D01*
X77711D01*
X77803Y86778D01*
X77880D01*
X77934Y86786D01*
X77972Y86794D01*
X78003D01*
X78011Y86801D01*
X78018D01*
X78057Y86824D01*
X78095Y86847D01*
X78141Y86893D01*
X78172Y86932D01*
X78180Y86940D01*
Y86947D01*
X78195Y86993D01*
X78203Y87062D01*
X78210Y87139D01*
Y87216D01*
X78218Y87285D01*
Y87347D01*
Y87393D01*
Y87408D01*
Y90411D01*
Y90534D01*
X78210Y90626D01*
Y90703D01*
X78203Y90764D01*
X78195Y90803D01*
Y90833D01*
X78187Y90841D01*
Y90849D01*
X78141Y90926D01*
X78095Y90979D01*
X78057Y91010D01*
X78041Y91018D01*
X77995Y91041D01*
X77934Y91064D01*
X77826Y91087D01*
X77780Y91094D01*
X77504D01*
Y91217D01*
X80008Y91217D01*
Y91094D01*
D02*
G37*
G36*
X107832D02*
X107717D01*
X107625Y91087D01*
X107548Y91079D01*
X107494Y91064D01*
X107448Y91056D01*
X107418Y91041D01*
X107402Y91033D01*
X107394D01*
X107318Y90979D01*
X107272Y90933D01*
X107241Y90887D01*
X107233Y90879D01*
Y90872D01*
X107218Y90826D01*
X107202Y90756D01*
X107195Y90680D01*
X107187Y90595D01*
X107179Y90518D01*
Y90457D01*
Y90411D01*
Y90403D01*
Y90396D01*
Y87331D01*
Y87201D01*
X107187Y87093D01*
X107195Y87009D01*
X107202Y86947D01*
X107218Y86901D01*
X107226Y86870D01*
X107233Y86855D01*
Y86847D01*
X107279Y86778D01*
X107333Y86732D01*
X107379Y86694D01*
X107387Y86686D01*
X107394D01*
X107448Y86671D01*
X107510Y86655D01*
X107656Y86640D01*
X107725Y86632D01*
X107832D01*
Y86510D01*
X105421D01*
Y86632D01*
X105536D01*
X105628Y86640D01*
X105705Y86648D01*
X105766Y86663D01*
X105812Y86671D01*
X105843Y86678D01*
X105858Y86686D01*
X105866D01*
X105943Y86740D01*
X105989Y86794D01*
X106020Y86832D01*
X106027Y86840D01*
Y86847D01*
X106043Y86893D01*
X106050Y86963D01*
X106066Y87047D01*
Y87124D01*
X106073Y87208D01*
Y87270D01*
Y87316D01*
Y87324D01*
Y87331D01*
Y88652D01*
X105766D01*
X104253Y86510D01*
X102771D01*
Y86640D01*
X102840Y86648D01*
X102902Y86663D01*
X102963Y86678D01*
X103009Y86702D01*
X103055Y86725D01*
X103086Y86740D01*
X103101Y86748D01*
X103109Y86755D01*
X103147Y86794D01*
X103193Y86847D01*
X103247Y86909D01*
X103301Y86970D01*
X103347Y87032D01*
X103385Y87085D01*
X103416Y87116D01*
X103424Y87132D01*
X104545Y88729D01*
X104392Y88775D01*
X104261Y88829D01*
X104146Y88875D01*
X104046Y88929D01*
X103977Y88975D01*
X103923Y89013D01*
X103885Y89044D01*
X103877Y89052D01*
X103808Y89121D01*
X103754Y89182D01*
X103700Y89259D01*
X103662Y89328D01*
X103593Y89474D01*
X103547Y89612D01*
X103524Y89727D01*
X103508Y89781D01*
Y89827D01*
X103501Y89858D01*
Y89889D01*
Y89904D01*
Y89912D01*
X103508Y90065D01*
X103539Y90211D01*
X103577Y90334D01*
X103624Y90449D01*
X103677Y90534D01*
X103716Y90603D01*
X103746Y90641D01*
X103754Y90657D01*
X103854Y90772D01*
X103962Y90864D01*
X104069Y90941D01*
X104176Y90995D01*
X104269Y91041D01*
X104338Y91071D01*
X104368Y91079D01*
X104392Y91087D01*
X104399Y91094D01*
X104407D01*
X104484Y91118D01*
X104576Y91133D01*
X104768Y91164D01*
X104975Y91187D01*
X105175Y91202D01*
X105275Y91210D01*
X105359D01*
X105444Y91217D01*
X107832D01*
Y91094D01*
D02*
G37*
G36*
X90460Y89628D02*
X90383Y89620D01*
X90314Y89605D01*
X90260Y89582D01*
X90222Y89566D01*
X90191Y89543D01*
X90168Y89528D01*
X90153Y89520D01*
Y89512D01*
X90122Y89466D01*
X90107Y89405D01*
X90091Y89336D01*
X90076Y89259D01*
Y89190D01*
X90068Y89128D01*
Y89090D01*
Y89082D01*
Y89075D01*
Y87185D01*
Y87062D01*
X90084Y86970D01*
X90091Y86893D01*
X90107Y86840D01*
X90122Y86801D01*
X90130Y86771D01*
X90145Y86763D01*
Y86755D01*
X90184Y86717D01*
X90237Y86686D01*
X90291Y86663D01*
X90337Y86648D01*
X90383Y86640D01*
X90422Y86632D01*
X90460D01*
Y86510D01*
X88709D01*
Y86632D01*
X88793Y86640D01*
X88855Y86648D01*
X88916Y86671D01*
X88955Y86686D01*
X88986Y86702D01*
X89008Y86717D01*
X89016Y86732D01*
X89024D01*
X89047Y86778D01*
X89070Y86847D01*
X89085Y86917D01*
X89093Y86993D01*
Y87070D01*
X89101Y87132D01*
Y87170D01*
Y87185D01*
Y89750D01*
X90460D01*
Y89628D01*
D02*
G37*
G36*
X70577Y91094D02*
X70354D01*
X70292Y91087D01*
X70239Y91071D01*
X70200Y91064D01*
X70162Y91048D01*
X70139Y91033D01*
X70123Y91025D01*
X70116D01*
X70070Y91002D01*
X70039Y90972D01*
X69985Y90918D01*
X69962Y90879D01*
X69954Y90872D01*
Y90864D01*
X69939Y90818D01*
X69931Y90756D01*
X69924Y90680D01*
Y90603D01*
X69916Y90534D01*
Y90472D01*
Y90426D01*
Y90419D01*
Y90411D01*
Y87316D01*
Y87193D01*
X69924Y87093D01*
X69931Y87016D01*
Y86955D01*
X69939Y86917D01*
X69947Y86886D01*
X69954Y86878D01*
Y86870D01*
X70000Y86794D01*
X70054Y86740D01*
X70100Y86709D01*
X70108Y86694D01*
X70116D01*
X70162Y86671D01*
X70208Y86655D01*
X70308Y86640D01*
X70354Y86632D01*
X70577D01*
Y86510D01*
X68311D01*
X68180Y86517D01*
X68065Y86525D01*
X67973Y86532D01*
X67904D01*
X67850Y86540D01*
X67819Y86548D01*
X67812D01*
X67635Y86586D01*
X67481Y86625D01*
X67343Y86671D01*
X67220Y86709D01*
X67128Y86748D01*
X67059Y86778D01*
X67013Y86794D01*
X66998Y86801D01*
X66875Y86870D01*
X66767Y86940D01*
X66667Y87016D01*
X66583Y87085D01*
X66514Y87147D01*
X66460Y87193D01*
X66422Y87224D01*
X66414Y87239D01*
X66322Y87347D01*
X66245Y87462D01*
X66168Y87577D01*
X66114Y87692D01*
X66061Y87784D01*
X66030Y87861D01*
X66015Y87892D01*
X66007Y87915D01*
X65999Y87923D01*
Y87930D01*
X65946Y88091D01*
X65907Y88253D01*
X65876Y88406D01*
X65861Y88545D01*
X65846Y88668D01*
Y88721D01*
X65838Y88760D01*
Y88798D01*
Y88821D01*
Y88836D01*
Y88844D01*
Y88975D01*
X65853Y89105D01*
X65892Y89351D01*
X65946Y89566D01*
X65969Y89666D01*
X65999Y89758D01*
X66030Y89843D01*
X66061Y89919D01*
X66091Y89981D01*
X66114Y90035D01*
X66137Y90081D01*
X66153Y90111D01*
X66161Y90127D01*
X66168Y90134D01*
X66299Y90334D01*
X66452Y90511D01*
X66614Y90657D01*
X66767Y90772D01*
X66905Y90864D01*
X66967Y90902D01*
X67013Y90933D01*
X67059Y90956D01*
X67090Y90972D01*
X67113Y90987D01*
X67120D01*
X67328Y91064D01*
X67551Y91118D01*
X67773Y91163D01*
X67988Y91187D01*
X68088Y91202D01*
X68180D01*
X68265Y91210D01*
X68334Y91217D01*
X70577D01*
Y91094D01*
D02*
G37*
G36*
X63672D02*
X63450D01*
X63388Y91087D01*
X63334Y91071D01*
X63296Y91064D01*
X63257Y91048D01*
X63234Y91033D01*
X63219Y91025D01*
X63211D01*
X63165Y91002D01*
X63135Y90972D01*
X63081Y90918D01*
X63058Y90879D01*
X63050Y90872D01*
Y90864D01*
X63035Y90818D01*
X63027Y90756D01*
X63019Y90680D01*
Y90603D01*
X63012Y90534D01*
Y90472D01*
Y90426D01*
Y90419D01*
Y90411D01*
Y87316D01*
Y87193D01*
X63019Y87093D01*
X63027Y87016D01*
Y86955D01*
X63035Y86917D01*
X63042Y86886D01*
X63050Y86878D01*
Y86870D01*
X63096Y86794D01*
X63150Y86740D01*
X63196Y86709D01*
X63204Y86694D01*
X63211D01*
X63257Y86671D01*
X63304Y86655D01*
X63403Y86640D01*
X63450Y86632D01*
X63672D01*
Y86510D01*
X61407D01*
X61276Y86517D01*
X61161Y86525D01*
X61069Y86532D01*
X61000D01*
X60946Y86540D01*
X60915Y86548D01*
X60907D01*
X60731Y86586D01*
X60577Y86625D01*
X60439Y86671D01*
X60316Y86709D01*
X60224Y86748D01*
X60155Y86778D01*
X60109Y86794D01*
X60093Y86801D01*
X59970Y86870D01*
X59863Y86940D01*
X59763Y87016D01*
X59679Y87085D01*
X59610Y87147D01*
X59556Y87193D01*
X59517Y87224D01*
X59510Y87239D01*
X59417Y87347D01*
X59341Y87462D01*
X59264Y87577D01*
X59210Y87692D01*
X59156Y87784D01*
X59126Y87861D01*
X59110Y87892D01*
X59103Y87915D01*
X59095Y87923D01*
Y87930D01*
X59041Y88091D01*
X59003Y88253D01*
X58972Y88406D01*
X58957Y88545D01*
X58941Y88668D01*
Y88721D01*
X58934Y88760D01*
Y88798D01*
Y88821D01*
Y88836D01*
Y88844D01*
Y88975D01*
X58949Y89105D01*
X58987Y89351D01*
X59041Y89566D01*
X59064Y89666D01*
X59095Y89758D01*
X59126Y89843D01*
X59156Y89919D01*
X59187Y89981D01*
X59210Y90035D01*
X59233Y90081D01*
X59249Y90111D01*
X59256Y90127D01*
X59264Y90134D01*
X59394Y90334D01*
X59548Y90511D01*
X59709Y90657D01*
X59863Y90772D01*
X60001Y90864D01*
X60063Y90902D01*
X60109Y90933D01*
X60155Y90956D01*
X60185Y90972D01*
X60208Y90987D01*
X60216D01*
X60424Y91064D01*
X60646Y91118D01*
X60869Y91163D01*
X61084Y91187D01*
X61184Y91202D01*
X61276D01*
X61361Y91210D01*
X61430Y91217D01*
X63672D01*
Y91094D01*
D02*
G37*
G36*
X56092Y89843D02*
X56177Y89827D01*
X56261Y89797D01*
X56330Y89766D01*
X56392Y89735D01*
X56438Y89704D01*
X56476Y89689D01*
X56484Y89681D01*
X56530Y89643D01*
X56576Y89605D01*
X56668Y89505D01*
X56768Y89397D01*
X56852Y89282D01*
X56929Y89182D01*
X56991Y89098D01*
X57014Y89059D01*
X57029Y89036D01*
X57037Y89021D01*
X57044Y89013D01*
Y89750D01*
X58373D01*
Y89627D01*
X58319Y89620D01*
X58273Y89605D01*
X58235Y89597D01*
X58204Y89582D01*
X58166Y89566D01*
X58150Y89558D01*
X58104Y89520D01*
X58074Y89474D01*
X58050Y89436D01*
X58043Y89428D01*
Y89420D01*
X58035Y89382D01*
X58027Y89336D01*
X58012Y89213D01*
Y89159D01*
Y89113D01*
Y89082D01*
Y89067D01*
Y87270D01*
Y87193D01*
Y87124D01*
X58027Y87009D01*
X58035Y86917D01*
X58050Y86847D01*
X58066Y86794D01*
X58074Y86763D01*
X58089Y86748D01*
Y86740D01*
X58120Y86709D01*
X58166Y86686D01*
X58258Y86655D01*
X58304Y86640D01*
X58342D01*
X58365Y86632D01*
X58373D01*
Y86510D01*
X56622D01*
Y86632D01*
X56691Y86640D01*
X56753D01*
X56799Y86648D01*
X56837Y86655D01*
X56868Y86663D01*
X56891Y86671D01*
X56898Y86678D01*
X56906D01*
X56960Y86717D01*
X56991Y86763D01*
X57014Y86801D01*
X57021Y86817D01*
X57029Y86847D01*
X57037Y86886D01*
X57044Y86970D01*
Y87009D01*
Y87047D01*
Y87070D01*
Y87078D01*
Y87270D01*
Y88015D01*
X57037Y88161D01*
X57029Y88307D01*
X57014Y88429D01*
X56991Y88537D01*
X56968Y88629D01*
X56952Y88698D01*
X56945Y88744D01*
X56937Y88760D01*
X56906Y88836D01*
X56875Y88906D01*
X56837Y88959D01*
X56806Y89013D01*
X56768Y89044D01*
X56745Y89075D01*
X56730Y89090D01*
X56722Y89098D01*
X56653Y89144D01*
X56591Y89167D01*
X56545Y89174D01*
X56499D01*
X56476Y89167D01*
X56461Y89159D01*
X56453Y89151D01*
X56438Y89144D01*
X56422Y89128D01*
X56368Y89082D01*
X56322Y89036D01*
X56307Y89029D01*
X56299Y89021D01*
X56246Y88982D01*
X56192Y88952D01*
X56130Y88936D01*
X56084Y88921D01*
X56038Y88913D01*
X56000Y88906D01*
X55969D01*
X55915Y88913D01*
X55862Y88929D01*
X55777Y88967D01*
X55746Y88990D01*
X55723Y89013D01*
X55708Y89021D01*
X55700Y89029D01*
X55662Y89082D01*
X55631Y89144D01*
X55616Y89197D01*
X55601Y89259D01*
X55593Y89313D01*
X55585Y89351D01*
Y89382D01*
Y89389D01*
X55593Y89466D01*
X55601Y89535D01*
X55624Y89589D01*
X55639Y89643D01*
X55662Y89674D01*
X55685Y89704D01*
X55693Y89720D01*
X55700Y89727D01*
X55746Y89766D01*
X55800Y89797D01*
X55846Y89820D01*
X55900Y89835D01*
X55938Y89843D01*
X55977Y89850D01*
X56008D01*
X56092Y89843D01*
D02*
G37*
G36*
X55332Y89627D02*
X55255Y89620D01*
X55186Y89605D01*
X55132Y89582D01*
X55094Y89566D01*
X55063Y89543D01*
X55040Y89528D01*
X55024Y89520D01*
Y89512D01*
X54994Y89466D01*
X54978Y89405D01*
X54963Y89336D01*
X54948Y89259D01*
Y89190D01*
X54940Y89128D01*
Y89090D01*
Y89082D01*
Y89075D01*
Y87185D01*
Y87062D01*
X54955Y86970D01*
X54963Y86893D01*
X54978Y86840D01*
X54994Y86801D01*
X55001Y86771D01*
X55017Y86763D01*
Y86755D01*
X55055Y86717D01*
X55109Y86686D01*
X55163Y86663D01*
X55209Y86648D01*
X55255Y86640D01*
X55293Y86632D01*
X55332D01*
Y86510D01*
X53581D01*
Y86632D01*
X53665Y86640D01*
X53727Y86648D01*
X53788Y86671D01*
X53826Y86686D01*
X53857Y86702D01*
X53880Y86717D01*
X53888Y86732D01*
X53896D01*
X53919Y86778D01*
X53942Y86847D01*
X53957Y86917D01*
X53965Y86993D01*
Y87070D01*
X53972Y87132D01*
Y87170D01*
Y87185D01*
Y89750D01*
X55332D01*
Y89627D01*
D02*
G37*
G36*
X44249Y89843D02*
X44334Y89827D01*
X44418Y89797D01*
X44488Y89766D01*
X44549Y89735D01*
X44595Y89704D01*
X44633Y89689D01*
X44641Y89681D01*
X44687Y89643D01*
X44733Y89605D01*
X44826Y89505D01*
X44925Y89397D01*
X45010Y89282D01*
X45087Y89182D01*
X45148Y89098D01*
X45171Y89059D01*
X45186Y89036D01*
X45194Y89021D01*
X45202Y89013D01*
Y89750D01*
X46530D01*
Y89627D01*
X46477Y89620D01*
X46431Y89605D01*
X46392Y89597D01*
X46362Y89582D01*
X46323Y89566D01*
X46308Y89558D01*
X46262Y89520D01*
X46231Y89474D01*
X46208Y89436D01*
X46200Y89428D01*
Y89420D01*
X46192Y89382D01*
X46185Y89336D01*
X46169Y89213D01*
Y89159D01*
Y89113D01*
Y89082D01*
Y89067D01*
Y87270D01*
Y87193D01*
Y87124D01*
X46185Y87009D01*
X46192Y86917D01*
X46208Y86847D01*
X46223Y86794D01*
X46231Y86763D01*
X46246Y86748D01*
Y86740D01*
X46277Y86709D01*
X46323Y86686D01*
X46415Y86655D01*
X46461Y86640D01*
X46500D01*
X46523Y86632D01*
X46530D01*
Y86510D01*
X44779D01*
Y86632D01*
X44848Y86640D01*
X44910D01*
X44956Y86648D01*
X44994Y86655D01*
X45025Y86663D01*
X45048Y86671D01*
X45056Y86678D01*
X45064D01*
X45117Y86717D01*
X45148Y86763D01*
X45171Y86801D01*
X45179Y86817D01*
X45186Y86847D01*
X45194Y86886D01*
X45202Y86970D01*
Y87009D01*
Y87047D01*
Y87070D01*
Y87078D01*
Y87270D01*
Y88015D01*
X45194Y88161D01*
X45186Y88307D01*
X45171Y88429D01*
X45148Y88537D01*
X45125Y88629D01*
X45110Y88698D01*
X45102Y88744D01*
X45094Y88760D01*
X45064Y88836D01*
X45033Y88906D01*
X44994Y88959D01*
X44964Y89013D01*
X44925Y89044D01*
X44902Y89075D01*
X44887Y89090D01*
X44879Y89098D01*
X44810Y89144D01*
X44749Y89167D01*
X44703Y89174D01*
X44657D01*
X44633Y89167D01*
X44618Y89159D01*
X44610Y89151D01*
X44595Y89144D01*
X44580Y89128D01*
X44526Y89082D01*
X44480Y89036D01*
X44464Y89029D01*
X44457Y89021D01*
X44403Y88982D01*
X44349Y88952D01*
X44288Y88936D01*
X44242Y88921D01*
X44196Y88913D01*
X44157Y88906D01*
X44127D01*
X44073Y88913D01*
X44019Y88929D01*
X43935Y88967D01*
X43904Y88990D01*
X43881Y89013D01*
X43865Y89021D01*
X43858Y89029D01*
X43819Y89082D01*
X43789Y89144D01*
X43773Y89197D01*
X43758Y89259D01*
X43750Y89313D01*
X43743Y89351D01*
Y89382D01*
Y89389D01*
X43750Y89466D01*
X43758Y89535D01*
X43781Y89589D01*
X43796Y89643D01*
X43819Y89674D01*
X43842Y89704D01*
X43850Y89720D01*
X43858Y89727D01*
X43904Y89766D01*
X43958Y89797D01*
X44004Y89820D01*
X44058Y89835D01*
X44096Y89843D01*
X44134Y89850D01*
X44165D01*
X44249Y89843D01*
D02*
G37*
G36*
X64036Y71746D02*
X63936Y71738D01*
X63836Y71731D01*
X63613Y71692D01*
X63606D01*
X63583Y71684D01*
X63544Y71677D01*
X63490Y71661D01*
X63429Y71646D01*
X63345Y71615D01*
X63237Y71585D01*
X63122Y71539D01*
X63114D01*
X63107Y71531D01*
X63068Y71516D01*
X63007Y71500D01*
X62937Y71477D01*
X62868Y71446D01*
X62807Y71431D01*
X62753Y71416D01*
X62715Y71408D01*
X62700D01*
X62653Y71416D01*
X62600Y71439D01*
X62538Y71477D01*
X62530D01*
X62523Y71492D01*
X62507Y71508D01*
X62484Y71539D01*
X62461Y71577D01*
X62431Y71623D01*
X62408Y71684D01*
X62377Y71754D01*
X64120D01*
X64036Y71746D01*
D02*
G37*
G36*
X105477Y66938D02*
Y67069D01*
Y67061D01*
X105285D01*
X105254Y67069D01*
X105201D01*
X105093Y67092D01*
X105039Y67107D01*
X104993Y67130D01*
X104985D01*
X104978Y67138D01*
X104939Y67169D01*
X104893Y67222D01*
X104855Y67299D01*
Y67307D01*
X104847Y67314D01*
X104840Y67345D01*
X104832Y67384D01*
Y67445D01*
X104824Y67522D01*
X104817Y67622D01*
Y67745D01*
Y70840D01*
Y70847D01*
Y70855D01*
Y70901D01*
Y70963D01*
X104824Y71032D01*
Y71109D01*
X104832Y71185D01*
X104840Y71247D01*
X104855Y71293D01*
Y71301D01*
X104863Y71308D01*
X104886Y71347D01*
X104939Y71400D01*
X105009Y71454D01*
X105016D01*
X105032Y71462D01*
X105055Y71477D01*
X105093Y71492D01*
X105139Y71500D01*
X105193Y71516D01*
X105254Y71523D01*
X105477D01*
Y71154D01*
Y71646D01*
X103142D01*
Y71523D01*
X103227D01*
X103273Y71516D01*
X103396Y71492D01*
X103449Y71469D01*
X103503Y71446D01*
X103519Y71439D01*
X103557Y71408D01*
X103603Y71362D01*
X103649Y71285D01*
Y71277D01*
X103657Y71270D01*
X103665Y71239D01*
Y71201D01*
X103672Y71139D01*
X103680Y71062D01*
X103688Y70963D01*
Y70840D01*
Y69373D01*
X101937Y70778D01*
X101929D01*
X101921Y70794D01*
X101883Y70832D01*
X101821Y70886D01*
X101752Y70955D01*
X101691Y71032D01*
X101629Y71109D01*
X101591Y71185D01*
X101576Y71224D01*
Y71262D01*
Y71270D01*
Y71285D01*
X101583Y71308D01*
X101591Y71339D01*
X101614Y71370D01*
X101637Y71408D01*
X101675Y71439D01*
X101722Y71469D01*
X101737Y71477D01*
X101760Y71485D01*
X101798Y71492D01*
X101852Y71500D01*
X101913Y71508D01*
X101998Y71516D01*
X102106Y71523D01*
Y71646D01*
X102641D01*
X100040D01*
X100270D01*
Y71523D01*
X100278D01*
X100308Y71516D01*
X100355D01*
X100408Y71500D01*
X100539Y71477D01*
X100600Y71454D01*
X100662Y71431D01*
X100669D01*
X100692Y71416D01*
X100731Y71385D01*
X100792Y71347D01*
X100877Y71285D01*
X100992Y71201D01*
X101061Y71147D01*
X101130Y71085D01*
X101215Y71024D01*
X101307Y70947D01*
X102682Y69834D01*
X101030Y67760D01*
X101023Y67752D01*
X101015Y67745D01*
X101000Y67722D01*
X100969Y67691D01*
X100908Y67614D01*
X100823Y67522D01*
X100731Y67422D01*
X100631Y67330D01*
X100531Y67238D01*
X100431Y67169D01*
X100424Y67161D01*
X100401Y67153D01*
X100362Y67138D01*
X100316Y67115D01*
X100255Y67092D01*
X100186Y67076D01*
X100116Y67069D01*
X100040Y67061D01*
Y66938D01*
X105477D01*
Y66831D01*
X95324D01*
D01*
X92959D01*
X94564Y70571D01*
Y70578D01*
X94579Y70602D01*
X94595Y70632D01*
X94610Y70678D01*
X94633Y70732D01*
X94664Y70794D01*
X94725Y70924D01*
X94787Y71062D01*
X94856Y71193D01*
X94879Y71247D01*
X94909Y71293D01*
X94932Y71331D01*
X94955Y71362D01*
X94963Y71370D01*
X94978Y71385D01*
X95002Y71400D01*
X95040Y71431D01*
X95086Y71454D01*
X95155Y71485D01*
X95232Y71508D01*
X95324Y71523D01*
Y66831D01*
Y71646D01*
X90324D01*
Y71523D01*
X90332D01*
X90371Y71516D01*
X90417Y71500D01*
X90478Y71469D01*
X90555Y71439D01*
X90632Y71385D01*
X90708Y71324D01*
X90785Y71247D01*
X90793Y71239D01*
X90816Y71208D01*
X90847Y71154D01*
X90893Y71078D01*
X90924Y71024D01*
X90954Y70970D01*
X90993Y70901D01*
X91031Y70824D01*
X91069Y70740D01*
X91115Y70648D01*
X91162Y70540D01*
X91215Y70425D01*
X92836Y66831D01*
X90324D01*
D01*
X87391D01*
D01*
X83267D01*
X86438Y70755D01*
Y67760D01*
Y67752D01*
Y67745D01*
Y67722D01*
Y67691D01*
X86431Y67622D01*
X86415Y67537D01*
X86392Y67437D01*
X86361Y67345D01*
X86316Y67269D01*
X86254Y67199D01*
X86246Y67192D01*
X86223Y67176D01*
X86185Y67153D01*
X86131Y67130D01*
X86070Y67107D01*
X86001Y67084D01*
X85916Y67069D01*
X85832Y67061D01*
X85716D01*
Y66938D01*
X87383D01*
Y67061D01*
X87322D01*
X87252Y67069D01*
X87168Y67084D01*
X87084Y67099D01*
X86991Y67123D01*
X86914Y67161D01*
X86845Y67215D01*
X86838Y67222D01*
X86822Y67245D01*
X86799Y67284D01*
X86769Y67345D01*
X86738Y67422D01*
X86715Y67514D01*
X86699Y67629D01*
X86692Y67760D01*
Y71078D01*
X86799Y71201D01*
X86807Y71208D01*
X86822Y71231D01*
X86853Y71262D01*
X86884Y71308D01*
X86968Y71393D01*
X87014Y71423D01*
X87060Y71454D01*
X87068D01*
X87084Y71462D01*
X87107Y71477D01*
X87145Y71485D01*
X87191Y71500D01*
X87245Y71508D01*
X87314Y71516D01*
X87391Y71523D01*
Y66831D01*
Y71646D01*
X85048D01*
X85724D01*
X83397Y68720D01*
Y70748D01*
Y70755D01*
Y70763D01*
Y70786D01*
Y70817D01*
X83405Y70886D01*
X83412Y70978D01*
X83428Y71078D01*
X83451Y71170D01*
X83482Y71254D01*
X83520Y71324D01*
X83528Y71331D01*
X83551Y71354D01*
X83597Y71385D01*
X83650Y71423D01*
X83727Y71462D01*
X83827Y71492D01*
X83942Y71516D01*
X84081Y71523D01*
Y71646D01*
X82529D01*
Y71523D01*
X82545D01*
X82575Y71516D01*
X82629Y71508D01*
X82691Y71492D01*
X82829Y71462D01*
X82890Y71439D01*
X82936Y71416D01*
X82944D01*
X82952Y71408D01*
X82990Y71370D01*
X83044Y71308D01*
X83090Y71216D01*
Y71208D01*
X83098Y71193D01*
X83105Y71154D01*
X83113Y71109D01*
X83128Y71039D01*
X83136Y70963D01*
X83144Y70863D01*
Y70748D01*
Y66831D01*
X82529D01*
D01*
X80310D01*
D01*
X77852D01*
X77921Y66838D01*
X78006Y66846D01*
X78113Y66854D01*
X78236Y66877D01*
X78374Y66900D01*
X78520Y66938D01*
X78674Y66984D01*
X78835Y67038D01*
X78996Y67107D01*
X79165Y67192D01*
X79327Y67291D01*
X79480Y67407D01*
X79626Y67537D01*
X79764Y67691D01*
X79772Y67699D01*
X79787Y67722D01*
X79818Y67760D01*
X79849Y67814D01*
X79887Y67875D01*
X79933Y67952D01*
X79987Y68044D01*
X80033Y68144D01*
X80087Y68259D01*
X80141Y68382D01*
X80187Y68513D01*
X80225Y68659D01*
X80256Y68805D01*
X80287Y68966D01*
X80302Y69135D01*
X80310Y69304D01*
Y69350D01*
X80302Y69403D01*
Y69480D01*
X80287Y69565D01*
X80271Y69672D01*
X80248Y69788D01*
X80218Y69910D01*
X80179Y70049D01*
X80133Y70187D01*
X80079Y70333D01*
X80010Y70479D01*
X79926Y70625D01*
X79834Y70771D01*
X79718Y70909D01*
X79596Y71047D01*
X79588Y71055D01*
X79565Y71078D01*
X79519Y71109D01*
X79465Y71154D01*
X79396Y71208D01*
X79311Y71270D01*
X79219Y71331D01*
X79112Y71393D01*
X78989Y71454D01*
X78851Y71516D01*
X78712Y71569D01*
X78559Y71623D01*
X78390Y71661D01*
X78221Y71692D01*
X78036Y71707D01*
X77711D01*
X77737D01*
X77660Y71700D01*
X77560Y71692D01*
X77453Y71684D01*
X77322Y71661D01*
X77192Y71638D01*
X77046Y71608D01*
X76900Y71562D01*
X76746Y71508D01*
X76593Y71446D01*
X76439Y71370D01*
X76293Y71277D01*
X76147Y71170D01*
X76009Y71047D01*
X76001Y71039D01*
X75978Y71016D01*
X75940Y70978D01*
X75901Y70924D01*
X75848Y70855D01*
X75786Y70771D01*
X75725Y70678D01*
X75656Y70571D01*
X75586Y70448D01*
X75525Y70317D01*
X75464Y70171D01*
X75410Y70018D01*
X75364Y69849D01*
X75333Y69680D01*
X75310Y69496D01*
X75302Y69304D01*
Y69219D01*
X75310Y69150D01*
X75318Y69073D01*
X75333Y68981D01*
X75348Y68881D01*
X75371Y68774D01*
X75394Y68651D01*
X75433Y68528D01*
X75471Y68397D01*
X75525Y68259D01*
X75586Y68129D01*
X75656Y67990D01*
X75740Y67860D01*
X75832Y67729D01*
X75840Y67722D01*
X75863Y67691D01*
X75901Y67645D01*
X75963Y67591D01*
X76032Y67522D01*
X76116Y67445D01*
X76216Y67361D01*
X76339Y67284D01*
X76470Y67199D01*
X76616Y67115D01*
X76777Y67038D01*
X76954Y66969D01*
X77146Y66915D01*
X77345Y66869D01*
X77568Y66838D01*
X77798Y66831D01*
X75302Y66831D01*
Y66831D01*
X66877D01*
Y66838D01*
Y66831D01*
X64320D01*
X64381Y66838D01*
X64451D01*
X64520Y66846D01*
X64604Y66854D01*
X64781Y66877D01*
X64965Y66908D01*
X65149Y66946D01*
X65326Y67007D01*
X65334D01*
X65349Y67015D01*
X65372Y67023D01*
X65403Y67038D01*
X65480Y67084D01*
X65587Y67138D01*
X65710Y67207D01*
X65841Y67284D01*
X65979Y67376D01*
X66109Y67484D01*
X66125Y67499D01*
X66163Y67537D01*
X66225Y67599D01*
X66301Y67683D01*
X66386Y67775D01*
X66478Y67891D01*
X66562Y68021D01*
X66639Y68152D01*
Y68159D01*
X66647Y68175D01*
X66662Y68198D01*
X66678Y68236D01*
X66693Y68282D01*
X66716Y68336D01*
X66739Y68397D01*
X66755Y68467D01*
X66801Y68628D01*
X66839Y68812D01*
X66870Y69012D01*
X66877Y69227D01*
Y69273D01*
X66870Y69327D01*
X66862Y69403D01*
X66854Y69496D01*
X66839Y69603D01*
X66816Y69718D01*
X66785Y69849D01*
X66747Y69987D01*
X66693Y70133D01*
X66632Y70279D01*
X66562Y70433D01*
X66478Y70578D01*
X66378Y70732D01*
X66263Y70878D01*
X66132Y71016D01*
X66125Y71024D01*
X66094Y71047D01*
X66056Y71085D01*
X65994Y71131D01*
X65925Y71185D01*
X65833Y71247D01*
X65733Y71316D01*
X65618Y71385D01*
X65487Y71454D01*
X65341Y71523D01*
X65188Y71585D01*
X65019Y71638D01*
X64842Y71684D01*
X64658Y71723D01*
X64458Y71746D01*
X64251Y71754D01*
X66877D01*
D01*
X62254D01*
Y70095D01*
X62377D01*
Y70102D01*
X62385Y70125D01*
X62400Y70156D01*
X62423Y70210D01*
X62446Y70264D01*
X62477Y70325D01*
X62554Y70479D01*
X62653Y70640D01*
X62776Y70817D01*
X62922Y70978D01*
X63083Y71124D01*
X63091Y71131D01*
X63107Y71139D01*
X63130Y71154D01*
X63160Y71178D01*
X63206Y71208D01*
X63260Y71239D01*
X63383Y71301D01*
X63537Y71362D01*
X63706Y71423D01*
X63898Y71462D01*
X63997Y71477D01*
X64159D01*
X64189Y71469D01*
X64236D01*
X64289Y71462D01*
X64412Y71439D01*
X64550Y71408D01*
X64704Y71354D01*
X64850Y71277D01*
X64988Y71178D01*
X65004Y71162D01*
X65042Y71124D01*
X65103Y71055D01*
X65180Y70963D01*
X65257Y70847D01*
X65341Y70701D01*
X65418Y70533D01*
X65480Y70348D01*
Y70341D01*
X65487Y70325D01*
X65495Y70294D01*
X65503Y70256D01*
X65510Y70210D01*
X65526Y70148D01*
X65541Y70087D01*
X65549Y70018D01*
X65579Y69849D01*
X65602Y69665D01*
X65618Y69473D01*
X65626Y69265D01*
Y69258D01*
Y69235D01*
Y69196D01*
Y69150D01*
X65618Y69096D01*
Y69027D01*
X65610Y68950D01*
X65602Y68866D01*
X65587Y68682D01*
X65564Y68482D01*
X65526Y68274D01*
X65472Y68075D01*
Y68067D01*
X65464Y68052D01*
X65457Y68029D01*
X65441Y67990D01*
X65403Y67906D01*
X65349Y67791D01*
X65272Y67668D01*
X65188Y67545D01*
X65080Y67430D01*
X64957Y67330D01*
X64950D01*
X64942Y67322D01*
X64919Y67307D01*
X64896Y67291D01*
X64819Y67253D01*
X64712Y67215D01*
X64589Y67169D01*
X64443Y67130D01*
X64282Y67099D01*
X64105Y67092D01*
X64043D01*
X63997Y67099D01*
X63944D01*
X63890Y67107D01*
X63759Y67123D01*
X63752D01*
X63729Y67130D01*
X63690Y67138D01*
X63644Y67153D01*
X63583Y67169D01*
X63521Y67184D01*
X63383Y67230D01*
Y68213D01*
Y68229D01*
Y68259D01*
Y68305D01*
X63391Y68359D01*
X63398Y68482D01*
X63406Y68528D01*
X63421Y68566D01*
Y68574D01*
X63429Y68582D01*
X63452Y68620D01*
X63506Y68666D01*
X63537Y68697D01*
X63583Y68720D01*
X63590D01*
X63606Y68728D01*
X63629Y68743D01*
X63667Y68758D01*
X63706Y68766D01*
X63759Y68781D01*
X63875Y68789D01*
X63990D01*
Y68912D01*
X61701D01*
Y68789D01*
X61709D01*
X61739Y68781D01*
X61786D01*
X61847Y68774D01*
X61970Y68751D01*
X62024Y68728D01*
X62070Y68712D01*
X62077D01*
X62085Y68705D01*
X62124Y68674D01*
X62177Y68612D01*
X62223Y68536D01*
X62231Y68520D01*
Y68497D01*
X62239Y68467D01*
X62246Y68428D01*
Y68374D01*
X62254Y68298D01*
Y68213D01*
Y67230D01*
X62262D01*
X62277Y67222D01*
X62300Y67215D01*
X62331Y67199D01*
X62377Y67184D01*
X62423Y67161D01*
X62538Y67115D01*
X62684Y67069D01*
X62845Y67023D01*
X63014Y66969D01*
X63199Y66931D01*
X63206D01*
X63222Y66923D01*
X63245D01*
X63283Y66915D01*
X63329Y66908D01*
X63383Y66900D01*
X63506Y66884D01*
X63660Y66861D01*
X63828Y66846D01*
X64013Y66838D01*
X64212Y66831D01*
X61701D01*
Y66831D01*
X58783D01*
Y66831D01*
X54659D01*
X57830Y70755D01*
Y67760D01*
Y67752D01*
Y67745D01*
Y67722D01*
Y67691D01*
X57823Y67622D01*
X57807Y67537D01*
X57784Y67437D01*
X57753Y67345D01*
X57708Y67269D01*
X57646Y67199D01*
X57638Y67192D01*
X57615Y67176D01*
X57577Y67153D01*
X57523Y67130D01*
X57462Y67107D01*
X57393Y67084D01*
X57308Y67069D01*
X57224Y67061D01*
X57108D01*
Y66938D01*
X58775D01*
Y67061D01*
X58714D01*
X58644Y67069D01*
X58560Y67084D01*
X58476Y67099D01*
X58383Y67123D01*
X58306Y67161D01*
X58237Y67215D01*
X58230Y67222D01*
X58214Y67245D01*
X58191Y67284D01*
X58161Y67345D01*
X58130Y67422D01*
X58107Y67514D01*
X58091Y67629D01*
X58084Y67760D01*
Y71078D01*
X58191Y71201D01*
X58199Y71208D01*
X58214Y71231D01*
X58245Y71262D01*
X58276Y71308D01*
X58360Y71393D01*
X58406Y71423D01*
X58452Y71454D01*
X58460D01*
X58476Y71462D01*
X58499Y71477D01*
X58537Y71485D01*
X58583Y71500D01*
X58637Y71508D01*
X58706Y71516D01*
X58783Y71523D01*
Y66838D01*
Y71646D01*
X53921D01*
Y71523D01*
X53937D01*
X53967Y71516D01*
X54021Y71508D01*
X54083Y71492D01*
X54221Y71462D01*
X54282Y71439D01*
X54328Y71416D01*
X54336D01*
X54344Y71408D01*
X54382Y71370D01*
X54436Y71308D01*
X54482Y71216D01*
Y71208D01*
X54489Y71193D01*
X54497Y71154D01*
X54505Y71109D01*
X54520Y71039D01*
X54528Y70963D01*
X54536Y70863D01*
Y70748D01*
Y66831D01*
X53921D01*
Y66838D01*
Y66831D01*
X44129D01*
Y66938D01*
D01*
Y71646D01*
X45972D01*
Y71523D01*
X46249D01*
X46295Y71516D01*
X46402Y71492D01*
X46464Y71469D01*
X46510Y71446D01*
X46525Y71439D01*
X46564Y71408D01*
X46610Y71354D01*
X46656Y71277D01*
Y71270D01*
X46664Y71262D01*
Y71231D01*
X46671Y71193D01*
X46679Y71131D01*
Y71055D01*
X46687Y70963D01*
Y70840D01*
Y67837D01*
Y67821D01*
Y67775D01*
Y67714D01*
X46679Y67645D01*
Y67568D01*
X46671Y67491D01*
X46664Y67422D01*
X46648Y67376D01*
Y67368D01*
X46641Y67361D01*
X46610Y67322D01*
X46564Y67276D01*
X46525Y67253D01*
X46487Y67230D01*
X46479D01*
X46472Y67222D01*
X46441D01*
X46402Y67215D01*
X46349Y67207D01*
X46272D01*
X46180Y67199D01*
X45612D01*
X45542Y67207D01*
X45458Y67215D01*
X45358Y67230D01*
X45258Y67253D01*
X45158Y67284D01*
X45059Y67330D01*
X45051Y67338D01*
X45012Y67353D01*
X44966Y67384D01*
X44913Y67430D01*
X44844Y67491D01*
X44767Y67560D01*
X44698Y67645D01*
X44628Y67745D01*
X44621Y67760D01*
X44598Y67798D01*
X44559Y67867D01*
X44513Y67960D01*
X44460Y68075D01*
X44398Y68221D01*
X44337Y68390D01*
X44275Y68589D01*
X44129D01*
X44306Y66938D01*
X48476D01*
Y67061D01*
D01*
X48292D01*
X48253Y67069D01*
X48207D01*
X48100Y67092D01*
X47992Y67130D01*
X47985D01*
X47977Y67138D01*
X47946Y67169D01*
X47900Y67222D01*
X47854Y67299D01*
Y67307D01*
X47846Y67314D01*
X47839Y67345D01*
X47831Y67384D01*
Y67445D01*
X47823Y67522D01*
X47816Y67622D01*
Y67745D01*
Y70840D01*
Y70847D01*
Y70855D01*
Y70901D01*
Y70963D01*
X47823Y71032D01*
Y71109D01*
X47831Y71185D01*
X47839Y71247D01*
X47854Y71293D01*
Y71301D01*
X47862Y71308D01*
X47885Y71346D01*
X47938Y71400D01*
X47969Y71431D01*
X48015Y71454D01*
X48023D01*
X48038Y71462D01*
X48061Y71477D01*
X48100Y71492D01*
X48138Y71500D01*
X48192Y71516D01*
X48253Y71523D01*
X48476D01*
Y70463D01*
Y71646D01*
X44129D01*
Y71754D01*
X105477D01*
Y66938D01*
D02*
G37*
G36*
X54789Y68720D02*
Y70748D01*
Y70755D01*
Y70763D01*
Y70786D01*
Y70817D01*
X54797Y70886D01*
X54804Y70978D01*
X54820Y71078D01*
X54843Y71170D01*
X54874Y71254D01*
X54912Y71324D01*
X54920Y71331D01*
X54943Y71354D01*
X54989Y71385D01*
X55042Y71423D01*
X55119Y71462D01*
X55219Y71492D01*
X55334Y71516D01*
X55473Y71523D01*
Y71646D01*
X57116D01*
X54789Y68720D01*
D02*
G37*
G36*
X93066Y71523D02*
X93189D01*
X93243Y71516D01*
X93312D01*
X93450Y71485D01*
X93512Y71469D01*
X93565Y71439D01*
X93581Y71431D01*
X93604Y71400D01*
X93627Y71354D01*
X93642Y71285D01*
Y71277D01*
Y71247D01*
X93634Y71201D01*
X93619Y71139D01*
Y71131D01*
X93612Y71124D01*
X93604Y71093D01*
X93581Y71047D01*
X93558Y70993D01*
X93527Y70909D01*
X93481Y70809D01*
X93427Y70678D01*
X92421Y68336D01*
X91500Y70425D01*
Y70433D01*
X91492Y70440D01*
X91469Y70486D01*
X91446Y70548D01*
X91407Y70632D01*
X91377Y70717D01*
X91338Y70801D01*
X91315Y70870D01*
X91292Y70932D01*
Y70939D01*
X91284Y70955D01*
X91277Y70978D01*
X91269Y71009D01*
X91261Y71078D01*
X91254Y71154D01*
Y71162D01*
Y71170D01*
X91261Y71216D01*
X91277Y71270D01*
X91307Y71331D01*
Y71339D01*
X91315Y71347D01*
X91346Y71377D01*
X91400Y71423D01*
X91469Y71462D01*
X91476D01*
X91500Y71469D01*
X91530Y71485D01*
X91576Y71492D01*
X91630Y71508D01*
X91699Y71516D01*
X91784Y71523D01*
X91868D01*
Y71646D01*
X93066D01*
Y71523D01*
D02*
G37*
G36*
X77860Y71477D02*
X77906D01*
X77960Y71462D01*
X78021Y71446D01*
X78090Y71431D01*
X78167Y71400D01*
X78244Y71370D01*
X78328Y71324D01*
X78413Y71270D01*
X78490Y71208D01*
X78574Y71131D01*
X78651Y71039D01*
X78720Y70939D01*
X78789Y70824D01*
Y70817D01*
X78797Y70801D01*
X78812Y70771D01*
X78828Y70724D01*
X78851Y70671D01*
X78874Y70602D01*
X78897Y70517D01*
X78920Y70425D01*
X78950Y70317D01*
X78973Y70202D01*
X78996Y70079D01*
X79012Y69933D01*
X79035Y69788D01*
X79043Y69626D01*
X79058Y69450D01*
Y69265D01*
Y69250D01*
Y69212D01*
Y69150D01*
X79050Y69066D01*
X79043Y68973D01*
X79035Y68858D01*
X79019Y68728D01*
X79004Y68597D01*
X78958Y68305D01*
X78881Y68013D01*
X78828Y67867D01*
X78774Y67729D01*
X78712Y67606D01*
X78636Y67491D01*
Y67484D01*
X78620Y67476D01*
X78582Y67430D01*
X78513Y67368D01*
X78420Y67291D01*
X78305Y67215D01*
X78159Y67153D01*
X77998Y67107D01*
X77906Y67099D01*
X77806Y67092D01*
X77745D01*
X77675Y67099D01*
X77599Y67115D01*
X77499Y67130D01*
X77399Y67161D01*
X77299Y67207D01*
X77207Y67261D01*
X77192Y67269D01*
X77153Y67307D01*
X77100Y67361D01*
X77030Y67430D01*
X76954Y67530D01*
X76877Y67652D01*
X76800Y67798D01*
X76731Y67967D01*
Y67975D01*
X76723Y67990D01*
X76715Y68021D01*
X76700Y68059D01*
X76692Y68106D01*
X76677Y68167D01*
X76662Y68236D01*
X76639Y68313D01*
X76623Y68397D01*
X76608Y68497D01*
X76593Y68597D01*
X76585Y68712D01*
X76570Y68835D01*
X76562Y68966D01*
X76554Y69242D01*
Y69250D01*
Y69281D01*
Y69334D01*
Y69396D01*
X76562Y69473D01*
Y69557D01*
X76570Y69657D01*
X76577Y69765D01*
X76600Y69987D01*
X76631Y70218D01*
X76669Y70440D01*
X76700Y70540D01*
X76731Y70632D01*
Y70640D01*
X76739Y70655D01*
X76746Y70678D01*
X76762Y70709D01*
X76800Y70794D01*
X76854Y70893D01*
X76915Y71001D01*
X76992Y71109D01*
X77076Y71208D01*
X77176Y71293D01*
X77192Y71301D01*
X77222Y71324D01*
X77276Y71354D01*
X77353Y71393D01*
X77445Y71423D01*
X77553Y71454D01*
X77668Y71477D01*
X77798Y71485D01*
X77829D01*
X77860Y71477D01*
D02*
G37*
G36*
X103688Y69027D02*
Y67745D01*
Y67737D01*
Y67729D01*
Y67683D01*
Y67622D01*
X103680Y67545D01*
Y67468D01*
X103672Y67391D01*
X103665Y67322D01*
X103649Y67276D01*
X103642Y67261D01*
X103611Y67222D01*
X103565Y67176D01*
X103488Y67123D01*
X103480D01*
X103465Y67115D01*
X103434Y67107D01*
X103396Y67092D01*
X103342Y67084D01*
X103281Y67069D01*
X103204Y67061D01*
X103112D01*
Y66938D01*
X102482D01*
Y67061D01*
X102444D01*
X102405Y67069D01*
X102359Y67076D01*
X102259Y67099D01*
X102213Y67115D01*
X102182Y67130D01*
X102175Y67138D01*
X102144Y67169D01*
X102121Y67207D01*
X102113Y67261D01*
Y67269D01*
X102121Y67291D01*
X102129Y67330D01*
X102152Y67384D01*
X102190Y67461D01*
X102252Y67553D01*
X102328Y67676D01*
X102436Y67814D01*
X103511Y69165D01*
X103688Y69027D01*
D02*
G37*
G36*
X46399Y76070D02*
X46368Y76009D01*
X46322Y76028D01*
X46280Y76039D01*
X46246Y76051D01*
X46215Y76055D01*
X46188Y76059D01*
X46169Y76063D01*
X46153D01*
X46115Y76059D01*
X46084Y76047D01*
X46065Y76036D01*
X46057Y76032D01*
X46031Y76009D01*
X46011Y75986D01*
X46004Y75970D01*
X46000Y75967D01*
Y75963D01*
X45992Y75943D01*
X45988Y75916D01*
X45984Y75882D01*
Y75847D01*
X45981Y75817D01*
Y75790D01*
Y75771D01*
Y75763D01*
Y74542D01*
Y74500D01*
Y74465D01*
X45984Y74400D01*
X45988Y74350D01*
X45992Y74311D01*
X45996Y74285D01*
X46000Y74265D01*
X46004Y74258D01*
Y74254D01*
X46015Y74235D01*
X46027Y74215D01*
X46057Y74185D01*
X46080Y74169D01*
X46088Y74162D01*
X46092D01*
X46119Y74150D01*
X46153Y74142D01*
X46222Y74131D01*
X46257D01*
X46284Y74127D01*
X46368D01*
Y74066D01*
X45132D01*
Y74127D01*
X45232D01*
X45274Y74131D01*
X45305Y74139D01*
X45335Y74146D01*
X45355Y74150D01*
X45370Y74158D01*
X45378Y74162D01*
X45382D01*
X45401Y74177D01*
X45420Y74192D01*
X45443Y74227D01*
X45458Y74250D01*
X45462Y74258D01*
Y74261D01*
X45466Y74292D01*
X45470Y74331D01*
X45474Y74377D01*
Y74427D01*
X45478Y74469D01*
Y74507D01*
Y74523D01*
Y74534D01*
Y74538D01*
Y74542D01*
Y76466D01*
X45535D01*
X46399Y76070D01*
D02*
G37*
G36*
X56533Y76458D02*
X56617Y76439D01*
X56694Y76416D01*
X56759Y76385D01*
X56813Y76354D01*
X56852Y76331D01*
X56867Y76320D01*
X56878Y76312D01*
X56882Y76308D01*
X56886Y76304D01*
X56921Y76274D01*
X56951Y76235D01*
X57009Y76158D01*
X57059Y76078D01*
X57097Y75997D01*
X57128Y75924D01*
X57143Y75893D01*
X57151Y75867D01*
X57159Y75844D01*
X57166Y75828D01*
X57170Y75817D01*
Y75813D01*
X57105Y75790D01*
X57074Y75836D01*
X57044Y75878D01*
X57013Y75913D01*
X56978Y75947D01*
X56944Y75970D01*
X56909Y75993D01*
X56875Y76012D01*
X56840Y76024D01*
X56782Y76043D01*
X56756Y76051D01*
X56732Y76055D01*
X56717Y76059D01*
X56690D01*
X56633Y76055D01*
X56579Y76039D01*
X56529Y76020D01*
X56491Y75997D01*
X56456Y75974D01*
X56433Y75955D01*
X56418Y75940D01*
X56414Y75936D01*
X56375Y75890D01*
X56349Y75840D01*
X56326Y75786D01*
X56314Y75740D01*
X56306Y75698D01*
X56299Y75663D01*
Y75640D01*
Y75636D01*
Y75632D01*
X56302Y75540D01*
X56318Y75448D01*
X56341Y75360D01*
X56364Y75283D01*
X56391Y75218D01*
X56402Y75191D01*
X56410Y75168D01*
X56422Y75149D01*
X56425Y75133D01*
X56433Y75125D01*
Y75122D01*
X56464Y75068D01*
X56506Y75003D01*
X56556Y74930D01*
X56610Y74853D01*
X56671Y74768D01*
X56736Y74684D01*
X56871Y74515D01*
X56936Y74431D01*
X56998Y74354D01*
X57055Y74285D01*
X57105Y74223D01*
X57147Y74173D01*
X57182Y74135D01*
X57193Y74119D01*
X57201Y74108D01*
X57205Y74104D01*
X57209Y74100D01*
Y74066D01*
X55822D01*
X55692Y74745D01*
X55753D01*
X55776Y74703D01*
X55796Y74669D01*
X55811Y74642D01*
X55826Y74619D01*
X55838Y74603D01*
X55845Y74592D01*
X55853Y74588D01*
Y74584D01*
X55884Y74561D01*
X55911Y74546D01*
X55934Y74538D01*
X55941Y74534D01*
X55945D01*
X55972Y74530D01*
X56007Y74527D01*
X56045Y74523D01*
X56087D01*
X56126Y74519D01*
X56698D01*
X56590Y74622D01*
X56494Y74722D01*
X56406Y74814D01*
X56329Y74899D01*
X56256Y74980D01*
X56195Y75052D01*
X56141Y75122D01*
X56091Y75179D01*
X56053Y75233D01*
X56018Y75283D01*
X55988Y75321D01*
X55968Y75356D01*
X55949Y75379D01*
X55938Y75398D01*
X55934Y75410D01*
X55930Y75414D01*
X55888Y75502D01*
X55853Y75586D01*
X55830Y75667D01*
X55815Y75736D01*
X55807Y75797D01*
X55803Y75821D01*
X55799Y75844D01*
Y75859D01*
Y75871D01*
Y75878D01*
Y75882D01*
X55803Y75932D01*
X55811Y75978D01*
X55826Y76024D01*
X55842Y76063D01*
X55857Y76101D01*
X55872Y76128D01*
X55880Y76143D01*
X55884Y76151D01*
X55918Y76205D01*
X55957Y76247D01*
X55995Y76289D01*
X56034Y76320D01*
X56064Y76347D01*
X56095Y76366D01*
X56111Y76377D01*
X56118Y76381D01*
X56172Y76408D01*
X56230Y76431D01*
X56283Y76446D01*
X56333Y76454D01*
X56375Y76462D01*
X56410Y76466D01*
X56441D01*
X56533Y76458D01*
D02*
G37*
G36*
X52977D02*
X53061Y76439D01*
X53138Y76416D01*
X53204Y76385D01*
X53257Y76354D01*
X53296Y76331D01*
X53311Y76320D01*
X53323Y76312D01*
X53326Y76308D01*
X53330Y76304D01*
X53365Y76274D01*
X53396Y76235D01*
X53453Y76158D01*
X53503Y76078D01*
X53541Y75997D01*
X53572Y75924D01*
X53588Y75893D01*
X53595Y75867D01*
X53603Y75844D01*
X53611Y75828D01*
X53614Y75817D01*
Y75813D01*
X53549Y75790D01*
X53518Y75836D01*
X53488Y75878D01*
X53457Y75913D01*
X53422Y75947D01*
X53388Y75970D01*
X53353Y75993D01*
X53319Y76012D01*
X53284Y76024D01*
X53227Y76043D01*
X53200Y76051D01*
X53177Y76055D01*
X53161Y76059D01*
X53135D01*
X53077Y76055D01*
X53023Y76039D01*
X52973Y76020D01*
X52935Y75997D01*
X52900Y75974D01*
X52877Y75955D01*
X52862Y75940D01*
X52858Y75936D01*
X52820Y75890D01*
X52793Y75840D01*
X52770Y75786D01*
X52758Y75740D01*
X52750Y75698D01*
X52743Y75663D01*
Y75640D01*
Y75636D01*
Y75632D01*
X52747Y75540D01*
X52762Y75448D01*
X52785Y75360D01*
X52808Y75283D01*
X52835Y75218D01*
X52846Y75191D01*
X52854Y75168D01*
X52866Y75149D01*
X52869Y75133D01*
X52877Y75125D01*
Y75122D01*
X52908Y75068D01*
X52950Y75003D01*
X53000Y74930D01*
X53054Y74853D01*
X53115Y74768D01*
X53180Y74684D01*
X53315Y74515D01*
X53380Y74431D01*
X53442Y74354D01*
X53499Y74285D01*
X53549Y74223D01*
X53591Y74173D01*
X53626Y74135D01*
X53637Y74119D01*
X53645Y74108D01*
X53649Y74104D01*
X53653Y74100D01*
Y74066D01*
X52267D01*
X52136Y74745D01*
X52197D01*
X52220Y74703D01*
X52240Y74669D01*
X52255Y74642D01*
X52271Y74619D01*
X52282Y74603D01*
X52290Y74592D01*
X52297Y74588D01*
Y74584D01*
X52328Y74561D01*
X52355Y74546D01*
X52378Y74538D01*
X52386Y74534D01*
X52390D01*
X52416Y74530D01*
X52451Y74527D01*
X52489Y74523D01*
X52532D01*
X52570Y74519D01*
X53142D01*
X53035Y74622D01*
X52939Y74722D01*
X52850Y74814D01*
X52773Y74899D01*
X52701Y74980D01*
X52639Y75052D01*
X52585Y75122D01*
X52535Y75179D01*
X52497Y75233D01*
X52463Y75283D01*
X52432Y75321D01*
X52412Y75356D01*
X52393Y75379D01*
X52382Y75398D01*
X52378Y75410D01*
X52374Y75414D01*
X52332Y75502D01*
X52297Y75586D01*
X52274Y75667D01*
X52259Y75736D01*
X52251Y75797D01*
X52247Y75821D01*
X52244Y75844D01*
Y75859D01*
Y75871D01*
Y75878D01*
Y75882D01*
X52247Y75932D01*
X52255Y75978D01*
X52271Y76024D01*
X52286Y76063D01*
X52301Y76101D01*
X52316Y76128D01*
X52324Y76143D01*
X52328Y76151D01*
X52363Y76205D01*
X52401Y76247D01*
X52439Y76289D01*
X52478Y76320D01*
X52508Y76347D01*
X52539Y76366D01*
X52555Y76377D01*
X52562Y76381D01*
X52616Y76408D01*
X52674Y76431D01*
X52727Y76446D01*
X52777Y76454D01*
X52820Y76462D01*
X52854Y76466D01*
X52885D01*
X52977Y76458D01*
D02*
G37*
G36*
X51199D02*
X51284Y76439D01*
X51360Y76416D01*
X51426Y76385D01*
X51479Y76354D01*
X51518Y76331D01*
X51533Y76320D01*
X51545Y76312D01*
X51548Y76308D01*
X51552Y76304D01*
X51587Y76274D01*
X51618Y76235D01*
X51675Y76158D01*
X51725Y76078D01*
X51764Y75997D01*
X51794Y75924D01*
X51810Y75893D01*
X51817Y75867D01*
X51825Y75844D01*
X51833Y75828D01*
X51837Y75817D01*
Y75813D01*
X51771Y75790D01*
X51740Y75836D01*
X51710Y75878D01*
X51679Y75913D01*
X51644Y75947D01*
X51610Y75970D01*
X51575Y75993D01*
X51541Y76012D01*
X51506Y76024D01*
X51449Y76043D01*
X51422Y76051D01*
X51399Y76055D01*
X51383Y76059D01*
X51357D01*
X51299Y76055D01*
X51245Y76039D01*
X51195Y76020D01*
X51157Y75997D01*
X51122Y75974D01*
X51099Y75955D01*
X51084Y75940D01*
X51080Y75936D01*
X51042Y75890D01*
X51015Y75840D01*
X50992Y75786D01*
X50980Y75740D01*
X50972Y75698D01*
X50965Y75663D01*
Y75640D01*
Y75636D01*
Y75632D01*
X50969Y75540D01*
X50984Y75448D01*
X51007Y75360D01*
X51030Y75283D01*
X51057Y75218D01*
X51069Y75191D01*
X51076Y75168D01*
X51088Y75149D01*
X51092Y75133D01*
X51099Y75125D01*
Y75122D01*
X51130Y75068D01*
X51172Y75003D01*
X51222Y74930D01*
X51276Y74853D01*
X51337Y74768D01*
X51403Y74684D01*
X51537Y74515D01*
X51602Y74431D01*
X51664Y74354D01*
X51721Y74285D01*
X51771Y74223D01*
X51814Y74173D01*
X51848Y74135D01*
X51860Y74119D01*
X51867Y74108D01*
X51871Y74104D01*
X51875Y74100D01*
Y74066D01*
X50489D01*
X50358Y74745D01*
X50420D01*
X50443Y74703D01*
X50462Y74669D01*
X50477Y74642D01*
X50493Y74619D01*
X50504Y74603D01*
X50512Y74592D01*
X50519Y74588D01*
Y74584D01*
X50550Y74561D01*
X50577Y74546D01*
X50600Y74538D01*
X50608Y74534D01*
X50612D01*
X50639Y74530D01*
X50673Y74527D01*
X50711Y74523D01*
X50754D01*
X50792Y74519D01*
X51364D01*
X51257Y74622D01*
X51161Y74722D01*
X51072Y74814D01*
X50996Y74899D01*
X50923Y74980D01*
X50861Y75052D01*
X50807Y75122D01*
X50757Y75179D01*
X50719Y75233D01*
X50684Y75283D01*
X50654Y75321D01*
X50635Y75356D01*
X50615Y75379D01*
X50604Y75398D01*
X50600Y75410D01*
X50596Y75414D01*
X50554Y75502D01*
X50519Y75586D01*
X50496Y75667D01*
X50481Y75736D01*
X50473Y75797D01*
X50469Y75821D01*
X50466Y75844D01*
Y75859D01*
Y75871D01*
Y75878D01*
Y75882D01*
X50469Y75932D01*
X50477Y75978D01*
X50493Y76024D01*
X50508Y76063D01*
X50523Y76101D01*
X50539Y76128D01*
X50546Y76143D01*
X50550Y76151D01*
X50585Y76205D01*
X50623Y76247D01*
X50661Y76289D01*
X50700Y76320D01*
X50731Y76347D01*
X50761Y76366D01*
X50777Y76377D01*
X50784Y76381D01*
X50838Y76408D01*
X50896Y76431D01*
X50950Y76446D01*
X50999Y76454D01*
X51042Y76462D01*
X51076Y76466D01*
X51107D01*
X51199Y76458D01*
D02*
G37*
G36*
X43270Y76462D02*
X43350Y76454D01*
X43431Y76446D01*
X43508Y76431D01*
X43577Y76416D01*
X43642Y76400D01*
X43707Y76381D01*
X43761Y76362D01*
X43815Y76343D01*
X43861Y76324D01*
X43899Y76304D01*
X43934Y76289D01*
X43961Y76278D01*
X43980Y76266D01*
X43991Y76262D01*
X43995Y76258D01*
X44118Y76178D01*
X44176Y76132D01*
X44226Y76086D01*
X44276Y76043D01*
X44322Y75997D01*
X44360Y75951D01*
X44398Y75909D01*
X44429Y75871D01*
X44456Y75832D01*
X44483Y75797D01*
X44502Y75771D01*
X44517Y75748D01*
X44529Y75728D01*
X44533Y75717D01*
X44537Y75713D01*
X44571Y75648D01*
X44598Y75586D01*
X44625Y75521D01*
X44644Y75456D01*
X44679Y75333D01*
X44690Y75275D01*
X44702Y75222D01*
X44710Y75168D01*
X44713Y75122D01*
X44717Y75083D01*
X44721Y75049D01*
X44725Y75018D01*
Y74999D01*
Y74983D01*
Y74980D01*
X44721Y74880D01*
X44710Y74788D01*
X44694Y74703D01*
X44675Y74630D01*
X44656Y74569D01*
X44648Y74542D01*
X44640Y74523D01*
X44633Y74503D01*
X44629Y74492D01*
X44625Y74484D01*
Y74480D01*
X44583Y74400D01*
X44537Y74331D01*
X44487Y74269D01*
X44441Y74219D01*
X44402Y74181D01*
X44368Y74154D01*
X44345Y74135D01*
X44341Y74131D01*
X44337D01*
X44268Y74093D01*
X44195Y74066D01*
X44130Y74043D01*
X44064Y74031D01*
X44014Y74023D01*
X43972Y74020D01*
X43957Y74016D01*
X43934D01*
X43861Y74020D01*
X43792Y74031D01*
X43726Y74050D01*
X43669Y74069D01*
X43623Y74085D01*
X43588Y74104D01*
X43565Y74116D01*
X43558Y74119D01*
X43496Y74162D01*
X43439Y74212D01*
X43392Y74261D01*
X43354Y74311D01*
X43323Y74354D01*
X43304Y74388D01*
X43289Y74411D01*
X43285Y74415D01*
Y74419D01*
X43254Y74492D01*
X43231Y74569D01*
X43212Y74642D01*
X43200Y74707D01*
X43193Y74761D01*
Y74788D01*
X43189Y74807D01*
Y74822D01*
Y74834D01*
Y74841D01*
Y74845D01*
Y74907D01*
X43196Y74964D01*
X43216Y75068D01*
X43246Y75160D01*
X43262Y75199D01*
X43277Y75233D01*
X43296Y75264D01*
X43312Y75295D01*
X43327Y75318D01*
X43343Y75337D01*
X43354Y75352D01*
X43362Y75364D01*
X43365Y75367D01*
X43369Y75371D01*
X43404Y75406D01*
X43439Y75437D01*
X43477Y75460D01*
X43511Y75483D01*
X43588Y75517D01*
X43657Y75540D01*
X43719Y75552D01*
X43746Y75559D01*
X43765D01*
X43784Y75563D01*
X43811D01*
X43895Y75559D01*
X43934Y75552D01*
X43968Y75548D01*
X43995Y75540D01*
X44018Y75533D01*
X44034Y75529D01*
X44038D01*
X44080Y75510D01*
X44122Y75486D01*
X44141Y75475D01*
X44157Y75467D01*
X44164Y75463D01*
X44168Y75460D01*
X44141Y75556D01*
X44114Y75640D01*
X44087Y75717D01*
X44057Y75778D01*
X44034Y75832D01*
X44014Y75871D01*
X44007Y75882D01*
X43999Y75893D01*
X43995Y75897D01*
Y75901D01*
X43949Y75967D01*
X43903Y76024D01*
X43853Y76078D01*
X43803Y76124D01*
X43761Y76158D01*
X43726Y76185D01*
X43703Y76205D01*
X43700Y76208D01*
X43696D01*
X43619Y76254D01*
X43534Y76293D01*
X43450Y76331D01*
X43369Y76358D01*
X43296Y76385D01*
X43266Y76393D01*
X43239Y76400D01*
X43216Y76408D01*
X43200Y76412D01*
X43189Y76416D01*
X43185D01*
Y76466D01*
X43270Y76462D01*
D02*
G37*
G36*
X49210Y74953D02*
Y74592D01*
X48354D01*
Y74066D01*
X47877D01*
Y74592D01*
X47662D01*
Y74953D01*
X47877D01*
Y76466D01*
X48092D01*
X49210Y74953D01*
D02*
G37*
G36*
X49786Y74592D02*
X49824Y74580D01*
X49859Y74569D01*
X49890Y74553D01*
X49913Y74534D01*
X49932Y74523D01*
X49943Y74511D01*
X49947Y74507D01*
X49974Y74473D01*
X49993Y74438D01*
X50009Y74407D01*
X50016Y74373D01*
X50024Y74346D01*
X50028Y74323D01*
Y74308D01*
Y74304D01*
X50024Y74261D01*
X50016Y74223D01*
X50001Y74189D01*
X49986Y74158D01*
X49974Y74135D01*
X49959Y74116D01*
X49951Y74104D01*
X49947Y74100D01*
X49913Y74073D01*
X49878Y74054D01*
X49847Y74039D01*
X49813Y74031D01*
X49786Y74023D01*
X49763Y74020D01*
X49744D01*
X49701Y74023D01*
X49663Y74031D01*
X49628Y74046D01*
X49598Y74062D01*
X49575Y74073D01*
X49556Y74089D01*
X49544Y74096D01*
X49540Y74100D01*
X49510Y74135D01*
X49490Y74169D01*
X49475Y74200D01*
X49463Y74235D01*
X49456Y74261D01*
X49452Y74285D01*
Y74300D01*
Y74304D01*
X49456Y74346D01*
X49463Y74384D01*
X49479Y74419D01*
X49494Y74450D01*
X49510Y74473D01*
X49525Y74492D01*
X49532Y74503D01*
X49536Y74507D01*
X49571Y74538D01*
X49606Y74557D01*
X49640Y74573D01*
X49671Y74584D01*
X49701Y74592D01*
X49725Y74596D01*
X49744D01*
X49786Y74592D01*
D02*
G37*
G36*
X47121D02*
X47159Y74580D01*
X47194Y74569D01*
X47225Y74553D01*
X47248Y74534D01*
X47267Y74523D01*
X47278Y74511D01*
X47282Y74507D01*
X47309Y74473D01*
X47328Y74438D01*
X47344Y74407D01*
X47351Y74373D01*
X47359Y74346D01*
X47363Y74323D01*
Y74308D01*
Y74304D01*
X47359Y74261D01*
X47351Y74223D01*
X47336Y74189D01*
X47321Y74158D01*
X47309Y74135D01*
X47294Y74116D01*
X47286Y74104D01*
X47282Y74100D01*
X47248Y74073D01*
X47213Y74054D01*
X47183Y74039D01*
X47148Y74031D01*
X47121Y74023D01*
X47098Y74020D01*
X47079D01*
X47036Y74023D01*
X46998Y74031D01*
X46964Y74046D01*
X46933Y74062D01*
X46910Y74073D01*
X46891Y74089D01*
X46879Y74096D01*
X46875Y74100D01*
X46845Y74135D01*
X46825Y74169D01*
X46810Y74200D01*
X46799Y74235D01*
X46791Y74261D01*
X46787Y74285D01*
Y74300D01*
Y74304D01*
X46791Y74346D01*
X46799Y74384D01*
X46814Y74419D01*
X46829Y74450D01*
X46845Y74473D01*
X46860Y74492D01*
X46868Y74503D01*
X46871Y74507D01*
X46906Y74538D01*
X46940Y74557D01*
X46975Y74573D01*
X47006Y74584D01*
X47036Y74592D01*
X47060Y74596D01*
X47079D01*
X47121Y74592D01*
D02*
G37*
G36*
X54709Y76458D02*
X54778Y76443D01*
X54843Y76420D01*
X54901Y76397D01*
X54947Y76370D01*
X54985Y76347D01*
X55008Y76331D01*
X55012Y76324D01*
X55016D01*
X55077Y76266D01*
X55135Y76201D01*
X55181Y76132D01*
X55220Y76066D01*
X55247Y76009D01*
X55258Y75982D01*
X55269Y75959D01*
X55277Y75943D01*
X55281Y75928D01*
X55285Y75920D01*
Y75916D01*
X55319Y75794D01*
X55346Y75671D01*
X55366Y75552D01*
X55377Y75444D01*
X55385Y75394D01*
Y75348D01*
X55388Y75310D01*
X55392Y75275D01*
Y75248D01*
Y75225D01*
Y75214D01*
Y75210D01*
X55388Y75106D01*
X55381Y75007D01*
X55369Y74914D01*
X55354Y74830D01*
X55350Y74795D01*
X55342Y74761D01*
X55335Y74730D01*
X55331Y74707D01*
X55327Y74688D01*
X55323Y74672D01*
X55319Y74665D01*
Y74661D01*
X55296Y74592D01*
X55273Y74530D01*
X55250Y74476D01*
X55231Y74431D01*
X55212Y74396D01*
X55196Y74373D01*
X55189Y74354D01*
X55185Y74350D01*
X55147Y74292D01*
X55104Y74242D01*
X55062Y74200D01*
X55024Y74165D01*
X54993Y74139D01*
X54966Y74116D01*
X54951Y74104D01*
X54943Y74100D01*
X54889Y74073D01*
X54836Y74050D01*
X54786Y74035D01*
X54736Y74027D01*
X54697Y74020D01*
X54663Y74016D01*
X54636D01*
X54582Y74020D01*
X54528Y74027D01*
X54482Y74039D01*
X54440Y74050D01*
X54405Y74062D01*
X54382Y74073D01*
X54363Y74081D01*
X54359Y74085D01*
X54313Y74112D01*
X54271Y74142D01*
X54233Y74173D01*
X54198Y74204D01*
X54171Y74231D01*
X54152Y74254D01*
X54137Y74269D01*
X54133Y74273D01*
X54098Y74319D01*
X54064Y74373D01*
X54037Y74423D01*
X54014Y74473D01*
X53995Y74515D01*
X53983Y74550D01*
X53975Y74573D01*
X53972Y74576D01*
Y74580D01*
X53937Y74695D01*
X53914Y74814D01*
X53895Y74926D01*
X53883Y75026D01*
X53879Y75072D01*
X53876Y75114D01*
Y75149D01*
X53872Y75179D01*
Y75206D01*
Y75225D01*
Y75237D01*
Y75241D01*
X53876Y75383D01*
X53891Y75513D01*
X53910Y75632D01*
X53922Y75686D01*
X53929Y75740D01*
X53941Y75782D01*
X53952Y75824D01*
X53964Y75859D01*
X53972Y75890D01*
X53979Y75916D01*
X53987Y75932D01*
X53991Y75943D01*
Y75947D01*
X54025Y76032D01*
X54068Y76109D01*
X54110Y76170D01*
X54152Y76224D01*
X54190Y76266D01*
X54221Y76297D01*
X54244Y76316D01*
X54248Y76324D01*
X54252D01*
X54317Y76370D01*
X54386Y76404D01*
X54452Y76431D01*
X54509Y76446D01*
X54559Y76458D01*
X54601Y76462D01*
X54617Y76466D01*
X54636D01*
X54709Y76458D01*
D02*
G37*
%LPC*%
G36*
X97656Y88322D02*
X97649D01*
Y87239D01*
X97733Y87178D01*
X97810Y87132D01*
X97879Y87093D01*
X97940Y87070D01*
X97986Y87055D01*
X98025Y87047D01*
X98056D01*
X98109Y87055D01*
X98155Y87062D01*
X98232Y87093D01*
X98263Y87108D01*
X98286Y87124D01*
X98294Y87139D01*
X98301D01*
X98340Y87185D01*
X98363Y87231D01*
X98393Y87324D01*
X98401Y87362D01*
X98409Y87393D01*
Y87408D01*
Y87416D01*
X98401Y87485D01*
X98386Y87554D01*
X98370Y87623D01*
X98340Y87677D01*
X98317Y87723D01*
X98301Y87761D01*
X98286Y87784D01*
X98278Y87792D01*
X98194Y87900D01*
X98094Y87992D01*
X97986Y88084D01*
X97887Y88161D01*
X97794Y88230D01*
X97718Y88276D01*
X97687Y88299D01*
X97664Y88314D01*
X97656Y88322D01*
D02*
G37*
G36*
X101181Y89628D02*
X101151D01*
X101074Y89620D01*
X101012Y89597D01*
X100974Y89566D01*
X100959Y89558D01*
X100912Y89512D01*
X100874Y89466D01*
X100813Y89359D01*
X100790Y89313D01*
X100774Y89274D01*
X100767Y89251D01*
Y89244D01*
X100759Y89197D01*
X100744Y89151D01*
X100728Y89036D01*
X100721Y88913D01*
X100713Y88783D01*
X100705Y88668D01*
Y88621D01*
Y88575D01*
Y88537D01*
Y88506D01*
Y88491D01*
Y88483D01*
X101650D01*
Y88598D01*
X101642Y88790D01*
X101619Y88959D01*
X101588Y89105D01*
X101550Y89220D01*
X101512Y89320D01*
X101481Y89389D01*
X101458Y89428D01*
X101450Y89443D01*
X101404Y89505D01*
X101358Y89551D01*
X101304Y89582D01*
X101258Y89605D01*
X101212Y89620D01*
X101181Y89628D01*
D02*
G37*
G36*
X83417D02*
X83387D01*
X83310Y89620D01*
X83249Y89597D01*
X83210Y89566D01*
X83195Y89558D01*
X83149Y89512D01*
X83110Y89466D01*
X83049Y89359D01*
X83026Y89313D01*
X83010Y89274D01*
X83003Y89251D01*
Y89244D01*
X82995Y89197D01*
X82980Y89151D01*
X82964Y89036D01*
X82957Y88913D01*
X82949Y88783D01*
X82941Y88668D01*
Y88621D01*
Y88575D01*
Y88537D01*
Y88506D01*
Y88491D01*
Y88483D01*
X83886D01*
Y88598D01*
X83878Y88790D01*
X83855Y88959D01*
X83824Y89105D01*
X83786Y89220D01*
X83748Y89320D01*
X83717Y89389D01*
X83694Y89428D01*
X83686Y89443D01*
X83640Y89505D01*
X83594Y89551D01*
X83540Y89582D01*
X83494Y89605D01*
X83448Y89620D01*
X83417Y89628D01*
D02*
G37*
G36*
X48289Y89627D02*
X48258D01*
X48182Y89620D01*
X48120Y89597D01*
X48082Y89566D01*
X48066Y89558D01*
X48020Y89512D01*
X47982Y89466D01*
X47921Y89359D01*
X47897Y89313D01*
X47882Y89274D01*
X47874Y89251D01*
Y89244D01*
X47867Y89197D01*
X47851Y89151D01*
X47836Y89036D01*
X47828Y88913D01*
X47821Y88783D01*
X47813Y88668D01*
Y88621D01*
Y88575D01*
Y88537D01*
Y88506D01*
Y88491D01*
Y88483D01*
X48758D01*
Y88598D01*
X48750Y88790D01*
X48727Y88959D01*
X48696Y89105D01*
X48658Y89220D01*
X48619Y89320D01*
X48589Y89389D01*
X48566Y89428D01*
X48558Y89443D01*
X48512Y89505D01*
X48466Y89551D01*
X48412Y89582D01*
X48366Y89605D01*
X48320Y89620D01*
X48289Y89627D01*
D02*
G37*
G36*
X106073Y90956D02*
X105705D01*
X105513Y90948D01*
X105344Y90918D01*
X105206Y90872D01*
X105090Y90826D01*
X105006Y90780D01*
X104945Y90733D01*
X104914Y90703D01*
X104898Y90695D01*
X104814Y90588D01*
X104753Y90465D01*
X104706Y90334D01*
X104676Y90204D01*
X104660Y90088D01*
X104653Y90035D01*
X104645Y89988D01*
Y89958D01*
Y89927D01*
Y89912D01*
Y89904D01*
X104653Y89773D01*
X104668Y89658D01*
X104691Y89551D01*
X104714Y89466D01*
X104737Y89397D01*
X104760Y89343D01*
X104776Y89313D01*
X104783Y89305D01*
X104837Y89228D01*
X104898Y89159D01*
X104960Y89105D01*
X105021Y89059D01*
X105075Y89021D01*
X105121Y88998D01*
X105152Y88990D01*
X105160Y88982D01*
X105259Y88952D01*
X105375Y88936D01*
X105490Y88921D01*
X105613Y88906D01*
X105712D01*
X105805Y88898D01*
X106073D01*
Y90956D01*
D02*
G37*
G36*
X68787Y90956D02*
X68587Y90948D01*
X68411Y90941D01*
X68273Y90926D01*
X68157Y90902D01*
X68065Y90879D01*
X68004Y90864D01*
X67973Y90856D01*
X67958Y90849D01*
X67835Y90780D01*
X67720Y90695D01*
X67620Y90603D01*
X67535Y90503D01*
X67474Y90411D01*
X67420Y90342D01*
X67405Y90311D01*
X67389Y90288D01*
X67382Y90280D01*
Y90273D01*
X67328Y90165D01*
X67282Y90058D01*
X67213Y89820D01*
X67159Y89574D01*
X67128Y89343D01*
X67113Y89236D01*
X67105Y89136D01*
X67098Y89052D01*
Y88975D01*
X67090Y88906D01*
Y88860D01*
Y88829D01*
Y88821D01*
X67098Y88621D01*
X67105Y88429D01*
X67128Y88253D01*
X67159Y88091D01*
X67190Y87938D01*
X67220Y87807D01*
X67259Y87685D01*
X67297Y87569D01*
X67343Y87477D01*
X67382Y87393D01*
X67412Y87324D01*
X67443Y87262D01*
X67474Y87216D01*
X67497Y87185D01*
X67505Y87170D01*
X67512Y87162D01*
X67574Y87093D01*
X67635Y87032D01*
X67704Y86978D01*
X67781Y86940D01*
X67927Y86863D01*
X68065Y86817D01*
X68196Y86794D01*
X68249Y86786D01*
X68303Y86778D01*
X68342Y86771D01*
X68457D01*
X68511Y86778D01*
X68557Y86786D01*
X68603Y86794D01*
X68634Y86801D01*
X68656Y86809D01*
X68664Y86817D01*
X68672D01*
X68710Y86847D01*
X68741Y86878D01*
X68756Y86909D01*
X68764Y86917D01*
X68772Y86955D01*
X68779Y87001D01*
Y87062D01*
X68787Y87124D01*
Y87185D01*
Y87231D01*
Y87262D01*
Y87278D01*
Y90956D01*
D02*
G37*
G36*
X61883D02*
X61683Y90948D01*
X61506Y90941D01*
X61368Y90926D01*
X61253Y90902D01*
X61161Y90879D01*
X61099Y90864D01*
X61069Y90856D01*
X61053Y90849D01*
X60930Y90780D01*
X60815Y90695D01*
X60715Y90603D01*
X60631Y90503D01*
X60570Y90411D01*
X60516Y90342D01*
X60500Y90311D01*
X60485Y90288D01*
X60477Y90280D01*
Y90273D01*
X60424Y90165D01*
X60378Y90058D01*
X60308Y89820D01*
X60255Y89574D01*
X60224Y89343D01*
X60208Y89236D01*
X60201Y89136D01*
X60193Y89052D01*
Y88975D01*
X60185Y88906D01*
Y88860D01*
Y88829D01*
Y88821D01*
X60193Y88621D01*
X60201Y88429D01*
X60224Y88253D01*
X60255Y88091D01*
X60285Y87938D01*
X60316Y87807D01*
X60354Y87685D01*
X60393Y87569D01*
X60439Y87477D01*
X60477Y87393D01*
X60508Y87324D01*
X60539Y87262D01*
X60570Y87216D01*
X60593Y87185D01*
X60600Y87170D01*
X60608Y87162D01*
X60669Y87093D01*
X60731Y87032D01*
X60800Y86978D01*
X60877Y86940D01*
X61023Y86863D01*
X61161Y86817D01*
X61291Y86794D01*
X61345Y86786D01*
X61399Y86778D01*
X61437Y86771D01*
X61553D01*
X61606Y86778D01*
X61652Y86786D01*
X61698Y86794D01*
X61729Y86801D01*
X61752Y86809D01*
X61760Y86817D01*
X61768D01*
X61806Y86847D01*
X61837Y86878D01*
X61852Y86909D01*
X61860Y86917D01*
X61867Y86955D01*
X61875Y87001D01*
Y87062D01*
X61883Y87124D01*
Y87185D01*
Y87231D01*
Y87262D01*
Y87278D01*
Y90956D01*
D02*
G37*
G36*
X99978Y71646D02*
X96038D01*
Y70256D01*
X96169D01*
Y70264D01*
X96177Y70279D01*
Y70302D01*
X96192Y70341D01*
X96215Y70425D01*
X96246Y70540D01*
X96284Y70655D01*
X96338Y70778D01*
X96392Y70893D01*
X96461Y70986D01*
X96468Y70993D01*
X96491Y71024D01*
X96538Y71062D01*
X96591Y71109D01*
X96660Y71162D01*
X96753Y71216D01*
X96852Y71262D01*
X96975Y71308D01*
X96983D01*
X97014Y71316D01*
X97067Y71331D01*
X97137Y71347D01*
X97236Y71354D01*
X97359Y71370D01*
X97513Y71377D01*
X98189D01*
Y69457D01*
X98050D01*
X98020Y69465D01*
X97943Y69473D01*
X97851Y69496D01*
X97743Y69526D01*
X97636Y69573D01*
X97536Y69642D01*
X97452Y69734D01*
X97444Y69749D01*
X97421Y69788D01*
X97382Y69857D01*
X97336Y69949D01*
X97298Y70064D01*
X97252Y70210D01*
X97213Y70379D01*
X97183Y70571D01*
X97052D01*
Y68106D01*
X97183D01*
Y68113D01*
Y68121D01*
X97190Y68144D01*
Y68175D01*
X97206Y68244D01*
X97221Y68336D01*
X97244Y68444D01*
X97282Y68551D01*
X97321Y68659D01*
X97367Y68758D01*
X97375Y68774D01*
X97390Y68805D01*
X97421Y68843D01*
X97452Y68897D01*
X97498Y68958D01*
X97551Y69012D01*
X97613Y69066D01*
X97674Y69104D01*
X97682Y69112D01*
X97705Y69119D01*
X97751Y69135D01*
X97805Y69150D01*
X97874Y69165D01*
X97966Y69181D01*
X98066Y69196D01*
X98189D01*
Y67867D01*
Y67860D01*
Y67852D01*
Y67806D01*
Y67745D01*
X98181Y67668D01*
Y67583D01*
X98173Y67507D01*
X98166Y67437D01*
X98158Y67391D01*
X98150Y67376D01*
X98127Y67345D01*
X98097Y67299D01*
X98035Y67253D01*
X98027D01*
X98020Y67245D01*
X97997Y67238D01*
X97966Y67230D01*
X97920Y67215D01*
X97874Y67207D01*
X97812Y67199D01*
X97398D01*
X97352Y67207D01*
X97290D01*
X97229Y67215D01*
X97083Y67238D01*
X96914Y67276D01*
X96737Y67322D01*
X96561Y67399D01*
X96407Y67499D01*
X96399Y67507D01*
X96392Y67514D01*
X96338Y67560D01*
X96269Y67629D01*
X96184Y67729D01*
X96092Y67860D01*
X95992Y68021D01*
X95908Y68213D01*
X95831Y68428D01*
X95700D01*
X95916Y66938D01*
X95700D01*
X99978D01*
Y67061D01*
D01*
X99794D01*
X99756Y67069D01*
X99709D01*
X99602Y67092D01*
X99494Y67130D01*
X99487D01*
X99479Y67138D01*
X99448Y67169D01*
X99402Y67222D01*
X99356Y67299D01*
Y67307D01*
X99348Y67314D01*
X99341Y67345D01*
X99333Y67384D01*
Y67445D01*
X99325Y67522D01*
X99318Y67622D01*
Y67745D01*
Y70840D01*
Y70855D01*
Y70893D01*
Y70947D01*
Y71009D01*
X99325Y71078D01*
Y71139D01*
X99333Y71193D01*
X99341Y71231D01*
Y71239D01*
X99348Y71254D01*
X99364Y71301D01*
X99402Y71362D01*
X99464Y71423D01*
X99471Y71431D01*
X99487Y71439D01*
X99517Y71454D01*
X99563Y71477D01*
X99610Y71492D01*
X99671Y71508D01*
X99748Y71516D01*
X99825Y71523D01*
X99978D01*
Y70425D01*
Y71646D01*
D02*
G37*
G36*
X90109D02*
X87660D01*
Y71523D01*
X87890D01*
X87936Y71516D01*
X88043Y71492D01*
X88143Y71446D01*
X88159Y71439D01*
X88197Y71408D01*
X88243Y71354D01*
X88289Y71277D01*
Y71270D01*
X88297Y71262D01*
Y71231D01*
X88305Y71193D01*
X88312Y71131D01*
Y71055D01*
X88320Y70963D01*
Y70840D01*
Y67745D01*
Y67737D01*
Y67729D01*
Y67683D01*
Y67622D01*
X88312Y67553D01*
Y67468D01*
X88305Y67391D01*
X88297Y67330D01*
X88282Y67284D01*
Y67276D01*
X88274Y67269D01*
X88251Y67230D01*
X88197Y67176D01*
X88128Y67123D01*
X88120D01*
X88105Y67115D01*
X88082Y67107D01*
X88043Y67092D01*
X88005Y67084D01*
X87951Y67069D01*
X87890Y67061D01*
X87660D01*
Y66938D01*
X90109D01*
Y67061D01*
D01*
X89925D01*
X89887Y67069D01*
X89841D01*
X89733Y67092D01*
X89626Y67130D01*
X89618D01*
X89610Y67138D01*
X89579Y67169D01*
X89533Y67222D01*
X89487Y67299D01*
Y67307D01*
X89480Y67314D01*
X89472Y67345D01*
X89464Y67384D01*
Y67445D01*
X89457Y67522D01*
X89449Y67622D01*
Y67745D01*
Y70840D01*
Y70847D01*
Y70855D01*
Y70901D01*
Y70963D01*
X89457Y71032D01*
Y71109D01*
X89464Y71185D01*
X89472Y71247D01*
X89487Y71293D01*
Y71301D01*
X89495Y71308D01*
X89518Y71347D01*
X89572Y71400D01*
X89603Y71431D01*
X89649Y71454D01*
X89656D01*
X89672Y71462D01*
X89695Y71477D01*
X89733Y71492D01*
X89771Y71500D01*
X89825Y71516D01*
X89887Y71523D01*
X90109D01*
Y70333D01*
Y71646D01*
D02*
G37*
G36*
X74918Y71646D02*
X72530D01*
X72445Y71638D01*
X72361D01*
X72261Y71631D01*
X72061Y71615D01*
X71854Y71592D01*
X71662Y71562D01*
X71570Y71546D01*
X71493Y71523D01*
X71485D01*
X71478Y71516D01*
X71455Y71508D01*
X71424Y71500D01*
X71355Y71469D01*
X71263Y71423D01*
X71155Y71370D01*
X71048Y71293D01*
X70940Y71201D01*
X70840Y71085D01*
X70833Y71070D01*
X70802Y71032D01*
X70763Y70963D01*
X70710Y70878D01*
X70664Y70763D01*
X70625Y70640D01*
X70595Y70494D01*
X70587Y70341D01*
Y70333D01*
Y70317D01*
Y70287D01*
X70595Y70256D01*
Y70210D01*
X70610Y70156D01*
X70633Y70041D01*
X70679Y69903D01*
X70748Y69757D01*
X70786Y69688D01*
X70840Y69611D01*
X70894Y69549D01*
X70963Y69480D01*
X70971Y69473D01*
X71009Y69442D01*
X71063Y69403D01*
X71132Y69357D01*
X71232Y69304D01*
X71347Y69258D01*
X71478Y69204D01*
X71631Y69158D01*
X70510Y67560D01*
X70502Y67545D01*
X70472Y67514D01*
X70433Y67461D01*
X70387Y67399D01*
X70333Y67338D01*
X70280Y67276D01*
X70234Y67222D01*
X70195Y67184D01*
X70187Y67176D01*
X70172Y67169D01*
X70141Y67153D01*
X70095Y67130D01*
X70049Y67107D01*
X69988Y67092D01*
X69926Y67076D01*
X69857Y67069D01*
Y66938D01*
X71980D01*
X71339D01*
X72852Y69081D01*
X73160D01*
Y67760D01*
Y67752D01*
Y67745D01*
Y67699D01*
Y67637D01*
X73152Y67553D01*
Y67476D01*
X73137Y67391D01*
X73129Y67322D01*
X73114Y67276D01*
Y67269D01*
X73106Y67261D01*
X73075Y67222D01*
X73029Y67169D01*
X72952Y67115D01*
X72945D01*
X72929Y67107D01*
X72899Y67099D01*
X72852Y67092D01*
X72791Y67076D01*
X72714Y67069D01*
X72622Y67061D01*
X72507D01*
Y66938D01*
X74918D01*
Y67061D01*
X74811D01*
X74742Y67069D01*
X74596Y67084D01*
X74534Y67099D01*
X74481Y67115D01*
X74473D01*
X74465Y67123D01*
X74419Y67161D01*
X74365Y67207D01*
X74319Y67276D01*
Y67284D01*
X74312Y67299D01*
X74304Y67330D01*
X74289Y67376D01*
X74281Y67437D01*
X74273Y67522D01*
X74265Y67629D01*
Y67760D01*
Y70824D01*
Y70832D01*
Y70840D01*
Y70886D01*
Y70947D01*
X74273Y71024D01*
X74281Y71109D01*
X74289Y71185D01*
X74304Y71254D01*
X74319Y71301D01*
Y71308D01*
X74327Y71316D01*
X74358Y71362D01*
X74404Y71408D01*
X74481Y71462D01*
X74488D01*
X74504Y71469D01*
X74534Y71485D01*
X74580Y71492D01*
X74634Y71508D01*
X74711Y71516D01*
X74803Y71523D01*
X74918D01*
Y70218D01*
Y71646D01*
D02*
G37*
G36*
X69788D02*
X67338D01*
Y71523D01*
X67569D01*
X67615Y71516D01*
X67722Y71492D01*
X67822Y71446D01*
X67837Y71439D01*
X67876Y71408D01*
X67922Y71354D01*
X67968Y71277D01*
Y71270D01*
X67976Y71262D01*
Y71231D01*
X67983Y71193D01*
X67991Y71131D01*
Y71055D01*
X67999Y70963D01*
Y70840D01*
Y67745D01*
Y67737D01*
Y67729D01*
Y67683D01*
Y67622D01*
X67991Y67553D01*
Y67468D01*
X67983Y67391D01*
X67976Y67330D01*
X67960Y67284D01*
Y67276D01*
X67953Y67269D01*
X67930Y67230D01*
X67876Y67176D01*
X67807Y67123D01*
X67799D01*
X67784Y67115D01*
X67761Y67107D01*
X67722Y67092D01*
X67684Y67084D01*
X67630Y67069D01*
X67569Y67061D01*
X67338D01*
Y66938D01*
X69788D01*
Y67061D01*
Y67061D01*
X69604D01*
X69565Y67069D01*
X69519D01*
X69412Y67092D01*
X69304Y67130D01*
X69297D01*
X69289Y67138D01*
X69258Y67169D01*
X69212Y67222D01*
X69166Y67299D01*
Y67307D01*
X69158Y67314D01*
X69151Y67345D01*
X69143Y67384D01*
Y67445D01*
X69135Y67522D01*
X69128Y67622D01*
Y67745D01*
Y70840D01*
Y70847D01*
Y70855D01*
Y70901D01*
Y70963D01*
X69135Y71032D01*
Y71109D01*
X69143Y71185D01*
X69151Y71247D01*
X69166Y71293D01*
Y71301D01*
X69174Y71308D01*
X69197Y71346D01*
X69251Y71400D01*
X69281Y71431D01*
X69327Y71454D01*
X69335D01*
X69350Y71462D01*
X69373Y71477D01*
X69412Y71492D01*
X69450Y71500D01*
X69504Y71516D01*
X69565Y71523D01*
X69788D01*
Y70095D01*
Y71646D01*
D02*
G37*
G36*
X61501D02*
X59052D01*
Y71523D01*
X59282D01*
X59328Y71516D01*
X59435Y71492D01*
X59535Y71446D01*
X59551Y71439D01*
X59589Y71408D01*
X59635Y71354D01*
X59681Y71277D01*
Y71270D01*
X59689Y71262D01*
Y71231D01*
X59697Y71193D01*
X59704Y71131D01*
Y71055D01*
X59712Y70963D01*
Y70840D01*
Y67745D01*
Y67737D01*
Y67729D01*
Y67683D01*
Y67622D01*
X59704Y67553D01*
Y67468D01*
X59697Y67391D01*
X59689Y67330D01*
X59674Y67284D01*
Y67276D01*
X59666Y67269D01*
X59643Y67230D01*
X59589Y67176D01*
X59520Y67123D01*
X59512D01*
X59497Y67115D01*
X59474Y67107D01*
X59435Y67092D01*
X59397Y67084D01*
X59343Y67069D01*
X59282Y67061D01*
X59052D01*
Y66938D01*
X61501D01*
Y67061D01*
D01*
X61317D01*
X61279Y67069D01*
X61233D01*
X61125Y67092D01*
X61018Y67130D01*
X61010D01*
X61002Y67138D01*
X60971Y67169D01*
X60925Y67222D01*
X60879Y67299D01*
Y67307D01*
X60872Y67314D01*
X60864Y67345D01*
X60856Y67384D01*
Y67445D01*
X60849Y67522D01*
X60841Y67622D01*
Y67745D01*
Y70840D01*
Y70847D01*
Y70855D01*
Y70901D01*
Y70963D01*
X60849Y71032D01*
Y71109D01*
X60856Y71185D01*
X60864Y71247D01*
X60879Y71293D01*
Y71301D01*
X60887Y71308D01*
X60910Y71346D01*
X60964Y71400D01*
X60994Y71431D01*
X61041Y71454D01*
X61048D01*
X61064Y71462D01*
X61087Y71477D01*
X61125Y71492D01*
X61164Y71500D01*
X61217Y71516D01*
X61279Y71523D01*
X61501D01*
Y69980D01*
Y71646D01*
D02*
G37*
G36*
X61701Y68789D02*
D01*
Y67806D01*
Y68789D01*
D02*
G37*
G36*
X53691Y71738D02*
X48699D01*
X51126D01*
X49428Y67875D01*
Y67867D01*
X49421Y67852D01*
X49405Y67821D01*
X49390Y67791D01*
X49344Y67691D01*
X49283Y67583D01*
X49221Y67461D01*
X49160Y67353D01*
X49090Y67253D01*
X49060Y67215D01*
X49029Y67184D01*
X49021Y67176D01*
X49006Y67169D01*
X48983Y67146D01*
X48945Y67130D01*
X48899Y67107D01*
X48837Y67084D01*
X48776Y67069D01*
X48699Y67061D01*
Y66938D01*
X50972D01*
Y67061D01*
X50834D01*
X50788Y67069D01*
X50726D01*
X50596Y67092D01*
X50534Y67115D01*
X50488Y67138D01*
X50481Y67146D01*
X50450Y67176D01*
X50427Y67222D01*
X50419Y67291D01*
Y67307D01*
Y67338D01*
X50427Y67376D01*
X50434Y67422D01*
Y67430D01*
X50442Y67445D01*
X50450Y67468D01*
X50465Y67499D01*
X50481Y67545D01*
X50511Y67606D01*
X50542Y67683D01*
X50796Y68274D01*
X52447D01*
X52654Y67814D01*
Y67806D01*
X52669Y67775D01*
X52685Y67737D01*
X52700Y67683D01*
X52731Y67560D01*
X52738Y67499D01*
X52746Y67437D01*
Y67430D01*
Y67407D01*
X52738Y67368D01*
X52723Y67322D01*
X52708Y67276D01*
X52685Y67230D01*
X52646Y67176D01*
X52593Y67138D01*
X52585D01*
X52570Y67130D01*
X52539Y67123D01*
X52500Y67107D01*
X52439Y67099D01*
X52355Y67084D01*
X52255Y67069D01*
X52132Y67061D01*
Y66938D01*
X53691D01*
Y67061D01*
D01*
X53683D01*
X53645Y67069D01*
X53599Y67076D01*
X53545Y67099D01*
X53476Y67123D01*
X53407Y67161D01*
X53338Y67207D01*
X53276Y67261D01*
X53268Y67269D01*
X53245Y67299D01*
X53215Y67345D01*
X53169Y67414D01*
X53107Y67514D01*
X53038Y67637D01*
X53000Y67714D01*
X52961Y67798D01*
X52923Y67883D01*
X52877Y67983D01*
X51187Y71738D01*
X53691D01*
D01*
D02*
G37*
%LPD*%
G36*
X73160Y69327D02*
X72891D01*
X72799Y69334D01*
X72699D01*
X72576Y69350D01*
X72461Y69365D01*
X72346Y69380D01*
X72246Y69411D01*
X72238Y69419D01*
X72207Y69427D01*
X72161Y69450D01*
X72107Y69488D01*
X72046Y69534D01*
X71985Y69588D01*
X71923Y69657D01*
X71869Y69734D01*
X71862Y69741D01*
X71846Y69772D01*
X71823Y69826D01*
X71800Y69895D01*
X71777Y69980D01*
X71754Y70087D01*
X71739Y70202D01*
X71731Y70333D01*
Y70341D01*
Y70356D01*
Y70386D01*
Y70417D01*
X71739Y70463D01*
X71746Y70517D01*
X71762Y70632D01*
X71793Y70763D01*
X71839Y70893D01*
X71900Y71016D01*
X71985Y71124D01*
X72000Y71131D01*
X72031Y71162D01*
X72092Y71208D01*
X72177Y71254D01*
X72292Y71301D01*
X72430Y71346D01*
X72599Y71377D01*
X72791Y71385D01*
X73160D01*
Y69327D01*
D02*
G37*
G36*
X52332Y68528D02*
X50903D01*
X51610Y70133D01*
X52332Y68528D01*
D02*
G37*
%LPC*%
G36*
X44018Y75379D02*
X44007D01*
X43961Y75375D01*
X43922Y75360D01*
X43888Y75340D01*
X43857Y75321D01*
X43834Y75298D01*
X43819Y75279D01*
X43807Y75264D01*
X43803Y75260D01*
X43784Y75222D01*
X43765Y75179D01*
X43749Y75129D01*
X43734Y75079D01*
X43715Y74968D01*
X43700Y74861D01*
X43696Y74807D01*
X43692Y74757D01*
X43688Y74711D01*
X43684Y74672D01*
Y74642D01*
Y74615D01*
Y74599D01*
Y74596D01*
Y74546D01*
X43688Y74500D01*
X43692Y74457D01*
X43696Y74419D01*
X43700Y74384D01*
X43703Y74354D01*
X43715Y74300D01*
X43730Y74265D01*
X43738Y74239D01*
X43746Y74223D01*
X43749Y74219D01*
X43773Y74189D01*
X43796Y74165D01*
X43822Y74150D01*
X43842Y74139D01*
X43861Y74131D01*
X43876Y74127D01*
X43892D01*
X43922Y74131D01*
X43945Y74139D01*
X43991Y74158D01*
X44007Y74169D01*
X44018Y74181D01*
X44026Y74185D01*
X44030Y74189D01*
X44057Y74227D01*
X44080Y74277D01*
X44103Y74331D01*
X44118Y74381D01*
X44133Y74427D01*
X44145Y74469D01*
X44149Y74484D01*
Y74492D01*
X44153Y74500D01*
Y74503D01*
X44168Y74588D01*
X44180Y74672D01*
X44187Y74749D01*
X44191Y74822D01*
X44195Y74880D01*
X44199Y74907D01*
Y74926D01*
Y74945D01*
Y74957D01*
Y74964D01*
Y74968D01*
Y75014D01*
X44195Y75072D01*
Y75129D01*
X44191Y75187D01*
Y75241D01*
X44187Y75283D01*
Y75298D01*
Y75310D01*
Y75318D01*
Y75321D01*
X44149Y75340D01*
X44110Y75356D01*
X44080Y75364D01*
X44057Y75371D01*
X44034Y75375D01*
X44018Y75379D01*
D02*
G37*
G36*
X48354Y75878D02*
Y74953D01*
X49045D01*
X48354Y75878D01*
D02*
G37*
G36*
X54651Y76347D02*
X54640D01*
X54605Y76343D01*
X54575Y76339D01*
X54551Y76327D01*
X54532Y76320D01*
X54517Y76308D01*
X54505Y76297D01*
X54498Y76293D01*
Y76289D01*
X54475Y76251D01*
X54455Y76201D01*
X54444Y76147D01*
X54432Y76093D01*
X54421Y76043D01*
X54417Y76001D01*
Y75986D01*
X54413Y75974D01*
Y75967D01*
Y75963D01*
Y75936D01*
X54409Y75901D01*
Y75859D01*
Y75805D01*
Y75751D01*
X54405Y75690D01*
Y75563D01*
Y75502D01*
Y75444D01*
Y75390D01*
Y75340D01*
Y75302D01*
Y75271D01*
Y75252D01*
Y75245D01*
X54413Y74496D01*
X54421Y74423D01*
X54432Y74361D01*
X54444Y74311D01*
X54459Y74269D01*
X54475Y74239D01*
X54486Y74215D01*
X54494Y74200D01*
X54498Y74196D01*
X54517Y74177D01*
X54536Y74165D01*
X54578Y74150D01*
X54598Y74146D01*
X54613Y74142D01*
X54628D01*
X54682Y74150D01*
X54724Y74162D01*
X54740Y74169D01*
X54751Y74173D01*
X54755Y74181D01*
X54759D01*
X54778Y74200D01*
X54790Y74223D01*
X54813Y74281D01*
X54820Y74304D01*
X54828Y74327D01*
X54832Y74342D01*
Y74346D01*
X54839Y74381D01*
X54843Y74423D01*
X54847Y74473D01*
X54851Y74523D01*
X54859Y74634D01*
X54862Y74745D01*
Y74799D01*
Y74853D01*
X54866Y74899D01*
Y74937D01*
Y74972D01*
Y74995D01*
Y75014D01*
Y75018D01*
Y75103D01*
Y75183D01*
Y75256D01*
Y75329D01*
Y75394D01*
Y75460D01*
X54862Y75571D01*
Y75675D01*
X54859Y75759D01*
Y75836D01*
X54855Y75897D01*
Y75951D01*
Y75993D01*
X54851Y76024D01*
Y76051D01*
X54847Y76070D01*
Y76082D01*
Y76089D01*
X54836Y76143D01*
X54824Y76189D01*
X54809Y76224D01*
X54793Y76254D01*
X54782Y76278D01*
X54770Y76293D01*
X54763Y76301D01*
X54759Y76304D01*
X54740Y76320D01*
X54720Y76327D01*
X54682Y76343D01*
X54667D01*
X54651Y76347D01*
D02*
G37*
%LPD*%
D14*
X104118Y10546D02*
Y7398D01*
X102544D01*
X102019Y7922D01*
Y8447D01*
X102544Y8972D01*
X104118D01*
X102544D01*
X102019Y9497D01*
Y10022D01*
X102544Y10546D01*
X104118D01*
X111763Y10022D02*
X112288Y10546D01*
X113337D01*
X113862Y10022D01*
Y7922D01*
X113337Y7398D01*
X112288D01*
X111763Y7922D01*
Y8972D01*
X112813D01*
X127738Y32430D02*
X128263Y31905D01*
Y30856D01*
X127738Y30331D01*
X125639D01*
X125114Y30856D01*
Y31905D01*
X125639Y32430D01*
X126689D01*
Y31380D01*
X125114Y33479D02*
X128263D01*
X125114Y35578D01*
X128263D01*
Y36628D02*
X125114D01*
Y38202D01*
X125639Y38727D01*
X127738D01*
X128263Y38202D01*
Y36628D01*
X128460Y40075D02*
X125311D01*
Y41649D01*
X125836Y42174D01*
X127935D01*
X128460Y41649D01*
Y40075D01*
X125311Y43223D02*
X127410D01*
X128460Y44273D01*
X127410Y45322D01*
X125311D01*
X126885D01*
Y43223D01*
X128460Y46372D02*
Y48471D01*
Y47422D01*
X125311D01*
X142502Y83512D02*
X143026Y82988D01*
Y81938D01*
X142502Y81413D01*
X140403D01*
X139878Y81938D01*
Y82988D01*
X140403Y83512D01*
X141452D01*
Y82463D01*
X139878Y84562D02*
X143026D01*
X139878Y86661D01*
X143026D01*
Y87711D02*
X139878D01*
Y89285D01*
X140403Y89810D01*
X142502D01*
X143026Y89285D01*
Y87711D01*
X143223Y71669D02*
X140075D01*
Y73244D01*
X140600Y73768D01*
X141124D01*
X141649Y73244D01*
Y71669D01*
Y73244D01*
X142174Y73768D01*
X142699D01*
X143223Y73244D01*
Y71669D01*
X140075Y74818D02*
X142174D01*
X143223Y75867D01*
X142174Y76917D01*
X140075D01*
X141649D01*
Y74818D01*
X143223Y77966D02*
Y80066D01*
Y79016D01*
X140075D01*
X140023Y90468D02*
X143171D01*
Y92042D01*
X142647Y92567D01*
X141597D01*
X141072Y92042D01*
Y90468D01*
X142647Y93616D02*
X143171Y94141D01*
Y95191D01*
X142647Y95715D01*
X140548D01*
X140023Y95191D01*
Y94141D01*
X140548Y93616D01*
X142647D01*
X140023Y96765D02*
Y97814D01*
Y97290D01*
X143171D01*
X142647Y96765D01*
X140023Y100310D02*
X143171D01*
Y101884D01*
X142647Y102409D01*
X141597D01*
X141072Y101884D01*
Y100310D01*
X142647Y103459D02*
X143171Y103984D01*
Y105033D01*
X142647Y105558D01*
X140548D01*
X140023Y105033D01*
Y103984D01*
X140548Y103459D01*
X142647D01*
Y106607D02*
X143171Y107132D01*
Y108182D01*
X142647Y108706D01*
X142122D01*
X141597Y108182D01*
Y107657D01*
Y108182D01*
X141072Y108706D01*
X140548D01*
X140023Y108182D01*
Y107132D01*
X140548Y106607D01*
X139924Y131708D02*
X143073D01*
Y133282D01*
X142548Y133807D01*
X141499D01*
X140974Y133282D01*
Y131708D01*
X142548Y134856D02*
X143073Y135381D01*
Y136431D01*
X142548Y136955D01*
X142024D01*
X141499Y136431D01*
Y135906D01*
Y136431D01*
X140974Y136955D01*
X140449D01*
X139924Y136431D01*
Y135381D01*
X140449Y134856D01*
X142548Y138005D02*
X143073Y138530D01*
Y139579D01*
X142548Y140104D01*
X140449D01*
X139924Y139579D01*
Y138530D01*
X140449Y138005D01*
X142548D01*
X139826Y121176D02*
X142975D01*
Y122751D01*
X142450Y123275D01*
X141400D01*
X140875Y122751D01*
Y121176D01*
X142450Y124325D02*
X142975Y124850D01*
Y125899D01*
X142450Y126424D01*
X140351D01*
X139826Y125899D01*
Y124850D01*
X140351Y124325D01*
X142450D01*
X142975Y129573D02*
Y127474D01*
X141400D01*
X141925Y128523D01*
Y129048D01*
X141400Y129573D01*
X140351D01*
X139826Y129048D01*
Y127998D01*
X140351Y127474D01*
X139779Y110744D02*
X142928D01*
Y112318D01*
X142403Y112843D01*
X141354D01*
X140829Y112318D01*
Y110744D01*
X142403Y113893D02*
X142928Y114417D01*
Y115467D01*
X142403Y115992D01*
X140304D01*
X139779Y115467D01*
Y114417D01*
X140304Y113893D01*
X142403D01*
X139779Y118616D02*
X142928D01*
X141354Y117041D01*
Y119140D01*
X128460Y49819D02*
X125311D01*
Y51393D01*
X125836Y51918D01*
X126360D01*
X126885Y51393D01*
Y49819D01*
Y51393D01*
X127410Y51918D01*
X127935D01*
X128460Y51393D01*
Y49819D01*
X125311Y52968D02*
X127410D01*
X128460Y54017D01*
X127410Y55067D01*
X125311D01*
X126885D01*
Y52968D01*
X128460Y56116D02*
Y58215D01*
Y57166D01*
X125311D01*
X137779Y10448D02*
Y7299D01*
X136205D01*
X135680Y7824D01*
Y8349D01*
X136205Y8873D01*
X137779D01*
X136205D01*
X135680Y9398D01*
Y9923D01*
X136205Y10448D01*
X137779D01*
X134631Y7299D02*
Y9398D01*
X133581Y10448D01*
X132532Y9398D01*
Y7299D01*
Y8873D01*
X134631D01*
X131482Y10448D02*
X129383D01*
X130433D01*
Y7299D01*
X124984Y7693D02*
Y10842D01*
X123410D01*
X122885Y10317D01*
Y9267D01*
X123410Y8742D01*
X124984D01*
X123935D02*
X122885Y7693D01*
X56283Y26393D02*
Y23244D01*
X54709D01*
X54184Y23769D01*
Y24294D01*
X54709Y24818D01*
X56283D01*
X54709D01*
X54184Y25343D01*
Y25868D01*
X54709Y26393D01*
X56283D01*
X53135Y23244D02*
Y25343D01*
X52085Y26393D01*
X51036Y25343D01*
Y23244D01*
Y24818D01*
X53135D01*
X49986Y26393D02*
X47887D01*
X48937D01*
Y23244D01*
X44145Y25966D02*
X44670Y26491D01*
X45719D01*
X46244Y25966D01*
Y25442D01*
X45719Y24917D01*
X44670D01*
X44145Y24392D01*
Y23867D01*
X44670Y23343D01*
X45719D01*
X46244Y23867D01*
X43095Y26491D02*
Y23343D01*
X41521D01*
X40996Y23867D01*
Y25966D01*
X41521Y26491D01*
X43095D01*
X39947Y23343D02*
Y25442D01*
X38897Y26491D01*
X37848Y25442D01*
Y23343D01*
Y24917D01*
X39947D01*
X34401Y25868D02*
X34926Y26393D01*
X35975D01*
X36500Y25868D01*
Y23769D01*
X35975Y23244D01*
X34926D01*
X34401Y23769D01*
X33351Y26393D02*
Y23244D01*
X31252D01*
X30203Y26393D02*
Y23244D01*
Y24294D01*
X28104Y26393D01*
X29678Y24818D01*
X28104Y23244D01*
X26264Y23343D02*
Y26491D01*
X24690D01*
X24165Y25966D01*
Y24917D01*
X24690Y24392D01*
X26264D01*
X25214D02*
X24165Y23343D01*
X21016Y26491D02*
X23115D01*
Y23343D01*
X21016D01*
X23115Y24917D02*
X22066D01*
X17867Y25966D02*
X18392Y26491D01*
X19442D01*
X19967Y25966D01*
Y25442D01*
X19442Y24917D01*
X18392D01*
X17867Y24392D01*
Y23867D01*
X18392Y23343D01*
X19442D01*
X19967Y23867D01*
X13928Y25966D02*
X14453Y26491D01*
X15503D01*
X16028Y25966D01*
Y23867D01*
X15503Y23343D01*
X14453D01*
X13928Y23867D01*
Y24917D01*
X14978D01*
X12879Y23343D02*
Y26491D01*
X10780Y23343D01*
Y26491D01*
X9730D02*
Y23343D01*
X8156D01*
X7631Y23867D01*
Y25966D01*
X8156Y26491D01*
X9730D01*
X17603Y66520D02*
Y64421D01*
Y65470D01*
X20752D01*
X17603Y63371D02*
X20752Y61272D01*
X17603D02*
X20752Y63371D01*
X20457Y56283D02*
X17308D01*
Y54709D01*
X17833Y54184D01*
X18882D01*
X19407Y54709D01*
Y56283D01*
Y55234D02*
X20457Y54184D01*
X17308Y53135D02*
X20457Y51036D01*
X17308D02*
X20457Y53135D01*
X17833Y45818D02*
X17308Y46343D01*
Y47392D01*
X17833Y47917D01*
X19932D01*
X20457Y47392D01*
Y46343D01*
X19932Y45818D01*
X18882D01*
Y46868D01*
X20457Y44769D02*
X17308D01*
X20457Y42670D01*
X17308D01*
Y41620D02*
X20457D01*
Y40046D01*
X19932Y39521D01*
X17833D01*
X17308Y40046D01*
Y41620D01*
Y77839D02*
X20457D01*
Y76264D01*
X19932Y75740D01*
X19407D01*
X18882Y76264D01*
Y77839D01*
Y76264D01*
X18358Y75740D01*
X17833D01*
X17308Y76264D01*
Y77839D01*
X18358Y74165D02*
Y73116D01*
X18882Y72591D01*
X20457D01*
Y74165D01*
X19932Y74690D01*
X19407Y74165D01*
Y72591D01*
X17833Y71017D02*
X18358D01*
Y71541D01*
Y70492D01*
Y71017D01*
X19932D01*
X20457Y70492D01*
X105313Y128240D02*
X105838Y128765D01*
X106888D01*
X107412Y128240D01*
Y126141D01*
X106888Y125616D01*
X105838D01*
X105313Y126141D01*
Y127191D01*
X106363D01*
X104264Y125616D02*
Y128765D01*
X102165Y125616D01*
Y128765D01*
X101115D02*
Y125616D01*
X99541D01*
X99016Y126141D01*
Y128240D01*
X99541Y128765D01*
X101115D01*
X85188Y129116D02*
X85713Y129641D01*
X86763D01*
X87287Y129116D01*
Y127017D01*
X86763Y126492D01*
X85713D01*
X85188Y127017D01*
Y128066D01*
X86238D01*
X84139Y126492D02*
Y129641D01*
X82040Y126492D01*
Y129641D01*
X80990D02*
Y126492D01*
X79416D01*
X78891Y127017D01*
Y129116D01*
X79416Y129641D01*
X80990D01*
X75673D02*
Y126492D01*
X74099D01*
X73574Y127017D01*
Y127542D01*
X74099Y128066D01*
X75673D01*
X74099D01*
X73574Y128591D01*
Y129116D01*
X74099Y129641D01*
X75673D01*
X72000Y128591D02*
X70950D01*
X70426Y128066D01*
Y126492D01*
X72000D01*
X72525Y127017D01*
X72000Y127542D01*
X70426D01*
X68851Y129116D02*
Y128591D01*
X69376D01*
X68326D01*
X68851D01*
Y127017D01*
X68326Y126492D01*
X54905Y129739D02*
Y126591D01*
X53331D01*
X52806Y127115D01*
Y127640D01*
X53331Y128165D01*
X54905D01*
X53331D01*
X52806Y128690D01*
Y129214D01*
X53331Y129739D01*
X54905D01*
X51232Y128690D02*
X50183D01*
X49658Y128165D01*
Y126591D01*
X51232D01*
X51757Y127115D01*
X51232Y127640D01*
X49658D01*
X48084Y129214D02*
Y128690D01*
X48608D01*
X47559D01*
X48084D01*
Y127115D01*
X47559Y126591D01*
X45358Y129149D02*
Y127050D01*
X44309Y126000D01*
X43259Y127050D01*
Y129149D01*
X40111Y128624D02*
X40635Y129149D01*
X41685D01*
X42210Y128624D01*
Y126525D01*
X41685Y126000D01*
X40635D01*
X40111Y126525D01*
X36962Y128624D02*
X37487Y129149D01*
X38536D01*
X39061Y128624D01*
Y126525D01*
X38536Y126000D01*
X37487D01*
X36962Y126525D01*
X117209Y128755D02*
Y125606D01*
X115634D01*
X115110Y126131D01*
Y126656D01*
X115634Y127181D01*
X117209D01*
X115634D01*
X115110Y127705D01*
Y128230D01*
X115634Y128755D01*
X117209D01*
X113535Y127705D02*
X112486D01*
X111961Y127181D01*
Y125606D01*
X113535D01*
X114060Y126131D01*
X113535Y126656D01*
X111961D01*
X110387Y128230D02*
Y127705D01*
X110912D01*
X109862D01*
X110387D01*
Y126131D01*
X109862Y125606D01*
X121539Y122948D02*
Y119799D01*
X119965D01*
X119440Y120324D01*
Y120849D01*
X119965Y121373D01*
X121539D01*
X119965D01*
X119440Y121898D01*
Y122423D01*
X119965Y122948D01*
X121539D01*
X117866Y121898D02*
X116816D01*
X116292Y121373D01*
Y119799D01*
X117866D01*
X118391Y120324D01*
X117866Y120849D01*
X116292D01*
X114717Y122423D02*
Y121898D01*
X115242D01*
X114193D01*
X114717D01*
Y120324D01*
X114193Y119799D01*
X107896D02*
X108945D01*
X109470Y120324D01*
Y121373D01*
X108945Y121898D01*
X107896D01*
X107371Y121373D01*
Y120849D01*
X109470D01*
X106321Y121898D02*
X104222Y119799D01*
X105272Y120849D01*
X104222Y121898D01*
X106321Y119799D01*
X102648Y122423D02*
Y121898D01*
X103173D01*
X102123D01*
X102648D01*
Y120324D01*
X102123Y119799D01*
X98975D02*
X100024D01*
X100549Y120324D01*
Y121373D01*
X100024Y121898D01*
X98975D01*
X98450Y121373D01*
Y120849D01*
X100549D01*
X97400Y119799D02*
Y121898D01*
X95826D01*
X95301Y121373D01*
Y119799D01*
X92153Y122948D02*
Y119799D01*
X93727D01*
X94252Y120324D01*
Y121373D01*
X93727Y121898D01*
X92153D01*
X89529Y119799D02*
X90578D01*
X91103Y120324D01*
Y121373D01*
X90578Y121898D01*
X89529D01*
X89004Y121373D01*
Y120849D01*
X91103D01*
X87954Y121898D02*
Y119799D01*
Y120849D01*
X87430Y121373D01*
X86905Y121898D01*
X86380D01*
D17*
X14027Y80253D02*
Y79087D01*
Y79670D01*
X10528D01*
X11111Y80253D01*
X13927Y37504D02*
X10428D01*
X12177Y39254D01*
Y36921D01*
X120557Y137333D02*
X118458D01*
X120557Y135234D01*
Y134709D01*
X120033Y134185D01*
X118983D01*
X118458Y134709D01*
X98058Y136833D02*
X99108D01*
X98583D01*
Y133685D01*
X98058Y134209D01*
X58192Y137136D02*
X55860D01*
X58192Y134804D01*
Y134221D01*
X57609Y133637D01*
X56443D01*
X55860Y134221D01*
X35460Y136636D02*
X36626D01*
X36043D01*
Y133137D01*
X35460Y133721D01*
X133076Y60220D02*
X133601Y60745D01*
Y61795D01*
X133076Y62319D01*
X132551D01*
X132026Y61795D01*
Y61270D01*
Y61795D01*
X131501Y62319D01*
X130977D01*
X130452Y61795D01*
Y60745D01*
X130977Y60220D01*
X131052Y27621D02*
Y28670D01*
Y28145D01*
X134201D01*
X133676Y27621D01*
X97207Y19834D02*
X98373D01*
X97790D01*
Y16335D01*
X97207Y16918D01*
X139956Y19734D02*
Y16235D01*
X138207Y17984D01*
X140540D01*
X66759Y17640D02*
X67809D01*
X67284D01*
Y14492D01*
X66759Y15016D01*
X89258Y18140D02*
X87159D01*
X89258Y16041D01*
Y15516D01*
X88733Y14992D01*
X87684D01*
X87159Y15516D01*
X66254Y133533D02*
X68353D01*
X66254Y135632D01*
Y136157D01*
X66778Y136682D01*
X67828D01*
X68353Y136157D01*
X88753Y134033D02*
X87703D01*
X88228D01*
Y137182D01*
X88753Y136657D01*
X5539Y18034D02*
X6588D01*
X6063D01*
Y14885D01*
X5539Y15410D01*
X58001Y15485D02*
X55902D01*
Y17060D01*
X56952Y16535D01*
X57477D01*
X58001Y17060D01*
Y18109D01*
X57477Y18634D01*
X56427D01*
X55902Y18109D01*
D18*
X91732Y24606D02*
X91076D01*
X91404D01*
Y22638D01*
X91732D01*
X91076D01*
X88780D02*
X90092D01*
X88780Y23950D01*
Y24278D01*
X89109Y24606D01*
X89764D01*
X90092Y24278D01*
X86813D02*
X87141Y24606D01*
X87797D01*
X88125Y24278D01*
Y22966D01*
X87797Y22638D01*
X87141D01*
X86813Y22966D01*
X82877Y24278D02*
X83205Y24606D01*
X83861D01*
X84189Y24278D01*
Y23950D01*
X83861Y23622D01*
X83205D01*
X82877Y23294D01*
Y22966D01*
X83205Y22638D01*
X83861D01*
X84189Y22966D01*
X80909Y24278D02*
X81237Y24606D01*
X81893D01*
X82221Y24278D01*
Y22966D01*
X81893Y22638D01*
X81237D01*
X80909Y22966D01*
X80253Y24606D02*
Y22638D01*
X78941D01*
X77953Y24606D02*
X77297D01*
X77625D01*
Y22638D01*
X77953D01*
X77297D01*
X75001D02*
X76313D01*
X75001Y23950D01*
Y24278D01*
X75329Y24606D01*
X75985D01*
X76313Y24278D01*
X73033D02*
X73361Y24606D01*
X74017D01*
X74345Y24278D01*
Y22966D01*
X74017Y22638D01*
X73361D01*
X73033Y22966D01*
X69097Y24278D02*
X69425Y24606D01*
X70081D01*
X70409Y24278D01*
Y23950D01*
X70081Y23622D01*
X69425D01*
X69097Y23294D01*
Y22966D01*
X69425Y22638D01*
X70081D01*
X70409Y22966D01*
X68441Y24606D02*
Y22638D01*
X67457D01*
X67129Y22966D01*
Y24278D01*
X67457Y24606D01*
X68441D01*
X66474Y22638D02*
Y23950D01*
X65818Y24606D01*
X65162Y23950D01*
Y22638D01*
Y23622D01*
X66474D01*
D47*
X7321Y49311D02*
X15194D01*
X7220Y59153D02*
X15094D01*
X7321Y68996D02*
X15194D01*
X129787Y129823D02*
X137661D01*
X129787Y119980D02*
X137661D01*
X130181Y110138D02*
X138055D01*
X129787Y100295D02*
X137661D01*
X129787Y90453D02*
X137661D01*
X129787Y80610D02*
X137661D01*
X108858Y131927D02*
Y139801D01*
X46260Y131730D02*
Y139604D01*
X129884Y38878D02*
X137758D01*
X129984Y48720D02*
X137858D01*
X128150Y13128D02*
Y21002D01*
X118307Y13028D02*
Y20902D01*
X108465Y13128D02*
Y21002D01*
X77559Y12734D02*
Y20608D01*
X77953Y131065D02*
Y138939D01*
X45866Y13128D02*
Y21002D01*
X36024Y13128D02*
Y21002D01*
X26181Y13028D02*
Y20902D01*
X16339Y13128D02*
Y21002D01*
M02*
