G04*
G04 #@! TF.GenerationSoftware,Altium Limited,Altium Designer,21.0.8 (223)*
G04*
G04 Layer_Color=2752767*
%FSLAX25Y25*%
%MOIN*%
G70*
G04*
G04 #@! TF.SameCoordinates,8682EA25-DCF7-411F-8805-334446643B85*
G04*
G04*
G04 #@! TF.FilePolarity,Positive*
G04*
G01*
G75*
%ADD59C,0.00200*%
%ADD60C,0.00267*%
D59*
X10027Y73117D02*
Y74717D01*
X11627D01*
Y73117D01*
X10027D01*
Y63275D02*
Y64875D01*
X11627D01*
Y63275D01*
X10027D01*
Y53432D02*
Y55032D01*
X11627D01*
Y53432D01*
X10027D01*
Y43590D02*
Y45190D01*
X11627D01*
Y43590D01*
X10027D01*
X133058Y104417D02*
Y106017D01*
X134658D01*
Y104417D01*
X133058D01*
Y94574D02*
Y96174D01*
X134658D01*
Y94574D01*
X133058D01*
Y84732D02*
Y86331D01*
X134658D01*
Y84732D01*
X133058D01*
Y74889D02*
Y76489D01*
X134658D01*
Y74889D01*
X133058D01*
Y114259D02*
Y115859D01*
X134658D01*
Y114259D01*
X133058D01*
Y124102D02*
Y125702D01*
X134658D01*
Y124102D01*
X133058D01*
Y133944D02*
Y135544D01*
X134658D01*
Y133944D01*
X133058D01*
X112979Y134633D02*
Y136233D01*
X114579D01*
Y134633D01*
X112979D01*
X103137D02*
Y136233D01*
X104737D01*
Y134633D01*
X103137D01*
X50381Y134436D02*
Y136036D01*
X51981D01*
Y134436D01*
X50381D01*
X40539D02*
Y136036D01*
X42139D01*
Y134436D01*
X40539D01*
X133452Y52842D02*
Y54442D01*
X135052D01*
Y52842D01*
X133452D01*
Y42999D02*
Y44599D01*
X135052D01*
Y42999D01*
X133452D01*
Y33157D02*
Y34757D01*
X135052D01*
Y33157D01*
X133452D01*
X102743Y15834D02*
Y17434D01*
X104343D01*
Y15834D01*
X102743D01*
X112586D02*
Y17434D01*
X114186D01*
Y15834D01*
X112586D01*
X122428D02*
Y17434D01*
X124028D01*
Y15834D01*
X122428D01*
X132271D02*
Y17434D01*
X133871D01*
Y15834D01*
X132271D01*
X71838Y15440D02*
Y17040D01*
X73438D01*
Y15440D01*
X71838D01*
X81680D02*
Y17040D01*
X83280D01*
Y15440D01*
X81680D01*
X72232Y134633D02*
Y136233D01*
X73831D01*
Y134633D01*
X72232D01*
X82074D02*
Y136233D01*
X83674D01*
Y134633D01*
X82074D01*
X49987Y15834D02*
Y17434D01*
X51587D01*
Y15834D01*
X49987D01*
X10617D02*
Y17434D01*
X12217D01*
Y15834D01*
X10617D01*
X20460D02*
Y17434D01*
X22060D01*
Y15834D01*
X20460D01*
X30302D02*
Y17434D01*
X31902D01*
Y15834D01*
X30302D01*
X40145D02*
Y17434D01*
X41745D01*
Y15834D01*
X40145D01*
X50098Y35224D02*
X49298Y36824D01*
X50898D01*
X50098Y35224D01*
Y43098D02*
X49298Y44698D01*
X50898D01*
X50098Y43098D01*
X51968Y62586D02*
X51169Y64186D01*
X52768D01*
X51968Y62586D01*
X44094D02*
X43295Y64186D01*
X44894D01*
X44094Y62586D01*
X13386Y136306D02*
X13786Y136706D01*
X14186D01*
X13786Y137106D01*
X14186Y137506D01*
X13786D01*
X13386Y137906D01*
X12986Y137506D01*
X12586D01*
X12986Y137106D01*
X12586Y136706D01*
X12986D01*
X13386Y136306D01*
X78826Y34732D02*
X79226Y35531D01*
X78826Y36331D01*
X79626Y35932D01*
X80426Y36331D01*
X80026Y35531D01*
X80426Y34732D01*
X79626Y35131D01*
X78826Y34732D01*
X102793Y98265D02*
X103192Y99065D01*
X102793Y99865D01*
X103593Y99465D01*
X104393Y99865D01*
X103992Y99065D01*
X104393Y98265D01*
X103593Y98665D01*
X102793Y98265D01*
X65391Y58797D02*
X65791Y59597D01*
X65391Y60396D01*
X66191Y59996D01*
X66991Y60396D01*
X66591Y59597D01*
X66991Y58797D01*
X66191Y59197D01*
X65391Y58797D01*
X94279Y51464D02*
X94679Y52264D01*
X94279Y53064D01*
X95079Y52664D01*
X95879Y53064D01*
X95479Y52264D01*
X95879Y51464D01*
X95079Y51864D01*
X94279Y51464D01*
X106287Y75578D02*
X106687Y76378D01*
X106287Y77178D01*
X107087Y76778D01*
X107887Y77178D01*
X107487Y76378D01*
X107887Y75578D01*
X107087Y75978D01*
X106287Y75578D01*
X103137Y101169D02*
X103537Y101969D01*
X103137Y102769D01*
X103937Y102368D01*
X104737Y102769D01*
X104337Y101969D01*
X104737Y101169D01*
X103937Y101568D01*
X103137Y101169D01*
X65539Y26365D02*
X65939Y27165D01*
X65539Y27965D01*
X66339Y27565D01*
X67139Y27965D01*
X66739Y27165D01*
X67139Y26365D01*
X66339Y26765D01*
X65539Y26365D01*
X101956Y93295D02*
X102356Y94095D01*
X101956Y94894D01*
X102756Y94494D01*
X103556Y94894D01*
X103156Y94095D01*
X103556Y93295D01*
X102756Y93695D01*
X101956Y93295D01*
X87108Y97513D02*
X87508Y98313D01*
X87108Y99113D01*
X87908Y98713D01*
X88708Y99113D01*
X88308Y98313D01*
X88708Y97513D01*
X87908Y97913D01*
X87108Y97513D01*
X117507Y24791D02*
X117907Y25591D01*
X117507Y26391D01*
X118307Y25991D01*
X119107Y26391D01*
X118707Y25591D01*
X119107Y24791D01*
X118307Y25190D01*
X117507Y24791D01*
X118491Y8649D02*
X118891Y9449D01*
X118491Y10249D01*
X119291Y9849D01*
X120091Y10249D01*
X119691Y9449D01*
X120091Y8649D01*
X119291Y9049D01*
X118491Y8649D01*
D60*
X7216Y138573D02*
G03*
X7216Y138573I-800J0D01*
G01*
X22177D02*
G03*
X22177Y138573I-800J0D01*
G01*
Y104557D02*
G03*
X22177Y104557I-800J0D01*
G01*
X7216D02*
G03*
X7216Y104557I-800J0D01*
G01*
M02*
