G04*
G04 #@! TF.GenerationSoftware,Altium Limited,Altium Designer,21.0.8 (223)*
G04*
G04 Layer_Color=255*
%FSLAX25Y25*%
%MOIN*%
G70*
G04*
G04 #@! TF.SameCoordinates,8682EA25-DCF7-411F-8805-334446643B85*
G04*
G04*
G04 #@! TF.FilePolarity,Positive*
G04*
G01*
G75*
%ADD19R,0.01968X0.01968*%
%ADD20R,0.02756X0.03347*%
%ADD21R,0.07087X0.02559*%
%ADD22O,0.07087X0.02559*%
%ADD23R,0.05906X0.06299*%
%ADD24R,0.01968X0.01968*%
%ADD25R,0.06299X0.01575*%
%ADD48R,0.07874X0.07874*%
%ADD49C,0.07874*%
%ADD50C,0.07087*%
%ADD51R,0.07087X0.07087*%
%ADD52R,0.07874X0.07874*%
G04:AMPARAMS|DCode=53|XSize=55.12mil|YSize=19.68mil|CornerRadius=4.92mil|HoleSize=0mil|Usage=FLASHONLY|Rotation=0.000|XOffset=0mil|YOffset=0mil|HoleType=Round|Shape=RoundedRectangle|*
%AMROUNDEDRECTD53*
21,1,0.05512,0.00984,0,0,0.0*
21,1,0.04528,0.01968,0,0,0.0*
1,1,0.00984,0.02264,-0.00492*
1,1,0.00984,-0.02264,-0.00492*
1,1,0.00984,-0.02264,0.00492*
1,1,0.00984,0.02264,0.00492*
%
%ADD53ROUNDEDRECTD53*%
%ADD54R,0.03937X0.03937*%
%ADD55C,0.03937*%
%ADD56R,0.03937X0.03937*%
D19*
X35630Y101476D02*
D03*
X38780D02*
D03*
Y110236D02*
D03*
X35630D02*
D03*
X76575Y101870D02*
D03*
X79724D02*
D03*
Y106102D02*
D03*
X76575D02*
D03*
X35630Y114665D02*
D03*
X38780D02*
D03*
Y118996D02*
D03*
X35630D02*
D03*
X66535Y30807D02*
D03*
X63386D02*
D03*
X99213Y59153D02*
D03*
X96063D02*
D03*
X88583D02*
D03*
X91732D02*
D03*
X84252D02*
D03*
X81102D02*
D03*
X66535Y35531D02*
D03*
X63386D02*
D03*
X98425Y31201D02*
D03*
X95276D02*
D03*
X90945D02*
D03*
X87795D02*
D03*
X83465D02*
D03*
X80315D02*
D03*
X75197D02*
D03*
X72047D02*
D03*
X62992Y54823D02*
D03*
X66142D02*
D03*
X79528Y119390D02*
D03*
X76378D02*
D03*
X76476Y114764D02*
D03*
X79626D02*
D03*
X35630Y105905D02*
D03*
X38780D02*
D03*
D20*
X62500Y121555D02*
D03*
X71555D02*
D03*
D21*
X47343Y114094D02*
D03*
X75591Y52480D02*
D03*
D22*
X47343Y109095D02*
D03*
Y104095D02*
D03*
Y99094D02*
D03*
X69390Y114094D02*
D03*
Y109095D02*
D03*
Y104095D02*
D03*
Y99094D02*
D03*
X97638Y37480D02*
D03*
Y42480D02*
D03*
Y47480D02*
D03*
Y52480D02*
D03*
X75591Y37480D02*
D03*
Y42480D02*
D03*
Y47480D02*
D03*
D23*
X77658Y90158D02*
D03*
X63878D02*
D03*
X40846Y90256D02*
D03*
X54626D02*
D03*
D24*
X62598Y47343D02*
D03*
Y50492D02*
D03*
Y39862D02*
D03*
Y43012D02*
D03*
X66929D02*
D03*
Y39862D02*
D03*
Y47343D02*
D03*
Y50492D02*
D03*
D25*
X120079Y114764D02*
D03*
Y112205D02*
D03*
Y109646D02*
D03*
Y107087D02*
D03*
Y104528D02*
D03*
Y101969D02*
D03*
Y99410D02*
D03*
Y96850D02*
D03*
Y94291D02*
D03*
Y91732D02*
D03*
X97244Y114764D02*
D03*
Y112205D02*
D03*
Y109646D02*
D03*
Y107087D02*
D03*
Y96850D02*
D03*
Y91732D02*
D03*
Y94291D02*
D03*
Y99410D02*
D03*
Y101969D02*
D03*
Y104528D02*
D03*
D48*
X10827Y73917D02*
D03*
X134252Y33957D02*
D03*
D49*
X10827Y64075D02*
D03*
Y54232D02*
D03*
Y44390D02*
D03*
X113779Y135433D02*
D03*
X51181Y135236D02*
D03*
X134252Y53642D02*
D03*
Y43799D02*
D03*
X113386Y16634D02*
D03*
X123228D02*
D03*
X133071D02*
D03*
X82480Y16240D02*
D03*
X73032Y135433D02*
D03*
X50787Y16634D02*
D03*
X21260D02*
D03*
X31102D02*
D03*
X40945D02*
D03*
D50*
X133858Y105217D02*
D03*
Y95374D02*
D03*
Y85532D02*
D03*
Y115059D02*
D03*
Y124902D02*
D03*
Y134744D02*
D03*
D51*
Y75689D02*
D03*
D52*
X103937Y135433D02*
D03*
X41339Y135236D02*
D03*
X103543Y16634D02*
D03*
X72638Y16240D02*
D03*
X82874Y135433D02*
D03*
X11417Y16634D02*
D03*
D53*
X6416Y138573D02*
D03*
X21377D02*
D03*
Y104557D02*
D03*
X6416D02*
D03*
D54*
X50098Y36024D02*
D03*
D55*
Y43898D02*
D03*
X51968Y63386D02*
D03*
D56*
X44094D02*
D03*
M02*
