G04*
G04 #@! TF.GenerationSoftware,Altium Limited,Altium Designer,20.1.14 (287)*
G04*
G04 Layer_Color=16711935*
%FSLAX25Y25*%
%MOIN*%
G70*
G04*
G04 #@! TF.SameCoordinates,3184D8B6-75A7-45C6-B4AC-6B65BD642244*
G04*
G04*
G04 #@! TF.FilePolarity,Negative*
G04*
G01*
G75*
%ADD75C,0.08674*%
%ADD76P,0.12267X4X250.0*%
%ADD77P,0.12267X4X360.0*%
%ADD78P,0.12267X4X120.0*%
%ADD80P,0.12267X4X90.0*%
%ADD81C,0.07887*%
%ADD82P,0.11153X4X295.0*%
%ADD83P,0.12267X4X150.0*%
%ADD84R,0.06706X0.06706*%
%ADD85C,0.06706*%
%ADD86C,0.12611*%
G04:AMPARAMS|DCode=114|XSize=70.87mil|YSize=102.36mil|CornerRadius=0mil|HoleSize=0mil|Usage=FLASHONLY|Rotation=315.000|XOffset=0mil|YOffset=0mil|HoleType=Round|Shape=Round|*
%AMOVALD114*
21,1,0.03150,0.07087,0.00000,0.00000,45.0*
1,1,0.07087,-0.01114,-0.01114*
1,1,0.07087,0.01114,0.01114*
%
%ADD114OVALD114*%

G04:AMPARAMS|DCode=115|XSize=70.87mil|YSize=102.36mil|CornerRadius=0mil|HoleSize=0mil|Usage=FLASHONLY|Rotation=45.000|XOffset=0mil|YOffset=0mil|HoleType=Round|Shape=Round|*
%AMOVALD115*
21,1,0.03150,0.07087,0.00000,0.00000,135.0*
1,1,0.07087,0.01114,-0.01114*
1,1,0.07087,-0.01114,0.01114*
%
%ADD115OVALD115*%

D75*
X216785Y56500D02*
D03*
X212558Y65563D02*
D03*
X221011Y47437D02*
D03*
X207496Y22456D02*
D03*
X183281Y24282D02*
D03*
X173622Y26870D02*
D03*
X254323Y246858D02*
D03*
X-3157Y249599D02*
D03*
X81208Y53656D02*
D03*
X72827Y40376D02*
D03*
X85074Y33305D02*
D03*
X75415Y30716D02*
D03*
X65756Y28128D02*
D03*
X63168Y37788D02*
D03*
X56097Y25540D02*
D03*
X53508Y35199D02*
D03*
X7094Y12591D02*
D03*
D76*
X225237Y38374D02*
D03*
D77*
X214567Y29528D02*
D03*
X-10228Y242528D02*
D03*
D78*
X163963Y29458D02*
D03*
D80*
X247252Y253929D02*
D03*
X14165Y5520D02*
D03*
D81*
X21328Y48725D02*
D03*
X24695Y57974D02*
D03*
X28061Y67223D02*
D03*
X31427Y76472D02*
D03*
X17962Y39476D02*
D03*
D82*
X34794Y85721D02*
D03*
D83*
X71548Y51068D02*
D03*
X82486Y42964D02*
D03*
D84*
X199091Y79020D02*
D03*
D85*
X189091D02*
D03*
X199091Y89020D02*
D03*
X189091D02*
D03*
X199091Y99020D02*
D03*
X189091D02*
D03*
X199091Y109020D02*
D03*
X189091D02*
D03*
X199091Y119020D02*
D03*
X189091D02*
D03*
D86*
X142126Y112992D02*
D03*
X127215Y96309D02*
D03*
X136221Y153150D02*
D03*
X111417Y132677D02*
D03*
X194882Y132283D02*
D03*
X74803Y98032D02*
D03*
Y116535D02*
D03*
X225590Y232283D02*
D03*
X194488Y171653D02*
D03*
Y153543D02*
D03*
X225590Y213386D02*
D03*
D114*
X304323Y300401D02*
D03*
X297252Y307472D02*
D03*
X-67709Y-59850D02*
D03*
X-60638Y-66921D02*
D03*
D115*
X-61827Y306284D02*
D03*
X-68898Y299213D02*
D03*
X301583Y-70465D02*
D03*
X308654Y-63394D02*
D03*
M02*
