G04*
G04 #@! TF.GenerationSoftware,Altium Limited,Altium Designer,20.1.14 (287)*
G04*
G04 Layer_Color=255*
%FSLAX25Y25*%
%MOIN*%
G70*
G04*
G04 #@! TF.SameCoordinates,3184D8B6-75A7-45C6-B4AC-6B65BD642244*
G04*
G04*
G04 #@! TF.FilePolarity,Positive*
G04*
G01*
G75*
%ADD27R,0.03543X0.03543*%
G04:AMPARAMS|DCode=28|XSize=9.06mil|YSize=31.5mil|CornerRadius=2.26mil|HoleSize=0mil|Usage=FLASHONLY|Rotation=270.000|XOffset=0mil|YOffset=0mil|HoleType=Round|Shape=RoundedRectangle|*
%AMROUNDEDRECTD28*
21,1,0.00906,0.02697,0,0,270.0*
21,1,0.00453,0.03150,0,0,270.0*
1,1,0.00453,-0.01348,-0.00226*
1,1,0.00453,-0.01348,0.00226*
1,1,0.00453,0.01348,0.00226*
1,1,0.00453,0.01348,-0.00226*
%
%ADD28ROUNDEDRECTD28*%
G04:AMPARAMS|DCode=29|XSize=9.06mil|YSize=31.5mil|CornerRadius=2.26mil|HoleSize=0mil|Usage=FLASHONLY|Rotation=180.000|XOffset=0mil|YOffset=0mil|HoleType=Round|Shape=RoundedRectangle|*
%AMROUNDEDRECTD29*
21,1,0.00906,0.02697,0,0,180.0*
21,1,0.00453,0.03150,0,0,180.0*
1,1,0.00453,-0.00226,0.01348*
1,1,0.00453,0.00226,0.01348*
1,1,0.00453,0.00226,-0.01348*
1,1,0.00453,-0.00226,-0.01348*
%
%ADD29ROUNDEDRECTD29*%
G04:AMPARAMS|DCode=30|XSize=157.48mil|YSize=157.48mil|CornerRadius=3.94mil|HoleSize=0mil|Usage=FLASHONLY|Rotation=0.000|XOffset=0mil|YOffset=0mil|HoleType=Round|Shape=RoundedRectangle|*
%AMROUNDEDRECTD30*
21,1,0.15748,0.14961,0,0,0.0*
21,1,0.14961,0.15748,0,0,0.0*
1,1,0.00787,0.07480,-0.07480*
1,1,0.00787,-0.07480,-0.07480*
1,1,0.00787,-0.07480,0.07480*
1,1,0.00787,0.07480,0.07480*
%
%ADD30ROUNDEDRECTD30*%
%ADD31R,0.03543X0.03543*%
%ADD32R,0.06299X0.05906*%
%ADD33R,0.03347X0.03937*%
G04:AMPARAMS|DCode=34|XSize=39.37mil|YSize=39.37mil|CornerRadius=0mil|HoleSize=0mil|Usage=FLASHONLY|Rotation=225.000|XOffset=0mil|YOffset=0mil|HoleType=Round|Shape=Rectangle|*
%AMROTATEDRECTD34*
4,1,4,0.00000,0.02784,0.02784,0.00000,0.00000,-0.02784,-0.02784,0.00000,0.00000,0.02784,0.0*
%
%ADD34ROTATEDRECTD34*%

%ADD35P,0.05011X4X180.0*%
%ADD36R,0.09843X0.13386*%
%ADD37R,0.03740X0.07480*%
%ADD38R,0.26772X0.27165*%
G04:AMPARAMS|DCode=39|XSize=39.37mil|YSize=39.37mil|CornerRadius=0mil|HoleSize=0mil|Usage=FLASHONLY|Rotation=315.000|XOffset=0mil|YOffset=0mil|HoleType=Round|Shape=Rectangle|*
%AMROTATEDRECTD39*
4,1,4,-0.02784,0.00000,0.00000,0.02784,0.02784,0.00000,0.00000,-0.02784,-0.02784,0.00000,0.0*
%
%ADD39ROTATEDRECTD39*%

%ADD40R,0.03937X0.03937*%
%ADD41R,0.09055X0.09843*%
%ADD42R,0.04724X0.08661*%
%ADD43R,0.14173X0.08661*%
%ADD44P,0.05011X4X90.0*%
%ADD45R,0.06299X0.03543*%
%ADD46R,0.07087X0.16142*%
%ADD47P,0.05011X4X300.0*%
%ADD48R,0.04803X0.15748*%
%ADD49R,0.37008X0.32677*%
%ADD79C,0.07087*%
%ADD97C,0.07874*%
%ADD98P,0.11136X4X250.0*%
%ADD99P,0.11136X4X360.0*%
%ADD100P,0.11136X4X120.0*%
%ADD101C,0.06693*%
%ADD102P,0.11136X4X90.0*%
%ADD103P,0.10022X4X295.0*%
%ADD104P,0.11136X4X150.0*%
%ADD105R,0.05906X0.05906*%
%ADD106C,0.05906*%
%ADD107C,0.11811*%
D27*
X113779Y79724D02*
D03*
Y85630D02*
D03*
X109449Y79724D02*
D03*
Y85630D02*
D03*
X104724Y79724D02*
D03*
Y85630D02*
D03*
X123622Y80905D02*
D03*
Y86811D02*
D03*
X127953D02*
D03*
Y80905D02*
D03*
X132283Y86811D02*
D03*
Y80905D02*
D03*
X136516Y88779D02*
D03*
Y82874D02*
D03*
X141831Y82776D02*
D03*
Y88681D02*
D03*
X146457Y88779D02*
D03*
Y82874D02*
D03*
X159449Y54035D02*
D03*
Y59941D02*
D03*
X163779Y54035D02*
D03*
Y59941D02*
D03*
X168110D02*
D03*
Y54035D02*
D03*
X172441D02*
D03*
Y59941D02*
D03*
Y41339D02*
D03*
Y47244D02*
D03*
X168110Y47244D02*
D03*
Y41339D02*
D03*
X163779Y47244D02*
D03*
Y41339D02*
D03*
X159449Y47244D02*
D03*
Y41339D02*
D03*
X155118Y47244D02*
D03*
Y41339D02*
D03*
X142323Y42323D02*
D03*
Y36417D02*
D03*
X136811Y42224D02*
D03*
Y36319D02*
D03*
X129921D02*
D03*
Y42224D02*
D03*
X119685Y40157D02*
D03*
Y34252D02*
D03*
X115354D02*
D03*
Y40157D02*
D03*
X110630D02*
D03*
Y34252D02*
D03*
X106299D02*
D03*
Y40157D02*
D03*
X101969D02*
D03*
Y34252D02*
D03*
X110039Y52362D02*
D03*
Y46457D02*
D03*
X105709D02*
D03*
Y52362D02*
D03*
X101378D02*
D03*
Y46457D02*
D03*
X97047Y52362D02*
D03*
Y46457D02*
D03*
X92716D02*
D03*
Y52362D02*
D03*
X110630Y67913D02*
D03*
Y62008D02*
D03*
X106299Y67913D02*
D03*
Y62008D02*
D03*
X101969D02*
D03*
Y67913D02*
D03*
X97638Y62008D02*
D03*
Y67913D02*
D03*
X93307D02*
D03*
Y62008D02*
D03*
X75590Y80905D02*
D03*
Y86811D02*
D03*
D28*
X143701Y64961D02*
D03*
Y63386D02*
D03*
Y61811D02*
D03*
Y60236D02*
D03*
Y58661D02*
D03*
Y66535D02*
D03*
Y68110D02*
D03*
Y69685D02*
D03*
Y71260D02*
D03*
Y57087D02*
D03*
Y55512D02*
D03*
Y53937D02*
D03*
X120079D02*
D03*
Y55512D02*
D03*
Y57087D02*
D03*
Y58661D02*
D03*
Y60236D02*
D03*
Y61811D02*
D03*
Y63386D02*
D03*
Y69685D02*
D03*
Y68110D02*
D03*
Y66535D02*
D03*
Y64961D02*
D03*
Y71260D02*
D03*
D29*
X140551Y50787D02*
D03*
X132677D02*
D03*
X134252D02*
D03*
X135827D02*
D03*
X137402D02*
D03*
X138976D02*
D03*
X124803D02*
D03*
X123228D02*
D03*
X126378D02*
D03*
X127953D02*
D03*
X129528D02*
D03*
X131102D02*
D03*
X132677Y74409D02*
D03*
X134252D02*
D03*
X135827D02*
D03*
X137402D02*
D03*
X140551D02*
D03*
X138976D02*
D03*
X124803D02*
D03*
X126378D02*
D03*
X127953D02*
D03*
X129528D02*
D03*
X131102D02*
D03*
X123228D02*
D03*
D30*
X131890Y62598D02*
D03*
D31*
X161024Y92520D02*
D03*
X155118D02*
D03*
X161024Y88189D02*
D03*
X155118D02*
D03*
X161024Y83858D02*
D03*
X155118D02*
D03*
X161024Y79528D02*
D03*
X155118D02*
D03*
X161024Y75197D02*
D03*
X155118D02*
D03*
X161024Y68110D02*
D03*
X155118D02*
D03*
X95866Y158268D02*
D03*
X101772D02*
D03*
Y162992D02*
D03*
X95866D02*
D03*
X112402Y157874D02*
D03*
X118307D02*
D03*
Y162992D02*
D03*
X112402D02*
D03*
X123425Y158071D02*
D03*
X129331D02*
D03*
Y162992D02*
D03*
X123425D02*
D03*
X157283Y163386D02*
D03*
X163189D02*
D03*
X145472Y162992D02*
D03*
X151378D02*
D03*
Y158268D02*
D03*
X145472D02*
D03*
X163189D02*
D03*
X157283D02*
D03*
X174606D02*
D03*
X180512D02*
D03*
Y162992D02*
D03*
X174606D02*
D03*
X212008Y201575D02*
D03*
X206102D02*
D03*
X222638Y201575D02*
D03*
X216732D02*
D03*
X222638Y196850D02*
D03*
X216732D02*
D03*
X201378Y201575D02*
D03*
X195472D02*
D03*
X84842Y187008D02*
D03*
X78937D02*
D03*
Y191732D02*
D03*
X84842D02*
D03*
X78740Y200394D02*
D03*
X84646D02*
D03*
X78937Y196063D02*
D03*
X84842D02*
D03*
X63583Y187008D02*
D03*
X69488D02*
D03*
Y191732D02*
D03*
X63583D02*
D03*
X72638Y200000D02*
D03*
X66732D02*
D03*
X72638Y205512D02*
D03*
X66732D02*
D03*
X81693Y128347D02*
D03*
X75787D02*
D03*
D32*
X180709Y49803D02*
D03*
Y63583D02*
D03*
D33*
X208661Y77756D02*
D03*
Y91535D02*
D03*
D34*
X206077Y46628D02*
D03*
X209557Y37859D02*
D03*
X200787Y41339D02*
D03*
X6522Y235262D02*
D03*
X3042Y244031D02*
D03*
X11811Y240551D02*
D03*
D35*
X197244Y29134D02*
D03*
X193068Y33310D02*
D03*
X201181Y32283D02*
D03*
X197005Y36459D02*
D03*
X250787Y236614D02*
D03*
X246612Y240790D02*
D03*
X247244Y233465D02*
D03*
X243068Y237640D02*
D03*
D36*
X179724Y103937D02*
D03*
X159646D02*
D03*
X147441D02*
D03*
X127362D02*
D03*
X114764D02*
D03*
X94685D02*
D03*
D37*
X96063Y116142D02*
D03*
X114173D02*
D03*
X128347Y115551D02*
D03*
X146457D02*
D03*
X160630Y115945D02*
D03*
X178740D02*
D03*
X157480Y171457D02*
D03*
X175591D02*
D03*
X124016Y170866D02*
D03*
X142126D02*
D03*
X94488D02*
D03*
X112598D02*
D03*
D38*
X105118Y140551D02*
D03*
X137402Y139961D02*
D03*
X169685Y140354D02*
D03*
X166535Y195866D02*
D03*
X133071Y195276D02*
D03*
X103543D02*
D03*
D39*
X232876Y245645D02*
D03*
X241645Y249125D02*
D03*
X238165Y240356D02*
D03*
X24998Y21677D02*
D03*
X16229Y18198D02*
D03*
X19709Y26967D02*
D03*
D40*
X212008Y196850D02*
D03*
X208268Y188189D02*
D03*
X204528Y196850D02*
D03*
D41*
X207872Y227756D02*
D03*
Y210827D02*
D03*
D42*
X84646Y179134D02*
D03*
X75590D02*
D03*
X66536D02*
D03*
D43*
X75590Y154724D02*
D03*
D44*
X-1300Y227833D02*
D03*
X2875Y232009D02*
D03*
X-2243Y237127D02*
D03*
X-6419Y232951D02*
D03*
X33978Y22560D02*
D03*
X29802Y18384D02*
D03*
X21928Y10510D02*
D03*
X26104Y14686D02*
D03*
D45*
X83465Y146063D02*
D03*
Y133465D02*
D03*
X75197D02*
D03*
Y146063D02*
D03*
X66535D02*
D03*
Y133465D02*
D03*
D46*
X41339Y111221D02*
D03*
Y145472D02*
D03*
D47*
X31519Y51085D02*
D03*
X33048Y56789D02*
D03*
X36244Y49904D02*
D03*
X37772Y55608D02*
D03*
D48*
X47402Y167589D02*
D03*
X27402D02*
D03*
D49*
X37402Y208789D02*
D03*
D79*
X21328Y48725D02*
D03*
X24695Y57974D02*
D03*
X28061Y67223D02*
D03*
X31427Y76472D02*
D03*
X17962Y39476D02*
D03*
D97*
X216785Y56500D02*
D03*
X212558Y65563D02*
D03*
X221011Y47437D02*
D03*
X207496Y22456D02*
D03*
X183281Y24282D02*
D03*
X173622Y26870D02*
D03*
X254323Y246858D02*
D03*
X-3157Y249599D02*
D03*
X81208Y53656D02*
D03*
X72827Y40376D02*
D03*
X85074Y33305D02*
D03*
X75415Y30716D02*
D03*
X65756Y28128D02*
D03*
X63168Y37788D02*
D03*
X56097Y25540D02*
D03*
X53508Y35199D02*
D03*
X7094Y12591D02*
D03*
D98*
X225237Y38374D02*
D03*
D99*
X214567Y29528D02*
D03*
X-10228Y242528D02*
D03*
D100*
X163963Y29458D02*
D03*
D101*
X304323Y300401D02*
D03*
X297252Y307472D02*
D03*
X-61827Y306284D02*
D03*
X-68898Y299213D02*
D03*
X-67709Y-59850D02*
D03*
X-60638Y-66921D02*
D03*
X301583Y-70465D02*
D03*
X308654Y-63394D02*
D03*
D102*
X247252Y253929D02*
D03*
X14165Y5520D02*
D03*
D103*
X34794Y85721D02*
D03*
D104*
X71548Y51068D02*
D03*
X82486Y42964D02*
D03*
D105*
X199091Y79020D02*
D03*
D106*
X189091D02*
D03*
X199091Y89020D02*
D03*
X189091D02*
D03*
X199091Y99020D02*
D03*
X189091D02*
D03*
X199091Y109020D02*
D03*
X189091D02*
D03*
X199091Y119020D02*
D03*
X189091D02*
D03*
D107*
X142126Y112992D02*
D03*
X127215Y96309D02*
D03*
X136221Y153150D02*
D03*
X111417Y132677D02*
D03*
X194882Y132283D02*
D03*
X74803Y98032D02*
D03*
Y116535D02*
D03*
X225590Y232283D02*
D03*
X194488Y171653D02*
D03*
Y153543D02*
D03*
X225590Y213386D02*
D03*
M02*
