G04*
G04 #@! TF.GenerationSoftware,Altium Limited,Altium Designer,22.4.2 (48)*
G04*
G04 Layer_Color=8388736*
%FSLAX44Y44*%
%MOMM*%
G71*
G04*
G04 #@! TF.SameCoordinates,72DCB881-4164-4183-B9F3-641E9368B05D*
G04*
G04*
G04 #@! TF.FilePolarity,Negative*
G04*
G01*
G75*
%ADD14C,0.2540*%
%ADD45R,2.0032X0.8532*%
%ADD46O,2.0032X0.8532*%
%ADD47R,2.5032X2.7032*%
G04:AMPARAMS|DCode=48|XSize=0.9032mm|YSize=1.0532mm|CornerRadius=0mm|HoleSize=0mm|Usage=FLASHONLY|Rotation=315.000|XOffset=0mm|YOffset=0mm|HoleType=Round|Shape=Rectangle|*
%AMROTATEDRECTD48*
4,1,4,-0.6917,-0.0530,0.0530,0.6917,0.6917,0.0530,-0.0530,-0.6917,-0.6917,-0.0530,0.0*
%
%ADD48ROTATEDRECTD48*%

G04:AMPARAMS|DCode=49|XSize=1.3mm|YSize=1.1mm|CornerRadius=0mm|HoleSize=0mm|Usage=FLASHONLY|Rotation=315.000|XOffset=0mm|YOffset=0mm|HoleType=Round|Shape=Rectangle|*
%AMROTATEDRECTD49*
4,1,4,-0.8485,0.0707,-0.0707,0.8485,0.8485,-0.0707,0.0707,-0.8485,-0.8485,0.0707,0.0*
%
%ADD49ROTATEDRECTD49*%

%ADD50R,1.0000X1.0000*%
%ADD51R,3.5000X2.6000*%
%ADD52R,1.0000X1.0000*%
%ADD53R,1.2032X1.2032*%
%ADD54R,2.4032X1.4032*%
%ADD55R,2.4032X3.8032*%
%ADD56R,2.1032X1.1532*%
%ADD57R,7.1032X7.0032*%
%ADD58O,0.8532X2.0032*%
%ADD59R,0.8532X2.0032*%
%ADD60R,1.1000X1.3000*%
%ADD61R,1.2032X1.2032*%
G04:AMPARAMS|DCode=62|XSize=0.9032mm|YSize=1.0532mm|CornerRadius=0mm|HoleSize=0mm|Usage=FLASHONLY|Rotation=225.000|XOffset=0mm|YOffset=0mm|HoleType=Round|Shape=Rectangle|*
%AMROTATEDRECTD62*
4,1,4,-0.0530,0.6917,0.6917,-0.0530,0.0530,-0.6917,-0.6917,0.0530,-0.0530,0.6917,0.0*
%
%ADD62ROTATEDRECTD62*%

G04:AMPARAMS|DCode=63|XSize=1.3mm|YSize=1.1mm|CornerRadius=0mm|HoleSize=0mm|Usage=FLASHONLY|Rotation=225.000|XOffset=0mm|YOffset=0mm|HoleType=Round|Shape=Rectangle|*
%AMROTATEDRECTD63*
4,1,4,0.0707,0.8485,0.8485,0.0707,-0.0707,-0.8485,-0.8485,-0.0707,0.0707,0.8485,0.0*
%
%ADD63ROTATEDRECTD63*%

%ADD64R,1.6000X1.7000*%
%ADD65R,1.7400X0.5200*%
%ADD66R,0.5200X1.7400*%
%ADD67R,1.9000X4.2000*%
%ADD68R,4.2032X1.4232*%
%ADD69R,8.5032X9.6032*%
%ADD70C,1.9032*%
%ADD71R,1.9032X1.9032*%
%ADD72C,2.2032*%
%ADD73P,3.1158X4X270.0*%
%ADD74O,3.2032X2.2032*%
%ADD75P,3.1158X4X180.0*%
%ADD76C,2.0032*%
%ADD77R,2.0032X2.0032*%
%ADD78R,2.2032X2.2032*%
%ADD79R,2.2032X2.2032*%
%ADD80R,1.7032X1.7032*%
%ADD81C,1.7032*%
%ADD82O,2.2032X3.2032*%
%ADD83C,0.7032*%
D14*
X383000Y439000D02*
Y528000D01*
D45*
X222000Y299050D02*
D03*
X221205Y389636D02*
D03*
X222000Y219050D02*
D03*
D46*
Y286350D02*
D03*
Y273650D02*
D03*
Y260950D02*
D03*
X278000Y299050D02*
D03*
Y286350D02*
D03*
Y273650D02*
D03*
Y260950D02*
D03*
X277205Y351536D02*
D03*
Y364236D02*
D03*
Y376936D02*
D03*
Y389636D02*
D03*
X221205Y351536D02*
D03*
Y364236D02*
D03*
Y376936D02*
D03*
X278000Y180950D02*
D03*
Y193650D02*
D03*
Y206350D02*
D03*
Y219050D02*
D03*
X222000Y180950D02*
D03*
Y193650D02*
D03*
Y206350D02*
D03*
D47*
X580005Y438499D02*
D03*
Y481499D02*
D03*
D48*
X678132Y661868D02*
D03*
X661868Y678132D02*
D03*
X36868Y-81868D02*
D03*
X53132Y-98132D02*
D03*
D49*
X652813Y608617D02*
D03*
X613215Y648215D02*
D03*
X585000Y620000D02*
D03*
X624598Y580402D02*
D03*
X140000Y-40000D02*
D03*
X100402Y-402D02*
D03*
X72187Y-28617D02*
D03*
X111785Y-68215D02*
D03*
D50*
X575000Y522500D02*
D03*
Y537500D02*
D03*
X595000D02*
D03*
Y522500D02*
D03*
X310000D02*
D03*
Y537500D02*
D03*
X460000Y442500D02*
D03*
Y457500D02*
D03*
X445000D02*
D03*
Y442500D02*
D03*
X425000D02*
D03*
Y457500D02*
D03*
X410000D02*
D03*
Y442500D02*
D03*
X300000Y372500D02*
D03*
Y387500D02*
D03*
Y342500D02*
D03*
Y357500D02*
D03*
Y312500D02*
D03*
Y327500D02*
D03*
Y282500D02*
D03*
Y297500D02*
D03*
Y252500D02*
D03*
Y267500D02*
D03*
Y222500D02*
D03*
Y237500D02*
D03*
Y192500D02*
D03*
Y207500D02*
D03*
Y162500D02*
D03*
Y177500D02*
D03*
Y132500D02*
D03*
Y147500D02*
D03*
X320000D02*
D03*
Y132500D02*
D03*
X335000Y132500D02*
D03*
Y147500D02*
D03*
X370000Y132500D02*
D03*
Y147500D02*
D03*
X355000D02*
D03*
Y132500D02*
D03*
X392000D02*
D03*
Y147500D02*
D03*
X407000D02*
D03*
Y132500D02*
D03*
X430000D02*
D03*
Y147500D02*
D03*
X445000Y147500D02*
D03*
Y132500D02*
D03*
X470000Y132500D02*
D03*
Y147500D02*
D03*
X490000Y132500D02*
D03*
Y147500D02*
D03*
X510000D02*
D03*
Y132500D02*
D03*
X530000Y147500D02*
D03*
Y132500D02*
D03*
X440000Y12500D02*
D03*
Y27500D02*
D03*
X460000D02*
D03*
Y12500D02*
D03*
X480000Y27500D02*
D03*
Y12500D02*
D03*
X500000Y27500D02*
D03*
Y12500D02*
D03*
X520000Y27500D02*
D03*
Y12500D02*
D03*
X540000Y27500D02*
D03*
Y12500D02*
D03*
X415000D02*
D03*
Y27500D02*
D03*
X395000Y12500D02*
D03*
Y27500D02*
D03*
X30000Y502500D02*
D03*
Y517500D02*
D03*
X10000Y502500D02*
D03*
Y517500D02*
D03*
X290000Y522500D02*
D03*
Y537500D02*
D03*
X310000Y572500D02*
D03*
Y557500D02*
D03*
X290000D02*
D03*
Y572500D02*
D03*
D51*
X580000Y234500D02*
D03*
Y285500D02*
D03*
Y375500D02*
D03*
Y324500D02*
D03*
X640000D02*
D03*
Y375500D02*
D03*
D52*
X527500Y461000D02*
D03*
X542500D02*
D03*
Y443000D02*
D03*
X527500D02*
D03*
X337500Y440000D02*
D03*
X322500D02*
D03*
Y460000D02*
D03*
X337500D02*
D03*
Y480000D02*
D03*
X322500D02*
D03*
X190500Y187000D02*
D03*
X175500D02*
D03*
Y205000D02*
D03*
X190500D02*
D03*
Y220000D02*
D03*
X175500D02*
D03*
X542500Y60000D02*
D03*
X557500D02*
D03*
Y100000D02*
D03*
X542500D02*
D03*
X557500Y80000D02*
D03*
X542500D02*
D03*
X582500Y100000D02*
D03*
X597500D02*
D03*
X582500Y80000D02*
D03*
X597500D02*
D03*
X417500Y97500D02*
D03*
X402500D02*
D03*
Y77500D02*
D03*
X417500D02*
D03*
Y57500D02*
D03*
X402500D02*
D03*
X257500Y60000D02*
D03*
X242500D02*
D03*
X257500Y20000D02*
D03*
X242500D02*
D03*
X257500Y0D02*
D03*
X242500D02*
D03*
Y40000D02*
D03*
X257500D02*
D03*
X222500Y60000D02*
D03*
X207500D02*
D03*
X222500Y40000D02*
D03*
X207500D02*
D03*
X337500Y500000D02*
D03*
X322500D02*
D03*
D53*
X507000Y443500D02*
D03*
X485000Y453000D02*
D03*
X507000Y462500D02*
D03*
X186000Y40500D02*
D03*
X164000Y50000D02*
D03*
X186000Y59500D02*
D03*
D54*
X291000Y437000D02*
D03*
Y460000D02*
D03*
Y483000D02*
D03*
D55*
X229000Y460000D02*
D03*
D56*
X413500Y367000D02*
D03*
Y413000D02*
D03*
X532000Y367000D02*
D03*
Y413000D02*
D03*
X413500Y277000D02*
D03*
Y323000D02*
D03*
X532000Y277000D02*
D03*
Y323000D02*
D03*
X533500Y187000D02*
D03*
Y233000D02*
D03*
X413500Y187000D02*
D03*
Y233000D02*
D03*
D57*
X351500Y390000D02*
D03*
X470000D02*
D03*
X351500Y300000D02*
D03*
X470000D02*
D03*
X471500Y210000D02*
D03*
X351500D02*
D03*
D58*
X518764Y107500D02*
D03*
X506064D02*
D03*
X493364D02*
D03*
X480664D02*
D03*
X467964D02*
D03*
X455264D02*
D03*
X442564D02*
D03*
X518764Y51500D02*
D03*
X506064D02*
D03*
X493364D02*
D03*
X480664D02*
D03*
X467964D02*
D03*
X455264D02*
D03*
D59*
X442564D02*
D03*
D60*
X550000Y129500D02*
D03*
Y150500D02*
D03*
D61*
X599500Y61000D02*
D03*
X590000Y39000D02*
D03*
X580500Y61000D02*
D03*
X10500Y539000D02*
D03*
X20000Y561000D02*
D03*
X29500Y539000D02*
D03*
X594500Y559000D02*
D03*
X585000Y581000D02*
D03*
X575500Y559000D02*
D03*
D62*
X616868Y-88132D02*
D03*
X633132Y-71868D02*
D03*
X28132Y678132D02*
D03*
X11868Y661868D02*
D03*
D63*
X568215Y-58215D02*
D03*
X607813Y-18617D02*
D03*
X579598Y9598D02*
D03*
X540000Y-30000D02*
D03*
X79598Y649598D02*
D03*
X40000Y610000D02*
D03*
X68215Y581785D02*
D03*
X107813Y621383D02*
D03*
D64*
X322500Y60000D02*
D03*
X287500D02*
D03*
D65*
X68000Y337500D02*
D03*
Y332500D02*
D03*
Y327500D02*
D03*
Y322500D02*
D03*
Y317500D02*
D03*
Y312500D02*
D03*
Y307500D02*
D03*
Y302500D02*
D03*
Y297500D02*
D03*
Y292500D02*
D03*
Y287500D02*
D03*
Y282500D02*
D03*
Y277500D02*
D03*
Y272500D02*
D03*
Y267500D02*
D03*
Y262500D02*
D03*
X182000D02*
D03*
Y267500D02*
D03*
Y272500D02*
D03*
Y277500D02*
D03*
Y282500D02*
D03*
Y287500D02*
D03*
Y292500D02*
D03*
Y297500D02*
D03*
Y302500D02*
D03*
Y307500D02*
D03*
Y312500D02*
D03*
Y317500D02*
D03*
Y322500D02*
D03*
Y327500D02*
D03*
Y332500D02*
D03*
Y337500D02*
D03*
D66*
X87500Y243000D02*
D03*
X92500D02*
D03*
X97500D02*
D03*
X102500D02*
D03*
X107500D02*
D03*
X112500D02*
D03*
X117500D02*
D03*
X122500D02*
D03*
X127500D02*
D03*
X132500D02*
D03*
X137500D02*
D03*
X142500D02*
D03*
X147500D02*
D03*
X152500D02*
D03*
X157500D02*
D03*
X162500D02*
D03*
Y357000D02*
D03*
X157500D02*
D03*
X152500D02*
D03*
X147500D02*
D03*
X142500D02*
D03*
X137500D02*
D03*
X132500D02*
D03*
X127500D02*
D03*
X122500D02*
D03*
X117500D02*
D03*
X112500D02*
D03*
X107500D02*
D03*
X102500D02*
D03*
X97500D02*
D03*
X92500D02*
D03*
X87500D02*
D03*
D67*
X510000Y583500D02*
D03*
Y496500D02*
D03*
D68*
X252324Y524600D02*
D03*
Y575400D02*
D03*
D69*
X147676Y550000D02*
D03*
D70*
X25000Y405000D02*
D03*
Y380000D02*
D03*
Y305000D02*
D03*
Y280000D02*
D03*
Y255000D02*
D03*
Y230000D02*
D03*
Y155000D02*
D03*
Y180000D02*
D03*
Y205000D02*
D03*
Y330000D02*
D03*
Y355000D02*
D03*
D71*
Y130000D02*
D03*
D72*
X640000Y660000D02*
D03*
X613980Y-51020D02*
D03*
X78980Y-73980D02*
D03*
X120000Y85000D02*
D03*
X89600Y117000D02*
D03*
X115000D02*
D03*
X57700Y37300D02*
D03*
X32300Y11900D02*
D03*
Y37300D02*
D03*
Y62700D02*
D03*
X57700D02*
D03*
X32300Y88100D02*
D03*
X57700D02*
D03*
X185000Y427300D02*
D03*
Y401900D02*
D03*
Y452700D02*
D03*
X32039Y642039D02*
D03*
D73*
X657961D02*
D03*
X61020Y-56020D02*
D03*
D74*
X650000Y270000D02*
D03*
Y219200D02*
D03*
Y168400D02*
D03*
Y485400D02*
D03*
Y434600D02*
D03*
D75*
X596020Y-68980D02*
D03*
X50000Y660000D02*
D03*
D76*
X470000Y-22500D02*
D03*
X445000D02*
D03*
X420000D02*
D03*
X395000D02*
D03*
X495000D02*
D03*
X290000D02*
D03*
X315000D02*
D03*
X215000D02*
D03*
X240000D02*
D03*
X265000D02*
D03*
D77*
X370000D02*
D03*
X190000D02*
D03*
D78*
X94600Y85000D02*
D03*
X140400Y117000D02*
D03*
D79*
X57700Y11900D02*
D03*
X185000Y478100D02*
D03*
D80*
X49200Y450000D02*
D03*
D81*
Y475400D02*
D03*
X74600Y450000D02*
D03*
Y475400D02*
D03*
X100000Y450000D02*
D03*
Y475400D02*
D03*
X125400Y450000D02*
D03*
Y475400D02*
D03*
X150800Y450000D02*
D03*
Y475400D02*
D03*
D82*
X425400Y550000D02*
D03*
X374600D02*
D03*
D83*
X541000Y-22000D02*
D03*
X561000Y74000D02*
D03*
X487000Y75000D02*
D03*
X490000Y65000D02*
D03*
X538000Y427000D02*
D03*
X405890Y251020D02*
D03*
X291000Y276000D02*
D03*
X127000Y-74000D02*
D03*
X160000Y-37000D02*
D03*
X395000Y453000D02*
D03*
X623000Y127000D02*
D03*
X620000Y48000D02*
D03*
X94000Y529000D02*
D03*
X417000Y88000D02*
D03*
X268000Y196000D02*
D03*
X212000Y155000D02*
D03*
X-24000Y282000D02*
D03*
X208000Y351000D02*
D03*
X210000Y182000D02*
D03*
X338000Y550040D02*
D03*
X321000Y522000D02*
D03*
X81000Y285000D02*
D03*
X96980Y266980D02*
D03*
X99000Y280000D02*
D03*
X105000Y272000D02*
D03*
X206000Y263000D02*
D03*
X155000Y259000D02*
D03*
X108000Y342000D02*
D03*
X82000Y216000D02*
D03*
X197000Y60000D02*
D03*
X582000Y108000D02*
D03*
X514000Y152000D02*
D03*
X378000Y95000D02*
D03*
X79000Y365000D02*
D03*
X150000Y310000D02*
D03*
Y330000D02*
D03*
X117000Y283000D02*
D03*
X480000Y65000D02*
D03*
X555623Y47032D02*
D03*
X257000Y70980D02*
D03*
X482000Y100000D02*
D03*
X242000Y65000D02*
D03*
X123000Y307000D02*
D03*
X503000Y229000D02*
D03*
Y220000D02*
D03*
Y238000D02*
D03*
Y211000D02*
D03*
X494000Y202000D02*
D03*
Y211000D02*
D03*
Y238000D02*
D03*
Y229000D02*
D03*
X485000D02*
D03*
X494000Y220000D02*
D03*
X485000Y202000D02*
D03*
Y220000D02*
D03*
X503000Y202000D02*
D03*
X494000Y193000D02*
D03*
X485000D02*
D03*
X503000D02*
D03*
Y184000D02*
D03*
X494000D02*
D03*
X485000Y238000D02*
D03*
X425483Y230483D02*
D03*
X485000Y211000D02*
D03*
Y184000D02*
D03*
X505000Y328000D02*
D03*
Y319000D02*
D03*
X496000Y328000D02*
D03*
Y319000D02*
D03*
X505000Y310000D02*
D03*
Y301000D02*
D03*
X496000Y310000D02*
D03*
Y301000D02*
D03*
X487000Y328000D02*
D03*
Y319000D02*
D03*
X427000Y321000D02*
D03*
X487000Y301000D02*
D03*
Y292000D02*
D03*
Y310000D02*
D03*
X505000Y283000D02*
D03*
Y274000D02*
D03*
X496000Y292000D02*
D03*
X505000D02*
D03*
X487000Y283000D02*
D03*
X496000D02*
D03*
Y274000D02*
D03*
X487000D02*
D03*
X268000Y364000D02*
D03*
X502000Y407000D02*
D03*
Y398000D02*
D03*
Y416000D02*
D03*
X493000Y389000D02*
D03*
X502000D02*
D03*
Y380000D02*
D03*
X493000D02*
D03*
Y416000D02*
D03*
X484000Y407000D02*
D03*
Y416000D02*
D03*
X493000Y407000D02*
D03*
Y398000D02*
D03*
X484000Y389000D02*
D03*
X493000Y371000D02*
D03*
X502000D02*
D03*
X484000D02*
D03*
X493000Y362000D02*
D03*
X502000D02*
D03*
X484000D02*
D03*
Y398000D02*
D03*
Y380000D02*
D03*
X417000Y409000D02*
D03*
X165000Y330000D02*
D03*
X145000Y339000D02*
D03*
X126000Y214980D02*
D03*
X282000Y139000D02*
D03*
X202500Y307500D02*
D03*
X165500Y220000D02*
D03*
X169000Y280000D02*
D03*
X317000Y29000D02*
D03*
X520000Y81000D02*
D03*
X531000Y112000D02*
D03*
X530000Y153964D02*
D03*
X377017Y68983D02*
D03*
X337000Y88060D02*
D03*
X344050Y82050D02*
D03*
X347000Y70000D02*
D03*
X83940Y196000D02*
D03*
X200000Y86000D02*
D03*
X372000Y58000D02*
D03*
X383000Y29000D02*
D03*
X84000Y206000D02*
D03*
X29000Y493000D02*
D03*
X137500Y345000D02*
D03*
X166000Y288000D02*
D03*
X162000Y295000D02*
D03*
X167000Y302000D02*
D03*
X453000Y344000D02*
D03*
X595020Y27480D02*
D03*
X309000Y313000D02*
D03*
Y342000D02*
D03*
X414000Y357000D02*
D03*
X415000Y271000D02*
D03*
X306000Y252000D02*
D03*
Y222000D02*
D03*
X79000Y230000D02*
D03*
X77489Y240000D02*
D03*
X87500Y230000D02*
D03*
X117500Y-30000D02*
D03*
X80000Y303000D02*
D03*
X552500Y630000D02*
D03*
X577500Y617500D02*
D03*
X602500Y612500D02*
D03*
X660000Y600000D02*
D03*
X652500Y570000D02*
D03*
X197500Y280000D02*
D03*
X170000Y365000D02*
D03*
M02*
