G04*
G04 #@! TF.GenerationSoftware,Altium Limited,Altium Designer,22.4.2 (48)*
G04*
G04 Layer_Color=8421504*
%FSLAX44Y44*%
%MOMM*%
G71*
G04*
G04 #@! TF.SameCoordinates,72DCB881-4164-4183-B9F3-641E9368B05D*
G04*
G04*
G04 #@! TF.FilePolarity,Positive*
G04*
G01*
G75*
%ADD20R,1.8000X0.6500*%
%ADD21O,1.8000X0.6500*%
%ADD22R,2.3000X2.5000*%
G04:AMPARAMS|DCode=23|XSize=0.7mm|YSize=0.85mm|CornerRadius=0mm|HoleSize=0mm|Usage=FLASHONLY|Rotation=315.000|XOffset=0mm|YOffset=0mm|HoleType=Round|Shape=Rectangle|*
%AMROTATEDRECTD23*
4,1,4,-0.5480,-0.0530,0.0530,0.5480,0.5480,0.0530,-0.0530,-0.5480,-0.5480,-0.0530,0.0*
%
%ADD23ROTATEDRECTD23*%

G04:AMPARAMS|DCode=24|XSize=1.2mm|YSize=1mm|CornerRadius=0mm|HoleSize=0mm|Usage=FLASHONLY|Rotation=315.000|XOffset=0mm|YOffset=0mm|HoleType=Round|Shape=Rectangle|*
%AMROTATEDRECTD24*
4,1,4,-0.7778,0.0707,-0.0707,0.7778,0.7778,-0.0707,0.0707,-0.7778,-0.7778,0.0707,0.0*
%
%ADD24ROTATEDRECTD24*%

%ADD25R,0.9000X0.9000*%
%ADD26R,3.4000X2.5000*%
%ADD27R,0.9000X0.9000*%
%ADD28R,1.0000X1.0000*%
%ADD29R,2.2000X1.2000*%
%ADD30R,2.2000X3.6000*%
%ADD31R,1.9000X0.9500*%
%ADD32R,6.9000X6.8000*%
%ADD33O,0.6500X1.8000*%
%ADD34R,0.6500X1.8000*%
%ADD35R,1.0000X1.2000*%
%ADD36R,1.0000X1.0000*%
G04:AMPARAMS|DCode=37|XSize=0.7mm|YSize=0.85mm|CornerRadius=0mm|HoleSize=0mm|Usage=FLASHONLY|Rotation=225.000|XOffset=0mm|YOffset=0mm|HoleType=Round|Shape=Rectangle|*
%AMROTATEDRECTD37*
4,1,4,-0.0530,0.5480,0.5480,-0.0530,0.0530,-0.5480,-0.5480,0.0530,-0.0530,0.5480,0.0*
%
%ADD37ROTATEDRECTD37*%

G04:AMPARAMS|DCode=38|XSize=1.2mm|YSize=1mm|CornerRadius=0mm|HoleSize=0mm|Usage=FLASHONLY|Rotation=225.000|XOffset=0mm|YOffset=0mm|HoleType=Round|Shape=Rectangle|*
%AMROTATEDRECTD38*
4,1,4,0.0707,0.7778,0.7778,0.0707,-0.0707,-0.7778,-0.7778,-0.0707,0.0707,0.7778,0.0*
%
%ADD38ROTATEDRECTD38*%

%ADD39R,1.5000X1.6000*%
%ADD40R,1.5000X0.2800*%
%ADD41R,0.2800X1.5000*%
%ADD42R,1.8000X4.1000*%
%ADD43R,4.0000X1.2200*%
%ADD44R,8.3000X9.4000*%
D20*
X222000Y299050D02*
D03*
X221205Y389636D02*
D03*
X222000Y219050D02*
D03*
D21*
Y286350D02*
D03*
Y273650D02*
D03*
Y260950D02*
D03*
X278000Y299050D02*
D03*
Y286350D02*
D03*
Y273650D02*
D03*
Y260950D02*
D03*
X277205Y351536D02*
D03*
Y364236D02*
D03*
Y376936D02*
D03*
Y389636D02*
D03*
X221205Y351536D02*
D03*
Y364236D02*
D03*
Y376936D02*
D03*
X278000Y180950D02*
D03*
Y193650D02*
D03*
Y206350D02*
D03*
Y219050D02*
D03*
X222000Y180950D02*
D03*
Y193650D02*
D03*
Y206350D02*
D03*
D22*
X580005Y438499D02*
D03*
Y481499D02*
D03*
D23*
X678132Y661868D02*
D03*
X661868Y678132D02*
D03*
X36868Y-81868D02*
D03*
X53132Y-98132D02*
D03*
D24*
X652813Y608617D02*
D03*
X613215Y648215D02*
D03*
X585000Y620000D02*
D03*
X624598Y580402D02*
D03*
X140000Y-40000D02*
D03*
X100402Y-402D02*
D03*
X72187Y-28617D02*
D03*
X111785Y-68215D02*
D03*
D25*
X575000Y522500D02*
D03*
Y537500D02*
D03*
X595000D02*
D03*
Y522500D02*
D03*
X310000D02*
D03*
Y537500D02*
D03*
X460000Y442500D02*
D03*
Y457500D02*
D03*
X445000D02*
D03*
Y442500D02*
D03*
X425000D02*
D03*
Y457500D02*
D03*
X410000D02*
D03*
Y442500D02*
D03*
X300000Y372500D02*
D03*
Y387500D02*
D03*
Y342500D02*
D03*
Y357500D02*
D03*
Y312500D02*
D03*
Y327500D02*
D03*
Y282500D02*
D03*
Y297500D02*
D03*
Y252500D02*
D03*
Y267500D02*
D03*
Y222500D02*
D03*
Y237500D02*
D03*
Y192500D02*
D03*
Y207500D02*
D03*
Y162500D02*
D03*
Y177500D02*
D03*
Y132500D02*
D03*
Y147500D02*
D03*
X320000D02*
D03*
Y132500D02*
D03*
X335000Y132500D02*
D03*
Y147500D02*
D03*
X370000Y132500D02*
D03*
Y147500D02*
D03*
X355000D02*
D03*
Y132500D02*
D03*
X392000D02*
D03*
Y147500D02*
D03*
X407000D02*
D03*
Y132500D02*
D03*
X430000D02*
D03*
Y147500D02*
D03*
X445000Y147500D02*
D03*
Y132500D02*
D03*
X470000Y132500D02*
D03*
Y147500D02*
D03*
X490000Y132500D02*
D03*
Y147500D02*
D03*
X510000D02*
D03*
Y132500D02*
D03*
X530000Y147500D02*
D03*
Y132500D02*
D03*
X440000Y12500D02*
D03*
Y27500D02*
D03*
X460000D02*
D03*
Y12500D02*
D03*
X480000Y27500D02*
D03*
Y12500D02*
D03*
X500000Y27500D02*
D03*
Y12500D02*
D03*
X520000Y27500D02*
D03*
Y12500D02*
D03*
X540000Y27500D02*
D03*
Y12500D02*
D03*
X415000D02*
D03*
Y27500D02*
D03*
X395000Y12500D02*
D03*
Y27500D02*
D03*
X30000Y502500D02*
D03*
Y517500D02*
D03*
X10000Y502500D02*
D03*
Y517500D02*
D03*
X290000Y522500D02*
D03*
Y537500D02*
D03*
X310000Y572500D02*
D03*
Y557500D02*
D03*
X290000D02*
D03*
Y572500D02*
D03*
D26*
X580000Y234500D02*
D03*
Y285500D02*
D03*
Y375500D02*
D03*
Y324500D02*
D03*
X640000D02*
D03*
Y375500D02*
D03*
D27*
X527500Y461000D02*
D03*
X542500D02*
D03*
Y443000D02*
D03*
X527500D02*
D03*
X337500Y440000D02*
D03*
X322500D02*
D03*
Y460000D02*
D03*
X337500D02*
D03*
Y480000D02*
D03*
X322500D02*
D03*
X190500Y187000D02*
D03*
X175500D02*
D03*
Y205000D02*
D03*
X190500D02*
D03*
Y220000D02*
D03*
X175500D02*
D03*
X542500Y60000D02*
D03*
X557500D02*
D03*
Y100000D02*
D03*
X542500D02*
D03*
X557500Y80000D02*
D03*
X542500D02*
D03*
X582500Y100000D02*
D03*
X597500D02*
D03*
X582500Y80000D02*
D03*
X597500D02*
D03*
X417500Y97500D02*
D03*
X402500D02*
D03*
Y77500D02*
D03*
X417500D02*
D03*
Y57500D02*
D03*
X402500D02*
D03*
X257500Y60000D02*
D03*
X242500D02*
D03*
X257500Y20000D02*
D03*
X242500D02*
D03*
X257500Y0D02*
D03*
X242500D02*
D03*
Y40000D02*
D03*
X257500D02*
D03*
X222500Y60000D02*
D03*
X207500D02*
D03*
X222500Y40000D02*
D03*
X207500D02*
D03*
X337500Y500000D02*
D03*
X322500D02*
D03*
D28*
X507000Y443500D02*
D03*
X485000Y453000D02*
D03*
X507000Y462500D02*
D03*
X186000Y40500D02*
D03*
X164000Y50000D02*
D03*
X186000Y59500D02*
D03*
D29*
X291000Y437000D02*
D03*
Y460000D02*
D03*
Y483000D02*
D03*
D30*
X229000Y460000D02*
D03*
D31*
X413500Y367000D02*
D03*
Y413000D02*
D03*
X532000Y367000D02*
D03*
Y413000D02*
D03*
X413500Y277000D02*
D03*
Y323000D02*
D03*
X532000Y277000D02*
D03*
Y323000D02*
D03*
X533500Y187000D02*
D03*
Y233000D02*
D03*
X413500Y187000D02*
D03*
Y233000D02*
D03*
D32*
X351500Y390000D02*
D03*
X470000D02*
D03*
X351500Y300000D02*
D03*
X470000D02*
D03*
X471500Y210000D02*
D03*
X351500D02*
D03*
D33*
X518764Y107500D02*
D03*
X506064D02*
D03*
X493364D02*
D03*
X480664D02*
D03*
X467964D02*
D03*
X455264D02*
D03*
X442564D02*
D03*
X518764Y51500D02*
D03*
X506064D02*
D03*
X493364D02*
D03*
X480664D02*
D03*
X467964D02*
D03*
X455264D02*
D03*
D34*
X442564D02*
D03*
D35*
X550000Y129500D02*
D03*
Y150500D02*
D03*
D36*
X599500Y61000D02*
D03*
X590000Y39000D02*
D03*
X580500Y61000D02*
D03*
X10500Y539000D02*
D03*
X20000Y561000D02*
D03*
X29500Y539000D02*
D03*
X594500Y559000D02*
D03*
X585000Y581000D02*
D03*
X575500Y559000D02*
D03*
D37*
X616868Y-88132D02*
D03*
X633132Y-71868D02*
D03*
X28132Y678132D02*
D03*
X11868Y661868D02*
D03*
D38*
X568215Y-58215D02*
D03*
X607813Y-18617D02*
D03*
X579598Y9598D02*
D03*
X540000Y-30000D02*
D03*
X79598Y649598D02*
D03*
X40000Y610000D02*
D03*
X68215Y581785D02*
D03*
X107813Y621383D02*
D03*
D39*
X322500Y60000D02*
D03*
X287500D02*
D03*
D40*
X68000Y337500D02*
D03*
Y332500D02*
D03*
Y327500D02*
D03*
Y322500D02*
D03*
Y317500D02*
D03*
Y312500D02*
D03*
Y307500D02*
D03*
Y302500D02*
D03*
Y297500D02*
D03*
Y292500D02*
D03*
Y287500D02*
D03*
Y282500D02*
D03*
Y277500D02*
D03*
Y272500D02*
D03*
Y267500D02*
D03*
Y262500D02*
D03*
X182000D02*
D03*
Y267500D02*
D03*
Y272500D02*
D03*
Y277500D02*
D03*
Y282500D02*
D03*
Y287500D02*
D03*
Y292500D02*
D03*
Y297500D02*
D03*
Y302500D02*
D03*
Y307500D02*
D03*
Y312500D02*
D03*
Y317500D02*
D03*
Y322500D02*
D03*
Y327500D02*
D03*
Y332500D02*
D03*
Y337500D02*
D03*
D41*
X87500Y243000D02*
D03*
X92500D02*
D03*
X97500D02*
D03*
X102500D02*
D03*
X107500D02*
D03*
X112500D02*
D03*
X117500D02*
D03*
X122500D02*
D03*
X127500D02*
D03*
X132500D02*
D03*
X137500D02*
D03*
X142500D02*
D03*
X147500D02*
D03*
X152500D02*
D03*
X157500D02*
D03*
X162500D02*
D03*
Y357000D02*
D03*
X157500D02*
D03*
X152500D02*
D03*
X147500D02*
D03*
X142500D02*
D03*
X137500D02*
D03*
X132500D02*
D03*
X127500D02*
D03*
X122500D02*
D03*
X117500D02*
D03*
X112500D02*
D03*
X107500D02*
D03*
X102500D02*
D03*
X97500D02*
D03*
X92500D02*
D03*
X87500D02*
D03*
D42*
X510000Y583500D02*
D03*
Y496500D02*
D03*
D43*
X252324Y524600D02*
D03*
Y575400D02*
D03*
D44*
X147676Y550000D02*
D03*
M02*
