M48
;Layer_Color=9474304
;FILE_FORMAT=2:5
INCH,LZ
;TYPE=PLATED
T1F00S00C0.01181
T2F00S00C0.03543
T3F00S00C0.03937
T4F00S00C0.04331
T5F00S00C0.04724
%
T01
X0124803Y0011417
X0150787
X0146457Y0022835
X0148432Y0027159
X0148819Y0037402
X0164173Y0034646
X0189764Y003937
X0191732Y0029528
X0192913Y0025591
X0188976
X0204724Y003189
X0209055Y0044094
X0208661Y0060616
X0202362Y0059842
X0198031Y0072441
Y0075984
Y0079528
Y0083071
Y0086614
Y0090158
Y0093701
X0194488
Y0090158
X0190945
Y0086614
Y0083071
X0194488
Y0086614
Y0079528
X0190945
Y0075984
Y0072441
X0194488
Y0075984
X0190945Y0093701
X0191732Y0107874
Y0111417
Y0114961
Y0118504
X0195276
X0198819
Y0114961
Y0111417
Y0107874
X0195276
Y0111417
Y0114961
X0163386Y0106693
X0159799Y0098827
X0167513Y0090741
X0120472Y0087402
Y0099213
X0114567Y0108661
X0111024Y0054724
X0132677Y0034669
X0135453Y0032303
X0136614Y0027559
X0220866Y0029134
X0218749Y0018517
X023426Y0010819
X0244094Y0018898
X0245276Y005
X0229134Y004252
X0212992Y-0008661
X0101181Y0027945
X0095276Y0025591
X0077559Y0023622
X007874Y0033858
X0083465Y0061024
X0082677Y0071653
X0105512Y0077165
X0065158Y0086614
X0049606Y0084638
X0032283Y0085039
X0033071Y0081102
X0033047Y0077165
X0034449Y0090551
X0031102
X0030507Y0094488
X0038181Y010511
X0041339Y0107087
X0038976Y0110236
X0046063Y0111417
X003189Y0112205
X0031496Y0119291
X0065748Y0118898
X0063779Y0116142
X0065354Y0113386
X0066535Y0110236
X0077756
X0081102Y0103543
X0061024Y0101969
X-0009449Y0111024
X004626Y-0011811
X0062992Y-0014567
X005Y-0029134
X0048425Y0120866
X0059055Y0122047
Y0129921
X0057087Y0133465
X0054134Y0135827
X004252Y0134646
X0031102Y0143701
X0066929
X0064961Y0129921
X0079724Y0121063
X008189Y0138189
X0105512Y0143307
X0037008Y0208268
X0011417Y0194095
X0126378Y0205512
X0133071Y0216551
X0155512Y0178347
X0164173Y0161024
X0162992Y0140551
X016811Y0126378
X0178347Y0135433
X0190551Y014252
Y0146063
X0194095
Y014252
X0197638
Y0146063
Y0149606
Y015315
Y0156693
Y0160236
Y0163779
X0194095
X0190551
Y0160236
X0194095
Y0156693
Y015315
Y0149606
X0190551
Y015315
Y0156693
X0191732Y0129134
X0195276
X0198819
Y0125591
X0195276
Y0122047
X0198819
X0191732
Y0125591
X0211811Y016811
X021752Y0248031
X0227362Y024311
X0237205Y0241142
X0259842Y0236221
X025689Y022441
X0121653Y0134646
Y0123228
T02
X001937Y0177165
Y0187165
X002937
Y0177165
X003937
Y0187165
X004937
Y0177165
X005937
Y0187165
T03
X0234653Y-0027158
X0241724Y-0020087
X0031095Y-0029126
X0024024Y-0022055
X0022716Y0004685
Y0014685
X0012717
Y0004685
Y0024685
X0022716
Y0034685
X0012717
X0009843Y0051181
Y0061024
Y0070866
Y0080709
Y0090551
Y0100394
Y0110236
Y0120079
X0035276Y0046063
X0045276
X0055276
X0047244Y0033465
X0037244
X0009843Y0129921
Y0139764
Y0149606
Y0159449
X0072835Y0158228
Y0168228
Y0178228
Y0188228
X0012614Y0252771
X0019685Y0259842
X0251969Y0259842
X025904Y0252771
T04
X0114173Y-0008858
X0124016
X0145669
X0155512
X0165354
X0175197
X0185039
X0194882
X0104331
X0094488
X0084646
X0074803
T05
X0255906Y0066299
Y0086299
Y0106299
Y0171102
Y0191102
X016748Y0216535
X014748
M30
