G04*
G04 #@! TF.GenerationSoftware,Altium Limited,Altium Designer,22.4.2 (48)*
G04*
G04 Layer_Physical_Order=1*
G04 Layer_Color=255*
%FSLAX44Y44*%
%MOMM*%
G71*
G04*
G04 #@! TF.SameCoordinates,72DCB881-4164-4183-B9F3-641E9368B05D*
G04*
G04*
G04 #@! TF.FilePolarity,Positive*
G04*
G01*
G75*
%ADD10C,0.2000*%
%ADD11C,0.3000*%
%ADD20R,1.8000X0.6500*%
%ADD21O,1.8000X0.6500*%
%ADD22R,2.3000X2.5000*%
G04:AMPARAMS|DCode=23|XSize=0.7mm|YSize=0.85mm|CornerRadius=0mm|HoleSize=0mm|Usage=FLASHONLY|Rotation=315.000|XOffset=0mm|YOffset=0mm|HoleType=Round|Shape=Rectangle|*
%AMROTATEDRECTD23*
4,1,4,-0.5480,-0.0530,0.0530,0.5480,0.5480,0.0530,-0.0530,-0.5480,-0.5480,-0.0530,0.0*
%
%ADD23ROTATEDRECTD23*%

G04:AMPARAMS|DCode=24|XSize=1.2mm|YSize=1mm|CornerRadius=0mm|HoleSize=0mm|Usage=FLASHONLY|Rotation=315.000|XOffset=0mm|YOffset=0mm|HoleType=Round|Shape=Rectangle|*
%AMROTATEDRECTD24*
4,1,4,-0.7778,0.0707,-0.0707,0.7778,0.7778,-0.0707,0.0707,-0.7778,-0.7778,0.0707,0.0*
%
%ADD24ROTATEDRECTD24*%

%ADD25R,0.9000X0.9000*%
%ADD26R,3.4000X2.5000*%
%ADD27R,0.9000X0.9000*%
%ADD28R,1.0000X1.0000*%
%ADD29R,2.2000X1.2000*%
%ADD30R,2.2000X3.6000*%
%ADD31R,1.9000X0.9500*%
%ADD32R,6.9000X6.8000*%
%ADD33O,0.6500X1.8000*%
%ADD34R,0.6500X1.8000*%
%ADD35R,1.0000X1.2000*%
%ADD36R,1.0000X1.0000*%
G04:AMPARAMS|DCode=37|XSize=0.7mm|YSize=0.85mm|CornerRadius=0mm|HoleSize=0mm|Usage=FLASHONLY|Rotation=225.000|XOffset=0mm|YOffset=0mm|HoleType=Round|Shape=Rectangle|*
%AMROTATEDRECTD37*
4,1,4,-0.0530,0.5480,0.5480,-0.0530,0.0530,-0.5480,-0.5480,0.0530,-0.0530,0.5480,0.0*
%
%ADD37ROTATEDRECTD37*%

G04:AMPARAMS|DCode=38|XSize=1.2mm|YSize=1mm|CornerRadius=0mm|HoleSize=0mm|Usage=FLASHONLY|Rotation=225.000|XOffset=0mm|YOffset=0mm|HoleType=Round|Shape=Rectangle|*
%AMROTATEDRECTD38*
4,1,4,0.0707,0.7778,0.7778,0.0707,-0.0707,-0.7778,-0.7778,-0.0707,0.0707,0.7778,0.0*
%
%ADD38ROTATEDRECTD38*%

%ADD39R,1.5000X1.6000*%
%ADD40R,1.5000X0.2800*%
%ADD41R,0.2800X1.5000*%
%ADD42R,1.8000X4.1000*%
%ADD43R,4.0000X1.2200*%
%ADD44R,8.3000X9.4000*%
%ADD84C,0.1524*%
%ADD85C,0.1540*%
%ADD86C,0.5000*%
%ADD87C,0.1600*%
%ADD88C,1.0000*%
%ADD89C,2.0000*%
%ADD90C,1.7000*%
%ADD91R,1.7000X1.7000*%
%ADD92C,2.0000*%
%ADD93P,2.8284X4X270.0*%
%ADD94O,3.0000X2.0000*%
%ADD95P,2.8284X4X180.0*%
%ADD96C,1.8000*%
%ADD97R,1.8000X1.8000*%
%ADD98R,2.0000X2.0000*%
%ADD99R,2.0000X2.0000*%
%ADD100R,1.5000X1.5000*%
%ADD101C,1.5000*%
%ADD102O,2.0000X3.0000*%
%ADD103C,0.5000*%
G36*
X-2599Y720321D02*
X18150Y707039D01*
X39404Y694582D01*
X49330Y689277D01*
X49475Y687759D01*
X44647Y682932D01*
X38790Y688790D01*
X36506Y690664D01*
X33900Y692057D01*
X33036Y692319D01*
X27601Y697754D01*
X21377Y691530D01*
X19758Y690664D01*
X17474Y688790D01*
X15599Y686506D01*
X14734Y684886D01*
X8510Y678662D01*
X13945Y673227D01*
X14207Y672364D01*
X15599Y669758D01*
X17086Y667946D01*
X16197Y667028D01*
X15499Y667563D01*
X13913Y668221D01*
X12419Y668417D01*
X11338Y669498D01*
X9986Y668146D01*
X8580Y667563D01*
X7218Y666518D01*
X6173Y665156D01*
X5591Y663751D01*
X4239Y662399D01*
X5371Y661266D01*
X5516Y660166D01*
X6173Y658580D01*
X7218Y657218D01*
X8580Y656173D01*
X8624Y656155D01*
X20668Y644111D01*
X20519Y643556D01*
Y640523D01*
X20668Y639968D01*
X15350Y634650D01*
X14305Y633288D01*
X13648Y631702D01*
X13424Y630000D01*
X13424Y630000D01*
Y561000D01*
X13480Y560573D01*
Y554480D01*
X19573D01*
X20000Y554424D01*
X20427Y554480D01*
X26520D01*
Y560573D01*
X26576Y561000D01*
Y627276D01*
X29968Y630668D01*
X30523Y630519D01*
X33556D01*
X36486Y631305D01*
X39113Y632821D01*
X41258Y634966D01*
X42611Y637309D01*
X43977Y637739D01*
X50000Y631716D01*
X78284Y660000D01*
X51732Y686553D01*
X52497Y687584D01*
X61130Y682969D01*
X83296Y672218D01*
X105867Y662345D01*
X128808Y653366D01*
X152084Y645295D01*
X175658Y638144D01*
X199496Y631923D01*
X223559Y626644D01*
X247811Y622313D01*
X272214Y618937D01*
X296731Y616523D01*
X321324Y615072D01*
X345955Y614589D01*
X370586Y615072D01*
X395178Y616523D01*
X419695Y618937D01*
X444098Y622313D01*
X468350Y626644D01*
X492413Y631923D01*
X498676Y633557D01*
X499017Y632374D01*
X498183Y631817D01*
X475936Y609569D01*
X146564D01*
X114317Y641817D01*
X113483Y642374D01*
X112500Y642569D01*
X90260D01*
X86025Y646805D01*
X89526Y650305D01*
X80305Y659526D01*
X69670Y648891D01*
X78891Y639670D01*
X82392Y643171D01*
X87379Y638183D01*
X87379Y638183D01*
X88213Y637626D01*
X89196Y637431D01*
X89196Y637431D01*
X111436D01*
X143683Y605183D01*
X144517Y604626D01*
X145500Y604431D01*
X475834D01*
X476360Y603161D01*
X467276Y594076D01*
X332858D01*
X332858Y594076D01*
X331156Y593852D01*
X329570Y593195D01*
X328208Y592150D01*
X322350Y586292D01*
X321305Y584930D01*
X320648Y583344D01*
X320424Y581642D01*
X320424Y581642D01*
Y566082D01*
X318418Y564076D01*
X232500D01*
X232500Y564076D01*
X230798Y563852D01*
X229212Y563195D01*
X227850Y562150D01*
X227850Y562150D01*
X210350Y544650D01*
X209305Y543288D01*
X208648Y541702D01*
X208424Y540000D01*
X208424Y540000D01*
Y505858D01*
X208424Y505858D01*
X208648Y504156D01*
X209305Y502570D01*
X210350Y501208D01*
X211285Y500272D01*
X210800Y499099D01*
X53299D01*
Y600800D01*
X52987Y602369D01*
X52098Y603698D01*
X47509Y608288D01*
X49928Y610707D01*
X40707Y619928D01*
X30072Y609293D01*
X39293Y600072D01*
X41712Y602491D01*
X45101Y599102D01*
Y493200D01*
Y483449D01*
X43662Y482618D01*
X41982Y480938D01*
X40795Y478882D01*
X40639Y478299D01*
X-1283D01*
X-2852Y477987D01*
X-4182Y477098D01*
X-48129Y433151D01*
X-49017Y431821D01*
X-49329Y430253D01*
Y428138D01*
X-49322Y428102D01*
X-49329Y428066D01*
X-44311Y142066D01*
X-44276Y140047D01*
X-44114Y139300D01*
X-43965Y138550D01*
X-43944Y138519D01*
X-43936Y138484D01*
X-43501Y137856D01*
X-43076Y137220D01*
X-41614Y135758D01*
X-41584Y135738D01*
X-41563Y135708D01*
X2426Y93236D01*
X2691Y92972D01*
X4295Y1535D01*
X4457Y788D01*
X4606Y38D01*
X4627Y8D01*
X4634Y-28D01*
X5070Y-656D01*
X5495Y-1291D01*
X6923Y-2720D01*
X20102Y-15898D01*
X21432Y-16787D01*
X23000Y-17099D01*
X89071D01*
X90640Y-16787D01*
X91969Y-15898D01*
X99323Y-8544D01*
X101109Y-10330D01*
X110330Y-1109D01*
X107911Y1310D01*
X143298Y36698D01*
X144187Y38027D01*
X144499Y39596D01*
Y105480D01*
X151920D01*
Y128520D01*
X128880D01*
Y105480D01*
X136301D01*
Y41294D01*
X102114Y7107D01*
X99695Y9526D01*
X90474Y305D01*
X93527Y-2748D01*
X87373Y-8901D01*
X24698D01*
X23636Y-7839D01*
X24162Y-6569D01*
X56528D01*
X57512Y-6374D01*
X58345Y-5817D01*
X59517Y-4645D01*
X60074Y-3812D01*
X60269Y-2828D01*
X60269Y-2828D01*
Y380D01*
X69220D01*
Y23420D01*
X46180D01*
Y380D01*
X55131D01*
Y-1431D01*
X24064D01*
X18569Y4064D01*
Y96000D01*
X18470Y96501D01*
X19640Y97126D01*
X22537Y94230D01*
X21565Y92547D01*
X20780Y89617D01*
Y86583D01*
X21565Y83653D01*
X23082Y81026D01*
X25227Y78882D01*
X27853Y77365D01*
X30783Y76580D01*
X33817D01*
X36747Y77365D01*
X39374Y78882D01*
X41161Y80669D01*
X42431Y80163D01*
Y76464D01*
X38430Y72463D01*
X36747Y73435D01*
X33817Y74220D01*
X30783D01*
X27853Y73435D01*
X25227Y71918D01*
X23082Y69774D01*
X21565Y67147D01*
X20780Y64217D01*
Y61183D01*
X21565Y58253D01*
X23082Y55627D01*
X25227Y53482D01*
X27853Y51965D01*
X30783Y51180D01*
X33817D01*
X36747Y51965D01*
X39374Y53482D01*
X41518Y55627D01*
X43035Y58253D01*
X43820Y61183D01*
Y64217D01*
X43035Y67147D01*
X42063Y68830D01*
X46817Y73583D01*
X47374Y74417D01*
X47569Y75400D01*
Y80163D01*
X48839Y80669D01*
X50627Y78882D01*
X53253Y77365D01*
X56183Y76580D01*
X59217D01*
X62147Y77365D01*
X64774Y78882D01*
X66918Y81026D01*
X67435Y81921D01*
X71921D01*
Y43033D01*
X70925Y42036D01*
X68268D01*
X66918Y44373D01*
X64774Y46518D01*
X62147Y48035D01*
X59217Y48820D01*
X56183D01*
X53253Y48035D01*
X50627Y46518D01*
X48482Y44373D01*
X46965Y41747D01*
X46180Y38817D01*
Y35783D01*
X46965Y32853D01*
X48482Y30227D01*
X50627Y28082D01*
X53253Y26565D01*
X56183Y25780D01*
X59217D01*
X62147Y26565D01*
X64774Y28082D01*
X66918Y30227D01*
X68435Y32853D01*
X69220Y35783D01*
Y35878D01*
X72200D01*
X73378Y36113D01*
X74377Y36780D01*
X77177Y39580D01*
X77845Y40579D01*
X78079Y41757D01*
Y83243D01*
X77845Y84421D01*
X77177Y85420D01*
X75420Y87177D01*
X74421Y87845D01*
X73243Y88079D01*
X69220D01*
Y89617D01*
X68435Y92547D01*
X66918Y95174D01*
X64774Y97318D01*
X63315Y98161D01*
X63655Y99431D01*
X76536D01*
X83080Y92886D01*
Y73480D01*
X106120D01*
Y94387D01*
X107293Y94873D01*
X110529Y91637D01*
X109265Y89447D01*
X108480Y86517D01*
Y83483D01*
X109265Y80553D01*
X110782Y77927D01*
X112927Y75782D01*
X115553Y74265D01*
X118483Y73480D01*
X121517D01*
X124447Y74265D01*
X127073Y75782D01*
X129218Y77927D01*
X130735Y80553D01*
X131520Y83483D01*
Y86517D01*
X130735Y89447D01*
X129218Y92073D01*
X127073Y94218D01*
X124447Y95735D01*
X121517Y96520D01*
X118483D01*
X115553Y95735D01*
X114378Y95056D01*
X99070Y110363D01*
X100335Y112553D01*
X101120Y115483D01*
Y118517D01*
X100335Y121447D01*
X98818Y124073D01*
X96673Y126218D01*
X94047Y127735D01*
X91117Y128520D01*
X88083D01*
X85153Y127735D01*
X82527Y126218D01*
X80382Y124073D01*
X78865Y121447D01*
X78080Y118517D01*
Y115483D01*
X78865Y112553D01*
X80382Y109927D01*
X82527Y107782D01*
X85153Y106265D01*
X88083Y105480D01*
X91117D01*
X94047Y106265D01*
X95222Y106944D01*
X104473Y97693D01*
X103987Y96520D01*
X86714D01*
X79417Y103817D01*
X78583Y104374D01*
X77600Y104569D01*
X47000D01*
X46017Y104374D01*
X45183Y103817D01*
X43183Y101817D01*
X42626Y100983D01*
X42431Y100000D01*
Y96037D01*
X41161Y95531D01*
X39374Y97318D01*
X36747Y98835D01*
X33817Y99620D01*
X30783D01*
X27853Y98835D01*
X26170Y97863D01*
X16296Y107737D01*
X16782Y108911D01*
X32022D01*
X33005Y109106D01*
X33839Y109663D01*
X64377Y140201D01*
X64934Y141035D01*
X65129Y142018D01*
Y178806D01*
X66303Y179292D01*
X112431Y133164D01*
Y128238D01*
X110553Y127735D01*
X107927Y126218D01*
X105782Y124073D01*
X104265Y121447D01*
X103480Y118517D01*
Y115483D01*
X104265Y112553D01*
X105782Y109927D01*
X107927Y107782D01*
X110553Y106265D01*
X113483Y105480D01*
X116517D01*
X119447Y106265D01*
X122073Y107782D01*
X124218Y109927D01*
X125735Y112553D01*
X126520Y115483D01*
Y118517D01*
X125735Y121447D01*
X124218Y124073D01*
X122073Y126218D01*
X119447Y127735D01*
X117569Y128238D01*
Y132831D01*
X154646D01*
X172431Y115046D01*
Y-2521D01*
X142086Y-32866D01*
X139293Y-30072D01*
X130072Y-39293D01*
X139440Y-48661D01*
X138914Y-49931D01*
X128564D01*
X116338Y-37704D01*
X116931Y-36501D01*
X117500Y-36576D01*
X119202Y-36352D01*
X120788Y-35695D01*
X122150Y-34650D01*
X159650Y2850D01*
X159650Y2850D01*
X160695Y4212D01*
X161352Y5798D01*
X161576Y7500D01*
X161576Y7500D01*
Y38276D01*
X166150Y42850D01*
X166634Y43480D01*
X170520D01*
Y56520D01*
X157480D01*
Y52634D01*
X156850Y52150D01*
X150350Y45650D01*
X149305Y44288D01*
X148648Y42702D01*
X148424Y41000D01*
X148424Y41000D01*
Y10224D01*
X112850Y-25350D01*
X111805Y-26712D01*
X111148Y-28298D01*
X110924Y-30000D01*
X110999Y-30569D01*
X109796Y-31162D01*
X106141Y-27508D01*
X105308Y-26951D01*
X104324Y-26755D01*
X79545D01*
X71480Y-18689D01*
X62259Y-27910D01*
X61049Y-27765D01*
X61020Y-27736D01*
X32736Y-56020D01*
X35200Y-58484D01*
X24342Y-69342D01*
X22468Y-71626D01*
X21075Y-74232D01*
X20730Y-75369D01*
X19460Y-75181D01*
Y-72153D01*
X514Y-53207D01*
X515Y88025D01*
X510Y88050D01*
X515Y88075D01*
X402Y88593D01*
X299Y89114D01*
X285Y89135D01*
X279Y89159D01*
X-23Y89596D01*
X-318Y90036D01*
X-339Y90050D01*
X-353Y90071D01*
X-61972Y149565D01*
X-66752Y422032D01*
X-7259Y483650D01*
X-6658Y484584D01*
X-6461Y485676D01*
X-9538Y661061D01*
X-9773Y662145D01*
X-10406Y663057D01*
X-11340Y663658D01*
X-12432Y663855D01*
X-12961Y663740D01*
X-14239Y664546D01*
X-14540Y695847D01*
X-22411Y702834D01*
X-11846Y725580D01*
X-10619Y725911D01*
X-2599Y720321D01*
D02*
G37*
G36*
X625901Y629733D02*
Y605000D01*
X626213Y603431D01*
X627102Y602102D01*
X654169Y575035D01*
X653449Y573958D01*
X653300Y574020D01*
X651700D01*
X650223Y573408D01*
X649092Y572277D01*
X648480Y570800D01*
Y569200D01*
X649092Y567723D01*
X650223Y566592D01*
X651700Y565980D01*
X652886D01*
X672431Y546436D01*
Y442000D01*
X672626Y441017D01*
X673183Y440183D01*
X710431Y402936D01*
Y142064D01*
X656433Y88067D01*
X655876Y87233D01*
X655681Y86250D01*
Y46814D01*
X608936Y69D01*
X592760D01*
X586025Y6805D01*
X589526Y10305D01*
X580305Y19526D01*
X569670Y8891D01*
X578891Y-330D01*
X582392Y3171D01*
X589879Y-4317D01*
X589879Y-4317D01*
X590713Y-4874D01*
X591696Y-5069D01*
X591696Y-5069D01*
X610000D01*
X610983Y-4874D01*
X611817Y-4317D01*
X660067Y43933D01*
X660624Y44767D01*
X660819Y45750D01*
Y85186D01*
X714817Y139183D01*
X715374Y140017D01*
X715569Y141000D01*
Y402546D01*
X716839Y403017D01*
X718901Y400622D01*
Y139954D01*
X666567Y87620D01*
X666567Y87620D01*
X666566Y87619D01*
X666566Y87619D01*
X665102Y86154D01*
X664213Y84825D01*
X663901Y83256D01*
Y43267D01*
X610232Y-10402D01*
X608520Y-8689D01*
X597885Y-19324D01*
X598393Y-19832D01*
X597666Y-20901D01*
X586698D01*
X568099Y-2302D01*
Y46000D01*
Y53500D01*
X567787Y55068D01*
X566898Y56398D01*
X563520Y59777D01*
Y66020D01*
X551480D01*
Y53980D01*
X557724D01*
X559901Y51802D01*
Y50099D01*
X558269D01*
X558185Y50155D01*
X557900Y50440D01*
X557527Y50595D01*
X557191Y50819D01*
X556795Y50898D01*
X556423Y51052D01*
X556019D01*
X555623Y51131D01*
X555227Y51052D01*
X554823D01*
X554450Y50898D01*
X554054Y50819D01*
X553718Y50595D01*
X553346Y50440D01*
X553060Y50155D01*
X552724Y49931D01*
X552500Y49595D01*
X552215Y49310D01*
X552171Y49204D01*
X551439Y48912D01*
X550808Y48888D01*
X550647Y48933D01*
X546773Y52807D01*
X547259Y53980D01*
X548520D01*
Y66020D01*
X544827D01*
Y73980D01*
X548520D01*
Y86020D01*
X544827D01*
Y93980D01*
X548520D01*
Y105145D01*
X551480D01*
Y93980D01*
X563520D01*
Y105145D01*
X575924D01*
Y100000D01*
Y80000D01*
X576148Y78298D01*
X576480Y77496D01*
Y73980D01*
X579996D01*
X580798Y73648D01*
X582500Y73424D01*
X584202Y73648D01*
X585004Y73980D01*
X588520D01*
Y77496D01*
X588852Y78298D01*
X589076Y80000D01*
Y100000D01*
Y105145D01*
X591480D01*
Y93980D01*
X603520D01*
Y96921D01*
X611225D01*
X616921Y91225D01*
Y68775D01*
X612225Y64079D01*
X606020D01*
Y67520D01*
X592980D01*
Y54480D01*
X606020D01*
Y57921D01*
X613500D01*
X614678Y58155D01*
X615677Y58823D01*
X622177Y65323D01*
X622845Y66322D01*
X623079Y67500D01*
Y92500D01*
X622845Y93678D01*
X622177Y94677D01*
X614677Y102177D01*
X613678Y102845D01*
X612500Y103079D01*
X603520D01*
Y105145D01*
X647000D01*
X649809Y105515D01*
X652427Y106599D01*
X654676Y108324D01*
X681675Y135324D01*
X683401Y137573D01*
X684485Y140191D01*
X684855Y143000D01*
Y347000D01*
X684485Y349809D01*
X683401Y352427D01*
X681675Y354675D01*
X678676Y357676D01*
X676427Y359401D01*
X673809Y360485D01*
X671000Y360855D01*
X614496D01*
X611884Y363467D01*
X612086Y365000D01*
Y388000D01*
X611743Y390611D01*
X610735Y393043D01*
X609132Y395132D01*
X607000Y397264D01*
Y398000D01*
X606264D01*
X583083Y421181D01*
X583569Y422355D01*
X592000D01*
X593163Y422837D01*
X593307Y422981D01*
X655000D01*
X658007Y423377D01*
X660810Y424537D01*
X663216Y426384D01*
X665063Y428790D01*
X666224Y431593D01*
X666619Y434600D01*
X666224Y437607D01*
X665063Y440410D01*
X663216Y442816D01*
X660810Y444663D01*
X658007Y445824D01*
X655000Y446219D01*
X595645D01*
Y449000D01*
X595163Y450163D01*
X593163Y452163D01*
X593025Y452221D01*
Y452519D01*
X592304D01*
X592000Y452645D01*
X541000D01*
X539837Y452163D01*
X536837Y449163D01*
X536777Y449020D01*
X536480D01*
Y448302D01*
X536355Y448000D01*
Y437000D01*
X536837Y435837D01*
X538000Y435355D01*
X553318D01*
X558230Y430443D01*
X557744Y429270D01*
X522000D01*
X521360Y429186D01*
X520453Y431375D01*
X518728Y433624D01*
X518170Y434181D01*
X518656Y435355D01*
X531000D01*
X532163Y435837D01*
X533307Y436980D01*
X533520D01*
Y437193D01*
X534163Y437837D01*
X534645Y439000D01*
Y465000D01*
X534163Y466163D01*
X533520Y466430D01*
Y467020D01*
X529000D01*
Y474366D01*
X531037Y476403D01*
X552963D01*
X558505Y470861D01*
Y458999D01*
X570458D01*
X571017Y458626D01*
X572000Y458431D01*
X599000D01*
X599983Y458626D01*
X600541Y458999D01*
X601505D01*
Y459871D01*
X603817Y462183D01*
X604374Y463017D01*
X604569Y464000D01*
Y501828D01*
X604374Y502812D01*
X603817Y503645D01*
X594645Y512817D01*
X593812Y513374D01*
X592828Y513569D01*
X575497D01*
X572695Y515067D01*
X572224Y515210D01*
X572412Y516480D01*
X581020D01*
Y523435D01*
X581983Y523626D01*
X582817Y524183D01*
X590114Y531480D01*
X601020D01*
Y543520D01*
X588980D01*
Y536669D01*
X588145Y536502D01*
X587312Y535946D01*
X579936Y528569D01*
X578500D01*
X578252Y528520D01*
X568980D01*
Y525069D01*
X529542D01*
X529000Y525612D01*
Y527000D01*
X527612D01*
X479275Y575337D01*
X478441Y575894D01*
X477458Y576089D01*
X352520D01*
X351537Y575894D01*
X350703Y575337D01*
X336183Y560817D01*
X335626Y559983D01*
X335431Y559000D01*
Y553156D01*
X334847Y552573D01*
X327311D01*
X326785Y553843D01*
X331650Y558708D01*
X332695Y560070D01*
X333352Y561656D01*
X333576Y563358D01*
X333576Y563358D01*
Y578918D01*
X335582Y580924D01*
X470000D01*
X470000Y580924D01*
X471702Y581148D01*
X473288Y581805D01*
X474650Y582850D01*
X500224Y608424D01*
X555000D01*
X555000Y608424D01*
X556702Y608648D01*
X558288Y609305D01*
X559650Y610350D01*
X580224Y630924D01*
X583631D01*
X584019Y629654D01*
X583508Y629143D01*
X575309Y620943D01*
X575223Y620908D01*
X574092Y619777D01*
X573480Y618300D01*
Y616700D01*
X574092Y615223D01*
X575223Y614092D01*
X576700Y613480D01*
X578300D01*
X579777Y614092D01*
X580732Y615047D01*
X585707Y610072D01*
X594928Y619293D01*
X585142Y629079D01*
X584567Y629654D01*
X584955Y630924D01*
X602500D01*
X602500Y630924D01*
X604202Y631148D01*
X605788Y631805D01*
X607150Y632850D01*
X613255Y638955D01*
X613922Y638287D01*
X615634Y640000D01*
X625901Y629733D01*
D02*
G37*
G36*
X514193Y528173D02*
X513707Y527000D01*
X491000D01*
Y516597D01*
X397086D01*
Y558000D01*
X396743Y560611D01*
X395735Y563043D01*
X394132Y565132D01*
X393007Y566257D01*
X393493Y567431D01*
X474936D01*
X514193Y528173D01*
D02*
G37*
G36*
X344914Y445000D02*
Y435086D01*
X328520D01*
Y446020D01*
X325069D01*
Y453980D01*
X328520D01*
Y464886D01*
X335817Y472183D01*
X336374Y473017D01*
X336565Y473980D01*
X343520D01*
Y486020D01*
X331480D01*
Y476748D01*
X331431Y476500D01*
Y475064D01*
X324054Y467688D01*
X323498Y466855D01*
X323331Y466020D01*
X316480D01*
Y453980D01*
X319931D01*
Y446020D01*
X316480D01*
Y439569D01*
X303520D01*
Y444520D01*
X278480D01*
Y429480D01*
X303520D01*
Y434431D01*
X305908D01*
X307000Y434000D01*
Y425655D01*
X306914Y425000D01*
Y422608D01*
X235000D01*
X231737Y422178D01*
X228696Y420919D01*
X226085Y418915D01*
X213542Y406372D01*
X211539Y403761D01*
X211176Y402886D01*
X207569D01*
Y427936D01*
X220114Y440480D01*
X241520D01*
Y455901D01*
X278480D01*
Y452480D01*
X303520D01*
Y458955D01*
X305553D01*
X307122Y459267D01*
X308451Y460155D01*
X322276Y473980D01*
X328520D01*
Y486020D01*
X326599D01*
Y493980D01*
X328520D01*
Y506020D01*
X316480D01*
Y493980D01*
X318401D01*
Y486020D01*
X316480D01*
Y479776D01*
X304753Y468050D01*
X304508Y468078D01*
X304168Y468765D01*
X304214Y469580D01*
X313817Y479183D01*
X314374Y480017D01*
X314569Y481000D01*
Y492000D01*
X314374Y492983D01*
X313817Y493817D01*
X298817Y508817D01*
X297983Y509374D01*
X297000Y509569D01*
X237064D01*
X230924Y515710D01*
X231450Y516980D01*
X252997D01*
X253424Y516924D01*
X283980D01*
Y516480D01*
X285820D01*
X286622Y516148D01*
X288324Y515924D01*
X288324Y515924D01*
X290000D01*
X291702Y516148D01*
X292504Y516480D01*
X296020D01*
Y519996D01*
X296352Y520798D01*
X296567Y522427D01*
X307688D01*
X307850Y521610D01*
X308355Y520855D01*
X308855Y520355D01*
X309610Y519850D01*
X310500Y519673D01*
X324036D01*
X334780Y508929D01*
Y500393D01*
X334957Y499503D01*
X335462Y498748D01*
X335855Y498355D01*
X336610Y497850D01*
X337500Y497673D01*
X338390Y497850D01*
X339145Y498355D01*
X339650Y499110D01*
X339827Y500000D01*
X339650Y500890D01*
X339434Y501214D01*
Y509893D01*
X339256Y510784D01*
X338752Y511539D01*
X329036Y521254D01*
X329522Y522427D01*
X344914D01*
Y445000D01*
D02*
G37*
G36*
X221208Y490350D02*
X222570Y489305D01*
X224156Y488648D01*
X225858Y488424D01*
X225858Y488424D01*
X276418D01*
X278424Y486418D01*
Y484000D01*
X278424Y484000D01*
X278480Y483573D01*
Y475480D01*
X301187D01*
X301673Y474307D01*
X299936Y472569D01*
X258064D01*
X245817Y484817D01*
X244983Y485374D01*
X244000Y485569D01*
X213000D01*
X212017Y485374D01*
X211183Y484817D01*
X208183Y481817D01*
X207626Y480983D01*
X207431Y480000D01*
Y440042D01*
X199183Y431795D01*
X198626Y430961D01*
X198431Y429978D01*
Y382042D01*
X187663Y371275D01*
X187106Y370441D01*
X186911Y369458D01*
Y350569D01*
X170000D01*
X169017Y350374D01*
X168183Y349817D01*
X166690Y348324D01*
X165420Y348850D01*
Y357413D01*
X165465Y357638D01*
Y362448D01*
X166735Y362580D01*
X167723Y361592D01*
X169200Y360980D01*
X170800D01*
X172277Y361592D01*
X173408Y362723D01*
X174020Y364200D01*
Y365800D01*
X173408Y367277D01*
X172277Y368408D01*
X170800Y369020D01*
X169200D01*
X167723Y368408D01*
X166642Y367327D01*
X164031D01*
X163140Y367150D01*
X162386Y366645D01*
X161760Y366020D01*
X160069D01*
Y399331D01*
X173762D01*
X174265Y397453D01*
X175782Y394827D01*
X177927Y392682D01*
X180553Y391165D01*
X183483Y390380D01*
X186517D01*
X189447Y391165D01*
X192073Y392682D01*
X194218Y394827D01*
X195735Y397453D01*
X196520Y400383D01*
Y403417D01*
X195735Y406347D01*
X194218Y408974D01*
X192073Y411118D01*
X189447Y412635D01*
X186517Y413420D01*
X183483D01*
X180553Y412635D01*
X177927Y411118D01*
X175782Y408974D01*
X174265Y406347D01*
X173762Y404469D01*
X158672D01*
X158672Y404469D01*
X157688Y404274D01*
X156855Y403717D01*
X156339Y403201D01*
X155069Y403727D01*
Y411436D01*
X168364Y424731D01*
X173762D01*
X174265Y422853D01*
X175782Y420227D01*
X177927Y418082D01*
X180553Y416565D01*
X183483Y415780D01*
X186517D01*
X189447Y416565D01*
X192073Y418082D01*
X194218Y420227D01*
X195735Y422853D01*
X196520Y425783D01*
Y428817D01*
X195735Y431747D01*
X194218Y434374D01*
X192073Y436518D01*
X189447Y438035D01*
X186517Y438820D01*
X183483D01*
X180553Y438035D01*
X177927Y436518D01*
X175782Y434374D01*
X174265Y431747D01*
X173762Y429869D01*
X167599D01*
X167154Y430588D01*
X167048Y431114D01*
X178870Y442937D01*
X180553Y441965D01*
X183483Y441180D01*
X186517D01*
X189447Y441965D01*
X192073Y443482D01*
X194218Y445626D01*
X195735Y448253D01*
X196520Y451183D01*
Y454217D01*
X195735Y457147D01*
X194218Y459773D01*
X192073Y461918D01*
X189447Y463435D01*
X186517Y464220D01*
X183483D01*
X180553Y463435D01*
X177927Y461918D01*
X175782Y459773D01*
X174265Y457147D01*
X173480Y454217D01*
Y451183D01*
X174265Y448253D01*
X175237Y446570D01*
X146946Y418280D01*
X145599Y418728D01*
X145506Y419372D01*
X169917Y443783D01*
X169917Y443783D01*
X170474Y444617D01*
X170669Y445600D01*
Y475531D01*
X173480D01*
Y466580D01*
X196520D01*
Y489620D01*
X173480D01*
Y480669D01*
X169272D01*
X169272Y480669D01*
X168288Y480474D01*
X167455Y479917D01*
X166283Y478745D01*
X165726Y477912D01*
X165531Y476928D01*
Y446664D01*
X140683Y421817D01*
X140126Y420983D01*
X139931Y420000D01*
Y366020D01*
X120069D01*
Y392500D01*
X119874Y393483D01*
X119317Y394317D01*
X102569Y411064D01*
Y441350D01*
X103482Y441595D01*
X105538Y442782D01*
X107218Y444462D01*
X108405Y446518D01*
X109020Y448812D01*
Y451188D01*
X108405Y453482D01*
X107933Y454299D01*
X114817Y461183D01*
X115374Y462017D01*
X115569Y463000D01*
Y472331D01*
X116839Y472498D01*
X116995Y471918D01*
X118182Y469862D01*
X119862Y468182D01*
X121918Y466995D01*
X124213Y466380D01*
X126587D01*
X128882Y466995D01*
X130938Y468182D01*
X132618Y469862D01*
X133805Y471918D01*
X134420Y474212D01*
Y476587D01*
X133805Y478882D01*
X132618Y480938D01*
X130938Y482618D01*
X128882Y483805D01*
X126587Y484420D01*
X124213D01*
X121918Y483805D01*
X119862Y482618D01*
X118182Y480938D01*
X116995Y478882D01*
X116839Y478302D01*
X115569Y478469D01*
Y485000D01*
X115374Y485983D01*
X114817Y486817D01*
X112817Y488817D01*
X111983Y489374D01*
X111000Y489569D01*
X65000D01*
X64017Y489374D01*
X63183Y488817D01*
X60183Y485817D01*
X59626Y484983D01*
X59431Y484000D01*
Y476976D01*
X58161Y476809D01*
X57605Y478882D01*
X56418Y480938D01*
X54738Y482618D01*
X53299Y483449D01*
Y490901D01*
X220656D01*
X221208Y490350D01*
D02*
G37*
G36*
X41982Y469862D02*
X43662Y468182D01*
X45052Y467379D01*
X44712Y466109D01*
X34540D01*
X34540Y466109D01*
X33557Y465914D01*
X32723Y465357D01*
X-4401Y428233D01*
X-4958Y427399D01*
X-5153Y426416D01*
Y114584D01*
X-4958Y113601D01*
X-4816Y113389D01*
X-5796Y112570D01*
X-35843Y141580D01*
X-36109Y141846D01*
X-36115Y142210D01*
X-41132Y428174D01*
Y428555D01*
X414Y470101D01*
X41844D01*
X41982Y469862D01*
D02*
G37*
G36*
X491000Y466000D02*
X516431D01*
Y457064D01*
X514936Y455569D01*
X491520D01*
Y459520D01*
X478480D01*
Y455432D01*
X477210Y455176D01*
X475676Y457175D01*
X474500Y458351D01*
Y472000D01*
X428904D01*
X428518Y473270D01*
X428645Y473355D01*
X429150Y474110D01*
X429327Y475000D01*
X429300Y475133D01*
X430218Y476403D01*
X491000D01*
Y466000D01*
D02*
G37*
G36*
X84931Y415000D02*
X85126Y414017D01*
X85683Y413183D01*
X109931Y388936D01*
Y366020D01*
X109580D01*
Y359904D01*
X108310Y359164D01*
X108229Y359210D01*
X107328Y359320D01*
X106690Y359143D01*
X105838Y359557D01*
X105420Y359883D01*
Y366020D01*
X104669D01*
Y390400D01*
X104474Y391383D01*
X103917Y392217D01*
X66817Y429317D01*
X65983Y429874D01*
X65000Y430069D01*
X17656D01*
X17369Y430436D01*
X17069Y431279D01*
X18464Y432673D01*
X59600D01*
X60490Y432850D01*
X61245Y433355D01*
X70083Y442192D01*
X71118Y441595D01*
X73412Y440980D01*
X75788D01*
X78082Y441595D01*
X80138Y442782D01*
X81818Y444462D01*
X83005Y446518D01*
X83620Y448812D01*
Y451188D01*
X83005Y453482D01*
X81818Y455538D01*
X81196Y456161D01*
X81722Y457431D01*
X84931D01*
Y415000D01*
D02*
G37*
G36*
X533000Y439000D02*
X531000Y437000D01*
X503000D01*
X502000Y438000D01*
Y449000D01*
X518540D01*
X523000Y453460D01*
Y465000D01*
X533000D01*
Y439000D01*
D02*
G37*
G36*
X594000Y449000D02*
Y426000D01*
X592000Y424000D01*
X567000D01*
X554000Y437000D01*
X538000D01*
Y448000D01*
X541000Y451000D01*
X592000D01*
X594000Y449000D01*
D02*
G37*
G36*
X232392Y373786D02*
Y367569D01*
X230464D01*
X230394Y367675D01*
X228816Y368729D01*
X226955Y369100D01*
X215455D01*
X213594Y368729D01*
X212016Y367675D01*
X210961Y366097D01*
X210591Y364236D01*
X210961Y362375D01*
X212016Y360797D01*
X213594Y359743D01*
X215455Y359373D01*
X226955D01*
X228816Y359743D01*
X230394Y360797D01*
X231122Y361887D01*
X232392Y361502D01*
Y316026D01*
X228666Y312300D01*
X203000D01*
Y311520D01*
X201700D01*
X200223Y310908D01*
X199092Y309777D01*
X198480Y308300D01*
Y306950D01*
X197775Y306476D01*
X197307Y306327D01*
X194717Y308917D01*
X193883Y309474D01*
X192900Y309669D01*
X191851D01*
X191465Y310939D01*
X191681Y311083D01*
X198817Y318219D01*
X199374Y319053D01*
X199569Y320036D01*
Y364936D01*
X208340Y373707D01*
X211876D01*
X212016Y373497D01*
X213594Y372443D01*
X215455Y372073D01*
X226955D01*
X228816Y372443D01*
X230394Y373497D01*
X230988Y374386D01*
X231226Y374453D01*
X232392Y373786D01*
D02*
G37*
G36*
X602000Y388000D02*
Y365000D01*
X599000Y362000D01*
X563000D01*
Y369833D01*
X522000Y404000D01*
Y419184D01*
X570816D01*
X602000Y388000D01*
D02*
G37*
G36*
X94931Y388958D02*
Y366020D01*
X94580D01*
Y359882D01*
X93419Y359167D01*
X93310Y359166D01*
X92500Y359327D01*
X91849Y359197D01*
X90990Y359654D01*
X90579Y359989D01*
Y365243D01*
X90345Y366421D01*
X89677Y367420D01*
X87920Y369177D01*
X86921Y369845D01*
X85743Y370079D01*
X81541D01*
X80363Y369845D01*
X79364Y369177D01*
X79207Y369020D01*
X78200D01*
X76723Y368408D01*
X75592Y367277D01*
X74980Y365800D01*
Y364200D01*
X75592Y362723D01*
X76723Y361592D01*
X78200Y360980D01*
X79800D01*
X81277Y361592D01*
X82408Y362723D01*
X82904Y363921D01*
X84421D01*
Y351680D01*
X84580Y350880D01*
Y350713D01*
X83407Y350227D01*
X33665Y399968D01*
X34337Y401132D01*
X35020Y403681D01*
Y406319D01*
X34337Y408868D01*
X33018Y411152D01*
X31152Y413018D01*
X28868Y414337D01*
X26319Y415020D01*
X23681D01*
X21132Y414337D01*
X18848Y413018D01*
X16982Y411152D01*
X16339Y410039D01*
X15069Y410380D01*
Y416436D01*
X20044Y421411D01*
X62478D01*
X94931Y388958D01*
D02*
G37*
G36*
X505000Y353000D02*
X503000Y351000D01*
X435000D01*
X435000Y401000D01*
X409000D01*
X401000Y409000D01*
Y423000D01*
X505000D01*
X505000Y353000D01*
D02*
G37*
G36*
X165076Y346710D02*
X159936Y341569D01*
X148116D01*
X147277Y342408D01*
X145800Y343020D01*
X144200D01*
X142723Y342408D01*
X141592Y341277D01*
X140980Y339800D01*
Y338200D01*
X141592Y336723D01*
X142723Y335592D01*
X144200Y334980D01*
X145800D01*
X147277Y335592D01*
X148116Y336431D01*
X158138D01*
X158624Y335257D01*
X155936Y332569D01*
X153116D01*
X152277Y333408D01*
X150800Y334020D01*
X149200D01*
X147723Y333408D01*
X146592Y332277D01*
X145980Y330800D01*
Y329200D01*
X146592Y327723D01*
X147723Y326592D01*
X148333Y326339D01*
X148080Y325069D01*
X108564D01*
X95439Y338195D01*
X96065Y339365D01*
X96369Y339305D01*
X107631D01*
X108522Y339482D01*
X109277Y339986D01*
X109645Y340355D01*
X110150Y341110D01*
X110327Y342000D01*
Y347980D01*
X133135D01*
X133857Y346710D01*
X133480Y345800D01*
Y344200D01*
X134092Y342723D01*
X135223Y341592D01*
X136700Y340980D01*
X138300D01*
X139777Y341592D01*
X140908Y342723D01*
X141520Y344200D01*
Y345800D01*
X141143Y346710D01*
X141865Y347980D01*
X164550D01*
X165076Y346710D01*
D02*
G37*
G36*
X88921Y324225D02*
Y295000D01*
Y287275D01*
X82225Y280579D01*
X80725D01*
X80199Y281849D01*
X81029Y282679D01*
X81890Y282850D01*
X82645Y283355D01*
X83150Y284110D01*
X83327Y285000D01*
X83150Y285890D01*
X82645Y286645D01*
X81890Y287150D01*
X81000Y287327D01*
X80059D01*
X79169Y287150D01*
X78414Y286645D01*
X78193Y286424D01*
X77020Y286910D01*
Y298613D01*
X77047Y298651D01*
X78290Y299357D01*
X79200Y298980D01*
X80800D01*
X82277Y299592D01*
X83408Y300723D01*
X84020Y302200D01*
Y303800D01*
X83408Y305277D01*
X82277Y306408D01*
X80800Y307020D01*
X79200D01*
X78290Y306643D01*
X77020Y307365D01*
Y314580D01*
Y324580D01*
Y334421D01*
X78725D01*
X88921Y324225D01*
D02*
G37*
G36*
X105705Y315683D02*
X106539Y315126D01*
X107522Y314931D01*
X148080D01*
X148333Y313661D01*
X147723Y313408D01*
X146592Y312277D01*
X145980Y310800D01*
Y309200D01*
X146592Y307723D01*
X146921Y307394D01*
Y290444D01*
X133247Y276770D01*
X125222Y284795D01*
X124223Y285462D01*
X123044Y285697D01*
X119989D01*
X119546Y286139D01*
X119462Y286561D01*
X118795Y287560D01*
X109177Y297177D01*
X108178Y297845D01*
X107000Y298079D01*
X95079D01*
Y324513D01*
X96349Y325039D01*
X105705Y315683D01*
D02*
G37*
G36*
X172980Y276499D02*
Y269580D01*
Y259580D01*
X191020D01*
Y260651D01*
X192193Y261137D01*
X204431Y248900D01*
Y232300D01*
X203000D01*
Y206116D01*
X201878Y205442D01*
X201157Y206163D01*
X200327Y206507D01*
Y208000D01*
X200150Y208890D01*
X199645Y209645D01*
X198890Y210150D01*
X198000Y210327D01*
X197110Y210150D01*
X196355Y209645D01*
X195850Y208890D01*
X195673Y208000D01*
Y206645D01*
X190500Y206645D01*
X189337Y206163D01*
X188855Y205000D01*
Y201500D01*
X181645D01*
Y225000D01*
X181520Y225302D01*
Y226020D01*
X181223D01*
X181163Y226163D01*
X180000Y226645D01*
X170000D01*
X168837Y226163D01*
X168355Y225000D01*
Y224490D01*
X167085Y223695D01*
X166300Y224020D01*
X164700D01*
X163223Y223408D01*
X162092Y222277D01*
X161480Y220800D01*
Y219200D01*
X162092Y217723D01*
X163223Y216592D01*
X164700Y215980D01*
X166300D01*
X167085Y216305D01*
X168355Y215510D01*
Y183000D01*
X168400Y182890D01*
X167551Y181620D01*
X131653D01*
X128209Y185064D01*
Y205404D01*
X149736Y226931D01*
X164500D01*
X165483Y227126D01*
X166317Y227683D01*
X169817Y231183D01*
X170374Y232017D01*
X170569Y233000D01*
Y270000D01*
X170374Y270983D01*
X169817Y271817D01*
X166021Y275613D01*
X166723Y276592D01*
X168200Y275980D01*
X169800D01*
X171277Y276592D01*
X171710Y277025D01*
X172980Y276499D01*
D02*
G37*
G36*
X113234Y284412D02*
X112980Y283800D01*
Y282200D01*
X113592Y280723D01*
X114723Y279592D01*
X116200Y278980D01*
X117800D01*
X119147Y279538D01*
X121769D01*
X131069Y270238D01*
X132068Y269570D01*
X133247Y269336D01*
X133331Y269353D01*
X133415Y269336D01*
X156310D01*
X159421Y266225D01*
Y258725D01*
X158151Y258199D01*
X157321Y259029D01*
X157150Y259890D01*
X156645Y260645D01*
X155890Y261150D01*
X155000Y261327D01*
X154110Y261150D01*
X153355Y260645D01*
X152850Y259890D01*
X152673Y259000D01*
Y258059D01*
X152850Y257169D01*
X153355Y256414D01*
X155173Y254596D01*
Y252020D01*
X140069D01*
Y256306D01*
X140069Y256306D01*
X139874Y257290D01*
X139317Y258123D01*
X135143Y262297D01*
X134310Y262854D01*
X133327Y263049D01*
X100531D01*
X100005Y264319D01*
X100388Y264703D01*
X101000Y266180D01*
Y267780D01*
X102048Y268568D01*
X102684Y268631D01*
X102723Y268592D01*
X104200Y267980D01*
X105800D01*
X107277Y268592D01*
X108408Y269723D01*
X109020Y271200D01*
Y272800D01*
X108408Y274277D01*
X107277Y275408D01*
X105800Y276020D01*
X104200D01*
X102723Y275408D01*
X101884Y274569D01*
X93999D01*
X93473Y275839D01*
X95396Y277762D01*
X95592Y277723D01*
X96723Y276592D01*
X98200Y275980D01*
X99800D01*
X101277Y276592D01*
X102408Y277723D01*
X103020Y279200D01*
Y280800D01*
X102408Y282277D01*
X101277Y283408D01*
X99800Y284020D01*
X98200D01*
X96723Y283408D01*
X96412Y283097D01*
X95203D01*
X94541Y284367D01*
X94845Y284822D01*
X95079Y286000D01*
Y291921D01*
X105725D01*
X113234Y284412D01*
D02*
G37*
G36*
X658000Y313000D02*
X643000Y298000D01*
X598000D01*
Y274000D01*
X595000Y271000D01*
X561000D01*
Y278000D01*
X522000Y317000D01*
Y337000D01*
X658000D01*
Y313000D01*
D02*
G37*
G36*
X508000Y334000D02*
Y267000D01*
X503000Y262000D01*
X435000D01*
X435000Y312000D01*
X409000D01*
X401000Y320000D01*
Y336000D01*
X403000Y337000D01*
X505000D01*
X508000Y334000D01*
D02*
G37*
G36*
X212811Y270211D02*
X214389Y269157D01*
X216250Y268787D01*
X227750D01*
X229611Y269157D01*
X231122Y270166D01*
X231493Y270089D01*
X232392Y269726D01*
Y248569D01*
X216000D01*
X215017Y248374D01*
X214183Y247817D01*
X210743Y244376D01*
X209569Y244862D01*
Y249964D01*
X209374Y250947D01*
X208817Y251781D01*
X191681Y268917D01*
X191465Y269061D01*
X191851Y270331D01*
X212731D01*
X212811Y270211D01*
D02*
G37*
G36*
X630789Y255789D02*
X633835Y253290D01*
X637309Y251433D01*
X641079Y250289D01*
X645000Y249903D01*
X655000D01*
X658921Y250289D01*
X661875Y251186D01*
X663145Y250288D01*
Y238912D01*
X661875Y238014D01*
X658921Y238911D01*
X655000Y239297D01*
X645000D01*
X641079Y238911D01*
X637309Y237767D01*
X633835Y235910D01*
X630789Y233411D01*
X628290Y230365D01*
X626433Y226891D01*
X625289Y223121D01*
X624903Y219200D01*
X625289Y215279D01*
X626433Y211509D01*
X628290Y208035D01*
X630789Y204989D01*
X633835Y202490D01*
X637309Y200633D01*
X641079Y199489D01*
X645000Y199103D01*
X655000D01*
X658921Y199489D01*
X661875Y200386D01*
X663145Y199488D01*
Y188112D01*
X661875Y187214D01*
X658921Y188111D01*
X655000Y188497D01*
X645000D01*
X641079Y188111D01*
X637309Y186967D01*
X633835Y185110D01*
X630789Y182611D01*
X628290Y179565D01*
X626433Y176091D01*
X625289Y172321D01*
X624903Y168400D01*
X625289Y164479D01*
X626433Y160709D01*
X628290Y157235D01*
X630789Y154189D01*
X633835Y151690D01*
X637309Y149833D01*
X641079Y148689D01*
X645000Y148303D01*
X655000D01*
X658921Y148689D01*
X661875Y149586D01*
X663075Y148737D01*
X663136Y147487D01*
X642504Y126855D01*
X536020D01*
Y138520D01*
X527271D01*
X525580Y140210D01*
X526106Y141480D01*
X536020D01*
Y146673D01*
X543480D01*
Y142980D01*
X556520D01*
Y158020D01*
X547085D01*
X546599Y159193D01*
X559703Y172297D01*
X561434Y174553D01*
X562522Y177181D01*
X562893Y180000D01*
Y202673D01*
X598000D01*
X598890Y202850D01*
X599645Y203355D01*
X626645Y230355D01*
X627150Y231110D01*
X627327Y232000D01*
Y258007D01*
X628597Y258461D01*
X630789Y255789D01*
D02*
G37*
G36*
X157500Y240673D02*
X158310Y240834D01*
X158419Y240833D01*
X159580Y240118D01*
Y233980D01*
X163260D01*
X163801Y232757D01*
X163251Y232069D01*
X148672D01*
X147688Y231874D01*
X146855Y231317D01*
X131193Y215655D01*
X129874Y216132D01*
X129408Y217257D01*
X128277Y218388D01*
X126800Y219000D01*
X126392D01*
X125069Y220322D01*
Y233980D01*
X155420D01*
Y240118D01*
X156581Y240833D01*
X156690Y240834D01*
X157500Y240673D01*
D02*
G37*
G36*
X600000Y244000D02*
Y223000D01*
X592000Y215000D01*
X525000D01*
X523000Y217000D01*
Y238000D01*
X532000Y247000D01*
X597000D01*
X600000Y244000D01*
D02*
G37*
G36*
X199993Y205000D02*
X207000Y197994D01*
Y192290D01*
X205000Y190291D01*
X201000Y191000D01*
X190500Y201500D01*
Y205000D01*
X199993Y205000D01*
D02*
G37*
G36*
X180000Y183000D02*
X170000D01*
Y225000D01*
X180000D01*
Y183000D01*
D02*
G37*
G36*
X211591Y194676D02*
X211387Y193650D01*
X211757Y191789D01*
X212811Y190211D01*
X214389Y189157D01*
X216250Y188787D01*
X227750D01*
X229611Y189157D01*
X231122Y190166D01*
X231493Y190089D01*
X232392Y189726D01*
Y180222D01*
X231778Y179608D01*
X225259D01*
X224312Y180878D01*
X224327Y180950D01*
X224150Y181840D01*
X223645Y182595D01*
X223120Y183120D01*
X222365Y183625D01*
X221475Y183802D01*
X211489D01*
X206163Y189127D01*
X208163Y191127D01*
X208645Y192290D01*
Y195962D01*
X209819Y196448D01*
X211591Y194676D01*
D02*
G37*
G36*
X387000Y558000D02*
Y183000D01*
Y180000D01*
Y175000D01*
X317000D01*
Y425000D01*
X355000D01*
Y445000D01*
Y565000D01*
X380000D01*
X387000Y558000D01*
D02*
G37*
G36*
X508000Y244000D02*
Y177000D01*
X503000Y172000D01*
X435000D01*
X435000Y222000D01*
X409000D01*
X401000Y230000D01*
Y246000D01*
X403000Y247000D01*
X505000D01*
X508000Y244000D01*
D02*
G37*
G36*
X260149Y176263D02*
X263020Y175885D01*
X275431D01*
Y159000D01*
X275626Y158017D01*
X276183Y157183D01*
X287683Y145683D01*
X288517Y145126D01*
X289500Y144931D01*
X290501D01*
X292065Y144283D01*
X293980Y144031D01*
Y142089D01*
X284596D01*
X284277Y142408D01*
X282800Y143020D01*
X281200D01*
X279723Y142408D01*
X278592Y141277D01*
X277980Y139800D01*
Y138200D01*
X278592Y136723D01*
X279723Y135592D01*
X281200Y134980D01*
X282800D01*
X284277Y135592D01*
X285408Y136723D01*
X285502Y136951D01*
X293980D01*
Y126480D01*
X302386D01*
X310827Y118040D01*
X310301Y116770D01*
X239064D01*
X202615Y153219D01*
X203101Y154392D01*
X237000D01*
X240263Y154822D01*
X243304Y156081D01*
X245915Y158085D01*
X253915Y166085D01*
X255919Y168696D01*
X257178Y171737D01*
X257608Y175000D01*
X257608Y175000D01*
Y176173D01*
X258664Y176878D01*
X260149Y176263D01*
D02*
G37*
G36*
X503980Y141480D02*
X512729D01*
X514516Y139693D01*
X514030Y138520D01*
X503980D01*
Y134827D01*
X496020D01*
Y138520D01*
X485970D01*
X485484Y139693D01*
X491645Y145855D01*
X492150Y146610D01*
X492327Y147500D01*
X492150Y148390D01*
X491645Y149145D01*
X490890Y149650D01*
X490812Y149665D01*
X490937Y150935D01*
X503980D01*
Y141480D01*
D02*
G37*
G36*
X489188Y149665D02*
X489110Y149650D01*
X488355Y149145D01*
X479019Y139809D01*
X478514Y139054D01*
X478337Y138164D01*
Y109827D01*
X467964D01*
X467074Y109650D01*
X466319Y109145D01*
X465814Y108390D01*
X465637Y107500D01*
X465814Y106610D01*
X466319Y105855D01*
X467074Y105350D01*
X467964Y105173D01*
X480664D01*
X481554Y105350D01*
X482309Y105855D01*
X482813Y106610D01*
X482991Y107500D01*
Y125803D01*
X483980Y126480D01*
X496020D01*
Y130173D01*
X503980D01*
Y126480D01*
X507673D01*
Y122964D01*
X505141Y120431D01*
X504636Y119676D01*
X504459Y118786D01*
Y117794D01*
X504203Y117743D01*
X502625Y116689D01*
X501571Y115111D01*
X501200Y113250D01*
Y101750D01*
X501571Y99889D01*
X502625Y98311D01*
X504203Y97257D01*
X506064Y96887D01*
X507925Y97257D01*
X509503Y98311D01*
X510557Y99889D01*
X510927Y101750D01*
Y113250D01*
X510557Y115111D01*
X509503Y116689D01*
X509480Y116704D01*
X509383Y118092D01*
X511645Y120355D01*
X512150Y121110D01*
X512327Y122000D01*
Y126480D01*
X516020D01*
Y136492D01*
X517290Y137064D01*
X517610Y136850D01*
X518500Y136673D01*
X522536D01*
X523980Y135230D01*
Y126480D01*
X527094D01*
X527433Y125210D01*
X525457Y123233D01*
X523325Y122002D01*
X520998Y119675D01*
X519959Y117876D01*
X518764Y118113D01*
X516903Y117743D01*
X515325Y116689D01*
X514271Y115111D01*
X513900Y113250D01*
Y101750D01*
X514271Y99889D01*
X515325Y98311D01*
X516903Y97257D01*
X518764Y96887D01*
X520625Y97257D01*
X522203Y98311D01*
X523257Y99889D01*
X523379Y100500D01*
X524802Y101145D01*
X526027Y100438D01*
X526006Y100333D01*
Y90296D01*
X520729Y85020D01*
X519200D01*
X517723Y84408D01*
X517345Y84030D01*
X515609Y83970D01*
X505159Y94421D01*
X502903Y96152D01*
X500275Y97240D01*
X497800Y97566D01*
X497290Y98386D01*
X497184Y98881D01*
X497857Y99889D01*
X498227Y101750D01*
Y113250D01*
X497857Y115111D01*
X496803Y116689D01*
X495225Y117743D01*
X493364Y118113D01*
X491503Y117743D01*
X489925Y116689D01*
X488871Y115111D01*
X488500Y113250D01*
Y101750D01*
X488871Y99889D01*
X489544Y98881D01*
X488865Y97611D01*
X464327D01*
Y123536D01*
X467271Y126480D01*
X476020D01*
Y138520D01*
X466106D01*
X465580Y139790D01*
X467271Y141480D01*
X476020D01*
Y150935D01*
X489063D01*
X489188Y149665D01*
D02*
G37*
G36*
X418427Y100937D02*
X417500Y99827D01*
X416610Y99650D01*
X415855Y99145D01*
X415355Y98645D01*
X414850Y97890D01*
X414673Y97000D01*
Y88000D01*
X414850Y87110D01*
X415355Y86355D01*
X416110Y85850D01*
X417000Y85673D01*
X417890Y85850D01*
X418645Y86355D01*
X419150Y87110D01*
X419327Y88000D01*
Y89572D01*
X420597Y90003D01*
X421617Y88673D01*
X430018Y80272D01*
X429532Y79099D01*
X423779D01*
X423520Y79272D01*
Y83520D01*
X411480D01*
Y71480D01*
X419104D01*
X419500Y71401D01*
X420579D01*
X420860Y71213D01*
X422429Y70901D01*
X425520D01*
X425845Y70370D01*
X425998Y69631D01*
X419886Y63520D01*
X411480D01*
Y51480D01*
X423520D01*
Y59886D01*
X429064Y65431D01*
X460936D01*
X464628Y61738D01*
X464525Y60689D01*
X463471Y59111D01*
X463100Y57250D01*
Y45750D01*
X463471Y43889D01*
X464525Y42311D01*
X465395Y41730D01*
Y39536D01*
X465590Y38553D01*
X466147Y37719D01*
X473980Y29886D01*
Y27000D01*
X466020D01*
Y33520D01*
X462569D01*
Y36000D01*
X462569Y36000D01*
X462374Y36983D01*
X461817Y37817D01*
X458579Y41055D01*
X458703Y42311D01*
X459757Y43889D01*
X460127Y45750D01*
Y57250D01*
X459757Y59111D01*
X458703Y60689D01*
X457125Y61743D01*
X455264Y62113D01*
X453403Y61743D01*
X451825Y60689D01*
X450771Y59111D01*
X450400Y57250D01*
Y45750D01*
X450771Y43889D01*
X451825Y42311D01*
X452695Y41730D01*
Y40736D01*
X452890Y39753D01*
X453447Y38919D01*
X457431Y34936D01*
Y33520D01*
X453980D01*
Y30069D01*
X446020D01*
Y33520D01*
X433980D01*
Y23813D01*
X432807Y23327D01*
X430569Y25564D01*
Y41936D01*
X436524Y47890D01*
X437794Y47364D01*
Y40980D01*
X447334D01*
Y62020D01*
X437794D01*
Y54069D01*
X431500D01*
X430517Y53874D01*
X429683Y53317D01*
X418936Y42569D01*
X388140D01*
X387450Y43594D01*
X387400Y43839D01*
X387569Y44692D01*
X387569Y44692D01*
Y95936D01*
X395250Y103616D01*
X396480Y103050D01*
Y91480D01*
X399931D01*
Y83520D01*
X396480D01*
Y71480D01*
X399931D01*
Y63520D01*
X396480D01*
Y51480D01*
X408520D01*
Y63520D01*
X405069D01*
Y71480D01*
X408520D01*
Y83520D01*
X405069D01*
Y91480D01*
X408520D01*
Y103161D01*
X408520Y103520D01*
X409388Y104431D01*
X418427D01*
Y100937D01*
D02*
G37*
G36*
X201261Y91193D02*
X200966Y90443D01*
X200638Y90020D01*
X199200D01*
X197723Y89408D01*
X196592Y88277D01*
X195980Y86800D01*
Y85200D01*
X196592Y83723D01*
X197723Y82592D01*
X199200Y81980D01*
X200800D01*
X202277Y82592D01*
X202526Y82841D01*
X218173Y67193D01*
X217687Y66020D01*
X216480D01*
Y62504D01*
X216148Y61702D01*
X215924Y60000D01*
Y40000D01*
X216148Y38298D01*
X216480Y37496D01*
Y33980D01*
X219996D01*
X220798Y33648D01*
X222500Y33424D01*
X224202Y33648D01*
X225004Y33980D01*
X228520D01*
Y36569D01*
X228661Y36690D01*
X229931Y36109D01*
Y-3936D01*
X220397Y-13469D01*
X219061Y-12697D01*
X216385Y-11980D01*
X213615D01*
X210939Y-12697D01*
X208541Y-14082D01*
X206582Y-16041D01*
X205197Y-18439D01*
X204480Y-21115D01*
Y-23885D01*
X205197Y-26561D01*
X206582Y-28959D01*
X208541Y-30918D01*
X210939Y-32303D01*
X213615Y-33020D01*
X216385D01*
X219061Y-32303D01*
X221459Y-30918D01*
X223418Y-28959D01*
X224803Y-26561D01*
X225520Y-23885D01*
Y-21115D01*
X224803Y-18439D01*
X224031Y-17103D01*
X234317Y-6817D01*
X234874Y-5983D01*
X235069Y-5000D01*
Y63588D01*
X234874Y64571D01*
X234317Y65405D01*
X227464Y72257D01*
X227950Y73431D01*
X252289D01*
X253138Y72161D01*
X252980Y71780D01*
Y70180D01*
X253592Y68703D01*
X254431Y67864D01*
Y66020D01*
X251480D01*
Y53980D01*
X263520D01*
Y62386D01*
X270564Y69431D01*
X278480D01*
Y56276D01*
X266302Y44099D01*
X263520D01*
Y46020D01*
X251480D01*
Y33980D01*
X263520D01*
Y35901D01*
X268000D01*
X269569Y36213D01*
X270898Y37102D01*
X284277Y50480D01*
X296520D01*
Y69431D01*
X298936D01*
X303431Y64936D01*
Y32064D01*
X288183Y16817D01*
X287626Y15983D01*
X287431Y15000D01*
Y-12297D01*
X285939Y-12697D01*
X283541Y-14082D01*
X281582Y-16041D01*
X280839Y-17327D01*
X279569Y-16986D01*
Y27828D01*
X279569Y27828D01*
X279374Y28812D01*
X278817Y29645D01*
X277645Y30817D01*
X276812Y31374D01*
X275828Y31569D01*
X245069D01*
Y33980D01*
X248520D01*
Y46020D01*
X236480D01*
Y33980D01*
X239931D01*
Y26020D01*
X236480D01*
Y13980D01*
X239931D01*
Y6020D01*
X236480D01*
Y-6020D01*
X248520D01*
Y6020D01*
X245069D01*
Y13980D01*
X248520D01*
Y26020D01*
X249620Y26431D01*
X250380D01*
X251480Y26020D01*
Y13980D01*
X263520D01*
Y13980D01*
X263631Y14021D01*
X264901Y13136D01*
Y-11980D01*
X263615D01*
X260939Y-12697D01*
X258541Y-14082D01*
X256582Y-16041D01*
X255197Y-18439D01*
X254480Y-21115D01*
Y-23885D01*
X255197Y-26561D01*
X256582Y-28959D01*
X258541Y-30918D01*
X260939Y-32303D01*
X263615Y-33020D01*
X266385D01*
X269061Y-32303D01*
X271459Y-30918D01*
X273161Y-29217D01*
X274431Y-29581D01*
Y-33000D01*
X274626Y-33983D01*
X275183Y-34817D01*
X276922Y-36556D01*
X276436Y-37729D01*
X212202D01*
X211218Y-37924D01*
X210385Y-38481D01*
X198936Y-49931D01*
X142500D01*
X141974Y-48661D01*
X149928Y-40707D01*
X145720Y-36499D01*
X176817Y-5403D01*
X177374Y-4569D01*
X177569Y-3586D01*
Y113225D01*
X178743Y113712D01*
X201261Y91193D01*
D02*
G37*
G36*
X742557Y414583D02*
X747337Y142106D01*
X687467Y89639D01*
X687409Y89564D01*
X687330Y89511D01*
X687073Y89127D01*
X686790Y88759D01*
X686766Y88667D01*
X686713Y88589D01*
X686623Y88134D01*
X686503Y87687D01*
X686515Y87593D01*
X686497Y87500D01*
Y-27892D01*
X686499Y-27903D01*
X686497Y-27913D01*
X686520Y-31133D01*
X674460Y-35153D01*
X656460Y-50153D01*
X645460Y-60153D01*
X647460Y-75153D01*
X656460Y-86153D01*
X655460Y-91153D01*
X687126Y-114902D01*
X687155Y-119021D01*
X687180Y-119138D01*
X687167Y-119257D01*
X687291Y-119678D01*
X687380Y-120108D01*
X687447Y-120207D01*
X687481Y-120322D01*
X687757Y-120663D01*
X688003Y-121026D01*
X688103Y-121092D01*
X688179Y-121185D01*
X694179Y-126185D01*
X694504Y-126362D01*
X694802Y-126580D01*
X694987Y-126625D01*
X695154Y-126716D01*
X695521Y-126755D01*
X695881Y-126842D01*
X696068Y-126813D01*
X696257Y-126833D01*
X696612Y-126728D01*
X696977Y-126671D01*
X697140Y-126573D01*
X697322Y-126519D01*
X697610Y-126286D01*
X697925Y-126094D01*
X698037Y-125941D01*
X698185Y-125821D01*
X698362Y-125496D01*
X698580Y-125198D01*
X698743Y-124848D01*
X699974Y-124539D01*
X718573Y-138488D01*
X707875Y-161518D01*
X706648Y-161849D01*
X690161Y-150358D01*
X669344Y-137032D01*
X648020Y-124533D01*
X626221Y-112882D01*
X617867Y-108830D01*
X617778Y-107375D01*
X623623Y-101530D01*
X625242Y-100664D01*
X627526Y-98790D01*
X629401Y-96506D01*
X630266Y-94886D01*
X636491Y-88662D01*
X631055Y-83227D01*
X630793Y-82364D01*
X629401Y-79758D01*
X627526Y-77474D01*
X625242Y-75599D01*
X622636Y-74207D01*
X622529Y-74174D01*
X620820Y-72464D01*
X623472Y-69812D01*
X626711Y-73051D01*
X626780Y-73570D01*
X627436Y-75156D01*
X628482Y-76518D01*
X629844Y-77564D01*
X631430Y-78220D01*
X632529Y-78365D01*
X633662Y-79498D01*
X635014Y-78146D01*
X636420Y-77564D01*
X637782Y-76518D01*
X638827Y-75156D01*
X639409Y-73751D01*
X640761Y-72399D01*
X639708Y-71345D01*
Y-70171D01*
X639708Y-70171D01*
X639484Y-68469D01*
X638827Y-66883D01*
X637782Y-65521D01*
X637782Y-65521D01*
X625352Y-53091D01*
X625500Y-52536D01*
Y-49503D01*
X624715Y-46573D01*
X623199Y-43946D01*
X621054Y-41802D01*
X618427Y-40285D01*
X615497Y-39500D01*
X612464D01*
X609534Y-40285D01*
X606907Y-41802D01*
X604762Y-43946D01*
X603409Y-46289D01*
X602043Y-46719D01*
X596020Y-40696D01*
X579353Y-57363D01*
X578143Y-57508D01*
X577777Y-57142D01*
X568922Y-48287D01*
X558288Y-58922D01*
Y-58922D01*
X557870Y-59931D01*
X543564D01*
X522115Y-38481D01*
X521282Y-37924D01*
X520298Y-37729D01*
X305064D01*
X304578Y-36556D01*
X309603Y-31531D01*
X310939Y-32303D01*
X313615Y-33020D01*
X316385D01*
X319061Y-32303D01*
X321459Y-30918D01*
X323418Y-28959D01*
X324803Y-26561D01*
X325520Y-23885D01*
Y-21115D01*
X324803Y-18439D01*
X323418Y-16041D01*
X321459Y-14082D01*
X319569Y-12991D01*
Y25884D01*
X320408Y26723D01*
X321020Y28200D01*
Y29800D01*
X320408Y31277D01*
X319277Y32408D01*
X317800Y33020D01*
X316200D01*
X314723Y32408D01*
X313592Y31277D01*
X312980Y29800D01*
Y28200D01*
X313592Y26723D01*
X314431Y25884D01*
Y-11980D01*
X313615D01*
X310939Y-12697D01*
X308541Y-14082D01*
X306582Y-16041D01*
X305197Y-18439D01*
X304480Y-21115D01*
Y-23885D01*
X305197Y-26561D01*
X305969Y-27898D01*
X300436Y-33431D01*
X294519D01*
X294468Y-33306D01*
X294307Y-32161D01*
X296459Y-30918D01*
X298418Y-28959D01*
X299803Y-26561D01*
X300520Y-23885D01*
Y-21115D01*
X299803Y-18439D01*
X298418Y-16041D01*
X296459Y-14082D01*
X294061Y-12697D01*
X292569Y-12297D01*
Y13936D01*
X307817Y29183D01*
X308374Y30017D01*
X308569Y31000D01*
Y66000D01*
X308374Y66983D01*
X307817Y67817D01*
X303376Y72257D01*
X303862Y73431D01*
X305936D01*
X313480Y65886D01*
Y50480D01*
X331520D01*
Y69520D01*
X317114D01*
X310856Y75777D01*
X311342Y76951D01*
X338416D01*
X343445Y71922D01*
X342980Y70800D01*
Y69200D01*
X343592Y67723D01*
X344723Y66592D01*
X346200Y65980D01*
X347800D01*
X349277Y66592D01*
X350408Y67723D01*
X350641Y68284D01*
X351911Y68032D01*
Y-6980D01*
X352106Y-7963D01*
X352663Y-8797D01*
X359480Y-15614D01*
Y-33020D01*
X380520D01*
Y-12479D01*
X388776D01*
X389116Y-13750D01*
X388541Y-14082D01*
X386582Y-16041D01*
X385197Y-18439D01*
X384480Y-21115D01*
Y-23885D01*
X385197Y-26561D01*
X386582Y-28959D01*
X388541Y-30918D01*
X390939Y-32303D01*
X393615Y-33020D01*
X396385D01*
X399061Y-32303D01*
X401459Y-30918D01*
X403418Y-28959D01*
X404803Y-26561D01*
X405520Y-23885D01*
Y-21115D01*
X404803Y-18439D01*
X403418Y-16041D01*
X401459Y-14082D01*
X399061Y-12697D01*
X396385Y-11980D01*
X395334D01*
Y-11765D01*
X395139Y-10782D01*
X394582Y-9948D01*
X392727Y-8093D01*
X391893Y-7536D01*
X390910Y-7341D01*
X371974D01*
X360569Y4064D01*
Y36860D01*
X361594Y37550D01*
X361839Y37600D01*
X362692Y37431D01*
X362692Y37431D01*
X420000D01*
X420983Y37626D01*
X421817Y38183D01*
X424257Y40624D01*
X425431Y40138D01*
Y24500D01*
X425626Y23517D01*
X426183Y22683D01*
X433980Y14886D01*
Y6480D01*
X446020D01*
Y18520D01*
X437614D01*
X435827Y20307D01*
X436313Y21480D01*
X446020D01*
Y24931D01*
X453980D01*
Y21480D01*
X463894D01*
X464420Y20210D01*
X462729Y18520D01*
X453980D01*
Y6480D01*
X462729D01*
X465500Y3710D01*
Y-2000D01*
X471209D01*
X477137Y-7927D01*
X477892Y-8432D01*
X478060Y-8465D01*
X480297Y-10703D01*
X482553Y-12434D01*
X485181Y-13522D01*
X487057Y-13769D01*
X487513Y-15110D01*
X486582Y-16041D01*
X485197Y-18439D01*
X484480Y-21115D01*
Y-23885D01*
X485197Y-26561D01*
X486582Y-28959D01*
X488541Y-30918D01*
X490939Y-32303D01*
X493615Y-33020D01*
X496385D01*
X499061Y-32303D01*
X501459Y-30918D01*
X503418Y-28959D01*
X504803Y-26561D01*
X505520Y-23885D01*
Y-21115D01*
X504803Y-18439D01*
X503418Y-16041D01*
X502541Y-15163D01*
X503067Y-13893D01*
X546828D01*
X549648Y-13522D01*
X552275Y-12434D01*
X554531Y-10703D01*
X556703Y-8531D01*
X558434Y-6275D01*
X558856Y-5256D01*
X560177Y-5386D01*
X560213Y-5569D01*
X561102Y-6898D01*
X582102Y-27898D01*
X583431Y-28787D01*
X585000Y-29099D01*
X599606D01*
X601175Y-28787D01*
X602504Y-27898D01*
X604482Y-25921D01*
X607106Y-28545D01*
X617741Y-17910D01*
X616029Y-16198D01*
X670898Y38671D01*
X671787Y40001D01*
X672099Y41570D01*
Y81559D01*
X672363Y81823D01*
X672363Y81823D01*
X672364Y81823D01*
X672364Y81824D01*
X725898Y135358D01*
X726787Y136688D01*
X727099Y138256D01*
Y402142D01*
X726972Y402779D01*
X726893Y403424D01*
X726817Y403559D01*
X726787Y403711D01*
X726426Y404251D01*
X726107Y404816D01*
X688099Y448978D01*
Y476034D01*
X689289Y476476D01*
X742557Y414583D01*
D02*
G37*
G36*
X125683Y-54317D02*
X126517Y-54874D01*
X127500Y-55069D01*
X127500Y-55069D01*
X200000D01*
X200983Y-54874D01*
X201817Y-54317D01*
X213266Y-42868D01*
X519234D01*
X540683Y-64317D01*
X541517Y-64874D01*
X542500Y-65069D01*
X542500Y-65069D01*
X561429D01*
X562412Y-64874D01*
X563246Y-64317D01*
X563464Y-64099D01*
X567142Y-67777D01*
X567269Y-67904D01*
X567735Y-68980D01*
X567975Y-69220D01*
X596020Y-97265D01*
X599504Y-93780D01*
X604513Y-98790D01*
X604513Y-98790D01*
X606797Y-100664D01*
X609403Y-102057D01*
X612231Y-102915D01*
X612595Y-102951D01*
X616305Y-106661D01*
X615559Y-107710D01*
X603982Y-102095D01*
X581337Y-92190D01*
X558320Y-83181D01*
X534967Y-75083D01*
X511314Y-67908D01*
X487398Y-61667D01*
X463255Y-56370D01*
X438923Y-52025D01*
X414439Y-48638D01*
X389841Y-46216D01*
X365167Y-44761D01*
X340455Y-44275D01*
X315742Y-44761D01*
X291068Y-46216D01*
X266470Y-48638D01*
X241986Y-52025D01*
X217654Y-56370D01*
X193511Y-61667D01*
X169595Y-67908D01*
X145942Y-75083D01*
X122590Y-83181D01*
X99573Y-92190D01*
X76927Y-102095D01*
X54688Y-112882D01*
X32890Y-124533D01*
X12707Y-136363D01*
X-4304Y-111993D01*
X5460Y-104153D01*
X5460Y-104153D01*
X5627Y-102952D01*
X6069Y-101887D01*
X7194Y-100762D01*
X8664Y-100153D01*
X9460Y-100153D01*
X10460Y-100153D01*
X14460Y-96153D01*
Y-86153D01*
X17730Y-82883D01*
X21602Y-86755D01*
X22468Y-88374D01*
X24342Y-90658D01*
X26626Y-92532D01*
X28245Y-93398D01*
X36338Y-101490D01*
X56491Y-81338D01*
X57553Y-80837D01*
X60188Y-83472D01*
X50709Y-92951D01*
X49664Y-94313D01*
X49532Y-94632D01*
X45502Y-98662D01*
X52601Y-105761D01*
X54322Y-104041D01*
X55359Y-104178D01*
X57061Y-103954D01*
X58647Y-103297D01*
X60009Y-102252D01*
X76909Y-85352D01*
X77464Y-85500D01*
X80497D01*
X83427Y-84715D01*
X86054Y-83198D01*
X88199Y-81054D01*
X89715Y-78427D01*
X90500Y-75497D01*
Y-72464D01*
X89715Y-69534D01*
X88199Y-66907D01*
X86054Y-64762D01*
X83711Y-63409D01*
X83281Y-62043D01*
X89304Y-56020D01*
X73039Y-39755D01*
X72894Y-38545D01*
X79545Y-31894D01*
X103260D01*
X125683Y-54317D01*
D02*
G37*
%LPC*%
G36*
X68922Y591712D02*
X58287Y581078D01*
X67508Y571857D01*
X78143Y582492D01*
X68922Y591712D01*
D02*
G37*
G36*
X107813Y623709D02*
X106923Y623532D01*
X106168Y623028D01*
X105664Y622273D01*
X105486Y621383D01*
X105664Y620492D01*
X106168Y619738D01*
X114673Y611232D01*
Y580676D01*
X114850Y579786D01*
X115355Y579031D01*
X146031Y548355D01*
X146786Y547850D01*
X147676Y547673D01*
X148566Y547850D01*
X149321Y548355D01*
X149826Y549110D01*
X149829Y549124D01*
X189378Y588673D01*
X307673D01*
Y572500D01*
X307850Y571610D01*
X308355Y570855D01*
X309110Y570350D01*
X310000Y570173D01*
X310890Y570350D01*
X311645Y570855D01*
X312150Y571610D01*
X312327Y572500D01*
Y590107D01*
X312150Y590998D01*
X311645Y591753D01*
X310753Y592645D01*
X309998Y593150D01*
X309107Y593327D01*
X188414D01*
X187524Y593150D01*
X186769Y592645D01*
X147545Y553421D01*
X119327Y581640D01*
Y612196D01*
X119150Y613086D01*
X118645Y613841D01*
X109458Y623028D01*
X108704Y623532D01*
X107813Y623709D01*
D02*
G37*
G36*
X273844Y583020D02*
X230804D01*
Y567780D01*
X273844D01*
Y568824D01*
X283980D01*
Y566480D01*
X287496D01*
X288298Y566148D01*
X290000Y565924D01*
X291702Y566148D01*
X292504Y566480D01*
X296020D01*
Y569996D01*
X296352Y570798D01*
X296576Y572500D01*
X296352Y574202D01*
X296020Y575004D01*
Y578520D01*
X293280D01*
X291750Y580050D01*
X290388Y581095D01*
X288802Y581752D01*
X287100Y581976D01*
X287100Y581976D01*
X273844D01*
Y583020D01*
D02*
G37*
G36*
X29500Y541327D02*
X28610Y541150D01*
X27855Y540645D01*
X27350Y539890D01*
X27173Y539000D01*
Y518000D01*
X27350Y517110D01*
X27855Y516355D01*
X28355Y515855D01*
X29110Y515350D01*
X30000Y515173D01*
X30890Y515350D01*
X31645Y515855D01*
X32150Y516610D01*
X32327Y517500D01*
X32150Y518390D01*
X31827Y518874D01*
Y539000D01*
X31650Y539890D01*
X31145Y540645D01*
X30390Y541150D01*
X29500Y541327D01*
D02*
G37*
G36*
X17020Y545520D02*
X3980D01*
Y532480D01*
X8173D01*
Y523520D01*
X3980D01*
Y511480D01*
X16020D01*
Y523520D01*
X12827D01*
Y532480D01*
X17020D01*
Y545520D01*
D02*
G37*
G36*
X36020Y508520D02*
X23980D01*
Y505069D01*
X16020D01*
Y508520D01*
X3980D01*
Y496480D01*
X16020D01*
Y499931D01*
X23980D01*
Y496480D01*
X24999D01*
X25592Y495277D01*
X24980Y493800D01*
Y492200D01*
X25592Y490723D01*
X26723Y489592D01*
X28200Y488980D01*
X29800D01*
X31277Y489592D01*
X32408Y490723D01*
X33020Y492200D01*
Y493800D01*
X32569Y494888D01*
Y496480D01*
X36020D01*
Y508520D01*
D02*
G37*
G36*
X59217Y74220D02*
X56183D01*
X53253Y73435D01*
X50627Y71918D01*
X48482Y69774D01*
X46965Y67147D01*
X46180Y64217D01*
Y61183D01*
X46965Y58253D01*
X48482Y55627D01*
X50627Y53482D01*
X53253Y51965D01*
X56183Y51180D01*
X59217D01*
X62147Y51965D01*
X64774Y53482D01*
X66918Y55627D01*
X68435Y58253D01*
X69220Y61183D01*
Y64217D01*
X68435Y67147D01*
X66918Y69774D01*
X64774Y71918D01*
X62147Y73435D01*
X59217Y74220D01*
D02*
G37*
G36*
X33817Y48820D02*
X30783D01*
X27853Y48035D01*
X25227Y46518D01*
X23082Y44373D01*
X21565Y41747D01*
X20780Y38817D01*
Y35783D01*
X21565Y32853D01*
X23082Y30227D01*
X25227Y28082D01*
X27853Y26565D01*
X30783Y25780D01*
X33817D01*
X36747Y26565D01*
X39374Y28082D01*
X41518Y30227D01*
X43035Y32853D01*
X43820Y35783D01*
Y38817D01*
X43035Y41747D01*
X41518Y44373D01*
X39374Y46518D01*
X36747Y48035D01*
X33817Y48820D01*
D02*
G37*
G36*
Y23420D02*
X30783D01*
X27853Y22635D01*
X25227Y21118D01*
X23082Y18973D01*
X21565Y16347D01*
X20780Y13417D01*
Y10383D01*
X21565Y7453D01*
X23082Y4827D01*
X25227Y2682D01*
X27853Y1165D01*
X30783Y380D01*
X33817D01*
X36747Y1165D01*
X39374Y2682D01*
X41518Y4827D01*
X43035Y7453D01*
X43820Y10383D01*
Y13417D01*
X43035Y16347D01*
X41518Y18973D01*
X39374Y21118D01*
X36747Y22635D01*
X33817Y23420D01*
D02*
G37*
G36*
X602500Y619076D02*
X600798Y618852D01*
X599212Y618195D01*
X597850Y617150D01*
X585350Y604650D01*
X580350Y599650D01*
X579305Y598288D01*
X578648Y596702D01*
X578424Y595000D01*
X578424Y595000D01*
Y581000D01*
X578480Y580573D01*
Y574480D01*
X584573D01*
X585000Y574424D01*
X585428Y574480D01*
X591520D01*
Y580573D01*
X591576Y581000D01*
Y592276D01*
X592500Y593200D01*
X592850Y592850D01*
X594212Y591805D01*
X595798Y591148D01*
X597500Y590924D01*
X599202Y591148D01*
X600788Y591805D01*
X602150Y592850D01*
X603195Y594212D01*
X603852Y595798D01*
X604076Y597500D01*
X603852Y599202D01*
X603195Y600788D01*
X602150Y602150D01*
X601800Y602500D01*
X607150Y607850D01*
X608195Y609212D01*
X608852Y610798D01*
X609076Y612500D01*
X608852Y614202D01*
X608195Y615788D01*
X607150Y617150D01*
X605788Y618195D01*
X604202Y618852D01*
X602500Y619076D01*
D02*
G37*
G36*
X582020Y565520D02*
X568980D01*
Y552480D01*
X572431D01*
Y543520D01*
X568980D01*
Y531480D01*
X581020D01*
Y543520D01*
X577569D01*
Y552480D01*
X582020D01*
Y565520D01*
D02*
G37*
G36*
X590000Y45576D02*
X589572Y45520D01*
X583480D01*
Y39427D01*
X583424Y39000D01*
Y32500D01*
X583424Y32500D01*
X583648Y30798D01*
X584305Y29212D01*
X585350Y27850D01*
X590370Y22830D01*
X591732Y21785D01*
X593318Y21128D01*
X595020Y20904D01*
X596722Y21128D01*
X598308Y21785D01*
X599670Y22830D01*
X600715Y24192D01*
X601372Y25778D01*
X601596Y27480D01*
X601372Y29182D01*
X600715Y30768D01*
X599670Y32130D01*
X596576Y35224D01*
Y39000D01*
X596520Y39427D01*
Y45520D01*
X590427D01*
X590000Y45576D01*
D02*
G37*
G36*
X151987Y484420D02*
X149613D01*
X147318Y483805D01*
X145262Y482618D01*
X143582Y480938D01*
X142395Y478882D01*
X141780Y476587D01*
Y474212D01*
X142395Y471918D01*
X143582Y469862D01*
X145262Y468182D01*
X147318Y466995D01*
X149613Y466380D01*
X151987D01*
X154282Y466995D01*
X156338Y468182D01*
X158018Y469862D01*
X159205Y471918D01*
X159820Y474212D01*
Y476587D01*
X159205Y478882D01*
X158018Y480938D01*
X156338Y482618D01*
X154282Y483805D01*
X151987Y484420D01*
D02*
G37*
G36*
X150800Y452327D02*
X125400D01*
X124510Y452150D01*
X123755Y451645D01*
X123250Y450890D01*
X123073Y450000D01*
X123250Y449110D01*
X123755Y448355D01*
X124510Y447850D01*
X125400Y447673D01*
X150800D01*
X151690Y447850D01*
X152445Y448355D01*
X152950Y449110D01*
X153127Y450000D01*
X152950Y450890D01*
X152445Y451645D01*
X151690Y452150D01*
X150800Y452327D01*
D02*
G37*
G36*
X221205Y353863D02*
X220314Y353686D01*
X220178Y353595D01*
X208268D01*
X207378Y353418D01*
X206623Y352913D01*
X206355Y352645D01*
X205850Y351890D01*
X205673Y351000D01*
X205850Y350110D01*
X206355Y349355D01*
X207110Y348850D01*
X208000Y348673D01*
X208890Y348850D01*
X209027Y348941D01*
X220937D01*
X221827Y349118D01*
X222582Y349623D01*
X222850Y349891D01*
X223354Y350646D01*
X223531Y351536D01*
X223354Y352426D01*
X222850Y353181D01*
X222095Y353686D01*
X221205Y353863D01*
D02*
G37*
G36*
X206941Y265327D02*
X206000D01*
X205110Y265150D01*
X204355Y264645D01*
X203850Y263890D01*
X203673Y263000D01*
X203850Y262110D01*
X204355Y261355D01*
X205110Y260850D01*
X205971Y260679D01*
X207345Y259305D01*
X208100Y258800D01*
X208991Y258623D01*
X222000D01*
X222890Y258800D01*
X223645Y259305D01*
X224150Y260060D01*
X224327Y260950D01*
X224150Y261840D01*
X223645Y262595D01*
X222890Y263100D01*
X222000Y263277D01*
X209954D01*
X208586Y264645D01*
X207831Y265150D01*
X206941Y265327D01*
D02*
G37*
G36*
X186000Y47076D02*
X185572Y47020D01*
X179480D01*
Y40928D01*
X179424Y40500D01*
X179480Y40072D01*
Y33980D01*
X183996D01*
X184798Y33648D01*
X186500Y33424D01*
X207500D01*
X209202Y33648D01*
X210004Y33980D01*
X213520D01*
Y37496D01*
X213852Y38298D01*
X214076Y40000D01*
X213852Y41702D01*
X213520Y42504D01*
Y46020D01*
X210004D01*
X209202Y46352D01*
X207500Y46576D01*
X192520D01*
Y47020D01*
X186427D01*
X186000Y47076D01*
D02*
G37*
G36*
X263520Y6020D02*
X251480D01*
Y-1604D01*
X251401Y-2000D01*
Y-5302D01*
X244018Y-12686D01*
X241385Y-11980D01*
X238615D01*
X235939Y-12697D01*
X233541Y-14082D01*
X231582Y-16041D01*
X230197Y-18439D01*
X229480Y-21115D01*
Y-23885D01*
X230197Y-26561D01*
X231582Y-28959D01*
X233541Y-30918D01*
X235939Y-32303D01*
X238615Y-33020D01*
X241385D01*
X244061Y-32303D01*
X246459Y-30918D01*
X248418Y-28959D01*
X249803Y-26561D01*
X250520Y-23885D01*
Y-21115D01*
X249814Y-18482D01*
X258398Y-9898D01*
X259287Y-8569D01*
X259599Y-7000D01*
Y-6020D01*
X263520D01*
Y6020D01*
D02*
G37*
G36*
X200520Y-11980D02*
X179480D01*
Y-33020D01*
X200520D01*
Y-11980D01*
D02*
G37*
G36*
X421020Y33520D02*
X408980D01*
Y30069D01*
X401020D01*
Y33520D01*
X388980D01*
Y30069D01*
X386908D01*
X386408Y31277D01*
X385277Y32408D01*
X383800Y33020D01*
X382200D01*
X380723Y32408D01*
X379592Y31277D01*
X378980Y29800D01*
Y28200D01*
X379592Y26723D01*
X380723Y25592D01*
X382200Y24980D01*
X383800D01*
X384261Y25171D01*
X384328Y25126D01*
X385312Y24931D01*
X388980D01*
Y21480D01*
X401020D01*
Y24931D01*
X408980D01*
Y21480D01*
X421020D01*
Y33520D01*
D02*
G37*
G36*
X471385Y-11980D02*
X468615D01*
X465939Y-12697D01*
X463541Y-14082D01*
X461582Y-16041D01*
X460197Y-18439D01*
X459480Y-21115D01*
Y-23885D01*
X460197Y-26561D01*
X461582Y-28959D01*
X463541Y-30918D01*
X465939Y-32303D01*
X468615Y-33020D01*
X471385D01*
X474061Y-32303D01*
X476459Y-30918D01*
X478418Y-28959D01*
X479803Y-26561D01*
X480520Y-23885D01*
Y-21115D01*
X479803Y-18439D01*
X478418Y-16041D01*
X476459Y-14082D01*
X474061Y-12697D01*
X471385Y-11980D01*
D02*
G37*
G36*
X421020Y18520D02*
X408980D01*
Y6480D01*
X413759D01*
Y6172D01*
X413955Y5188D01*
X414512Y4355D01*
X435969Y-17103D01*
X435197Y-18439D01*
X434480Y-21115D01*
Y-23885D01*
X435197Y-26561D01*
X436582Y-28959D01*
X438541Y-30918D01*
X440939Y-32303D01*
X443615Y-33020D01*
X446385D01*
X449061Y-32303D01*
X451459Y-30918D01*
X453418Y-28959D01*
X454803Y-26561D01*
X455520Y-23885D01*
Y-21115D01*
X454803Y-18439D01*
X453418Y-16041D01*
X451459Y-14082D01*
X449061Y-12697D01*
X446385Y-11980D01*
X443615D01*
X440939Y-12697D01*
X439603Y-13469D01*
X420620Y5514D01*
X421020Y6480D01*
X421020D01*
Y18520D01*
D02*
G37*
G36*
X401020D02*
X388980D01*
Y6480D01*
X392431D01*
Y2500D01*
X392626Y1517D01*
X393183Y683D01*
X410969Y-17103D01*
X410197Y-18439D01*
X409480Y-21115D01*
Y-23885D01*
X410197Y-26561D01*
X411582Y-28959D01*
X413541Y-30918D01*
X415939Y-32303D01*
X418615Y-33020D01*
X421385D01*
X424061Y-32303D01*
X426459Y-30918D01*
X428418Y-28959D01*
X429803Y-26561D01*
X430520Y-23885D01*
Y-21115D01*
X429803Y-18439D01*
X428418Y-16041D01*
X426459Y-14082D01*
X424061Y-12697D01*
X421385Y-11980D01*
X418615D01*
X415939Y-12697D01*
X414603Y-13469D01*
X397569Y3564D01*
Y6480D01*
X401020D01*
Y18520D01*
D02*
G37*
%LPD*%
D10*
X75233Y460000D02*
G03*
X73967Y460000I-633J-10000D01*
G01*
X493154Y82860D02*
X518764Y57250D01*
X426000Y95000D02*
X438140Y82860D01*
X493154D01*
X271303Y273031D02*
X272783Y274511D01*
X290188Y276000D02*
X291812D01*
X294278Y278466D01*
X295966D01*
X288699Y274511D02*
X290188Y276000D01*
X295966Y278466D02*
X300000Y282500D01*
X272783Y274511D02*
X288699D01*
X268031Y273031D02*
X271303D01*
X261000Y266000D02*
X268031Y273031D01*
X508000Y380000D02*
X520672Y367328D01*
X527250D01*
X531672D01*
X530000Y479000D02*
X554000D01*
X572000Y461000D02*
X599000D01*
X554000Y479000D02*
X572000Y461000D01*
X519000Y468000D02*
X530000Y479000D01*
X206960Y213298D02*
X207000Y213258D01*
Y224842D02*
Y249964D01*
X206960Y213298D02*
Y224802D01*
X210480Y214756D02*
X210520Y214716D01*
X207000Y202900D02*
X216250Y193650D01*
X210520Y240520D02*
X216000Y246000D01*
X210520Y212080D02*
X216250Y206350D01*
X210520Y223384D02*
Y240520D01*
X189864Y267100D02*
X207000Y249964D01*
X210480Y223344D02*
X210520Y223384D01*
Y212080D02*
Y214716D01*
X207000Y202900D02*
Y213258D01*
X206960Y224802D02*
X207000Y224842D01*
X210480Y214756D02*
Y223344D01*
X216250Y206350D02*
X222000D01*
X426000Y95000D02*
Y104000D01*
X395000Y107000D02*
X423000D01*
X426000Y104000D01*
X197000Y320036D02*
Y366000D01*
X189864Y312900D02*
X197000Y320036D01*
Y366000D02*
X207276Y376276D01*
X191000Y343000D02*
X193000Y345000D01*
X188308Y348000D02*
X189480Y349172D01*
X193000Y368000D02*
X205000Y380000D01*
X189480Y369458D02*
X201000Y380978D01*
X193000Y345000D02*
Y368000D01*
X189480Y349172D02*
Y369458D01*
X170000Y348000D02*
X188308D01*
X207276Y376276D02*
X220544D01*
X112500Y640000D02*
X145500Y607000D01*
X477000D01*
X500000Y630000D01*
X237020Y545020D02*
X340079D01*
X338000Y550040D02*
Y559000D01*
X347000Y551941D02*
Y563022D01*
X340079Y545020D02*
X347000Y551941D01*
X338000Y559000D02*
X352520Y573520D01*
X90811Y269960D02*
X92851Y272000D01*
X105000D01*
X78590Y273480D02*
X87480D01*
X77610Y272500D02*
X78590Y273480D01*
X77588Y267500D02*
X80048Y269960D01*
X87480Y273480D02*
X94528Y280528D01*
X80048Y269960D02*
X90811D01*
X68000Y272500D02*
X77610D01*
X94528Y280528D02*
X98472D01*
X96426Y266426D02*
X96980Y266980D01*
X98472Y280528D02*
X99000Y280000D01*
X90000Y264000D02*
X92426Y266426D01*
X96426D01*
X79066Y264000D02*
X90000D01*
X77566Y262500D02*
X79066Y264000D01*
X73120Y186064D02*
Y228828D01*
X74292Y230000D02*
X79000D01*
X73120Y228828D02*
X74292Y230000D01*
X55520Y145520D02*
Y282484D01*
X40000Y130000D02*
X55520Y145520D01*
X25000Y130000D02*
X40000D01*
X41000Y180000D02*
X48000Y187000D01*
X25000Y180000D02*
X41000D01*
X48000Y187000D02*
Y284964D01*
X25000Y155000D02*
X40000D01*
X52000Y167000D01*
Y283964D01*
X48000Y284964D02*
X60136Y297100D01*
X59040Y238996D02*
X80524Y260480D01*
X69600Y184606D02*
Y232111D01*
Y184606D02*
X115286Y138920D01*
X55520Y282484D02*
X60136Y287100D01*
X59040Y143476D02*
Y238996D01*
X52000Y283964D02*
X60136Y292100D01*
X69600Y232111D02*
X77489Y240000D01*
X66080Y183148D02*
X115000Y134228D01*
X62560Y142018D02*
Y237538D01*
X81982Y256960D01*
X66080Y183148D02*
Y236080D01*
X83440Y253440D01*
X32022Y111480D02*
X62560Y142018D01*
X30564Y115000D02*
X59040Y143476D01*
X73120Y186064D02*
X116744Y142440D01*
X82000Y216000D02*
X101000Y197000D01*
X528520Y166520D02*
X533500Y171500D01*
Y187000D01*
X452520Y166520D02*
X528520D01*
X514000Y151500D02*
Y152000D01*
X510000Y147500D02*
X514000Y151500D01*
X378000Y95000D02*
Y95000D01*
X358800Y114200D02*
X378000Y95000D01*
X238000Y114200D02*
X358800D01*
X442564Y107500D02*
X455264D01*
X150000Y330000D02*
X157000D01*
X170000Y343000D02*
X191000D01*
X157000Y330000D02*
X170000Y343000D01*
X205000Y380000D02*
Y429000D01*
X229000Y453000D01*
X269500Y72000D02*
X300000D01*
X306000Y66000D01*
X257500Y60000D02*
X269500Y72000D01*
X306000Y31000D02*
Y66000D01*
X257000Y60500D02*
Y70980D01*
Y60500D02*
X257500Y60000D01*
X290000Y-22500D02*
Y15000D01*
X306000Y31000D01*
X118000Y83000D02*
X120000Y85000D01*
X89600Y116200D02*
Y117000D01*
X120000Y85000D02*
Y85800D01*
X89600Y116200D02*
X120000Y85800D01*
X277279Y186980D02*
X277470Y187172D01*
X288828D01*
X263020Y186980D02*
X277279D01*
X294936Y155000D02*
X312500D01*
X320000Y147500D01*
X290000Y159936D02*
X294936Y155000D01*
X261000Y189000D02*
Y266000D01*
Y189000D02*
X263020Y186980D01*
X288828Y187172D02*
X290000Y186000D01*
Y159936D02*
Y186000D01*
X535000Y511000D02*
X592828D01*
X476000Y570000D02*
X535000Y511000D01*
X477458Y573520D02*
X528478Y522500D01*
X353978Y570000D02*
X476000D01*
X528478Y522500D02*
X575000D01*
X352520Y573520D02*
X477458D01*
X347000Y563022D02*
X353978Y570000D01*
X225000Y533000D02*
X237020Y545020D01*
X225000Y518000D02*
Y533000D01*
X301000Y470000D02*
X312000Y481000D01*
X244000Y483000D02*
X257000Y470000D01*
X301000D01*
X312000Y481000D02*
Y492000D01*
X201000Y380978D02*
Y429978D01*
X145000Y339000D02*
X161000D01*
X170000Y348000D01*
X25000Y405000D02*
X107500Y322500D01*
X182000D01*
X220544Y376276D02*
X221205Y376936D01*
X201000Y429978D02*
X210000Y438978D01*
Y480000D01*
X213000Y483000D01*
X244000D01*
X297000Y507000D02*
X312000Y492000D01*
X236000Y507000D02*
X297000D01*
X225000Y518000D02*
X236000Y507000D01*
X592828Y511000D02*
X602000Y501828D01*
Y464000D02*
Y501828D01*
X599000Y461000D02*
X602000Y464000D01*
X519000Y456000D02*
Y468000D01*
X516000Y453000D02*
X519000Y456000D01*
X485000Y453000D02*
X516000D01*
X45022Y380000D02*
X107522Y317500D01*
X182000D01*
X126000Y214980D02*
Y215758D01*
X122500Y219258D02*
X126000Y215758D01*
X122500Y219258D02*
Y243000D01*
X282000Y139000D02*
X282520Y139520D01*
X312980D01*
X320000Y132500D01*
X202500Y307500D02*
X227500D01*
X172927Y179051D02*
X180489Y171489D01*
X126997Y172011D02*
X170011D01*
X128455Y175531D02*
X171469D01*
X236320Y110680D01*
X130589Y179051D02*
X172927D01*
X180489Y171489D02*
X180711D01*
X170011Y172011D02*
X234862Y107160D01*
X180489Y171489D02*
Y171489D01*
X236320Y110680D02*
X354298D01*
X180711Y171489D02*
X238000Y114200D01*
X234862Y107160D02*
X352840D01*
X164500Y229500D02*
X168000Y233000D01*
X125640Y206469D02*
X148672Y229500D01*
X164500D01*
X168000Y233000D02*
Y270000D01*
X385000Y97000D02*
X395000Y107000D01*
X354298Y110680D02*
X377000Y87978D01*
Y69000D02*
Y87978D01*
Y69000D02*
X377017Y68983D01*
X352840Y107160D02*
X371980Y88020D01*
X125640Y184000D02*
X130589Y179051D01*
X125640Y184000D02*
Y206469D01*
X175500Y220000D02*
X175500Y220000D01*
X165500Y220000D02*
X175500D01*
X161000Y277000D02*
X168000Y270000D01*
X161000Y277000D02*
Y283000D01*
X166000Y288000D01*
X169000Y280000D02*
X169057D01*
X171557Y282500D01*
X56528Y-4000D02*
X57700Y-2828D01*
X23000Y-4000D02*
X56528D01*
X57700Y-2828D02*
Y11900D01*
X16000Y3000D02*
X23000Y-4000D01*
X16000Y3000D02*
Y96000D01*
X-2584Y114584D02*
X16000Y96000D01*
X936Y119464D02*
Y423936D01*
Y119464D02*
X32300Y88100D01*
X936Y423936D02*
X37000Y460000D01*
X8980Y191458D02*
X22522Y205000D01*
X15000Y192500D02*
X28085D01*
X22522Y205000D02*
X25000D01*
X12500Y118672D02*
Y190000D01*
X8980Y117214D02*
Y191458D01*
X12500Y190000D02*
X15000Y192500D01*
X12500Y118672D02*
X16172Y115000D01*
X30564D01*
X8980Y117214D02*
X14714Y111480D01*
X-2584Y114584D02*
Y426416D01*
X40636Y460000D02*
X40656Y460020D01*
X7500Y417500D02*
X17500Y427500D01*
X7500Y292500D02*
Y417500D01*
X12500Y296172D02*
Y417500D01*
X17500Y427500D02*
X65000D01*
X12500Y417500D02*
X18980Y423980D01*
X40656Y460020D02*
X57744D01*
X18980Y423980D02*
X63542D01*
X37000Y460000D02*
X40636D01*
X34540Y463540D02*
X55540D01*
X-2584Y426416D02*
X34540Y463540D01*
X62000Y470000D02*
Y484000D01*
X65000Y487000D01*
X55540Y463540D02*
X62000Y470000D01*
X65000Y487000D02*
X111000D01*
X113000Y485000D01*
Y463000D02*
Y485000D01*
X100000Y450000D02*
X113000Y463000D01*
X75233Y460000D02*
X87500D01*
X57764D02*
X73967D01*
X57744Y460020D02*
X57764Y460000D01*
X87500Y415000D02*
Y460000D01*
Y467500D01*
X7500Y292500D02*
X16368Y283632D01*
X17309D01*
X16172Y292500D02*
X36244D01*
X12500Y296172D02*
X16172Y292500D01*
X20941Y280000D02*
X25000D01*
X17309Y283632D02*
X20941Y280000D01*
X77600Y102000D02*
X94600Y85000D01*
X47000Y102000D02*
X77600D01*
X45000Y100000D02*
X47000Y102000D01*
X45000Y75400D02*
Y100000D01*
X32300Y62700D02*
X45000Y75400D01*
X275828Y29000D02*
X277000Y27828D01*
Y-33000D02*
Y27828D01*
X243500Y29000D02*
X275828D01*
X242500Y30000D02*
X243500Y29000D01*
X277000Y-33000D02*
X280000Y-36000D01*
X301500D02*
X315000Y-22500D01*
X280000Y-36000D02*
X301500D01*
X317000Y-20500D02*
Y29000D01*
X530000Y147500D02*
Y153964D01*
X445000Y159000D02*
X452520Y166520D01*
X525500Y51500D02*
X540000Y37000D01*
X518764Y51500D02*
X525500D01*
X540000Y27500D02*
Y37000D01*
X521328Y26172D02*
X526328D01*
X540000Y12500D01*
X506925Y40575D02*
X521328Y26172D01*
X518764Y51500D02*
Y57250D01*
X506925Y40575D02*
Y50639D01*
X506064Y51500D02*
X506925Y50639D01*
X493364Y34136D02*
X500000Y27500D01*
X493364Y34136D02*
Y51500D01*
X467964Y39536D02*
Y51500D01*
Y39536D02*
X480000Y27500D01*
X462000Y68000D02*
X467938Y62063D01*
Y51526D02*
X467964Y51500D01*
X467938Y51526D02*
Y62063D01*
X428000Y68000D02*
X462000D01*
X417500Y57500D02*
X428000Y68000D01*
X402500Y77500D02*
Y97500D01*
Y57500D02*
Y77500D01*
X385000Y44692D02*
Y97000D01*
X227940Y88060D02*
X337000D01*
X163000Y153000D02*
X227940Y88060D01*
X342400Y96600D02*
X358000Y81000D01*
X229378Y96600D02*
X342400D01*
X165938Y160040D02*
X229378Y96600D01*
X164480Y156520D02*
X227920Y93080D01*
X168620Y168000D02*
X232980Y103640D01*
X227920Y93080D02*
X340942D01*
X340938Y83040D02*
X341354Y82624D01*
X166956Y164000D02*
X230836Y100120D01*
X343476Y82624D02*
X344050Y82050D01*
X340942Y93080D02*
X354480Y79542D01*
X347360Y103640D02*
X365040Y85960D01*
X230836Y100120D02*
X343858D01*
X341354Y82624D02*
X343476D01*
X226524Y79520D02*
X339480D01*
X343858Y100120D02*
X361520Y82458D01*
X227982Y83040D02*
X340938D01*
X339480Y79520D02*
X346426Y72574D01*
X232980Y103640D02*
X347360D01*
X160084Y145960D02*
X226524Y79520D01*
X307000Y76000D02*
X322500Y60500D01*
X225066Y76000D02*
X307000D01*
X161542Y149480D02*
X227982Y83040D01*
X158626Y142440D02*
X225066Y76000D01*
X346426Y70574D02*
Y72574D01*
Y70574D02*
X347000Y70000D01*
X111560Y177493D02*
Y202462D01*
X118600Y180408D02*
Y205378D01*
X122120Y181866D02*
Y206880D01*
X118600Y180408D02*
X126997Y172011D01*
X122577Y156520D02*
X164480D01*
X97000Y172140D02*
Y193000D01*
Y172140D02*
X119661Y149480D01*
X111560Y177493D02*
X125052Y164000D01*
X124035Y160040D02*
X165938D01*
X108040Y176035D02*
X124035Y160040D01*
X121118Y153000D02*
X163000D01*
X93000Y171162D02*
X118202Y145960D01*
X115080Y178951D02*
X126031Y168000D01*
X116744Y142440D02*
X158626D01*
X101000Y173118D02*
X121118Y153000D01*
X126031Y168000D02*
X168620D01*
X115080Y178951D02*
Y203920D01*
X108040Y176035D02*
Y199916D01*
X119661Y149480D02*
X161542D01*
X104520Y174576D02*
Y198458D01*
Y174576D02*
X122577Y156520D01*
X115000Y117000D02*
Y134228D01*
X93000Y171162D02*
Y186212D01*
X122120Y181866D02*
X128455Y175531D01*
X125052Y164000D02*
X166956D01*
X115286Y138920D02*
X157168D01*
X118202Y145960D02*
X160084D01*
X101000Y173118D02*
Y197000D01*
X116172Y135400D02*
X155710D01*
X83940Y195272D02*
Y196000D01*
Y195272D02*
X93000Y186212D01*
X97500Y210456D02*
X108040Y199916D01*
X97500Y210456D02*
Y243000D01*
X92520Y210458D02*
Y242980D01*
Y210458D02*
X104520Y198458D01*
X84000Y206000D02*
X97000Y193000D01*
X117500Y211500D02*
X122120Y206880D01*
X117500Y211500D02*
Y229500D01*
Y243000D01*
X112500Y211478D02*
Y243000D01*
Y211478D02*
X118600Y205378D01*
X232500Y-5000D02*
Y63588D01*
X155710Y135400D02*
X175000Y116110D01*
Y-3586D02*
Y116110D01*
X157168Y138920D02*
X232500Y63588D01*
X202000Y87000D02*
X222500Y66500D01*
X102500Y211522D02*
Y243000D01*
Y211522D02*
X111560Y202462D01*
X107500Y211500D02*
X115080Y203920D01*
X107500Y211500D02*
Y243000D01*
X361520Y41172D02*
Y82458D01*
X358000Y3000D02*
Y81000D01*
X354480Y-6980D02*
Y79542D01*
X358000Y3000D02*
X370910Y-9910D01*
X361520Y41172D02*
X362692Y40000D01*
X354480Y-6980D02*
X370000Y-22500D01*
X365040Y50480D02*
Y85960D01*
Y50480D02*
X372000Y43520D01*
X383828D02*
X385000Y44692D01*
X372000Y43520D02*
X383828D01*
X140000Y-38586D02*
X175000Y-3586D01*
X362692Y40000D02*
X420000D01*
X371980Y58020D02*
Y88020D01*
Y58020D02*
X372000Y58000D01*
X436500Y51500D02*
X442564D01*
X431500D02*
X436500D01*
X420000Y40000D02*
X431500Y51500D01*
X416040Y119040D02*
X419000Y122000D01*
X313460Y119040D02*
X416040D01*
X300000Y132500D02*
X313460Y119040D01*
X115000Y134228D02*
X116172Y135400D01*
X445000Y147500D02*
Y159000D01*
X293000Y200000D02*
X307000D01*
X310000Y197000D01*
Y187500D02*
Y197000D01*
X300000Y177500D02*
X310000Y187500D01*
X383812Y29000D02*
X385312Y27500D01*
X395000D01*
X383000Y29000D02*
X383812D01*
X455264Y40736D02*
Y51500D01*
Y40736D02*
X460000Y36000D01*
Y27500D02*
Y36000D01*
X428000Y43000D02*
X436500Y51500D01*
X428000Y24500D02*
Y43000D01*
Y24500D02*
X440000Y12500D01*
Y27500D02*
X460000D01*
X395000D02*
X415000D01*
Y12500D02*
X416328Y11172D01*
Y6172D02*
X445000Y-22500D01*
X416328Y6172D02*
Y11172D01*
X395000Y2500D02*
Y12500D01*
Y2500D02*
X420000Y-22500D01*
X392765Y-20265D02*
X395000Y-22500D01*
X390910Y-9910D02*
X392765Y-11765D01*
X370910Y-9910D02*
X390910D01*
X392765Y-20265D02*
Y-11765D01*
X92500Y243000D02*
X92520Y242980D01*
X222500Y60000D02*
Y66500D01*
X242500Y30000D02*
Y40000D01*
Y20000D02*
Y30000D01*
X315000Y-22500D02*
X317000Y-20500D01*
X233828Y246000D02*
X235000Y247172D01*
Y277500D01*
X216000Y246000D02*
X233828D01*
X334000Y474000D02*
Y476500D01*
X325871Y463371D02*
Y465871D01*
X322500Y460000D02*
X325871Y463371D01*
Y465871D02*
X334000Y474000D01*
X291000Y437000D02*
X319500D01*
X322500Y440000D01*
Y460000D01*
X334000Y476500D02*
X337500Y480000D01*
X29000Y493812D02*
X30000Y494812D01*
X29000Y493000D02*
Y493812D01*
X30000Y494812D02*
Y502500D01*
X137500Y345000D02*
Y357000D01*
X162000Y295000D02*
X167000D01*
X169500Y292500D01*
X182000D01*
X167000Y302000D02*
X171500Y297500D01*
X182000D01*
X166000Y288000D02*
X166500Y287500D01*
X182000D01*
X171557Y282500D02*
X182000D01*
X575000Y537500D02*
Y558500D01*
X575500Y559000D01*
X591629Y534129D02*
X595000Y537500D01*
X578500Y526000D02*
X581000D01*
X589129Y534129D01*
X591629D01*
X575000Y522500D02*
X578500Y526000D01*
X453000Y344000D02*
X512000D01*
X523500Y355500D01*
X713000Y141000D02*
Y404000D01*
X658250Y86250D02*
X713000Y141000D01*
X658250Y45750D02*
Y86250D01*
X675000Y442000D02*
X713000Y404000D01*
X610000Y-2500D02*
X658250Y45750D01*
X675000Y442000D02*
Y547500D01*
X652500Y570000D02*
X675000Y547500D01*
X300500Y313000D02*
X309000D01*
X300000Y312500D02*
X300500Y313000D01*
X523500Y363250D02*
X527250Y367000D01*
X523500Y355500D02*
Y363250D01*
X320000Y132500D02*
X335000D01*
X531672Y367328D02*
X532000Y367000D01*
X287511Y205489D02*
X293000Y200000D01*
X278000Y206350D02*
X278861Y205489D01*
X287511D01*
X419000Y145000D02*
X421500Y147500D01*
X419000Y122000D02*
Y145000D01*
X278000Y159000D02*
X289500Y147500D01*
X300000D01*
X278000Y159000D02*
Y180950D01*
X430000Y147500D02*
X445000D01*
X430000Y147500D02*
X430000Y147500D01*
X421500Y147500D02*
X430000D01*
X283750Y219050D02*
X288206Y214594D01*
X292906D01*
X300000Y207500D01*
X278000Y219050D02*
X283750D01*
X286500Y237500D02*
X300000D01*
X278000Y246000D02*
X286500Y237500D01*
X278000Y246000D02*
Y260950D01*
X300000Y267500D02*
X301500Y269000D01*
X308828D01*
X310000Y270172D02*
Y287000D01*
X308828Y269000D02*
X310000Y270172D01*
X307000Y290000D02*
X310000Y287000D01*
X293650Y290000D02*
X307000D01*
X290000Y286350D02*
X293650Y290000D01*
X278000Y286350D02*
X290000D01*
X298450Y299050D02*
X300000Y297500D01*
X278000Y299050D02*
X298450D01*
X278964Y336036D02*
X287500Y327500D01*
X277205Y351536D02*
X278964Y349777D01*
Y336036D02*
Y349777D01*
X287500Y327500D02*
X300000D01*
X292000Y380000D02*
X307828D01*
X288936Y376936D02*
X292000Y380000D01*
X277205Y376936D02*
X288936D01*
X307828Y380000D02*
X309000Y378828D01*
Y366500D02*
Y378828D01*
X300000Y357500D02*
X309000Y366500D01*
X277205Y389636D02*
X297864D01*
X300000Y387500D01*
X445000Y442500D02*
X460000D01*
X87500Y230000D02*
Y243000D01*
X104324Y-29324D02*
X127500Y-52500D01*
X72894Y-29324D02*
X104324D01*
X127500Y-52500D02*
X200000D01*
X132500Y243000D02*
Y255788D01*
X133327Y260480D02*
X137500Y256306D01*
X131328Y256960D02*
X132500Y255788D01*
X81982Y256960D02*
X131328D01*
X124524Y253440D02*
X127100Y250864D01*
X80524Y260480D02*
X133327D01*
X83440Y253440D02*
X124524D01*
X68000Y262500D02*
X77566D01*
X68000Y267500D02*
X77588D01*
X68000Y302500D02*
X68250Y302750D01*
X79750D01*
X80000Y303000D01*
X36500Y228500D02*
X40000Y225000D01*
Y204415D02*
Y225000D01*
X28085Y192500D02*
X40000Y204415D01*
X25000Y230000D02*
X26500Y228500D01*
X36500D01*
X322500Y60000D02*
Y60500D01*
X10000Y502500D02*
X30000D01*
X215000Y-22500D02*
X232500Y-5000D01*
X200000Y-52500D02*
X212202Y-40298D01*
X242500Y0D02*
Y20000D01*
X72187Y-28617D02*
X72894Y-29324D01*
X79598Y649598D02*
X89196Y640000D01*
X112500D01*
X500000Y630000D02*
X552500D01*
X652813Y608617D02*
X659426Y602005D01*
Y600574D02*
X660000Y600000D01*
X652813Y608617D02*
Y608617D01*
X659426Y600574D02*
Y602005D01*
X579598Y9598D02*
X591696Y-2500D01*
X579598Y9598D02*
X579598D01*
X591696Y-2500D02*
X610000D01*
X565714Y-58215D02*
X568215D01*
X561429Y-62500D02*
X565714Y-58215D01*
X520298Y-40298D02*
X542500Y-62500D01*
X561429D01*
X212202Y-40298D02*
X520298D01*
X140000Y-40000D02*
Y-38586D01*
X237500Y317500D02*
Y363828D01*
X227500Y307500D02*
X237500Y317500D01*
X221205Y364236D02*
X221968Y365000D01*
X236328D02*
X237500Y363828D01*
X221968Y365000D02*
X236328D01*
X194188Y277500D02*
X196688Y280000D01*
X197500D01*
X182000Y277500D02*
X194188D01*
X212522Y280000D02*
X232500D01*
X190422Y302100D02*
X212522Y280000D01*
X212789Y287211D02*
X221139D01*
X192900Y307100D02*
X212789Y287211D01*
X182400Y307100D02*
X192900D01*
X221139Y287211D02*
X222000Y286350D01*
X182400Y272900D02*
X221250D01*
X182000Y272500D02*
X182400Y272900D01*
X221250D02*
X222000Y273650D01*
X232500Y280000D02*
X235000Y277500D01*
X216250Y193650D02*
X222000D01*
X182400Y267100D02*
X189864D01*
X182000Y267500D02*
X182400Y267100D01*
X182000Y307500D02*
X182400Y307100D01*
Y302100D02*
X190422D01*
X182000Y302500D02*
X182400Y302100D01*
X182000Y312500D02*
X182400Y312900D01*
X189864D01*
X127100Y243400D02*
Y250864D01*
Y243400D02*
X127500Y243000D01*
X137500D02*
Y256306D01*
X14714Y111480D02*
X32022D01*
X60136Y287100D02*
X67600D01*
X68000Y287500D01*
X36244Y292500D02*
X37416Y291328D01*
Y267416D02*
Y291328D01*
X25000Y255000D02*
X37416Y267416D01*
X60136Y292100D02*
X67600D01*
X68000Y292500D01*
X60136Y297100D02*
X67600D01*
X68000Y297500D01*
X97500Y357000D02*
Y390022D01*
X63542Y423980D02*
X97500Y390022D01*
X65000Y427500D02*
X102100Y390400D01*
Y357400D02*
Y390400D01*
Y357400D02*
X102500Y357000D01*
X25000Y380000D02*
X45022D01*
X100000Y410000D02*
X117500Y392500D01*
X87500Y415000D02*
X112500Y390000D01*
X100000Y410000D02*
Y450000D01*
X112500Y357000D02*
Y390000D01*
X117500Y357000D02*
Y392500D01*
X87500Y467500D02*
X92913Y472913D01*
X97513D01*
X100000Y475400D01*
X142500Y420000D02*
X168100Y445600D01*
Y476928D02*
X169272Y478100D01*
X185000D01*
X168100Y445600D02*
Y476928D01*
X157500Y357000D02*
Y400728D01*
X158672Y401900D01*
X185000D01*
X167300Y427300D02*
X185000D01*
X152500Y357000D02*
Y412500D01*
X167300Y427300D01*
X147500Y357000D02*
Y415200D01*
X185000Y452700D01*
X142500Y357000D02*
Y420000D01*
D11*
X80000Y337500D02*
X92000Y325500D01*
Y295000D02*
Y325500D01*
Y286000D02*
Y295000D01*
X107000D01*
X83500Y277500D02*
X92000Y286000D01*
X68000Y277500D02*
X83500D01*
X85743Y367000D02*
X87500Y365243D01*
X79000Y365000D02*
X79541D01*
X81541Y367000D01*
X85743D01*
X87500Y351680D02*
Y365243D01*
X229000Y453000D02*
Y460000D01*
X133415Y272583D02*
X150000Y289168D01*
X162500Y243000D02*
Y267500D01*
X133415Y272415D02*
X157585D01*
X162500Y267500D01*
X150000Y289168D02*
Y310000D01*
X117653Y282888D02*
Y283653D01*
X116617Y283924D02*
X116888Y283653D01*
X117653D01*
X123044Y282617D02*
X133247Y272415D01*
X133415D02*
Y272583D01*
X117653Y282888D02*
X117924Y282617D01*
X123044D01*
X107000Y295000D02*
X116617Y285383D01*
Y283924D02*
Y285383D01*
X74000Y337500D02*
X80000D01*
X73243Y85000D02*
X75000Y83243D01*
Y41757D02*
Y83243D01*
X60800Y85000D02*
X73243D01*
X72200Y38957D02*
X75000Y41757D01*
X59357Y38957D02*
X72200D01*
X57700Y37300D02*
X59357Y38957D01*
X57700Y88100D02*
X60800Y85000D01*
X613500Y61000D02*
X620000Y67500D01*
Y92500D01*
X599500Y61000D02*
X613500D01*
X612500Y100000D02*
X620000Y92500D01*
X597500Y100000D02*
X612500D01*
X55000Y317500D02*
X68000D01*
X42500Y330000D02*
X55000Y317500D01*
X25000Y330000D02*
X42500D01*
X25000Y305000D02*
X41694D01*
X49194Y312500D01*
X68000D01*
X25000Y355000D02*
X37329D01*
X59829Y332500D01*
X68000D01*
D20*
X222000Y299050D02*
D03*
X221205Y389636D02*
D03*
X222000Y219050D02*
D03*
D21*
Y286350D02*
D03*
Y273650D02*
D03*
Y260950D02*
D03*
X278000Y299050D02*
D03*
Y286350D02*
D03*
Y273650D02*
D03*
Y260950D02*
D03*
X277205Y351536D02*
D03*
Y364236D02*
D03*
Y376936D02*
D03*
Y389636D02*
D03*
X221205Y351536D02*
D03*
Y364236D02*
D03*
Y376936D02*
D03*
X278000Y180950D02*
D03*
Y193650D02*
D03*
Y206350D02*
D03*
Y219050D02*
D03*
X222000Y180950D02*
D03*
Y193650D02*
D03*
Y206350D02*
D03*
D22*
X580005Y438499D02*
D03*
Y481499D02*
D03*
D23*
X678132Y661868D02*
D03*
X661868Y678132D02*
D03*
X36868Y-81868D02*
D03*
X53132Y-98132D02*
D03*
D24*
X652813Y608617D02*
D03*
X613215Y648215D02*
D03*
X585000Y620000D02*
D03*
X624598Y580402D02*
D03*
X140000Y-40000D02*
D03*
X100402Y-402D02*
D03*
X72187Y-28617D02*
D03*
X111785Y-68215D02*
D03*
D25*
X575000Y522500D02*
D03*
Y537500D02*
D03*
X595000D02*
D03*
Y522500D02*
D03*
X310000D02*
D03*
Y537500D02*
D03*
X460000Y442500D02*
D03*
Y457500D02*
D03*
X445000D02*
D03*
Y442500D02*
D03*
X425000D02*
D03*
Y457500D02*
D03*
X410000D02*
D03*
Y442500D02*
D03*
X300000Y372500D02*
D03*
Y387500D02*
D03*
Y342500D02*
D03*
Y357500D02*
D03*
Y312500D02*
D03*
Y327500D02*
D03*
Y282500D02*
D03*
Y297500D02*
D03*
Y252500D02*
D03*
Y267500D02*
D03*
Y222500D02*
D03*
Y237500D02*
D03*
Y192500D02*
D03*
Y207500D02*
D03*
Y162500D02*
D03*
Y177500D02*
D03*
Y132500D02*
D03*
Y147500D02*
D03*
X320000D02*
D03*
Y132500D02*
D03*
X335000Y132500D02*
D03*
Y147500D02*
D03*
X370000Y132500D02*
D03*
Y147500D02*
D03*
X355000D02*
D03*
Y132500D02*
D03*
X392000D02*
D03*
Y147500D02*
D03*
X407000D02*
D03*
Y132500D02*
D03*
X430000D02*
D03*
Y147500D02*
D03*
X445000Y147500D02*
D03*
Y132500D02*
D03*
X470000Y132500D02*
D03*
Y147500D02*
D03*
X490000Y132500D02*
D03*
Y147500D02*
D03*
X510000D02*
D03*
Y132500D02*
D03*
X530000Y147500D02*
D03*
Y132500D02*
D03*
X440000Y12500D02*
D03*
Y27500D02*
D03*
X460000D02*
D03*
Y12500D02*
D03*
X480000Y27500D02*
D03*
Y12500D02*
D03*
X500000Y27500D02*
D03*
Y12500D02*
D03*
X520000Y27500D02*
D03*
Y12500D02*
D03*
X540000Y27500D02*
D03*
Y12500D02*
D03*
X415000D02*
D03*
Y27500D02*
D03*
X395000Y12500D02*
D03*
Y27500D02*
D03*
X30000Y502500D02*
D03*
Y517500D02*
D03*
X10000Y502500D02*
D03*
Y517500D02*
D03*
X290000Y522500D02*
D03*
Y537500D02*
D03*
X310000Y572500D02*
D03*
Y557500D02*
D03*
X290000D02*
D03*
Y572500D02*
D03*
D26*
X580000Y234500D02*
D03*
Y285500D02*
D03*
Y375500D02*
D03*
Y324500D02*
D03*
X640000D02*
D03*
Y375500D02*
D03*
D27*
X527500Y461000D02*
D03*
X542500D02*
D03*
Y443000D02*
D03*
X527500D02*
D03*
X337500Y440000D02*
D03*
X322500D02*
D03*
Y460000D02*
D03*
X337500D02*
D03*
Y480000D02*
D03*
X322500D02*
D03*
X190500Y187000D02*
D03*
X175500D02*
D03*
Y205000D02*
D03*
X190500D02*
D03*
Y220000D02*
D03*
X175500D02*
D03*
X542500Y60000D02*
D03*
X557500D02*
D03*
Y100000D02*
D03*
X542500D02*
D03*
X557500Y80000D02*
D03*
X542500D02*
D03*
X582500Y100000D02*
D03*
X597500D02*
D03*
X582500Y80000D02*
D03*
X597500D02*
D03*
X417500Y97500D02*
D03*
X402500D02*
D03*
Y77500D02*
D03*
X417500D02*
D03*
Y57500D02*
D03*
X402500D02*
D03*
X257500Y60000D02*
D03*
X242500D02*
D03*
X257500Y20000D02*
D03*
X242500D02*
D03*
X257500Y0D02*
D03*
X242500D02*
D03*
Y40000D02*
D03*
X257500D02*
D03*
X222500Y60000D02*
D03*
X207500D02*
D03*
X222500Y40000D02*
D03*
X207500D02*
D03*
X337500Y500000D02*
D03*
X322500D02*
D03*
D28*
X507000Y443500D02*
D03*
X485000Y453000D02*
D03*
X507000Y462500D02*
D03*
X186000Y40500D02*
D03*
X164000Y50000D02*
D03*
X186000Y59500D02*
D03*
D29*
X291000Y437000D02*
D03*
Y460000D02*
D03*
Y483000D02*
D03*
D30*
X229000Y460000D02*
D03*
D31*
X413500Y367000D02*
D03*
Y413000D02*
D03*
X532000Y367000D02*
D03*
Y413000D02*
D03*
X413500Y277000D02*
D03*
Y323000D02*
D03*
X532000Y277000D02*
D03*
Y323000D02*
D03*
X533500Y187000D02*
D03*
Y233000D02*
D03*
X413500Y187000D02*
D03*
Y233000D02*
D03*
D32*
X351500Y390000D02*
D03*
X470000D02*
D03*
X351500Y300000D02*
D03*
X470000D02*
D03*
X471500Y210000D02*
D03*
X351500D02*
D03*
D33*
X518764Y107500D02*
D03*
X506064D02*
D03*
X493364D02*
D03*
X480664D02*
D03*
X467964D02*
D03*
X455264D02*
D03*
X442564D02*
D03*
X518764Y51500D02*
D03*
X506064D02*
D03*
X493364D02*
D03*
X480664D02*
D03*
X467964D02*
D03*
X455264D02*
D03*
D34*
X442564D02*
D03*
D35*
X550000Y129500D02*
D03*
Y150500D02*
D03*
D36*
X599500Y61000D02*
D03*
X590000Y39000D02*
D03*
X580500Y61000D02*
D03*
X10500Y539000D02*
D03*
X20000Y561000D02*
D03*
X29500Y539000D02*
D03*
X594500Y559000D02*
D03*
X585000Y581000D02*
D03*
X575500Y559000D02*
D03*
D37*
X616868Y-88132D02*
D03*
X633132Y-71868D02*
D03*
X28132Y678132D02*
D03*
X11868Y661868D02*
D03*
D38*
X568215Y-58215D02*
D03*
X607813Y-18617D02*
D03*
X579598Y9598D02*
D03*
X540000Y-30000D02*
D03*
X79598Y649598D02*
D03*
X40000Y610000D02*
D03*
X68215Y581785D02*
D03*
X107813Y621383D02*
D03*
D39*
X322500Y60000D02*
D03*
X287500D02*
D03*
D40*
X68000Y337500D02*
D03*
Y332500D02*
D03*
Y327500D02*
D03*
Y322500D02*
D03*
Y317500D02*
D03*
Y312500D02*
D03*
Y307500D02*
D03*
Y302500D02*
D03*
Y297500D02*
D03*
Y292500D02*
D03*
Y287500D02*
D03*
Y282500D02*
D03*
Y277500D02*
D03*
Y272500D02*
D03*
Y267500D02*
D03*
Y262500D02*
D03*
X182000D02*
D03*
Y267500D02*
D03*
Y272500D02*
D03*
Y277500D02*
D03*
Y282500D02*
D03*
Y287500D02*
D03*
Y292500D02*
D03*
Y297500D02*
D03*
Y302500D02*
D03*
Y307500D02*
D03*
Y312500D02*
D03*
Y317500D02*
D03*
Y322500D02*
D03*
Y327500D02*
D03*
Y332500D02*
D03*
Y337500D02*
D03*
D41*
X87500Y243000D02*
D03*
X92500D02*
D03*
X97500D02*
D03*
X102500D02*
D03*
X107500D02*
D03*
X112500D02*
D03*
X117500D02*
D03*
X122500D02*
D03*
X127500D02*
D03*
X132500D02*
D03*
X137500D02*
D03*
X142500D02*
D03*
X147500D02*
D03*
X152500D02*
D03*
X157500D02*
D03*
X162500D02*
D03*
Y357000D02*
D03*
X157500D02*
D03*
X152500D02*
D03*
X147500D02*
D03*
X142500D02*
D03*
X137500D02*
D03*
X132500D02*
D03*
X127500D02*
D03*
X122500D02*
D03*
X117500D02*
D03*
X112500D02*
D03*
X107500D02*
D03*
X102500D02*
D03*
X97500D02*
D03*
X92500D02*
D03*
X87500D02*
D03*
D42*
X510000Y583500D02*
D03*
Y496500D02*
D03*
D43*
X252324Y524600D02*
D03*
Y575400D02*
D03*
D44*
X147676Y550000D02*
D03*
D84*
X321000Y522000D02*
X325000D01*
X310500D02*
X321000D01*
X337107Y500393D02*
Y509893D01*
X325000Y522000D02*
X337107Y509893D01*
X492000Y75000D02*
X500000Y67000D01*
X487000Y75000D02*
X492000D01*
X493166Y51698D02*
X493364Y51500D01*
X500000Y42000D02*
Y67000D01*
X493166Y51698D02*
Y61834D01*
X490000Y65000D02*
X493166Y61834D01*
X500000Y42000D02*
X511000Y31000D01*
X400086Y475000D02*
X434000D01*
X400000Y253000D02*
X405890D01*
X521000D01*
X405890Y251020D02*
Y253000D01*
X393000Y220000D02*
Y252763D01*
Y220000D02*
X400044Y212956D01*
X396044Y221261D02*
Y249044D01*
X393000Y252763D02*
X398019Y257782D01*
X396044Y249044D02*
X400000Y253000D01*
X468893Y429342D02*
X507658D01*
X468000Y430235D02*
X468893Y429342D01*
X468000Y430235D02*
Y449500D01*
X507658Y429342D02*
X511052Y425948D01*
Y417790D02*
Y425948D01*
Y417790D02*
X511945Y416898D01*
X528102D01*
X532000Y413000D01*
X460000Y457500D02*
X468000Y449500D01*
X395000Y469914D02*
X400086Y475000D01*
X395000Y453000D02*
Y469914D01*
X198000Y198000D02*
Y208000D01*
X201000Y191000D02*
Y195000D01*
Y191000D02*
X210000Y182000D01*
X198000Y198000D02*
X201000Y195000D01*
X459763Y137263D02*
X470000Y147500D01*
X454000Y125000D02*
Y131479D01*
X459763Y137242D01*
Y137263D01*
X440054Y90000D02*
X499000D01*
X432402Y97652D02*
X440054Y90000D01*
X432402Y97652D02*
Y115543D01*
X439859Y123000D01*
X490000Y132500D02*
X510000D01*
X462000Y124500D02*
X470000Y132500D01*
X462000Y93937D02*
Y124500D01*
Y93937D02*
X462893Y93044D01*
X491000D01*
X493364Y95408D01*
Y107500D01*
X452000Y123000D02*
X454000Y125000D01*
X439859Y123000D02*
X452000D01*
X417000Y97000D02*
X417500Y97500D01*
X417000Y88000D02*
Y97000D01*
X499000Y90000D02*
X552082Y36918D01*
X208000Y351000D02*
X208268Y351268D01*
X220937D02*
X221205Y351536D01*
X208268Y351268D02*
X220937D01*
X210000Y182000D02*
X210525Y181475D01*
X221475D02*
X222000Y180950D01*
X210525Y181475D02*
X221475D01*
X29500Y518000D02*
Y539000D01*
Y518000D02*
X30000Y517500D01*
X117000Y580676D02*
X147676Y550000D01*
X107813Y621383D02*
X117000Y612196D01*
Y580676D02*
Y612196D01*
X147676Y550000D02*
Y550262D01*
X188414Y591000D01*
X309107D01*
X310000Y590107D01*
Y572500D02*
Y590107D01*
X337107Y500393D02*
X337500Y500000D01*
X310000Y522500D02*
X310500Y522000D01*
X68000Y282500D02*
X68227Y282727D01*
X77786D01*
X80059Y285000D01*
X81000D01*
X206941Y263000D02*
X208991Y260950D01*
X222000D01*
X206000Y263000D02*
X206941D01*
X155000Y258059D02*
X157500Y255559D01*
Y243000D02*
Y255559D01*
X155000Y258059D02*
Y259000D01*
X92500Y345500D02*
X96369Y341631D01*
X107631D02*
X108000Y342000D01*
X96369Y341631D02*
X107631D01*
X92500Y345500D02*
Y357000D01*
X108000Y342000D02*
Y350262D01*
X107500Y357000D02*
X108000Y350262D01*
X125400Y450000D02*
X150800D01*
X480664Y138164D02*
X490000Y147500D01*
X480664Y107500D02*
Y138164D01*
X467964Y107500D02*
X480664D01*
X435000Y419000D02*
Y456000D01*
X425000Y457500D02*
X433500D01*
X435000Y456000D01*
X410000Y457500D02*
X425000D01*
X411107Y413893D02*
X412000Y413000D01*
X298607Y371107D02*
X300000Y372500D01*
X294107Y371107D02*
X298607D01*
X287486Y364486D02*
X294107Y371107D01*
X277454Y364486D02*
X287486D01*
X277205Y364236D02*
X277454Y364486D01*
X165000Y330000D02*
X165941D01*
X168441Y327500D01*
X182000D01*
X400044Y212956D02*
X409044D01*
X401305Y216000D02*
X411000D01*
X396044Y221261D02*
X401305Y216000D01*
X409044Y212956D02*
X427956Y194044D01*
X411000Y216000D02*
X431000Y196000D01*
X427956Y180261D02*
Y194044D01*
X431000Y179000D02*
Y196000D01*
X382893Y155000D02*
X407000D01*
X407695Y160000D02*
X427956Y180261D01*
X523262Y319012D02*
X527250Y323000D01*
X523262Y285739D02*
Y319012D01*
X517631Y280108D02*
X523262Y285739D01*
X517631Y263631D02*
Y280108D01*
X511782Y257782D02*
X517631Y263631D01*
X527250Y323000D02*
X532000D01*
X398019Y257782D02*
X511782D01*
X379000Y160000D02*
X407695D01*
X402000Y165000D02*
X413500Y176500D01*
X345000Y165000D02*
X402000D01*
X373738Y151238D02*
Y154738D01*
X379000Y160000D01*
X370000Y147500D02*
X373738Y151238D01*
X407000Y155000D02*
X431000Y179000D01*
X382000Y144500D02*
Y154107D01*
X382893Y155000D01*
X521000Y253000D02*
X532000Y264000D01*
X13393Y242500D02*
X32500D01*
X4218Y251675D02*
Y421718D01*
Y251675D02*
X13393Y242500D01*
X4218Y421718D02*
X17500Y435000D01*
X59600D01*
X552000Y111000D02*
X557107Y105893D01*
Y100393D02*
X557500Y100000D01*
X557107Y100393D02*
Y105893D01*
X520000Y81000D02*
X528332Y89333D01*
Y100333D02*
X539000Y111000D01*
X528332Y89333D02*
Y100333D01*
X539000Y111000D02*
X552000D01*
X535000Y116000D02*
X647000D01*
X531000Y112000D02*
X535000Y116000D01*
X647000D02*
X674000Y143000D01*
X542500Y80000D02*
Y100000D01*
Y60000D02*
Y80000D01*
X674000Y143000D02*
Y347000D01*
X671000Y350000D02*
X674000Y347000D01*
X610000Y350000D02*
X671000D01*
X580000Y375500D02*
X584500D01*
X610000Y350000D01*
X555082Y178723D02*
Y201082D01*
X559000Y205000D02*
X598000D01*
X555082Y201082D02*
X559000Y205000D01*
X598000D02*
X625000Y232000D01*
Y310000D01*
X518764Y113250D02*
X530000Y124486D01*
Y132500D01*
X535105Y158746D02*
X555082Y178723D01*
X474746Y158746D02*
X535105D01*
X470000Y154000D02*
X474746Y158746D01*
X470000Y147500D02*
Y154000D01*
X552082Y-4918D02*
Y36918D01*
X550718Y-6282D02*
X552082Y-4918D01*
X478782Y-6282D02*
X550718D01*
X460000Y12500D02*
X478782Y-6282D01*
X500000Y12500D02*
X511000Y23500D01*
Y31000D01*
X467500Y20000D02*
X488000D01*
X490000Y3000D02*
Y18000D01*
X488000Y20000D02*
X490000Y18000D01*
Y3000D02*
X491000Y2000D01*
X509500D02*
X520000Y12500D01*
X491000Y2000D02*
X509500D01*
X460000Y12500D02*
X467500Y20000D01*
X345000Y130273D02*
X352951Y122322D01*
X345000Y130273D02*
Y165000D01*
X352951Y122322D02*
X381822D01*
X392000Y132500D01*
X548500Y149000D02*
X550000Y150500D01*
X531500Y149000D02*
X548500D01*
X530000Y147500D02*
X531500Y149000D01*
X523500Y139000D02*
X530000Y132500D01*
X518500Y139000D02*
X523500D01*
X510000Y147500D02*
X518500Y139000D01*
X518764Y107500D02*
Y113250D01*
X506786Y108222D02*
Y118786D01*
X506064Y107500D02*
X506786Y108222D01*
Y118786D02*
X510000Y122000D01*
Y132500D01*
X370000D02*
X382000Y144500D01*
X302500Y165000D02*
X345000D01*
X300000Y342500D02*
X300500Y342000D01*
X309000D01*
X414000Y357000D02*
Y366500D01*
X413500Y367000D02*
X414000Y366500D01*
X300000Y222500D02*
X300500Y222000D01*
X306000D01*
X532000Y264000D02*
Y277000D01*
X355000Y147500D02*
X370000D01*
X355000Y132500D02*
X370000D01*
X395000Y367893D02*
Y435000D01*
X395893Y367000D02*
X413500D01*
X395000Y367893D02*
X395893Y367000D01*
X395000Y435000D02*
X402500Y442500D01*
X410000D01*
X300000Y162500D02*
X302500Y165000D01*
X413500Y176500D02*
Y187000D01*
X392000Y132500D02*
X407000D01*
X445000Y457500D02*
X460000D01*
X410000Y442500D02*
X425000D01*
X10000Y517500D02*
X10500Y518000D01*
Y539000D01*
X40698Y290698D02*
X56862Y306862D01*
X32500Y242500D02*
X40698Y250698D01*
Y290698D01*
X56862Y306862D02*
X67362D01*
X59600Y435000D02*
X74600Y450000D01*
X67362Y306862D02*
X68000Y307500D01*
X164031Y365000D02*
X170000D01*
X163138Y357638D02*
Y364107D01*
X162500Y357000D02*
X163138Y357638D01*
Y364107D02*
X164031Y365000D01*
D85*
X460000Y442500D02*
X463730Y438770D01*
Y430189D02*
X467629Y426290D01*
X463730Y430189D02*
Y438770D01*
X467629Y426290D02*
X506394D01*
X508000Y424684D01*
Y380000D02*
Y424684D01*
D86*
X237000Y167000D02*
X245000Y175000D01*
X198000Y167000D02*
X237000D01*
X190500Y174500D02*
X198000Y167000D01*
X190500Y174500D02*
Y187000D01*
X89071Y-13000D02*
X100402Y-1669D01*
X23000Y-13000D02*
X89071D01*
X9821Y179D02*
X23000Y-13000D01*
X296000Y460000D02*
X299053Y463053D01*
X305553D01*
X322500Y480000D01*
X229000Y460000D02*
X296000D01*
X322500Y480000D02*
Y500000D01*
X684000Y447457D02*
Y551000D01*
X630000Y605000D02*
X684000Y551000D01*
Y447457D02*
X723000Y402142D01*
X613215Y648215D02*
X630000Y631431D01*
Y605000D02*
Y631431D01*
X723000Y138256D02*
Y402142D01*
X669465Y84722D02*
X669465D01*
X723000Y138256D01*
X669464Y84721D02*
X669465Y84722D01*
X669464Y84721D02*
Y84721D01*
X668000Y83256D02*
X669464Y84721D01*
X422429Y75000D02*
X470000D01*
X421929Y75500D02*
X422429Y75000D01*
X470000D02*
X480000Y65000D01*
X417500Y77500D02*
X419500Y75500D01*
X421929D01*
X668000Y41570D02*
Y83256D01*
X564000Y-4000D02*
Y46000D01*
X607813Y-18617D02*
X668000Y41570D01*
X556655Y46000D02*
X564000D01*
X557500Y60000D02*
X564000Y53500D01*
Y46000D02*
Y53500D01*
X605989Y-18617D02*
X607813D01*
X599606Y-25000D02*
X605989Y-18617D01*
X564000Y-4000D02*
X585000Y-25000D01*
X599606D01*
X480377Y51787D02*
Y64623D01*
X480000Y65000D02*
X480377Y64623D01*
X555623Y47032D02*
X556655Y46000D01*
X480377Y51787D02*
X480664Y51500D01*
X40000Y610000D02*
X49200Y600800D01*
Y493200D02*
Y600800D01*
X51000Y495000D02*
X225858D01*
X49200Y493200D02*
X51000Y495000D01*
X49200Y475400D02*
Y493200D01*
X140400Y39596D02*
Y120000D01*
X48000Y474200D02*
X49200Y475400D01*
X-1283Y474200D02*
X48000D01*
X100402Y-402D02*
X140400Y39596D01*
X100402Y-1669D02*
Y-402D01*
X-40178Y140118D02*
X-38716Y138656D01*
X-40213Y142138D02*
X-40178Y140118D01*
X-38716Y138656D02*
X5299Y96160D01*
X-45230Y430253D02*
X-1283Y474200D01*
X-45230Y428138D02*
Y430253D01*
Y428138D02*
X-40213Y142138D01*
X8393Y1607D02*
X9821Y179D01*
X6795Y92680D02*
X8393Y1607D01*
X5299Y96160D02*
X6759Y94699D01*
X6795Y92680D01*
X471000Y210000D02*
X471500D01*
X278000Y193650D02*
X278287Y193363D01*
X299137D01*
X300000Y192500D01*
X410500Y149500D02*
X471000Y210000D01*
X409000Y149500D02*
X410500D01*
X392000Y147500D02*
X407000D01*
X409000Y149500D01*
X335000Y147500D02*
X335000Y147500D01*
X320000Y147500D02*
X335000D01*
X330000Y410000D02*
X350000Y390000D01*
X235000Y410000D02*
X330000D01*
X222457Y397457D02*
X235000Y410000D01*
X235364Y389636D02*
X245000Y380000D01*
X221707Y389636D02*
X235364D01*
X235950Y299050D02*
X245000Y290000D01*
Y310000D02*
Y380000D01*
Y230000D02*
Y290000D01*
X234453Y299453D02*
X245000Y310000D01*
X222000Y299050D02*
X235950D01*
X222403Y219453D02*
X234453D01*
X46263Y660000D02*
X50000D01*
X222457Y390386D02*
Y397457D01*
X222403Y299453D02*
X234453D01*
X221707Y389636D02*
X222457Y390386D01*
X222000Y299050D02*
X222403Y299453D01*
X221205Y389636D02*
X221707D01*
X245000Y175000D02*
Y230000D01*
X234453Y219453D02*
X245000Y230000D01*
X222000Y219050D02*
X222403Y219453D01*
X265000Y-18982D02*
X269000Y-14982D01*
Y16035D01*
X257500Y20000D02*
X258536Y18965D01*
X266071D01*
X269000Y16035D01*
X265000Y-22500D02*
Y-18982D01*
X240000Y-22500D02*
X255500Y-7000D01*
Y-2000D01*
X257500Y0D01*
Y40000D02*
X268000D01*
X287500Y59500D01*
Y60000D01*
X164000Y50000D02*
X164000D01*
X161500Y47500D02*
X164000Y50000D01*
X161500Y47500D02*
Y47500D01*
X53132Y-98132D02*
X53662Y-97601D01*
X55359D01*
D87*
X438977Y86718D02*
X497456D01*
X429320Y96375D02*
Y116820D01*
Y96375D02*
X438977Y86718D01*
X429320Y116820D02*
X445000Y132500D01*
X497456Y86718D02*
X549000Y35174D01*
X533828Y161828D02*
X552000Y180000D01*
X454937Y161828D02*
X533828D01*
X552000Y180000D02*
Y219000D01*
X454000Y141500D02*
Y160891D01*
X454937Y161828D01*
X549000Y-828D02*
Y35174D01*
X546828Y-3000D02*
X549000Y-828D01*
X488000Y-3000D02*
X546828D01*
X430000Y132500D02*
X445000D01*
X480000Y5000D02*
Y12500D01*
Y5000D02*
X488000Y-3000D01*
X445000Y132500D02*
X454000Y141500D01*
D88*
X310000Y537500D02*
X362100D01*
X374600Y550000D02*
Y555000D01*
X369981Y543087D02*
X374600Y547706D01*
X367687Y543087D02*
X369981D01*
X362100Y537500D02*
X367687Y543087D01*
X374600Y547706D02*
Y550000D01*
X290000Y537500D02*
X310000D01*
X582500Y100000D02*
Y106000D01*
Y80000D02*
Y100000D01*
X602500Y637500D02*
X613215Y648215D01*
X577500Y637500D02*
X602500D01*
X555000Y615000D02*
X577500Y637500D01*
X497500Y615000D02*
X555000D01*
X470000Y587500D02*
X497500Y615000D01*
X332858Y587500D02*
X470000D01*
X327000Y581642D02*
X332858Y587500D01*
X327000Y563358D02*
Y581642D01*
X290000Y557500D02*
X321142D01*
X232500D02*
X290000D01*
X321142D02*
X327000Y563358D01*
X286000Y483000D02*
X291000D01*
X285000Y484000D02*
X286000Y483000D01*
X215000Y540000D02*
X232500Y557500D01*
X215000Y505858D02*
Y540000D01*
Y505858D02*
X225858Y495000D01*
X279142D02*
X285000Y489142D01*
X225858Y495000D02*
X279142D01*
X285000Y484000D02*
Y489142D01*
X657961Y642039D02*
X677789Y661868D01*
X615171Y-88132D02*
X616868D01*
X596020Y-68980D02*
X615171Y-88132D01*
X28132Y678132D02*
X46263Y660000D01*
X58980Y-56020D02*
X61020D01*
X35000Y-80000D02*
X58980Y-56020D01*
X590000Y32500D02*
X595020Y27480D01*
X117500Y-30000D02*
X155000Y7500D01*
Y41000D01*
X161500Y47500D01*
X186500Y40000D02*
X207500D01*
X186000Y40500D02*
X186500Y40000D01*
X222500D02*
Y60000D01*
X20000Y630000D02*
X32039Y642039D01*
X20000Y561000D02*
Y630000D01*
X11868Y661868D02*
X12211D01*
X32039Y642039D01*
X590000Y600000D02*
X602500Y612500D01*
X585000Y595000D02*
X590000Y600000D01*
X595000D01*
X597500Y597500D01*
X585000Y581000D02*
Y595000D01*
X640000Y660000D02*
X658132Y678132D01*
X661868D01*
X590000Y32500D02*
Y39000D01*
X633132Y-71868D02*
Y-70171D01*
X613980Y-51020D02*
X633132Y-70171D01*
X55359Y-97601D02*
X78980Y-73980D01*
X252324Y575400D02*
X287100D01*
X290000Y572500D01*
X253424Y523500D02*
X287324D01*
X252324Y524600D02*
X253424Y523500D01*
X288324Y522500D02*
X290000D01*
X287324Y523500D02*
X288324Y522500D01*
D89*
X677789Y661868D02*
X678132D01*
X657961Y642039D02*
X657961D01*
X510000Y496500D02*
X565004D01*
X370000Y515000D02*
X388500Y496500D01*
X580005Y481499D02*
Y482499D01*
X578505Y483999D02*
X580005Y482499D01*
X565004Y496500D02*
X577505Y483999D01*
X578505D01*
X388500Y496500D02*
X510000D01*
X580005Y437499D02*
X582904Y434600D01*
X580005Y437499D02*
Y438499D01*
X582904Y434600D02*
X650000D01*
D90*
X25000Y405000D02*
D03*
Y380000D02*
D03*
Y305000D02*
D03*
Y280000D02*
D03*
Y255000D02*
D03*
Y230000D02*
D03*
Y155000D02*
D03*
Y180000D02*
D03*
Y205000D02*
D03*
Y330000D02*
D03*
Y355000D02*
D03*
D91*
Y130000D02*
D03*
D92*
X640000Y660000D02*
D03*
X613980Y-51020D02*
D03*
X78980Y-73980D02*
D03*
X120000Y85000D02*
D03*
X89600Y117000D02*
D03*
X115000D02*
D03*
X57700Y37300D02*
D03*
X32300Y11900D02*
D03*
Y37300D02*
D03*
Y62700D02*
D03*
X57700D02*
D03*
X32300Y88100D02*
D03*
X57700D02*
D03*
X185000Y427300D02*
D03*
Y401900D02*
D03*
Y452700D02*
D03*
X32039Y642039D02*
D03*
D93*
X657961D02*
D03*
X61020Y-56020D02*
D03*
D94*
X650000Y270000D02*
D03*
Y219200D02*
D03*
Y168400D02*
D03*
Y485400D02*
D03*
Y434600D02*
D03*
D95*
X596020Y-68980D02*
D03*
X50000Y660000D02*
D03*
D96*
X470000Y-22500D02*
D03*
X445000D02*
D03*
X420000D02*
D03*
X395000D02*
D03*
X495000D02*
D03*
X290000D02*
D03*
X315000D02*
D03*
X215000D02*
D03*
X240000D02*
D03*
X265000D02*
D03*
D97*
X370000D02*
D03*
X190000D02*
D03*
D98*
X94600Y85000D02*
D03*
X140400Y117000D02*
D03*
D99*
X57700Y11900D02*
D03*
X185000Y478100D02*
D03*
D100*
X49200Y450000D02*
D03*
D101*
Y475400D02*
D03*
X74600Y450000D02*
D03*
Y475400D02*
D03*
X100000Y450000D02*
D03*
Y475400D02*
D03*
X125400Y450000D02*
D03*
Y475400D02*
D03*
X150800Y450000D02*
D03*
Y475400D02*
D03*
D102*
X425400Y550000D02*
D03*
X374600D02*
D03*
D103*
X541000Y-22000D02*
D03*
X561000Y74000D02*
D03*
X487000Y75000D02*
D03*
X490000Y65000D02*
D03*
X538000Y427000D02*
D03*
X405890Y251020D02*
D03*
X291000Y276000D02*
D03*
X127000Y-74000D02*
D03*
X160000Y-37000D02*
D03*
X395000Y453000D02*
D03*
X623000Y127000D02*
D03*
X620000Y48000D02*
D03*
X94000Y529000D02*
D03*
X417000Y88000D02*
D03*
X268000Y196000D02*
D03*
X212000Y155000D02*
D03*
X-24000Y282000D02*
D03*
X208000Y351000D02*
D03*
X210000Y182000D02*
D03*
X338000Y550040D02*
D03*
X321000Y522000D02*
D03*
X81000Y285000D02*
D03*
X96980Y266980D02*
D03*
X99000Y280000D02*
D03*
X105000Y272000D02*
D03*
X206000Y263000D02*
D03*
X155000Y259000D02*
D03*
X108000Y342000D02*
D03*
X82000Y216000D02*
D03*
X197000Y60000D02*
D03*
X582000Y108000D02*
D03*
X514000Y152000D02*
D03*
X378000Y95000D02*
D03*
X79000Y365000D02*
D03*
X150000Y310000D02*
D03*
Y330000D02*
D03*
X117000Y283000D02*
D03*
X480000Y65000D02*
D03*
X555623Y47032D02*
D03*
X257000Y70980D02*
D03*
X482000Y100000D02*
D03*
X242000Y65000D02*
D03*
X123000Y307000D02*
D03*
X503000Y229000D02*
D03*
Y220000D02*
D03*
Y238000D02*
D03*
Y211000D02*
D03*
X494000Y202000D02*
D03*
Y211000D02*
D03*
Y238000D02*
D03*
Y229000D02*
D03*
X485000D02*
D03*
X494000Y220000D02*
D03*
X485000Y202000D02*
D03*
Y220000D02*
D03*
X503000Y202000D02*
D03*
X494000Y193000D02*
D03*
X485000D02*
D03*
X503000D02*
D03*
Y184000D02*
D03*
X494000D02*
D03*
X485000Y238000D02*
D03*
X425483Y230483D02*
D03*
X485000Y211000D02*
D03*
Y184000D02*
D03*
X505000Y328000D02*
D03*
Y319000D02*
D03*
X496000Y328000D02*
D03*
Y319000D02*
D03*
X505000Y310000D02*
D03*
Y301000D02*
D03*
X496000Y310000D02*
D03*
Y301000D02*
D03*
X487000Y328000D02*
D03*
Y319000D02*
D03*
X427000Y321000D02*
D03*
X487000Y301000D02*
D03*
Y292000D02*
D03*
Y310000D02*
D03*
X505000Y283000D02*
D03*
Y274000D02*
D03*
X496000Y292000D02*
D03*
X505000D02*
D03*
X487000Y283000D02*
D03*
X496000D02*
D03*
Y274000D02*
D03*
X487000D02*
D03*
X268000Y364000D02*
D03*
X502000Y407000D02*
D03*
Y398000D02*
D03*
Y416000D02*
D03*
X493000Y389000D02*
D03*
X502000D02*
D03*
Y380000D02*
D03*
X493000D02*
D03*
Y416000D02*
D03*
X484000Y407000D02*
D03*
Y416000D02*
D03*
X493000Y407000D02*
D03*
Y398000D02*
D03*
X484000Y389000D02*
D03*
X493000Y371000D02*
D03*
X502000D02*
D03*
X484000D02*
D03*
X493000Y362000D02*
D03*
X502000D02*
D03*
X484000D02*
D03*
Y398000D02*
D03*
Y380000D02*
D03*
X417000Y409000D02*
D03*
X165000Y330000D02*
D03*
X145000Y339000D02*
D03*
X126000Y214980D02*
D03*
X282000Y139000D02*
D03*
X202500Y307500D02*
D03*
X165500Y220000D02*
D03*
X169000Y280000D02*
D03*
X317000Y29000D02*
D03*
X520000Y81000D02*
D03*
X531000Y112000D02*
D03*
X530000Y153964D02*
D03*
X377017Y68983D02*
D03*
X337000Y88060D02*
D03*
X344050Y82050D02*
D03*
X347000Y70000D02*
D03*
X83940Y196000D02*
D03*
X200000Y86000D02*
D03*
X372000Y58000D02*
D03*
X383000Y29000D02*
D03*
X84000Y206000D02*
D03*
X29000Y493000D02*
D03*
X137500Y345000D02*
D03*
X166000Y288000D02*
D03*
X162000Y295000D02*
D03*
X167000Y302000D02*
D03*
X453000Y344000D02*
D03*
X595020Y27480D02*
D03*
X309000Y313000D02*
D03*
Y342000D02*
D03*
X414000Y357000D02*
D03*
X415000Y271000D02*
D03*
X306000Y252000D02*
D03*
Y222000D02*
D03*
X79000Y230000D02*
D03*
X77489Y240000D02*
D03*
X87500Y230000D02*
D03*
X117500Y-30000D02*
D03*
X80000Y303000D02*
D03*
X552500Y630000D02*
D03*
X577500Y617500D02*
D03*
X602500Y612500D02*
D03*
X660000Y600000D02*
D03*
X652500Y570000D02*
D03*
X197500Y280000D02*
D03*
X170000Y365000D02*
D03*
M02*
