G04*
G04 #@! TF.GenerationSoftware,Altium Limited,Altium Designer,22.4.2 (48)*
G04*
G04 Layer_Color=65535*
%FSLAX44Y44*%
%MOMM*%
G71*
G04*
G04 #@! TF.SameCoordinates,72DCB881-4164-4183-B9F3-641E9368B05D*
G04*
G04*
G04 #@! TF.FilePolarity,Positive*
G04*
G01*
G75*
%ADD10C,0.2000*%
%ADD11C,0.3000*%
%ADD12C,0.4000*%
%ADD13C,0.1500*%
%ADD14C,0.2540*%
%ADD15C,0.1778*%
%ADD16C,0.2032*%
%ADD17C,0.6400*%
%ADD18C,0.1250*%
%ADD19C,0.1270*%
D10*
X243650Y308000D02*
G03*
X256350Y308000I6350J0D01*
G01*
X242855Y398586D02*
G03*
X255555Y398586I6350J0D01*
G01*
X243650Y228000D02*
G03*
X256350Y228000I6350J0D01*
G01*
X433914Y73150D02*
G03*
X433914Y85850I0J6350D01*
G01*
X245000Y280000D02*
X255001D01*
X250000Y274999D02*
Y285000D01*
X230000Y308000D02*
X243650D01*
X230000Y252000D02*
X270000D01*
X256350Y308000D02*
X270000D01*
X599812Y432060D02*
Y487940D01*
X560188Y466500D02*
X599812D01*
X595812Y432060D02*
X599812D01*
X560188D02*
Y487940D01*
Y432060D02*
X564188D01*
X560188Y487940D02*
X564188D01*
X595812D02*
X599812D01*
X15978Y423710D02*
Y432900D01*
X8104Y423710D02*
X15978D01*
X8104D02*
Y432900D01*
X1500D02*
X8104D01*
X15978D02*
X59500D01*
X15978Y102500D02*
Y111766D01*
X8104D02*
X15978D01*
X8104Y102500D02*
Y111766D01*
X1500Y102500D02*
X8104D01*
X15978D02*
X59500D01*
X1500D02*
Y432900D01*
X59500Y102500D02*
Y432900D01*
X582213Y614339D02*
X619137Y577416D01*
X582344Y614693D02*
X619137Y651486D01*
Y577416D02*
X656172Y614451D01*
X619137Y651486D02*
X656172Y614451D01*
X620956Y295400D02*
X679972D01*
X604750D02*
X612916D01*
X620956D02*
X623637Y288542D01*
X610235D02*
X612916Y295400D01*
X610235Y288542D02*
X623637D01*
X604750Y143000D02*
X613170D01*
X611138Y137801D02*
X613170Y143000D01*
X621210D02*
X623242Y137801D01*
X611138D02*
X623242D01*
X564000Y250000D02*
Y270000D01*
X596000Y250000D02*
Y270000D01*
Y340000D02*
Y360000D01*
X564000Y340000D02*
Y360000D01*
X624000Y340000D02*
Y360000D01*
X656000Y340000D02*
Y360000D01*
X620956Y510800D02*
X679972D01*
X604750D02*
X612916D01*
X620956D02*
X623637Y503942D01*
X610235D02*
X612916Y510800D01*
X610235Y503942D02*
X623637D01*
X611138Y404001D02*
X623242D01*
X621210Y409200D02*
X623242Y404001D01*
X611138D02*
X613170Y409200D01*
X604750D02*
X613170D01*
X478090Y469510D02*
X513910D01*
X478090Y436490D02*
Y469510D01*
X513910Y436490D02*
Y469510D01*
X478090Y436490D02*
X513910D01*
X308000Y425000D02*
Y495000D01*
X212000Y425000D02*
Y495000D01*
Y425000D02*
X308000D01*
X212000Y495000D02*
X308000D01*
X255000Y460000D02*
X265001D01*
X260000Y455000D02*
Y465001D01*
X255555Y398586D02*
X269205D01*
X229205Y342586D02*
X269205D01*
X229205Y398586D02*
X242855D01*
X249205Y365585D02*
Y375586D01*
X244205Y370586D02*
X254205D01*
X256350Y228000D02*
X270000D01*
X230000Y172000D02*
X270000D01*
X230000Y228000D02*
X243650D01*
X250000Y194999D02*
Y205000D01*
X245000Y200000D02*
X255001D01*
X390000Y356500D02*
X395000D01*
Y423500D01*
X390000D02*
X395000D01*
X508500Y356500D02*
X513500D01*
Y423500D01*
X508500D02*
X513500D01*
X390000Y266500D02*
X395000D01*
Y333500D01*
X390000D02*
X395000D01*
X508500Y266500D02*
X513500D01*
Y333500D01*
X508500D02*
X513500D01*
X510000Y176500D02*
X515000D01*
Y243500D01*
X510000D02*
X515000D01*
X390000Y176500D02*
X395000D01*
Y243500D01*
X390000D02*
X395000D01*
X480664Y74500D02*
Y84501D01*
X475664Y79500D02*
X485665D01*
X433914Y85850D02*
Y99500D01*
X527414Y59500D02*
Y99500D01*
X433914Y59500D02*
Y73150D01*
X573490Y32090D02*
Y67910D01*
Y32090D02*
X606510D01*
X573490Y67910D02*
X606510D01*
Y32090D02*
Y67910D01*
X537014Y-24539D02*
X573937Y12385D01*
X574292Y12254D02*
X611084Y-24539D01*
X537014Y-24539D02*
X574049Y-61574D01*
X611084Y-24539D01*
X345000Y-96750D02*
Y-19250D01*
X344999Y-96750D02*
X519999D01*
X520000Y-96750D02*
Y-19250D01*
X506500D02*
X520000D01*
X345000D02*
X358250D01*
X277000Y67500D02*
Y73750D01*
X274000Y71000D02*
X280250D01*
X277000Y49250D02*
Y64250D01*
X333000Y49250D02*
Y70750D01*
X285000D02*
X333000D01*
X277000Y49250D02*
X333000D01*
X157090Y66510D02*
X192910D01*
X157090Y33490D02*
Y66510D01*
X192910Y33490D02*
Y66510D01*
X157090Y33490D02*
X192910D01*
X69400Y-34278D02*
X106323Y-71202D01*
X69531Y-33924D02*
X106323Y2869D01*
Y-71202D02*
X143359Y-34166D01*
X106323Y2869D02*
X143359Y-34166D01*
X120000Y300000D02*
X130001D01*
X125000Y294999D02*
Y305000D01*
X79000Y254000D02*
Y346000D01*
X171000D01*
Y254000D02*
Y346000D01*
X79000Y254000D02*
X171000D01*
X163500Y437300D02*
Y488100D01*
X36500Y437300D02*
Y488100D01*
X163500D01*
X36500Y437300D02*
X163500D01*
X36510Y532090D02*
Y567910D01*
X3490D02*
X36510D01*
X3490Y532090D02*
X36510D01*
X3490D02*
Y567910D01*
X450800Y520028D02*
Y579044D01*
Y587084D02*
Y595250D01*
X443942Y576363D02*
X450800Y579044D01*
X443942Y589765D02*
X450800Y587084D01*
X443942Y576363D02*
Y589765D01*
X344001Y576758D02*
Y588862D01*
Y576758D02*
X349200Y578790D01*
X344001Y588862D02*
X349200Y586830D01*
Y595250D01*
X73876Y578998D02*
X110800Y615922D01*
X36729D02*
X73522Y579129D01*
X73764Y652957D02*
X110800Y615922D01*
X36729D02*
X73764Y652957D01*
X568490Y552090D02*
Y587910D01*
Y552090D02*
X601510D01*
X568490Y587910D02*
X601510D01*
Y552090D02*
Y587910D01*
X165000Y-19250D02*
X178250D01*
X326500D02*
X340000D01*
Y-96750D02*
Y-19250D01*
X164999Y-96750D02*
X339999D01*
X165000Y-96750D02*
Y-19250D01*
D11*
X209500Y299250D02*
G03*
X209500Y299250I-1000J0D01*
G01*
X313750Y436750D02*
G03*
X313750Y436750I-1000J0D01*
G01*
X208705Y389836D02*
G03*
X208705Y389836I-1000J0D01*
G01*
X209500Y219250D02*
G03*
X209500Y219250I-1000J0D01*
G01*
X428750Y367250D02*
G03*
X428750Y367250I-1000J0D01*
G01*
X547250D02*
G03*
X547250Y367250I-1000J0D01*
G01*
X428750Y277250D02*
G03*
X428750Y277250I-1000J0D01*
G01*
X547250D02*
G03*
X547250Y277250I-1000J0D01*
G01*
X548750Y187250D02*
G03*
X548750Y187250I-1000J0D01*
G01*
X428750D02*
G03*
X428750Y187250I-1000J0D01*
G01*
X443164Y38250D02*
G03*
X443164Y38250I-1000J0D01*
G01*
X56000Y338250D02*
G03*
X56000Y338250I-1000J0D01*
G01*
D12*
X88916Y338862D02*
G03*
X88916Y338862I-2000J0D01*
G01*
D13*
X14160Y392430D02*
X35160D01*
X14160Y367430D02*
X35160D01*
X13906Y217592D02*
X34906D01*
X13906Y192592D02*
X34906D01*
X14160Y167646D02*
X35160D01*
X13906Y142500D02*
X34906D01*
X14160Y242392D02*
X35160D01*
X14160Y267538D02*
X35160D01*
X14160Y292430D02*
X35160D01*
X14160Y317430D02*
X35160D01*
X14160Y342430D02*
X35160D01*
X622817Y660212D02*
X658096Y624933D01*
X622817Y660212D02*
X639788Y677183D01*
X675143Y641827D01*
X658173Y624857D02*
X675143Y641827D01*
X641616Y644374D02*
X656466Y659224D01*
X578913Y-69116D02*
X614192Y-33837D01*
X631163Y-50808D01*
X595808Y-86163D02*
X631163Y-50808D01*
X578837Y-69192D02*
X595808Y-86163D01*
X598355Y-52636D02*
X613204Y-67485D01*
X457500Y-32406D02*
Y-11406D01*
X432500Y-32406D02*
Y-11406D01*
X407500Y-32406D02*
Y-11406D01*
X382500Y-32406D02*
Y-11406D01*
X482500Y-32406D02*
Y-11406D01*
X60884Y-38913D02*
X96163Y-74192D01*
X79192Y-91163D02*
X96163Y-74192D01*
X43837Y-55808D02*
X79192Y-91163D01*
X43837Y-55808D02*
X60808Y-38837D01*
X62515Y-73204D02*
X77364Y-58355D01*
X82408Y97000D02*
X132300D01*
Y73000D02*
Y97000D01*
X82300Y73000D02*
X132300D01*
X82300D02*
Y97000D01*
X107808Y73906D02*
Y94906D01*
X76900Y104300D02*
X153100D01*
X76900D02*
Y129700D01*
X153100Y104300D02*
Y129700D01*
X102300Y107348D02*
Y128348D01*
X127192Y107094D02*
Y128094D01*
X77154Y129700D02*
X153100D01*
X-8100Y-800D02*
X16900D01*
X-8100D02*
Y100800D01*
X16900Y-800D02*
Y100800D01*
X47794Y25108D02*
X68794D01*
X22140Y24600D02*
X43140D01*
X22140Y50000D02*
X43140D01*
X47794D02*
X68794D01*
X47794Y75400D02*
X68794D01*
X22140D02*
X43140D01*
X-8100Y100800D02*
X16900D01*
X197700Y389454D02*
Y490800D01*
X172300Y389200D02*
X197700D01*
X172300Y490800D02*
X197700D01*
X173652Y440000D02*
X194652D01*
X173906Y414092D02*
X194906D01*
X173906Y464892D02*
X194906D01*
X172300Y389200D02*
Y490800D01*
X31827Y624857D02*
X67106Y660136D01*
X14857Y641827D02*
X31827Y624857D01*
X14857Y641827D02*
X50212Y677183D01*
X67183Y660212D01*
X32816Y658505D02*
X47665Y643656D01*
X302500Y-32406D02*
Y-11406D01*
X202500Y-32406D02*
Y-11406D01*
X227500Y-32406D02*
Y-11406D01*
X252500Y-32406D02*
Y-11406D01*
X277500Y-32406D02*
Y-11406D01*
D14*
X667845Y663175D02*
X676825Y672155D01*
X668204Y680776D02*
X680776Y668204D01*
X659224Y671796D02*
X671796Y659224D01*
X612862Y579626D02*
X616044Y576444D01*
X612163Y584743D02*
X625413Y584045D01*
X472000Y166579D02*
X547421D01*
X472000Y159000D02*
Y166579D01*
Y159000D02*
X476000Y163000D01*
X468000D02*
X472000Y159000D01*
X468000Y163000D02*
X472000Y159000D01*
X618175Y-77845D02*
X627155Y-86825D01*
X623204Y-90776D02*
X635776Y-78204D01*
X614224Y-81796D02*
X626796Y-69224D01*
X536042Y-21446D02*
X539224Y-18264D01*
X543643Y-30815D02*
X544341Y-17565D01*
X38175Y-92155D02*
X47155Y-83175D01*
X34224Y-88204D02*
X46796Y-100776D01*
X43204Y-79224D02*
X55776Y-91796D01*
X100049Y-68991D02*
X103230Y-72173D01*
X99350Y-63875D02*
X112600Y-64572D01*
X128424Y601000D02*
X219424D01*
Y499000D02*
Y601000D01*
X128424Y499000D02*
X219424D01*
X128424D02*
Y501000D01*
Y600000D02*
Y601000D01*
X108589Y609646D02*
X111771Y612828D01*
X103473Y608948D02*
X104170Y622198D01*
X17845Y676825D02*
X26825Y667845D01*
X9224Y668204D02*
X21796Y680776D01*
X18204Y659224D02*
X30776Y671796D01*
X242335Y320999D02*
Y314334D01*
X243668Y313001D01*
X246334D01*
X247667Y314334D01*
Y320999D01*
X255665D02*
X250333D01*
Y317000D01*
X252999Y318333D01*
X254332D01*
X255665Y317000D01*
Y314334D01*
X254332Y313001D01*
X251666D01*
X250333Y314334D01*
X101205Y46537D02*
X94540D01*
Y36540D01*
X101205D01*
X94540Y41538D02*
X97872D01*
X111201Y44871D02*
X109535Y46537D01*
X106203D01*
X104537Y44871D01*
Y43204D01*
X106203Y41538D01*
X109535D01*
X111201Y39872D01*
Y38206D01*
X109535Y36540D01*
X106203D01*
X104537Y38206D01*
X114534Y36540D02*
Y46537D01*
X119532D01*
X121198Y44871D01*
Y41538D01*
X119532Y39872D01*
X114534D01*
X705203Y398204D02*
X706869Y396538D01*
Y393206D01*
X705203Y391540D01*
X698538D01*
X696872Y393206D01*
Y396538D01*
X698538Y398204D01*
X706869Y401537D02*
X696872D01*
X701871D01*
X703537Y403203D01*
Y406535D01*
X701871Y408201D01*
X696872D01*
X703537Y413200D02*
Y416532D01*
X701871Y418198D01*
X696872D01*
Y413200D01*
X698538Y411534D01*
X700204Y413200D01*
Y418198D01*
X703537Y421530D02*
X696872D01*
X700204D01*
X701871Y423196D01*
X703537Y424863D01*
Y426529D01*
X693540Y434859D02*
Y436525D01*
X695206Y438192D01*
X703537D01*
Y433193D01*
X701871Y431527D01*
X698538D01*
X696872Y433193D01*
Y438192D01*
Y446522D02*
Y443190D01*
X698538Y441524D01*
X701871D01*
X703537Y443190D01*
Y446522D01*
X701871Y448188D01*
X700204D01*
Y441524D01*
X287999Y309337D02*
X280001D01*
Y313335D01*
X281334Y314668D01*
X284000D01*
X285333Y313335D01*
Y309337D01*
Y312003D02*
X287999Y314668D01*
X280001Y322666D02*
Y317334D01*
X284000D01*
X282667Y320000D01*
Y321333D01*
X284000Y322666D01*
X286666D01*
X287999Y321333D01*
Y318667D01*
X286666Y317334D01*
X287999Y330663D02*
Y325332D01*
X282667Y330663D01*
X281334D01*
X280001Y329330D01*
Y326665D01*
X281334Y325332D01*
X316999Y339670D02*
X309001D01*
Y343668D01*
X310334Y345001D01*
X313000D01*
X314333Y343668D01*
Y339670D01*
Y342336D02*
X316999Y345001D01*
X309001Y352999D02*
Y347667D01*
X313000D01*
X311667Y350333D01*
Y351666D01*
X313000Y352999D01*
X315666D01*
X316999Y351666D01*
Y349000D01*
X315666Y347667D01*
X316999Y355664D02*
Y358330D01*
Y356997D01*
X309001D01*
X310334Y355664D01*
X289999Y224337D02*
X282001D01*
Y228335D01*
X283334Y229668D01*
X286000D01*
X287333Y228335D01*
Y224337D01*
Y227003D02*
X289999Y229668D01*
X282001Y237666D02*
Y232334D01*
X286000D01*
X284667Y235000D01*
Y236333D01*
X286000Y237666D01*
X288666D01*
X289999Y236333D01*
Y233667D01*
X288666Y232334D01*
X283334Y240332D02*
X282001Y241665D01*
Y244330D01*
X283334Y245663D01*
X288666D01*
X289999Y244330D01*
Y241665D01*
X288666Y240332D01*
X283334D01*
X316999Y249337D02*
X309001D01*
Y253335D01*
X310334Y254668D01*
X313000D01*
X314333Y253335D01*
Y249337D01*
Y252003D02*
X316999Y254668D01*
Y261333D02*
X309001D01*
X313000Y257334D01*
Y262666D01*
X315666Y265332D02*
X316999Y266665D01*
Y269330D01*
X315666Y270663D01*
X310334D01*
X309001Y269330D01*
Y266665D01*
X310334Y265332D01*
X311667D01*
X313000Y266665D01*
Y270663D01*
X303999Y100337D02*
X296001D01*
Y104335D01*
X297334Y105668D01*
X300000D01*
X301333Y104335D01*
Y100337D01*
Y103003D02*
X303999Y105668D01*
Y112333D02*
X296001D01*
X300000Y108334D01*
Y113666D01*
X297334Y116332D02*
X296001Y117665D01*
Y120330D01*
X297334Y121663D01*
X298667D01*
X300000Y120330D01*
X301333Y121663D01*
X302666D01*
X303999Y120330D01*
Y117665D01*
X302666Y116332D01*
X301333D01*
X300000Y117665D01*
X298667Y116332D01*
X297334D01*
X300000Y117665D02*
Y120330D01*
X316999Y158337D02*
X309001D01*
Y162335D01*
X310334Y163668D01*
X313000D01*
X314333Y162335D01*
Y158337D01*
Y161003D02*
X316999Y163668D01*
Y170333D02*
X309001D01*
X313000Y166334D01*
Y171666D01*
X309001Y174332D02*
Y179663D01*
X310334D01*
X315666Y174332D01*
X316999D01*
X75001Y507666D02*
X73668Y508999D01*
X71003D01*
X69670Y507666D01*
Y506333D01*
X71003Y505000D01*
X73668D01*
X75001Y503667D01*
Y502334D01*
X73668Y501001D01*
X71003D01*
X69670Y502334D01*
X77667Y508999D02*
Y501001D01*
X80333Y503667D01*
X82999Y501001D01*
Y508999D01*
X85665Y501001D02*
X88330D01*
X86997D01*
Y508999D01*
X85665Y507666D01*
X718999Y196674D02*
X711001D01*
X713667Y199339D01*
X711001Y202005D01*
X718999D01*
X711001Y208670D02*
Y206004D01*
X712334Y204671D01*
X717666D01*
X718999Y206004D01*
Y208670D01*
X717666Y210003D01*
X712334D01*
X711001Y208670D01*
Y212668D02*
Y218000D01*
Y215334D01*
X718999D01*
X711001Y224664D02*
Y221999D01*
X712334Y220666D01*
X717666D01*
X718999Y221999D01*
Y224664D01*
X717666Y225997D01*
X712334D01*
X711001Y224664D01*
X718999Y228663D02*
X711001D01*
Y232662D01*
X712334Y233995D01*
X715000D01*
X716333Y232662D01*
Y228663D01*
Y231329D02*
X718999Y233995D01*
Y236661D02*
Y239326D01*
Y237994D01*
X711001D01*
X712334Y236661D01*
X634006Y396999D02*
Y389001D01*
X638004D01*
X639337Y390334D01*
Y395666D01*
X638004Y396999D01*
X634006D01*
X647335Y395666D02*
X646002Y396999D01*
X643336D01*
X642003Y395666D01*
Y390334D01*
X643336Y389001D01*
X646002D01*
X647335Y390334D01*
X650001Y396999D02*
X652666D01*
X651333D01*
Y389001D01*
X650001D01*
X652666D01*
X656665D02*
Y396999D01*
X661997Y389001D01*
Y396999D01*
X669994Y389001D02*
X664663D01*
X669994Y394333D01*
Y395666D01*
X668661Y396999D01*
X665995D01*
X664663Y395666D01*
X392339Y609999D02*
Y602001D01*
X396337D01*
X397670Y603334D01*
Y608666D01*
X396337Y609999D01*
X392339D01*
X405668Y608666D02*
X404335Y609999D01*
X401669D01*
X400336Y608666D01*
Y603334D01*
X401669Y602001D01*
X404335D01*
X405668Y603334D01*
X408334Y609999D02*
X410999D01*
X409666D01*
Y602001D01*
X408334D01*
X410999D01*
X414998D02*
Y609999D01*
X420330Y602001D01*
Y609999D01*
X422995Y602001D02*
X425661D01*
X424328D01*
Y609999D01*
X422995Y608666D01*
X83336Y378999D02*
Y372334D01*
X84668Y371001D01*
X87334D01*
X88667Y372334D01*
Y378999D01*
X91333D02*
X96664D01*
Y377666D01*
X91333Y372334D01*
Y371001D01*
X242335Y413999D02*
Y407334D01*
X243668Y406001D01*
X246334D01*
X247667Y407334D01*
Y413999D01*
X255665D02*
X252999Y412666D01*
X250333Y410000D01*
Y407334D01*
X251666Y406001D01*
X254332D01*
X255665Y407334D01*
Y408667D01*
X254332Y410000D01*
X250333D01*
X427001Y106335D02*
X433666D01*
X434999Y107668D01*
Y110334D01*
X433666Y111667D01*
X427001D01*
X434999Y118332D02*
X427001D01*
X431000Y114333D01*
Y119664D01*
X241336Y238999D02*
Y232334D01*
X242668Y231001D01*
X245334D01*
X246667Y232334D01*
Y238999D01*
X249333Y237666D02*
X250666Y238999D01*
X253332D01*
X254664Y237666D01*
Y236333D01*
X253332Y235000D01*
X251999D01*
X253332D01*
X254664Y233667D01*
Y232334D01*
X253332Y231001D01*
X250666D01*
X249333Y232334D01*
X247335Y510999D02*
Y504334D01*
X248668Y503001D01*
X251334D01*
X252667Y504334D01*
Y510999D01*
X260665Y503001D02*
X255333D01*
X260665Y508333D01*
Y509666D01*
X259332Y510999D01*
X256666D01*
X255333Y509666D01*
X165668Y620999D02*
Y614334D01*
X167001Y613001D01*
X169667D01*
X171000Y614334D01*
Y620999D01*
X173666Y613001D02*
X176332D01*
X174999D01*
Y620999D01*
X173666Y619666D01*
X405337Y38001D02*
Y45999D01*
X409336D01*
X410668Y44666D01*
Y42000D01*
X409336Y40667D01*
X405337D01*
X408003D02*
X410668Y38001D01*
X418666Y45999D02*
X416000Y44666D01*
X413334Y42000D01*
Y39334D01*
X414667Y38001D01*
X417333D01*
X418666Y39334D01*
Y40667D01*
X417333Y42000D01*
X413334D01*
X426663Y38001D02*
X421332D01*
X426663Y43333D01*
Y44666D01*
X425330Y45999D01*
X422664D01*
X421332Y44666D01*
X380670Y38001D02*
Y45999D01*
X384668D01*
X386001Y44666D01*
Y42000D01*
X384668Y40667D01*
X380670D01*
X383335D02*
X386001Y38001D01*
X393999Y45999D02*
X391333Y44666D01*
X388667Y42000D01*
Y39334D01*
X390000Y38001D01*
X392666D01*
X393999Y39334D01*
Y40667D01*
X392666Y42000D01*
X388667D01*
X396665Y38001D02*
X399330D01*
X397998D01*
Y45999D01*
X396665Y44666D01*
X524337Y475001D02*
Y482999D01*
X528335D01*
X529668Y481666D01*
Y479000D01*
X528335Y477667D01*
X524337D01*
X527003D02*
X529668Y475001D01*
X537666Y482999D02*
X535000Y481666D01*
X532334Y479000D01*
Y476334D01*
X533667Y475001D01*
X536333D01*
X537666Y476334D01*
Y477667D01*
X536333Y479000D01*
X532334D01*
X540332Y481666D02*
X541665Y482999D01*
X544330D01*
X545663Y481666D01*
Y476334D01*
X544330Y475001D01*
X541665D01*
X540332Y476334D01*
Y481666D01*
X526337Y422001D02*
Y429999D01*
X530336D01*
X531668Y428666D01*
Y426000D01*
X530336Y424667D01*
X526337D01*
X529003D02*
X531668Y422001D01*
X539666Y429999D02*
X534334D01*
Y426000D01*
X537000Y427333D01*
X538333D01*
X539666Y426000D01*
Y423334D01*
X538333Y422001D01*
X535667D01*
X534334Y423334D01*
X542332Y429999D02*
X547663D01*
Y428666D01*
X542332Y423334D01*
Y422001D01*
X11999Y470337D02*
X4001D01*
Y474336D01*
X5334Y475668D01*
X8000D01*
X9333Y474336D01*
Y470337D01*
Y473003D02*
X11999Y475668D01*
X4001Y483666D02*
Y478334D01*
X8000D01*
X6667Y481000D01*
Y482333D01*
X8000Y483666D01*
X10666D01*
X11999Y482333D01*
Y479667D01*
X10666Y478334D01*
X4001Y491663D02*
X5334Y488997D01*
X8000Y486332D01*
X10666D01*
X11999Y487664D01*
Y490330D01*
X10666Y491663D01*
X9333D01*
X8000Y490330D01*
Y486332D01*
X621999Y518337D02*
X614001D01*
Y522336D01*
X615334Y523668D01*
X618000D01*
X619333Y522336D01*
Y518337D01*
Y521003D02*
X621999Y523668D01*
X614001Y531666D02*
Y526334D01*
X618000D01*
X616667Y529000D01*
Y530333D01*
X618000Y531666D01*
X620666D01*
X621999Y530333D01*
Y527667D01*
X620666Y526334D01*
X614001Y539663D02*
Y534332D01*
X618000D01*
X616667Y536997D01*
Y538330D01*
X618000Y539663D01*
X620666D01*
X621999Y538330D01*
Y535664D01*
X620666Y534332D01*
X640337Y95001D02*
Y102999D01*
X644335D01*
X645668Y101666D01*
Y99000D01*
X644335Y97667D01*
X640337D01*
X643003D02*
X645668Y95001D01*
X653666Y102999D02*
X648334D01*
Y99000D01*
X651000Y100333D01*
X652333D01*
X653666Y99000D01*
Y96334D01*
X652333Y95001D01*
X649667D01*
X648334Y96334D01*
X660330Y95001D02*
Y102999D01*
X656332Y99000D01*
X661663D01*
X203337Y19001D02*
Y26999D01*
X207335D01*
X208668Y25666D01*
Y23000D01*
X207335Y21667D01*
X203337D01*
X206003D02*
X208668Y19001D01*
X216666Y26999D02*
X211334D01*
Y23000D01*
X214000Y24333D01*
X215333D01*
X216666Y23000D01*
Y20334D01*
X215333Y19001D01*
X212667D01*
X211334Y20334D01*
X219332Y25666D02*
X220665Y26999D01*
X223330D01*
X224663Y25666D01*
Y24333D01*
X223330Y23000D01*
X221997D01*
X223330D01*
X224663Y21667D01*
Y20334D01*
X223330Y19001D01*
X220665D01*
X219332Y20334D01*
X558999Y166337D02*
X551001D01*
Y170336D01*
X552334Y171668D01*
X555000D01*
X556333Y170336D01*
Y166337D01*
Y169003D02*
X558999Y171668D01*
Y178333D02*
X551001D01*
X555000Y174334D01*
Y179666D01*
X551001Y187663D02*
X552334Y184997D01*
X555000Y182332D01*
X557666D01*
X558999Y183664D01*
Y186330D01*
X557666Y187663D01*
X556333D01*
X555000Y186330D01*
Y182332D01*
X594999Y166337D02*
X587001D01*
Y170336D01*
X588334Y171668D01*
X591000D01*
X592333Y170336D01*
Y166337D01*
Y169003D02*
X594999Y171668D01*
Y178333D02*
X587001D01*
X591000Y174334D01*
Y179666D01*
X587001Y187663D02*
Y182332D01*
X591000D01*
X589667Y184997D01*
Y186330D01*
X591000Y187663D01*
X593666D01*
X594999Y186330D01*
Y183665D01*
X593666Y182332D01*
X582999Y166337D02*
X575001D01*
Y170336D01*
X576334Y171668D01*
X579000D01*
X580333Y170336D01*
Y166337D01*
Y169003D02*
X582999Y171668D01*
Y178333D02*
X575001D01*
X579000Y174334D01*
Y179666D01*
X582999Y186330D02*
X575001D01*
X579000Y182332D01*
Y187663D01*
X570999Y166337D02*
X563001D01*
Y170336D01*
X564334Y171668D01*
X567000D01*
X568333Y170336D01*
Y166337D01*
Y169003D02*
X570999Y171668D01*
Y178333D02*
X563001D01*
X567000Y174334D01*
Y179666D01*
X564334Y182332D02*
X563001Y183664D01*
Y186330D01*
X564334Y187663D01*
X565667D01*
X567000Y186330D01*
Y184997D01*
Y186330D01*
X568333Y187663D01*
X569666D01*
X570999Y186330D01*
Y183664D01*
X569666Y182332D01*
X274337Y16001D02*
Y23999D01*
X278335D01*
X279668Y22666D01*
Y20000D01*
X278335Y18667D01*
X274337D01*
X277003D02*
X279668Y16001D01*
X286333D02*
Y23999D01*
X282334Y20000D01*
X287666D01*
X295663Y16001D02*
X290332D01*
X295663Y21333D01*
Y22666D01*
X294330Y23999D01*
X291665D01*
X290332Y22666D01*
X274670Y-3999D02*
Y3999D01*
X278668D01*
X280001Y2666D01*
Y0D01*
X278668Y-1333D01*
X274670D01*
X277335D02*
X280001Y-3999D01*
X286666D02*
Y3999D01*
X282667Y0D01*
X287999D01*
X290665Y-3999D02*
X293330D01*
X291997D01*
Y3999D01*
X290665Y2666D01*
X639999Y518337D02*
X632001D01*
Y522336D01*
X633334Y523668D01*
X636000D01*
X637333Y522336D01*
Y518337D01*
Y521003D02*
X639999Y523668D01*
Y530333D02*
X632001D01*
X636000Y526334D01*
Y531666D01*
X633334Y534332D02*
X632001Y535665D01*
Y538330D01*
X633334Y539663D01*
X638666D01*
X639999Y538330D01*
Y535665D01*
X638666Y534332D01*
X633334D01*
X611337Y76001D02*
Y83999D01*
X615336D01*
X616668Y82666D01*
Y80000D01*
X615336Y78667D01*
X611337D01*
X614003D02*
X616668Y76001D01*
X619334Y82666D02*
X620667Y83999D01*
X623333D01*
X624666Y82666D01*
Y81333D01*
X623333Y80000D01*
X622000D01*
X623333D01*
X624666Y78667D01*
Y77334D01*
X623333Y76001D01*
X620667D01*
X619334Y77334D01*
X627332D02*
X628665Y76001D01*
X631330D01*
X632663Y77334D01*
Y82666D01*
X631330Y83999D01*
X628665D01*
X627332Y82666D01*
Y81333D01*
X628665Y80000D01*
X632663D01*
X537337Y39001D02*
Y46999D01*
X541335D01*
X542668Y45666D01*
Y43000D01*
X541335Y41667D01*
X537337D01*
X540003D02*
X542668Y39001D01*
X545334Y45666D02*
X546667Y46999D01*
X549333D01*
X550666Y45666D01*
Y44333D01*
X549333Y43000D01*
X548000D01*
X549333D01*
X550666Y41667D01*
Y40334D01*
X549333Y39001D01*
X546667D01*
X545334Y40334D01*
X553332Y45666D02*
X554664Y46999D01*
X557330D01*
X558663Y45666D01*
Y44333D01*
X557330Y43000D01*
X558663Y41667D01*
Y40334D01*
X557330Y39001D01*
X554664D01*
X553332Y40334D01*
Y41667D01*
X554664Y43000D01*
X553332Y44333D01*
Y45666D01*
X554664Y43000D02*
X557330D01*
X401337Y109001D02*
Y116999D01*
X405336D01*
X406668Y115666D01*
Y113000D01*
X405336Y111667D01*
X401337D01*
X404003D02*
X406668Y109001D01*
X409334Y115666D02*
X410667Y116999D01*
X413333D01*
X414666Y115666D01*
Y114333D01*
X413333Y113000D01*
X412000D01*
X413333D01*
X414666Y111667D01*
Y110334D01*
X413333Y109001D01*
X410667D01*
X409334Y110334D01*
X417332Y116999D02*
X422663D01*
Y115666D01*
X417332Y110334D01*
Y109001D01*
X370337Y77001D02*
Y84999D01*
X374336D01*
X375668Y83666D01*
Y81000D01*
X374336Y79667D01*
X370337D01*
X373003D02*
X375668Y77001D01*
X378334Y83666D02*
X379667Y84999D01*
X382333D01*
X383666Y83666D01*
Y82333D01*
X382333Y81000D01*
X381000D01*
X382333D01*
X383666Y79667D01*
Y78334D01*
X382333Y77001D01*
X379667D01*
X378334Y78334D01*
X391663Y84999D02*
X388997Y83666D01*
X386332Y81000D01*
Y78334D01*
X387664Y77001D01*
X390330D01*
X391663Y78334D01*
Y79667D01*
X390330Y81000D01*
X386332D01*
X612337Y94001D02*
Y101999D01*
X616335D01*
X617668Y100666D01*
Y98000D01*
X616335Y96667D01*
X612337D01*
X615003D02*
X617668Y94001D01*
X620334Y100666D02*
X621667Y101999D01*
X624333D01*
X625666Y100666D01*
Y99333D01*
X624333Y98000D01*
X623000D01*
X624333D01*
X625666Y96667D01*
Y95334D01*
X624333Y94001D01*
X621667D01*
X620334Y95334D01*
X633663Y101999D02*
X628332D01*
Y98000D01*
X630997Y99333D01*
X632330D01*
X633663Y98000D01*
Y95334D01*
X632330Y94001D01*
X629664D01*
X628332Y95334D01*
X371337Y53001D02*
Y60999D01*
X375336D01*
X376668Y59666D01*
Y57000D01*
X375336Y55667D01*
X371337D01*
X374003D02*
X376668Y53001D01*
X379334Y59666D02*
X380667Y60999D01*
X383333D01*
X384666Y59666D01*
Y58333D01*
X383333Y57000D01*
X382000D01*
X383333D01*
X384666Y55667D01*
Y54334D01*
X383333Y53001D01*
X380667D01*
X379334Y54334D01*
X391330Y53001D02*
Y60999D01*
X387332Y57000D01*
X392663D01*
X634999Y6337D02*
X627001D01*
Y10336D01*
X628334Y11668D01*
X631000D01*
X632333Y10336D01*
Y6337D01*
Y9003D02*
X634999Y11668D01*
X628334Y14334D02*
X627001Y15667D01*
Y18333D01*
X628334Y19666D01*
X629667D01*
X631000Y18333D01*
Y17000D01*
Y18333D01*
X632333Y19666D01*
X633666D01*
X634999Y18333D01*
Y15667D01*
X633666Y14334D01*
X628334Y22332D02*
X627001Y23665D01*
Y26330D01*
X628334Y27663D01*
X629667D01*
X631000Y26330D01*
Y24997D01*
Y26330D01*
X632333Y27663D01*
X633666D01*
X634999Y26330D01*
Y23665D01*
X633666Y22332D01*
X53999Y499337D02*
X46001D01*
Y503335D01*
X47334Y504668D01*
X50000D01*
X51333Y503335D01*
Y499337D01*
Y502003D02*
X53999Y504668D01*
X47334Y507334D02*
X46001Y508667D01*
Y511333D01*
X47334Y512666D01*
X48667D01*
X50000Y511333D01*
Y510000D01*
Y511333D01*
X51333Y512666D01*
X52666D01*
X53999Y511333D01*
Y508667D01*
X52666Y507334D01*
X53999Y520663D02*
Y515332D01*
X48667Y520663D01*
X47334D01*
X46001Y519330D01*
Y516665D01*
X47334Y515332D01*
X647999Y6670D02*
X640001D01*
Y10668D01*
X641334Y12001D01*
X644000D01*
X645333Y10668D01*
Y6670D01*
Y9336D02*
X647999Y12001D01*
X641334Y14667D02*
X640001Y16000D01*
Y18666D01*
X641334Y19999D01*
X642667D01*
X644000Y18666D01*
Y17333D01*
Y18666D01*
X645333Y19999D01*
X646666D01*
X647999Y18666D01*
Y16000D01*
X646666Y14667D01*
X647999Y22664D02*
Y25330D01*
Y23997D01*
X640001D01*
X641334Y22664D01*
X203337Y75001D02*
Y82999D01*
X207335D01*
X208668Y81666D01*
Y79000D01*
X207335Y77667D01*
X203337D01*
X206003D02*
X208668Y75001D01*
X211334Y81666D02*
X212667Y82999D01*
X215333D01*
X216666Y81666D01*
Y80333D01*
X215333Y79000D01*
X214000D01*
X215333D01*
X216666Y77667D01*
Y76334D01*
X215333Y75001D01*
X212667D01*
X211334Y76334D01*
X219332Y81666D02*
X220665Y82999D01*
X223330D01*
X224663Y81666D01*
Y76334D01*
X223330Y75001D01*
X220665D01*
X219332Y76334D01*
Y81666D01*
X661999Y6337D02*
X654001D01*
Y10336D01*
X655334Y11668D01*
X658000D01*
X659333Y10336D01*
Y6337D01*
Y9003D02*
X661999Y11668D01*
Y19666D02*
Y14334D01*
X656667Y19666D01*
X655334D01*
X654001Y18333D01*
Y15667D01*
X655334Y14334D01*
X660666Y22332D02*
X661999Y23665D01*
Y26330D01*
X660666Y27663D01*
X655334D01*
X654001Y26330D01*
Y23665D01*
X655334Y22332D01*
X656667D01*
X658000Y23665D01*
Y27663D01*
X620999Y6337D02*
X613001D01*
Y10336D01*
X614334Y11668D01*
X617000D01*
X618333Y10336D01*
Y6337D01*
Y9003D02*
X620999Y11668D01*
Y19666D02*
Y14334D01*
X615667Y19666D01*
X614334D01*
X613001Y18333D01*
Y15667D01*
X614334Y14334D01*
Y22332D02*
X613001Y23665D01*
Y26330D01*
X614334Y27663D01*
X615667D01*
X617000Y26330D01*
X618333Y27663D01*
X619666D01*
X620999Y26330D01*
Y23665D01*
X619666Y22332D01*
X618333D01*
X617000Y23665D01*
X615667Y22332D01*
X614334D01*
X617000Y23665D02*
Y26330D01*
X641337Y76001D02*
Y83999D01*
X645335D01*
X646668Y82666D01*
Y80000D01*
X645335Y78667D01*
X641337D01*
X644003D02*
X646668Y76001D01*
X654666D02*
X649334D01*
X654666Y81333D01*
Y82666D01*
X653333Y83999D01*
X650667D01*
X649334Y82666D01*
X657332Y83999D02*
X662663D01*
Y82666D01*
X657332Y77334D01*
Y76001D01*
X675999Y6337D02*
X668001D01*
Y10336D01*
X669334Y11668D01*
X672000D01*
X673333Y10336D01*
Y6337D01*
Y9003D02*
X675999Y11668D01*
Y19666D02*
Y14334D01*
X670667Y19666D01*
X669334D01*
X668001Y18333D01*
Y15667D01*
X669334Y14334D01*
X668001Y27663D02*
X669334Y24997D01*
X672000Y22332D01*
X674666D01*
X675999Y23665D01*
Y26330D01*
X674666Y27663D01*
X673333D01*
X672000Y26330D01*
Y22332D01*
X607999Y6337D02*
X600001D01*
Y10336D01*
X601334Y11668D01*
X604000D01*
X605333Y10336D01*
Y6337D01*
Y9003D02*
X607999Y11668D01*
Y19666D02*
Y14334D01*
X602667Y19666D01*
X601334D01*
X600001Y18333D01*
Y15667D01*
X601334Y14334D01*
X600001Y27663D02*
Y22332D01*
X604000D01*
X602667Y24997D01*
Y26330D01*
X604000Y27663D01*
X606666D01*
X607999Y26330D01*
Y23665D01*
X606666Y22332D01*
X675999Y338337D02*
X668001D01*
Y342336D01*
X669334Y343668D01*
X672000D01*
X673333Y342336D01*
Y338337D01*
Y341003D02*
X675999Y343668D01*
Y351666D02*
Y346334D01*
X670667Y351666D01*
X669334D01*
X668001Y350333D01*
Y347667D01*
X669334Y346334D01*
X675999Y358330D02*
X668001D01*
X672000Y354332D01*
Y359663D01*
X611999Y339337D02*
X604001D01*
Y343335D01*
X605334Y344668D01*
X608000D01*
X609333Y343335D01*
Y339337D01*
Y342003D02*
X611999Y344668D01*
Y352666D02*
Y347334D01*
X606667Y352666D01*
X605334D01*
X604001Y351333D01*
Y348667D01*
X605334Y347334D01*
Y355332D02*
X604001Y356665D01*
Y359330D01*
X605334Y360663D01*
X606667D01*
X608000Y359330D01*
Y357997D01*
Y359330D01*
X609333Y360663D01*
X610666D01*
X611999Y359330D01*
Y356665D01*
X610666Y355332D01*
X557999Y249337D02*
X550001D01*
Y253335D01*
X551334Y254668D01*
X554000D01*
X555333Y253335D01*
Y249337D01*
Y252003D02*
X557999Y254668D01*
Y262666D02*
Y257334D01*
X552667Y262666D01*
X551334D01*
X550001Y261333D01*
Y258667D01*
X551334Y257334D01*
X557999Y270663D02*
Y265332D01*
X552667Y270663D01*
X551334D01*
X550001Y269330D01*
Y266665D01*
X551334Y265332D01*
X352003Y455001D02*
Y462999D01*
X356002D01*
X357335Y461666D01*
Y459000D01*
X356002Y457667D01*
X352003D01*
X354669D02*
X357335Y455001D01*
X360001D02*
X362667D01*
X361334D01*
Y462999D01*
X360001Y461666D01*
X366665D02*
X367998Y462999D01*
X370664D01*
X371997Y461666D01*
Y460333D01*
X370664Y459000D01*
X371997Y457667D01*
Y456334D01*
X370664Y455001D01*
X367998D01*
X366665Y456334D01*
Y457667D01*
X367998Y459000D01*
X366665Y460333D01*
Y461666D01*
X367998Y459000D02*
X370664D01*
X275003Y35001D02*
Y42999D01*
X279002D01*
X280335Y41666D01*
Y39000D01*
X279002Y37667D01*
X275003D01*
X277669D02*
X280335Y35001D01*
X283001D02*
X285666D01*
X284333D01*
Y42999D01*
X283001Y41666D01*
X293664Y35001D02*
Y42999D01*
X289665Y39000D01*
X294997D01*
X447999Y470003D02*
X440001D01*
Y474002D01*
X441334Y475335D01*
X444000D01*
X445333Y474002D01*
Y470003D01*
Y472669D02*
X447999Y475335D01*
Y478001D02*
Y480667D01*
Y479334D01*
X440001D01*
X441334Y478001D01*
Y484665D02*
X440001Y485998D01*
Y488664D01*
X441334Y489997D01*
X442667D01*
X444000Y488664D01*
Y487331D01*
Y488664D01*
X445333Y489997D01*
X446666D01*
X447999Y488664D01*
Y485998D01*
X446666Y484665D01*
X358999Y101003D02*
X351001D01*
Y105002D01*
X352334Y106335D01*
X355000D01*
X356333Y105002D01*
Y101003D01*
Y103669D02*
X358999Y106335D01*
Y109001D02*
Y111666D01*
Y110334D01*
X351001D01*
X352334Y109001D01*
X358999Y120997D02*
Y115665D01*
X353667Y120997D01*
X352334D01*
X351001Y119664D01*
Y116998D01*
X352334Y115665D01*
X432999Y157336D02*
X425001D01*
Y161335D01*
X426334Y162668D01*
X429000D01*
X430333Y161335D01*
Y157336D01*
Y160002D02*
X432999Y162668D01*
Y165334D02*
Y167999D01*
Y166667D01*
X425001D01*
X426334Y165334D01*
X432999Y171998D02*
Y174664D01*
Y173331D01*
X425001D01*
X426334Y171998D01*
X352003Y476001D02*
Y483999D01*
X356002D01*
X357335Y482666D01*
Y480000D01*
X356002Y478667D01*
X352003D01*
X354669D02*
X357335Y476001D01*
X360001D02*
X362667D01*
X361334D01*
Y483999D01*
X360001Y482666D01*
X366665D02*
X367998Y483999D01*
X370664D01*
X371997Y482666D01*
Y477334D01*
X370664Y476001D01*
X367998D01*
X366665Y477334D01*
Y482666D01*
X413999Y470336D02*
X406001D01*
Y474334D01*
X407334Y475667D01*
X410000D01*
X411333Y474334D01*
Y470336D01*
Y473001D02*
X413999Y475667D01*
X412666Y478333D02*
X413999Y479666D01*
Y482332D01*
X412666Y483665D01*
X407334D01*
X406001Y482332D01*
Y479666D01*
X407334Y478333D01*
X408667D01*
X410000Y479666D01*
Y483665D01*
X323999Y106335D02*
X316001D01*
Y110334D01*
X317334Y111667D01*
X320000D01*
X321333Y110334D01*
Y106335D01*
Y109001D02*
X323999Y111667D01*
X317334Y114333D02*
X316001Y115666D01*
Y118332D01*
X317334Y119664D01*
X318667D01*
X320000Y118332D01*
X321333Y119664D01*
X322666D01*
X323999Y118332D01*
Y115666D01*
X322666Y114333D01*
X321333D01*
X320000Y115666D01*
X318667Y114333D01*
X317334D01*
X320000Y115666D02*
Y118332D01*
X410999Y158336D02*
X403001D01*
Y162334D01*
X404334Y163667D01*
X407000D01*
X408333Y162334D01*
Y158336D01*
Y161001D02*
X410999Y163667D01*
X403001Y166333D02*
Y171665D01*
X404334D01*
X409666Y166333D01*
X410999D01*
X152336Y200001D02*
Y207999D01*
X156334D01*
X157667Y206666D01*
Y204000D01*
X156334Y202667D01*
X152336D01*
X155001D02*
X157667Y200001D01*
X165665Y207999D02*
X162999Y206666D01*
X160333Y204000D01*
Y201334D01*
X161666Y200001D01*
X164332D01*
X165665Y201334D01*
Y202667D01*
X164332Y204000D01*
X160333D01*
X265336Y558001D02*
Y565999D01*
X269334D01*
X270667Y564666D01*
Y562000D01*
X269334Y560667D01*
X265336D01*
X268001D02*
X270667Y558001D01*
X277332D02*
Y565999D01*
X273333Y562000D01*
X278664D01*
X264335Y536001D02*
Y543999D01*
X268334D01*
X269667Y542666D01*
Y540000D01*
X268334Y538667D01*
X264335D01*
X267001D02*
X269667Y536001D01*
X272333Y542666D02*
X273666Y543999D01*
X276332D01*
X277665Y542666D01*
Y541333D01*
X276332Y540000D01*
X274999D01*
X276332D01*
X277665Y538667D01*
Y537334D01*
X276332Y536001D01*
X273666D01*
X272333Y537334D01*
X151335Y183001D02*
Y190999D01*
X155334D01*
X156667Y189666D01*
Y187000D01*
X155334Y185667D01*
X151335D01*
X154001D02*
X156667Y183001D01*
X164664D02*
X159333D01*
X164664Y188333D01*
Y189666D01*
X163332Y190999D01*
X160666D01*
X159333Y189666D01*
X246668Y75001D02*
Y82999D01*
X250667D01*
X252000Y81666D01*
Y79000D01*
X250667Y77667D01*
X246668D01*
X249334D02*
X252000Y75001D01*
X254666D02*
X257332D01*
X255999D01*
Y82999D01*
X254666Y81666D01*
X485668Y476334D02*
Y481666D01*
X484335Y482999D01*
X481669D01*
X480336Y481666D01*
Y476334D01*
X481669Y475001D01*
X484335D01*
X483002Y477667D02*
X485668Y475001D01*
X484335D02*
X485668Y476334D01*
X488334Y475001D02*
X490999D01*
X489666D01*
Y482999D01*
X488334Y481666D01*
X494998Y475001D02*
X497664D01*
X496331D01*
Y482999D01*
X494998Y481666D01*
X17335Y578334D02*
Y583666D01*
X16002Y584999D01*
X13336D01*
X12003Y583666D01*
Y578334D01*
X13336Y577001D01*
X16002D01*
X14669Y579667D02*
X17335Y577001D01*
X16002D02*
X17335Y578334D01*
X20001Y577001D02*
X22666D01*
X21334D01*
Y584999D01*
X20001Y583666D01*
X26665D02*
X27998Y584999D01*
X30664D01*
X31997Y583666D01*
Y578334D01*
X30664Y577001D01*
X27998D01*
X26665Y578334D01*
Y583666D01*
X575450Y597753D02*
Y603085D01*
X574117Y604418D01*
X571452D01*
X570119Y603085D01*
Y597753D01*
X571452Y596420D01*
X574117D01*
X572785Y599086D02*
X575450Y596420D01*
X574117D02*
X575450Y597753D01*
X578116D02*
X579449Y596420D01*
X582115D01*
X583448Y597753D01*
Y603085D01*
X582115Y604418D01*
X579449D01*
X578116Y603085D01*
Y601752D01*
X579449Y600419D01*
X583448D01*
X618667Y46334D02*
Y51666D01*
X617334Y52999D01*
X614668D01*
X613335Y51666D01*
Y46334D01*
X614668Y45001D01*
X617334D01*
X616001Y47667D02*
X618667Y45001D01*
X617334D02*
X618667Y46334D01*
X621333Y51666D02*
X622666Y52999D01*
X625332D01*
X626665Y51666D01*
Y50333D01*
X625332Y49000D01*
X626665Y47667D01*
Y46334D01*
X625332Y45001D01*
X622666D01*
X621333Y46334D01*
Y47667D01*
X622666Y49000D01*
X621333Y50333D01*
Y51666D01*
X622666Y49000D02*
X625332D01*
X172667Y76334D02*
Y81666D01*
X171334Y82999D01*
X168668D01*
X167335Y81666D01*
Y76334D01*
X168668Y75001D01*
X171334D01*
X170001Y77667D02*
X172667Y75001D01*
X171334D02*
X172667Y76334D01*
X175333Y82999D02*
X180665D01*
Y81666D01*
X175333Y76334D01*
Y75001D01*
X535666Y388667D02*
X530334D01*
X529001Y387334D01*
Y384668D01*
X530334Y383335D01*
X535666D01*
X536999Y384668D01*
Y387334D01*
X534333Y386001D02*
X536999Y388667D01*
Y387334D02*
X535666Y388667D01*
X529001Y396665D02*
X530334Y393999D01*
X533000Y391333D01*
X535666D01*
X536999Y392666D01*
Y395332D01*
X535666Y396665D01*
X534333D01*
X533000Y395332D01*
Y391333D01*
X536666Y297667D02*
X531334D01*
X530001Y296334D01*
Y293668D01*
X531334Y292335D01*
X536666D01*
X537999Y293668D01*
Y296334D01*
X535333Y295001D02*
X537999Y297667D01*
Y296334D02*
X536666Y297667D01*
X530001Y305665D02*
Y300333D01*
X534000D01*
X532667Y302999D01*
Y304332D01*
X534000Y305665D01*
X536666D01*
X537999Y304332D01*
Y301666D01*
X536666Y300333D01*
X537666Y207667D02*
X532334D01*
X531001Y206334D01*
Y203668D01*
X532334Y202335D01*
X537666D01*
X538999Y203668D01*
Y206334D01*
X536333Y205001D02*
X538999Y207667D01*
Y206334D02*
X537666Y207667D01*
X538999Y214332D02*
X531001D01*
X535000Y210333D01*
Y215665D01*
X415666Y385667D02*
X410334D01*
X409001Y384334D01*
Y381668D01*
X410334Y380336D01*
X415666D01*
X416999Y381668D01*
Y384334D01*
X414333Y383001D02*
X416999Y385667D01*
Y384334D02*
X415666Y385667D01*
X410334Y388333D02*
X409001Y389666D01*
Y392332D01*
X410334Y393665D01*
X411667D01*
X413000Y392332D01*
Y390999D01*
Y392332D01*
X414333Y393665D01*
X415666D01*
X416999Y392332D01*
Y389666D01*
X415666Y388333D01*
X417666Y297667D02*
X412334D01*
X411001Y296334D01*
Y293668D01*
X412334Y292335D01*
X417666D01*
X418999Y293668D01*
Y296334D01*
X416333Y295001D02*
X418999Y297667D01*
Y296334D02*
X417666Y297667D01*
X418999Y305665D02*
Y300333D01*
X413667Y305665D01*
X412334D01*
X411001Y304332D01*
Y301666D01*
X412334Y300333D01*
X415666Y208000D02*
X410334D01*
X409001Y206667D01*
Y204001D01*
X410334Y202668D01*
X415666D01*
X416999Y204001D01*
Y206667D01*
X414333Y205334D02*
X416999Y208000D01*
Y206667D02*
X415666Y208000D01*
X416999Y210666D02*
Y213332D01*
Y211999D01*
X409001D01*
X410334Y210666D01*
X638338Y586999D02*
Y579001D01*
X643670D01*
X651667Y586999D02*
X646336D01*
Y579001D01*
X651667D01*
X646336Y583000D02*
X649001D01*
X654333Y586999D02*
Y579001D01*
X658332D01*
X659665Y580334D01*
Y585666D01*
X658332Y586999D01*
X654333D01*
X667662D02*
X662330D01*
Y583000D01*
X664996Y584333D01*
X666329D01*
X667662Y583000D01*
Y580334D01*
X666329Y579001D01*
X663663D01*
X662330Y580334D01*
X108338Y645999D02*
Y638001D01*
X113670D01*
X121667Y645999D02*
X116335D01*
Y638001D01*
X121667D01*
X116335Y642000D02*
X119001D01*
X124333Y645999D02*
Y638001D01*
X128332D01*
X129664Y639334D01*
Y644666D01*
X128332Y645999D01*
X124333D01*
X136329Y638001D02*
Y645999D01*
X132330Y642000D01*
X137662D01*
X618338Y-1001D02*
Y-8999D01*
X623670D01*
X631667Y-1001D02*
X626335D01*
Y-8999D01*
X631667D01*
X626335Y-5000D02*
X629001D01*
X634333Y-1001D02*
Y-8999D01*
X638332D01*
X639664Y-7666D01*
Y-2334D01*
X638332Y-1001D01*
X634333D01*
X642330Y-2334D02*
X643663Y-1001D01*
X646329D01*
X647662Y-2334D01*
Y-3667D01*
X646329Y-5000D01*
X644996D01*
X646329D01*
X647662Y-6333D01*
Y-7666D01*
X646329Y-8999D01*
X643663D01*
X642330Y-7666D01*
X121338Y-62001D02*
Y-69999D01*
X126670D01*
X134667Y-62001D02*
X129335D01*
Y-69999D01*
X134667D01*
X129335Y-66000D02*
X132001D01*
X137333Y-62001D02*
Y-69999D01*
X141332D01*
X142664Y-68666D01*
Y-63334D01*
X141332Y-62001D01*
X137333D01*
X150662Y-69999D02*
X145330D01*
X150662Y-64667D01*
Y-63334D01*
X149329Y-62001D01*
X146663D01*
X145330Y-63334D01*
X291671Y88999D02*
Y81001D01*
X297003D01*
X305000Y88999D02*
X299668D01*
Y81001D01*
X305000D01*
X299668Y85000D02*
X302334D01*
X307666Y88999D02*
Y81001D01*
X311665D01*
X312997Y82334D01*
Y87666D01*
X311665Y88999D01*
X307666D01*
X315663Y81001D02*
X318329D01*
X316996D01*
Y88999D01*
X315663Y87666D01*
X-13999Y403668D02*
Y401002D01*
Y402335D01*
X-7334D01*
X-6001Y401002D01*
Y399669D01*
X-7334Y398336D01*
X-6001Y406334D02*
Y408999D01*
Y407667D01*
X-13999D01*
X-12666Y406334D01*
X-6001Y412998D02*
Y415664D01*
Y414331D01*
X-13999D01*
X-12666Y412998D01*
X171844Y9804D02*
X169179D01*
X170511D01*
Y3139D01*
X169179Y1806D01*
X167846D01*
X166513Y3139D01*
X174510Y1806D02*
X177176D01*
X175843D01*
Y9804D01*
X174510Y8471D01*
X181175D02*
X182507Y9804D01*
X185173D01*
X186506Y8471D01*
Y3139D01*
X185173Y1806D01*
X182507D01*
X181175Y3139D01*
Y8471D01*
X157001Y414667D02*
Y412001D01*
Y413334D01*
X163666D01*
X164999Y412001D01*
Y410668D01*
X163666Y409336D01*
Y417333D02*
X164999Y418666D01*
Y421332D01*
X163666Y422664D01*
X158334D01*
X157001Y421332D01*
Y418666D01*
X158334Y417333D01*
X159667D01*
X161000Y418666D01*
Y422664D01*
X86667Y146999D02*
X84001D01*
X85334D01*
Y140334D01*
X84001Y139001D01*
X82668D01*
X81335Y140334D01*
X89333Y145666D02*
X90666Y146999D01*
X93332D01*
X94664Y145666D01*
Y144333D01*
X93332Y143000D01*
X94664Y141667D01*
Y140334D01*
X93332Y139001D01*
X90666D01*
X89333Y140334D01*
Y141667D01*
X90666Y143000D01*
X89333Y144333D01*
Y145666D01*
X90666Y143000D02*
X93332D01*
X5001Y-21333D02*
Y-23999D01*
Y-22666D01*
X11666D01*
X12999Y-23999D01*
Y-25332D01*
X11666Y-26665D01*
X5001Y-18667D02*
Y-13335D01*
X6334D01*
X11666Y-18667D01*
X12999D01*
X92667Y65999D02*
X90001D01*
X91334D01*
Y59334D01*
X90001Y58001D01*
X88668D01*
X87336Y59334D01*
X100665Y65999D02*
X97999Y64666D01*
X95333Y62000D01*
Y59334D01*
X96666Y58001D01*
X99332D01*
X100665Y59334D01*
Y60667D01*
X99332Y62000D01*
X95333D01*
X361667Y8999D02*
X359001D01*
X360334D01*
Y2334D01*
X359001Y1001D01*
X357668D01*
X356335Y2334D01*
X369664Y8999D02*
X364333D01*
Y5000D01*
X366999Y6333D01*
X368332D01*
X369664Y5000D01*
Y2334D01*
X368332Y1001D01*
X365666D01*
X364333Y2334D01*
X8667Y628999D02*
X6001D01*
X7334D01*
Y622334D01*
X6001Y621001D01*
X4668D01*
X3336Y622334D01*
X15332Y621001D02*
Y628999D01*
X11333Y625000D01*
X16665D01*
X667667Y623999D02*
X665001D01*
X666334D01*
Y617334D01*
X665001Y616001D01*
X663668D01*
X662336Y617334D01*
X670333Y622666D02*
X671666Y623999D01*
X674332D01*
X675665Y622666D01*
Y621333D01*
X674332Y620000D01*
X672999D01*
X674332D01*
X675665Y618667D01*
Y617334D01*
X674332Y616001D01*
X671666D01*
X670333Y617334D01*
X631667Y-32001D02*
X629001D01*
X630334D01*
Y-38666D01*
X629001Y-39999D01*
X627668D01*
X626335Y-38666D01*
X639664Y-39999D02*
X634333D01*
X639664Y-34667D01*
Y-33334D01*
X638332Y-32001D01*
X635666D01*
X634333Y-33334D01*
X36000Y-47001D02*
X33334D01*
X34667D01*
Y-53666D01*
X33334Y-54999D01*
X32001D01*
X30668Y-53666D01*
X38666Y-54999D02*
X41332D01*
X39999D01*
Y-47001D01*
X38666Y-48334D01*
X-2664Y685999D02*
Y678001D01*
X1334D01*
X2667Y679334D01*
Y684666D01*
X1334Y685999D01*
X-2664D01*
X5333Y684666D02*
X6666Y685999D01*
X9332D01*
X10664Y684666D01*
Y683333D01*
X9332Y682000D01*
X10664Y680667D01*
Y679334D01*
X9332Y678001D01*
X6666D01*
X5333Y679334D01*
Y680667D01*
X6666Y682000D01*
X5333Y683333D01*
Y684666D01*
X6666Y682000D02*
X9332D01*
X679335Y687999D02*
Y680001D01*
X683334D01*
X684667Y681334D01*
Y686666D01*
X683334Y687999D01*
X679335D01*
X687333D02*
X692664D01*
Y686666D01*
X687333Y681334D01*
Y680001D01*
X630336Y-93001D02*
Y-100999D01*
X634334D01*
X635667Y-99666D01*
Y-94334D01*
X634334Y-93001D01*
X630336D01*
X643664D02*
X640999Y-94334D01*
X638333Y-97000D01*
Y-99666D01*
X639666Y-100999D01*
X642332D01*
X643664Y-99666D01*
Y-98333D01*
X642332Y-97000D01*
X638333D01*
X24335Y-100001D02*
Y-107999D01*
X28334D01*
X29667Y-106666D01*
Y-101334D01*
X28334Y-100001D01*
X24335D01*
X37664D02*
X32333D01*
Y-104000D01*
X34999Y-102667D01*
X36332D01*
X37664Y-104000D01*
Y-106666D01*
X36332Y-107999D01*
X33666D01*
X32333Y-106666D01*
X575336Y506999D02*
Y499001D01*
X579334D01*
X580667Y500334D01*
Y505666D01*
X579334Y506999D01*
X575336D01*
X587332Y499001D02*
Y506999D01*
X583333Y503000D01*
X588665D01*
X356003Y441999D02*
X354670Y443332D01*
X352004D01*
X350671Y441999D01*
Y436667D01*
X352004Y435334D01*
X354670D01*
X356003Y436667D01*
X360001Y440666D02*
X362667D01*
X364000Y439333D01*
Y435334D01*
X360001D01*
X358668Y436667D01*
X360001Y438000D01*
X364000D01*
X371997Y443332D02*
Y435334D01*
X367999D01*
X366666Y436667D01*
Y439333D01*
X367999Y440666D01*
X371997D01*
X374663Y432668D02*
X375996D01*
X377329Y434001D01*
Y440666D01*
X562334Y134335D02*
X561001Y133002D01*
Y130336D01*
X562334Y129003D01*
X567666D01*
X568999Y130336D01*
Y133002D01*
X567666Y134335D01*
X568999Y137001D02*
Y139666D01*
Y138334D01*
X561001D01*
X562334Y137001D01*
X567666Y143665D02*
X568999Y144998D01*
Y147664D01*
X567666Y148997D01*
X562334D01*
X561001Y147664D01*
Y144998D01*
X562334Y143665D01*
X563667D01*
X565000Y144998D01*
Y148997D01*
X310334Y375335D02*
X309001Y374002D01*
Y371336D01*
X310334Y370003D01*
X315666D01*
X316999Y371336D01*
Y374002D01*
X315666Y375335D01*
X316999Y378001D02*
Y380667D01*
Y379334D01*
X309001D01*
X310334Y378001D01*
X316999Y388664D02*
X309001D01*
X313000Y384665D01*
Y389997D01*
X310334Y285335D02*
X309001Y284002D01*
Y281336D01*
X310334Y280003D01*
X315666D01*
X316999Y281336D01*
Y284002D01*
X315666Y285335D01*
X316999Y288001D02*
Y290667D01*
Y289334D01*
X309001D01*
X310334Y288001D01*
Y294665D02*
X309001Y295998D01*
Y298664D01*
X310334Y299997D01*
X311667D01*
X313000Y298664D01*
Y297331D01*
Y298664D01*
X314333Y299997D01*
X315666D01*
X316999Y298664D01*
Y295998D01*
X315666Y294665D01*
X357335Y502666D02*
X356002Y503999D01*
X353336D01*
X352003Y502666D01*
Y497334D01*
X353336Y496001D01*
X356002D01*
X357335Y497334D01*
X360001Y496001D02*
X362667D01*
X361334D01*
Y503999D01*
X360001Y502666D01*
X371997Y496001D02*
X366665D01*
X371997Y501333D01*
Y502666D01*
X370664Y503999D01*
X367998D01*
X366665Y502666D01*
X309334Y196668D02*
X308001Y195335D01*
Y192669D01*
X309334Y191336D01*
X314666D01*
X315999Y192669D01*
Y195335D01*
X314666Y196668D01*
X315999Y199334D02*
Y201999D01*
Y200667D01*
X308001D01*
X309334Y199334D01*
X315999Y205998D02*
Y208664D01*
Y207331D01*
X308001D01*
X309334Y205998D01*
X457334Y475335D02*
X456001Y474002D01*
Y471336D01*
X457334Y470003D01*
X462666D01*
X463999Y471336D01*
Y474002D01*
X462666Y475335D01*
X463999Y478001D02*
Y480667D01*
Y479334D01*
X456001D01*
X457334Y478001D01*
Y484665D02*
X456001Y485998D01*
Y488664D01*
X457334Y489997D01*
X462666D01*
X463999Y488664D01*
Y485998D01*
X462666Y484665D01*
X457334D01*
X368334Y111667D02*
X367001Y110334D01*
Y107668D01*
X368334Y106335D01*
X373666D01*
X374999Y107668D01*
Y110334D01*
X373666Y111667D01*
Y114333D02*
X374999Y115666D01*
Y118332D01*
X373666Y119664D01*
X368334D01*
X367001Y118332D01*
Y115666D01*
X368334Y114333D01*
X369667D01*
X371000Y115666D01*
Y119664D01*
X443334Y163667D02*
X442001Y162334D01*
Y159668D01*
X443334Y158336D01*
X448666D01*
X449999Y159668D01*
Y162334D01*
X448666Y163667D01*
X443334Y166333D02*
X442001Y167666D01*
Y170332D01*
X443334Y171665D01*
X444667D01*
X446000Y170332D01*
X447333Y171665D01*
X448666D01*
X449999Y170332D01*
Y167666D01*
X448666Y166333D01*
X447333D01*
X446000Y167666D01*
X444667Y166333D01*
X443334D01*
X446000Y167666D02*
Y170332D01*
X421334Y475667D02*
X420001Y474334D01*
Y471668D01*
X421334Y470336D01*
X426666D01*
X427999Y471668D01*
Y474334D01*
X426666Y475667D01*
X420001Y478333D02*
Y483665D01*
X421334D01*
X426666Y478333D01*
X427999D01*
X332334Y111667D02*
X331001Y110334D01*
Y107668D01*
X332334Y106335D01*
X337666D01*
X338999Y107668D01*
Y110334D01*
X337666Y111667D01*
X331001Y119664D02*
X332334Y116999D01*
X335000Y114333D01*
X337666D01*
X338999Y115666D01*
Y118332D01*
X337666Y119664D01*
X336333D01*
X335000Y118332D01*
Y114333D01*
X389334Y163667D02*
X388001Y162334D01*
Y159668D01*
X389334Y158336D01*
X394666D01*
X395999Y159668D01*
Y162334D01*
X394666Y163667D01*
X388001Y171665D02*
Y166333D01*
X392000D01*
X390667Y168999D01*
Y170332D01*
X392000Y171665D01*
X394666D01*
X395999Y170332D01*
Y167666D01*
X394666Y166333D01*
X157667Y221666D02*
X156334Y222999D01*
X153668D01*
X152336Y221666D01*
Y216334D01*
X153668Y215001D01*
X156334D01*
X157667Y216334D01*
X164332Y215001D02*
Y222999D01*
X160333Y219000D01*
X165665D01*
X480667Y607666D02*
X479334Y608999D01*
X476668D01*
X475336Y607666D01*
Y602334D01*
X476668Y601001D01*
X479334D01*
X480667Y602334D01*
X483333Y607666D02*
X484666Y608999D01*
X487332D01*
X488665Y607666D01*
Y606333D01*
X487332Y605000D01*
X485999D01*
X487332D01*
X488665Y603667D01*
Y602334D01*
X487332Y601001D01*
X484666D01*
X483333Y602334D01*
X324334Y561667D02*
X323001Y560334D01*
Y557668D01*
X324334Y556335D01*
X329666D01*
X330999Y557668D01*
Y560334D01*
X329666Y561667D01*
X330999Y569664D02*
Y564333D01*
X325667Y569664D01*
X324334D01*
X323001Y568332D01*
Y565666D01*
X324334Y564333D01*
X325334Y533000D02*
X324001Y531667D01*
Y529001D01*
X325334Y527668D01*
X330666D01*
X331999Y529001D01*
Y531667D01*
X330666Y533000D01*
X331999Y535666D02*
Y538332D01*
Y536999D01*
X324001D01*
X325334Y535666D01*
D15*
X581410Y536477D02*
Y543910D01*
X568590Y536477D02*
Y543910D01*
X581410D01*
X568590Y516090D02*
X581410D01*
Y523523D01*
X568590Y516090D02*
Y523523D01*
X588590Y516090D02*
Y523523D01*
X601410Y516090D02*
Y523523D01*
X588590Y516090D02*
X601410D01*
X588590Y543910D02*
X601410D01*
X588590Y536477D02*
Y543910D01*
X601410Y536477D02*
Y543910D01*
X316410Y523523D02*
Y543910D01*
X303590Y523523D02*
Y543910D01*
X316410D01*
X303590Y516090D02*
X316410D01*
Y523523D01*
X303590Y516090D02*
Y523523D01*
X541477Y454590D02*
X548910D01*
X541477Y467410D02*
X548910D01*
Y454590D02*
Y467410D01*
X521090Y454590D02*
Y467410D01*
Y454590D02*
X528523D01*
X521090Y467410D02*
X528523D01*
X521090Y449410D02*
X528523D01*
X521090Y436590D02*
X528523D01*
X521090D02*
Y449410D01*
X548910Y436590D02*
Y449410D01*
X541477D02*
X548910D01*
X541477Y436590D02*
X548910D01*
X466410Y443523D02*
Y463910D01*
X453590Y443523D02*
Y463910D01*
X466410D01*
X453590Y436090D02*
X466410D01*
Y443523D01*
X453590Y436090D02*
Y443523D01*
X438590Y436090D02*
Y443523D01*
X451410Y436090D02*
Y443523D01*
X438590Y436090D02*
X451410D01*
X438590Y463910D02*
X451410D01*
X438590Y456477D02*
Y463910D01*
X451410Y456477D02*
Y463910D01*
X431410Y443523D02*
Y463910D01*
X418590Y443523D02*
Y463910D01*
X431410D01*
X418590Y436090D02*
X431410D01*
Y443523D01*
X418590Y436090D02*
Y443523D01*
X403590Y436090D02*
Y443523D01*
X416410Y436090D02*
Y443523D01*
X403590Y436090D02*
X416410D01*
X403590Y463910D02*
X416410D01*
X403590Y456477D02*
Y463910D01*
X416410Y456477D02*
Y463910D01*
X316090Y446410D02*
X336477D01*
X316090Y433590D02*
X336477D01*
X316090D02*
Y446410D01*
X343910Y433590D02*
Y446410D01*
X336477D02*
X343910D01*
X336477Y433590D02*
X343910D01*
X336477Y453590D02*
X343910D01*
X336477Y466410D02*
X343910D01*
Y453590D02*
Y466410D01*
X316090Y453590D02*
Y466410D01*
Y453590D02*
X323523D01*
X316090Y466410D02*
X323523D01*
X316090Y486410D02*
X323523D01*
X316090Y473590D02*
X323523D01*
X316090D02*
Y486410D01*
X343910Y473590D02*
Y486410D01*
X336477D02*
X343910D01*
X336477Y473590D02*
X343910D01*
X169090Y193410D02*
X176523D01*
X169090Y180590D02*
X176523D01*
X169090D02*
Y193410D01*
X196910Y180590D02*
Y193410D01*
X189477D02*
X196910D01*
X189477Y180590D02*
X196910D01*
X189477Y198590D02*
X196910D01*
X189477Y211410D02*
X196910D01*
Y198590D02*
Y211410D01*
X169090Y198590D02*
Y211410D01*
Y198590D02*
X176523D01*
X169090Y211410D02*
X176523D01*
X169090Y226410D02*
X189477D01*
X169090Y213590D02*
X189477D01*
X169090D02*
Y226410D01*
X196910Y213590D02*
Y226410D01*
X189477D02*
X196910D01*
X189477Y213590D02*
X196910D01*
X306410Y373523D02*
Y393910D01*
X293590Y373523D02*
Y393910D01*
X306410D01*
X293590Y366090D02*
X306410D01*
Y373523D01*
X293590Y366090D02*
Y373523D01*
X306410Y356477D02*
Y363910D01*
X293590Y356477D02*
Y363910D01*
X306410D01*
X293590Y336090D02*
X306410D01*
Y343523D01*
X293590Y336090D02*
Y343523D01*
X306410Y326477D02*
Y333910D01*
X293590Y326477D02*
Y333910D01*
X306410D01*
X293590Y306090D02*
X306410D01*
Y313523D01*
X293590Y306090D02*
Y313523D01*
X306410Y283523D02*
Y303910D01*
X293590Y283523D02*
Y303910D01*
X306410D01*
X293590Y276090D02*
X306410D01*
Y283523D01*
X293590Y276090D02*
Y283523D01*
X306410Y266477D02*
Y273910D01*
X293590Y266477D02*
Y273910D01*
X306410D01*
X293590Y246090D02*
X306410D01*
Y253523D01*
X293590Y246090D02*
Y253523D01*
X306410Y236477D02*
Y243910D01*
X293590Y236477D02*
Y243910D01*
X306410D01*
X293590Y216090D02*
X306410D01*
Y223523D01*
X293590Y216090D02*
Y223523D01*
X306410Y193523D02*
Y213910D01*
X293590Y193523D02*
Y213910D01*
X306410D01*
X293590Y186090D02*
X306410D01*
Y193523D01*
X293590Y186090D02*
Y193523D01*
X306410Y176477D02*
Y183910D01*
X293590Y176477D02*
Y183910D01*
X306410D01*
X293590Y156090D02*
X306410D01*
Y163523D01*
X293590Y156090D02*
Y163523D01*
X306410Y146477D02*
Y153910D01*
X293590Y146477D02*
Y153910D01*
X306410D01*
X293590Y126090D02*
X306410D01*
Y133523D01*
X293590Y126090D02*
Y133523D01*
X313590Y126090D02*
Y133523D01*
X326410Y126090D02*
Y133523D01*
X313590Y126090D02*
X326410D01*
X313590Y153910D02*
X326410D01*
X313590Y146477D02*
Y153910D01*
X326410Y146477D02*
Y153910D01*
X341410Y133523D02*
Y153910D01*
X328590Y133523D02*
Y153910D01*
X341410D01*
X328590Y126090D02*
X341410D01*
Y133523D01*
X328590Y126090D02*
Y133523D01*
X376410Y133523D02*
Y153910D01*
X363590Y133523D02*
Y153910D01*
X376410D01*
X363590Y126090D02*
X376410D01*
Y133523D01*
X363590Y126090D02*
Y133523D01*
X348590Y126090D02*
Y133523D01*
X361410Y126090D02*
Y133523D01*
X348590Y126090D02*
X361410D01*
X348590Y153910D02*
X361410D01*
X348590Y146477D02*
Y153910D01*
X361410Y146477D02*
Y153910D01*
X398410Y133523D02*
Y153910D01*
X385590Y133523D02*
Y153910D01*
X398410D01*
X385590Y126090D02*
X398410D01*
Y133523D01*
X385590Y126090D02*
Y133523D01*
X400590Y126090D02*
Y133523D01*
X413410Y126090D02*
Y133523D01*
X400590Y126090D02*
X413410D01*
X400590Y153910D02*
X413410D01*
X400590Y146477D02*
Y153910D01*
X413410Y146477D02*
Y153910D01*
X436410Y146477D02*
Y153910D01*
X423590Y146477D02*
Y153910D01*
X436410D01*
X423590Y126090D02*
X436410D01*
Y133523D01*
X423590Y126090D02*
Y133523D01*
X438590Y126090D02*
Y146477D01*
X451410Y126090D02*
Y146477D01*
X438590Y126090D02*
X451410D01*
X438590Y153910D02*
X451410D01*
X438590Y146477D02*
Y153910D01*
X451410Y146477D02*
Y153910D01*
X476410Y146477D02*
Y153910D01*
X463590Y146477D02*
Y153910D01*
X476410D01*
X463590Y126090D02*
X476410D01*
Y133523D01*
X463590Y126090D02*
Y133523D01*
X496410Y146477D02*
Y153910D01*
X483590Y146477D02*
Y153910D01*
X496410D01*
X483590Y126090D02*
X496410D01*
Y133523D01*
X483590Y126090D02*
Y133523D01*
X503590Y126090D02*
Y133523D01*
X516410Y126090D02*
Y133523D01*
X503590Y126090D02*
X516410D01*
X503590Y153910D02*
X516410D01*
X503590Y146477D02*
Y153910D01*
X516410Y146477D02*
Y153910D01*
X523590Y126090D02*
Y133523D01*
X536410Y126090D02*
Y133523D01*
X523590Y126090D02*
X536410D01*
X523590Y153910D02*
X536410D01*
X523590Y146477D02*
Y153910D01*
X536410Y146477D02*
Y153910D01*
X543090Y121590D02*
Y146477D01*
Y121590D02*
X556910D01*
Y146477D01*
X543090D02*
Y158410D01*
X556910D01*
Y146477D02*
Y158410D01*
X556477Y53590D02*
X563910D01*
X556477Y66410D02*
X563910D01*
Y53590D02*
Y66410D01*
X536090Y53590D02*
Y66410D01*
Y53590D02*
X543523D01*
X536090Y66410D02*
X543523D01*
X536090Y106410D02*
X543523D01*
X536090Y93590D02*
X543523D01*
X536090D02*
Y106410D01*
X563910Y93590D02*
Y106410D01*
X556477D02*
X563910D01*
X556477Y93590D02*
X563910D01*
X536090Y86410D02*
X543523D01*
X536090Y73590D02*
X543523D01*
X536090D02*
Y86410D01*
X563910Y73590D02*
Y86410D01*
X556477D02*
X563910D01*
X556477Y73590D02*
X563910D01*
X596477Y93590D02*
X603910D01*
X596477Y106410D02*
X603910D01*
Y93590D02*
Y106410D01*
X576090Y93590D02*
Y106410D01*
Y93590D02*
X583523D01*
X576090Y106410D02*
X583523D01*
X596477Y73590D02*
X603910D01*
X596477Y86410D02*
X603910D01*
Y73590D02*
Y86410D01*
X576090Y73590D02*
Y86410D01*
Y73590D02*
X583523D01*
X576090Y86410D02*
X583523D01*
X446410Y26477D02*
Y33910D01*
X433590Y26477D02*
Y33910D01*
X446410D01*
X433590Y6090D02*
X446410D01*
Y13523D01*
X433590Y6090D02*
Y13523D01*
X453590Y6090D02*
Y13523D01*
X466410Y6090D02*
Y13523D01*
X453590Y6090D02*
X466410D01*
X453590Y33910D02*
X466410D01*
X453590Y26477D02*
Y33910D01*
X466410Y26477D02*
Y33910D01*
X473590Y6090D02*
Y13523D01*
X486410Y6090D02*
Y13523D01*
X473590Y6090D02*
X486410D01*
X473590Y33910D02*
X486410D01*
X473590Y26477D02*
Y33910D01*
X486410Y26477D02*
Y33910D01*
X493590Y6090D02*
Y13523D01*
X506410Y6090D02*
Y13523D01*
X493590Y6090D02*
X506410D01*
X493590Y33910D02*
X506410D01*
X493590Y26477D02*
Y33910D01*
X506410Y26477D02*
Y33910D01*
X513590Y6090D02*
Y13523D01*
X526410Y6090D02*
Y13523D01*
X513590Y6090D02*
X526410D01*
X513590Y33910D02*
X526410D01*
X513590Y26477D02*
Y33910D01*
X526410Y26477D02*
Y33910D01*
X533590Y6090D02*
Y13523D01*
X546410Y6090D02*
Y13523D01*
X533590Y6090D02*
X546410D01*
X533590Y33910D02*
X546410D01*
X533590Y26477D02*
Y33910D01*
X546410Y26477D02*
Y33910D01*
X396090Y103910D02*
X403523D01*
X396090Y91090D02*
X403523D01*
X396090D02*
Y103910D01*
X423910Y91090D02*
Y103910D01*
X416477D02*
X423910D01*
X416477Y91090D02*
X423910D01*
X416477Y71090D02*
X423910D01*
X416477Y83910D02*
X423910D01*
Y71090D02*
Y83910D01*
X396090Y71090D02*
Y83910D01*
Y71090D02*
X403523D01*
X396090Y83910D02*
X403523D01*
X396090Y63910D02*
X403523D01*
X396090Y51090D02*
X403523D01*
X396090D02*
Y63910D01*
X423910Y51090D02*
Y63910D01*
X416477D02*
X423910D01*
X416477Y51090D02*
X423910D01*
X421410Y26477D02*
Y33910D01*
X408590Y26477D02*
Y33910D01*
X421410D01*
X408590Y6090D02*
X421410D01*
Y13523D01*
X408590Y6090D02*
Y13523D01*
X401410Y26477D02*
Y33910D01*
X388590Y26477D02*
Y33910D01*
X401410D01*
X388590Y6090D02*
X401410D01*
Y13523D01*
X388590Y6090D02*
Y13523D01*
X236090Y66410D02*
X243523D01*
X236090Y53590D02*
X243523D01*
X236090D02*
Y66410D01*
X263910Y53590D02*
Y66410D01*
X256477D02*
X263910D01*
X256477Y53590D02*
X263910D01*
X236090Y26410D02*
X243523D01*
X236090Y13590D02*
X243523D01*
X236090D02*
Y26410D01*
X263910Y13590D02*
Y26410D01*
X256477D02*
X263910D01*
X256477Y13590D02*
X263910D01*
X236090Y6410D02*
X243523D01*
X236090Y-6410D02*
X243523D01*
X236090D02*
Y6410D01*
X263910Y-6410D02*
Y6410D01*
X256477D02*
X263910D01*
X256477Y-6410D02*
X263910D01*
X256477Y33590D02*
X263910D01*
X256477Y46410D02*
X263910D01*
Y33590D02*
Y46410D01*
X236090Y33590D02*
Y46410D01*
Y33590D02*
X243523D01*
X236090Y46410D02*
X243523D01*
X201090Y66410D02*
X208523D01*
X201090Y53590D02*
X208523D01*
X201090D02*
Y66410D01*
X228910Y53590D02*
Y66410D01*
X221477D02*
X228910D01*
X221477Y53590D02*
X228910D01*
X201090Y46410D02*
X208523D01*
X201090Y33590D02*
X208523D01*
X201090D02*
Y46410D01*
X228910Y33590D02*
Y46410D01*
X221477D02*
X228910D01*
X221477Y33590D02*
X228910D01*
X36410Y516477D02*
Y523910D01*
X23590Y516477D02*
Y523910D01*
X36410D01*
X23590Y496090D02*
X36410D01*
Y503523D01*
X23590Y496090D02*
Y503523D01*
X16410Y516477D02*
Y523910D01*
X3590Y516477D02*
Y523910D01*
X16410D01*
X3590Y496090D02*
X16410D01*
Y503523D01*
X3590Y496090D02*
Y503523D01*
X316090Y506410D02*
X336477D01*
X316090Y493590D02*
X336477D01*
X316090D02*
Y506410D01*
X343910Y493590D02*
Y506410D01*
X336477D02*
X343910D01*
X336477Y493590D02*
X343910D01*
X296410Y536477D02*
Y543910D01*
X283590Y536477D02*
Y543910D01*
X296410D01*
X283590Y516090D02*
X296410D01*
Y523523D01*
X283590Y516090D02*
Y523523D01*
X303590Y551090D02*
Y571477D01*
X316410Y551090D02*
Y571477D01*
X303590Y551090D02*
X316410D01*
X303590Y578910D02*
X316410D01*
X303590Y571477D02*
Y578910D01*
X316410Y571477D02*
Y578910D01*
X296410Y571477D02*
Y578910D01*
X283590Y571477D02*
Y578910D01*
X296410D01*
X283590Y551090D02*
X296410D01*
Y558523D01*
X283590Y551090D02*
Y558523D01*
D16*
X604750Y295400D02*
X604750Y143000D01*
X605550Y244600D02*
X611900D01*
X679972Y295400D02*
X679972Y143000D01*
X621210D02*
X679972D01*
X611900D02*
Y288250D01*
X605550Y193800D02*
X611900D01*
Y409200D02*
Y503650D01*
X604750Y409200D02*
Y510800D01*
X621210Y409200D02*
X679972D01*
X605550Y460000D02*
X611900D01*
X679972Y409200D02*
Y510800D01*
X303190Y56190D02*
X307000Y60000D01*
X303190Y56190D02*
Y63810D01*
X307000Y60000D01*
Y56190D02*
Y63810D01*
X349200Y588100D02*
X443650D01*
X349200Y595250D02*
X450800D01*
X349200Y520028D02*
Y578790D01*
X400000Y588100D02*
Y594450D01*
X349200Y520028D02*
X450800D01*
D17*
X-68100Y11900D02*
X-8100D01*
X-68100Y37300D02*
X-8100D01*
X-68100Y88100D02*
X-8100D01*
X-68100Y62700D02*
X-8100D01*
D18*
X52864Y317526D02*
X57690D01*
X44482Y292634D02*
X57690D01*
X52864Y267488D02*
X57690D01*
X102394Y221514D02*
Y233706D01*
X127540Y229642D02*
Y233706D01*
X152432Y221768D02*
Y233706D01*
X192564Y272568D02*
X197898D01*
X192564Y297460D02*
X204756D01*
X192564Y322352D02*
X197898D01*
X157512Y366294D02*
Y377978D01*
X132620Y366294D02*
Y371120D01*
X107474Y366294D02*
Y377978D01*
X561500Y508500D02*
Y591500D01*
X521250D02*
X561500D01*
X541500Y488500D02*
X561500Y508500D01*
X458500D02*
Y591500D01*
Y508500D02*
X478500Y488500D01*
X458500Y591500D02*
X498750D01*
X478500Y488500D02*
X498750D01*
X521250D02*
X541500D01*
D19*
X21000Y99000D02*
Y96334D01*
Y97667D01*
X28997D01*
X27664Y99000D01*
X20500Y450500D02*
Y447834D01*
Y449167D01*
X28497D01*
X27164Y450500D01*
X20500Y438504D02*
Y443835D01*
X25832Y438504D01*
X27164D01*
X28497Y439837D01*
Y442503D01*
X27164Y443835D01*
X506418Y-14997D02*
X509084Y-13664D01*
X511750Y-10999D01*
Y-8333D01*
X510417Y-7000D01*
X507751D01*
X506418Y-8333D01*
Y-9666D01*
X507751Y-10999D01*
X511750D01*
X357500Y-7000D02*
X354834D01*
X356167D01*
Y-14997D01*
X357500Y-13664D01*
X158942Y122842D02*
X156276D01*
X157609D01*
Y114845D01*
X158942Y116178D01*
X73598Y114399D02*
X72265Y113067D01*
X69599D01*
X68266Y114399D01*
Y115732D01*
X69599Y117065D01*
X70932D01*
X69599D01*
X68266Y118398D01*
Y119731D01*
X69599Y121064D01*
X72265D01*
X73598Y119731D01*
X30835Y102100D02*
X29503Y103433D01*
Y106099D01*
X30835Y107432D01*
X32168D01*
X33501Y106099D01*
X34834Y107432D01*
X36167D01*
X37500Y106099D01*
Y103433D01*
X36167Y102100D01*
X34834D01*
X33501Y103433D01*
X32168Y102100D01*
X30835D01*
X33501Y103433D02*
Y106099D01*
X63542Y-6642D02*
Y-3976D01*
Y-5309D01*
X55545D01*
X56877Y-6642D01*
X38650Y-4358D02*
Y-9690D01*
X33318Y-4358D01*
X31985D01*
X30653Y-5691D01*
Y-8357D01*
X31985Y-9690D01*
X54503Y104600D02*
Y109932D01*
X55835D01*
X61167Y104600D01*
X62500D01*
X179158Y496642D02*
Y493976D01*
Y495309D01*
X187155D01*
X185823Y496642D01*
X180428Y381137D02*
X188425D01*
X184427Y385136D01*
Y379804D01*
X177500Y-7000D02*
X174834D01*
X176167D01*
Y-14997D01*
X177500Y-13664D01*
X326418Y-14997D02*
X329084Y-13664D01*
X331750Y-10999D01*
Y-8333D01*
X330417Y-7000D01*
X327751D01*
X326418Y-8333D01*
Y-9666D01*
X327751Y-10999D01*
X331750D01*
M02*
