G04*
G04 #@! TF.GenerationSoftware,Altium Limited,Altium Designer,22.4.2 (48)*
G04*
G04 Layer_Color=32896*
%FSLAX44Y44*%
%MOMM*%
G71*
G04*
G04 #@! TF.SameCoordinates,72DCB881-4164-4183-B9F3-641E9368B05D*
G04*
G04*
G04 #@! TF.FilePolarity,Positive*
G04*
G01*
G75*
%ADD10C,0.2000*%
%ADD12C,0.4000*%
%ADD14C,0.2540*%
%ADD15C,0.1778*%
%ADD19C,0.1270*%
%ADD86C,0.5000*%
G36*
X370572Y180000D02*
X294000D01*
Y456860D01*
X370572D01*
Y180000D01*
D02*
G37*
G36*
X388909Y208481D02*
X388897Y208443D01*
X388885Y208393D01*
X388847Y208268D01*
X388784Y208118D01*
X388685Y207931D01*
X388572Y207743D01*
X388410Y207544D01*
X388210Y207344D01*
X388185Y207331D01*
X388160Y207306D01*
X388110Y207281D01*
X388060Y207244D01*
X387985Y207194D01*
X387897Y207131D01*
X387785Y207069D01*
X387660Y206994D01*
X387510Y206919D01*
X387335Y206831D01*
X387147Y206731D01*
X386935Y206619D01*
X386685Y206506D01*
X386423Y206381D01*
X386135Y206244D01*
X377000Y202120D01*
Y208506D01*
X388909D01*
Y208481D01*
D02*
G37*
G36*
X388072Y206131D02*
X388135D01*
X388285Y206081D01*
X388372Y206056D01*
X388447Y206006D01*
X388460D01*
X388485Y205981D01*
X388522Y205944D01*
X388560Y205906D01*
X388610Y205844D01*
X388660Y205769D01*
X388709Y205694D01*
X388747Y205594D01*
X388759Y205581D01*
X388772Y205519D01*
X388797Y205444D01*
X388834Y205319D01*
X388859Y205182D01*
X388885Y205007D01*
X388897Y204807D01*
X388909Y204582D01*
X389234D01*
Y201532D01*
X388909D01*
Y201208D01*
X388897Y201070D01*
X388885Y200908D01*
X388859Y200733D01*
X388822Y200558D01*
X388772Y200395D01*
X388709Y200270D01*
Y200258D01*
X388685Y200245D01*
X388610Y200170D01*
X388485Y200108D01*
X388410Y200083D01*
X388322Y200070D01*
X388310D01*
X388297D01*
X388260D01*
X388210Y200083D01*
X388097Y200108D01*
X387947Y200145D01*
X387935D01*
X387897Y200158D01*
X387835Y200195D01*
X387722Y200233D01*
X387647Y200258D01*
X387572Y200295D01*
X387472Y200333D01*
X387372Y200383D01*
X387247Y200433D01*
X387110Y200483D01*
X386960Y200545D01*
X386785Y200620D01*
X380837Y203170D01*
X386135Y205519D01*
X386148D01*
X386173Y205544D01*
X386223Y205557D01*
X386285Y205594D01*
X386373Y205619D01*
X386460Y205657D01*
X386660Y205744D01*
X386872Y205844D01*
X387085Y205931D01*
X387272Y205994D01*
X387360Y206019D01*
X387422Y206044D01*
X387435D01*
X387472Y206056D01*
X387535Y206081D01*
X387610Y206094D01*
X387797Y206131D01*
X387972Y206144D01*
X387985D01*
X388022D01*
X388072Y206131D01*
D02*
G37*
G36*
X389234Y208506D02*
Y208506D01*
X377000D01*
Y195809D01*
Y201832D01*
X386510Y197746D01*
X386535Y197733D01*
X386585Y197708D01*
X386673Y197671D01*
X386785Y197633D01*
X386922Y197571D01*
X387072Y197496D01*
X387235Y197421D01*
X387410Y197346D01*
X387760Y197184D01*
X387922Y197096D01*
X388085Y197021D01*
X388222Y196946D01*
X388347Y196871D01*
X388447Y196809D01*
X388522Y196759D01*
X388535Y196746D01*
X388572Y196709D01*
X388622Y196646D01*
X388685Y196546D01*
X388747Y196421D01*
X388810Y196259D01*
X388872Y196046D01*
X388904Y195847D01*
X388909Y195809D01*
X389234D01*
Y195259D01*
X388909D01*
Y195234D01*
X388897Y195159D01*
X388885Y195047D01*
X388859Y194897D01*
X388834Y194747D01*
X388784Y194584D01*
X388735Y194422D01*
X388672Y194272D01*
X388660Y194259D01*
X388635Y194197D01*
X388597Y194147D01*
X388560Y194084D01*
X388510Y194022D01*
X388460Y193934D01*
X388385Y193822D01*
X388297Y193710D01*
X388197Y193572D01*
X388085Y193422D01*
X387960Y193247D01*
X387810Y193060D01*
X387647Y192847D01*
X387460Y192622D01*
X384636Y189136D01*
X379374Y193322D01*
X379362Y193335D01*
X379324Y193360D01*
X379274Y193410D01*
X379199Y193472D01*
X379112Y193547D01*
X379012Y193634D01*
X378775Y193847D01*
X378525Y194084D01*
X378275Y194347D01*
X378050Y194609D01*
X377962Y194734D01*
X377875Y194859D01*
X377862Y194884D01*
X377837Y194934D01*
X377787Y195034D01*
X377737Y195159D01*
X377687Y195309D01*
X377637Y195472D01*
X377612Y195659D01*
X377602Y195809D01*
X377600Y195847D01*
X377275D01*
Y195809D01*
Y182000D01*
X377000D01*
Y208506D01*
X389234D01*
D02*
G37*
G36*
X388360Y191910D02*
X388447Y191885D01*
X388522Y191835D01*
X388622Y191772D01*
X388709Y191672D01*
X388784Y191548D01*
Y191535D01*
X388797Y191510D01*
X388810Y191448D01*
X388834Y191360D01*
X388859Y191235D01*
X388872Y191060D01*
X388885Y190960D01*
X388897Y190848D01*
Y190723D01*
X388909Y190585D01*
X389234D01*
Y187948D01*
X388909D01*
Y187848D01*
X388897Y187749D01*
X388885Y187611D01*
X388859Y187461D01*
X388834Y187311D01*
X388784Y187161D01*
X388722Y187036D01*
Y187024D01*
X388697Y186999D01*
X388672Y186949D01*
X388622Y186899D01*
X388572Y186849D01*
X388497Y186786D01*
X388410Y186724D01*
X388310Y186674D01*
X388297D01*
X388260Y186661D01*
X388197Y186636D01*
X388085Y186624D01*
X387935Y186599D01*
X387847Y186586D01*
X387735Y186574D01*
X387622D01*
X387497Y186561D01*
X387347D01*
X387185D01*
X383461D01*
X387048Y191010D01*
X387060Y191023D01*
X387085Y191048D01*
X387122Y191098D01*
X387172Y191160D01*
X387310Y191298D01*
X387485Y191473D01*
X387672Y191647D01*
X387872Y191785D01*
X387972Y191847D01*
X388072Y191898D01*
X388160Y191922D01*
X388247Y191935D01*
X388260D01*
X388310D01*
X388360Y191910D01*
D02*
G37*
G36*
X378175Y190548D02*
X378275Y190523D01*
X378412Y190460D01*
X378500Y190410D01*
X378612Y190360D01*
X378725Y190298D01*
X378850Y190223D01*
X378987Y190123D01*
X379150Y190011D01*
X379312Y189886D01*
X379499Y189748D01*
X382936Y187011D01*
X382574Y186561D01*
X379324D01*
X379312D01*
X379287D01*
X379237D01*
X379174D01*
X379012D01*
X378825Y186574D01*
X378625Y186586D01*
X378425Y186599D01*
X378262Y186624D01*
X378200Y186649D01*
X378150Y186661D01*
X378137D01*
X378112Y186686D01*
X378075Y186711D01*
X378012Y186761D01*
X377962Y186811D01*
X377887Y186886D01*
X377825Y186974D01*
X377762Y187074D01*
X377750Y187086D01*
X377737Y187136D01*
X377712Y187199D01*
X377687Y187311D01*
X377650Y187436D01*
X377625Y187611D01*
X377612Y187811D01*
X377600Y188036D01*
X377275D01*
Y189623D01*
X377600D01*
Y189648D01*
X377612Y189723D01*
X377625Y189823D01*
X377637Y189948D01*
X377662Y190073D01*
X377700Y190198D01*
X377737Y190310D01*
X377775Y190385D01*
X377787Y190398D01*
X377800Y190410D01*
X377862Y190473D01*
X377975Y190535D01*
X378037Y190548D01*
X378100Y190560D01*
X378112D01*
X378175Y190548D01*
D02*
G37*
G36*
X387672Y183675D02*
X387860Y183662D01*
X388047Y183650D01*
X388210Y183625D01*
X388272Y183600D01*
X388322Y183587D01*
X388335D01*
X388360Y183575D01*
X388410Y183550D01*
X388460Y183512D01*
X388522Y183450D01*
X388597Y183387D01*
X388672Y183300D01*
X388735Y183200D01*
X388747Y183187D01*
X388759Y183150D01*
X388784Y183075D01*
X388822Y182987D01*
X388859Y182875D01*
X388885Y182737D01*
X388897Y182575D01*
X388909Y182400D01*
Y182000D01*
X377600D01*
Y182487D01*
X377612Y182587D01*
X377625Y182700D01*
X377637Y182837D01*
X377675Y182975D01*
X377712Y183112D01*
X377775Y183237D01*
X377787Y183250D01*
X377800Y183275D01*
X377825Y183325D01*
X377875Y183375D01*
X377937Y183425D01*
X378012Y183487D01*
X378100Y183550D01*
X378200Y183600D01*
X378212D01*
X378250Y183612D01*
X378312Y183625D01*
X378425Y183650D01*
X378562Y183662D01*
X378662D01*
X378762Y183675D01*
X378887D01*
X379012Y183687D01*
X379162D01*
X379324D01*
X387185D01*
X387197D01*
X387222D01*
X387272D01*
X387335D01*
X387485D01*
X387672Y183675D01*
D02*
G37*
G36*
X414764Y248227D02*
X414745Y248377D01*
Y248545D01*
X414726Y248752D01*
X414689Y248977D01*
X414670Y249258D01*
X414614Y249539D01*
X414558Y249839D01*
X414502Y250176D01*
X414408Y250532D01*
X414220Y251264D01*
X414089Y251638D01*
X413939Y252032D01*
Y252051D01*
X413921Y252088D01*
X413902Y252145D01*
X413864Y252220D01*
X413789Y252444D01*
X413714Y252688D01*
X413620Y252951D01*
X413546Y253194D01*
X413489Y253419D01*
X413471Y253513D01*
Y253663D01*
X413489Y253738D01*
X413508Y253832D01*
X413546Y253944D01*
X413602Y254075D01*
X413677Y254188D01*
X413770Y254319D01*
X413789Y254338D01*
X413827Y254375D01*
X413902Y254431D01*
X414014Y254488D01*
X414145Y254563D01*
X414333Y254619D01*
X414520Y254694D01*
X414764Y254731D01*
Y248227D01*
D02*
G37*
G36*
X408541Y254731D02*
X408559D01*
X408653Y254713D01*
X408765Y254675D01*
X408934Y254619D01*
X409140Y254544D01*
X409365Y254469D01*
X409628Y254356D01*
X409909Y254244D01*
X410209Y254113D01*
X410509Y253944D01*
X410827Y253775D01*
X411127Y253569D01*
X411427Y253344D01*
X411727Y253101D01*
X411990Y252838D01*
X412252Y252557D01*
X412271Y252538D01*
X412308Y252482D01*
X412365Y252388D01*
X412458Y252276D01*
X412552Y252126D01*
X412664Y251938D01*
X412796Y251732D01*
X412908Y251507D01*
X413039Y251264D01*
X413152Y250982D01*
X413264Y250682D01*
X413358Y250364D01*
X413452Y250026D01*
X413508Y249689D01*
X413546Y249333D01*
X413564Y248958D01*
Y248789D01*
X413546Y248677D01*
X413527Y248527D01*
X413508Y248358D01*
X413489Y248171D01*
X413452Y247946D01*
X413321Y247477D01*
X413152Y246952D01*
X413039Y246690D01*
X412908Y246427D01*
X412758Y246146D01*
X412589Y245884D01*
X412571Y245865D01*
X412552Y245827D01*
X412496Y245752D01*
X412421Y245659D01*
X412308Y245546D01*
X412196Y245415D01*
X412065Y245265D01*
X411915Y245096D01*
X411540Y244759D01*
X411109Y244422D01*
X410621Y244103D01*
X410059Y243840D01*
X410040D01*
X409965Y243803D01*
X409853Y243766D01*
X409703Y243709D01*
X409515Y243653D01*
X409309Y243578D01*
X409047Y243503D01*
X408765Y243428D01*
X408447Y243353D01*
X408109Y243278D01*
X407734Y243203D01*
X407341Y243147D01*
X406947Y243091D01*
X406516Y243053D01*
X406066Y243034D01*
X405616Y243016D01*
X405598D01*
X405504D01*
X405391D01*
X405204Y243034D01*
X404998D01*
X404754Y243053D01*
X404473Y243072D01*
X404173Y243091D01*
X403835Y243128D01*
X403498Y243166D01*
X402748Y243278D01*
X401998Y243409D01*
X401230Y243615D01*
X401211D01*
X401136Y243653D01*
X401043Y243672D01*
X400911Y243728D01*
X400743Y243803D01*
X400555Y243878D01*
X400349Y243972D01*
X400124Y244084D01*
X399637Y244347D01*
X399149Y244665D01*
X398662Y245059D01*
X398456Y245284D01*
X398250Y245509D01*
X398231Y245527D01*
X398212Y245565D01*
X398156Y245640D01*
X398100Y245752D01*
X398024Y245884D01*
X397931Y246034D01*
X397837Y246221D01*
X397743Y246427D01*
X397650Y246652D01*
X397556Y246915D01*
X397481Y247196D01*
X397387Y247496D01*
X397331Y247814D01*
X397275Y248152D01*
X397256Y248508D01*
X397237Y248883D01*
Y249052D01*
X397256Y249164D01*
Y249314D01*
X397275Y249483D01*
X397294Y249689D01*
X397331Y249895D01*
X397425Y250382D01*
X397537Y250907D01*
X397725Y251432D01*
X397968Y251976D01*
X397987Y251995D01*
X398006Y252032D01*
X398043Y252126D01*
X398118Y252220D01*
X398193Y252351D01*
X398306Y252501D01*
X398418Y252688D01*
X398568Y252876D01*
X398737Y253082D01*
X398924Y253326D01*
X399131Y253569D01*
X399355Y253832D01*
X399618Y254094D01*
X399899Y254375D01*
X400199Y254656D01*
X400518Y254956D01*
X398980D01*
X398962Y254938D01*
X398906Y254881D01*
X398831Y254806D01*
X398718Y254694D01*
X398587Y254563D01*
X398437Y254394D01*
X398287Y254207D01*
X398100Y254000D01*
X397912Y253757D01*
X397725Y253513D01*
X397350Y252988D01*
X396993Y252407D01*
X396844Y252107D01*
X396694Y251807D01*
Y251788D01*
X396656Y251732D01*
X396637Y251638D01*
X396581Y251526D01*
X396525Y251357D01*
X396469Y251170D01*
X396412Y250964D01*
X396356Y250720D01*
X396281Y250457D01*
X396225Y250158D01*
X396169Y249839D01*
X396113Y249501D01*
X396056Y249145D01*
X396037Y248770D01*
X396000Y247983D01*
Y255256D01*
X408541D01*
Y254731D01*
D02*
G37*
G36*
X410265Y193285D02*
X410546Y193247D01*
X410846Y193191D01*
X411165Y193097D01*
X411502Y192985D01*
X411802Y192816D01*
X411840Y192797D01*
X411934Y192722D01*
X412065Y192628D01*
X412233Y192479D01*
X412421Y192272D01*
X412608Y192047D01*
X412796Y191785D01*
X412965Y191466D01*
Y191448D01*
X412983Y191429D01*
X413002Y191373D01*
X413021Y191298D01*
X413058Y191204D01*
X413096Y191091D01*
X413133Y190960D01*
X413171Y190791D01*
X413189Y190604D01*
X413227Y190398D01*
X413264Y190173D01*
X413302Y189929D01*
X413321Y189648D01*
X413339Y189348D01*
X413358Y189030D01*
Y188673D01*
X406272D01*
Y188973D01*
X406291Y189142D01*
Y189311D01*
X406310Y189517D01*
X406329Y189723D01*
X406366Y190173D01*
X406441Y190642D01*
X406554Y191073D01*
X406610Y191260D01*
X406685Y191448D01*
Y191466D01*
X406704Y191485D01*
X406760Y191598D01*
X406853Y191766D01*
X407004Y191954D01*
X407172Y192179D01*
X407378Y192404D01*
X407622Y192628D01*
X407884Y192816D01*
X407922Y192835D01*
X408016Y192891D01*
X408184Y192966D01*
X408428Y193060D01*
X408709Y193153D01*
X409047Y193228D01*
X409422Y193285D01*
X409853Y193303D01*
X409871D01*
X409909D01*
X409965D01*
X410059D01*
X410265Y193285D01*
D02*
G37*
G36*
X401530Y193772D02*
X401661D01*
X401961Y193734D01*
X402317Y193659D01*
X402692Y193566D01*
X403086Y193435D01*
X403461Y193266D01*
X403479D01*
X403498Y193247D01*
X403629Y193172D01*
X403798Y193041D01*
X404004Y192872D01*
X404229Y192647D01*
X404473Y192385D01*
X404679Y192066D01*
X404848Y191710D01*
Y191691D01*
X404866Y191672D01*
X404885Y191598D01*
X404904Y191523D01*
X404941Y191410D01*
X404979Y191279D01*
X405017Y191129D01*
X405054Y190960D01*
X405073Y190754D01*
X405110Y190529D01*
X405148Y190267D01*
X405185Y190004D01*
X405204Y189704D01*
X405223Y189386D01*
X405241Y189048D01*
Y188673D01*
X399487Y188655D01*
X398831D01*
X398793D01*
X398718D01*
X398587Y188673D01*
X398437Y188692D01*
X398250Y188748D01*
X398081Y188804D01*
X397912Y188898D01*
X397762Y189011D01*
X397743Y189030D01*
X397706Y189086D01*
X397650Y189161D01*
X397593Y189273D01*
X397518Y189423D01*
X397462Y189611D01*
X397425Y189817D01*
X397406Y190061D01*
Y190248D01*
X397425Y190435D01*
X397462Y190698D01*
X397518Y190998D01*
X397612Y191316D01*
X397725Y191635D01*
X397875Y191973D01*
Y191991D01*
X397893Y192010D01*
X397968Y192122D01*
X398062Y192272D01*
X398212Y192479D01*
X398418Y192685D01*
X398643Y192910D01*
X398906Y193135D01*
X399224Y193322D01*
X399243D01*
X399262Y193341D01*
X399318Y193360D01*
X399374Y193397D01*
X399562Y193472D01*
X399805Y193566D01*
X400105Y193641D01*
X400443Y193716D01*
X400818Y193772D01*
X401211Y193791D01*
X401230D01*
X401267D01*
X401342D01*
X401417D01*
X401530Y193772D01*
D02*
G37*
G36*
X414764Y255256D02*
X396000D01*
Y247702D01*
X396019Y247496D01*
X396037Y247252D01*
X396056Y246952D01*
X396094Y246633D01*
X396150Y246277D01*
X396206Y245884D01*
X396281Y245471D01*
X396375Y245059D01*
X396487Y244628D01*
X396619Y244178D01*
X396769Y243747D01*
X396937Y243316D01*
X397144Y242884D01*
X397162Y242866D01*
X397200Y242791D01*
X397256Y242678D01*
X397350Y242509D01*
X397481Y242322D01*
X397612Y242116D01*
X397781Y241872D01*
X397987Y241610D01*
X398212Y241347D01*
X398456Y241066D01*
X398718Y240785D01*
X399018Y240485D01*
X399337Y240204D01*
X399674Y239941D01*
X400049Y239679D01*
X400443Y239435D01*
X400461Y239417D01*
X400536Y239379D01*
X400668Y239323D01*
X400818Y239248D01*
X401024Y239154D01*
X401249Y239060D01*
X401530Y238948D01*
X401830Y238836D01*
X402149Y238723D01*
X402505Y238610D01*
X402898Y238517D01*
X403292Y238423D01*
X403704Y238348D01*
X404136Y238292D01*
X404585Y238254D01*
X405035Y238236D01*
X405279D01*
X405466Y238254D01*
X405710Y238273D01*
X405973Y238311D01*
X406272Y238348D01*
X406610Y238404D01*
X406966Y238479D01*
X407360Y238554D01*
X407753Y238667D01*
X408184Y238798D01*
X408597Y238948D01*
X409047Y239135D01*
X409478Y239342D01*
X409909Y239566D01*
X409928Y239585D01*
X410003Y239623D01*
X410134Y239698D01*
X410284Y239810D01*
X410490Y239941D01*
X410715Y240110D01*
X410959Y240298D01*
X411221Y240522D01*
X411502Y240766D01*
X411802Y241047D01*
X412102Y241347D01*
X412402Y241666D01*
X412683Y242003D01*
X412965Y242378D01*
X413246Y242772D01*
X413489Y243184D01*
X413508Y243203D01*
X413546Y243297D01*
X413602Y243409D01*
X413695Y243578D01*
X413789Y243803D01*
X413902Y244047D01*
X414014Y244328D01*
X414127Y244646D01*
X414239Y245003D01*
X414370Y245378D01*
X414464Y245771D01*
X414558Y246202D01*
X414651Y246633D01*
X414708Y247102D01*
X414745Y247571D01*
X414764Y248039D01*
Y238236D01*
X414764D01*
Y182000D01*
X414352D01*
Y191110D01*
X414333Y191354D01*
X414314Y191654D01*
Y191973D01*
X414277Y192310D01*
X414220Y193022D01*
X414108Y193753D01*
X414052Y194091D01*
X413977Y194409D01*
X413883Y194709D01*
X413789Y194972D01*
Y194990D01*
X413770Y195028D01*
X413733Y195103D01*
X413695Y195178D01*
X413639Y195290D01*
X413564Y195422D01*
X413377Y195703D01*
X413152Y196021D01*
X412871Y196359D01*
X412533Y196696D01*
X412140Y196996D01*
X412121D01*
X412083Y197034D01*
X412027Y197071D01*
X411952Y197109D01*
X411858Y197165D01*
X411727Y197240D01*
X411446Y197371D01*
X411109Y197502D01*
X410715Y197633D01*
X410284Y197708D01*
X409834Y197746D01*
X409815D01*
X409778D01*
X409703D01*
X409609Y197727D01*
X409497Y197708D01*
X409365Y197690D01*
X409047Y197633D01*
X408690Y197521D01*
X408297Y197352D01*
X408109Y197240D01*
X407903Y197109D01*
X407697Y196959D01*
X407510Y196790D01*
X407491Y196771D01*
X407472Y196752D01*
X407416Y196677D01*
X407341Y196602D01*
X407266Y196490D01*
X407153Y196359D01*
X407041Y196209D01*
X406928Y196021D01*
X406797Y195797D01*
X406666Y195553D01*
X406535Y195290D01*
X406404Y194972D01*
X406272Y194653D01*
X406141Y194278D01*
X406010Y193885D01*
X405897Y193453D01*
Y193491D01*
X405879Y193566D01*
X405841Y193697D01*
X405785Y193866D01*
X405729Y194091D01*
X405673Y194316D01*
X405598Y194578D01*
X405504Y194878D01*
X405298Y195459D01*
X405054Y196059D01*
X404923Y196340D01*
X404773Y196621D01*
X404623Y196865D01*
X404473Y197071D01*
X404454Y197090D01*
X404417Y197127D01*
X404342Y197202D01*
X404248Y197315D01*
X404136Y197427D01*
X403985Y197540D01*
X403817Y197690D01*
X403629Y197821D01*
X403404Y197952D01*
X403180Y198102D01*
X402917Y198215D01*
X402636Y198346D01*
X402336Y198440D01*
X402017Y198514D01*
X401699Y198552D01*
X401342Y198571D01*
X401249D01*
X401155Y198552D01*
X401005D01*
X400836Y198514D01*
X400630Y198477D01*
X400405Y198440D01*
X400162Y198365D01*
X399918Y198290D01*
X399637Y198177D01*
X399355Y198046D01*
X399074Y197877D01*
X398793Y197690D01*
X398531Y197484D01*
X398268Y197221D01*
X398006Y196940D01*
X397987Y196921D01*
X397931Y196846D01*
X397856Y196734D01*
X397762Y196565D01*
X397631Y196359D01*
X397500Y196096D01*
X397350Y195815D01*
X397219Y195459D01*
X397068Y195065D01*
X396919Y194634D01*
X396787Y194166D01*
X396656Y193641D01*
X396562Y193078D01*
X396487Y192479D01*
X396431Y191822D01*
X396412Y191129D01*
D01*
Y182000D01*
X396000D01*
Y420570D01*
X414764D01*
Y255256D01*
D02*
G37*
G36*
X411971Y184474D02*
X412290Y184456D01*
X412571Y184418D01*
X412833Y184362D01*
X412946Y184343D01*
X413021Y184306D01*
X413039D01*
X413077Y184268D01*
X413152Y184231D01*
X413246Y184174D01*
X413339Y184081D01*
X413433Y183968D01*
X413527Y183837D01*
X413620Y183687D01*
X413639Y183668D01*
X413658Y183593D01*
X413695Y183481D01*
X413752Y183312D01*
X413789Y183087D01*
X413827Y182787D01*
X413845Y182431D01*
X413864Y182000D01*
X396900D01*
Y182206D01*
X396919Y182412D01*
X396937Y182675D01*
X396956Y182956D01*
X396993Y183237D01*
X397050Y183500D01*
X397087Y183593D01*
X397125Y183687D01*
X397144Y183706D01*
X397162Y183762D01*
X397219Y183837D01*
X397294Y183931D01*
X397481Y184137D01*
X397593Y184231D01*
X397725Y184306D01*
X397743D01*
X397800Y184343D01*
X397912Y184362D01*
X398100Y184399D01*
X398212Y184418D01*
X398343Y184437D01*
X398493Y184456D01*
X398662D01*
X398849Y184474D01*
X399055Y184493D01*
X399299D01*
X399562D01*
X411202D01*
X411221D01*
X411259D01*
X411334D01*
X411427D01*
X411559D01*
X411671D01*
X411971Y184474D01*
D02*
G37*
%LPC*%
G36*
X365492Y451779D02*
X312152D01*
Y449711D01*
X365492D01*
Y451779D01*
D02*
G37*
G36*
Y447644D02*
X312152D01*
Y443509D01*
X365492D01*
Y447644D01*
D02*
G37*
G36*
Y441442D02*
X312152D01*
Y437307D01*
X365492D01*
Y441442D01*
D02*
G37*
G36*
Y435239D02*
X312152D01*
Y433172D01*
X365492D01*
Y435239D01*
D02*
G37*
G36*
X303416Y438339D02*
X303341D01*
X303254Y438326D01*
X303129D01*
X302979Y438314D01*
X302804Y438289D01*
X302604Y438251D01*
X302392Y438214D01*
X302167Y438152D01*
X301917Y438089D01*
X301667Y438002D01*
X301417Y437901D01*
X301167Y437789D01*
X300905Y437652D01*
X300655Y437489D01*
X300417Y437314D01*
X300405Y437302D01*
X300355Y437252D01*
X300280Y437189D01*
X300180Y437089D01*
X300055Y436964D01*
X299930Y436814D01*
X299792Y436639D01*
X299642Y436439D01*
X299492Y436202D01*
X299355Y435952D01*
X299230Y435677D01*
X299105Y435377D01*
X299005Y435052D01*
X298930Y434715D01*
X298880Y434340D01*
X298868Y433952D01*
Y433878D01*
X298880Y433790D01*
Y433665D01*
X298892Y433515D01*
X298918Y433340D01*
X298955Y433153D01*
X298993Y432940D01*
X299042Y432715D01*
X299105Y432490D01*
X299180Y432253D01*
X299280Y432003D01*
X299392Y431766D01*
X299517Y431528D01*
X299667Y431303D01*
X299842Y431091D01*
X299855Y431078D01*
X299892Y431041D01*
X299942Y430991D01*
X300017Y430916D01*
X300117Y430828D01*
X300242Y430741D01*
X300380Y430628D01*
X300530Y430528D01*
X300705Y430416D01*
X300905Y430303D01*
X301117Y430204D01*
X301354Y430103D01*
X301604Y430016D01*
X301867Y429941D01*
X302142Y429879D01*
X302442Y429841D01*
X302579Y431491D01*
X302567D01*
X302529Y431503D01*
X302467Y431516D01*
X302379Y431528D01*
X302279Y431553D01*
X302167Y431578D01*
X301892Y431666D01*
X301604Y431778D01*
X301304Y431916D01*
X301005Y432103D01*
X300879Y432215D01*
X300755Y432328D01*
X300742Y432341D01*
X300730Y432365D01*
X300705Y432403D01*
X300667Y432453D01*
X300617Y432515D01*
X300567Y432590D01*
X300455Y432790D01*
X300342Y433028D01*
X300255Y433303D01*
X300180Y433615D01*
X300167Y433778D01*
X300155Y433952D01*
Y434065D01*
X300167Y434140D01*
X300180Y434240D01*
X300205Y434352D01*
X300230Y434477D01*
X300267Y434615D01*
X300367Y434927D01*
X300430Y435077D01*
X300517Y435240D01*
X300617Y435402D01*
X300730Y435565D01*
X300854Y435727D01*
X301005Y435877D01*
X301017Y435890D01*
X301042Y435914D01*
X301092Y435952D01*
X301167Y436002D01*
X301242Y436064D01*
X301354Y436127D01*
X301479Y436202D01*
X301617Y436277D01*
X301767Y436339D01*
X301942Y436414D01*
X302129Y436477D01*
X302329Y436539D01*
X302542Y436589D01*
X302779Y436627D01*
X303016Y436652D01*
X303279Y436664D01*
X303404D01*
X303504Y436652D01*
X303616Y436639D01*
X303741Y436627D01*
X303891Y436602D01*
X304054Y436564D01*
X304391Y436477D01*
X304566Y436414D01*
X304741Y436339D01*
X304916Y436252D01*
X305091Y436152D01*
X305253Y436040D01*
X305403Y435902D01*
X305416Y435890D01*
X305441Y435865D01*
X305478Y435827D01*
X305528Y435765D01*
X305591Y435690D01*
X305653Y435602D01*
X305728Y435490D01*
X305803Y435377D01*
X305866Y435240D01*
X305941Y435090D01*
X306003Y434927D01*
X306066Y434752D01*
X306116Y434552D01*
X306153Y434352D01*
X306178Y434140D01*
X306191Y433915D01*
Y433790D01*
X306178Y433715D01*
Y433640D01*
X306153Y433453D01*
X306103Y433240D01*
X306041Y433015D01*
X305953Y432778D01*
X305841Y432540D01*
Y432528D01*
X305828Y432515D01*
X305778Y432440D01*
X305703Y432328D01*
X305603Y432203D01*
X305466Y432040D01*
X305316Y431891D01*
X305141Y431728D01*
X304953Y431591D01*
X305141Y430116D01*
X311727Y431353D01*
Y437739D01*
X310227D01*
Y432603D01*
X306765Y431916D01*
X306778Y431928D01*
X306803Y431966D01*
X306840Y432028D01*
X306891Y432116D01*
X306953Y432215D01*
X307028Y432353D01*
X307090Y432490D01*
X307178Y432653D01*
X307253Y432828D01*
X307315Y433015D01*
X307453Y433428D01*
X307503Y433640D01*
X307540Y433865D01*
X307565Y434103D01*
X307578Y434340D01*
Y434415D01*
X307565Y434502D01*
Y434627D01*
X307540Y434765D01*
X307515Y434940D01*
X307478Y435127D01*
X307428Y435327D01*
X307365Y435540D01*
X307290Y435777D01*
X307203Y436015D01*
X307090Y436252D01*
X306953Y436489D01*
X306803Y436727D01*
X306616Y436952D01*
X306416Y437177D01*
X306403Y437189D01*
X306366Y437227D01*
X306291Y437289D01*
X306203Y437364D01*
X306091Y437452D01*
X305953Y437539D01*
X305791Y437652D01*
X305603Y437764D01*
X305403Y437864D01*
X305178Y437976D01*
X304928Y438064D01*
X304666Y438164D01*
X304379Y438227D01*
X304079Y438289D01*
X303754Y438326D01*
X303416Y438339D01*
D02*
G37*
G36*
X365492Y429037D02*
X312152D01*
Y426970D01*
X365492D01*
Y429037D01*
D02*
G37*
G36*
Y424902D02*
X312152D01*
Y422835D01*
X365492D01*
Y424902D01*
D02*
G37*
G36*
Y420767D02*
X312152D01*
Y418700D01*
X365492D01*
Y420767D01*
D02*
G37*
G36*
Y416632D02*
X312152D01*
Y412498D01*
X365492D01*
Y416632D01*
D02*
G37*
G36*
Y408363D02*
X312152D01*
Y406295D01*
X365492D01*
Y408363D01*
D02*
G37*
G36*
Y404228D02*
X312152D01*
Y400093D01*
X365492D01*
Y404228D01*
D02*
G37*
G36*
X305741Y404851D02*
X305178D01*
X305016Y404839D01*
X304828D01*
X304604Y404827D01*
X304366Y404814D01*
X304091Y404789D01*
X303804Y404764D01*
X303516Y404739D01*
X302904Y404651D01*
X302304Y404539D01*
X302029Y404464D01*
X301754Y404377D01*
X301742D01*
X301692Y404352D01*
X301617Y404327D01*
X301529Y404289D01*
X301404Y404239D01*
X301279Y404177D01*
X301129Y404114D01*
X300967Y404027D01*
X300630Y403839D01*
X300267Y403602D01*
X299930Y403314D01*
X299767Y403152D01*
X299617Y402989D01*
X299605Y402977D01*
X299580Y402952D01*
X299542Y402902D01*
X299505Y402827D01*
X299442Y402739D01*
X299380Y402627D01*
X299317Y402502D01*
X299242Y402365D01*
X299167Y402202D01*
X299105Y402027D01*
X299042Y401840D01*
X298980Y401627D01*
X298943Y401415D01*
X298905Y401177D01*
X298880Y400940D01*
X298868Y400677D01*
Y400590D01*
X298880Y400503D01*
X298892Y400365D01*
X298905Y400215D01*
X298943Y400028D01*
X298980Y399828D01*
X299030Y399615D01*
X299105Y399390D01*
X299193Y399153D01*
X299292Y398903D01*
X299417Y398666D01*
X299567Y398428D01*
X299742Y398191D01*
X299955Y397966D01*
X300180Y397766D01*
X300205Y397753D01*
X300255Y397716D01*
X300355Y397653D01*
X300492Y397566D01*
X300667Y397478D01*
X300879Y397366D01*
X301142Y397253D01*
X301442Y397141D01*
X301779Y397016D01*
X302167Y396903D01*
X302592Y396791D01*
X303054Y396704D01*
X303579Y396616D01*
X304129Y396554D01*
X304741Y396516D01*
X305391Y396504D01*
X305616D01*
X305766Y396516D01*
X305966D01*
X306178Y396529D01*
X306428Y396541D01*
X306703Y396566D01*
X306991Y396591D01*
X307290Y396616D01*
X307890Y396704D01*
X308503Y396816D01*
X308778Y396891D01*
X309052Y396966D01*
X309065D01*
X309115Y396991D01*
X309190Y397016D01*
X309277Y397053D01*
X309402Y397103D01*
X309527Y397166D01*
X309677Y397228D01*
X309840Y397316D01*
X310190Y397503D01*
X310540Y397741D01*
X310877Y398028D01*
X311039Y398191D01*
X311189Y398353D01*
X311202Y398366D01*
X311227Y398391D01*
X311264Y398453D01*
X311302Y398516D01*
X311364Y398616D01*
X311427Y398716D01*
X311489Y398853D01*
X311564Y398991D01*
X311639Y399153D01*
X311702Y399328D01*
X311764Y399515D01*
X311827Y399728D01*
X311864Y399940D01*
X311902Y400178D01*
X311927Y400415D01*
X311939Y400677D01*
Y400853D01*
X311927Y400940D01*
X311914Y401040D01*
X311902Y401165D01*
X311889Y401290D01*
X311839Y401565D01*
X311764Y401865D01*
X311652Y402177D01*
X311514Y402477D01*
Y402490D01*
X311489Y402515D01*
X311477Y402552D01*
X311439Y402615D01*
X311339Y402752D01*
X311214Y402939D01*
X311039Y403139D01*
X310840Y403352D01*
X310590Y403564D01*
X310315Y403764D01*
X310302D01*
X310277Y403789D01*
X310240Y403814D01*
X310177Y403852D01*
X310102Y403889D01*
X310015Y403939D01*
X309902Y403989D01*
X309790Y404052D01*
X309652Y404114D01*
X309515Y404177D01*
X309190Y404302D01*
X308815Y404439D01*
X308415Y404552D01*
X308403D01*
X308365Y404564D01*
X308303Y404576D01*
X308215Y404602D01*
X308103Y404627D01*
X307965Y404651D01*
X307803Y404677D01*
X307615Y404701D01*
X307415Y404726D01*
X307178Y404752D01*
X306940Y404776D01*
X306666Y404801D01*
X306378Y404827D01*
X306066Y404839D01*
X305741Y404851D01*
D02*
G37*
G36*
X365492Y398026D02*
X312152D01*
Y395958D01*
X365492D01*
Y398026D01*
D02*
G37*
G36*
Y393891D02*
X312152D01*
Y389756D01*
X365492D01*
Y393891D01*
D02*
G37*
G36*
Y387688D02*
X312152D01*
Y383554D01*
X365492D01*
Y387688D01*
D02*
G37*
G36*
Y379419D02*
X312152D01*
Y377351D01*
X365492D01*
Y379419D01*
D02*
G37*
G36*
Y375284D02*
X312152D01*
Y373216D01*
X365492D01*
Y375284D01*
D02*
G37*
G36*
Y371149D02*
X312152D01*
Y367014D01*
X365492D01*
Y371149D01*
D02*
G37*
G36*
X311727Y371564D02*
X310502D01*
X310490Y371552D01*
X310440Y371514D01*
X310365Y371439D01*
X310265Y371352D01*
X310127Y371239D01*
X309977Y371114D01*
X309790Y370964D01*
X309577Y370802D01*
X309340Y370627D01*
X309077Y370427D01*
X308790Y370227D01*
X308478Y370014D01*
X308153Y369802D01*
X307803Y369577D01*
X307428Y369352D01*
X307028Y369127D01*
X307003Y369115D01*
X306928Y369077D01*
X306815Y369015D01*
X306653Y368927D01*
X306466Y368827D01*
X306228Y368715D01*
X305966Y368590D01*
X305666Y368452D01*
X305341Y368302D01*
X305004Y368152D01*
X304629Y367990D01*
X304254Y367840D01*
X303854Y367690D01*
X303441Y367540D01*
X303016Y367402D01*
X302592Y367277D01*
X302579D01*
X302517Y367253D01*
X302429Y367228D01*
X302317Y367203D01*
X302167Y367165D01*
X301979Y367115D01*
X301779Y367078D01*
X301554Y367028D01*
X301304Y366978D01*
X301029Y366928D01*
X300742Y366878D01*
X300430Y366828D01*
X300117Y366778D01*
X299780Y366740D01*
X299080Y366678D01*
Y365066D01*
X299155D01*
X299230Y365078D01*
X299342D01*
X299492Y365091D01*
X299667Y365103D01*
X299867Y365128D01*
X300092Y365153D01*
X300355Y365178D01*
X300630Y365216D01*
X300930Y365266D01*
X301242Y365328D01*
X301592Y365391D01*
X301942Y365466D01*
X302329Y365553D01*
X302717Y365653D01*
X302729D01*
X302742Y365666D01*
X302817Y365678D01*
X302929Y365715D01*
X303079Y365753D01*
X303279Y365815D01*
X303504Y365890D01*
X303754Y365965D01*
X304041Y366065D01*
X304341Y366178D01*
X304666Y366303D01*
X305016Y366428D01*
X305366Y366578D01*
X306103Y366903D01*
X306853Y367277D01*
X306878Y367290D01*
X306940Y367327D01*
X307041Y367390D01*
X307190Y367465D01*
X307353Y367565D01*
X307553Y367677D01*
X307778Y367815D01*
X308015Y367965D01*
X308278Y368127D01*
X308553Y368302D01*
X309115Y368677D01*
X309677Y369102D01*
X309952Y369314D01*
X310215Y369539D01*
Y363279D01*
X311727D01*
Y371564D01*
D02*
G37*
G36*
X365492Y364947D02*
X312152D01*
Y360812D01*
X365492D01*
Y364947D01*
D02*
G37*
G36*
Y358744D02*
X312152D01*
Y356677D01*
X365492D01*
Y358744D01*
D02*
G37*
G36*
Y352542D02*
X312152D01*
Y350475D01*
X365492D01*
Y352542D01*
D02*
G37*
G36*
Y348407D02*
X312152D01*
Y346340D01*
X365492D01*
Y348407D01*
D02*
G37*
G36*
Y344272D02*
X312152D01*
Y342205D01*
X365492D01*
Y344272D01*
D02*
G37*
G36*
Y340137D02*
X312152D01*
Y336003D01*
X365492D01*
Y340137D01*
D02*
G37*
G36*
X305741Y338176D02*
X305178D01*
X305016Y338164D01*
X304828D01*
X304604Y338152D01*
X304366Y338139D01*
X304091Y338114D01*
X303804Y338089D01*
X303516Y338064D01*
X302904Y337976D01*
X302304Y337864D01*
X302029Y337789D01*
X301754Y337702D01*
X301742D01*
X301692Y337677D01*
X301617Y337652D01*
X301529Y337614D01*
X301404Y337564D01*
X301279Y337502D01*
X301129Y337439D01*
X300967Y337352D01*
X300630Y337164D01*
X300267Y336927D01*
X299930Y336639D01*
X299767Y336477D01*
X299617Y336314D01*
X299605Y336302D01*
X299580Y336277D01*
X299542Y336227D01*
X299505Y336152D01*
X299442Y336064D01*
X299380Y335952D01*
X299317Y335827D01*
X299242Y335690D01*
X299167Y335527D01*
X299105Y335352D01*
X299042Y335165D01*
X298980Y334952D01*
X298943Y334740D01*
X298905Y334502D01*
X298880Y334265D01*
X298868Y334002D01*
Y333915D01*
X298880Y333828D01*
X298892Y333690D01*
X298905Y333540D01*
X298943Y333353D01*
X298980Y333153D01*
X299030Y332940D01*
X299105Y332715D01*
X299193Y332478D01*
X299292Y332228D01*
X299417Y331991D01*
X299567Y331753D01*
X299742Y331516D01*
X299955Y331291D01*
X300180Y331091D01*
X300205Y331078D01*
X300255Y331041D01*
X300355Y330978D01*
X300492Y330891D01*
X300667Y330803D01*
X300879Y330691D01*
X301142Y330578D01*
X301442Y330466D01*
X301779Y330341D01*
X302167Y330229D01*
X302592Y330116D01*
X303054Y330028D01*
X303579Y329941D01*
X304129Y329879D01*
X304741Y329841D01*
X305391Y329829D01*
X305616D01*
X305766Y329841D01*
X305966D01*
X306178Y329854D01*
X306428Y329866D01*
X306703Y329891D01*
X306991Y329916D01*
X307290Y329941D01*
X307890Y330028D01*
X308503Y330141D01*
X308778Y330216D01*
X309052Y330291D01*
X309065D01*
X309115Y330316D01*
X309190Y330341D01*
X309277Y330378D01*
X309402Y330428D01*
X309527Y330491D01*
X309677Y330553D01*
X309840Y330641D01*
X310190Y330828D01*
X310540Y331066D01*
X310877Y331353D01*
X311039Y331516D01*
X311189Y331678D01*
X311202Y331691D01*
X311227Y331716D01*
X311264Y331778D01*
X311302Y331841D01*
X311364Y331941D01*
X311427Y332040D01*
X311489Y332178D01*
X311564Y332315D01*
X311639Y332478D01*
X311702Y332653D01*
X311764Y332840D01*
X311827Y333053D01*
X311864Y333265D01*
X311902Y333503D01*
X311927Y333740D01*
X311939Y334002D01*
Y334178D01*
X311927Y334265D01*
X311914Y334365D01*
X311902Y334490D01*
X311889Y334615D01*
X311839Y334890D01*
X311764Y335190D01*
X311652Y335502D01*
X311514Y335802D01*
Y335815D01*
X311489Y335840D01*
X311477Y335877D01*
X311439Y335939D01*
X311339Y336077D01*
X311214Y336264D01*
X311039Y336464D01*
X310840Y336677D01*
X310590Y336889D01*
X310315Y337089D01*
X310302D01*
X310277Y337114D01*
X310240Y337139D01*
X310177Y337177D01*
X310102Y337214D01*
X310015Y337264D01*
X309902Y337314D01*
X309790Y337377D01*
X309652Y337439D01*
X309515Y337502D01*
X309190Y337627D01*
X308815Y337764D01*
X308415Y337877D01*
X308403D01*
X308365Y337889D01*
X308303Y337901D01*
X308215Y337926D01*
X308103Y337952D01*
X307965Y337976D01*
X307803Y338002D01*
X307615Y338027D01*
X307415Y338051D01*
X307178Y338077D01*
X306940Y338102D01*
X306666Y338126D01*
X306378Y338152D01*
X306066Y338164D01*
X305741Y338176D01*
D02*
G37*
G36*
X365492Y333935D02*
X312152D01*
Y329800D01*
X365492D01*
Y333935D01*
D02*
G37*
G36*
Y325665D02*
X312152D01*
Y323598D01*
X365492D01*
Y325665D01*
D02*
G37*
G36*
Y321531D02*
X312152D01*
Y319463D01*
X365492D01*
Y321531D01*
D02*
G37*
G36*
Y317396D02*
X312152D01*
Y315328D01*
X365492D01*
Y317396D01*
D02*
G37*
G36*
Y313261D02*
X312152D01*
Y311193D01*
X365492D01*
Y313261D01*
D02*
G37*
G36*
Y309126D02*
X312152D01*
Y307059D01*
X365492D01*
Y309126D01*
D02*
G37*
G36*
Y302924D02*
X312152D01*
Y298789D01*
X365492D01*
Y302924D01*
D02*
G37*
G36*
X302866Y304889D02*
X302792D01*
X302704Y304876D01*
X302592D01*
X302442Y304851D01*
X302279Y304827D01*
X302092Y304789D01*
X301879Y304739D01*
X301667Y304676D01*
X301442Y304589D01*
X301204Y304489D01*
X300967Y304377D01*
X300730Y304227D01*
X300480Y304064D01*
X300255Y303877D01*
X300030Y303664D01*
X300017Y303652D01*
X299980Y303614D01*
X299917Y303539D01*
X299855Y303439D01*
X299755Y303327D01*
X299667Y303177D01*
X299555Y303014D01*
X299455Y302815D01*
X299342Y302602D01*
X299230Y302365D01*
X299142Y302115D01*
X299055Y301840D01*
X298980Y301552D01*
X298918Y301240D01*
X298880Y300915D01*
X298868Y300565D01*
Y300490D01*
X298880Y300403D01*
Y300290D01*
X298892Y300140D01*
X298918Y299978D01*
X298955Y299790D01*
X298993Y299578D01*
X299042Y299365D01*
X299118Y299140D01*
X299193Y298903D01*
X299292Y298678D01*
X299405Y298441D01*
X299542Y298203D01*
X299692Y297978D01*
X299867Y297766D01*
X299880Y297753D01*
X299917Y297716D01*
X299967Y297666D01*
X300055Y297591D01*
X300155Y297503D01*
X300267Y297403D01*
X300405Y297303D01*
X300567Y297191D01*
X300742Y297078D01*
X300942Y296966D01*
X301154Y296866D01*
X301392Y296766D01*
X301642Y296679D01*
X301904Y296604D01*
X302179Y296541D01*
X302479Y296504D01*
X302692Y298078D01*
X302679D01*
X302629Y298091D01*
X302567Y298103D01*
X302467Y298128D01*
X302367Y298153D01*
X302229Y298191D01*
X302092Y298241D01*
X301942Y298291D01*
X301629Y298416D01*
X301304Y298578D01*
X301005Y298766D01*
X300879Y298878D01*
X300755Y298990D01*
Y299003D01*
X300730Y299016D01*
X300705Y299053D01*
X300667Y299103D01*
X300617Y299165D01*
X300567Y299240D01*
X300467Y299428D01*
X300355Y299665D01*
X300255Y299940D01*
X300192Y300240D01*
X300180Y300403D01*
X300167Y300578D01*
Y300690D01*
X300180Y300765D01*
X300192Y300865D01*
X300205Y300965D01*
X300230Y301090D01*
X300267Y301227D01*
X300355Y301527D01*
X300417Y301677D01*
X300492Y301840D01*
X300580Y302002D01*
X300680Y302152D01*
X300792Y302302D01*
X300930Y302452D01*
X300942Y302465D01*
X300967Y302490D01*
X301005Y302527D01*
X301067Y302577D01*
X301142Y302627D01*
X301229Y302689D01*
X301329Y302764D01*
X301454Y302840D01*
X301579Y302902D01*
X301729Y302977D01*
X302054Y303102D01*
X302229Y303139D01*
X302417Y303177D01*
X302617Y303202D01*
X302829Y303214D01*
X302929D01*
X303016Y303202D01*
X303104Y303189D01*
X303216Y303177D01*
X303329Y303152D01*
X303466Y303127D01*
X303741Y303039D01*
X303891Y302989D01*
X304041Y302915D01*
X304191Y302827D01*
X304341Y302740D01*
X304479Y302627D01*
X304616Y302502D01*
X304629Y302490D01*
X304641Y302465D01*
X304679Y302427D01*
X304729Y302377D01*
X304778Y302302D01*
X304841Y302215D01*
X304904Y302127D01*
X304966Y302015D01*
X305028Y301890D01*
X305091Y301752D01*
X305203Y301440D01*
X305291Y301090D01*
X305303Y300903D01*
X305316Y300702D01*
Y300627D01*
X305303Y300528D01*
X305291Y300403D01*
X305278Y300240D01*
X305253Y300053D01*
X305203Y299840D01*
X305153Y299603D01*
X306528Y299778D01*
Y299803D01*
X306516Y299865D01*
X306503Y299953D01*
Y300128D01*
X306516Y300203D01*
Y300290D01*
X306528Y300390D01*
X306553Y300503D01*
X306566Y300627D01*
X306628Y300915D01*
X306728Y301215D01*
X306853Y301527D01*
X307028Y301840D01*
X307041Y301852D01*
X307053Y301877D01*
X307078Y301915D01*
X307128Y301965D01*
X307178Y302027D01*
X307253Y302102D01*
X307328Y302165D01*
X307428Y302252D01*
X307528Y302327D01*
X307653Y302390D01*
X307790Y302465D01*
X307928Y302527D01*
X308090Y302577D01*
X308265Y302614D01*
X308440Y302640D01*
X308640Y302652D01*
X308727D01*
X308790Y302640D01*
X308865D01*
X308953Y302627D01*
X309152Y302577D01*
X309377Y302515D01*
X309615Y302402D01*
X309852Y302265D01*
X309965Y302165D01*
X310077Y302065D01*
X310090Y302052D01*
X310102Y302040D01*
X310127Y302002D01*
X310165Y301965D01*
X310265Y301827D01*
X310365Y301652D01*
X310465Y301440D01*
X310565Y301177D01*
X310627Y300877D01*
X310652Y300728D01*
Y300465D01*
X310639Y300403D01*
Y300315D01*
X310627Y300228D01*
X310577Y300015D01*
X310515Y299765D01*
X310402Y299515D01*
X310265Y299253D01*
X310165Y299128D01*
X310065Y299016D01*
X310052Y299003D01*
X310040Y298990D01*
X310002Y298953D01*
X309952Y298916D01*
X309902Y298866D01*
X309827Y298815D01*
X309740Y298753D01*
X309640Y298690D01*
X309515Y298628D01*
X309390Y298553D01*
X309252Y298491D01*
X309090Y298428D01*
X308927Y298378D01*
X308740Y298316D01*
X308553Y298278D01*
X308340Y298241D01*
X308615Y296666D01*
X308628D01*
X308690Y296679D01*
X308765Y296703D01*
X308878Y296728D01*
X309002Y296766D01*
X309165Y296816D01*
X309327Y296866D01*
X309515Y296941D01*
X309702Y297016D01*
X309902Y297116D01*
X310115Y297216D01*
X310315Y297341D01*
X310515Y297466D01*
X310714Y297616D01*
X310889Y297791D01*
X311064Y297966D01*
X311077Y297978D01*
X311102Y298016D01*
X311139Y298066D01*
X311202Y298153D01*
X311264Y298253D01*
X311339Y298366D01*
X311427Y298516D01*
X311502Y298666D01*
X311589Y298841D01*
X311664Y299040D01*
X311739Y299253D01*
X311802Y299478D01*
X311864Y299715D01*
X311902Y299965D01*
X311927Y300240D01*
X311939Y300515D01*
Y300615D01*
X311927Y300690D01*
Y300790D01*
X311914Y300890D01*
X311902Y301015D01*
X311889Y301152D01*
X311827Y301452D01*
X311752Y301765D01*
X311639Y302102D01*
X311489Y302440D01*
Y302452D01*
X311464Y302477D01*
X311439Y302527D01*
X311402Y302589D01*
X311364Y302665D01*
X311302Y302740D01*
X311164Y302939D01*
X310989Y303164D01*
X310777Y303389D01*
X310527Y303602D01*
X310252Y303789D01*
X310240D01*
X310215Y303814D01*
X310177Y303839D01*
X310115Y303864D01*
X310052Y303902D01*
X309965Y303939D01*
X309752Y304027D01*
X309515Y304114D01*
X309227Y304189D01*
X308927Y304239D01*
X308603Y304264D01*
X308528D01*
X308465Y304252D01*
X308390D01*
X308303Y304239D01*
X308103Y304214D01*
X307865Y304152D01*
X307615Y304077D01*
X307353Y303964D01*
X307090Y303814D01*
X307078D01*
X307066Y303789D01*
X307028Y303764D01*
X306978Y303727D01*
X306853Y303627D01*
X306703Y303477D01*
X306528Y303289D01*
X306353Y303064D01*
X306178Y302802D01*
X306016Y302490D01*
Y302502D01*
X306003Y302540D01*
X305991Y302602D01*
X305966Y302677D01*
X305928Y302777D01*
X305891Y302877D01*
X305778Y303139D01*
X305641Y303414D01*
X305441Y303714D01*
X305216Y304002D01*
X305079Y304127D01*
X304928Y304252D01*
X304916Y304264D01*
X304891Y304277D01*
X304841Y304314D01*
X304778Y304352D01*
X304704Y304402D01*
X304604Y304452D01*
X304491Y304514D01*
X304366Y304576D01*
X304216Y304627D01*
X304066Y304689D01*
X303891Y304739D01*
X303716Y304789D01*
X303316Y304864D01*
X303092Y304876D01*
X302866Y304889D01*
D02*
G37*
G36*
X365492Y296721D02*
X312152D01*
Y292586D01*
X365492D01*
Y296721D01*
D02*
G37*
G36*
Y290519D02*
X312152D01*
Y286384D01*
X365492D01*
Y290519D01*
D02*
G37*
G36*
Y284317D02*
X312152D01*
Y282249D01*
X365492D01*
Y284317D01*
D02*
G37*
G36*
Y280182D02*
X312152D01*
Y278114D01*
X365492D01*
Y280182D01*
D02*
G37*
G36*
Y273980D02*
X312152D01*
Y269845D01*
X365492D01*
Y273980D01*
D02*
G37*
G36*
Y267777D02*
X312152D01*
Y265710D01*
X365492D01*
Y267777D01*
D02*
G37*
G36*
X300592Y271414D02*
X299080D01*
Y262954D01*
X299280D01*
X299430Y262966D01*
X299592Y262991D01*
X299780Y263016D01*
X299967Y263066D01*
X300167Y263129D01*
X300180D01*
X300205Y263141D01*
X300255Y263166D01*
X300317Y263191D01*
X300392Y263229D01*
X300480Y263266D01*
X300705Y263379D01*
X300967Y263528D01*
X301254Y263703D01*
X301554Y263916D01*
X301867Y264166D01*
X301879Y264178D01*
X301904Y264203D01*
X301954Y264241D01*
X302017Y264303D01*
X302092Y264378D01*
X302192Y264466D01*
X302304Y264566D01*
X302429Y264691D01*
X302554Y264828D01*
X302704Y264978D01*
X302866Y265153D01*
X303041Y265328D01*
X303216Y265528D01*
X303404Y265740D01*
X303604Y265978D01*
X303804Y266215D01*
X303829Y266240D01*
X303879Y266303D01*
X303966Y266415D01*
X304091Y266553D01*
X304229Y266728D01*
X304404Y266915D01*
X304591Y267128D01*
X304791Y267353D01*
X305228Y267827D01*
X305678Y268290D01*
X305903Y268502D01*
X306128Y268702D01*
X306328Y268890D01*
X306528Y269040D01*
X306541Y269052D01*
X306578Y269077D01*
X306628Y269115D01*
X306703Y269152D01*
X306791Y269214D01*
X306891Y269277D01*
X307015Y269340D01*
X307140Y269415D01*
X307428Y269552D01*
X307740Y269677D01*
X307915Y269714D01*
X308078Y269752D01*
X308253Y269777D01*
X308415Y269789D01*
X308503D01*
X308578Y269777D01*
X308652Y269764D01*
X308740Y269752D01*
X308965Y269702D01*
X309215Y269627D01*
X309477Y269502D01*
X309602Y269427D01*
X309740Y269340D01*
X309865Y269240D01*
X309990Y269115D01*
X310002Y269102D01*
X310015Y269090D01*
X310052Y269040D01*
X310090Y268990D01*
X310140Y268927D01*
X310190Y268840D01*
X310252Y268752D01*
X310315Y268640D01*
X310377Y268527D01*
X310440Y268390D01*
X310540Y268090D01*
X310614Y267752D01*
X310627Y267565D01*
X310639Y267365D01*
Y267253D01*
X310627Y267178D01*
X310614Y267078D01*
X310602Y266965D01*
X310577Y266840D01*
X310552Y266715D01*
X310477Y266415D01*
X310352Y266115D01*
X310277Y265965D01*
X310177Y265815D01*
X310077Y265678D01*
X309952Y265541D01*
X309940Y265528D01*
X309927Y265515D01*
X309877Y265478D01*
X309827Y265441D01*
X309765Y265390D01*
X309677Y265328D01*
X309577Y265266D01*
X309465Y265203D01*
X309340Y265141D01*
X309202Y265078D01*
X309040Y265028D01*
X308878Y264966D01*
X308703Y264928D01*
X308503Y264891D01*
X308303Y264878D01*
X308078Y264866D01*
X308240Y263254D01*
X308265D01*
X308315Y263266D01*
X308415Y263279D01*
X308540Y263291D01*
X308690Y263329D01*
X308865Y263366D01*
X309052Y263416D01*
X309265Y263466D01*
X309477Y263541D01*
X309702Y263629D01*
X309927Y263729D01*
X310165Y263841D01*
X310390Y263978D01*
X310602Y264128D01*
X310802Y264303D01*
X310989Y264491D01*
X311002Y264503D01*
X311027Y264541D01*
X311077Y264603D01*
X311139Y264691D01*
X311214Y264803D01*
X311289Y264928D01*
X311377Y265091D01*
X311464Y265266D01*
X311552Y265466D01*
X311639Y265678D01*
X311714Y265915D01*
X311789Y266178D01*
X311852Y266453D01*
X311902Y266753D01*
X311927Y267065D01*
X311939Y267402D01*
Y267490D01*
X311927Y267577D01*
Y267715D01*
X311914Y267865D01*
X311889Y268040D01*
X311852Y268240D01*
X311814Y268465D01*
X311752Y268690D01*
X311689Y268927D01*
X311602Y269177D01*
X311502Y269415D01*
X311389Y269664D01*
X311252Y269889D01*
X311089Y270114D01*
X310914Y270327D01*
X310902Y270339D01*
X310865Y270377D01*
X310814Y270427D01*
X310727Y270489D01*
X310627Y270577D01*
X310515Y270664D01*
X310377Y270764D01*
X310215Y270864D01*
X310040Y270964D01*
X309840Y271064D01*
X309640Y271152D01*
X309415Y271239D01*
X309177Y271301D01*
X308915Y271352D01*
X308652Y271389D01*
X308378Y271402D01*
X308253D01*
X308178Y271389D01*
X308103D01*
X307903Y271364D01*
X307678Y271327D01*
X307415Y271264D01*
X307140Y271189D01*
X306866Y271077D01*
X306853D01*
X306828Y271064D01*
X306791Y271039D01*
X306740Y271014D01*
X306666Y270977D01*
X306591Y270939D01*
X306391Y270827D01*
X306166Y270689D01*
X305891Y270502D01*
X305603Y270289D01*
X305303Y270027D01*
X305291Y270014D01*
X305266Y269989D01*
X305216Y269952D01*
X305153Y269889D01*
X305066Y269802D01*
X304966Y269714D01*
X304853Y269590D01*
X304716Y269452D01*
X304566Y269302D01*
X304391Y269115D01*
X304204Y268927D01*
X304004Y268702D01*
X303791Y268465D01*
X303554Y268202D01*
X303316Y267915D01*
X303054Y267615D01*
X303041Y267603D01*
X303004Y267553D01*
X302941Y267477D01*
X302866Y267390D01*
X302767Y267278D01*
X302654Y267153D01*
X302404Y266853D01*
X302142Y266553D01*
X301879Y266253D01*
X301754Y266115D01*
X301629Y265990D01*
X301529Y265878D01*
X301442Y265790D01*
X301429Y265778D01*
X301367Y265728D01*
X301279Y265653D01*
X301180Y265553D01*
X301042Y265453D01*
X300905Y265340D01*
X300755Y265228D01*
X300592Y265128D01*
Y271414D01*
D02*
G37*
G36*
X365492Y263642D02*
X312152D01*
Y261575D01*
X365492D01*
Y263642D01*
D02*
G37*
G36*
Y259508D02*
X312152D01*
Y255373D01*
X365492D01*
Y259508D01*
D02*
G37*
G36*
Y253305D02*
X312152D01*
Y249170D01*
X365492D01*
Y253305D01*
D02*
G37*
G36*
Y245036D02*
X312152D01*
Y242968D01*
X365492D01*
Y245036D01*
D02*
G37*
G36*
Y240901D02*
X312152D01*
Y238833D01*
X365492D01*
Y240901D01*
D02*
G37*
G36*
Y236766D02*
X312152D01*
Y232631D01*
X365492D01*
Y236766D01*
D02*
G37*
G36*
X305741Y238164D02*
X305178D01*
X305016Y238151D01*
X304828D01*
X304604Y238139D01*
X304366Y238127D01*
X304091Y238102D01*
X303804Y238076D01*
X303516Y238051D01*
X302904Y237964D01*
X302304Y237852D01*
X302029Y237777D01*
X301754Y237689D01*
X301742D01*
X301692Y237664D01*
X301617Y237639D01*
X301529Y237602D01*
X301404Y237552D01*
X301279Y237489D01*
X301129Y237427D01*
X300967Y237339D01*
X300630Y237152D01*
X300267Y236914D01*
X299930Y236627D01*
X299767Y236464D01*
X299617Y236302D01*
X299605Y236289D01*
X299580Y236264D01*
X299542Y236215D01*
X299505Y236140D01*
X299442Y236052D01*
X299380Y235940D01*
X299317Y235815D01*
X299242Y235677D01*
X299167Y235515D01*
X299105Y235340D01*
X299042Y235152D01*
X298980Y234940D01*
X298943Y234727D01*
X298905Y234490D01*
X298880Y234252D01*
X298868Y233990D01*
Y233903D01*
X298880Y233815D01*
X298892Y233678D01*
X298905Y233528D01*
X298943Y233340D01*
X298980Y233140D01*
X299030Y232928D01*
X299105Y232703D01*
X299193Y232465D01*
X299292Y232215D01*
X299417Y231978D01*
X299567Y231741D01*
X299742Y231503D01*
X299955Y231278D01*
X300180Y231078D01*
X300205Y231066D01*
X300255Y231028D01*
X300355Y230966D01*
X300492Y230878D01*
X300667Y230791D01*
X300879Y230678D01*
X301142Y230566D01*
X301442Y230453D01*
X301779Y230329D01*
X302167Y230216D01*
X302592Y230103D01*
X303054Y230016D01*
X303579Y229929D01*
X304129Y229866D01*
X304741Y229829D01*
X305391Y229816D01*
X305616D01*
X305766Y229829D01*
X305966D01*
X306178Y229841D01*
X306428Y229854D01*
X306703Y229879D01*
X306991Y229904D01*
X307290Y229929D01*
X307890Y230016D01*
X308503Y230128D01*
X308778Y230203D01*
X309052Y230278D01*
X309065D01*
X309115Y230303D01*
X309190Y230329D01*
X309277Y230366D01*
X309402Y230416D01*
X309527Y230478D01*
X309677Y230541D01*
X309840Y230628D01*
X310190Y230816D01*
X310540Y231053D01*
X310877Y231341D01*
X311039Y231503D01*
X311189Y231666D01*
X311202Y231678D01*
X311227Y231703D01*
X311264Y231766D01*
X311302Y231828D01*
X311364Y231928D01*
X311427Y232028D01*
X311489Y232166D01*
X311564Y232303D01*
X311639Y232465D01*
X311702Y232640D01*
X311764Y232828D01*
X311827Y233040D01*
X311864Y233253D01*
X311902Y233490D01*
X311927Y233728D01*
X311939Y233990D01*
Y234165D01*
X311927Y234252D01*
X311914Y234352D01*
X311902Y234477D01*
X311889Y234602D01*
X311839Y234877D01*
X311764Y235177D01*
X311652Y235490D01*
X311514Y235790D01*
Y235802D01*
X311489Y235827D01*
X311477Y235865D01*
X311439Y235927D01*
X311339Y236064D01*
X311214Y236252D01*
X311039Y236452D01*
X310840Y236664D01*
X310590Y236877D01*
X310315Y237077D01*
X310302D01*
X310277Y237102D01*
X310240Y237127D01*
X310177Y237164D01*
X310102Y237202D01*
X310015Y237252D01*
X309902Y237302D01*
X309790Y237364D01*
X309652Y237427D01*
X309515Y237489D01*
X309190Y237614D01*
X308815Y237752D01*
X308415Y237864D01*
X308403D01*
X308365Y237876D01*
X308303Y237889D01*
X308215Y237914D01*
X308103Y237939D01*
X307965Y237964D01*
X307803Y237989D01*
X307615Y238014D01*
X307415Y238039D01*
X307178Y238064D01*
X306940Y238089D01*
X306666Y238114D01*
X306378Y238139D01*
X306066Y238151D01*
X305741Y238164D01*
D02*
G37*
G36*
X365492Y230564D02*
X312152D01*
Y228496D01*
X365492D01*
Y230564D01*
D02*
G37*
G36*
Y226429D02*
X312152D01*
Y224361D01*
X365492D01*
Y226429D01*
D02*
G37*
G36*
Y220226D02*
X312152D01*
Y216091D01*
X365492D01*
Y220226D01*
D02*
G37*
G36*
Y214024D02*
X312152D01*
Y211957D01*
X365492D01*
Y214024D01*
D02*
G37*
G36*
Y209889D02*
X312152D01*
Y207822D01*
X365492D01*
Y209889D01*
D02*
G37*
G36*
Y205754D02*
X312152D01*
Y201619D01*
X365492D01*
Y205754D01*
D02*
G37*
G36*
X300592Y204739D02*
X299080D01*
Y196279D01*
X299280D01*
X299430Y196291D01*
X299592Y196316D01*
X299780Y196341D01*
X299967Y196391D01*
X300167Y196454D01*
X300180D01*
X300205Y196466D01*
X300255Y196491D01*
X300317Y196516D01*
X300392Y196554D01*
X300480Y196591D01*
X300705Y196703D01*
X300967Y196854D01*
X301254Y197029D01*
X301554Y197241D01*
X301867Y197491D01*
X301879Y197503D01*
X301904Y197528D01*
X301954Y197566D01*
X302017Y197628D01*
X302092Y197703D01*
X302192Y197791D01*
X302304Y197891D01*
X302429Y198016D01*
X302554Y198153D01*
X302704Y198303D01*
X302866Y198478D01*
X303041Y198653D01*
X303216Y198853D01*
X303404Y199065D01*
X303604Y199303D01*
X303804Y199540D01*
X303829Y199565D01*
X303879Y199628D01*
X303966Y199740D01*
X304091Y199878D01*
X304229Y200053D01*
X304404Y200240D01*
X304591Y200453D01*
X304791Y200678D01*
X305228Y201152D01*
X305678Y201615D01*
X305903Y201827D01*
X306128Y202027D01*
X306328Y202215D01*
X306528Y202365D01*
X306541Y202377D01*
X306578Y202402D01*
X306628Y202440D01*
X306703Y202477D01*
X306791Y202540D01*
X306891Y202602D01*
X307015Y202665D01*
X307140Y202740D01*
X307428Y202877D01*
X307740Y203002D01*
X307915Y203039D01*
X308078Y203077D01*
X308253Y203102D01*
X308415Y203114D01*
X308503D01*
X308578Y203102D01*
X308652Y203089D01*
X308740Y203077D01*
X308965Y203027D01*
X309215Y202952D01*
X309477Y202827D01*
X309602Y202752D01*
X309740Y202665D01*
X309865Y202565D01*
X309990Y202440D01*
X310002Y202427D01*
X310015Y202415D01*
X310052Y202365D01*
X310090Y202315D01*
X310140Y202252D01*
X310190Y202165D01*
X310252Y202077D01*
X310315Y201965D01*
X310377Y201852D01*
X310440Y201715D01*
X310540Y201415D01*
X310614Y201077D01*
X310627Y200890D01*
X310639Y200690D01*
Y200578D01*
X310627Y200503D01*
X310614Y200403D01*
X310602Y200290D01*
X310577Y200165D01*
X310552Y200040D01*
X310477Y199740D01*
X310352Y199440D01*
X310277Y199290D01*
X310177Y199140D01*
X310077Y199003D01*
X309952Y198866D01*
X309940Y198853D01*
X309927Y198841D01*
X309877Y198803D01*
X309827Y198766D01*
X309765Y198715D01*
X309677Y198653D01*
X309577Y198591D01*
X309465Y198528D01*
X309340Y198466D01*
X309202Y198403D01*
X309040Y198353D01*
X308878Y198291D01*
X308703Y198253D01*
X308503Y198216D01*
X308303Y198203D01*
X308078Y198191D01*
X308240Y196579D01*
X308265D01*
X308315Y196591D01*
X308415Y196604D01*
X308540Y196616D01*
X308690Y196654D01*
X308865Y196691D01*
X309052Y196741D01*
X309265Y196791D01*
X309477Y196866D01*
X309702Y196954D01*
X309927Y197054D01*
X310165Y197166D01*
X310390Y197303D01*
X310602Y197453D01*
X310802Y197628D01*
X310989Y197816D01*
X311002Y197828D01*
X311027Y197866D01*
X311077Y197928D01*
X311139Y198016D01*
X311214Y198128D01*
X311289Y198253D01*
X311377Y198416D01*
X311464Y198591D01*
X311552Y198790D01*
X311639Y199003D01*
X311714Y199240D01*
X311789Y199503D01*
X311852Y199778D01*
X311902Y200078D01*
X311927Y200390D01*
X311939Y200728D01*
Y200815D01*
X311927Y200903D01*
Y201040D01*
X311914Y201190D01*
X311889Y201365D01*
X311852Y201565D01*
X311814Y201790D01*
X311752Y202015D01*
X311689Y202252D01*
X311602Y202502D01*
X311502Y202740D01*
X311389Y202989D01*
X311252Y203214D01*
X311089Y203439D01*
X310914Y203652D01*
X310902Y203664D01*
X310865Y203702D01*
X310814Y203752D01*
X310727Y203814D01*
X310627Y203902D01*
X310515Y203989D01*
X310377Y204089D01*
X310215Y204189D01*
X310040Y204289D01*
X309840Y204389D01*
X309640Y204477D01*
X309415Y204564D01*
X309177Y204627D01*
X308915Y204676D01*
X308652Y204714D01*
X308378Y204727D01*
X308253D01*
X308178Y204714D01*
X308103D01*
X307903Y204689D01*
X307678Y204652D01*
X307415Y204589D01*
X307140Y204514D01*
X306866Y204402D01*
X306853D01*
X306828Y204389D01*
X306791Y204364D01*
X306740Y204339D01*
X306666Y204302D01*
X306591Y204264D01*
X306391Y204152D01*
X306166Y204014D01*
X305891Y203827D01*
X305603Y203614D01*
X305303Y203352D01*
X305291Y203339D01*
X305266Y203314D01*
X305216Y203277D01*
X305153Y203214D01*
X305066Y203127D01*
X304966Y203039D01*
X304853Y202915D01*
X304716Y202777D01*
X304566Y202627D01*
X304391Y202440D01*
X304204Y202252D01*
X304004Y202027D01*
X303791Y201790D01*
X303554Y201527D01*
X303316Y201240D01*
X303054Y200940D01*
X303041Y200928D01*
X303004Y200877D01*
X302941Y200802D01*
X302866Y200715D01*
X302767Y200602D01*
X302654Y200478D01*
X302404Y200178D01*
X302142Y199878D01*
X301879Y199578D01*
X301754Y199440D01*
X301629Y199315D01*
X301529Y199203D01*
X301442Y199115D01*
X301429Y199103D01*
X301367Y199053D01*
X301279Y198978D01*
X301180Y198878D01*
X301042Y198778D01*
X300905Y198666D01*
X300755Y198553D01*
X300592Y198453D01*
Y204739D01*
D02*
G37*
G36*
X365492Y199552D02*
X312152D01*
Y195417D01*
X365492D01*
Y199552D01*
D02*
G37*
G36*
Y193350D02*
X312152D01*
Y191282D01*
X365492D01*
Y193350D01*
D02*
G37*
G36*
Y187147D02*
X312152D01*
Y185080D01*
X365492D01*
Y187147D01*
D02*
G37*
%LPD*%
G36*
X305791Y403227D02*
X305903D01*
X306153Y403214D01*
X306441Y403202D01*
X306765Y403177D01*
X307103Y403152D01*
X307803Y403064D01*
X308153Y403002D01*
X308503Y402927D01*
X308815Y402840D01*
X309115Y402752D01*
X309377Y402627D01*
X309590Y402502D01*
X309602Y402490D01*
X309640Y402465D01*
X309690Y402427D01*
X309752Y402365D01*
X309840Y402302D01*
X309927Y402215D01*
X310015Y402115D01*
X310115Y401990D01*
X310215Y401865D01*
X310302Y401727D01*
X310477Y401415D01*
X310540Y401240D01*
X310590Y401052D01*
X310627Y400853D01*
X310639Y400653D01*
Y400553D01*
X310627Y400478D01*
X310614Y400378D01*
X310590Y400278D01*
X310527Y400028D01*
X310477Y399890D01*
X310415Y399753D01*
X310340Y399603D01*
X310252Y399465D01*
X310140Y399315D01*
X310015Y399178D01*
X309877Y399040D01*
X309715Y398915D01*
X309702Y398903D01*
X309665Y398878D01*
X309590Y398840D01*
X309477Y398791D01*
X309352Y398728D01*
X309177Y398666D01*
X308978Y398591D01*
X308740Y398516D01*
X308453Y398441D01*
X308140Y398366D01*
X307790Y398303D01*
X307390Y398241D01*
X306966Y398191D01*
X306478Y398153D01*
X305953Y398128D01*
X305391Y398116D01*
X305091D01*
X304991Y398128D01*
X304879D01*
X304629Y398141D01*
X304341Y398153D01*
X304016Y398178D01*
X303679Y398203D01*
X302979Y398291D01*
X302629Y398353D01*
X302292Y398428D01*
X301967Y398516D01*
X301667Y398616D01*
X301404Y398728D01*
X301192Y398853D01*
X301180Y398866D01*
X301142Y398890D01*
X301092Y398928D01*
X301029Y398991D01*
X300954Y399053D01*
X300867Y399140D01*
X300767Y399240D01*
X300680Y399353D01*
X300580Y399490D01*
X300480Y399628D01*
X300317Y399940D01*
X300255Y400103D01*
X300205Y400290D01*
X300167Y400478D01*
X300155Y400677D01*
Y400728D01*
X300167Y400778D01*
Y400853D01*
X300192Y400952D01*
X300205Y401052D01*
X300242Y401177D01*
X300280Y401302D01*
X300342Y401452D01*
X300405Y401590D01*
X300492Y401740D01*
X300592Y401890D01*
X300717Y402052D01*
X300854Y402202D01*
X301005Y402352D01*
X301192Y402490D01*
X301204Y402502D01*
X301242Y402527D01*
X301304Y402565D01*
X301404Y402602D01*
X301529Y402664D01*
X301692Y402727D01*
X301879Y402789D01*
X302117Y402864D01*
X302379Y402939D01*
X302679Y403002D01*
X303016Y403064D01*
X303404Y403127D01*
X303829Y403164D01*
X304304Y403202D01*
X304828Y403227D01*
X305391Y403239D01*
X305691D01*
X305791Y403227D01*
D02*
G37*
G36*
Y336552D02*
X305903D01*
X306153Y336539D01*
X306441Y336527D01*
X306765Y336502D01*
X307103Y336477D01*
X307803Y336389D01*
X308153Y336327D01*
X308503Y336252D01*
X308815Y336165D01*
X309115Y336077D01*
X309377Y335952D01*
X309590Y335827D01*
X309602Y335815D01*
X309640Y335790D01*
X309690Y335752D01*
X309752Y335690D01*
X309840Y335627D01*
X309927Y335540D01*
X310015Y335440D01*
X310115Y335315D01*
X310215Y335190D01*
X310302Y335052D01*
X310477Y334740D01*
X310540Y334565D01*
X310590Y334377D01*
X310627Y334178D01*
X310639Y333978D01*
Y333878D01*
X310627Y333803D01*
X310614Y333703D01*
X310590Y333603D01*
X310527Y333353D01*
X310477Y333215D01*
X310415Y333078D01*
X310340Y332928D01*
X310252Y332790D01*
X310140Y332640D01*
X310015Y332503D01*
X309877Y332365D01*
X309715Y332240D01*
X309702Y332228D01*
X309665Y332203D01*
X309590Y332165D01*
X309477Y332116D01*
X309352Y332053D01*
X309177Y331991D01*
X308978Y331916D01*
X308740Y331841D01*
X308453Y331766D01*
X308140Y331691D01*
X307790Y331628D01*
X307390Y331566D01*
X306966Y331516D01*
X306478Y331478D01*
X305953Y331453D01*
X305391Y331441D01*
X305091D01*
X304991Y331453D01*
X304879D01*
X304629Y331466D01*
X304341Y331478D01*
X304016Y331503D01*
X303679Y331528D01*
X302979Y331616D01*
X302629Y331678D01*
X302292Y331753D01*
X301967Y331841D01*
X301667Y331941D01*
X301404Y332053D01*
X301192Y332178D01*
X301180Y332191D01*
X301142Y332215D01*
X301092Y332253D01*
X301029Y332315D01*
X300954Y332378D01*
X300867Y332465D01*
X300767Y332565D01*
X300680Y332678D01*
X300580Y332815D01*
X300480Y332953D01*
X300317Y333265D01*
X300255Y333428D01*
X300205Y333615D01*
X300167Y333803D01*
X300155Y334002D01*
Y334053D01*
X300167Y334103D01*
Y334178D01*
X300192Y334277D01*
X300205Y334377D01*
X300242Y334502D01*
X300280Y334627D01*
X300342Y334777D01*
X300405Y334915D01*
X300492Y335065D01*
X300592Y335215D01*
X300717Y335377D01*
X300854Y335527D01*
X301005Y335677D01*
X301192Y335815D01*
X301204Y335827D01*
X301242Y335852D01*
X301304Y335890D01*
X301404Y335927D01*
X301529Y335989D01*
X301692Y336052D01*
X301879Y336115D01*
X302117Y336189D01*
X302379Y336264D01*
X302679Y336327D01*
X303016Y336389D01*
X303404Y336452D01*
X303829Y336489D01*
X304304Y336527D01*
X304828Y336552D01*
X305391Y336564D01*
X305691D01*
X305791Y336552D01*
D02*
G37*
G36*
Y236539D02*
X305903D01*
X306153Y236527D01*
X306441Y236514D01*
X306765Y236489D01*
X307103Y236464D01*
X307803Y236377D01*
X308153Y236314D01*
X308503Y236239D01*
X308815Y236152D01*
X309115Y236064D01*
X309377Y235940D01*
X309590Y235815D01*
X309602Y235802D01*
X309640Y235777D01*
X309690Y235740D01*
X309752Y235677D01*
X309840Y235615D01*
X309927Y235527D01*
X310015Y235427D01*
X310115Y235302D01*
X310215Y235177D01*
X310302Y235040D01*
X310477Y234727D01*
X310540Y234552D01*
X310590Y234365D01*
X310627Y234165D01*
X310639Y233965D01*
Y233865D01*
X310627Y233790D01*
X310614Y233690D01*
X310590Y233590D01*
X310527Y233340D01*
X310477Y233203D01*
X310415Y233065D01*
X310340Y232915D01*
X310252Y232778D01*
X310140Y232628D01*
X310015Y232490D01*
X309877Y232353D01*
X309715Y232228D01*
X309702Y232215D01*
X309665Y232190D01*
X309590Y232153D01*
X309477Y232103D01*
X309352Y232041D01*
X309177Y231978D01*
X308978Y231903D01*
X308740Y231828D01*
X308453Y231753D01*
X308140Y231678D01*
X307790Y231616D01*
X307390Y231553D01*
X306966Y231503D01*
X306478Y231466D01*
X305953Y231441D01*
X305391Y231428D01*
X305091D01*
X304991Y231441D01*
X304879D01*
X304629Y231453D01*
X304341Y231466D01*
X304016Y231491D01*
X303679Y231516D01*
X302979Y231603D01*
X302629Y231666D01*
X302292Y231741D01*
X301967Y231828D01*
X301667Y231928D01*
X301404Y232041D01*
X301192Y232166D01*
X301180Y232178D01*
X301142Y232203D01*
X301092Y232241D01*
X301029Y232303D01*
X300954Y232365D01*
X300867Y232453D01*
X300767Y232553D01*
X300680Y232665D01*
X300580Y232803D01*
X300480Y232940D01*
X300317Y233253D01*
X300255Y233415D01*
X300205Y233603D01*
X300167Y233790D01*
X300155Y233990D01*
Y234040D01*
X300167Y234090D01*
Y234165D01*
X300192Y234265D01*
X300205Y234365D01*
X300242Y234490D01*
X300280Y234615D01*
X300342Y234765D01*
X300405Y234902D01*
X300492Y235052D01*
X300592Y235202D01*
X300717Y235365D01*
X300854Y235515D01*
X301005Y235665D01*
X301192Y235802D01*
X301204Y235815D01*
X301242Y235840D01*
X301304Y235877D01*
X301404Y235914D01*
X301529Y235977D01*
X301692Y236040D01*
X301879Y236102D01*
X302117Y236177D01*
X302379Y236252D01*
X302679Y236314D01*
X303016Y236377D01*
X303404Y236439D01*
X303829Y236477D01*
X304304Y236514D01*
X304828Y236539D01*
X305391Y236552D01*
X305691D01*
X305791Y236539D01*
D02*
G37*
%LPC*%
G36*
X405373Y420570D02*
X405110D01*
X404923Y420551D01*
X404679D01*
X404398Y420533D01*
X404079Y420514D01*
X403742Y420476D01*
X403367Y420439D01*
X402973Y420383D01*
X402130Y420252D01*
X401230Y420064D01*
X400349Y419802D01*
X400330D01*
X400293Y419783D01*
X400218Y419764D01*
X400105Y419727D01*
X399993Y419670D01*
X399843Y419614D01*
X399524Y419483D01*
X399149Y419314D01*
X398756Y419089D01*
X398362Y418864D01*
X398006Y418583D01*
X397987D01*
X397968Y418546D01*
X397856Y418452D01*
X397687Y418302D01*
X397481Y418096D01*
X397256Y417833D01*
X397012Y417533D01*
X396787Y417215D01*
X396562Y416859D01*
Y416840D01*
X396544Y416821D01*
X396506Y416765D01*
X396487Y416690D01*
X396394Y416502D01*
X396300Y416240D01*
X396206Y415921D01*
X396113Y415565D01*
X396056Y415172D01*
X396037Y414759D01*
D01*
Y414628D01*
X396056Y414534D01*
Y414422D01*
X396075Y414291D01*
X396113Y413991D01*
X396206Y413616D01*
X396319Y413222D01*
X396469Y412810D01*
X396694Y412416D01*
Y412397D01*
X396731Y412379D01*
X396769Y412322D01*
X396825Y412247D01*
X396975Y412041D01*
X397181Y411797D01*
X397443Y411497D01*
X397762Y411198D01*
X398156Y410879D01*
X398587Y410560D01*
X398606D01*
X398624Y410541D01*
X398681Y410504D01*
X398756Y410466D01*
X398849Y410410D01*
X398943Y410354D01*
X399224Y410223D01*
X399562Y410054D01*
X399974Y409885D01*
X400461Y409717D01*
X400986Y409548D01*
X401005D01*
X401080Y409529D01*
X401193Y409492D01*
X401342Y409454D01*
X401530Y409417D01*
X401736Y409379D01*
X401998Y409323D01*
X402261Y409267D01*
X402580Y409211D01*
X402898Y409173D01*
X403236Y409117D01*
X403611Y409079D01*
X404360Y409004D01*
X405166Y408986D01*
X405448D01*
X405654Y409004D01*
X405916D01*
X406216Y409023D01*
X406554Y409061D01*
X406928Y409079D01*
X407341Y409136D01*
X407753Y409192D01*
X408672Y409323D01*
X409590Y409529D01*
X410059Y409642D01*
X410528Y409792D01*
X410546D01*
X410621Y409829D01*
X410715Y409867D01*
X410865Y409923D01*
X411034Y409998D01*
X411221Y410073D01*
X411446Y410185D01*
X411671Y410298D01*
X412177Y410579D01*
X412702Y410935D01*
X413189Y411348D01*
X413433Y411591D01*
X413639Y411835D01*
X413658Y411854D01*
X413695Y411891D01*
X413733Y411966D01*
X413808Y412079D01*
X413883Y412210D01*
X413977Y412360D01*
X414089Y412528D01*
X414183Y412716D01*
X414389Y413166D01*
X414558Y413653D01*
X414633Y413916D01*
X414689Y414197D01*
X414708Y414478D01*
X414726Y414759D01*
Y410354D01*
Y414909D01*
X414708Y415022D01*
X414689Y415153D01*
X414670Y415322D01*
X414633Y415509D01*
X414595Y415715D01*
X414464Y416146D01*
X414389Y416390D01*
X414277Y416634D01*
X414145Y416896D01*
X414014Y417159D01*
X413845Y417402D01*
X413658Y417665D01*
X413639Y417683D01*
X413602Y417721D01*
X413546Y417796D01*
X413471Y417890D01*
X413358Y418002D01*
X413227Y418133D01*
X413077Y418283D01*
X412908Y418433D01*
X412702Y418583D01*
X412496Y418752D01*
X412252Y418921D01*
X411990Y419089D01*
X411727Y419258D01*
X411427Y419408D01*
X410790Y419670D01*
X410771Y419689D01*
X410677Y419708D01*
X410546Y419745D01*
X410359Y419820D01*
X410134Y419877D01*
X409853Y419952D01*
X409534Y420045D01*
X409178Y420120D01*
X408803Y420214D01*
X408372Y420289D01*
X407941Y420364D01*
X407453Y420439D01*
X406966Y420495D01*
X406460Y420533D01*
X405916Y420551D01*
X405373Y420570D01*
D02*
G37*
G36*
X398268Y406849D02*
X398231D01*
X398118Y406830D01*
X397949Y406811D01*
X397725Y406774D01*
X397481Y406680D01*
X397219Y406567D01*
X396956Y406418D01*
X396712Y406193D01*
X396694Y406155D01*
X396619Y406080D01*
X396506Y405930D01*
X396394Y405761D01*
X396281Y405518D01*
X396169Y405255D01*
X396094Y404955D01*
X396075Y404637D01*
Y404599D01*
X396094Y404487D01*
X396113Y404318D01*
X396150Y404093D01*
X396225Y403849D01*
X396338Y403587D01*
X396506Y403325D01*
X396712Y403081D01*
X396750Y403062D01*
X396825Y402987D01*
X396956Y402875D01*
X397144Y402762D01*
X397368Y402650D01*
X397631Y402537D01*
X397931Y402462D01*
X398268Y402444D01*
X396075D01*
D01*
X400480D01*
Y404674D01*
X400461Y404787D01*
X400443Y404955D01*
X400405Y405180D01*
X400311Y405424D01*
X400199Y405686D01*
X400049Y405949D01*
X399824Y406193D01*
X399787Y406230D01*
X399712Y406305D01*
X399562Y406399D01*
X399393Y406530D01*
X399149Y406642D01*
X398887Y406755D01*
X398587Y406830D01*
X398268Y406849D01*
D02*
G37*
G36*
X401605Y399913D02*
X396412Y398901D01*
Y399913D01*
Y388347D01*
X414726D01*
X396694D01*
X396712Y388366D01*
X396769Y388403D01*
X396844Y388478D01*
X396937Y388553D01*
X397087Y388666D01*
X397237Y388797D01*
X397425Y388947D01*
X397631Y389134D01*
X397856Y389303D01*
X398100Y389509D01*
X398624Y389940D01*
X399206Y390409D01*
X399824Y390915D01*
X400480Y391421D01*
X401136Y391927D01*
X401774Y392434D01*
X402411Y392902D01*
X403011Y393333D01*
X403554Y393708D01*
X403817Y393877D01*
X404061Y394008D01*
X404267Y394139D01*
X404473Y394252D01*
X404492Y394271D01*
X404567Y394289D01*
X404679Y394346D01*
X404810Y394421D01*
X404998Y394496D01*
X405204Y394571D01*
X405448Y394664D01*
X405710Y394777D01*
X405991Y394870D01*
X406310Y394964D01*
X406966Y395114D01*
X407660Y395245D01*
X408016Y395264D01*
X408372Y395283D01*
X408391D01*
X408428D01*
X408503D01*
X408597Y395264D01*
X408728D01*
X408859Y395245D01*
X409178Y395170D01*
X409553Y395077D01*
X409928Y394927D01*
X410321Y394702D01*
X410509Y394571D01*
X410677Y394421D01*
X410696Y394402D01*
X410715Y394383D01*
X410771Y394327D01*
X410827Y394271D01*
X410978Y394083D01*
X411146Y393839D01*
X411315Y393521D01*
X411465Y393165D01*
X411577Y392752D01*
X411596Y392527D01*
X411615Y392302D01*
Y392209D01*
X411596Y392115D01*
X411577Y391965D01*
X411559Y391796D01*
X411502Y391609D01*
X411446Y391384D01*
X411352Y391159D01*
X411259Y390896D01*
X411109Y390653D01*
X410959Y390390D01*
X410752Y390128D01*
X410528Y389865D01*
X410246Y389603D01*
X409928Y389378D01*
X409572Y389153D01*
X409740Y388647D01*
X409778D01*
X409853Y388685D01*
X409984Y388722D01*
X410153Y388778D01*
X410378Y388853D01*
X410603Y388947D01*
X410884Y389059D01*
X411165Y389191D01*
X411783Y389491D01*
X412402Y389865D01*
X412702Y390090D01*
X413002Y390315D01*
X413264Y390559D01*
X413508Y390821D01*
X413527Y390840D01*
X413564Y390896D01*
X413620Y390971D01*
X413695Y391084D01*
X413789Y391215D01*
X413902Y391384D01*
X413995Y391571D01*
X414127Y391796D01*
X414239Y392021D01*
X414333Y392284D01*
X414445Y392565D01*
X414539Y392865D01*
X414614Y393183D01*
X414670Y393502D01*
X414708Y393839D01*
X414726Y394196D01*
Y394421D01*
X414708Y394552D01*
X414689Y394683D01*
X414651Y395020D01*
X414576Y395414D01*
X414464Y395826D01*
X414295Y396258D01*
X414089Y396689D01*
Y396707D01*
X414052Y396745D01*
X414033Y396801D01*
X413977Y396876D01*
X413827Y397082D01*
X413639Y397326D01*
X413377Y397607D01*
X413077Y397907D01*
X412739Y398188D01*
X412346Y398451D01*
X412327D01*
X412290Y398470D01*
X412233Y398507D01*
X412158Y398545D01*
X411952Y398657D01*
X411671Y398769D01*
X411352Y398882D01*
X410996Y398994D01*
X410640Y399069D01*
X410265Y399088D01*
X410246D01*
X410190D01*
X410096D01*
X409965Y399069D01*
X409796Y399051D01*
X409609Y399032D01*
X409403Y399013D01*
X409159Y398957D01*
X408897Y398919D01*
X408616Y398844D01*
X408016Y398676D01*
X407697Y398563D01*
X407378Y398432D01*
X407041Y398263D01*
X406704Y398095D01*
X406685Y398076D01*
X406591Y398038D01*
X406441Y397945D01*
X406254Y397813D01*
X406010Y397645D01*
X405691Y397439D01*
X405335Y397176D01*
X404923Y396876D01*
X404473Y396501D01*
X403967Y396089D01*
X403404Y395620D01*
X402786Y395077D01*
X402130Y394477D01*
X401436Y393802D01*
X400686Y393071D01*
X399880Y392265D01*
Y396614D01*
X399899Y396914D01*
Y397232D01*
X399936Y397532D01*
X399955Y397795D01*
X399974Y397907D01*
X399993Y398001D01*
Y398020D01*
X400011Y398076D01*
X400049Y398151D01*
X400087Y398245D01*
X400199Y398470D01*
X400386Y398694D01*
X400405Y398713D01*
X400443Y398751D01*
X400536Y398807D01*
X400649Y398901D01*
X400818Y398994D01*
X401024Y399126D01*
X401286Y399257D01*
X401605Y399426D01*
Y399913D01*
D02*
G37*
G36*
X414352Y387391D02*
X396000D01*
X413864D01*
Y387354D01*
X413845Y387297D01*
X413827Y387223D01*
X413770Y387035D01*
X413677Y386810D01*
X413527Y386529D01*
X413358Y386248D01*
X413114Y385948D01*
X412814Y385648D01*
X412777Y385629D01*
X412739Y385592D01*
X412664Y385554D01*
X412589Y385498D01*
X412477Y385423D01*
X412346Y385329D01*
X412177Y385235D01*
X411990Y385123D01*
X411765Y385010D01*
X411502Y384879D01*
X411221Y384729D01*
X410902Y384561D01*
X410528Y384392D01*
X410134Y384204D01*
X409703Y383998D01*
X396000Y377812D01*
Y377381D01*
X410265Y371252D01*
X410303Y371233D01*
X410378Y371195D01*
X410509Y371139D01*
X410677Y371083D01*
X410884Y370989D01*
X411109Y370877D01*
X411352Y370764D01*
X411615Y370652D01*
X412140Y370408D01*
X412383Y370277D01*
X412627Y370164D01*
X412833Y370052D01*
X413021Y369939D01*
X413171Y369846D01*
X413283Y369771D01*
X413302Y369752D01*
X413358Y369696D01*
X413433Y369602D01*
X413527Y369452D01*
X413620Y369265D01*
X413714Y369021D01*
X413808Y368702D01*
X413864Y368346D01*
X414352D01*
Y387391D01*
D02*
G37*
G36*
X396000Y374982D02*
Y368346D01*
D01*
Y374982D01*
D02*
G37*
G36*
X414352Y360136D02*
Y358842D01*
X409047D01*
Y358355D01*
X409066D01*
X409140Y358336D01*
X409234Y358317D01*
X409365Y358280D01*
X409515Y358242D01*
X409703Y358186D01*
X410115Y358074D01*
X410565Y357924D01*
X411034Y357736D01*
X411465Y357511D01*
X411652Y357399D01*
X411821Y357268D01*
X411840D01*
X411858Y357230D01*
X411971Y357136D01*
X412121Y356987D01*
X412308Y356762D01*
X412515Y356480D01*
X412721Y356143D01*
X412908Y355749D01*
X413077Y355299D01*
X413096Y355262D01*
Y355224D01*
X413114Y355149D01*
X413133Y355056D01*
X413152Y354962D01*
X413171Y354831D01*
X413208Y354681D01*
X413227Y354493D01*
X413246Y354287D01*
X413264Y354062D01*
X413283Y353819D01*
X413302Y353537D01*
Y353219D01*
X413321Y352881D01*
Y350651D01*
X406010D01*
Y351175D01*
X406029Y351288D01*
X406048Y351438D01*
X406066Y351588D01*
X406141Y351963D01*
X406272Y352375D01*
X406366Y352581D01*
X406460Y352788D01*
X406591Y352994D01*
X406722Y353181D01*
X406891Y353350D01*
X407079Y353500D01*
X407097D01*
X407135Y353537D01*
X407191Y353575D01*
X407285Y353631D01*
X407397Y353687D01*
X407528Y353762D01*
X407697Y353837D01*
X407884Y353912D01*
X408091Y353987D01*
X408316Y354081D01*
X408578Y354156D01*
X408859Y354250D01*
X409178Y354325D01*
X409515Y354381D01*
X409871Y354437D01*
X410246Y354493D01*
Y354981D01*
X400855D01*
Y354493D01*
X400874D01*
X400930D01*
X401005Y354475D01*
X401118Y354456D01*
X401230Y354437D01*
X401380Y354418D01*
X401736Y354343D01*
X402130Y354250D01*
X402542Y354137D01*
X402954Y353987D01*
X403348Y353800D01*
X403367D01*
X403386Y353781D01*
X403517Y353706D01*
X403686Y353612D01*
X403892Y353462D01*
X404117Y353294D01*
X404323Y353088D01*
X404529Y352863D01*
X404679Y352619D01*
X404698Y352581D01*
X404735Y352488D01*
X404791Y352338D01*
X404848Y352113D01*
X404904Y351850D01*
X404960Y351513D01*
X404998Y351101D01*
X405017Y350651D01*
X399955D01*
X399936D01*
X399899D01*
X399824D01*
X399712D01*
X399599D01*
X399468D01*
X399168Y350669D01*
X398868D01*
X398568Y350707D01*
X398437D01*
X398306Y350726D01*
X398212Y350744D01*
X398137Y350763D01*
X398118D01*
X398081Y350782D01*
X398024Y350819D01*
X397949Y350876D01*
X397781Y351026D01*
X397687Y351119D01*
X397612Y351232D01*
Y351250D01*
X397575Y351307D01*
X397556Y351382D01*
X397518Y351513D01*
X397481Y351663D01*
X397443Y351850D01*
X397425Y352094D01*
X397406Y352356D01*
Y353669D01*
X397425Y353837D01*
X397443Y354062D01*
X397462Y354306D01*
X397500Y354568D01*
X397556Y354868D01*
X397687Y355506D01*
X397781Y355843D01*
X397893Y356180D01*
X398024Y356518D01*
X398193Y356855D01*
X398362Y357155D01*
X398568Y357455D01*
X398587Y357474D01*
X398624Y357530D01*
X398699Y357605D01*
X398793Y357699D01*
X398906Y357830D01*
X399055Y357980D01*
X399243Y358130D01*
X399449Y358299D01*
X399674Y358467D01*
X399936Y358655D01*
X400237Y358842D01*
X400555Y359011D01*
X400892Y359180D01*
X401267Y359348D01*
X401680Y359498D01*
X402111Y359630D01*
Y360136D01*
X396412Y359311D01*
Y359348D01*
Y343809D01*
X405382D01*
X396900D01*
Y344521D01*
X396919Y344671D01*
X396937Y344840D01*
X396956Y345046D01*
X397012Y345252D01*
X397068Y345458D01*
X397162Y345646D01*
X397181Y345664D01*
X397200Y345702D01*
X397237Y345777D01*
X397312Y345852D01*
X397406Y345927D01*
X397518Y346021D01*
X397650Y346114D01*
X397800Y346189D01*
X397818D01*
X397875Y346208D01*
X397968Y346245D01*
X398137Y346264D01*
X398343Y346302D01*
X398493D01*
X398643Y346320D01*
X398831D01*
X399018Y346339D01*
X399243D01*
X399487D01*
X411277D01*
X411296D01*
X411334D01*
X411390D01*
X411465D01*
X411671D01*
X411915D01*
X412177Y346320D01*
X412421Y346302D01*
X412627Y346283D01*
X412702D01*
X412758Y346264D01*
X412777D01*
X412833Y346245D01*
X412927Y346208D01*
X413021Y346152D01*
X413152Y346096D01*
X413264Y346002D01*
X413377Y345908D01*
X413489Y345777D01*
X413508Y345758D01*
X413546Y345683D01*
X413602Y345571D01*
X413677Y345421D01*
X413752Y345215D01*
X413808Y344971D01*
X413845Y344708D01*
X413864Y344390D01*
Y343809D01*
X414352D01*
Y360136D01*
D02*
G37*
G36*
Y342665D02*
X396000D01*
Y324089D01*
Y339853D01*
X410940Y327706D01*
X399543D01*
X399524D01*
X399468D01*
X399393D01*
X399299Y327725D01*
X399168D01*
X399018Y327744D01*
X398699Y327800D01*
X398343Y327875D01*
X398006Y328006D01*
X397687Y328175D01*
X397556Y328288D01*
X397443Y328400D01*
X397425Y328438D01*
X397368Y328531D01*
X397275Y328681D01*
X397181Y328869D01*
X397068Y329112D01*
X396993Y329394D01*
X396919Y329693D01*
X396900Y330031D01*
Y330462D01*
X396412D01*
Y324089D01*
X396900D01*
Y324220D01*
X396919Y324332D01*
Y324445D01*
X396937Y324576D01*
X396975Y324895D01*
X397050Y325232D01*
X397162Y325569D01*
X397294Y325869D01*
X397387Y326019D01*
X397500Y326132D01*
X397537Y326151D01*
X397612Y326226D01*
X397762Y326319D01*
X397987Y326432D01*
X398268Y326544D01*
X398624Y326638D01*
X398812Y326675D01*
X399037Y326713D01*
X399281Y326732D01*
X399543D01*
X412196D01*
X412664Y326338D01*
X412702Y326319D01*
X412777Y326244D01*
X412908Y326132D01*
X413058Y326001D01*
X413208Y325851D01*
X413358Y325682D01*
X413489Y325513D01*
X413602Y325345D01*
X413620Y325326D01*
X413639Y325270D01*
X413677Y325157D01*
X413714Y325026D01*
X413770Y324857D01*
X413808Y324632D01*
X413845Y324389D01*
X413864Y324089D01*
X414352D01*
Y330462D01*
X403217Y339328D01*
X410940D01*
X410959D01*
X411015D01*
X411090D01*
X411202D01*
X411334Y339310D01*
X411484D01*
X411821Y339272D01*
X412177Y339216D01*
X412533Y339122D01*
X412852Y339010D01*
X413002Y338935D01*
X413114Y338860D01*
X413152Y338822D01*
X413227Y338729D01*
X413358Y338579D01*
X413489Y338354D01*
X413639Y338073D01*
X413752Y337698D01*
X413808Y337491D01*
X413845Y337267D01*
X413864Y337004D01*
Y336742D01*
X414352D01*
Y342665D01*
D02*
G37*
G36*
X414595Y322739D02*
X396000D01*
Y303694D01*
D01*
Y313048D01*
X396019Y312935D01*
Y312785D01*
X396037Y312635D01*
X396056Y312467D01*
X396094Y312054D01*
X396169Y311586D01*
X396281Y311061D01*
X396412Y310498D01*
X396581Y309917D01*
X396806Y309299D01*
X397068Y308680D01*
X397368Y308062D01*
X397743Y307443D01*
X398193Y306862D01*
X398681Y306299D01*
X398962Y306037D01*
X399262Y305775D01*
X399299Y305756D01*
X399374Y305681D01*
X399524Y305587D01*
X399730Y305456D01*
X399974Y305287D01*
X400274Y305119D01*
X400611Y304931D01*
X401005Y304744D01*
X401436Y304537D01*
X401905Y304350D01*
X402430Y304181D01*
X402954Y304013D01*
X403536Y303881D01*
X404136Y303788D01*
X404773Y303713D01*
X405429Y303694D01*
X414595D01*
X405598D01*
X405710Y303713D01*
X405822D01*
X406104Y303731D01*
X406441Y303769D01*
X406835Y303844D01*
X407285Y303919D01*
X407753Y304031D01*
X408278Y304181D01*
X408803Y304350D01*
X409365Y304575D01*
X409928Y304837D01*
X410490Y305137D01*
X411034Y305512D01*
X411577Y305924D01*
X412083Y306393D01*
X412121Y306431D01*
X412196Y306524D01*
X412327Y306674D01*
X412496Y306880D01*
X412702Y307143D01*
X412927Y307462D01*
X413152Y307836D01*
X413396Y308249D01*
X413639Y308718D01*
X413864Y309224D01*
X414070Y309767D01*
X414258Y310367D01*
X414427Y310986D01*
X414539Y311661D01*
X414595Y312354D01*
Y313498D01*
X414576Y313797D01*
X414558Y314172D01*
X414502Y314585D01*
X414427Y315053D01*
X414333Y315560D01*
X414220Y316103D01*
X414052Y316665D01*
X413845Y317247D01*
X413602Y317847D01*
X413302Y318428D01*
X412965Y318990D01*
X412552Y319534D01*
X412083Y320058D01*
X412046Y320096D01*
X411971Y320171D01*
X411821Y320302D01*
X411615Y320471D01*
X411352Y320677D01*
X411034Y320902D01*
X410659Y321146D01*
X410246Y321408D01*
X409796Y321652D01*
X409290Y321895D01*
X408747Y322120D01*
X408147Y322327D01*
X407528Y322495D01*
X406853Y322626D01*
X406160Y322701D01*
X405429Y322739D01*
X414595D01*
D02*
G37*
G36*
X396900Y302869D02*
X396412D01*
Y295315D01*
Y297208D01*
X404585Y291416D01*
Y290254D01*
X399562D01*
X399543D01*
X399505D01*
X399430D01*
X399337D01*
X399206D01*
X399074Y290272D01*
X398793D01*
X398474Y290291D01*
X398175Y290329D01*
X397912Y290366D01*
X397800Y290385D01*
X397725Y290422D01*
X397706Y290441D01*
X397668Y290460D01*
X397593Y290497D01*
X397518Y290572D01*
X397406Y290666D01*
X397312Y290778D01*
X397219Y290910D01*
X397125Y291060D01*
Y291078D01*
X397087Y291153D01*
X397050Y291266D01*
X397012Y291434D01*
X396975Y291678D01*
X396937Y291959D01*
X396919Y292316D01*
X396900Y292747D01*
X396412D01*
Y293571D01*
Y283561D01*
X405382D01*
X396900D01*
Y283768D01*
X396919Y283974D01*
X396937Y284236D01*
X396956Y284517D01*
X396993Y284780D01*
X397050Y285042D01*
X397087Y285136D01*
X397125Y285230D01*
X397144Y285249D01*
X397162Y285305D01*
X397219Y285380D01*
X397294Y285473D01*
X397481Y285699D01*
X397593Y285792D01*
X397725Y285867D01*
X397743D01*
X397800Y285905D01*
X397912Y285923D01*
X398100Y285961D01*
X398212Y285980D01*
X398343Y285998D01*
X398493Y286017D01*
X398662D01*
X398849Y286036D01*
X399055Y286055D01*
X399299D01*
X399562D01*
X411202D01*
X411221D01*
X411259D01*
X411334D01*
X411427D01*
X411559D01*
X411671D01*
X411971Y286036D01*
X412290Y286017D01*
X412571Y285980D01*
X412833Y285923D01*
X412946Y285905D01*
X413021Y285867D01*
X413039D01*
X413077Y285830D01*
X413152Y285792D01*
X413246Y285717D01*
X413339Y285623D01*
X413433Y285511D01*
X413527Y285380D01*
X413620Y285230D01*
X413639Y285211D01*
X413658Y285136D01*
X413695Y285024D01*
X413752Y284855D01*
X413789Y284630D01*
X413827Y284330D01*
X413845Y283993D01*
X413864Y283561D01*
X414352D01*
Y292690D01*
Y292409D01*
X414333Y292690D01*
Y292990D01*
X414314Y293347D01*
X414295Y293703D01*
X414239Y294490D01*
X414145Y295277D01*
X414108Y295652D01*
X414033Y296008D01*
X413958Y296346D01*
X413883Y296646D01*
Y296664D01*
X413864Y296721D01*
X413827Y296796D01*
X413789Y296889D01*
X413733Y297021D01*
X413677Y297171D01*
X413508Y297527D01*
X413283Y297920D01*
X412983Y298333D01*
X412646Y298745D01*
X412215Y299120D01*
X412196Y299139D01*
X412158Y299158D01*
X412102Y299214D01*
X412008Y299270D01*
X411896Y299345D01*
X411746Y299420D01*
X411596Y299514D01*
X411409Y299607D01*
X411221Y299682D01*
X410996Y299776D01*
X410509Y299926D01*
X409965Y300039D01*
X409684Y300057D01*
X409384Y300076D01*
X409365D01*
X409290D01*
X409197D01*
X409047Y300057D01*
X408878Y300039D01*
X408690Y300001D01*
X408466Y299964D01*
X408222Y299889D01*
X407978Y299814D01*
X407716Y299720D01*
X407435Y299607D01*
X407153Y299476D01*
X406891Y299307D01*
X406610Y299101D01*
X406347Y298895D01*
X406104Y298633D01*
Y298614D01*
X406066Y298595D01*
X406029Y298539D01*
X405973Y298464D01*
X405897Y298370D01*
X405822Y298258D01*
X405729Y298127D01*
X405635Y297977D01*
X405541Y297808D01*
X405448Y297620D01*
X405335Y297414D01*
X405241Y297171D01*
X405035Y296664D01*
X404866Y296083D01*
X398793Y300395D01*
X398774Y300413D01*
X398737Y300432D01*
X398681Y300470D01*
X398606Y300526D01*
X398418Y300676D01*
X398175Y300863D01*
X397931Y301051D01*
X397687Y301257D01*
X397481Y301444D01*
X397406Y301519D01*
X397331Y301594D01*
X397312Y301613D01*
X397275Y301688D01*
X397200Y301801D01*
X397125Y301951D01*
X397050Y302138D01*
X396975Y302363D01*
X396937Y302607D01*
X396900Y302869D01*
D02*
G37*
G36*
X405316Y281931D02*
X396412D01*
X404998D01*
X404829Y281912D01*
X404642Y281893D01*
X404417Y281874D01*
X404173Y281856D01*
X403629Y281781D01*
X403048Y281668D01*
X402430Y281518D01*
X401830Y281312D01*
X401811D01*
X401755Y281293D01*
X401680Y281256D01*
X401567Y281200D01*
X401436Y281143D01*
X401267Y281068D01*
X400911Y280900D01*
X400480Y280656D01*
X400049Y280394D01*
X399599Y280094D01*
X399187Y279737D01*
X399168Y279719D01*
X399149Y279700D01*
X399093Y279644D01*
X399018Y279569D01*
X398831Y279363D01*
X398587Y279100D01*
X398325Y278782D01*
X398043Y278388D01*
X397781Y277975D01*
X397518Y277507D01*
Y277488D01*
X397500Y277451D01*
X397462Y277376D01*
X397425Y277282D01*
X397368Y277169D01*
X397312Y277019D01*
X397237Y276851D01*
X397162Y276644D01*
X397087Y276438D01*
X397012Y276195D01*
X396937Y275951D01*
X396862Y275670D01*
X396694Y275070D01*
X396562Y274414D01*
Y274376D01*
X396544Y274320D01*
Y274264D01*
X396525Y274170D01*
Y274076D01*
X396506Y273945D01*
X396487Y273795D01*
X396469Y273627D01*
Y273439D01*
X396450Y273233D01*
X396431Y273008D01*
Y272764D01*
X396412Y272483D01*
Y263860D01*
X405382D01*
X396900D01*
Y264573D01*
X396919Y264704D01*
X396937Y264891D01*
X396956Y265079D01*
X397012Y265285D01*
X397068Y265472D01*
X397144Y265641D01*
X397162Y265660D01*
X397181Y265716D01*
X397237Y265791D01*
X397312Y265885D01*
X397406Y265979D01*
X397518Y266091D01*
X397650Y266185D01*
X397800Y266260D01*
X397818D01*
X397875Y266278D01*
X397968Y266297D01*
X398118Y266335D01*
X398212D01*
X398343Y266353D01*
X398474D01*
X398624Y266372D01*
X398812D01*
X399018Y266391D01*
X399243D01*
X399487D01*
X411277D01*
X411296D01*
X411334D01*
X411409D01*
X411502D01*
X411727D01*
X412008Y266372D01*
X412290Y266353D01*
X412571Y266335D01*
X412814Y266297D01*
X412908Y266260D01*
X412983Y266241D01*
X413002D01*
X413039Y266203D01*
X413114Y266166D01*
X413189Y266110D01*
X413283Y266035D01*
X413396Y265922D01*
X413508Y265791D01*
X413602Y265641D01*
X413620Y265622D01*
X413639Y265566D01*
X413677Y265472D01*
X413733Y265322D01*
X413789Y265154D01*
X413827Y264947D01*
X413845Y264723D01*
X413864Y264441D01*
Y263860D01*
X414352D01*
Y272202D01*
X414333Y272408D01*
Y272689D01*
X414314Y273008D01*
X414277Y273345D01*
X414239Y273739D01*
X414202Y274133D01*
X414145Y274564D01*
X413977Y275426D01*
X413770Y276270D01*
X413620Y276682D01*
X413471Y277057D01*
X413452Y277076D01*
X413414Y277169D01*
X413358Y277282D01*
X413264Y277451D01*
X413152Y277657D01*
X413021Y277882D01*
X412852Y278144D01*
X412664Y278407D01*
X412458Y278706D01*
X412215Y279006D01*
X411952Y279306D01*
X411652Y279606D01*
X411334Y279906D01*
X410996Y280187D01*
X410621Y280450D01*
X410228Y280693D01*
X410209Y280712D01*
X410134Y280750D01*
X410003Y280806D01*
X409853Y280881D01*
X409647Y280975D01*
X409403Y281087D01*
X409122Y281200D01*
X408803Y281312D01*
X408447Y281425D01*
X408072Y281537D01*
X407660Y281649D01*
X407247Y281743D01*
X406778Y281818D01*
X406310Y281874D01*
X405822Y281912D01*
X405316Y281931D01*
D02*
G37*
G36*
Y236024D02*
X396412D01*
X404998D01*
X404829Y236005D01*
X404642Y235986D01*
X404417Y235967D01*
X404173Y235949D01*
X403629Y235874D01*
X403048Y235761D01*
X402430Y235611D01*
X401830Y235405D01*
X401811D01*
X401755Y235386D01*
X401680Y235349D01*
X401567Y235293D01*
X401436Y235236D01*
X401267Y235161D01*
X400911Y234993D01*
X400480Y234749D01*
X400049Y234487D01*
X399599Y234187D01*
X399187Y233831D01*
X399168Y233812D01*
X399149Y233793D01*
X399093Y233737D01*
X399018Y233662D01*
X398831Y233456D01*
X398587Y233193D01*
X398325Y232875D01*
X398043Y232481D01*
X397781Y232068D01*
X397518Y231600D01*
Y231581D01*
X397500Y231544D01*
X397462Y231469D01*
X397425Y231375D01*
X397368Y231262D01*
X397312Y231112D01*
X397237Y230944D01*
X397162Y230737D01*
X397087Y230531D01*
X397012Y230288D01*
X396937Y230044D01*
X396862Y229763D01*
X396694Y229163D01*
X396562Y228507D01*
Y228469D01*
X396544Y228413D01*
Y228357D01*
X396525Y228263D01*
Y228169D01*
X396506Y228038D01*
X396487Y227888D01*
X396469Y227720D01*
Y227532D01*
X396450Y227326D01*
X396431Y227101D01*
Y226857D01*
X396412Y226576D01*
Y217953D01*
X405382D01*
X396900D01*
Y218666D01*
X396919Y218797D01*
X396937Y218984D01*
X396956Y219172D01*
X397012Y219378D01*
X397068Y219565D01*
X397144Y219734D01*
X397162Y219753D01*
X397181Y219809D01*
X397237Y219884D01*
X397312Y219978D01*
X397406Y220072D01*
X397518Y220184D01*
X397650Y220278D01*
X397800Y220353D01*
X397818D01*
X397875Y220371D01*
X397968Y220390D01*
X398118Y220428D01*
X398212D01*
X398343Y220446D01*
X398474D01*
X398624Y220465D01*
X398812D01*
X399018Y220484D01*
X399243D01*
X399487D01*
X411277D01*
X411296D01*
X411334D01*
X411409D01*
X411502D01*
X411727D01*
X412008Y220465D01*
X412290Y220446D01*
X412571Y220428D01*
X412814Y220390D01*
X412908Y220353D01*
X412983Y220334D01*
X413002D01*
X413039Y220296D01*
X413114Y220259D01*
X413189Y220203D01*
X413283Y220128D01*
X413396Y220015D01*
X413508Y219884D01*
X413602Y219734D01*
X413620Y219715D01*
X413639Y219659D01*
X413677Y219565D01*
X413733Y219415D01*
X413789Y219247D01*
X413827Y219041D01*
X413845Y218816D01*
X413864Y218534D01*
Y217953D01*
X414352D01*
Y226295D01*
X414333Y226501D01*
Y226782D01*
X414314Y227101D01*
X414277Y227438D01*
X414239Y227832D01*
X414202Y228226D01*
X414145Y228657D01*
X413977Y229519D01*
X413770Y230363D01*
X413620Y230775D01*
X413471Y231150D01*
X413452Y231169D01*
X413414Y231262D01*
X413358Y231375D01*
X413264Y231544D01*
X413152Y231750D01*
X413021Y231975D01*
X412852Y232237D01*
X412664Y232500D01*
X412458Y232799D01*
X412215Y233099D01*
X411952Y233399D01*
X411652Y233699D01*
X411334Y233999D01*
X410996Y234280D01*
X410621Y234543D01*
X410228Y234786D01*
X410209Y234805D01*
X410134Y234843D01*
X410003Y234899D01*
X409853Y234974D01*
X409647Y235068D01*
X409403Y235180D01*
X409122Y235293D01*
X408803Y235405D01*
X408447Y235518D01*
X408072Y235630D01*
X407660Y235742D01*
X407247Y235836D01*
X406778Y235911D01*
X406310Y235967D01*
X405822Y236005D01*
X405316Y236024D01*
D02*
G37*
G36*
X402711Y216641D02*
D01*
X396412Y215966D01*
Y216641D01*
X402711D01*
X396412D01*
Y200033D01*
X405382D01*
X396900D01*
Y200745D01*
X396919Y200895D01*
X396937Y201064D01*
X396956Y201270D01*
X397012Y201476D01*
X397068Y201682D01*
X397162Y201870D01*
X397181Y201889D01*
X397200Y201926D01*
X397237Y202001D01*
X397312Y202076D01*
X397406Y202151D01*
X397518Y202245D01*
X397650Y202339D01*
X397800Y202414D01*
X397818D01*
X397875Y202432D01*
X397968Y202470D01*
X398137Y202488D01*
X398343Y202526D01*
X398493D01*
X398643Y202545D01*
X398831D01*
X399018Y202563D01*
X399243D01*
X399487D01*
X411277D01*
X411296D01*
X411334D01*
X411409D01*
X411502D01*
X411727D01*
X412008Y202545D01*
X412290Y202526D01*
X412571Y202507D01*
X412814Y202470D01*
X412908Y202432D01*
X412983Y202414D01*
X413002D01*
X413039Y202376D01*
X413114Y202339D01*
X413189Y202282D01*
X413283Y202207D01*
X413396Y202095D01*
X413508Y201964D01*
X413602Y201814D01*
X413620Y201795D01*
X413639Y201739D01*
X413677Y201645D01*
X413733Y201495D01*
X413789Y201326D01*
X413827Y201120D01*
X413845Y200895D01*
X413864Y200614D01*
Y200033D01*
X414352D01*
Y209593D01*
X413864D01*
Y208674D01*
X413845Y208524D01*
X413827Y208356D01*
X413789Y208150D01*
X413752Y207943D01*
X413677Y207737D01*
X413583Y207550D01*
Y207531D01*
X413546Y207493D01*
X413508Y207437D01*
X413433Y207362D01*
X413339Y207269D01*
X413227Y207175D01*
X413096Y207081D01*
X412946Y207006D01*
X412927D01*
X412871Y206987D01*
X412777Y206969D01*
X412627Y206950D01*
X412402Y206912D01*
X412271D01*
X412102Y206894D01*
X411934D01*
X411746Y206875D01*
X411521D01*
X411277D01*
X399843D01*
X399824D01*
X399787D01*
X399712D01*
X399618D01*
X399393D01*
X399112Y206894D01*
X398812Y206912D01*
X398531Y206931D01*
X398287Y206969D01*
X398175Y207006D01*
X398100Y207025D01*
X398081D01*
X398043Y207062D01*
X397968Y207100D01*
X397893Y207156D01*
X397800Y207250D01*
X397706Y207344D01*
X397612Y207475D01*
X397537Y207644D01*
Y207662D01*
X397518Y207718D01*
X397500Y207812D01*
X397481Y207981D01*
X397462Y208187D01*
X397443Y208468D01*
Y208637D01*
X397425Y208824D01*
Y210980D01*
X397443Y211093D01*
Y211243D01*
X397481Y211580D01*
X397537Y211955D01*
X397631Y212348D01*
X397743Y212742D01*
X397912Y213117D01*
Y213136D01*
X397931Y213155D01*
X397968Y213211D01*
X398006Y213286D01*
X398137Y213454D01*
X398306Y213679D01*
X398531Y213942D01*
X398793Y214223D01*
X399131Y214504D01*
X399505Y214767D01*
X399524D01*
X399562Y214804D01*
X399618Y214842D01*
X399712Y214879D01*
X399824Y214954D01*
X399955Y215029D01*
X400124Y215104D01*
X400311Y215198D01*
X400536Y215292D01*
X400761Y215404D01*
X401024Y215498D01*
X401324Y215629D01*
X401624Y215741D01*
X401961Y215854D01*
X402317Y215985D01*
X402711Y216098D01*
Y216641D01*
D02*
G37*
%LPD*%
G36*
X408822Y416484D02*
X409272D01*
X409703D01*
X410096Y416465D01*
X410434D01*
X410565D01*
X410696D01*
X410809Y416446D01*
X410884D01*
X410902D01*
X410959D01*
X411052Y416427D01*
X411184D01*
X411334Y416409D01*
X411502Y416371D01*
X411877Y416315D01*
X412308Y416240D01*
X412702Y416128D01*
X412908Y416053D01*
X413077Y415978D01*
X413246Y415903D01*
X413377Y415809D01*
X413396Y415790D01*
X413452Y415753D01*
X413508Y415659D01*
X413602Y415546D01*
X413677Y415396D01*
X413733Y415209D01*
X413789Y414984D01*
X413808Y414722D01*
Y414628D01*
X413789Y414534D01*
X413770Y414403D01*
X413733Y414253D01*
X413677Y414103D01*
X413602Y413953D01*
X413489Y413822D01*
X413471Y413803D01*
X413396Y413747D01*
X413283Y413653D01*
X413114Y413559D01*
X412890Y413447D01*
X412589Y413335D01*
X412252Y413241D01*
X411840Y413166D01*
X411821D01*
X411783D01*
X411690Y413147D01*
X411559D01*
X411352Y413128D01*
X411109Y413110D01*
X410959D01*
X410790Y413091D01*
X410603D01*
X410378D01*
X410153Y413072D01*
X409909D01*
X409628Y413053D01*
X409347D01*
X409028Y413035D01*
X408672D01*
X408297D01*
X407903Y413016D01*
X407491D01*
X407041D01*
X406554D01*
X406048Y412997D01*
X405504D01*
X404923D01*
X404323D01*
X403686D01*
X403667D01*
X403648D01*
X403592D01*
X403517D01*
X403329D01*
X403067D01*
X402767D01*
X402411Y413016D01*
X402036D01*
X401624Y413035D01*
X400761Y413053D01*
X400330Y413091D01*
X399918Y413110D01*
X399524Y413147D01*
X399168Y413166D01*
X398849Y413222D01*
X398568Y413260D01*
X398549D01*
X398531Y413278D01*
X398418Y413297D01*
X398250Y413335D01*
X398062Y413410D01*
X397856Y413484D01*
X397650Y413578D01*
X397462Y413691D01*
X397312Y413822D01*
X397294Y413841D01*
X397275Y413897D01*
X397219Y413972D01*
X397162Y414084D01*
X397106Y414234D01*
X397068Y414403D01*
X397031Y414590D01*
X397012Y414815D01*
Y414928D01*
X397031Y415040D01*
X397068Y415190D01*
X397106Y415340D01*
X397181Y415509D01*
X397294Y415678D01*
X397425Y415809D01*
X397462Y415828D01*
X397575Y415903D01*
X397743Y415978D01*
X397987Y416090D01*
X398306Y416203D01*
X398699Y416315D01*
X399168Y416390D01*
X399712Y416446D01*
X405410Y416502D01*
X405429D01*
X405466D01*
X405523D01*
X405616D01*
X405729D01*
X405841D01*
X406160D01*
X406516D01*
X406947D01*
X407397D01*
X407866D01*
X408822Y416484D01*
D02*
G37*
G36*
X400480Y402444D02*
X398306D01*
X398418Y402462D01*
X398587Y402481D01*
X398793Y402519D01*
X399037Y402593D01*
X399299Y402706D01*
X399562Y402875D01*
X399824Y403081D01*
X399862Y403118D01*
X399936Y403193D01*
X400030Y403325D01*
X400162Y403512D01*
X400274Y403737D01*
X400386Y403999D01*
X400461Y404299D01*
X400480Y404637D01*
Y402444D01*
D02*
G37*
G36*
X412608Y383830D02*
X412702D01*
X412927Y383755D01*
X413058Y383717D01*
X413171Y383642D01*
X413189D01*
X413227Y383605D01*
X413283Y383548D01*
X413339Y383492D01*
X413414Y383398D01*
X413489Y383286D01*
X413564Y383173D01*
X413620Y383023D01*
X413639Y383005D01*
X413658Y382911D01*
X413695Y382799D01*
X413752Y382611D01*
X413789Y382405D01*
X413827Y382142D01*
X413845Y381843D01*
X413864Y381505D01*
X414352D01*
Y376931D01*
X413864D01*
Y376444D01*
X413845Y376238D01*
X413827Y375994D01*
X413789Y375732D01*
X413733Y375469D01*
X413658Y375225D01*
X413564Y375038D01*
Y375019D01*
X413527Y375001D01*
X413414Y374888D01*
X413227Y374794D01*
X413114Y374757D01*
X412983Y374738D01*
X412965D01*
X412946D01*
X412890D01*
X412814Y374757D01*
X412646Y374794D01*
X412421Y374851D01*
X412402D01*
X412346Y374869D01*
X412252Y374926D01*
X412083Y374982D01*
X411971Y375019D01*
X411858Y375076D01*
X411708Y375132D01*
X411559Y375207D01*
X411371Y375282D01*
X411165Y375357D01*
X410940Y375451D01*
X410677Y375563D01*
X401755Y379387D01*
X409703Y382911D01*
X409721D01*
X409759Y382949D01*
X409834Y382967D01*
X409928Y383023D01*
X410059Y383061D01*
X410190Y383117D01*
X410490Y383248D01*
X410809Y383398D01*
X411127Y383530D01*
X411409Y383623D01*
X411540Y383661D01*
X411633Y383698D01*
X411652D01*
X411708Y383717D01*
X411802Y383755D01*
X411915Y383773D01*
X412196Y383830D01*
X412458Y383848D01*
X412477D01*
X412533D01*
X412608Y383830D01*
D02*
G37*
G36*
X413864Y342609D02*
X413845Y342553D01*
Y342478D01*
X413808Y342290D01*
X413752Y342047D01*
X413695Y341784D01*
X413639Y341540D01*
X413564Y341315D01*
X413471Y341128D01*
X413452Y341109D01*
X413433Y341072D01*
X413377Y340997D01*
X413302Y340903D01*
X413189Y340809D01*
X413058Y340697D01*
X412908Y340603D01*
X412721Y340509D01*
X412702D01*
X412627Y340472D01*
X412496Y340453D01*
X412308Y340416D01*
X412065Y340378D01*
X411746Y340341D01*
X411371Y340322D01*
X410940Y340303D01*
X396000D01*
Y342665D01*
X413864D01*
Y342609D01*
D02*
G37*
G36*
X405092Y322720D02*
X404848Y322701D01*
X404567Y322683D01*
X404210Y322626D01*
X403817Y322570D01*
X403404Y322495D01*
X402936Y322383D01*
X402467Y322252D01*
X401961Y322083D01*
X401455Y321895D01*
X400949Y321670D01*
X400424Y321389D01*
X399918Y321089D01*
X399430Y320733D01*
X399393Y320696D01*
X399281Y320602D01*
X399112Y320452D01*
X398887Y320246D01*
X398643Y319965D01*
X398343Y319646D01*
X398043Y319252D01*
X397725Y318803D01*
X397387Y318296D01*
X397087Y317753D01*
X396787Y317134D01*
X396544Y316459D01*
X396319Y315747D01*
X396150Y314960D01*
X396037Y314135D01*
X396019Y313704D01*
X396000Y313254D01*
Y322739D01*
X405279D01*
X405092Y322720D01*
D02*
G37*
G36*
X405785Y317940D02*
X406085D01*
X406422Y317922D01*
X406797Y317903D01*
X407191Y317884D01*
X407622Y317847D01*
X408053Y317790D01*
X408934Y317678D01*
X409365Y317603D01*
X409778Y317509D01*
X410153Y317397D01*
X410509Y317284D01*
X410528D01*
X410584Y317247D01*
X410677Y317209D01*
X410790Y317172D01*
X410940Y317097D01*
X411109Y317022D01*
X411484Y316834D01*
X411896Y316591D01*
X412327Y316291D01*
X412702Y315972D01*
X412871Y315784D01*
X413021Y315597D01*
Y315578D01*
X413058Y315560D01*
X413096Y315503D01*
X413133Y315410D01*
X413189Y315316D01*
X413246Y315203D01*
X413396Y314922D01*
X413527Y314585D01*
X413639Y314191D01*
X413714Y313741D01*
X413752Y313254D01*
Y313141D01*
X413733Y313010D01*
X413714Y312841D01*
X413677Y312654D01*
X413620Y312410D01*
X413546Y312148D01*
X413433Y311867D01*
X413302Y311567D01*
X413133Y311267D01*
X412927Y310948D01*
X412683Y310630D01*
X412402Y310330D01*
X412065Y310030D01*
X411671Y309767D01*
X411221Y309505D01*
X411202Y309486D01*
X411127Y309467D01*
X411015Y309411D01*
X410846Y309336D01*
X410621Y309261D01*
X410359Y309186D01*
X410059Y309093D01*
X409703Y308999D01*
X409309Y308886D01*
X408878Y308792D01*
X408391Y308718D01*
X407847Y308643D01*
X407285Y308568D01*
X406666Y308511D01*
X406010Y308493D01*
X405298Y308474D01*
X405279D01*
X405241D01*
X405185D01*
X405092D01*
X404998D01*
X404866Y308493D01*
X404717D01*
X404548D01*
X404173Y308530D01*
X403723Y308568D01*
X403254Y308605D01*
X402730Y308680D01*
X402186Y308755D01*
X401624Y308867D01*
X401061Y308999D01*
X400499Y309149D01*
X399955Y309336D01*
X399430Y309542D01*
X398943Y309786D01*
X398512Y310067D01*
X398493Y310086D01*
X398456Y310124D01*
X398381Y310180D01*
X398268Y310273D01*
X398156Y310386D01*
X398024Y310536D01*
X397893Y310686D01*
X397762Y310892D01*
X397612Y311098D01*
X397481Y311323D01*
X397350Y311586D01*
X397237Y311867D01*
X397144Y312167D01*
X397068Y312504D01*
X397012Y312841D01*
X396993Y313216D01*
Y313348D01*
X397012Y313441D01*
Y313554D01*
X397031Y313704D01*
X397068Y314023D01*
X397162Y314379D01*
X397275Y314753D01*
X397425Y315128D01*
X397650Y315485D01*
X397668Y315503D01*
X397687Y315541D01*
X397743Y315597D01*
X397818Y315672D01*
X397893Y315766D01*
X398006Y315878D01*
X398156Y316010D01*
X398306Y316141D01*
X398474Y316291D01*
X398681Y316441D01*
X398906Y316591D01*
X399149Y316740D01*
X399412Y316891D01*
X399693Y317040D01*
X400011Y317172D01*
X400349Y317303D01*
X400368D01*
X400443Y317340D01*
X400536Y317359D01*
X400686Y317415D01*
X400874Y317453D01*
X401099Y317509D01*
X401361Y317565D01*
X401661Y317640D01*
X401980Y317696D01*
X402355Y317753D01*
X402748Y317809D01*
X403180Y317865D01*
X403648Y317903D01*
X404136Y317940D01*
X404660Y317959D01*
X405204D01*
X405223D01*
X405241D01*
X405298D01*
X405354D01*
X405541D01*
X405785Y317940D01*
D02*
G37*
G36*
X409703Y295708D02*
X409871Y295690D01*
X410059Y295671D01*
X410284Y295652D01*
X410509Y295615D01*
X410996Y295483D01*
X411502Y295315D01*
X411746Y295202D01*
X411971Y295071D01*
X412196Y294921D01*
X412383Y294752D01*
X412402Y294734D01*
X412421Y294715D01*
X412477Y294659D01*
X412533Y294565D01*
X412608Y294471D01*
X412702Y294340D01*
X412796Y294190D01*
X412890Y294003D01*
X412965Y293796D01*
X413058Y293571D01*
X413152Y293328D01*
X413227Y293047D01*
X413283Y292747D01*
X413339Y292409D01*
X413358Y292053D01*
X413377Y291659D01*
Y290254D01*
X405523D01*
Y291303D01*
X405541Y291453D01*
Y291828D01*
X405560Y292034D01*
X405598Y292484D01*
X405654Y292934D01*
X405729Y293384D01*
X405785Y293571D01*
X405841Y293759D01*
Y293778D01*
X405860Y293796D01*
X405916Y293909D01*
X405991Y294078D01*
X406123Y294284D01*
X406291Y294509D01*
X406497Y294752D01*
X406760Y294996D01*
X407060Y295202D01*
X407079D01*
X407097Y295221D01*
X407153Y295259D01*
X407228Y295277D01*
X407416Y295371D01*
X407678Y295465D01*
X408016Y295558D01*
X408409Y295652D01*
X408859Y295708D01*
X409365Y295727D01*
X409384D01*
X409459D01*
X409553D01*
X409703Y295708D01*
D02*
G37*
G36*
X405804Y277132D02*
X406085Y277113D01*
X406422Y277094D01*
X406797Y277057D01*
X407210Y277019D01*
X407641Y276963D01*
X408091Y276888D01*
X408541Y276794D01*
X409009Y276701D01*
X409459Y276570D01*
X409909Y276420D01*
X410340Y276251D01*
X410734Y276063D01*
X410752Y276045D01*
X410809Y276026D01*
X410884Y275970D01*
X410996Y275914D01*
X411127Y275820D01*
X411277Y275726D01*
X411615Y275464D01*
X411971Y275145D01*
X412346Y274770D01*
X412664Y274339D01*
X412814Y274095D01*
X412927Y273852D01*
Y273833D01*
X412946Y273814D01*
X412965Y273758D01*
X412983Y273664D01*
X413021Y273570D01*
X413058Y273439D01*
X413096Y273270D01*
X413133Y273102D01*
X413171Y272896D01*
X413208Y272670D01*
X413246Y272408D01*
X413283Y272127D01*
X413302Y271808D01*
X413321Y271471D01*
X413339Y271096D01*
Y270702D01*
X399337D01*
X399318D01*
X399281D01*
X399224D01*
X399168D01*
X398980D01*
X398756Y270721D01*
X398512D01*
X398287Y270740D01*
X398100Y270758D01*
X398024Y270777D01*
X397968Y270796D01*
X397949D01*
X397931Y270815D01*
X397837Y270890D01*
X397706Y271002D01*
X397593Y271152D01*
Y271171D01*
X397556Y271227D01*
X397537Y271302D01*
X397500Y271415D01*
X397462Y271565D01*
X397443Y271733D01*
X397406Y271940D01*
Y272277D01*
X397425Y272389D01*
Y272539D01*
X397443Y272727D01*
X397481Y272952D01*
X397537Y273177D01*
X397593Y273439D01*
X397668Y273701D01*
X397781Y273983D01*
X397893Y274264D01*
X398043Y274545D01*
X398212Y274807D01*
X398418Y275070D01*
X398643Y275332D01*
X398906Y275557D01*
X398924Y275576D01*
X398999Y275632D01*
X399131Y275707D01*
X399299Y275801D01*
X399505Y275932D01*
X399787Y276063D01*
X400087Y276213D01*
X400461Y276363D01*
X400874Y276495D01*
X401342Y276644D01*
X401867Y276776D01*
X402430Y276907D01*
X403048Y277001D01*
X403723Y277076D01*
X404454Y277132D01*
X405223Y277151D01*
X405241D01*
X405260D01*
X405373D01*
X405560D01*
X405804Y277132D01*
D02*
G37*
G36*
Y231225D02*
X406085Y231206D01*
X406422Y231187D01*
X406797Y231150D01*
X407210Y231112D01*
X407641Y231056D01*
X408091Y230981D01*
X408541Y230888D01*
X409009Y230794D01*
X409459Y230663D01*
X409909Y230513D01*
X410340Y230344D01*
X410734Y230156D01*
X410752Y230138D01*
X410809Y230119D01*
X410884Y230063D01*
X410996Y230007D01*
X411127Y229913D01*
X411277Y229819D01*
X411615Y229557D01*
X411971Y229238D01*
X412346Y228863D01*
X412664Y228432D01*
X412814Y228188D01*
X412927Y227945D01*
Y227926D01*
X412946Y227907D01*
X412965Y227851D01*
X412983Y227757D01*
X413021Y227663D01*
X413058Y227532D01*
X413096Y227363D01*
X413133Y227195D01*
X413171Y226989D01*
X413208Y226764D01*
X413246Y226501D01*
X413283Y226220D01*
X413302Y225901D01*
X413321Y225564D01*
X413339Y225189D01*
Y224795D01*
X399337D01*
X399318D01*
X399281D01*
X399224D01*
X399168D01*
X398980D01*
X398756Y224814D01*
X398512D01*
X398287Y224833D01*
X398100Y224851D01*
X398024Y224870D01*
X397968Y224889D01*
X397949D01*
X397931Y224908D01*
X397837Y224983D01*
X397706Y225095D01*
X397593Y225245D01*
Y225264D01*
X397556Y225320D01*
X397537Y225395D01*
X397500Y225508D01*
X397462Y225658D01*
X397443Y225826D01*
X397406Y226033D01*
Y226370D01*
X397425Y226482D01*
Y226632D01*
X397443Y226820D01*
X397481Y227045D01*
X397537Y227270D01*
X397593Y227532D01*
X397668Y227794D01*
X397781Y228076D01*
X397893Y228357D01*
X398043Y228638D01*
X398212Y228901D01*
X398418Y229163D01*
X398643Y229425D01*
X398906Y229650D01*
X398924Y229669D01*
X398999Y229725D01*
X399131Y229800D01*
X399299Y229894D01*
X399505Y230025D01*
X399787Y230156D01*
X400087Y230306D01*
X400461Y230456D01*
X400874Y230588D01*
X401342Y230737D01*
X401867Y230869D01*
X402430Y231000D01*
X403048Y231094D01*
X403723Y231169D01*
X404454Y231225D01*
X405223Y231244D01*
X405241D01*
X405260D01*
X405373D01*
X405560D01*
X405804Y231225D01*
D02*
G37*
D10*
X447698Y269570D02*
Y292430D01*
X432966D02*
X469034D01*
X432966Y269570D02*
X469034D01*
X431966Y358570D02*
X468034D01*
X431966Y381430D02*
X468034D01*
X446698Y358570D02*
Y381430D01*
X430966Y178570D02*
X467034D01*
X430966Y201430D02*
X467034D01*
X445698Y178570D02*
Y201430D01*
D12*
X642324Y645081D02*
X656466Y659224D01*
X599062Y-53343D02*
X613204Y-67485D01*
X62515Y-73204D02*
X76657Y-59062D01*
X107808Y73906D02*
Y93906D01*
X102300Y108348D02*
Y128348D01*
X127192Y108094D02*
Y128094D01*
X45000Y978D02*
Y97498D01*
X48794Y25108D02*
X68794D01*
X23140Y24600D02*
X43140D01*
X23140Y75400D02*
X67500D01*
X23140Y50000D02*
X67500D01*
X173652Y440000D02*
X193652D01*
X173906Y414092D02*
X193906D01*
X173906Y464892D02*
X193906D01*
X32816Y658505D02*
X46958Y644363D01*
D14*
X455664Y263999D02*
Y256001D01*
X451666D01*
X450333Y257334D01*
Y262666D01*
X451666Y263999D01*
X455664D01*
X442336Y256001D02*
X447667D01*
X442336Y261333D01*
Y262666D01*
X443668Y263999D01*
X446334D01*
X447667Y262666D01*
X424405Y-40447D02*
X425738Y-39114D01*
X428404D01*
X429737Y-40447D01*
Y-41779D01*
X428404Y-43112D01*
X425738D01*
X424405Y-44445D01*
Y-45778D01*
X425738Y-47111D01*
X428404D01*
X429737Y-45778D01*
X421739Y-39114D02*
Y-47111D01*
X417740D01*
X416407Y-45778D01*
Y-40447D01*
X417740Y-39114D01*
X421739D01*
X413742Y-47111D02*
Y-41779D01*
X411076Y-39114D01*
X408410Y-41779D01*
Y-47111D01*
Y-43112D01*
X413742D01*
X82205Y5872D02*
X83537Y4539D01*
Y1873D01*
X82205Y540D01*
X80872D01*
X79539Y1873D01*
Y4539D01*
X78206Y5872D01*
X76873D01*
X75540Y4539D01*
Y1873D01*
X76873Y540D01*
X82205Y13869D02*
X83537Y12536D01*
Y9870D01*
X82205Y8537D01*
X76873D01*
X75540Y9870D01*
Y12536D01*
X76873Y13869D01*
X83537Y16535D02*
X75540D01*
Y21867D01*
X14204Y82872D02*
X15537Y81539D01*
Y78873D01*
X14204Y77540D01*
X12872D01*
X11539Y78873D01*
Y81539D01*
X10206Y82872D01*
X8873D01*
X7540Y81539D01*
Y78873D01*
X8873Y77540D01*
X15537Y85537D02*
X7540D01*
Y89536D01*
X8873Y90869D01*
X14204D01*
X15537Y89536D01*
Y85537D01*
X7540Y93535D02*
X12872D01*
X15537Y96201D01*
X12872Y98866D01*
X7540D01*
X11539D01*
Y93535D01*
X84831Y143479D02*
X86497Y145146D01*
X89829D01*
X91495Y143479D01*
Y136815D01*
X89829Y135149D01*
X86497D01*
X84831Y136815D01*
Y140147D01*
X88163D01*
X142454Y144667D02*
X149118D01*
Y139668D01*
X145786Y141334D01*
X144120D01*
X142454Y139668D01*
Y136336D01*
X144120Y134670D01*
X147452D01*
X149118Y136336D01*
X139122Y144667D02*
Y138002D01*
X135789Y134670D01*
X132457Y138002D01*
Y144667D01*
X422540Y570460D02*
X429204D01*
X377460Y568872D02*
X370796D01*
X374128Y572205D02*
Y565540D01*
X678460Y489460D02*
Y482795D01*
X684460Y432872D02*
X677795D01*
X681128Y436204D02*
Y429540D01*
X314795Y-34463D02*
X321460D01*
Y-39462D01*
X318128Y-37796D01*
X316462D01*
X314795Y-39462D01*
Y-42794D01*
X316462Y-44460D01*
X319794D01*
X321460Y-42794D01*
X311463Y-34463D02*
Y-41128D01*
X308131Y-44460D01*
X304799Y-41128D01*
Y-34463D01*
X296460Y1206D02*
Y11203D01*
X293128Y7871D01*
X289795Y11203D01*
Y1206D01*
X286463D02*
Y11203D01*
X281465D01*
X279799Y9537D01*
Y6205D01*
X281465Y4538D01*
X286463D01*
X276467Y11203D02*
Y2872D01*
X274800Y1206D01*
X271468D01*
X269802Y2872D01*
Y11203D01*
X266470Y-460D02*
X259805D01*
X256473Y1206D02*
Y7871D01*
X254807D01*
X253141Y6205D01*
Y1206D01*
Y6205D01*
X251474Y7871D01*
X249808Y6205D01*
Y1206D01*
X244810D02*
X241478D01*
X239812Y2872D01*
Y6205D01*
X241478Y7871D01*
X244810D01*
X246476Y6205D01*
Y2872D01*
X244810Y1206D01*
X229815Y11203D02*
Y1206D01*
X234813D01*
X236479Y2872D01*
Y6205D01*
X234813Y7871D01*
X229815D01*
X226483D02*
Y2872D01*
X224816Y1206D01*
X219818D01*
Y7871D01*
X216486Y1206D02*
X213153D01*
X214820D01*
Y11203D01*
X216486D01*
X203157Y1206D02*
X206489D01*
X208155Y2872D01*
Y6205D01*
X206489Y7871D01*
X203157D01*
X201491Y6205D01*
Y4538D01*
X208155D01*
X7460Y399540D02*
Y409537D01*
X2462D01*
X795Y407871D01*
Y404538D01*
X2462Y402872D01*
X7460D01*
X-2537Y399540D02*
Y406204D01*
X-5869Y409537D01*
X-9201Y406204D01*
Y399540D01*
Y404538D01*
X-2537D01*
X-12534Y399540D02*
X-15866D01*
X-14200D01*
Y409537D01*
X-12534Y407871D01*
X-27529Y399540D02*
X-20864D01*
X-27529Y406204D01*
Y407871D01*
X-25863Y409537D01*
X-22530D01*
X-20864Y407871D01*
X8460Y373540D02*
Y383537D01*
X3462D01*
X1796Y381871D01*
Y378538D01*
X3462Y376872D01*
X8460D01*
X-1537Y373540D02*
Y380205D01*
X-4869Y383537D01*
X-8201Y380205D01*
Y373540D01*
Y378538D01*
X-1537D01*
X-11534Y373540D02*
X-14866D01*
X-13200D01*
Y383537D01*
X-11534Y381871D01*
X-19864Y373540D02*
X-23196D01*
X-21530D01*
Y383537D01*
X-19864Y381871D01*
X7460Y349540D02*
Y359537D01*
X2462D01*
X795Y357871D01*
Y354538D01*
X2462Y352872D01*
X7460D01*
X-9201Y357871D02*
X-7535Y359537D01*
X-4203D01*
X-2537Y357871D01*
Y351206D01*
X-4203Y349540D01*
X-7535D01*
X-9201Y351206D01*
X-12534Y349540D02*
X-15866D01*
X-14200D01*
Y359537D01*
X-12534Y357871D01*
X-20864D02*
X-22530Y359537D01*
X-25863D01*
X-27529Y357871D01*
Y356204D01*
X-25863Y354538D01*
X-24196D01*
X-25863D01*
X-27529Y352872D01*
Y351206D01*
X-25863Y349540D01*
X-22530D01*
X-20864Y351206D01*
X3462Y334203D02*
X6794D01*
X8460Y332537D01*
Y325872D01*
X6794Y324206D01*
X3462D01*
X1796Y325872D01*
Y332537D01*
X3462Y334203D01*
X-8201Y332537D02*
X-6535Y334203D01*
X-3203D01*
X-1537Y332537D01*
Y330871D01*
X-3203Y329204D01*
X-6535D01*
X-8201Y327538D01*
Y325872D01*
X-6535Y324206D01*
X-3203D01*
X-1537Y325872D01*
X-18198Y332537D02*
X-16532Y334203D01*
X-13200D01*
X-11534Y332537D01*
Y325872D01*
X-13200Y324206D01*
X-16532D01*
X-18198Y325872D01*
X-21530Y322540D02*
X-28195D01*
X-31527Y334203D02*
X-34859D01*
X-33193D01*
Y324206D01*
X-31527D01*
X-34859D01*
X2462Y309203D02*
X5794D01*
X7460Y307537D01*
Y300872D01*
X5794Y299206D01*
X2462D01*
X795Y300872D01*
Y307537D01*
X2462Y309203D01*
X-9201Y307537D02*
X-7535Y309203D01*
X-4203D01*
X-2537Y307537D01*
Y305871D01*
X-4203Y304205D01*
X-7535D01*
X-9201Y302538D01*
Y300872D01*
X-7535Y299206D01*
X-4203D01*
X-2537Y300872D01*
X-19198Y307537D02*
X-17532Y309203D01*
X-14200D01*
X-12534Y307537D01*
Y300872D01*
X-14200Y299206D01*
X-17532D01*
X-19198Y300872D01*
X-22530Y297540D02*
X-29195D01*
X-37525Y309203D02*
X-34193D01*
X-32527Y307537D01*
Y300872D01*
X-34193Y299206D01*
X-37525D01*
X-39192Y300872D01*
Y307537D01*
X-37525Y309203D01*
X5460Y274540D02*
Y284537D01*
X462D01*
X-1204Y282871D01*
Y279538D01*
X462Y277872D01*
X5460D01*
X-4537Y284537D02*
Y274540D01*
X-9535D01*
X-11201Y276206D01*
Y277872D01*
X-9535Y279538D01*
X-4537D01*
X-9535D01*
X-11201Y281204D01*
Y282871D01*
X-9535Y284537D01*
X-4537D01*
X-14533Y282871D02*
X-16200Y284537D01*
X-19532D01*
X-21198Y282871D01*
Y281204D01*
X-19532Y279538D01*
X-21198Y277872D01*
Y276206D01*
X-19532Y274540D01*
X-16200D01*
X-14533Y276206D01*
Y277872D01*
X-16200Y279538D01*
X-14533Y281204D01*
Y282871D01*
X-16200Y279538D02*
X-19532D01*
X5460Y250540D02*
Y260537D01*
X462D01*
X-1204Y258871D01*
Y255538D01*
X462Y253872D01*
X5460D01*
X-4537Y260537D02*
Y250540D01*
X-9535D01*
X-11201Y252206D01*
Y253872D01*
X-9535Y255538D01*
X-4537D01*
X-9535D01*
X-11201Y257204D01*
Y258871D01*
X-9535Y260537D01*
X-4537D01*
X-14533Y252206D02*
X-16200Y250540D01*
X-19532D01*
X-21198Y252206D01*
Y258871D01*
X-19532Y260537D01*
X-16200D01*
X-14533Y258871D01*
Y257204D01*
X-16200Y255538D01*
X-21198D01*
X6460Y225540D02*
Y235537D01*
X1462D01*
X-204Y233871D01*
Y230538D01*
X1462Y228872D01*
X6460D01*
X-3537Y235537D02*
Y225540D01*
X-8535D01*
X-10201Y227206D01*
Y228872D01*
X-8535Y230538D01*
X-3537D01*
X-8535D01*
X-10201Y232204D01*
Y233871D01*
X-8535Y235537D01*
X-3537D01*
X-13534Y225540D02*
X-16866D01*
X-15200D01*
Y235537D01*
X-13534Y233871D01*
X6460Y199540D02*
Y209537D01*
X1462D01*
X-204Y207871D01*
Y204538D01*
X1462Y202872D01*
X6460D01*
X-3537Y209537D02*
Y199540D01*
X-8535D01*
X-10201Y201206D01*
Y202872D01*
X-8535Y204538D01*
X-3537D01*
X-8535D01*
X-10201Y206204D01*
Y207871D01*
X-8535Y209537D01*
X-3537D01*
X-13534Y207871D02*
X-15200Y209537D01*
X-18532D01*
X-20198Y207871D01*
Y201206D01*
X-18532Y199540D01*
X-15200D01*
X-13534Y201206D01*
Y207871D01*
X5460Y172540D02*
Y182537D01*
X462D01*
X-1204Y180871D01*
Y177538D01*
X462Y175872D01*
X5460D01*
X-11201Y180871D02*
X-9535Y182537D01*
X-6203D01*
X-4537Y180871D01*
Y174206D01*
X-6203Y172540D01*
X-9535D01*
X-11201Y174206D01*
X-14533Y172540D02*
X-17866D01*
X-16200D01*
Y182537D01*
X-14533Y180871D01*
X6460Y149540D02*
Y159537D01*
X1462D01*
X-204Y157871D01*
Y154538D01*
X1462Y152872D01*
X6460D01*
X-10201Y157871D02*
X-8535Y159537D01*
X-5203D01*
X-3537Y157871D01*
Y151206D01*
X-5203Y149540D01*
X-8535D01*
X-10201Y151206D01*
X-20198Y149540D02*
X-13534D01*
X-20198Y156205D01*
Y157871D01*
X-18532Y159537D01*
X-15200D01*
X-13534Y157871D01*
X7460Y124540D02*
Y134537D01*
X2462D01*
X795Y132871D01*
Y129538D01*
X2462Y127872D01*
X7460D01*
X-9201Y132871D02*
X-7535Y134537D01*
X-4203D01*
X-2537Y132871D01*
Y126206D01*
X-4203Y124540D01*
X-7535D01*
X-9201Y126206D01*
X-12534Y132871D02*
X-14200Y134537D01*
X-17532D01*
X-19198Y132871D01*
Y131205D01*
X-17532Y129538D01*
X-15866D01*
X-17532D01*
X-19198Y127872D01*
Y126206D01*
X-17532Y124540D01*
X-14200D01*
X-12534Y126206D01*
X12871Y13204D02*
X14537Y11538D01*
Y8206D01*
X12871Y6540D01*
X6206D01*
X4540Y8206D01*
Y11538D01*
X6206Y13204D01*
X9538D01*
Y9872D01*
X386460Y4538D02*
Y-1460D01*
X383461D01*
X382461Y-461D01*
Y539D01*
X383461Y1539D01*
X386460D01*
X383461D01*
X382461Y2538D01*
Y3538D01*
X383461Y4538D01*
X386460D01*
X380462D02*
X376463D01*
X378463D01*
Y-1460D01*
X374464Y-2460D02*
X370465D01*
X368466Y4538D02*
Y-1460D01*
X366466Y539D01*
X364467Y-1460D01*
Y4538D01*
X362468Y-1460D02*
Y2538D01*
X360468Y4538D01*
X358469Y2538D01*
Y-1460D01*
Y1539D01*
X362468D01*
X356470Y4538D02*
Y-1460D01*
Y539D01*
X352471Y4538D01*
X355470Y1539D01*
X352471Y-1460D01*
X346473Y4538D02*
X350472D01*
Y-1460D01*
X346473D01*
X350472Y1539D02*
X348472D01*
X271128Y-38795D02*
X272461Y-37463D01*
X275127D01*
X276460Y-38795D01*
Y-40128D01*
X275127Y-41461D01*
X272461D01*
X271128Y-42794D01*
Y-44127D01*
X272461Y-45460D01*
X275127D01*
X276460Y-44127D01*
X268463Y-37463D02*
Y-45460D01*
X264464D01*
X263131Y-44127D01*
Y-38795D01*
X264464Y-37463D01*
X268463D01*
X260465Y-45460D02*
Y-40128D01*
X257799Y-37463D01*
X255134Y-40128D01*
Y-45460D01*
Y-41461D01*
X260465D01*
X242128Y-39795D02*
X243461Y-38463D01*
X246127D01*
X247460Y-39795D01*
Y-41128D01*
X246127Y-42461D01*
X243461D01*
X242128Y-43794D01*
Y-45127D01*
X243461Y-46460D01*
X246127D01*
X247460Y-45127D01*
X234131Y-39795D02*
X235464Y-38463D01*
X238130D01*
X239463Y-39795D01*
Y-45127D01*
X238130Y-46460D01*
X235464D01*
X234131Y-45127D01*
X231465Y-38463D02*
Y-46460D01*
X226134D01*
X450128Y-40795D02*
X451461Y-39463D01*
X454127D01*
X455460Y-40795D01*
Y-42128D01*
X454127Y-43461D01*
X451461D01*
X450128Y-44794D01*
Y-46127D01*
X451461Y-47460D01*
X454127D01*
X455460Y-46127D01*
X442131Y-40795D02*
X443464Y-39463D01*
X446130D01*
X447463Y-40795D01*
Y-46127D01*
X446130Y-47460D01*
X443464D01*
X442131Y-46127D01*
X439465Y-39463D02*
Y-47460D01*
X434133D01*
X466796Y-40129D02*
X468462Y-38463D01*
X471794D01*
X473460Y-40129D01*
Y-46794D01*
X471794Y-48460D01*
X468462D01*
X466796Y-46794D01*
Y-43462D01*
X470128D01*
X497795Y-39463D02*
X504460D01*
Y-44462D01*
X501128Y-42796D01*
X499462D01*
X497795Y-44462D01*
Y-47794D01*
X499462Y-49460D01*
X502794D01*
X504460Y-47794D01*
X494463Y-39463D02*
Y-46128D01*
X491131Y-49460D01*
X487799Y-46128D01*
Y-39463D01*
X484460Y7537D02*
Y-2460D01*
X479462D01*
X477795Y-794D01*
Y872D01*
X479462Y2538D01*
X484460D01*
X479462D01*
X477795Y4205D01*
Y5871D01*
X479462Y7537D01*
X484460D01*
X474463D02*
X467799D01*
X471131D01*
Y-2460D01*
X454470D02*
Y4205D01*
X452803D01*
X451137Y2538D01*
Y-2460D01*
Y2538D01*
X449471Y4205D01*
X447805Y2538D01*
Y-2460D01*
X442807D02*
X439474D01*
X437808Y-794D01*
Y2538D01*
X439474Y4205D01*
X442807D01*
X444473Y2538D01*
Y-794D01*
X442807Y-2460D01*
X427812Y7537D02*
Y-2460D01*
X432810D01*
X434476Y-794D01*
Y2538D01*
X432810Y4205D01*
X427812D01*
X424479D02*
Y-794D01*
X422813Y-2460D01*
X417815D01*
Y4205D01*
X414482Y-2460D02*
X411150D01*
X412816D01*
Y7537D01*
X414482D01*
X401153Y-2460D02*
X404486D01*
X406152Y-794D01*
Y2538D01*
X404486Y4205D01*
X401153D01*
X399487Y2538D01*
Y872D01*
X406152D01*
X471001Y390670D02*
X478999D01*
Y394668D01*
X477666Y396001D01*
X475000D01*
X473667Y394668D01*
Y390670D01*
Y393335D02*
X471001Y396001D01*
Y403999D02*
Y398667D01*
X476333Y403999D01*
X477666D01*
X478999Y402666D01*
Y400000D01*
X477666Y398667D01*
X471001Y406665D02*
Y409330D01*
Y407997D01*
X478999D01*
X477666Y406665D01*
X473001Y299337D02*
X480999D01*
Y303335D01*
X479666Y304668D01*
X477000D01*
X475667Y303335D01*
Y299337D01*
Y302003D02*
X473001Y304668D01*
Y312666D02*
Y307334D01*
X478333Y312666D01*
X479666D01*
X480999Y311333D01*
Y308667D01*
X479666Y307334D01*
Y315332D02*
X480999Y316665D01*
Y319330D01*
X479666Y320663D01*
X474334D01*
X473001Y319330D01*
Y316665D01*
X474334Y315332D01*
X479666D01*
X471001Y208003D02*
X478999D01*
Y212002D01*
X477666Y213335D01*
X475000D01*
X473667Y212002D01*
Y208003D01*
Y210669D02*
X471001Y213335D01*
Y216001D02*
Y218666D01*
Y217334D01*
X478999D01*
X477666Y216001D01*
X472334Y222665D02*
X471001Y223998D01*
Y226664D01*
X472334Y227997D01*
X477666D01*
X478999Y226664D01*
Y223998D01*
X477666Y222665D01*
X476333D01*
X475000Y223998D01*
Y227997D01*
X421001Y388003D02*
X428999D01*
Y392002D01*
X427666Y393335D01*
X425000D01*
X423667Y392002D01*
Y388003D01*
Y390669D02*
X421001Y393335D01*
Y396001D02*
Y398666D01*
Y397333D01*
X428999D01*
X427666Y396001D01*
X428999Y402665D02*
Y407997D01*
X427666D01*
X422334Y402665D01*
X421001D01*
X422001Y297003D02*
X429999D01*
Y301002D01*
X428666Y302335D01*
X426000D01*
X424667Y301002D01*
Y297003D01*
Y299669D02*
X422001Y302335D01*
Y305001D02*
Y307666D01*
Y306334D01*
X429999D01*
X428666Y305001D01*
X429999Y316997D02*
X428666Y314331D01*
X426000Y311665D01*
X423334D01*
X422001Y312998D01*
Y315664D01*
X423334Y316997D01*
X424667D01*
X426000Y315664D01*
Y311665D01*
X420001Y209003D02*
X427999D01*
Y213002D01*
X426666Y214335D01*
X424000D01*
X422667Y213002D01*
Y209003D01*
Y211669D02*
X420001Y214335D01*
Y217001D02*
Y219666D01*
Y218333D01*
X427999D01*
X426666Y217001D01*
X427999Y228997D02*
Y223665D01*
X424000D01*
X425333Y226331D01*
Y227664D01*
X424000Y228997D01*
X421334D01*
X420001Y227664D01*
Y224998D01*
X421334Y223665D01*
X454664Y353999D02*
Y346001D01*
X450666D01*
X449333Y347334D01*
Y352666D01*
X450666Y353999D01*
X454664D01*
X446667Y352666D02*
X445334Y353999D01*
X442668D01*
X441335Y352666D01*
Y351333D01*
X442668Y350000D01*
X444001D01*
X442668D01*
X441335Y348667D01*
Y347334D01*
X442668Y346001D01*
X445334D01*
X446667Y347334D01*
X453332Y171999D02*
Y164001D01*
X449333D01*
X448000Y165334D01*
Y170666D01*
X449333Y171999D01*
X453332D01*
X445334Y164001D02*
X442668D01*
X444001D01*
Y171999D01*
X445334Y170666D01*
X134335Y277334D02*
X133002Y276001D01*
X130336D01*
X129003Y277334D01*
Y282666D01*
X130336Y283999D01*
X133002D01*
X134335Y282666D01*
X137001Y283999D02*
X139666D01*
X138334D01*
Y276001D01*
X137001Y277334D01*
X148997Y276001D02*
X143665D01*
Y280000D01*
X146331Y278667D01*
X147664D01*
X148997Y280000D01*
Y282666D01*
X147664Y283999D01*
X144998D01*
X143665Y282666D01*
D15*
X522880Y76515D02*
Y541166D01*
X524658Y76515D02*
Y541166D01*
X526436Y76515D02*
Y541166D01*
X528214Y76515D02*
Y541166D01*
X529992Y76515D02*
Y541166D01*
X531770Y76515D02*
Y541166D01*
X533548Y76515D02*
Y541166D01*
X535326Y76515D02*
Y541166D01*
X537104Y76515D02*
Y541166D01*
X538882Y76515D02*
Y541166D01*
X540660Y76515D02*
Y541166D01*
X542438Y76515D02*
Y541166D01*
X544216Y76515D02*
Y541166D01*
X545994Y76515D02*
Y541166D01*
X547772Y76515D02*
Y541166D01*
X549550Y76515D02*
Y541166D01*
X551328Y76515D02*
Y541166D01*
X553106Y76515D02*
Y541166D01*
X554884Y76515D02*
Y541166D01*
X556662Y76515D02*
Y541166D01*
X558440Y76515D02*
Y541166D01*
X560218Y320101D02*
Y541166D01*
Y286319D02*
Y311804D01*
Y273873D02*
Y279800D01*
Y76515D02*
Y231794D01*
X561996Y529905D02*
Y541166D01*
Y513903D02*
Y525164D01*
Y485455D02*
Y498494D01*
Y464119D02*
Y464712D01*
Y425003D02*
Y429152D01*
Y403667D02*
Y404260D01*
Y360995D02*
Y368700D01*
Y321879D02*
Y340252D01*
Y288097D02*
Y310026D01*
Y277429D02*
Y278022D01*
Y186751D02*
Y238906D01*
Y112075D02*
Y137560D01*
Y76515D02*
Y85998D01*
X563774Y531683D02*
Y541166D01*
Y517459D02*
Y523386D01*
Y487233D02*
Y494938D01*
Y464119D02*
Y464712D01*
Y425003D02*
Y430930D01*
Y403667D02*
Y404260D01*
Y360995D02*
Y368700D01*
Y323657D02*
Y340252D01*
Y316545D02*
Y317138D01*
Y289875D02*
Y310026D01*
Y275651D02*
Y276244D01*
Y202753D02*
Y267354D01*
Y112075D02*
Y130448D01*
Y76515D02*
Y85998D01*
X565552Y531683D02*
Y541166D01*
Y521015D02*
Y523386D01*
Y487233D02*
Y491382D01*
Y465897D02*
Y466490D01*
Y425003D02*
Y432708D01*
Y405445D02*
Y406038D01*
Y362773D02*
Y370478D01*
Y323657D02*
Y342030D01*
Y316545D02*
Y317138D01*
Y289875D02*
Y310026D01*
Y282763D02*
Y283356D01*
Y215199D02*
Y276244D01*
Y149413D02*
Y180232D01*
Y112075D02*
Y123336D01*
Y76515D02*
Y87776D01*
X567330Y531683D02*
Y541166D01*
Y522793D02*
Y523386D01*
Y485455D02*
Y489604D01*
Y465897D02*
Y470046D01*
Y449895D02*
Y455822D01*
Y423225D02*
Y436264D01*
Y405445D02*
Y409594D01*
Y389443D02*
Y395370D01*
Y359217D02*
Y375812D01*
Y323657D02*
Y345586D01*
Y289875D02*
Y310026D01*
Y282763D02*
Y283356D01*
Y225867D02*
Y276244D01*
Y184973D02*
Y199790D01*
Y168971D02*
Y169564D01*
Y140523D02*
Y150006D01*
Y108519D02*
Y119780D01*
Y76515D02*
Y94888D01*
X569108Y522793D02*
Y541166D01*
Y503235D02*
Y514496D01*
Y485455D02*
Y487826D01*
Y467675D02*
Y471824D01*
Y451673D02*
Y455822D01*
Y423225D02*
Y438042D01*
Y407223D02*
Y411372D01*
Y389443D02*
Y397148D01*
Y359217D02*
Y377590D01*
Y321879D02*
Y347364D01*
Y288097D02*
Y311804D01*
Y236535D02*
Y278022D01*
Y199197D02*
Y214014D01*
Y149413D02*
Y150006D01*
Y135189D02*
Y139338D01*
Y108519D02*
Y116224D01*
Y76515D02*
Y94888D01*
X570886Y524571D02*
Y541166D01*
Y503235D02*
Y516274D01*
Y485455D02*
Y487826D01*
Y451673D02*
Y471824D01*
Y425003D02*
Y438042D01*
Y407223D02*
Y411372D01*
Y391221D02*
Y397148D01*
Y369885D02*
Y377590D01*
Y360995D02*
Y363366D01*
Y328991D02*
Y347364D01*
Y320101D02*
Y322472D01*
Y286319D02*
Y313582D01*
Y247203D02*
Y279800D01*
Y215199D02*
Y224682D01*
Y202753D02*
Y206902D01*
Y170749D02*
Y171342D01*
Y151191D02*
Y151784D01*
Y131633D02*
Y134004D01*
Y110297D02*
Y112668D01*
Y76515D02*
Y96666D01*
X572664Y524571D02*
Y541166D01*
Y510347D02*
Y518052D01*
Y487233D02*
Y487826D01*
Y462341D02*
Y473602D01*
Y453451D02*
Y457600D01*
Y425003D02*
Y439820D01*
Y391221D02*
Y413150D01*
Y371663D02*
Y379368D01*
Y360995D02*
Y363366D01*
Y328991D02*
Y349142D01*
Y320101D02*
Y324250D01*
Y256093D02*
Y279800D01*
Y225867D02*
Y235350D01*
Y204531D02*
Y206902D01*
Y186751D02*
Y187344D01*
Y168971D02*
Y174898D01*
Y147635D02*
Y155340D01*
Y128077D02*
Y134004D01*
Y110297D02*
Y112668D01*
Y76515D02*
Y96666D01*
X574442Y526349D02*
Y541166D01*
Y512125D02*
Y518052D01*
Y487233D02*
Y487826D01*
Y464119D02*
Y473602D01*
Y453451D02*
Y457600D01*
Y426781D02*
Y439820D01*
Y392999D02*
Y413150D01*
Y373441D02*
Y379368D01*
Y327213D02*
Y349142D01*
Y320101D02*
Y322472D01*
Y264983D02*
Y279800D01*
Y236535D02*
Y246018D01*
Y227645D02*
Y231794D01*
Y206309D02*
Y208680D01*
Y188529D02*
Y194456D01*
Y168971D02*
Y174898D01*
Y147635D02*
Y155340D01*
Y129855D02*
Y135782D01*
Y112075D02*
Y112668D01*
Y76515D02*
Y98444D01*
X576220Y526349D02*
Y541166D01*
Y513903D02*
Y519830D01*
Y489011D02*
Y489604D01*
Y464119D02*
Y475380D01*
Y426781D02*
Y441598D01*
Y392999D02*
Y414928D01*
Y373441D02*
Y381146D01*
Y327213D02*
Y350920D01*
Y320101D02*
Y322472D01*
Y273873D02*
Y279800D01*
Y247203D02*
Y254908D01*
Y229423D02*
Y230016D01*
Y208087D02*
Y212236D01*
Y188529D02*
Y194456D01*
Y170749D02*
Y176676D01*
Y149413D02*
Y157118D01*
Y133411D02*
Y139338D01*
Y112075D02*
Y114446D01*
Y76515D02*
Y100222D01*
X577998Y526349D02*
Y541166D01*
Y513903D02*
Y519830D01*
Y489011D02*
Y498494D01*
Y465897D02*
Y477158D01*
Y430337D02*
Y441598D01*
Y394777D02*
Y413150D01*
Y375219D02*
Y381146D01*
Y325435D02*
Y352698D01*
Y277429D02*
Y279800D01*
Y256093D02*
Y263798D01*
Y225867D02*
Y230016D01*
Y208087D02*
Y214014D01*
Y190307D02*
Y196234D01*
Y170749D02*
Y176676D01*
Y149413D02*
Y157118D01*
Y136967D02*
Y141116D01*
Y113853D02*
Y116224D01*
Y76515D02*
Y100222D01*
X579776Y524571D02*
Y541166D01*
Y513903D02*
Y518052D01*
Y490789D02*
Y500272D01*
Y465897D02*
Y477158D01*
Y432115D02*
Y443376D01*
Y394777D02*
Y413150D01*
Y375219D02*
Y382924D01*
Y364551D02*
Y368700D01*
Y323657D02*
Y352698D01*
Y318323D02*
Y318916D01*
Y279207D02*
Y281578D01*
Y257871D02*
Y272688D01*
Y225867D02*
Y231794D01*
Y209865D02*
Y214014D01*
Y190307D02*
Y196234D01*
Y172527D02*
Y178454D01*
Y151191D02*
Y158896D01*
Y138745D02*
Y141116D01*
Y115631D02*
Y123336D01*
Y76515D02*
Y102000D01*
X581554Y524571D02*
Y541166D01*
Y513903D02*
Y518052D01*
Y490789D02*
Y500272D01*
Y467675D02*
Y478936D01*
Y457007D02*
Y461156D01*
Y433893D02*
Y445154D01*
Y425003D02*
Y425596D01*
Y396555D02*
Y411372D01*
Y366329D02*
Y384702D01*
Y321879D02*
Y352698D01*
Y314767D02*
Y315360D01*
Y307655D02*
Y310026D01*
Y257871D02*
Y294024D01*
Y243647D02*
Y246018D01*
Y227645D02*
Y231794D01*
Y209865D02*
Y215792D01*
Y192085D02*
Y198012D01*
Y172527D02*
Y178454D01*
Y140523D02*
Y142894D01*
Y115631D02*
Y125114D01*
Y76515D02*
Y102000D01*
X583332Y524571D02*
Y541166D01*
Y513903D02*
Y518052D01*
Y492567D02*
Y500272D01*
Y458785D02*
Y478936D01*
Y435671D02*
Y445154D01*
Y423225D02*
Y427374D01*
Y396555D02*
Y411372D01*
Y380553D02*
Y384702D01*
Y366329D02*
Y370478D01*
Y316545D02*
Y352698D01*
Y259649D02*
Y294024D01*
Y245425D02*
Y247796D01*
Y227645D02*
Y233572D01*
Y211643D02*
Y215792D01*
Y192085D02*
Y198012D01*
Y174305D02*
Y180232D01*
Y140523D02*
Y144672D01*
Y117409D02*
Y126892D01*
Y76515D02*
Y103778D01*
X585110Y522793D02*
Y541166D01*
Y512125D02*
Y516274D01*
Y494345D02*
Y496716D01*
Y474787D02*
Y480714D01*
Y458785D02*
Y464712D01*
Y437449D02*
Y446932D01*
Y423225D02*
Y429152D01*
Y398333D02*
Y409594D01*
Y380553D02*
Y384702D01*
Y312989D02*
Y350920D01*
Y261427D02*
Y295802D01*
Y245425D02*
Y249574D01*
Y229423D02*
Y233572D01*
Y211643D02*
Y217570D01*
Y193863D02*
Y199790D01*
Y174305D02*
Y180232D01*
Y154747D02*
Y162452D01*
Y142301D02*
Y144672D01*
Y117409D02*
Y126892D01*
Y76515D02*
Y103778D01*
X586888Y521015D02*
Y541166D01*
Y508569D02*
Y512718D01*
Y476565D02*
Y480714D01*
Y460563D02*
Y464712D01*
Y439227D02*
Y446932D01*
Y423225D02*
Y430930D01*
Y401889D02*
Y407816D01*
Y382331D02*
Y382924D01*
Y325435D02*
Y352698D01*
Y312989D02*
Y322472D01*
Y261427D02*
Y297580D01*
Y247203D02*
Y251352D01*
Y231201D02*
Y235350D01*
Y213421D02*
Y217570D01*
Y195641D02*
Y201568D01*
Y176083D02*
Y182010D01*
Y154747D02*
Y162452D01*
Y142301D02*
Y146450D01*
Y119187D02*
Y128670D01*
Y76515D02*
Y105556D01*
X588666Y519237D02*
Y541166D01*
Y505013D02*
Y509162D01*
Y476565D02*
Y478936D01*
Y444561D02*
Y445154D01*
Y425003D02*
Y429152D01*
Y403667D02*
Y404260D01*
Y382331D02*
Y382924D01*
Y341437D02*
Y356254D01*
Y314767D02*
Y322472D01*
Y263205D02*
Y299358D01*
Y247203D02*
Y251352D01*
Y231201D02*
Y235350D01*
Y215199D02*
Y219348D01*
Y195641D02*
Y201568D01*
Y177861D02*
Y183788D01*
Y156525D02*
Y164230D01*
Y142301D02*
Y146450D01*
Y119187D02*
Y128670D01*
Y76515D02*
Y105556D01*
X590444Y515681D02*
Y541166D01*
Y496123D02*
Y503828D01*
Y478343D02*
Y478936D01*
Y444561D02*
Y445154D01*
Y426781D02*
Y429152D01*
Y405445D02*
Y406038D01*
Y382331D02*
Y384702D01*
Y360995D02*
Y377590D01*
Y314767D02*
Y324250D01*
Y263205D02*
Y299358D01*
Y248981D02*
Y253130D01*
Y232979D02*
Y237128D01*
Y215199D02*
Y221126D01*
Y197419D02*
Y203346D01*
Y177861D02*
Y183788D01*
Y156525D02*
Y164230D01*
Y142301D02*
Y148228D01*
Y120965D02*
Y128670D01*
Y76515D02*
Y107334D01*
X592222Y512125D02*
Y541166D01*
Y478343D02*
Y493160D01*
Y446339D02*
Y446932D01*
Y426781D02*
Y430930D01*
Y382331D02*
Y407816D01*
Y316545D02*
Y336696D01*
Y264983D02*
Y301136D01*
Y248981D02*
Y253130D01*
Y234757D02*
Y238906D01*
Y215199D02*
Y221126D01*
Y197419D02*
Y203346D01*
Y177861D02*
Y183788D01*
Y158303D02*
Y164230D01*
Y142301D02*
Y148228D01*
Y120965D02*
Y126892D01*
Y76515D02*
Y105556D01*
X594000Y506791D02*
Y541166D01*
Y414335D02*
Y475380D01*
Y318323D02*
Y352698D01*
Y264983D02*
Y304692D01*
Y238313D02*
Y238906D01*
Y216977D02*
Y217570D01*
Y179639D02*
Y182010D01*
Y140523D02*
Y150006D01*
Y76515D02*
Y102000D01*
X595778Y497901D02*
Y541166D01*
Y320101D02*
Y370478D01*
Y264983D02*
Y308248D01*
Y238313D02*
Y240684D01*
Y215199D02*
Y219348D01*
Y177861D02*
Y182010D01*
Y138745D02*
Y151784D01*
Y76515D02*
Y103778D01*
X597556Y485455D02*
Y541166D01*
Y320101D02*
Y395370D01*
Y263205D02*
Y310026D01*
Y238313D02*
Y244240D01*
Y211643D02*
Y221126D01*
Y176083D02*
Y183788D01*
Y135189D02*
Y155340D01*
Y76515D02*
Y105556D01*
X599334Y318323D02*
Y541166D01*
Y76515D02*
Y310026D01*
X601112Y316545D02*
Y541166D01*
Y76515D02*
Y311804D01*
X602890Y76515D02*
Y541166D01*
X604668Y76515D02*
Y541166D01*
X606446Y76515D02*
Y541166D01*
X608224Y76515D02*
Y541166D01*
X610002Y76515D02*
Y541166D01*
X611780Y76515D02*
Y541166D01*
X613558Y76515D02*
Y541166D01*
X615336Y76515D02*
Y541166D01*
X617114Y76515D02*
Y541166D01*
X618892Y76515D02*
Y541166D01*
X620670Y76515D02*
Y541166D01*
X622448Y76515D02*
Y541166D01*
X624226Y76515D02*
Y541166D01*
X626004Y76515D02*
Y541166D01*
X627782Y76515D02*
Y541166D01*
X629560Y76515D02*
Y541166D01*
X631338Y76515D02*
Y541166D01*
X433590Y406477D02*
Y413910D01*
X446410Y406477D02*
Y413910D01*
X433590D02*
X446410D01*
X433590Y386090D02*
X446410D01*
X433590D02*
Y393523D01*
X446410Y386090D02*
Y393523D01*
X453590Y406477D02*
Y413910D01*
X466410Y406477D02*
Y413910D01*
X453590D02*
X466410D01*
X453590Y386090D02*
X466410D01*
X453590D02*
Y393523D01*
X466410Y386090D02*
Y393523D01*
X434590Y317477D02*
Y324910D01*
X447410Y317477D02*
Y324910D01*
X434590D02*
X447410D01*
X434590Y297090D02*
X447410D01*
X434590D02*
Y304523D01*
X447410Y297090D02*
Y304523D01*
X454590Y317477D02*
Y324910D01*
X467410Y317477D02*
Y324910D01*
X454590D02*
X467410D01*
X454590Y297090D02*
X467410D01*
X454590D02*
Y304523D01*
X467410Y297090D02*
Y304523D01*
X432590Y226477D02*
Y233910D01*
X445410Y226477D02*
Y233910D01*
X432590D02*
X445410D01*
X432590Y206090D02*
X445410D01*
X432590D02*
Y213523D01*
X445410Y206090D02*
Y213523D01*
X452590Y226477D02*
Y233910D01*
X465410Y226477D02*
Y233910D01*
X452590D02*
X465410D01*
X452590Y206090D02*
X465410D01*
X452590D02*
Y213523D01*
X465410Y206090D02*
Y213523D01*
X107887Y289953D02*
X122303Y304368D01*
X116953Y280888D02*
X131368Y295303D01*
X122303Y304368D02*
X131368Y295303D01*
X102632Y284697D02*
X111697Y275632D01*
X102632Y284697D02*
X107887Y289953D01*
X111697Y275632D02*
X116953Y280888D01*
D19*
X21444Y115068D02*
Y117734D01*
Y116401D01*
X29441D01*
X28108Y115068D01*
X20750Y418400D02*
Y421066D01*
Y419733D01*
X28747D01*
X27415Y418400D01*
X20750Y430396D02*
Y425065D01*
X26082Y430396D01*
X27415D01*
X28747Y429063D01*
Y426397D01*
X27415Y425065D01*
X154624Y123096D02*
X157290D01*
X155957D01*
Y115099D01*
X154624Y116432D01*
X68264Y113891D02*
X69597Y112559D01*
X72263D01*
X73596Y113891D01*
Y115224D01*
X72263Y116557D01*
X70930D01*
X72263D01*
X73596Y117890D01*
Y119223D01*
X72263Y120556D01*
X69597D01*
X68264Y119223D01*
X53005Y109612D02*
Y104280D01*
X54338D01*
X59669Y109612D01*
X61002D01*
X63796Y-2324D02*
Y-4990D01*
Y-3657D01*
X55799D01*
X57132Y-2324D01*
X38396Y-7056D02*
Y-1724D01*
X33064Y-7056D01*
X31732D01*
X30399Y-5723D01*
Y-3057D01*
X31732Y-1724D01*
X30715Y109695D02*
X29383Y108362D01*
Y105696D01*
X30715Y104363D01*
X32048D01*
X33381Y105696D01*
X34714Y104363D01*
X36047D01*
X37380Y105696D01*
Y108362D01*
X36047Y109695D01*
X34714D01*
X33381Y108362D01*
X32048Y109695D01*
X30715D01*
X33381Y108362D02*
Y105696D01*
X178904Y492324D02*
Y494990D01*
Y493657D01*
X186901D01*
X185569Y492324D01*
X180936Y383801D02*
X188933D01*
X184935Y379802D01*
Y385134D01*
D86*
X14160Y392430D02*
X34160D01*
X14160Y367430D02*
X34160D01*
X13906Y217592D02*
X33906D01*
X13906Y192592D02*
X33906D01*
X14160Y167646D02*
X34160D01*
X13906Y142500D02*
X33906D01*
X14160Y242392D02*
X34160D01*
X14160Y267538D02*
X34160D01*
X14160Y292430D02*
X34160D01*
X14160Y317430D02*
X34160D01*
X14160Y342430D02*
X34160D01*
X457300Y-32500D02*
Y-12500D01*
X432300Y-32500D02*
Y-12500D01*
X407300Y-32500D02*
Y-12500D01*
X382300Y-32500D02*
Y-12500D01*
X482300Y-32500D02*
Y-12500D01*
X302300Y-32500D02*
Y-12500D01*
X202300Y-32500D02*
Y-12500D01*
X227300Y-32500D02*
Y-12500D01*
X252300Y-32500D02*
Y-12500D01*
X277300Y-32500D02*
Y-12500D01*
M02*
