G04*
G04 #@! TF.GenerationSoftware,Altium Limited,Altium Designer,22.4.2 (48)*
G04*
G04 Layer_Color=255*
%FSLAX25Y25*%
%MOIN*%
G70*
G04*
G04 #@! TF.SameCoordinates,BD52291B-EC81-4074-921C-677567915CDC*
G04*
G04*
G04 #@! TF.FilePolarity,Positive*
G04*
G01*
G75*
%ADD44R,0.03937X0.03937*%
%ADD57R,0.07874X0.07874*%
%ADD58C,0.07874*%
%ADD59C,0.07087*%
%ADD60R,0.07087X0.07087*%
%ADD61R,0.07874X0.07874*%
%ADD62C,0.03937*%
G04:AMPARAMS|DCode=63|XSize=55.12mil|YSize=19.68mil|CornerRadius=4.92mil|HoleSize=0mil|Usage=FLASHONLY|Rotation=0.000|XOffset=0mil|YOffset=0mil|HoleType=Round|Shape=RoundedRectangle|*
%AMROUNDEDRECTD63*
21,1,0.05512,0.00984,0,0,0.0*
21,1,0.04528,0.01968,0,0,0.0*
1,1,0.00984,0.02264,-0.00492*
1,1,0.00984,-0.02264,-0.00492*
1,1,0.00984,-0.02264,0.00492*
1,1,0.00984,0.02264,0.00492*
%
%ADD63ROUNDEDRECTD63*%
D44*
X93701Y31496D02*
D03*
D57*
X43307Y131890D02*
D03*
X108268Y135827D02*
D03*
X127953Y5906D02*
D03*
X86614Y7874D02*
D03*
X64961Y7480D02*
D03*
D58*
X53150Y131890D02*
D03*
X118110Y135827D02*
D03*
X127953D02*
D03*
X8268Y59055D02*
D03*
X151575Y46260D02*
D03*
Y36417D02*
D03*
Y26575D02*
D03*
X137795Y5906D02*
D03*
X96457Y7874D02*
D03*
X106299D02*
D03*
X35433Y7480D02*
D03*
X45276D02*
D03*
X55118D02*
D03*
X25591D02*
D03*
X7874Y27559D02*
D03*
Y17717D02*
D03*
Y7874D02*
D03*
D59*
X151575Y137795D02*
D03*
Y127953D02*
D03*
Y118110D02*
D03*
Y88583D02*
D03*
Y98425D02*
D03*
Y108268D02*
D03*
D60*
Y78740D02*
D03*
D61*
X8268Y68898D02*
D03*
X151575Y56102D02*
D03*
X7874Y37402D02*
D03*
D62*
X85827Y31496D02*
D03*
D63*
X6299Y104528D02*
D03*
X21260D02*
D03*
Y138543D02*
D03*
X6299D02*
D03*
M02*
