G04*
G04 #@! TF.GenerationSoftware,Altium Limited,Altium Designer,22.4.2 (48)*
G04*
G04 Layer_Color=8421504*
%FSLAX25Y25*%
%MOIN*%
G70*
G04*
G04 #@! TF.SameCoordinates,BD52291B-EC81-4074-921C-677567915CDC*
G04*
G04*
G04 #@! TF.FilePolarity,Positive*
G04*
G01*
G75*
%ADD21R,0.03937X0.05906*%
%ADD22R,0.07087X0.02559*%
%ADD23O,0.07087X0.02559*%
%ADD24R,0.03000X0.03000*%
%ADD25R,0.03543X0.03543*%
%ADD26R,0.06000X0.06000*%
%ADD27R,0.03937X0.03937*%
%ADD28R,0.03000X0.03000*%
%ADD29R,0.06299X0.01575*%
%ADD30R,0.03543X0.03543*%
%ADD31R,0.05906X0.06299*%
D21*
X30512Y41339D02*
D03*
Y72835D02*
D03*
X48228Y41339D02*
D03*
Y72835D02*
D03*
D22*
X46063Y111831D02*
D03*
X78740Y66929D02*
D03*
D23*
X46063Y106831D02*
D03*
Y101831D02*
D03*
Y96831D02*
D03*
X68110Y111831D02*
D03*
Y106831D02*
D03*
Y101831D02*
D03*
Y96831D02*
D03*
X78740Y61929D02*
D03*
Y56929D02*
D03*
Y51929D02*
D03*
X100787Y66929D02*
D03*
Y61929D02*
D03*
Y56929D02*
D03*
Y51929D02*
D03*
D24*
X37408Y101175D02*
D03*
X37402Y95725D02*
D03*
X96463Y78341D02*
D03*
X96457Y72891D02*
D03*
X90545Y72840D02*
D03*
X90551Y78290D02*
D03*
D25*
X37402Y107283D02*
D03*
Y113189D02*
D03*
X76772Y104134D02*
D03*
Y98228D02*
D03*
X82677Y104134D02*
D03*
Y98228D02*
D03*
X84646Y78543D02*
D03*
Y72638D02*
D03*
X78740D02*
D03*
Y78543D02*
D03*
D26*
X88583Y137795D02*
D03*
X75083D02*
D03*
D27*
X66535Y121457D02*
D03*
X75197Y125197D02*
D03*
X66535Y128937D02*
D03*
X81890Y118110D02*
D03*
X90551Y121850D02*
D03*
X81890Y125591D02*
D03*
D28*
X101907Y117316D02*
D03*
X96457Y117323D02*
D03*
X96057Y100387D02*
D03*
X90607Y100394D02*
D03*
X69679Y70072D02*
D03*
X64229Y70079D02*
D03*
X93301Y45269D02*
D03*
X87851Y45276D02*
D03*
D29*
X106693Y101673D02*
D03*
Y99114D02*
D03*
Y96555D02*
D03*
Y91437D02*
D03*
Y88878D02*
D03*
Y93996D02*
D03*
Y104232D02*
D03*
Y106791D02*
D03*
Y109350D02*
D03*
Y111909D02*
D03*
X129528Y88878D02*
D03*
Y91437D02*
D03*
Y93996D02*
D03*
Y96555D02*
D03*
Y99114D02*
D03*
Y101673D02*
D03*
Y104232D02*
D03*
Y106791D02*
D03*
Y109350D02*
D03*
Y111909D02*
D03*
D30*
X90748Y112205D02*
D03*
X96653D02*
D03*
X76575Y111811D02*
D03*
X82480D02*
D03*
X96653Y106299D02*
D03*
X90748D02*
D03*
X90354Y94095D02*
D03*
X96260D02*
D03*
X69882Y64961D02*
D03*
X63976D02*
D03*
X69882Y59055D02*
D03*
X63976D02*
D03*
X69882Y53150D02*
D03*
X63976D02*
D03*
X82480Y45276D02*
D03*
X76575D02*
D03*
X98622D02*
D03*
X104528D02*
D03*
X116142Y64961D02*
D03*
X110236D02*
D03*
X116142Y59055D02*
D03*
X110236D02*
D03*
X116142Y53150D02*
D03*
X110236D02*
D03*
X116339Y16142D02*
D03*
X110433D02*
D03*
D31*
X96653Y86614D02*
D03*
X82874D02*
D03*
X58071Y86221D02*
D03*
X71850D02*
D03*
X35236D02*
D03*
X49016D02*
D03*
M02*
