M48
;Layer_Color=9474304
;FILE_FORMAT=2:5
INCH,LZ
;TYPE=PLATED
T1F00S00C0.01181
T2F00S00C0.01968
T4F00S00C0.02800
T5F00S00C0.03937
%
T01
X0110236Y0051181
X0113684Y0079826
X0113779Y0085827
X0114567Y0109449
X0112598Y0106693
Y0098032
X0097244Y0101181
X0096063Y0110236
X0091732Y010748
X0094488Y0116929
X0103543Y0117717
X0080315Y0116929
X0071653Y009685
X0064173
X0049213Y0101575
X0062992Y007126
X0074016Y0076378
X0098032Y0072441
T02
X0085827Y0031496
X0093701
T04
X001378Y0133858
T05
X0007874Y0007874
Y0017717
Y0027559
Y0037402
X0008268Y0059055
X0025591Y000748
X0035433
X0045276
X0055118
X0064961
X0086614Y0007874
X0096457
X0106299
X0127953Y0005906
X0137795
X0151575Y0026575
Y0036417
Y004626
Y0056102
Y007874
Y0088583
Y0098425
Y0108268
Y011811
Y0127953
Y0137795
X0127953Y0135827
X011811
X0108268
X005315Y013189
X0043307
X0008268Y0068898
M30
