G04*
G04 #@! TF.GenerationSoftware,Altium Limited,Altium Designer,22.4.2 (48)*
G04*
G04 Layer_Color=8388736*
%FSLAX25Y25*%
%MOIN*%
G70*
G04*
G04 #@! TF.SameCoordinates,BD52291B-EC81-4074-921C-677567915CDC*
G04*
G04*
G04 #@! TF.FilePolarity,Negative*
G04*
G01*
G75*
%ADD32C,0.03543*%
%ADD33C,0.03150*%
%ADD34C,0.02756*%
%ADD35R,0.04331X0.06299*%
%ADD36R,0.07887X0.03359*%
%ADD37O,0.07887X0.03359*%
%ADD38R,0.03800X0.03800*%
%ADD39R,0.03937X0.03937*%
%ADD40R,0.06800X0.06800*%
%ADD41R,0.04737X0.04737*%
%ADD42R,0.03800X0.03800*%
%ADD43R,0.07099X0.02375*%
%ADD44R,0.03937X0.03937*%
%ADD45R,0.06299X0.06693*%
%ADD46R,0.08674X0.08674*%
%ADD47C,0.08674*%
%ADD48C,0.07887*%
%ADD49R,0.07887X0.07887*%
%ADD50R,0.08674X0.08674*%
%ADD51R,0.04737X0.04737*%
%ADD52C,0.04737*%
G04:AMPARAMS|DCode=53|XSize=63.12mil|YSize=27.69mil|CornerRadius=8.92mil|HoleSize=0mil|Usage=FLASHONLY|Rotation=0.000|XOffset=0mil|YOffset=0mil|HoleType=Round|Shape=RoundedRectangle|*
%AMROUNDEDRECTD53*
21,1,0.06312,0.00984,0,0,0.0*
21,1,0.04528,0.02769,0,0,0.0*
1,1,0.01784,0.02264,-0.00492*
1,1,0.01784,-0.02264,-0.00492*
1,1,0.01784,-0.02264,0.00492*
1,1,0.01784,0.02264,0.00492*
%
%ADD53ROUNDEDRECTD53*%
%ADD54C,0.02769*%
D32*
X19408Y110738D02*
X27283D01*
X19408Y132234D02*
X27283D01*
D33*
X19408Y115581D02*
X27283D01*
X19291Y127264D02*
X27165D01*
D34*
X19408Y119518D02*
X27283D01*
X19408Y123455D02*
X27283D01*
D35*
X30512Y41339D02*
D03*
Y72835D02*
D03*
X48228Y41339D02*
D03*
Y72835D02*
D03*
D36*
X46063Y111831D02*
D03*
X78740Y66929D02*
D03*
D37*
X46063Y106831D02*
D03*
Y101831D02*
D03*
Y96831D02*
D03*
X68110Y111831D02*
D03*
Y106831D02*
D03*
Y101831D02*
D03*
Y96831D02*
D03*
X78740Y61929D02*
D03*
Y56929D02*
D03*
Y51929D02*
D03*
X100787Y66929D02*
D03*
Y61929D02*
D03*
Y56929D02*
D03*
Y51929D02*
D03*
D38*
X37408Y101175D02*
D03*
X37402Y95725D02*
D03*
X96463Y78341D02*
D03*
X96457Y72891D02*
D03*
X90545Y72840D02*
D03*
X90551Y78290D02*
D03*
D39*
X37402Y107283D02*
D03*
Y113189D02*
D03*
X76772Y104134D02*
D03*
Y98228D02*
D03*
X82677Y104134D02*
D03*
Y98228D02*
D03*
X84646Y78543D02*
D03*
Y72638D02*
D03*
X78740D02*
D03*
Y78543D02*
D03*
D40*
X88583Y137795D02*
D03*
X75083D02*
D03*
D41*
X66535Y121457D02*
D03*
X75197Y125197D02*
D03*
X66535Y128937D02*
D03*
X81890Y118110D02*
D03*
X90551Y121850D02*
D03*
X81890Y125591D02*
D03*
D42*
X101907Y117316D02*
D03*
X96457Y117323D02*
D03*
X96057Y100387D02*
D03*
X90607Y100394D02*
D03*
X69679Y70072D02*
D03*
X64229Y70079D02*
D03*
X93301Y45269D02*
D03*
X87851Y45276D02*
D03*
D43*
X106693Y101673D02*
D03*
Y99114D02*
D03*
Y96555D02*
D03*
Y91437D02*
D03*
Y88878D02*
D03*
Y93996D02*
D03*
Y104232D02*
D03*
Y106791D02*
D03*
Y109350D02*
D03*
Y111909D02*
D03*
X129528Y88878D02*
D03*
Y91437D02*
D03*
Y93996D02*
D03*
Y96555D02*
D03*
Y99114D02*
D03*
Y101673D02*
D03*
Y104232D02*
D03*
Y106791D02*
D03*
Y109350D02*
D03*
Y111909D02*
D03*
D44*
X90748Y112205D02*
D03*
X96653D02*
D03*
X76575Y111811D02*
D03*
X82480D02*
D03*
X96653Y106299D02*
D03*
X90748D02*
D03*
X90354Y94095D02*
D03*
X96260D02*
D03*
X69882Y64961D02*
D03*
X63976D02*
D03*
X69882Y59055D02*
D03*
X63976D02*
D03*
X69882Y53150D02*
D03*
X63976D02*
D03*
X82480Y45276D02*
D03*
X76575D02*
D03*
X98622D02*
D03*
X104528D02*
D03*
X116142Y64961D02*
D03*
X110236D02*
D03*
X116142Y59055D02*
D03*
X110236D02*
D03*
X116142Y53150D02*
D03*
X110236D02*
D03*
X116339Y16142D02*
D03*
X110433D02*
D03*
D45*
X96653Y86614D02*
D03*
X82874D02*
D03*
X58071Y86221D02*
D03*
X71850D02*
D03*
X35236D02*
D03*
X49016D02*
D03*
D46*
X43307Y131890D02*
D03*
X108268Y135827D02*
D03*
X127953Y5906D02*
D03*
X86614Y7874D02*
D03*
X64961Y7480D02*
D03*
D47*
X53150Y131890D02*
D03*
X118110Y135827D02*
D03*
X127953D02*
D03*
X8268Y59055D02*
D03*
X151575Y46260D02*
D03*
Y36417D02*
D03*
Y26575D02*
D03*
X137795Y5906D02*
D03*
X96457Y7874D02*
D03*
X106299D02*
D03*
X35433Y7480D02*
D03*
X45276D02*
D03*
X55118D02*
D03*
X25591D02*
D03*
X7874Y27559D02*
D03*
Y17717D02*
D03*
Y7874D02*
D03*
D48*
X151575Y137795D02*
D03*
Y127953D02*
D03*
Y118110D02*
D03*
Y88583D02*
D03*
Y98425D02*
D03*
Y108268D02*
D03*
D49*
Y78740D02*
D03*
D50*
X8268Y68898D02*
D03*
X151575Y56102D02*
D03*
X7874Y37402D02*
D03*
D51*
X93701Y31496D02*
D03*
D52*
X85827D02*
D03*
D53*
X6299Y104528D02*
D03*
X21260D02*
D03*
Y138543D02*
D03*
X6299D02*
D03*
D54*
X62992Y71260D02*
D03*
X49213Y101575D02*
D03*
X74016Y76378D02*
D03*
X112598Y98032D02*
D03*
X98032Y72441D02*
D03*
X110236Y51181D02*
D03*
X113779Y85827D02*
D03*
X113684Y79826D02*
D03*
X112598Y106693D02*
D03*
X114567Y109449D02*
D03*
X103543Y117717D02*
D03*
X97244Y101181D02*
D03*
X96063Y110236D02*
D03*
X91732Y107480D02*
D03*
X94488Y116929D02*
D03*
X80315D02*
D03*
X71653Y96850D02*
D03*
X64173D02*
D03*
M02*
