G04*
G04 #@! TF.GenerationSoftware,Altium Limited,Altium Designer,22.4.2 (48)*
G04*
G04 Layer_Color=16711935*
%FSLAX25Y25*%
%MOIN*%
G70*
G04*
G04 #@! TF.SameCoordinates,BD52291B-EC81-4074-921C-677567915CDC*
G04*
G04*
G04 #@! TF.FilePolarity,Negative*
G04*
G01*
G75*
%ADD46R,0.08674X0.08674*%
%ADD47C,0.08674*%
%ADD48C,0.07887*%
%ADD49R,0.07887X0.07887*%
%ADD50R,0.08674X0.08674*%
%ADD51R,0.04737X0.04737*%
%ADD52C,0.04737*%
G04:AMPARAMS|DCode=53|XSize=63.12mil|YSize=27.69mil|CornerRadius=8.92mil|HoleSize=0mil|Usage=FLASHONLY|Rotation=0.000|XOffset=0mil|YOffset=0mil|HoleType=Round|Shape=RoundedRectangle|*
%AMROUNDEDRECTD53*
21,1,0.06312,0.00984,0,0,0.0*
21,1,0.04528,0.02769,0,0,0.0*
1,1,0.01784,0.02264,-0.00492*
1,1,0.01784,-0.02264,-0.00492*
1,1,0.01784,-0.02264,0.00492*
1,1,0.01784,0.02264,0.00492*
%
%ADD53ROUNDEDRECTD53*%
%ADD54C,0.02769*%
D46*
X43307Y131890D02*
D03*
X108268Y135827D02*
D03*
X127953Y5906D02*
D03*
X86614Y7874D02*
D03*
X64961Y7480D02*
D03*
D47*
X53150Y131890D02*
D03*
X118110Y135827D02*
D03*
X127953D02*
D03*
X8268Y59055D02*
D03*
X151575Y46260D02*
D03*
Y36417D02*
D03*
Y26575D02*
D03*
X137795Y5906D02*
D03*
X96457Y7874D02*
D03*
X106299D02*
D03*
X35433Y7480D02*
D03*
X45276D02*
D03*
X55118D02*
D03*
X25591D02*
D03*
X7874Y27559D02*
D03*
Y17717D02*
D03*
Y7874D02*
D03*
D48*
X151575Y137795D02*
D03*
Y127953D02*
D03*
Y118110D02*
D03*
Y88583D02*
D03*
Y98425D02*
D03*
Y108268D02*
D03*
D49*
Y78740D02*
D03*
D50*
X8268Y68898D02*
D03*
X151575Y56102D02*
D03*
X7874Y37402D02*
D03*
D51*
X93701Y31496D02*
D03*
D52*
X85827D02*
D03*
D53*
X6299Y104528D02*
D03*
X21260D02*
D03*
Y138543D02*
D03*
X6299D02*
D03*
D54*
X62992Y71260D02*
D03*
X49213Y101575D02*
D03*
X74016Y76378D02*
D03*
X112598Y98032D02*
D03*
X98032Y72441D02*
D03*
X110236Y51181D02*
D03*
X113779Y85827D02*
D03*
X113684Y79826D02*
D03*
X112598Y106693D02*
D03*
X114567Y109449D02*
D03*
X103543Y117717D02*
D03*
X97244Y101181D02*
D03*
X96063Y110236D02*
D03*
X91732Y107480D02*
D03*
X94488Y116929D02*
D03*
X80315D02*
D03*
X71653Y96850D02*
D03*
X64173D02*
D03*
M02*
