G04*
G04 #@! TF.GenerationSoftware,Altium Limited,Altium Designer,22.4.2 (48)*
G04*
G04 Layer_Physical_Order=2*
G04 Layer_Color=16711680*
%FSLAX25Y25*%
%MOIN*%
G70*
G04*
G04 #@! TF.SameCoordinates,BD52291B-EC81-4074-921C-677567915CDC*
G04*
G04*
G04 #@! TF.FilePolarity,Positive*
G04*
G01*
G75*
%ADD10C,0.00787*%
%ADD11C,0.01181*%
%ADD44R,0.03937X0.03937*%
%ADD56C,0.01968*%
%ADD57R,0.07874X0.07874*%
%ADD58C,0.07874*%
%ADD59C,0.07087*%
%ADD60R,0.07087X0.07087*%
%ADD61R,0.07874X0.07874*%
%ADD62C,0.03937*%
G04:AMPARAMS|DCode=63|XSize=55.12mil|YSize=19.68mil|CornerRadius=4.92mil|HoleSize=0mil|Usage=FLASHONLY|Rotation=0.000|XOffset=0mil|YOffset=0mil|HoleType=Round|Shape=RoundedRectangle|*
%AMROUNDEDRECTD63*
21,1,0.05512,0.00984,0,0,0.0*
21,1,0.04528,0.01968,0,0,0.0*
1,1,0.00984,0.02264,-0.00492*
1,1,0.00984,-0.02264,-0.00492*
1,1,0.00984,-0.02264,0.00492*
1,1,0.00984,0.02264,0.00492*
%
%ADD63ROUNDEDRECTD63*%
%ADD64C,0.01968*%
G36*
X121839Y141542D02*
X121459Y141163D01*
X121430Y141138D01*
X121270Y141036D01*
X121058Y140936D01*
X120794Y140841D01*
X120477Y140757D01*
X120110Y140686D01*
X119702Y140632D01*
X118708Y140570D01*
X118145Y140566D01*
X118071Y140551D01*
X117488D01*
X116287Y140229D01*
X115209Y139607D01*
X114330Y138728D01*
X113708Y137650D01*
X113492Y136846D01*
X112992Y136911D01*
Y140551D01*
X103543D01*
Y131102D01*
X110746D01*
X110937Y130640D01*
X96722Y116425D01*
X96522Y116491D01*
X96260Y116670D01*
Y116755D01*
X96295Y116929D01*
X96260Y117104D01*
Y117281D01*
X96192Y117446D01*
X96157Y117620D01*
X96058Y117768D01*
X95990Y117933D01*
X95864Y118059D01*
X95766Y118206D01*
X94584Y119387D01*
X93998Y119779D01*
X93307Y119917D01*
X81496D01*
X80805Y119779D01*
X80219Y119387D01*
X79038Y118206D01*
X78939Y118059D01*
X78813Y117933D01*
X78745Y117768D01*
X78646Y117620D01*
X78611Y117446D01*
X78543Y117281D01*
Y117104D01*
X78509Y116929D01*
X78543Y116755D01*
Y116577D01*
X78611Y116412D01*
X78646Y116238D01*
X78745Y116090D01*
X78813Y115926D01*
X78939Y115800D01*
X79038Y115652D01*
X79186Y115553D01*
X79311Y115427D01*
X79476Y115359D01*
X79624Y115260D01*
X79798Y115226D01*
X79963Y115157D01*
X80141D01*
X80315Y115123D01*
X80489Y115157D01*
X80667D01*
X80832Y115226D01*
X81006Y115260D01*
X81154Y115359D01*
X81318Y115427D01*
X81444Y115553D01*
X81592Y115652D01*
X82244Y116304D01*
X90655D01*
X90846Y115842D01*
X79173Y104169D01*
X77165D01*
X76474Y104031D01*
X75888Y103639D01*
X70905Y98657D01*
X64173D01*
X63999Y98622D01*
X63821D01*
X63657Y98554D01*
X63482Y98519D01*
X63334Y98420D01*
X63170Y98352D01*
X63044Y98226D01*
X62896Y98128D01*
X62797Y97980D01*
X62671Y97854D01*
X62603Y97690D01*
X62504Y97542D01*
X62470Y97367D01*
X62402Y97203D01*
Y97025D01*
X62367Y96850D01*
X62402Y96676D01*
Y96498D01*
X62470Y96334D01*
X62504Y96159D01*
X62603Y96011D01*
X62671Y95847D01*
X62797Y95721D01*
X62896Y95573D01*
X63044Y95474D01*
X63170Y95349D01*
X63334Y95280D01*
X63482Y95182D01*
X63657Y95147D01*
X63821Y95079D01*
X63999D01*
X64173Y95044D01*
X71653D01*
X71828Y95079D01*
X72006D01*
X72170Y95147D01*
X72345Y95182D01*
X72493Y95280D01*
X72657Y95349D01*
X72783Y95474D01*
X72931Y95573D01*
X77914Y100556D01*
X79921D01*
X80612Y100693D01*
X81199Y101085D01*
X90031Y109918D01*
X90492Y109672D01*
X90478Y109599D01*
Y108731D01*
X90230Y108484D01*
X89961Y107833D01*
Y107128D01*
X90230Y106477D01*
X90729Y105978D01*
X91380Y105709D01*
X92085D01*
X92736Y105978D01*
X93234Y106477D01*
X93504Y107128D01*
Y107833D01*
X93295Y108338D01*
X93288Y108448D01*
Y109018D01*
X114761Y130491D01*
X114790Y130516D01*
X114951Y130617D01*
X115162Y130718D01*
X115427Y130812D01*
X115743Y130896D01*
X116110Y130967D01*
X116519Y131022D01*
X117513Y131084D01*
X118076Y131087D01*
X118150Y131102D01*
X118732D01*
X119934Y131424D01*
X121011Y132046D01*
X121891Y132926D01*
X122513Y134003D01*
X122773Y134974D01*
X123290D01*
X123550Y134003D01*
X124172Y132926D01*
X125052Y132046D01*
X126129Y131424D01*
X127331Y131102D01*
X128575D01*
X129776Y131424D01*
X130854Y132046D01*
X131733Y132926D01*
X132355Y134003D01*
X132677Y135205D01*
Y136449D01*
X132355Y137650D01*
X131733Y138728D01*
X130929Y139532D01*
X131035Y140032D01*
X137509D01*
X145660Y131881D01*
X146116Y131576D01*
X146653Y131469D01*
X148259D01*
X148467Y130969D01*
X148109Y130612D01*
X147539Y129624D01*
X147244Y128523D01*
Y127383D01*
X147539Y126281D01*
X148109Y125294D01*
X148916Y124487D01*
X149903Y123917D01*
X151005Y123622D01*
X152145D01*
X153246Y123917D01*
X154234Y124487D01*
X155040Y125294D01*
X155610Y126281D01*
X155905Y127383D01*
Y128523D01*
X155610Y129624D01*
X155040Y130612D01*
X154683Y130969D01*
X154890Y131469D01*
X157489D01*
X157650Y131308D01*
Y80145D01*
X156031D01*
X155958Y80151D01*
X155905Y80160D01*
Y83071D01*
X147244D01*
Y74410D01*
X155905D01*
Y77320D01*
X155958Y77329D01*
X156031Y77335D01*
X157650D01*
Y31684D01*
X155431Y29466D01*
X155355Y29476D01*
X154476Y30355D01*
X153398Y30977D01*
X152428Y31237D01*
Y31755D01*
X153398Y32015D01*
X154476Y32637D01*
X155355Y33516D01*
X155977Y34594D01*
X156299Y35795D01*
Y37039D01*
X155977Y38241D01*
X155355Y39318D01*
X154476Y40198D01*
X153398Y40820D01*
X152428Y41080D01*
Y41597D01*
X153398Y41857D01*
X154476Y42479D01*
X155355Y43359D01*
X155977Y44436D01*
X156299Y45638D01*
Y46882D01*
X155977Y48083D01*
X155355Y49161D01*
X154476Y50040D01*
X153398Y50662D01*
X152594Y50878D01*
X152659Y51378D01*
X156299D01*
Y60827D01*
X146850D01*
Y51378D01*
X150490D01*
X150556Y50878D01*
X149751Y50662D01*
X148674Y50040D01*
X147794Y49161D01*
X147172Y48083D01*
X146850Y46882D01*
Y45638D01*
X147172Y44436D01*
X147794Y43359D01*
X148674Y42479D01*
X149751Y41857D01*
X150722Y41597D01*
Y41080D01*
X149751Y40820D01*
X148674Y40198D01*
X147794Y39318D01*
X147172Y38241D01*
X146850Y37039D01*
Y35795D01*
X147172Y34594D01*
X147794Y33516D01*
X148674Y32637D01*
X149751Y32015D01*
X150722Y31755D01*
Y31237D01*
X149751Y30977D01*
X148674Y30355D01*
X147794Y29476D01*
X147172Y28398D01*
X146850Y27197D01*
Y25953D01*
X147172Y24751D01*
X147794Y23674D01*
X148206Y23262D01*
X148248Y23199D01*
X148643Y22798D01*
X149303Y22052D01*
X149553Y21724D01*
X149762Y21415D01*
X149926Y21131D01*
X150047Y20877D01*
X150125Y20657D01*
X150167Y20471D01*
X150170Y20434D01*
Y2944D01*
X148631Y1405D01*
X140449D01*
X140315Y1905D01*
X140696Y2125D01*
X141576Y3005D01*
X142198Y4082D01*
X142520Y5283D01*
Y6527D01*
X142198Y7729D01*
X141576Y8806D01*
X140696Y9686D01*
X139619Y10308D01*
X138417Y10630D01*
X137173D01*
X135972Y10308D01*
X134894Y9686D01*
X134015Y8806D01*
X133393Y7729D01*
X133177Y6924D01*
X132677Y6990D01*
Y10630D01*
X123228D01*
Y1405D01*
X115382D01*
X115260Y1418D01*
X115104Y1448D01*
X114955Y1489D01*
X114812Y1542D01*
X114674Y1606D01*
X114539Y1682D01*
X114408Y1771D01*
X114312Y1848D01*
X111635Y4525D01*
X111610Y4554D01*
X111509Y4715D01*
X111408Y4926D01*
X111314Y5190D01*
X111230Y5507D01*
X111159Y5874D01*
X111104Y6283D01*
X111042Y7277D01*
X111039Y7840D01*
X111024Y7914D01*
Y8496D01*
X110702Y9698D01*
X110080Y10775D01*
X109200Y11654D01*
X108123Y12276D01*
X106921Y12598D01*
X105677D01*
X104476Y12276D01*
X103398Y11654D01*
X102519Y10775D01*
X101897Y9698D01*
X101637Y8727D01*
X101119D01*
X100859Y9698D01*
X100237Y10775D01*
X99358Y11654D01*
X98280Y12276D01*
X97079Y12598D01*
X95835D01*
X94633Y12276D01*
X93556Y11654D01*
X92676Y10775D01*
X92054Y9698D01*
X91732Y8496D01*
Y7252D01*
X92054Y6050D01*
X92676Y4973D01*
X93556Y4093D01*
X94633Y3472D01*
X95835Y3150D01*
X97079D01*
X98280Y3472D01*
X99358Y4093D01*
X100237Y4973D01*
X100859Y6050D01*
X101119Y7021D01*
X101637D01*
X101897Y6050D01*
X102519Y4973D01*
X103398Y4093D01*
X104476Y3472D01*
X105677Y3150D01*
X106260D01*
X106334Y3134D01*
X106896Y3131D01*
X107891Y3069D01*
X108299Y3015D01*
X108666Y2944D01*
X108983Y2859D01*
X109247Y2765D01*
X109459Y2664D01*
X109619Y2563D01*
X109648Y2538D01*
X110319Y1867D01*
X110128Y1405D01*
X33653D01*
X30926Y4131D01*
X30902Y4160D01*
X30800Y4321D01*
X30700Y4532D01*
X30605Y4797D01*
X30521Y5113D01*
X30450Y5480D01*
X30395Y5889D01*
X30379Y6158D01*
X30875Y6239D01*
X31031Y5657D01*
X31653Y4579D01*
X32532Y3700D01*
X33610Y3078D01*
X34811Y2756D01*
X36055D01*
X37257Y3078D01*
X38334Y3700D01*
X39213Y4579D01*
X39836Y5657D01*
X40095Y6627D01*
X40613D01*
X40873Y5657D01*
X41495Y4579D01*
X42375Y3700D01*
X43452Y3078D01*
X44654Y2756D01*
X45898D01*
X47099Y3078D01*
X48176Y3700D01*
X49056Y4579D01*
X49678Y5657D01*
X49938Y6627D01*
X50456D01*
X50716Y5657D01*
X51338Y4579D01*
X52217Y3700D01*
X53295Y3078D01*
X54496Y2756D01*
X55740D01*
X56942Y3078D01*
X58019Y3700D01*
X58899Y4579D01*
X59521Y5657D01*
X59842Y6858D01*
Y8102D01*
X59521Y9304D01*
X58899Y10381D01*
X58019Y11261D01*
X56942Y11883D01*
X55740Y12205D01*
X54496D01*
X53295Y11883D01*
X52217Y11261D01*
X51338Y10381D01*
X50716Y9304D01*
X50456Y8334D01*
X49938D01*
X49678Y9304D01*
X49056Y10381D01*
X48176Y11261D01*
X47099Y11883D01*
X45898Y12205D01*
X44654D01*
X43452Y11883D01*
X42375Y11261D01*
X41495Y10381D01*
X40873Y9304D01*
X40613Y8334D01*
X40095D01*
X39836Y9304D01*
X39213Y10381D01*
X38334Y11261D01*
X37257Y11883D01*
X36055Y12205D01*
X34811D01*
X33610Y11883D01*
X32532Y11261D01*
X31653Y10381D01*
X31031Y9304D01*
X30771Y8334D01*
X30253D01*
X29993Y9304D01*
X29371Y10381D01*
X28959Y10793D01*
X28918Y10856D01*
X28522Y11257D01*
X27863Y12003D01*
X27613Y12331D01*
X27403Y12641D01*
X27239Y12924D01*
X27119Y13178D01*
X27040Y13398D01*
X26998Y13584D01*
X26996Y13621D01*
Y19685D01*
X26888Y20223D01*
X26584Y20678D01*
X13000Y34263D01*
X12808Y34469D01*
X12676Y34634D01*
X12598Y34746D01*
Y35130D01*
X12602Y35147D01*
X12598Y35164D01*
Y42126D01*
X3150D01*
Y32677D01*
X6790D01*
X6855Y32177D01*
X6050Y31962D01*
X4973Y31339D01*
X4093Y30460D01*
X3472Y29383D01*
X3150Y28181D01*
Y26937D01*
X3472Y25736D01*
X4093Y24658D01*
X4973Y23779D01*
X6050Y23157D01*
X7021Y22897D01*
Y22379D01*
X6050Y22119D01*
X4973Y21497D01*
X4093Y20617D01*
X3472Y19540D01*
X3150Y18338D01*
Y17095D01*
X3472Y15893D01*
X4093Y14816D01*
X4973Y13936D01*
X6050Y13314D01*
X7252Y12992D01*
X8496D01*
X9698Y13314D01*
X10775Y13936D01*
X11654Y14816D01*
X12276Y15893D01*
X12598Y17095D01*
Y18338D01*
X12276Y19540D01*
X11654Y20617D01*
X10775Y21497D01*
X9698Y22119D01*
X8727Y22379D01*
Y22897D01*
X9698Y23157D01*
X10775Y23779D01*
X11654Y24658D01*
X12276Y25736D01*
X12598Y26937D01*
Y28181D01*
X12276Y29383D01*
X11654Y30460D01*
X10775Y31339D01*
X9698Y31962D01*
X8893Y32177D01*
X8958Y32677D01*
X10112D01*
X10129Y32674D01*
X10146Y32677D01*
X10530D01*
X10633Y32605D01*
X10961Y32328D01*
X24186Y19103D01*
Y13621D01*
X24183Y13584D01*
X24141Y13398D01*
X24062Y13178D01*
X23942Y12924D01*
X23778Y12641D01*
X23568Y12331D01*
X23318Y12003D01*
X22659Y11257D01*
X22264Y10856D01*
X22222Y10793D01*
X21810Y10381D01*
X21188Y9304D01*
X20866Y8102D01*
Y6858D01*
X21188Y5657D01*
X21810Y4579D01*
X22690Y3700D01*
X23767Y3078D01*
X24969Y2756D01*
X25551D01*
X25625Y2741D01*
X26188Y2737D01*
X27182Y2675D01*
X27590Y2621D01*
X27958Y2550D01*
X28274Y2466D01*
X28539Y2371D01*
X28750Y2271D01*
X28911Y2169D01*
X28940Y2145D01*
X31189Y-106D01*
X30998Y-567D01*
X2172D01*
X1204Y400D01*
Y142004D01*
X121648D01*
X121839Y141542D01*
D02*
G37*
G36*
X122950Y139832D02*
X122773Y139624D01*
X122616Y139374D01*
X122477Y139083D01*
X122358Y138749D01*
X122258Y138374D01*
X122177Y137956D01*
X122116Y137496D01*
X122051Y136451D01*
X122047Y135866D01*
X118150Y139764D01*
X118735Y139767D01*
X119780Y139832D01*
X120239Y139894D01*
X120657Y139974D01*
X121033Y140074D01*
X121366Y140194D01*
X121658Y140332D01*
X121908Y140490D01*
X122115Y140667D01*
X122950Y139832D01*
D02*
G37*
G36*
X118071Y131890D02*
X117485Y131886D01*
X116440Y131821D01*
X115981Y131760D01*
X115563Y131679D01*
X115188Y131579D01*
X114854Y131460D01*
X114563Y131321D01*
X114313Y131164D01*
X114105Y130986D01*
X113270Y131822D01*
X113447Y132029D01*
X113605Y132279D01*
X113743Y132571D01*
X113863Y132904D01*
X113963Y133280D01*
X114043Y133697D01*
X114105Y134157D01*
X114170Y135202D01*
X114173Y135787D01*
X118071Y131890D01*
D02*
G37*
G36*
X92474Y108718D02*
X92474Y108607D01*
X92504Y108116D01*
X92512Y108087D01*
X92521Y108070D01*
X91159Y108280D01*
X91184Y108304D01*
X91207Y108338D01*
X91227Y108381D01*
X91244Y108434D01*
X91259Y108496D01*
X91271Y108568D01*
X91287Y108740D01*
X91291Y108841D01*
X91292Y108951D01*
X92474Y108718D01*
D02*
G37*
G36*
X155106Y79809D02*
X155142Y79709D01*
X155201Y79620D01*
X155285Y79543D01*
X155392Y79478D01*
X155524Y79425D01*
X155679Y79384D01*
X155858Y79354D01*
X156061Y79337D01*
X156287Y79331D01*
Y78150D01*
X156061Y78144D01*
X155858Y78126D01*
X155679Y78096D01*
X155524Y78055D01*
X155392Y78002D01*
X155285Y77937D01*
X155201Y77860D01*
X155142Y77772D01*
X155106Y77671D01*
X155094Y77559D01*
Y79921D01*
X155106Y79809D01*
D02*
G37*
G36*
X11732Y35055D02*
X11699Y34947D01*
Y34821D01*
X11732Y34679D01*
X11799Y34521D01*
X11899Y34345D01*
X12033Y34153D01*
X12200Y33944D01*
X12634Y33477D01*
X11799Y32641D01*
X11557Y32875D01*
X11123Y33243D01*
X10931Y33376D01*
X10755Y33477D01*
X10596Y33543D01*
X10454Y33577D01*
X10329D01*
X10221Y33543D01*
X10129Y33477D01*
X11799Y35147D01*
X11732Y35055D01*
D02*
G37*
G36*
X155808Y27265D02*
X155449Y27277D01*
X155061Y28404D01*
X155808Y28446D01*
Y27265D01*
D02*
G37*
G36*
X153919Y23347D02*
X153226Y22562D01*
X152945Y22194D01*
X152707Y21841D01*
X152512Y21505D01*
X152360Y21185D01*
X152252Y20880D01*
X152187Y20592D01*
X152165Y20320D01*
X150984D01*
X150963Y20592D01*
X150898Y20880D01*
X150789Y21185D01*
X150638Y21505D01*
X150443Y21841D01*
X150205Y22194D01*
X149923Y22562D01*
X149230Y23347D01*
X148819Y23763D01*
X154331D01*
X153919Y23347D01*
D02*
G37*
G36*
X26203Y13463D02*
X26268Y13175D01*
X26376Y12870D01*
X26528Y12550D01*
X26722Y12214D01*
X26961Y11862D01*
X27242Y11493D01*
X27935Y10708D01*
X28346Y10292D01*
X22835D01*
X23246Y10708D01*
X23939Y11493D01*
X24220Y11862D01*
X24459Y12214D01*
X24654Y12550D01*
X24805Y12870D01*
X24913Y13175D01*
X24978Y13463D01*
X25000Y13735D01*
X26181D01*
X26203Y13463D01*
D02*
G37*
G36*
X110240Y7249D02*
X110305Y6204D01*
X110366Y5745D01*
X110447Y5327D01*
X110547Y4952D01*
X110666Y4618D01*
X110804Y4326D01*
X110962Y4077D01*
X111140Y3869D01*
X110304Y3034D01*
X110097Y3211D01*
X109847Y3369D01*
X109555Y3507D01*
X109222Y3627D01*
X108846Y3726D01*
X108428Y3807D01*
X107969Y3869D01*
X106924Y3934D01*
X106339Y3937D01*
X110236Y7835D01*
X110240Y7249D01*
D02*
G37*
G36*
X29531Y6855D02*
X29596Y5811D01*
X29657Y5351D01*
X29738Y4933D01*
X29838Y4558D01*
X29957Y4224D01*
X30096Y3933D01*
X30254Y3683D01*
X30431Y3475D01*
X29596Y2640D01*
X29388Y2817D01*
X29138Y2975D01*
X28847Y3114D01*
X28513Y3233D01*
X28137Y3333D01*
X27720Y3413D01*
X27260Y3475D01*
X26215Y3540D01*
X25630Y3543D01*
X29527Y7441D01*
X29531Y6855D01*
D02*
G37*
G36*
X161591Y10341D02*
X153459Y2210D01*
X153158Y2305D01*
X152980Y2437D01*
Y20434D01*
X152983Y20471D01*
X153024Y20657D01*
X153103Y20877D01*
X153223Y21131D01*
X153387Y21415D01*
X153597Y21725D01*
X153847Y22052D01*
X154506Y22798D01*
X154902Y23199D01*
X154944Y23262D01*
X155355Y23674D01*
X155977Y24751D01*
X156299Y25953D01*
Y26548D01*
X156346Y26557D01*
X156802Y26862D01*
X160049Y30109D01*
X160353Y30565D01*
X160460Y31102D01*
Y79432D01*
Y131890D01*
X160353Y132427D01*
X160049Y132883D01*
X159064Y133868D01*
X158608Y134172D01*
X158071Y134279D01*
X147236D01*
X139972Y141542D01*
X140163Y142004D01*
X161591D01*
Y10341D01*
D02*
G37*
G36*
X113753Y1267D02*
X113931Y1125D01*
X114115Y1000D01*
X114306Y891D01*
X114504Y799D01*
X114709Y724D01*
X114921Y666D01*
X115140Y624D01*
X115366Y599D01*
X115599Y591D01*
X114173Y-591D01*
X111566Y591D01*
X111783Y599D01*
X111958Y624D01*
X112094Y666D01*
X112189Y724D01*
X112243Y799D01*
X112258Y891D01*
X112232Y1000D01*
X112166Y1125D01*
X112059Y1267D01*
X111912Y1426D01*
X113583D01*
X113753Y1267D01*
D02*
G37*
%LPC*%
G36*
X23524Y140340D02*
X18996D01*
X18870Y140315D01*
X18504D01*
Y140242D01*
X18497Y140241D01*
X18074Y139958D01*
X17791Y139535D01*
X17692Y139035D01*
Y138051D01*
X17791Y137552D01*
X18074Y137129D01*
X18497Y136846D01*
X18504Y136845D01*
Y136772D01*
X18870D01*
X18996Y136747D01*
X23524D01*
X23650Y136772D01*
X24016D01*
Y136845D01*
X24023Y136846D01*
X24446Y137129D01*
X24729Y137552D01*
X24828Y138051D01*
Y139035D01*
X24729Y139535D01*
X24446Y139958D01*
X24023Y140241D01*
X24016Y140242D01*
Y140315D01*
X23650D01*
X23524Y140340D01*
D02*
G37*
G36*
X8563D02*
X4035D01*
X3909Y140315D01*
X3543D01*
Y140242D01*
X3536Y140241D01*
X3113Y139958D01*
X2830Y139535D01*
X2731Y139035D01*
Y138051D01*
X2830Y137552D01*
X3113Y137129D01*
X3536Y136846D01*
X3543Y136845D01*
Y136772D01*
X3909D01*
X4035Y136747D01*
X8563D01*
X8689Y136772D01*
X9055D01*
Y136845D01*
X9062Y136846D01*
X9486Y137129D01*
X9768Y137552D01*
X9868Y138051D01*
Y139035D01*
X9768Y139535D01*
X9486Y139958D01*
X9062Y140241D01*
X9055Y140242D01*
Y140315D01*
X8689D01*
X8563Y140340D01*
D02*
G37*
G36*
X53772Y136614D02*
X52528D01*
X51326Y136292D01*
X50249Y135670D01*
X49369Y134791D01*
X48747Y133713D01*
X48425Y132512D01*
Y131268D01*
X48747Y130066D01*
X49369Y128989D01*
X50249Y128109D01*
X51326Y127487D01*
X52528Y127165D01*
X53772D01*
X54973Y127487D01*
X56050Y128109D01*
X56930Y128989D01*
X57552Y130066D01*
X57874Y131268D01*
Y132512D01*
X57552Y133713D01*
X56930Y134791D01*
X56050Y135670D01*
X54973Y136292D01*
X53772Y136614D01*
D02*
G37*
G36*
X152145Y122441D02*
X151005D01*
X149903Y122146D01*
X148916Y121576D01*
X148109Y120769D01*
X147539Y119782D01*
X147244Y118680D01*
Y117540D01*
X147539Y116439D01*
X148109Y115451D01*
X148916Y114645D01*
X149903Y114075D01*
X151005Y113779D01*
X152145D01*
X153246Y114075D01*
X154234Y114645D01*
X155040Y115451D01*
X155610Y116439D01*
X155905Y117540D01*
Y118680D01*
X155610Y119782D01*
X155040Y120769D01*
X154234Y121576D01*
X153246Y122146D01*
X152145Y122441D01*
D02*
G37*
G36*
Y112598D02*
X151005D01*
X149903Y112303D01*
X148916Y111733D01*
X148109Y110927D01*
X147539Y109939D01*
X147244Y108838D01*
Y107698D01*
X147539Y106596D01*
X148109Y105609D01*
X148916Y104802D01*
X149903Y104232D01*
X151005Y103937D01*
X152145D01*
X153246Y104232D01*
X154234Y104802D01*
X155040Y105609D01*
X155610Y106596D01*
X155905Y107698D01*
Y108838D01*
X155610Y109939D01*
X155040Y110927D01*
X154234Y111733D01*
X153246Y112303D01*
X152145Y112598D01*
D02*
G37*
G36*
X23524Y106324D02*
X18996D01*
X18870Y106299D01*
X18504D01*
Y106226D01*
X18497Y106225D01*
X18074Y105942D01*
X17791Y105519D01*
X17692Y105020D01*
Y104035D01*
X17791Y103536D01*
X18074Y103113D01*
X18497Y102830D01*
X18504Y102829D01*
Y102756D01*
X18870D01*
X18996Y102731D01*
X23524D01*
X23650Y102756D01*
X24016D01*
Y102829D01*
X24023Y102830D01*
X24446Y103113D01*
X24729Y103536D01*
X24828Y104035D01*
Y105020D01*
X24729Y105519D01*
X24446Y105942D01*
X24023Y106225D01*
X24016Y106226D01*
Y106299D01*
X23650D01*
X23524Y106324D01*
D02*
G37*
G36*
X8563D02*
X4035D01*
X3909Y106299D01*
X3543D01*
Y106226D01*
X3536Y106225D01*
X3113Y105942D01*
X2830Y105519D01*
X2731Y105020D01*
Y104035D01*
X2830Y103536D01*
X3113Y103113D01*
X3536Y102830D01*
X3543Y102829D01*
Y102756D01*
X3909D01*
X4035Y102731D01*
X8563D01*
X8689Y102756D01*
X9055D01*
Y102829D01*
X9062Y102830D01*
X9486Y103113D01*
X9768Y103536D01*
X9868Y104035D01*
Y105020D01*
X9768Y105519D01*
X9486Y105942D01*
X9062Y106225D01*
X9055Y106226D01*
Y106299D01*
X8689D01*
X8563Y106324D01*
D02*
G37*
G36*
X112951Y99803D02*
X112246D01*
X111595Y99533D01*
X111403Y99341D01*
X111347Y99307D01*
X111313Y99275D01*
X111305Y99269D01*
X111296Y99263D01*
X111286Y99258D01*
X111272Y99252D01*
X111252Y99245D01*
X111227Y99239D01*
X111207Y99236D01*
X93701D01*
X93240Y99144D01*
X92849Y98883D01*
X92849Y98883D01*
X73361Y79395D01*
X73100Y79004D01*
X73008Y78543D01*
X73008Y78543D01*
Y77876D01*
X72514Y77381D01*
X72244Y76730D01*
Y76026D01*
X72514Y75374D01*
X73012Y74876D01*
X73663Y74606D01*
X74368D01*
X75019Y74876D01*
X75518Y75374D01*
X75787Y76026D01*
Y76730D01*
X75518Y77381D01*
X75467Y77432D01*
X75459Y77450D01*
X75448Y77480D01*
X75437Y77513D01*
X75428Y77552D01*
X75423Y77584D01*
X75417Y77642D01*
Y78044D01*
X94200Y96827D01*
X111207D01*
X111227Y96824D01*
X111252Y96818D01*
X111272Y96811D01*
X111286Y96805D01*
X111296Y96800D01*
X111305Y96794D01*
X111313Y96788D01*
X111347Y96756D01*
X111403Y96722D01*
X111595Y96530D01*
X112246Y96260D01*
X112951D01*
X113602Y96530D01*
X114100Y97028D01*
X114370Y97679D01*
Y98384D01*
X114100Y99035D01*
X113602Y99533D01*
X112951Y99803D01*
D02*
G37*
G36*
X152145Y102756D02*
X151005D01*
X149903Y102461D01*
X148916Y101891D01*
X148109Y101084D01*
X147539Y100097D01*
X147244Y98995D01*
Y97855D01*
X147539Y96754D01*
X148109Y95766D01*
X148916Y94960D01*
X149903Y94390D01*
X151005Y94095D01*
X152145D01*
X153246Y94390D01*
X154234Y94960D01*
X155040Y95766D01*
X155610Y96754D01*
X155905Y97855D01*
Y98995D01*
X155610Y100097D01*
X155040Y101084D01*
X154234Y101891D01*
X153246Y102461D01*
X152145Y102756D01*
D02*
G37*
G36*
X114919Y111221D02*
X114215D01*
X113563Y110951D01*
X113065Y110452D01*
X112795Y109801D01*
Y109096D01*
X112850Y108965D01*
X112516Y108465D01*
X112246D01*
X111595Y108195D01*
X111097Y107696D01*
X110827Y107045D01*
Y106341D01*
X111097Y105689D01*
X111595Y105191D01*
X112100Y104982D01*
X112183Y104909D01*
X115130Y101961D01*
Y89165D01*
X113564Y87598D01*
X113427D01*
X112776Y87329D01*
X112278Y86830D01*
X112008Y86179D01*
Y85474D01*
X112278Y84823D01*
X112776Y84325D01*
X113427Y84055D01*
X114132D01*
X114783Y84325D01*
X115281Y84823D01*
X115551Y85474D01*
Y85608D01*
X115578Y85638D01*
X116637Y86697D01*
X117099Y86506D01*
Y85228D01*
X113469Y81597D01*
X113332D01*
X112680Y81328D01*
X112182Y80829D01*
X111912Y80178D01*
Y79473D01*
X112182Y78822D01*
X112680Y78324D01*
X113332Y78054D01*
X114036D01*
X114688Y78324D01*
X115186Y78822D01*
X115456Y79473D01*
Y79606D01*
X115483Y79637D01*
X119497Y83652D01*
X119802Y84108D01*
X119909Y84646D01*
Y105512D01*
X119802Y106050D01*
X119497Y106505D01*
X116339Y109664D01*
Y109801D01*
X116069Y110452D01*
X115570Y110951D01*
X114919Y111221D01*
D02*
G37*
G36*
X8890Y63779D02*
X7646D01*
X6444Y63458D01*
X5367Y62836D01*
X4487Y61956D01*
X3865Y60879D01*
X3543Y59677D01*
Y58433D01*
X3865Y57232D01*
X4487Y56154D01*
X5367Y55275D01*
X6444Y54653D01*
X7646Y54331D01*
X8890D01*
X10091Y54653D01*
X11169Y55275D01*
X12048Y56154D01*
X12670Y57232D01*
X12992Y58433D01*
Y59677D01*
X12670Y60879D01*
X12048Y61956D01*
X11169Y62836D01*
X10091Y63458D01*
X8890Y63779D01*
D02*
G37*
G36*
X96457Y34252D02*
X90945D01*
Y28740D01*
X96457D01*
Y34252D01*
D02*
G37*
%LPD*%
G36*
X111896Y97342D02*
X111836Y97399D01*
X111771Y97449D01*
X111703Y97493D01*
X111630Y97531D01*
X111553Y97564D01*
X111472Y97591D01*
X111387Y97611D01*
X111298Y97626D01*
X111204Y97635D01*
X111106Y97638D01*
Y98425D01*
X111204Y98428D01*
X111298Y98437D01*
X111387Y98452D01*
X111472Y98472D01*
X111553Y98499D01*
X111630Y98532D01*
X111703Y98570D01*
X111771Y98614D01*
X111836Y98664D01*
X111896Y98721D01*
Y97342D01*
D02*
G37*
G36*
X74606Y77756D02*
X74609Y77659D01*
X74627Y77474D01*
X74642Y77387D01*
X74663Y77302D01*
X74687Y77221D01*
X74717Y77143D01*
X74750Y77069D01*
X74789Y76997D01*
X74831Y76929D01*
X73481Y77204D01*
X73545Y77251D01*
X73603Y77303D01*
X73654Y77362D01*
X73697Y77426D01*
X73734Y77496D01*
X73765Y77571D01*
X73788Y77653D01*
X73805Y77741D01*
X73816Y77834D01*
X73819Y77933D01*
X74606Y77756D01*
D02*
G37*
G36*
X115555Y109409D02*
X115567Y109373D01*
X115587Y109332D01*
X115616Y109285D01*
X115652Y109233D01*
X115750Y109113D01*
X115881Y108971D01*
X115959Y108892D01*
X115124Y108057D01*
X115045Y108135D01*
X114782Y108363D01*
X114730Y108400D01*
X114684Y108429D01*
X114643Y108449D01*
X114607Y108461D01*
X114577Y108465D01*
X115551Y109439D01*
X115555Y109409D01*
D02*
G37*
G36*
X113568Y106498D02*
X113576Y106458D01*
X113593Y106413D01*
X113618Y106364D01*
X113651Y106309D01*
X113693Y106250D01*
X113804Y106117D01*
X113873Y106043D01*
X113950Y105964D01*
X112950Y105293D01*
X112870Y105372D01*
X112502Y105698D01*
X112477Y105712D01*
X112458Y105719D01*
X113569Y106533D01*
X113568Y106498D01*
D02*
G37*
G36*
X115172Y86384D02*
X115094Y86304D01*
X114865Y86042D01*
X114828Y85990D01*
X114800Y85944D01*
X114780Y85903D01*
X114768Y85867D01*
X114764Y85837D01*
X113789Y86811D01*
X113820Y86815D01*
X113855Y86827D01*
X113897Y86847D01*
X113943Y86875D01*
X113995Y86912D01*
X114115Y87010D01*
X114257Y87141D01*
X114336Y87219D01*
X115172Y86384D01*
D02*
G37*
G36*
X115076Y80383D02*
X114998Y80303D01*
X114769Y80041D01*
X114733Y79989D01*
X114704Y79943D01*
X114684Y79902D01*
X114672Y79866D01*
X114668Y79836D01*
X113694Y80810D01*
X113724Y80814D01*
X113760Y80826D01*
X113801Y80846D01*
X113847Y80875D01*
X113900Y80911D01*
X114020Y81009D01*
X114162Y81140D01*
X114241Y81218D01*
X115076Y80383D01*
D02*
G37*
D10*
X74213Y78543D02*
X93701Y98032D01*
X74016Y76378D02*
X74213Y76575D01*
Y78543D01*
X93701Y98032D02*
X112598D01*
D11*
X25591Y7480D02*
Y19685D01*
X7874Y37402D02*
X25591Y19685D01*
Y7480D02*
X33071Y0D01*
X114173D01*
X112598Y106480D02*
X116535Y102543D01*
Y88583D02*
Y102543D01*
X113684Y79826D02*
X118504Y84646D01*
X114567Y109449D02*
X118504Y105512D01*
X113779Y85827D02*
X116535Y88583D01*
X118504Y84646D02*
Y105512D01*
X112598Y106480D02*
Y106693D01*
X149213Y0D02*
X151575Y2362D01*
X114173Y0D02*
X149213D01*
X106299Y7874D02*
X114173Y0D01*
X146653Y132874D02*
X158071D01*
X159055Y131890D01*
X138091Y141437D02*
X146653Y132874D01*
X118110Y135827D02*
X123721Y141437D01*
X138091D01*
X151575Y2362D02*
Y26575D01*
X152855Y27855D01*
X155808D02*
X159055Y31102D01*
Y79432D01*
X152855Y27855D02*
X155808D01*
X159055Y79432D02*
Y131890D01*
X151575Y78740D02*
X158363D01*
X159055Y79432D01*
X91883Y107631D02*
Y109599D01*
X91732Y107480D02*
X91883Y107631D01*
Y109599D02*
X118110Y135827D01*
D44*
X93701Y31496D02*
D03*
D56*
X81496Y118110D02*
X93307D01*
X80315Y116929D02*
X81496Y118110D01*
X93307D02*
X94488Y116929D01*
X79921Y102362D02*
X94488Y116929D01*
X77165Y102362D02*
X79921D01*
X71653Y96850D02*
X77165Y102362D01*
X64173Y96850D02*
X71653D01*
D57*
X43307Y131890D02*
D03*
X108268Y135827D02*
D03*
X127953Y5906D02*
D03*
X86614Y7874D02*
D03*
X64961Y7480D02*
D03*
D58*
X53150Y131890D02*
D03*
X118110Y135827D02*
D03*
X127953D02*
D03*
X8268Y59055D02*
D03*
X151575Y46260D02*
D03*
Y36417D02*
D03*
Y26575D02*
D03*
X137795Y5906D02*
D03*
X96457Y7874D02*
D03*
X106299D02*
D03*
X35433Y7480D02*
D03*
X45276D02*
D03*
X55118D02*
D03*
X25591D02*
D03*
X7874Y27559D02*
D03*
Y17717D02*
D03*
Y7874D02*
D03*
D59*
X151575Y137795D02*
D03*
Y127953D02*
D03*
Y118110D02*
D03*
Y88583D02*
D03*
Y98425D02*
D03*
Y108268D02*
D03*
D60*
Y78740D02*
D03*
D61*
X8268Y68898D02*
D03*
X151575Y56102D02*
D03*
X7874Y37402D02*
D03*
D62*
X85827Y31496D02*
D03*
X13780Y133858D02*
D03*
D63*
X6299Y104528D02*
D03*
X21260D02*
D03*
Y138543D02*
D03*
X6299D02*
D03*
D64*
X62992Y71260D02*
D03*
X49213Y101575D02*
D03*
X74016Y76378D02*
D03*
X112598Y98032D02*
D03*
X98032Y72441D02*
D03*
X110236Y51181D02*
D03*
X113779Y85827D02*
D03*
X113684Y79826D02*
D03*
X112598Y106693D02*
D03*
X114567Y109449D02*
D03*
X103543Y117717D02*
D03*
X97244Y101181D02*
D03*
X96063Y110236D02*
D03*
X91732Y107480D02*
D03*
X94488Y116929D02*
D03*
X80315D02*
D03*
X71653Y96850D02*
D03*
X64173D02*
D03*
M02*
