M48
;Layer_Color=9474304
;FILE_FORMAT=2:5
INCH,LZ
;TYPE=PLATED
T1F00S00C0.01181
T2F00S00C0.03937
T3F00S00C0.04331
T4F00S00C0.04724
%
T01
X0152559Y0107283
X0167323Y0114173
X0084252Y0131102
X0081496Y0138976
X0076386Y0137402
X0087402Y0140551
Y0153543
X0082284Y0150394
X0083858Y0165354
X0075984Y0172039
X0066142Y0170866
X0054331Y0162205
X0057087Y0156496
X0042126Y0161024
X0038189Y016063
X0022835Y0176378
X0020571Y0174205
X0025197Y0179134
X0023228Y018189
X0024409Y0187008
X0028346Y0188189
X0027953Y0184252
X0022835Y0194102
X0011417Y0193701
X0009055Y020315
X-0005118Y0200787
X-0001575Y022287
X001811Y021811
Y0214173
X0034322Y0216563
X0036614Y0220079
X002874Y0204331
X0031102Y0200787
X0069685Y0199606
Y018937
X0100787Y017874
Y0214567
Y0247638
X0004331Y0267323
X-0022835Y0233071
X-0008268Y0165748
X0Y0168504
X0001575Y0140551
X0014351Y0139154
X001724Y0136571
X0020079Y013937
X0023228Y0137008
X0011973Y0136058
X0115748Y0121653
X0120508
X012874Y0134646
X0145669Y0137795
X0167717Y0140157
X0144488Y016811
X0133858Y0166142
X0114567Y0167323
X0210236Y016811
X0212598
Y0170866
X0210236
X0215354
Y016811
Y0165354
X0212598
X0210236
Y0162598
Y0160236
X0212598
Y0162598
X0215354
Y0160236
X021811
Y0162598
Y0165354
X0220866
Y0162598
Y0160236
X0224016
Y0162598
Y0165354
Y016811
Y0170866
X0220866
Y016811
X021811
Y0170866
X0231496Y0211024
X0233858
Y0213779
X0231496
Y0216535
X0233858
Y0219291
X0231496
X0236614
Y0216535
Y0213779
Y0211024
X023937
Y0213779
X0242126
Y0211024
Y0216535
Y0219291
X023937
Y0216535
X0239764Y0232283
X0237008
X0234646
Y0235039
X0237008
X0239764
X024252
Y0232283
X0245276
Y0235039
Y0237795
Y0240551
X024252
Y0237795
X0239764
X0237008
X0234646
Y0240551
X0237008
X0239764
X0201969Y0240158
Y0237402
X0199213
Y0240158
X0196457
Y0237402
X0193701
X0191339
Y0240158
X0193701
Y0234646
X0191339
Y023189
X0193701
X0196457
Y0234646
X0199213
Y023189
X0201969
Y0234646
X0198819Y0218898
Y0216142
X0196063
Y0218898
X0193307
Y0216142
X0190551
X0188189
Y0218898
X0190551
Y0213386
X0188189
Y021063
X0190551
X0193307
Y0213386
X0196063
Y021063
X0198819
Y0213386
X0170079Y0219488
X0177165Y0233465
X0204289Y0258512
X0206651
Y0261268
X0204289
Y0264024
X0206651
Y026678
X0204289
X0209407
Y0264024
Y0261268
Y0258512
X0212163
Y0261268
X0214919
Y0258512
Y0264024
Y026678
X0212163
Y0264024
X0212008Y0272638
Y0275394
X0209252
Y0272638
X0206496
X0204134
Y0275394
X0206496
X0214764
Y0272638
X0277165Y0240945
X0279528
Y0238189
X0277165
Y0235433
X0279528
Y0232677
X0277165
X0282283
Y0235433
X0285039
Y0232677
X0287795
Y0235433
Y0238189
Y0240945
X0285039
Y0238189
X0282283
Y0240945
X028189Y0219685
Y0216929
Y0214173
Y0211417
X0284646
Y0214173
Y0216929
Y0219685
X0279134
X0276378
X0274016
Y0216929
X0276378
X0279134
Y0214173
X0276378
X0274016
Y0211417
X0276378
X0279134
X0214764Y027815
Y0280906
X0212008
Y027815
X0209252
Y0280906
X0206496
X0204134
Y027815
X0206496
T02
X-0031496Y0110236
X-0021654
X-0011811
X-0001969
X0007874
X0017717
X0027559
X0037402
X0047244
X0057087
X0066929
X0076772
X0050551Y014685
X0040551
X0030551
X0056772Y0248031
X0066772
X0076772
X0086772
T03
X-0057087Y0111221
Y0121063
Y0130905
Y0140748
Y0150591
Y0160433
Y0183071
Y0192913
Y0202756
Y0212598
Y0222441
Y0232283
T04
X0060866Y0273622
X0080866
X0210315Y0125984
X0230315
X0250315
M30
