G04*
G04 #@! TF.GenerationSoftware,Altium Limited,Altium Designer,22.4.2 (48)*
G04*
G04 Layer_Color=65535*
%FSLAX44Y44*%
%MOMM*%
G71*
G04*
G04 #@! TF.SameCoordinates,66DA3E34-DB1B-427B-9A16-6C510F1B548E*
G04*
G04*
G04 #@! TF.FilePolarity,Positive*
G04*
G01*
G75*
%ADD10C,0.2000*%
%ADD11C,0.3000*%
%ADD12C,0.4000*%
%ADD13C,0.1778*%
%ADD14C,0.2540*%
%ADD15C,0.1000*%
%ADD16C,0.1500*%
%ADD17C,0.1250*%
%ADD18C,0.2032*%
%ADD19C,0.1270*%
G36*
X160534Y595658D02*
X160524D01*
X160496Y595648D01*
X160449Y595639D01*
X160393Y595620D01*
X160327Y595601D01*
X160252Y595573D01*
X160074Y595517D01*
X159878Y595442D01*
X159671Y595367D01*
X159493Y595273D01*
X159409Y595226D01*
X159334Y595179D01*
X159315Y595170D01*
X159268Y595133D01*
X159203Y595076D01*
X159118Y595001D01*
X159025Y594898D01*
X158931Y594776D01*
X158828Y594636D01*
X158743Y594477D01*
X158734Y594467D01*
X158725Y594430D01*
X158706Y594364D01*
X158678Y594270D01*
X158659Y594148D01*
X158640Y593999D01*
X158631Y593820D01*
X158622Y593605D01*
Y592939D01*
X165539D01*
X165548D01*
X165567D01*
X165604D01*
X165651D01*
X165763D01*
X165904Y592949D01*
X166054Y592958D01*
X166195Y592968D01*
X166326Y592986D01*
X166373Y593005D01*
X166410Y593014D01*
X166420D01*
X166438Y593033D01*
X166467Y593052D01*
X166513Y593080D01*
X166560Y593118D01*
X166607Y593164D01*
X166663Y593230D01*
X166710Y593305D01*
X166720Y593314D01*
X166729Y593343D01*
X166748Y593399D01*
X166766Y593464D01*
X166794Y593549D01*
X166813Y593661D01*
X166823Y593774D01*
X166832Y593914D01*
Y594214D01*
X167076D01*
Y589519D01*
X166832D01*
Y589875D01*
X166823Y589950D01*
X166813Y590034D01*
X166804Y590137D01*
X166776Y590240D01*
X166748Y590343D01*
X166701Y590437D01*
X166691Y590446D01*
X166682Y590465D01*
X166663Y590493D01*
X166626Y590531D01*
X166579Y590578D01*
X166523Y590624D01*
X166457Y590671D01*
X166382Y590709D01*
X166373D01*
X166345Y590718D01*
X166298Y590737D01*
X166213Y590746D01*
X166110Y590765D01*
X166035D01*
X165960Y590774D01*
X165867D01*
X165773Y590784D01*
X165660D01*
X165539D01*
X158622D01*
Y590053D01*
X158631Y589987D01*
Y589912D01*
X158640Y589828D01*
X158668Y589631D01*
X158715Y589406D01*
X158781Y589190D01*
X158875Y588984D01*
X158940Y588890D01*
X159006Y588806D01*
X159015Y588797D01*
X159034Y588778D01*
X159062Y588750D01*
X159109Y588712D01*
X159165Y588666D01*
X159231Y588619D01*
X159306Y588563D01*
X159400Y588506D01*
X159503Y588441D01*
X159615Y588375D01*
X159746Y588319D01*
X159878Y588263D01*
X160028Y588206D01*
X160187Y588159D01*
X160356Y588122D01*
X160534Y588084D01*
Y587841D01*
X158106D01*
Y595901D01*
X160534D01*
Y595658D01*
D02*
G37*
G36*
X160674Y586932D02*
X160749Y586922D01*
X160834Y586913D01*
X160927Y586894D01*
X161040Y586875D01*
X161274Y586810D01*
X161396Y586763D01*
X161527Y586716D01*
X161649Y586651D01*
X161780Y586576D01*
X161902Y586491D01*
X162024Y586397D01*
X162033Y586388D01*
X162052Y586369D01*
X162080Y586341D01*
X162127Y586294D01*
X162174Y586238D01*
X162230Y586172D01*
X162296Y586097D01*
X162361Y586004D01*
X162427Y585901D01*
X162502Y585788D01*
X162568Y585666D01*
X162642Y585535D01*
X162708Y585395D01*
X162764Y585235D01*
X162821Y585076D01*
X162867Y584898D01*
Y584888D01*
X162877Y584870D01*
Y584832D01*
X162886Y584776D01*
X162905Y584701D01*
X162914Y584617D01*
X162924Y584514D01*
X162942Y584392D01*
X162952Y584251D01*
X162971Y584092D01*
X162980Y583914D01*
X162989Y583717D01*
X162999Y583501D01*
X163008Y583267D01*
X163017Y583004D01*
Y582733D01*
X165501D01*
X165511D01*
X165529D01*
X165567D01*
X165614D01*
X165679D01*
X165745Y582742D01*
X165885D01*
X166045Y582752D01*
X166195Y582770D01*
X166326Y582789D01*
X166382Y582798D01*
X166420Y582817D01*
X166429Y582826D01*
X166448Y582836D01*
X166485Y582855D01*
X166523Y582892D01*
X166579Y582939D01*
X166626Y582995D01*
X166673Y583061D01*
X166720Y583136D01*
Y583145D01*
X166738Y583183D01*
X166757Y583239D01*
X166776Y583333D01*
X166794Y583445D01*
X166813Y583595D01*
X166823Y583773D01*
X166832Y583979D01*
X167076D01*
Y579415D01*
X166832D01*
Y579518D01*
X166823Y579621D01*
X166813Y579752D01*
X166804Y579893D01*
X166785Y580033D01*
X166757Y580155D01*
X166720Y580258D01*
X166710Y580268D01*
X166701Y580296D01*
X166673Y580333D01*
X166635Y580380D01*
X166542Y580483D01*
X166485Y580530D01*
X166420Y580568D01*
X166410D01*
X166382Y580586D01*
X166326Y580596D01*
X166232Y580615D01*
X166176Y580624D01*
X166110Y580633D01*
X166035Y580643D01*
X165951D01*
X165857Y580652D01*
X165754Y580661D01*
X165632D01*
X165501D01*
X159681D01*
X159671D01*
X159653D01*
X159615D01*
X159568D01*
X159503D01*
X159446D01*
X159297Y580652D01*
X159137Y580643D01*
X158996Y580624D01*
X158865Y580596D01*
X158809Y580586D01*
X158772Y580568D01*
X158762D01*
X158743Y580549D01*
X158706Y580530D01*
X158659Y580493D01*
X158612Y580455D01*
X158565Y580399D01*
X158518Y580333D01*
X158472Y580249D01*
X158462Y580240D01*
X158453Y580202D01*
X158434Y580146D01*
X158406Y580061D01*
X158387Y579949D01*
X158369Y579799D01*
X158359Y579630D01*
X158350Y579415D01*
X158106D01*
Y583511D01*
X158116Y583642D01*
X158125Y583801D01*
X158144Y583979D01*
X158162Y584176D01*
X158190Y584392D01*
X158228Y584617D01*
X158275Y584851D01*
X158331Y585076D01*
X158397Y585310D01*
X158481Y585526D01*
X158575Y585732D01*
X158678Y585929D01*
X158800Y586097D01*
X158809Y586107D01*
X158828Y586135D01*
X158865Y586172D01*
X158922Y586229D01*
X158987Y586294D01*
X159072Y586369D01*
X159165Y586444D01*
X159268Y586519D01*
X159390Y586594D01*
X159521Y586679D01*
X159662Y586744D01*
X159812Y586810D01*
X159981Y586866D01*
X160149Y586903D01*
X160337Y586932D01*
X160524Y586941D01*
X160534D01*
X160562D01*
X160609D01*
X160674Y586932D01*
D02*
G37*
G36*
X162736Y578581D02*
X162858Y578571D01*
X162999Y578562D01*
X163177Y578534D01*
X163374Y578506D01*
X163580Y578468D01*
X163814Y578412D01*
X164048Y578346D01*
X164301Y578262D01*
X164555Y578168D01*
X164807Y578056D01*
X165070Y577915D01*
X165323Y577765D01*
X165567Y577587D01*
X165585Y577568D01*
X165642Y577522D01*
X165726Y577447D01*
X165839Y577343D01*
X165960Y577203D01*
X166110Y577043D01*
X166260Y576847D01*
X166420Y576622D01*
X166588Y576369D01*
X166738Y576097D01*
X166888Y575788D01*
X167010Y575450D01*
X167123Y575094D01*
X167207Y574700D01*
X167263Y574288D01*
X167272Y574072D01*
X167282Y573848D01*
Y573744D01*
X167272Y573688D01*
Y573613D01*
X167263Y573538D01*
X167254Y573454D01*
X167235Y573248D01*
X167198Y573013D01*
X167141Y572751D01*
X167076Y572470D01*
X166991Y572179D01*
X166879Y571870D01*
X166748Y571561D01*
X166598Y571251D01*
X166410Y570942D01*
X166185Y570651D01*
X165942Y570370D01*
X165801Y570239D01*
X165651Y570108D01*
X165632Y570098D01*
X165595Y570061D01*
X165520Y570014D01*
X165417Y569949D01*
X165295Y569864D01*
X165145Y569780D01*
X164976Y569686D01*
X164779Y569592D01*
X164564Y569489D01*
X164329Y569395D01*
X164067Y569311D01*
X163805Y569227D01*
X163514Y569161D01*
X163214Y569114D01*
X162896Y569077D01*
X162568Y569067D01*
X162558D01*
X162549D01*
X162521D01*
X162483D01*
X162427Y569077D01*
X162371D01*
X162230Y569086D01*
X162061Y569105D01*
X161864Y569142D01*
X161640Y569180D01*
X161405Y569236D01*
X161143Y569311D01*
X160880Y569395D01*
X160599Y569508D01*
X160318Y569639D01*
X160037Y569789D01*
X159765Y569977D01*
X159493Y570183D01*
X159240Y570417D01*
X159221Y570436D01*
X159184Y570483D01*
X159118Y570558D01*
X159034Y570661D01*
X158931Y570792D01*
X158819Y570951D01*
X158706Y571139D01*
X158584Y571345D01*
X158462Y571579D01*
X158350Y571832D01*
X158247Y572104D01*
X158153Y572404D01*
X158069Y572713D01*
X158012Y573051D01*
X157984Y573398D01*
Y573969D01*
X157994Y574119D01*
X158003Y574307D01*
X158031Y574513D01*
X158069Y574747D01*
X158116Y575000D01*
X158172Y575272D01*
X158256Y575553D01*
X158359Y575844D01*
X158481Y576144D01*
X158631Y576434D01*
X158800Y576716D01*
X159006Y576987D01*
X159240Y577250D01*
X159259Y577268D01*
X159297Y577306D01*
X159371Y577372D01*
X159474Y577456D01*
X159606Y577559D01*
X159765Y577672D01*
X159952Y577793D01*
X160159Y577925D01*
X160384Y578046D01*
X160637Y578168D01*
X160909Y578281D01*
X161208Y578384D01*
X161518Y578468D01*
X161855Y578534D01*
X162202Y578571D01*
X162568Y578590D01*
X162586D01*
X162642D01*
X162736Y578581D01*
D02*
G37*
G36*
X170000Y561644D02*
X169138D01*
Y568664D01*
X170000D01*
Y561644D01*
D02*
G37*
G36*
X167076Y556836D02*
X166832D01*
Y557192D01*
X166823Y557267D01*
X166813Y557352D01*
X166804Y557455D01*
X166776Y557558D01*
X166748Y557661D01*
X166701Y557755D01*
X166691Y557764D01*
X166682Y557783D01*
X166663Y557811D01*
X166626Y557849D01*
X166579Y557895D01*
X166523Y557942D01*
X166457Y557989D01*
X166382Y558027D01*
X166373D01*
X166345Y558036D01*
X166298Y558055D01*
X166213Y558064D01*
X166110Y558083D01*
X166035D01*
X165960Y558092D01*
X165867D01*
X165773Y558102D01*
X165660D01*
X165539D01*
X158893D01*
X167076Y554652D01*
Y554502D01*
X158959Y551007D01*
X165267D01*
X165276D01*
X165295D01*
X165332D01*
X165370D01*
X165482D01*
X165623Y551016D01*
X165763D01*
X165895Y551025D01*
X166007Y551035D01*
X166054D01*
X166092Y551044D01*
X166110D01*
X166148Y551063D01*
X166204Y551081D01*
X166279Y551119D01*
X166363Y551175D01*
X166457Y551231D01*
X166542Y551316D01*
X166626Y551409D01*
X166635Y551419D01*
X166654Y551466D01*
X166691Y551531D01*
X166729Y551634D01*
X166766Y551756D01*
X166804Y551916D01*
X166823Y552103D01*
X166832Y552319D01*
X167076D01*
Y549235D01*
X166832D01*
Y549441D01*
X166823Y549507D01*
X166813Y549591D01*
X166794Y549685D01*
X166776Y549788D01*
X166738Y549882D01*
X166729Y549891D01*
X166720Y549929D01*
X166701Y549976D01*
X166663Y550032D01*
X166579Y550163D01*
X166523Y550219D01*
X166467Y550275D01*
X166457Y550285D01*
X166429Y550303D01*
X166392Y550322D01*
X166335Y550360D01*
X166270Y550388D01*
X166185Y550425D01*
X166092Y550463D01*
X165979Y550491D01*
X165970D01*
X165960D01*
X165923D01*
X165867Y550500D01*
X165782D01*
X165726D01*
X165660D01*
X165585D01*
X165501D01*
X165407D01*
X165295D01*
X159625D01*
X159615D01*
X159596D01*
X159559D01*
X159512D01*
X159400D01*
X159268Y550491D01*
X159118Y550482D01*
X158987Y550472D01*
X158865Y550453D01*
X158819Y550435D01*
X158781Y550425D01*
X158772D01*
X158753Y550416D01*
X158725Y550388D01*
X158678Y550360D01*
X158631Y550322D01*
X158584Y550275D01*
X158528Y550210D01*
X158481Y550125D01*
X158472Y550116D01*
X158462Y550088D01*
X158443Y550032D01*
X158415Y549966D01*
X158387Y549882D01*
X158369Y549779D01*
X158359Y549657D01*
X158350Y549526D01*
Y549235D01*
X158106D01*
Y552919D01*
X164020Y555430D01*
X158106Y557877D01*
Y561522D01*
X158350D01*
Y561157D01*
X158359Y561082D01*
X158369Y560998D01*
X158387Y560895D01*
X158406Y560792D01*
X158443Y560688D01*
X158490Y560595D01*
Y560585D01*
X158509Y560566D01*
X158528Y560538D01*
X158565Y560501D01*
X158603Y560454D01*
X158659Y560407D01*
X158725Y560360D01*
X158800Y560323D01*
X158809D01*
X158837Y560313D01*
X158884Y560304D01*
X158959Y560295D01*
X159072Y560276D01*
X159137D01*
X159212Y560267D01*
X159297D01*
X159400Y560257D01*
X159503D01*
X159625D01*
X165539D01*
X165548D01*
X165567D01*
X165604D01*
X165651D01*
X165763D01*
X165904Y560267D01*
X166054Y560276D01*
X166195Y560285D01*
X166326Y560304D01*
X166373Y560313D01*
X166410Y560323D01*
X166420D01*
X166438Y560342D01*
X166467Y560360D01*
X166513Y560388D01*
X166560Y560426D01*
X166607Y560482D01*
X166663Y560548D01*
X166710Y560623D01*
X166720Y560632D01*
X166729Y560660D01*
X166748Y560717D01*
X166766Y560782D01*
X166794Y560866D01*
X166813Y560970D01*
X166823Y561091D01*
X166832Y561223D01*
Y561522D01*
X167076D01*
Y556836D01*
D02*
G37*
G36*
X158350Y548851D02*
X158359Y548823D01*
X158369Y548766D01*
X158378Y548710D01*
X158425Y548570D01*
X158500Y548429D01*
X158509Y548420D01*
X158518Y548401D01*
X158547Y548373D01*
X158584Y548326D01*
X158640Y548279D01*
X158697Y548232D01*
X158772Y548176D01*
X158856Y548129D01*
X158865D01*
X158884Y548120D01*
X158931Y548101D01*
X158968Y548082D01*
X159015Y548064D01*
X159072Y548045D01*
X159146Y548017D01*
X159231Y547979D01*
X159325Y547942D01*
X159437Y547895D01*
X159568Y547839D01*
X159718Y547782D01*
X159887Y547717D01*
X167282Y544896D01*
Y544642D01*
X161471Y542421D01*
X167282Y539966D01*
Y539731D01*
X159962Y536788D01*
X159952Y536779D01*
X159915Y536769D01*
X159859Y536741D01*
X159784Y536713D01*
X159699Y536676D01*
X159596Y536638D01*
X159381Y536544D01*
X159146Y536441D01*
X158931Y536338D01*
X158837Y536282D01*
X158753Y536235D01*
X158687Y536198D01*
X158631Y536160D01*
X158622Y536151D01*
X158594Y536123D01*
X158556Y536085D01*
X158509Y536020D01*
X158462Y535935D01*
X158415Y535832D01*
X158378Y535710D01*
X158350Y535560D01*
X158106D01*
Y539431D01*
X158350D01*
Y539356D01*
X158359Y539272D01*
X158378Y539178D01*
X158397Y539075D01*
X158425Y538972D01*
X158453Y538878D01*
X158500Y538803D01*
X158509Y538794D01*
X158518Y538785D01*
X158547Y538756D01*
X158584Y538728D01*
X158687Y538681D01*
X158743Y538663D01*
X158819Y538653D01*
X158828D01*
X158875Y538663D01*
X158940Y538672D01*
X158987Y538681D01*
X159043Y538691D01*
X159109Y538710D01*
X159193Y538738D01*
X159278Y538756D01*
X159371Y538794D01*
X159484Y538831D01*
X159606Y538869D01*
X159737Y538925D01*
X159887Y538981D01*
X164236Y540734D01*
X160834Y542149D01*
X159878Y541784D01*
X159868D01*
X159840Y541774D01*
X159803Y541756D01*
X159756Y541737D01*
X159690Y541709D01*
X159615Y541681D01*
X159456Y541606D01*
X159278Y541531D01*
X159109Y541456D01*
X158959Y541371D01*
X158893Y541343D01*
X158837Y541306D01*
X158828Y541297D01*
X158790Y541278D01*
X158743Y541240D01*
X158687Y541203D01*
X158631Y541147D01*
X158565Y541081D01*
X158509Y541006D01*
X158462Y540931D01*
X158453Y540922D01*
X158443Y540893D01*
X158425Y540837D01*
X158406Y540772D01*
X158387Y540687D01*
X158369Y540575D01*
X158350Y540453D01*
Y540303D01*
X158106D01*
Y544642D01*
X158350D01*
Y544567D01*
X158359Y544483D01*
Y544389D01*
X158387Y544174D01*
X158406Y544071D01*
X158425Y543986D01*
Y543977D01*
X158434Y543968D01*
X158462Y543902D01*
X158509Y543836D01*
X158584Y543761D01*
X158594D01*
X158603Y543752D01*
X158659Y543724D01*
X158734Y543696D01*
X158828Y543686D01*
X158837D01*
X158865Y543696D01*
X158922Y543705D01*
X159006Y543724D01*
X159062Y543743D01*
X159128Y543761D01*
X159203Y543780D01*
X159287Y543818D01*
X159390Y543846D01*
X159503Y543883D01*
X159625Y543930D01*
X159765Y543986D01*
X164011Y545617D01*
X160168Y547079D01*
X160159D01*
X160140Y547089D01*
X160112Y547098D01*
X160074Y547117D01*
X159971Y547154D01*
X159840Y547201D01*
X159709Y547248D01*
X159568Y547295D01*
X159446Y547332D01*
X159353Y547360D01*
X159343D01*
X159315Y547370D01*
X159278Y547379D01*
X159221Y547389D01*
X159090Y547407D01*
X158950Y547417D01*
X158940D01*
X158903D01*
X158856Y547407D01*
X158790Y547398D01*
X158725Y547370D01*
X158659Y547342D01*
X158584Y547295D01*
X158528Y547229D01*
X158518Y547220D01*
X158500Y547192D01*
X158472Y547145D01*
X158443Y547079D01*
X158415Y546976D01*
X158387Y546854D01*
X158359Y546704D01*
X158350Y546526D01*
X158106D01*
Y548860D01*
X158350D01*
Y548851D01*
D02*
G37*
G36*
X160674Y535017D02*
X160749Y535007D01*
X160834Y534998D01*
X160927Y534979D01*
X161040Y534961D01*
X161274Y534895D01*
X161396Y534848D01*
X161527Y534801D01*
X161649Y534736D01*
X161780Y534661D01*
X161902Y534576D01*
X162024Y534483D01*
X162033Y534473D01*
X162052Y534454D01*
X162080Y534426D01*
X162127Y534380D01*
X162174Y534323D01*
X162230Y534258D01*
X162296Y534183D01*
X162361Y534089D01*
X162427Y533986D01*
X162502Y533873D01*
X162568Y533751D01*
X162642Y533620D01*
X162708Y533480D01*
X162764Y533320D01*
X162821Y533161D01*
X162867Y532983D01*
Y532974D01*
X162877Y532955D01*
Y532917D01*
X162886Y532861D01*
X162905Y532786D01*
X162914Y532702D01*
X162924Y532599D01*
X162942Y532477D01*
X162952Y532336D01*
X162971Y532177D01*
X162980Y531999D01*
X162989Y531802D01*
X162999Y531586D01*
X163008Y531352D01*
X163017Y531090D01*
Y530818D01*
X165501D01*
X165511D01*
X165529D01*
X165567D01*
X165614D01*
X165679D01*
X165745Y530827D01*
X165885D01*
X166045Y530837D01*
X166195Y530855D01*
X166326Y530874D01*
X166382Y530883D01*
X166420Y530902D01*
X166429Y530912D01*
X166448Y530921D01*
X166485Y530940D01*
X166523Y530977D01*
X166579Y531024D01*
X166626Y531080D01*
X166673Y531146D01*
X166720Y531221D01*
Y531230D01*
X166738Y531268D01*
X166757Y531324D01*
X166776Y531418D01*
X166794Y531530D01*
X166813Y531680D01*
X166823Y531858D01*
X166832Y532064D01*
X167076D01*
Y527500D01*
X166832D01*
Y527603D01*
X166823Y527706D01*
X166813Y527837D01*
X166804Y527978D01*
X166785Y528119D01*
X166757Y528240D01*
X166720Y528344D01*
X166710Y528353D01*
X166701Y528381D01*
X166673Y528419D01*
X166635Y528465D01*
X166542Y528568D01*
X166485Y528615D01*
X166420Y528653D01*
X166410D01*
X166382Y528672D01*
X166326Y528681D01*
X166232Y528700D01*
X166176Y528709D01*
X166110Y528718D01*
X166035Y528728D01*
X165951D01*
X165857Y528737D01*
X165754Y528746D01*
X165632D01*
X165501D01*
X159681D01*
X159671D01*
X159653D01*
X159615D01*
X159568D01*
X159503D01*
X159446D01*
X159297Y528737D01*
X159137Y528728D01*
X158996Y528709D01*
X158865Y528681D01*
X158809Y528672D01*
X158772Y528653D01*
X158762D01*
X158743Y528634D01*
X158706Y528615D01*
X158659Y528578D01*
X158612Y528540D01*
X158565Y528484D01*
X158518Y528419D01*
X158472Y528334D01*
X158462Y528325D01*
X158453Y528287D01*
X158434Y528231D01*
X158406Y528147D01*
X158387Y528034D01*
X158369Y527884D01*
X158359Y527716D01*
X158350Y527500D01*
X158106D01*
Y531596D01*
X158116Y531727D01*
X158125Y531886D01*
X158144Y532064D01*
X158162Y532261D01*
X158190Y532477D01*
X158228Y532702D01*
X158275Y532936D01*
X158331Y533161D01*
X158397Y533395D01*
X158481Y533611D01*
X158575Y533817D01*
X158678Y534014D01*
X158800Y534183D01*
X158809Y534192D01*
X158828Y534220D01*
X158865Y534258D01*
X158922Y534314D01*
X158987Y534380D01*
X159072Y534454D01*
X159165Y534529D01*
X159268Y534604D01*
X159390Y534679D01*
X159521Y534764D01*
X159662Y534829D01*
X159812Y534895D01*
X159981Y534951D01*
X160149Y534989D01*
X160337Y535017D01*
X160524Y535026D01*
X160534D01*
X160562D01*
X160609D01*
X160674Y535017D01*
D02*
G37*
G36*
X248034Y347760D02*
X248024D01*
X247996Y347750D01*
X247949Y347741D01*
X247893Y347722D01*
X247827Y347703D01*
X247752Y347675D01*
X247574Y347619D01*
X247378Y347544D01*
X247171Y347469D01*
X246993Y347375D01*
X246909Y347328D01*
X246834Y347281D01*
X246815Y347272D01*
X246768Y347235D01*
X246703Y347178D01*
X246618Y347103D01*
X246525Y347000D01*
X246431Y346879D01*
X246328Y346738D01*
X246243Y346579D01*
X246234Y346569D01*
X246225Y346532D01*
X246206Y346466D01*
X246178Y346372D01*
X246159Y346250D01*
X246140Y346101D01*
X246131Y345923D01*
X246122Y345707D01*
Y345041D01*
X253039D01*
X253048D01*
X253067D01*
X253104D01*
X253151D01*
X253264D01*
X253404Y345051D01*
X253554Y345060D01*
X253695Y345070D01*
X253826Y345088D01*
X253873Y345107D01*
X253910Y345116D01*
X253920D01*
X253938Y345135D01*
X253967Y345154D01*
X254013Y345182D01*
X254060Y345219D01*
X254107Y345266D01*
X254163Y345332D01*
X254210Y345407D01*
X254220Y345416D01*
X254229Y345444D01*
X254248Y345501D01*
X254266Y345566D01*
X254295Y345651D01*
X254313Y345763D01*
X254323Y345876D01*
X254332Y346016D01*
Y346316D01*
X254576D01*
Y341620D01*
X254332D01*
Y341977D01*
X254323Y342052D01*
X254313Y342136D01*
X254304Y342239D01*
X254276Y342342D01*
X254248Y342445D01*
X254201Y342539D01*
X254191Y342548D01*
X254182Y342567D01*
X254163Y342595D01*
X254126Y342633D01*
X254079Y342680D01*
X254023Y342726D01*
X253957Y342773D01*
X253882Y342811D01*
X253873D01*
X253845Y342820D01*
X253798Y342839D01*
X253713Y342848D01*
X253610Y342867D01*
X253535D01*
X253460Y342876D01*
X253367D01*
X253273Y342886D01*
X253160D01*
X253039D01*
X246122D01*
Y342155D01*
X246131Y342089D01*
Y342014D01*
X246140Y341930D01*
X246168Y341733D01*
X246215Y341508D01*
X246281Y341292D01*
X246375Y341086D01*
X246440Y340993D01*
X246506Y340908D01*
X246515Y340899D01*
X246534Y340880D01*
X246562Y340852D01*
X246609Y340814D01*
X246665Y340768D01*
X246731Y340721D01*
X246806Y340664D01*
X246900Y340608D01*
X247003Y340543D01*
X247115Y340477D01*
X247246Y340421D01*
X247378Y340364D01*
X247528Y340308D01*
X247687Y340261D01*
X247856Y340224D01*
X248034Y340186D01*
Y339943D01*
X245606D01*
Y348003D01*
X248034D01*
Y347760D01*
D02*
G37*
G36*
X254576Y338434D02*
Y330683D01*
X254332D01*
Y331039D01*
X254323Y331114D01*
X254313Y331198D01*
X254304Y331301D01*
X254276Y331404D01*
X254248Y331507D01*
X254201Y331601D01*
X254191Y331610D01*
X254182Y331629D01*
X254163Y331667D01*
X254126Y331704D01*
X254079Y331742D01*
X254023Y331789D01*
X253957Y331836D01*
X253882Y331873D01*
X253873D01*
X253845Y331882D01*
X253798Y331901D01*
X253713Y331910D01*
X253610Y331929D01*
X253535D01*
X253460Y331939D01*
X253367D01*
X253273Y331948D01*
X253160D01*
X253039D01*
X247143D01*
X247134D01*
X247115D01*
X247087D01*
X247050D01*
X246946D01*
X246825D01*
X246693Y331939D01*
X246572Y331929D01*
X246468Y331920D01*
X246431D01*
X246403Y331910D01*
X246394D01*
X246365Y331901D01*
X246318Y331882D01*
X246272Y331854D01*
X246206Y331826D01*
X246150Y331779D01*
X246094Y331732D01*
X246037Y331667D01*
X246028Y331657D01*
X246009Y331620D01*
X245981Y331564D01*
X245944Y331489D01*
X245906Y331386D01*
X245878Y331264D01*
X245859Y331133D01*
X245850Y330973D01*
Y330683D01*
X245606D01*
Y338200D01*
X248259D01*
Y337956D01*
X248249D01*
X248212Y337946D01*
X248165Y337937D01*
X248099Y337918D01*
X248024Y337900D01*
X247931Y337871D01*
X247724Y337815D01*
X247499Y337740D01*
X247265Y337646D01*
X247050Y337534D01*
X246956Y337478D01*
X246871Y337412D01*
X246862D01*
X246853Y337393D01*
X246796Y337346D01*
X246721Y337272D01*
X246628Y337159D01*
X246525Y337019D01*
X246422Y336850D01*
X246328Y336653D01*
X246243Y336428D01*
X246234Y336409D01*
Y336390D01*
X246225Y336353D01*
X246215Y336306D01*
X246206Y336259D01*
X246197Y336194D01*
X246178Y336119D01*
X246168Y336025D01*
X246159Y335922D01*
X246150Y335809D01*
X246140Y335688D01*
X246131Y335547D01*
Y335388D01*
X246122Y335219D01*
Y334104D01*
X249777D01*
Y334366D01*
X249768Y334422D01*
X249758Y334497D01*
X249749Y334572D01*
X249711Y334760D01*
X249646Y334966D01*
X249599Y335069D01*
X249552Y335172D01*
X249486Y335275D01*
X249421Y335369D01*
X249336Y335453D01*
X249243Y335528D01*
X249233D01*
X249215Y335547D01*
X249186Y335566D01*
X249140Y335594D01*
X249083Y335622D01*
X249018Y335659D01*
X248933Y335697D01*
X248840Y335734D01*
X248737Y335772D01*
X248624Y335819D01*
X248493Y335856D01*
X248352Y335903D01*
X248193Y335941D01*
X248024Y335969D01*
X247846Y335997D01*
X247659Y336025D01*
Y336269D01*
X252354D01*
Y336025D01*
X252345D01*
X252317D01*
X252279Y336016D01*
X252223Y336006D01*
X252167Y335997D01*
X252092Y335988D01*
X251914Y335950D01*
X251717Y335903D01*
X251511Y335847D01*
X251305Y335772D01*
X251108Y335678D01*
X251098D01*
X251089Y335669D01*
X251024Y335631D01*
X250939Y335584D01*
X250836Y335509D01*
X250724Y335425D01*
X250620Y335322D01*
X250517Y335210D01*
X250442Y335088D01*
X250433Y335069D01*
X250414Y335022D01*
X250386Y334947D01*
X250358Y334835D01*
X250330Y334703D01*
X250302Y334535D01*
X250283Y334329D01*
X250274Y334104D01*
X252804D01*
X252814D01*
X252832D01*
X252870D01*
X252926D01*
X252982D01*
X253048D01*
X253198Y334113D01*
X253348D01*
X253498Y334132D01*
X253563D01*
X253629Y334141D01*
X253676Y334151D01*
X253713Y334160D01*
X253723D01*
X253742Y334169D01*
X253770Y334188D01*
X253807Y334216D01*
X253892Y334291D01*
X253938Y334338D01*
X253976Y334394D01*
Y334403D01*
X253995Y334432D01*
X254004Y334469D01*
X254023Y334535D01*
X254042Y334610D01*
X254060Y334703D01*
X254070Y334825D01*
X254079Y334957D01*
Y335613D01*
X254070Y335697D01*
X254060Y335809D01*
X254051Y335931D01*
X254032Y336063D01*
X254004Y336213D01*
X253938Y336531D01*
X253892Y336700D01*
X253835Y336869D01*
X253770Y337037D01*
X253685Y337206D01*
X253601Y337356D01*
X253498Y337506D01*
X253489Y337515D01*
X253470Y337543D01*
X253432Y337581D01*
X253385Y337628D01*
X253329Y337693D01*
X253254Y337768D01*
X253160Y337843D01*
X253057Y337928D01*
X252945Y338012D01*
X252814Y338106D01*
X252664Y338200D01*
X252504Y338284D01*
X252336Y338368D01*
X252148Y338452D01*
X251942Y338527D01*
X251726Y338593D01*
Y338846D01*
X254576Y338434D01*
D02*
G37*
G36*
X250367Y329839D02*
X250461Y329830D01*
X250574Y329820D01*
X250695Y329811D01*
X250967Y329773D01*
X251258Y329717D01*
X251567Y329642D01*
X251867Y329539D01*
X251876D01*
X251905Y329530D01*
X251942Y329511D01*
X251998Y329483D01*
X252064Y329455D01*
X252148Y329417D01*
X252326Y329333D01*
X252542Y329211D01*
X252757Y329080D01*
X252982Y328930D01*
X253189Y328752D01*
X253198Y328742D01*
X253207Y328733D01*
X253235Y328705D01*
X253273Y328667D01*
X253367Y328564D01*
X253489Y328433D01*
X253620Y328274D01*
X253760Y328077D01*
X253892Y327871D01*
X254023Y327636D01*
Y327627D01*
X254032Y327608D01*
X254051Y327571D01*
X254070Y327524D01*
X254098Y327468D01*
X254126Y327393D01*
X254163Y327309D01*
X254201Y327205D01*
X254238Y327102D01*
X254276Y326980D01*
X254313Y326859D01*
X254351Y326718D01*
X254435Y326418D01*
X254501Y326090D01*
Y326071D01*
X254510Y326043D01*
Y326015D01*
X254520Y325968D01*
Y325921D01*
X254529Y325856D01*
X254538Y325781D01*
X254548Y325696D01*
Y325603D01*
X254557Y325500D01*
X254566Y325387D01*
Y325265D01*
X254576Y325125D01*
Y320813D01*
X254332D01*
Y321169D01*
X254323Y321235D01*
X254313Y321329D01*
X254304Y321423D01*
X254276Y321526D01*
X254248Y321619D01*
X254210Y321704D01*
X254201Y321713D01*
X254191Y321741D01*
X254163Y321779D01*
X254126Y321825D01*
X254079Y321872D01*
X254023Y321929D01*
X253957Y321976D01*
X253882Y322013D01*
X253873D01*
X253845Y322022D01*
X253798Y322032D01*
X253723Y322051D01*
X253676D01*
X253610Y322060D01*
X253545D01*
X253470Y322069D01*
X253376D01*
X253273Y322079D01*
X253160D01*
X253039D01*
X247143D01*
X247134D01*
X247115D01*
X247078D01*
X247031D01*
X246918D01*
X246778Y322069D01*
X246637Y322060D01*
X246497Y322051D01*
X246375Y322032D01*
X246328Y322013D01*
X246290Y322004D01*
X246281D01*
X246262Y321985D01*
X246225Y321966D01*
X246187Y321938D01*
X246140Y321900D01*
X246084Y321844D01*
X246028Y321779D01*
X245981Y321704D01*
X245972Y321694D01*
X245962Y321666D01*
X245944Y321619D01*
X245916Y321544D01*
X245887Y321460D01*
X245869Y321357D01*
X245859Y321244D01*
X245850Y321104D01*
Y320813D01*
X245606D01*
Y324984D01*
X245616Y325087D01*
Y325228D01*
X245625Y325387D01*
X245644Y325556D01*
X245662Y325753D01*
X245681Y325950D01*
X245709Y326165D01*
X245794Y326596D01*
X245897Y327018D01*
X245972Y327224D01*
X246047Y327412D01*
X246056Y327421D01*
X246075Y327468D01*
X246103Y327524D01*
X246150Y327608D01*
X246206Y327711D01*
X246272Y327824D01*
X246356Y327955D01*
X246450Y328086D01*
X246553Y328236D01*
X246675Y328386D01*
X246806Y328536D01*
X246956Y328686D01*
X247115Y328836D01*
X247284Y328977D01*
X247471Y329108D01*
X247668Y329230D01*
X247677Y329239D01*
X247715Y329258D01*
X247781Y329286D01*
X247856Y329324D01*
X247959Y329370D01*
X248081Y329427D01*
X248221Y329483D01*
X248381Y329539D01*
X248559Y329595D01*
X248746Y329652D01*
X248952Y329708D01*
X249158Y329755D01*
X249393Y329792D01*
X249627Y329820D01*
X249871Y329839D01*
X250124Y329849D01*
X250133D01*
X250161D01*
X250217D01*
X250283D01*
X250367Y329839D01*
D02*
G37*
G36*
X257500Y313737D02*
X256638D01*
Y320757D01*
X257500D01*
Y313737D01*
D02*
G37*
G36*
X248174Y313184D02*
X248165D01*
X248137D01*
X248090Y313175D01*
X248024Y313165D01*
X247949Y313146D01*
X247865Y313137D01*
X247668Y313090D01*
X247453Y313025D01*
X247237Y312940D01*
X247021Y312837D01*
X246928Y312772D01*
X246843Y312706D01*
X246834D01*
X246825Y312687D01*
X246768Y312640D01*
X246693Y312547D01*
X246600Y312425D01*
X246497Y312275D01*
X246394Y312087D01*
X246300Y311862D01*
X246225Y311609D01*
X246215Y311591D01*
Y311562D01*
X246206Y311534D01*
X246197Y311488D01*
X246187Y311431D01*
X246178Y311356D01*
X246168Y311281D01*
X246159Y311188D01*
X246150Y311075D01*
Y310963D01*
X246140Y310832D01*
X246131Y310681D01*
X246122Y310513D01*
Y309304D01*
X249805D01*
Y309669D01*
X249796Y309772D01*
X249786Y309913D01*
X249758Y310063D01*
X249730Y310222D01*
X249683Y310382D01*
X249627Y310532D01*
X249618Y310550D01*
X249590Y310597D01*
X249552Y310663D01*
X249486Y310756D01*
X249402Y310850D01*
X249299Y310963D01*
X249177Y311066D01*
X249027Y311169D01*
X249018D01*
X249008Y311178D01*
X248980Y311197D01*
X248952Y311216D01*
X248859Y311253D01*
X248727Y311310D01*
X248559Y311366D01*
X248371Y311422D01*
X248137Y311478D01*
X247884Y311516D01*
Y311750D01*
X252383D01*
Y311516D01*
X252364D01*
X252326Y311506D01*
X252261Y311497D01*
X252176Y311488D01*
X252073Y311469D01*
X251961Y311441D01*
X251830Y311413D01*
X251698Y311384D01*
X251417Y311291D01*
X251136Y311169D01*
X251005Y311094D01*
X250892Y311010D01*
X250789Y310925D01*
X250705Y310822D01*
X250695Y310813D01*
X250686Y310794D01*
X250667Y310766D01*
X250639Y310728D01*
X250611Y310672D01*
X250574Y310606D01*
X250536Y310541D01*
X250499Y310457D01*
X250424Y310269D01*
X250358Y310063D01*
X250311Y309819D01*
X250292Y309697D01*
Y309304D01*
X253039D01*
X253048D01*
X253067D01*
X253104D01*
X253151D01*
X253264D01*
X253404Y309313D01*
X253554Y309322D01*
X253695Y309332D01*
X253826Y309351D01*
X253873Y309369D01*
X253910Y309379D01*
X253920D01*
X253938Y309398D01*
X253967Y309416D01*
X254013Y309444D01*
X254060Y309482D01*
X254107Y309529D01*
X254163Y309594D01*
X254210Y309669D01*
X254220Y309679D01*
X254229Y309707D01*
X254248Y309763D01*
X254266Y309829D01*
X254295Y309913D01*
X254313Y310016D01*
X254323Y310138D01*
X254332Y310269D01*
Y310569D01*
X254576D01*
Y305883D01*
X254332D01*
Y306239D01*
X254323Y306314D01*
X254313Y306398D01*
X254304Y306501D01*
X254276Y306604D01*
X254248Y306707D01*
X254201Y306801D01*
X254191Y306811D01*
X254182Y306829D01*
X254163Y306867D01*
X254126Y306904D01*
X254079Y306942D01*
X254023Y306989D01*
X253957Y307036D01*
X253882Y307073D01*
X253873D01*
X253845Y307082D01*
X253798Y307101D01*
X253713Y307111D01*
X253610Y307129D01*
X253535D01*
X253460Y307139D01*
X253367D01*
X253273Y307148D01*
X253160D01*
X253039D01*
X247143D01*
X247134D01*
X247115D01*
X247078D01*
X247031D01*
X246918D01*
X246778Y307139D01*
X246637Y307129D01*
X246497Y307120D01*
X246375Y307101D01*
X246328Y307082D01*
X246290Y307073D01*
X246281D01*
X246262Y307054D01*
X246225Y307036D01*
X246187Y307007D01*
X246140Y306970D01*
X246084Y306914D01*
X246028Y306848D01*
X245981Y306773D01*
X245972Y306764D01*
X245962Y306736D01*
X245944Y306689D01*
X245916Y306614D01*
X245887Y306529D01*
X245869Y306426D01*
X245859Y306314D01*
X245850Y306173D01*
Y305883D01*
X245606D01*
Y313456D01*
X248174D01*
Y313184D01*
D02*
G37*
G36*
X254576Y300653D02*
X254332D01*
Y301009D01*
X254323Y301084D01*
X254313Y301168D01*
X254304Y301271D01*
X254276Y301374D01*
X254248Y301478D01*
X254201Y301571D01*
X254191Y301581D01*
X254182Y301599D01*
X254163Y301628D01*
X254126Y301665D01*
X254079Y301712D01*
X254023Y301759D01*
X253957Y301806D01*
X253882Y301843D01*
X253873D01*
X253845Y301852D01*
X253798Y301871D01*
X253713Y301881D01*
X253610Y301899D01*
X253535D01*
X253460Y301909D01*
X253367D01*
X253273Y301918D01*
X253160D01*
X253039D01*
X246394D01*
X254576Y298469D01*
Y298319D01*
X246459Y294823D01*
X252767D01*
X252776D01*
X252795D01*
X252832D01*
X252870D01*
X252982D01*
X253123Y294832D01*
X253264D01*
X253395Y294842D01*
X253507Y294851D01*
X253554D01*
X253592Y294860D01*
X253610D01*
X253648Y294879D01*
X253704Y294898D01*
X253779Y294935D01*
X253863Y294992D01*
X253957Y295048D01*
X254042Y295132D01*
X254126Y295226D01*
X254135Y295236D01*
X254154Y295282D01*
X254191Y295348D01*
X254229Y295451D01*
X254266Y295573D01*
X254304Y295732D01*
X254323Y295920D01*
X254332Y296135D01*
X254576D01*
Y293052D01*
X254332D01*
Y293258D01*
X254323Y293323D01*
X254313Y293408D01*
X254295Y293501D01*
X254276Y293605D01*
X254238Y293698D01*
X254229Y293708D01*
X254220Y293745D01*
X254201Y293792D01*
X254163Y293848D01*
X254079Y293979D01*
X254023Y294036D01*
X253967Y294092D01*
X253957Y294101D01*
X253929Y294120D01*
X253892Y294139D01*
X253835Y294176D01*
X253770Y294205D01*
X253685Y294242D01*
X253592Y294279D01*
X253479Y294308D01*
X253470D01*
X253460D01*
X253423D01*
X253367Y294317D01*
X253282D01*
X253226D01*
X253160D01*
X253085D01*
X253001D01*
X252907D01*
X252795D01*
X247125D01*
X247115D01*
X247096D01*
X247059D01*
X247012D01*
X246900D01*
X246768Y294308D01*
X246618Y294298D01*
X246487Y294289D01*
X246365Y294270D01*
X246318Y294251D01*
X246281Y294242D01*
X246272D01*
X246253Y294233D01*
X246225Y294205D01*
X246178Y294176D01*
X246131Y294139D01*
X246084Y294092D01*
X246028Y294026D01*
X245981Y293942D01*
X245972Y293933D01*
X245962Y293904D01*
X245944Y293848D01*
X245916Y293783D01*
X245887Y293698D01*
X245869Y293595D01*
X245859Y293473D01*
X245850Y293342D01*
Y293052D01*
X245606D01*
Y296735D01*
X251520Y299247D01*
X245606Y301693D01*
Y305339D01*
X245850D01*
Y304974D01*
X245859Y304899D01*
X245869Y304814D01*
X245887Y304711D01*
X245906Y304608D01*
X245944Y304505D01*
X245990Y304411D01*
Y304402D01*
X246009Y304383D01*
X246028Y304355D01*
X246065Y304317D01*
X246103Y304271D01*
X246159Y304224D01*
X246225Y304177D01*
X246300Y304139D01*
X246309D01*
X246337Y304130D01*
X246384Y304121D01*
X246459Y304111D01*
X246572Y304093D01*
X246637D01*
X246712Y304083D01*
X246796D01*
X246900Y304074D01*
X247003D01*
X247125D01*
X253039D01*
X253048D01*
X253067D01*
X253104D01*
X253151D01*
X253264D01*
X253404Y304083D01*
X253554Y304093D01*
X253695Y304102D01*
X253826Y304121D01*
X253873Y304130D01*
X253910Y304139D01*
X253920D01*
X253938Y304158D01*
X253967Y304177D01*
X254013Y304205D01*
X254060Y304242D01*
X254107Y304299D01*
X254163Y304364D01*
X254210Y304439D01*
X254220Y304449D01*
X254229Y304477D01*
X254248Y304533D01*
X254266Y304599D01*
X254295Y304683D01*
X254313Y304786D01*
X254323Y304908D01*
X254332Y305039D01*
Y305339D01*
X254576D01*
Y300653D01*
D02*
G37*
G36*
Y291777D02*
Y284026D01*
X254332D01*
Y284382D01*
X254323Y284457D01*
X254313Y284541D01*
X254304Y284644D01*
X254276Y284748D01*
X254248Y284851D01*
X254201Y284944D01*
X254191Y284954D01*
X254182Y284972D01*
X254163Y285010D01*
X254126Y285047D01*
X254079Y285085D01*
X254023Y285132D01*
X253957Y285179D01*
X253882Y285216D01*
X253873D01*
X253845Y285226D01*
X253798Y285244D01*
X253713Y285254D01*
X253610Y285272D01*
X253535D01*
X253460Y285282D01*
X253367D01*
X253273Y285291D01*
X253160D01*
X253039D01*
X247143D01*
X247134D01*
X247115D01*
X247087D01*
X247050D01*
X246946D01*
X246825D01*
X246693Y285282D01*
X246572Y285272D01*
X246468Y285263D01*
X246431D01*
X246403Y285254D01*
X246394D01*
X246365Y285244D01*
X246318Y285226D01*
X246272Y285197D01*
X246206Y285169D01*
X246150Y285122D01*
X246094Y285076D01*
X246037Y285010D01*
X246028Y285001D01*
X246009Y284963D01*
X245981Y284907D01*
X245944Y284832D01*
X245906Y284729D01*
X245878Y284607D01*
X245859Y284476D01*
X245850Y284316D01*
Y284026D01*
X245606D01*
Y291543D01*
X248259D01*
Y291299D01*
X248249D01*
X248212Y291290D01*
X248165Y291280D01*
X248099Y291262D01*
X248024Y291243D01*
X247931Y291215D01*
X247724Y291158D01*
X247499Y291083D01*
X247265Y290990D01*
X247050Y290877D01*
X246956Y290821D01*
X246871Y290755D01*
X246862D01*
X246853Y290737D01*
X246796Y290690D01*
X246721Y290615D01*
X246628Y290502D01*
X246525Y290362D01*
X246422Y290193D01*
X246328Y289996D01*
X246243Y289771D01*
X246234Y289753D01*
Y289734D01*
X246225Y289696D01*
X246215Y289649D01*
X246206Y289603D01*
X246197Y289537D01*
X246178Y289462D01*
X246168Y289368D01*
X246159Y289265D01*
X246150Y289153D01*
X246140Y289031D01*
X246131Y288890D01*
Y288731D01*
X246122Y288562D01*
Y287447D01*
X249777D01*
Y287709D01*
X249768Y287766D01*
X249758Y287840D01*
X249749Y287915D01*
X249711Y288103D01*
X249646Y288309D01*
X249599Y288412D01*
X249552Y288515D01*
X249486Y288618D01*
X249421Y288712D01*
X249336Y288797D01*
X249243Y288871D01*
X249233D01*
X249215Y288890D01*
X249186Y288909D01*
X249140Y288937D01*
X249083Y288965D01*
X249018Y289003D01*
X248933Y289040D01*
X248840Y289078D01*
X248737Y289115D01*
X248624Y289162D01*
X248493Y289200D01*
X248352Y289246D01*
X248193Y289284D01*
X248024Y289312D01*
X247846Y289340D01*
X247659Y289368D01*
Y289612D01*
X252354D01*
Y289368D01*
X252345D01*
X252317D01*
X252279Y289359D01*
X252223Y289349D01*
X252167Y289340D01*
X252092Y289331D01*
X251914Y289293D01*
X251717Y289246D01*
X251511Y289190D01*
X251305Y289115D01*
X251108Y289021D01*
X251098D01*
X251089Y289012D01*
X251024Y288975D01*
X250939Y288928D01*
X250836Y288853D01*
X250724Y288768D01*
X250620Y288665D01*
X250517Y288553D01*
X250442Y288431D01*
X250433Y288412D01*
X250414Y288365D01*
X250386Y288290D01*
X250358Y288178D01*
X250330Y288047D01*
X250302Y287878D01*
X250283Y287672D01*
X250274Y287447D01*
X252804D01*
X252814D01*
X252832D01*
X252870D01*
X252926D01*
X252982D01*
X253048D01*
X253198Y287456D01*
X253348D01*
X253498Y287475D01*
X253563D01*
X253629Y287484D01*
X253676Y287494D01*
X253713Y287503D01*
X253723D01*
X253742Y287512D01*
X253770Y287531D01*
X253807Y287559D01*
X253892Y287634D01*
X253938Y287681D01*
X253976Y287737D01*
Y287747D01*
X253995Y287775D01*
X254004Y287812D01*
X254023Y287878D01*
X254042Y287953D01*
X254060Y288047D01*
X254070Y288169D01*
X254079Y288300D01*
Y288956D01*
X254070Y289040D01*
X254060Y289153D01*
X254051Y289275D01*
X254032Y289406D01*
X254004Y289556D01*
X253938Y289874D01*
X253892Y290043D01*
X253835Y290212D01*
X253770Y290380D01*
X253685Y290549D01*
X253601Y290699D01*
X253498Y290849D01*
X253489Y290858D01*
X253470Y290887D01*
X253432Y290924D01*
X253385Y290971D01*
X253329Y291036D01*
X253254Y291112D01*
X253160Y291187D01*
X253057Y291271D01*
X252945Y291355D01*
X252814Y291449D01*
X252664Y291543D01*
X252504Y291627D01*
X252336Y291711D01*
X252148Y291796D01*
X251942Y291871D01*
X251726Y291936D01*
Y292189D01*
X254576Y291777D01*
D02*
G37*
G36*
X252204Y283276D02*
X252279D01*
X252364Y283257D01*
X252467Y283239D01*
X252579Y283220D01*
X252701Y283182D01*
X252823Y283145D01*
X252964Y283089D01*
X253104Y283023D01*
X253245Y282939D01*
X253385Y282845D01*
X253517Y282742D01*
X253648Y282611D01*
X253779Y282470D01*
X253788Y282461D01*
X253817Y282423D01*
X253854Y282367D01*
X253901Y282283D01*
X253967Y282179D01*
X254032Y282048D01*
X254107Y281908D01*
X254173Y281730D01*
X254248Y281533D01*
X254323Y281317D01*
X254388Y281083D01*
X254454Y280820D01*
X254501Y280539D01*
X254538Y280239D01*
X254566Y279911D01*
X254576Y279564D01*
Y275000D01*
X254332D01*
Y275103D01*
X254323Y275206D01*
X254313Y275337D01*
X254304Y275478D01*
X254285Y275619D01*
X254257Y275750D01*
X254238Y275797D01*
X254220Y275844D01*
X254210Y275853D01*
X254201Y275881D01*
X254173Y275919D01*
X254135Y275965D01*
X254042Y276068D01*
X253985Y276115D01*
X253920Y276153D01*
X253910D01*
X253882Y276172D01*
X253826Y276181D01*
X253732Y276200D01*
X253676Y276209D01*
X253610Y276218D01*
X253535Y276228D01*
X253451D01*
X253357Y276237D01*
X253254Y276247D01*
X253132D01*
X253001D01*
X247181D01*
X247171D01*
X247153D01*
X247115D01*
X247068D01*
X247003D01*
X246946D01*
X246796Y276237D01*
X246637Y276228D01*
X246497Y276209D01*
X246365Y276181D01*
X246309Y276172D01*
X246272Y276153D01*
X246262D01*
X246243Y276134D01*
X246206Y276115D01*
X246159Y276087D01*
X246112Y276040D01*
X246065Y275984D01*
X246019Y275919D01*
X245972Y275844D01*
X245962Y275834D01*
X245953Y275797D01*
X245934Y275740D01*
X245906Y275656D01*
X245887Y275544D01*
X245869Y275394D01*
X245859Y275216D01*
X245850Y275000D01*
X245606D01*
Y279555D01*
X245616Y279677D01*
X245625Y279827D01*
Y279986D01*
X245644Y280155D01*
X245672Y280511D01*
X245728Y280877D01*
X245756Y281045D01*
X245794Y281205D01*
X245840Y281355D01*
X245887Y281486D01*
Y281495D01*
X245897Y281514D01*
X245916Y281551D01*
X245934Y281589D01*
X245962Y281645D01*
X246000Y281711D01*
X246094Y281851D01*
X246206Y282011D01*
X246347Y282179D01*
X246515Y282348D01*
X246712Y282498D01*
X246721D01*
X246740Y282517D01*
X246768Y282536D01*
X246806Y282554D01*
X246853Y282582D01*
X246918Y282620D01*
X247059Y282686D01*
X247228Y282751D01*
X247424Y282817D01*
X247640Y282854D01*
X247865Y282873D01*
X247874D01*
X247893D01*
X247931D01*
X247977Y282864D01*
X248034Y282854D01*
X248099Y282845D01*
X248259Y282817D01*
X248437Y282761D01*
X248633Y282676D01*
X248727Y282620D01*
X248830Y282554D01*
X248933Y282479D01*
X249027Y282395D01*
X249037Y282386D01*
X249046Y282376D01*
X249074Y282339D01*
X249111Y282301D01*
X249149Y282245D01*
X249205Y282179D01*
X249261Y282104D01*
X249318Y282011D01*
X249383Y281898D01*
X249449Y281776D01*
X249515Y281645D01*
X249580Y281486D01*
X249646Y281327D01*
X249711Y281139D01*
X249777Y280942D01*
X249833Y280727D01*
Y280745D01*
X249843Y280783D01*
X249861Y280849D01*
X249889Y280933D01*
X249918Y281045D01*
X249946Y281158D01*
X249983Y281289D01*
X250030Y281439D01*
X250133Y281730D01*
X250255Y282029D01*
X250321Y282170D01*
X250396Y282311D01*
X250471Y282432D01*
X250546Y282536D01*
X250555Y282545D01*
X250574Y282564D01*
X250611Y282601D01*
X250658Y282657D01*
X250714Y282714D01*
X250789Y282770D01*
X250874Y282845D01*
X250967Y282910D01*
X251080Y282976D01*
X251192Y283051D01*
X251323Y283107D01*
X251464Y283173D01*
X251614Y283220D01*
X251773Y283257D01*
X251933Y283276D01*
X252111Y283285D01*
X252120D01*
X252158D01*
X252204Y283276D01*
D02*
G37*
G36*
X9481Y486432D02*
X9453D01*
X9424Y486423D01*
X9387D01*
X9293Y486404D01*
X9171Y486376D01*
X9040Y486348D01*
X8918Y486320D01*
X8806Y486282D01*
X8712Y486235D01*
X8703Y486226D01*
X8684Y486217D01*
X8647Y486188D01*
X8600Y486151D01*
X8553Y486095D01*
X8497Y486029D01*
X8450Y485954D01*
X8403Y485860D01*
Y485851D01*
X8384Y485813D01*
X8375Y485748D01*
X8356Y485654D01*
X8337Y485532D01*
X8318Y485373D01*
X8309Y485186D01*
X8300Y484970D01*
Y477500D01*
X8075D01*
X2001Y484970D01*
Y479271D01*
Y479262D01*
Y479234D01*
Y479197D01*
X2011Y479150D01*
Y479084D01*
X2020Y479009D01*
X2048Y478850D01*
X2086Y478672D01*
X2151Y478503D01*
X2236Y478344D01*
X2292Y478278D01*
X2348Y478222D01*
X2367Y478212D01*
X2414Y478184D01*
X2489Y478137D01*
X2582Y478091D01*
X2704Y478034D01*
X2845Y477997D01*
X2995Y477959D01*
X3164Y477950D01*
X3379D01*
Y477706D01*
X192D01*
Y477950D01*
X258D01*
X314Y477959D01*
X371D01*
X436Y477969D01*
X595Y477987D01*
X764Y478025D01*
X933Y478081D01*
X1083Y478147D01*
X1158Y478194D01*
X1214Y478250D01*
X1223Y478269D01*
X1261Y478306D01*
X1308Y478381D01*
X1364Y478493D01*
X1420Y478634D01*
X1467Y478812D01*
X1486Y478906D01*
X1505Y479018D01*
X1514Y479140D01*
Y479271D01*
Y485598D01*
X1317Y485832D01*
X1308Y485851D01*
X1270Y485888D01*
X1214Y485954D01*
X1148Y486029D01*
X1073Y486104D01*
X989Y486179D01*
X905Y486245D01*
X820Y486301D01*
X811Y486310D01*
X783Y486320D01*
X727Y486338D01*
X661Y486357D01*
X577Y486385D01*
X464Y486404D01*
X342Y486423D01*
X192Y486432D01*
Y486676D01*
X3379D01*
X7812Y481109D01*
Y484970D01*
Y484979D01*
Y485008D01*
Y485045D01*
Y485101D01*
X7803Y485167D01*
Y485242D01*
X7784Y485410D01*
X7756Y485589D01*
X7709Y485767D01*
X7653Y485926D01*
X7616Y486001D01*
X7578Y486057D01*
X7559Y486076D01*
X7512Y486113D01*
X7437Y486179D01*
X7325Y486245D01*
X7184Y486320D01*
X6997Y486376D01*
X6894Y486404D01*
X6781Y486423D01*
X6650Y486432D01*
X6519D01*
Y486676D01*
X9481D01*
Y486432D01*
D02*
G37*
G36*
X14242Y486666D02*
X14382D01*
X14542Y486657D01*
X14711Y486638D01*
X14907Y486619D01*
X15104Y486601D01*
X15320Y486573D01*
X15751Y486488D01*
X16173Y486385D01*
X16379Y486310D01*
X16566Y486235D01*
X16576Y486226D01*
X16623Y486207D01*
X16679Y486179D01*
X16763Y486132D01*
X16866Y486076D01*
X16979Y486010D01*
X17110Y485926D01*
X17241Y485832D01*
X17391Y485729D01*
X17541Y485607D01*
X17691Y485476D01*
X17841Y485326D01*
X17991Y485167D01*
X18132Y484998D01*
X18263Y484811D01*
X18385Y484614D01*
X18394Y484604D01*
X18413Y484567D01*
X18441Y484501D01*
X18478Y484426D01*
X18525Y484323D01*
X18582Y484201D01*
X18638Y484061D01*
X18694Y483901D01*
X18750Y483723D01*
X18806Y483536D01*
X18863Y483330D01*
X18909Y483124D01*
X18947Y482889D01*
X18975Y482655D01*
X18994Y482411D01*
X19003Y482158D01*
Y482149D01*
Y482121D01*
Y482065D01*
Y481999D01*
X18994Y481914D01*
X18985Y481821D01*
X18975Y481708D01*
X18966Y481586D01*
X18928Y481315D01*
X18872Y481024D01*
X18797Y480715D01*
X18694Y480415D01*
Y480406D01*
X18685Y480377D01*
X18666Y480340D01*
X18638Y480284D01*
X18610Y480218D01*
X18572Y480134D01*
X18488Y479956D01*
X18366Y479740D01*
X18235Y479524D01*
X18085Y479300D01*
X17907Y479093D01*
X17897Y479084D01*
X17888Y479075D01*
X17860Y479047D01*
X17822Y479009D01*
X17719Y478915D01*
X17588Y478793D01*
X17429Y478662D01*
X17232Y478522D01*
X17026Y478390D01*
X16791Y478259D01*
X16782D01*
X16763Y478250D01*
X16726Y478231D01*
X16679Y478212D01*
X16623Y478184D01*
X16548Y478156D01*
X16463Y478119D01*
X16360Y478081D01*
X16257Y478044D01*
X16135Y478006D01*
X16013Y477969D01*
X15873Y477931D01*
X15573Y477847D01*
X15245Y477781D01*
X15226D01*
X15198Y477772D01*
X15170D01*
X15123Y477762D01*
X15076D01*
X15010Y477753D01*
X14935Y477744D01*
X14851Y477734D01*
X14757D01*
X14654Y477725D01*
X14542Y477716D01*
X14420D01*
X14279Y477706D01*
X9968D01*
Y477950D01*
X10324D01*
X10390Y477959D01*
X10483Y477969D01*
X10577Y477978D01*
X10680Y478006D01*
X10774Y478034D01*
X10858Y478072D01*
X10868Y478081D01*
X10896Y478091D01*
X10933Y478119D01*
X10980Y478156D01*
X11027Y478203D01*
X11083Y478259D01*
X11130Y478325D01*
X11168Y478400D01*
Y478409D01*
X11177Y478437D01*
X11186Y478484D01*
X11205Y478559D01*
Y478606D01*
X11215Y478672D01*
Y478737D01*
X11224Y478812D01*
Y478906D01*
X11233Y479009D01*
Y479122D01*
Y479243D01*
Y485139D01*
Y485148D01*
Y485167D01*
Y485204D01*
Y485251D01*
Y485364D01*
X11224Y485504D01*
X11215Y485645D01*
X11205Y485785D01*
X11186Y485907D01*
X11168Y485954D01*
X11158Y485992D01*
Y486001D01*
X11140Y486020D01*
X11121Y486057D01*
X11093Y486095D01*
X11055Y486142D01*
X10999Y486198D01*
X10933Y486254D01*
X10858Y486301D01*
X10849Y486310D01*
X10821Y486320D01*
X10774Y486338D01*
X10699Y486367D01*
X10615Y486395D01*
X10512Y486413D01*
X10399Y486423D01*
X10259Y486432D01*
X9968D01*
Y486676D01*
X14139D01*
X14242Y486666D01*
D02*
G37*
G36*
X-314Y486432D02*
X-679D01*
X-754Y486423D01*
X-839Y486413D01*
X-942Y486395D01*
X-1045Y486376D01*
X-1148Y486338D01*
X-1242Y486292D01*
X-1251D01*
X-1270Y486273D01*
X-1298Y486254D01*
X-1335Y486217D01*
X-1382Y486170D01*
X-1429Y486113D01*
X-1476Y486048D01*
X-1513Y485973D01*
Y485964D01*
X-1523Y485935D01*
X-1532Y485888D01*
X-1541Y485813D01*
X-1560Y485701D01*
Y485635D01*
X-1570Y485551D01*
Y485467D01*
X-1579Y485373D01*
Y485261D01*
Y485139D01*
Y479243D01*
Y479234D01*
Y479215D01*
Y479178D01*
Y479131D01*
Y479018D01*
X-1570Y478878D01*
X-1560Y478728D01*
X-1551Y478587D01*
X-1532Y478456D01*
X-1513Y478409D01*
X-1504Y478372D01*
Y478362D01*
X-1485Y478344D01*
X-1467Y478315D01*
X-1438Y478269D01*
X-1401Y478222D01*
X-1354Y478175D01*
X-1288Y478119D01*
X-1213Y478072D01*
X-1204Y478062D01*
X-1176Y478053D01*
X-1120Y478034D01*
X-1054Y478016D01*
X-970Y477987D01*
X-867Y477969D01*
X-745Y477959D01*
X-614Y477950D01*
X-314D01*
Y477706D01*
X-5000D01*
Y477950D01*
X-4644D01*
X-4569Y477959D01*
X-4484Y477969D01*
X-4381Y477978D01*
X-4278Y478006D01*
X-4175Y478034D01*
X-4081Y478081D01*
X-4072Y478091D01*
X-4053Y478100D01*
X-4016Y478119D01*
X-3978Y478156D01*
X-3941Y478203D01*
X-3894Y478259D01*
X-3847Y478325D01*
X-3810Y478400D01*
Y478409D01*
X-3800Y478437D01*
X-3782Y478484D01*
X-3772Y478568D01*
X-3753Y478672D01*
Y478747D01*
X-3744Y478821D01*
Y478915D01*
X-3735Y479009D01*
Y479122D01*
Y479243D01*
Y485139D01*
Y485148D01*
Y485167D01*
Y485204D01*
Y485251D01*
Y485364D01*
X-3744Y485504D01*
X-3753Y485645D01*
X-3763Y485785D01*
X-3782Y485907D01*
X-3800Y485954D01*
X-3810Y485992D01*
Y486001D01*
X-3828Y486020D01*
X-3847Y486057D01*
X-3875Y486095D01*
X-3913Y486142D01*
X-3969Y486198D01*
X-4035Y486254D01*
X-4110Y486301D01*
X-4119Y486310D01*
X-4147Y486320D01*
X-4194Y486338D01*
X-4269Y486367D01*
X-4353Y486395D01*
X-4456Y486413D01*
X-4569Y486423D01*
X-4709Y486432D01*
X-5000D01*
Y486676D01*
X-314D01*
Y486432D01*
D02*
G37*
G36*
X16360Y511432D02*
X16351D01*
X16323Y511423D01*
X16266Y511413D01*
X16210Y511404D01*
X16070Y511357D01*
X15929Y511282D01*
X15920Y511273D01*
X15901Y511263D01*
X15873Y511235D01*
X15826Y511198D01*
X15779Y511142D01*
X15732Y511085D01*
X15676Y511010D01*
X15629Y510926D01*
Y510917D01*
X15620Y510898D01*
X15601Y510851D01*
X15582Y510813D01*
X15563Y510767D01*
X15545Y510710D01*
X15517Y510635D01*
X15479Y510551D01*
X15442Y510457D01*
X15395Y510345D01*
X15339Y510214D01*
X15282Y510064D01*
X15217Y509895D01*
X12396Y502500D01*
X12142D01*
X9921Y508311D01*
X7466Y502500D01*
X7231D01*
X4288Y509820D01*
X4279Y509829D01*
X4270Y509867D01*
X4241Y509923D01*
X4213Y509998D01*
X4176Y510082D01*
X4138Y510186D01*
X4045Y510401D01*
X3941Y510635D01*
X3838Y510851D01*
X3782Y510945D01*
X3735Y511029D01*
X3698Y511095D01*
X3660Y511151D01*
X3651Y511160D01*
X3623Y511188D01*
X3585Y511226D01*
X3520Y511273D01*
X3435Y511320D01*
X3332Y511367D01*
X3210Y511404D01*
X3060Y511432D01*
Y511676D01*
X6931D01*
Y511432D01*
X6856D01*
X6772Y511423D01*
X6678Y511404D01*
X6575Y511385D01*
X6472Y511357D01*
X6378Y511329D01*
X6303Y511282D01*
X6294Y511273D01*
X6285Y511263D01*
X6256Y511235D01*
X6228Y511198D01*
X6181Y511095D01*
X6163Y511038D01*
X6153Y510964D01*
Y510954D01*
X6163Y510907D01*
X6172Y510842D01*
X6181Y510795D01*
X6191Y510738D01*
X6210Y510673D01*
X6238Y510589D01*
X6256Y510504D01*
X6294Y510410D01*
X6331Y510298D01*
X6369Y510176D01*
X6425Y510045D01*
X6481Y509895D01*
X8234Y505546D01*
X9649Y508948D01*
X9284Y509904D01*
Y509914D01*
X9275Y509942D01*
X9256Y509979D01*
X9237Y510026D01*
X9209Y510092D01*
X9181Y510167D01*
X9106Y510326D01*
X9031Y510504D01*
X8956Y510673D01*
X8871Y510823D01*
X8843Y510888D01*
X8806Y510945D01*
X8796Y510954D01*
X8778Y510992D01*
X8740Y511038D01*
X8703Y511095D01*
X8647Y511151D01*
X8581Y511217D01*
X8506Y511273D01*
X8431Y511320D01*
X8422Y511329D01*
X8393Y511338D01*
X8337Y511357D01*
X8272Y511376D01*
X8187Y511395D01*
X8075Y511413D01*
X7953Y511432D01*
X7803D01*
Y511676D01*
X12142D01*
Y511432D01*
X12068D01*
X11983Y511423D01*
X11889D01*
X11674Y511395D01*
X11571Y511376D01*
X11486Y511357D01*
X11477D01*
X11468Y511348D01*
X11402Y511320D01*
X11336Y511273D01*
X11262Y511198D01*
Y511188D01*
X11252Y511179D01*
X11224Y511123D01*
X11196Y511048D01*
X11186Y510954D01*
Y510945D01*
X11196Y510917D01*
X11205Y510860D01*
X11224Y510776D01*
X11243Y510720D01*
X11262Y510654D01*
X11280Y510579D01*
X11318Y510495D01*
X11346Y510392D01*
X11383Y510279D01*
X11430Y510157D01*
X11486Y510017D01*
X13117Y505771D01*
X14579Y509614D01*
Y509623D01*
X14589Y509642D01*
X14598Y509670D01*
X14617Y509707D01*
X14654Y509811D01*
X14701Y509942D01*
X14748Y510073D01*
X14795Y510214D01*
X14832Y510336D01*
X14861Y510429D01*
Y510439D01*
X14870Y510467D01*
X14879Y510504D01*
X14889Y510560D01*
X14907Y510692D01*
X14917Y510832D01*
Y510842D01*
Y510879D01*
X14907Y510926D01*
X14898Y510992D01*
X14870Y511057D01*
X14842Y511123D01*
X14795Y511198D01*
X14729Y511254D01*
X14720Y511263D01*
X14692Y511282D01*
X14645Y511310D01*
X14579Y511338D01*
X14476Y511367D01*
X14354Y511395D01*
X14204Y511423D01*
X14026Y511432D01*
Y511676D01*
X16360D01*
Y511432D01*
D02*
G37*
G36*
X21290Y511666D02*
X21440D01*
X21618Y511657D01*
X21796Y511648D01*
X22190Y511620D01*
X22584Y511573D01*
X22771Y511554D01*
X22949Y511516D01*
X23118Y511479D01*
X23268Y511441D01*
X23277D01*
X23305Y511432D01*
X23343Y511413D01*
X23390Y511395D01*
X23455Y511367D01*
X23530Y511338D01*
X23708Y511254D01*
X23905Y511142D01*
X24111Y510992D01*
X24318Y510823D01*
X24505Y510607D01*
X24514Y510598D01*
X24524Y510579D01*
X24552Y510551D01*
X24580Y510504D01*
X24617Y510448D01*
X24655Y510373D01*
X24702Y510298D01*
X24749Y510204D01*
X24786Y510111D01*
X24833Y509998D01*
X24908Y509754D01*
X24964Y509483D01*
X24974Y509342D01*
X24983Y509192D01*
Y509183D01*
Y509145D01*
Y509098D01*
X24974Y509023D01*
X24964Y508939D01*
X24945Y508845D01*
X24927Y508733D01*
X24889Y508611D01*
X24852Y508489D01*
X24805Y508358D01*
X24749Y508217D01*
X24683Y508077D01*
X24599Y507946D01*
X24496Y507805D01*
X24392Y507674D01*
X24261Y507552D01*
X24252D01*
X24242Y507533D01*
X24214Y507514D01*
X24177Y507486D01*
X24130Y507449D01*
X24074Y507411D01*
X24008Y507364D01*
X23933Y507318D01*
X23849Y507271D01*
X23755Y507224D01*
X23652Y507168D01*
X23530Y507121D01*
X23277Y507018D01*
X22987Y506933D01*
X25142Y503896D01*
X25152Y503887D01*
X25161Y503868D01*
X25180Y503840D01*
X25208Y503803D01*
X25283Y503709D01*
X25377Y503587D01*
X25470Y503465D01*
X25573Y503344D01*
X25667Y503240D01*
X25705Y503203D01*
X25742Y503166D01*
X25752Y503156D01*
X25789Y503137D01*
X25845Y503100D01*
X25920Y503062D01*
X26014Y503025D01*
X26126Y502987D01*
X26248Y502969D01*
X26379Y502950D01*
Y502706D01*
X23549D01*
X20653Y506793D01*
X20072D01*
Y504281D01*
Y504271D01*
Y504253D01*
Y504215D01*
Y504168D01*
Y504103D01*
X20081Y504037D01*
Y503896D01*
X20090Y503737D01*
X20109Y503587D01*
X20128Y503456D01*
X20137Y503400D01*
X20156Y503362D01*
X20165Y503353D01*
X20175Y503334D01*
X20194Y503297D01*
X20231Y503259D01*
X20278Y503203D01*
X20334Y503156D01*
X20400Y503109D01*
X20475Y503062D01*
X20484D01*
X20522Y503044D01*
X20578Y503025D01*
X20662Y503006D01*
X20784Y502987D01*
X20925Y502969D01*
X21103Y502959D01*
X21318Y502950D01*
Y502706D01*
X16726D01*
Y502950D01*
X16829D01*
X16932Y502959D01*
X17063Y502969D01*
X17204Y502978D01*
X17335Y502997D01*
X17466Y503025D01*
X17513Y503044D01*
X17560Y503062D01*
X17569Y503072D01*
X17597Y503081D01*
X17635Y503109D01*
X17682Y503147D01*
X17794Y503240D01*
X17841Y503297D01*
X17879Y503362D01*
Y503372D01*
X17897Y503400D01*
X17907Y503456D01*
X17925Y503550D01*
X17935Y503606D01*
X17944Y503672D01*
X17953Y503747D01*
Y503831D01*
X17963Y503925D01*
X17972Y504028D01*
Y504150D01*
Y504281D01*
Y510101D01*
Y510111D01*
Y510129D01*
Y510167D01*
Y510214D01*
Y510279D01*
Y510336D01*
X17963Y510485D01*
X17953Y510645D01*
X17935Y510785D01*
X17907Y510917D01*
X17897Y510973D01*
X17879Y511010D01*
Y511020D01*
X17860Y511038D01*
X17841Y511076D01*
X17803Y511123D01*
X17757Y511170D01*
X17700Y511217D01*
X17635Y511263D01*
X17560Y511310D01*
X17550Y511320D01*
X17513Y511329D01*
X17457Y511348D01*
X17372Y511376D01*
X17260Y511395D01*
X17110Y511413D01*
X16941Y511423D01*
X16726Y511432D01*
Y511676D01*
X21150D01*
X21290Y511666D01*
D02*
G37*
G36*
X-773D02*
X-614Y511657D01*
X-435Y511638D01*
X-239Y511620D01*
X-23Y511591D01*
X202Y511554D01*
X436Y511507D01*
X661Y511451D01*
X895Y511385D01*
X1111Y511301D01*
X1317Y511207D01*
X1514Y511104D01*
X1683Y510982D01*
X1692Y510973D01*
X1720Y510954D01*
X1758Y510917D01*
X1814Y510860D01*
X1880Y510795D01*
X1954Y510710D01*
X2030Y510617D01*
X2104Y510514D01*
X2179Y510392D01*
X2264Y510261D01*
X2329Y510120D01*
X2395Y509970D01*
X2451Y509801D01*
X2489Y509633D01*
X2517Y509445D01*
X2526Y509258D01*
Y509248D01*
Y509220D01*
Y509173D01*
X2517Y509108D01*
X2508Y509033D01*
X2498Y508948D01*
X2479Y508855D01*
X2461Y508742D01*
X2395Y508508D01*
X2348Y508386D01*
X2301Y508255D01*
X2236Y508133D01*
X2161Y508002D01*
X2076Y507880D01*
X1983Y507758D01*
X1973Y507749D01*
X1954Y507730D01*
X1926Y507702D01*
X1880Y507655D01*
X1823Y507608D01*
X1758Y507552D01*
X1683Y507486D01*
X1589Y507421D01*
X1486Y507355D01*
X1373Y507280D01*
X1251Y507214D01*
X1120Y507139D01*
X980Y507074D01*
X820Y507018D01*
X661Y506961D01*
X483Y506914D01*
X474D01*
X455Y506905D01*
X417D01*
X361Y506896D01*
X286Y506877D01*
X202Y506868D01*
X99Y506858D01*
X-23Y506839D01*
X-164Y506830D01*
X-323Y506811D01*
X-501Y506802D01*
X-698Y506793D01*
X-913Y506783D01*
X-1148Y506774D01*
X-1410Y506764D01*
X-1682D01*
Y504281D01*
Y504271D01*
Y504253D01*
Y504215D01*
Y504168D01*
Y504103D01*
X-1673Y504037D01*
Y503896D01*
X-1663Y503737D01*
X-1645Y503587D01*
X-1626Y503456D01*
X-1617Y503400D01*
X-1598Y503362D01*
X-1588Y503353D01*
X-1579Y503334D01*
X-1560Y503297D01*
X-1523Y503259D01*
X-1476Y503203D01*
X-1420Y503156D01*
X-1354Y503109D01*
X-1279Y503062D01*
X-1270D01*
X-1232Y503044D01*
X-1176Y503025D01*
X-1082Y503006D01*
X-970Y502987D01*
X-820Y502969D01*
X-642Y502959D01*
X-435Y502950D01*
Y502706D01*
X-5000D01*
Y502950D01*
X-4897D01*
X-4794Y502959D01*
X-4663Y502969D01*
X-4522Y502978D01*
X-4381Y502997D01*
X-4260Y503025D01*
X-4157Y503062D01*
X-4147Y503072D01*
X-4119Y503081D01*
X-4081Y503109D01*
X-4035Y503147D01*
X-3932Y503240D01*
X-3885Y503297D01*
X-3847Y503362D01*
Y503372D01*
X-3828Y503400D01*
X-3819Y503456D01*
X-3800Y503550D01*
X-3791Y503606D01*
X-3782Y503672D01*
X-3772Y503747D01*
Y503831D01*
X-3763Y503925D01*
X-3753Y504028D01*
Y504150D01*
Y504281D01*
Y510101D01*
Y510111D01*
Y510129D01*
Y510167D01*
Y510214D01*
Y510279D01*
Y510336D01*
X-3763Y510485D01*
X-3772Y510645D01*
X-3791Y510785D01*
X-3819Y510917D01*
X-3828Y510973D01*
X-3847Y511010D01*
Y511020D01*
X-3866Y511038D01*
X-3885Y511076D01*
X-3922Y511123D01*
X-3960Y511170D01*
X-4016Y511217D01*
X-4081Y511263D01*
X-4166Y511310D01*
X-4175Y511320D01*
X-4213Y511329D01*
X-4269Y511348D01*
X-4353Y511376D01*
X-4466Y511395D01*
X-4616Y511413D01*
X-4784Y511423D01*
X-5000Y511432D01*
Y511676D01*
X-904D01*
X-773Y511666D01*
D02*
G37*
%LPC*%
G36*
X160730Y584748D02*
X160552D01*
X160543D01*
X160506D01*
X160459D01*
X160384Y584739D01*
X160309D01*
X160215Y584729D01*
X160103Y584710D01*
X159990Y584692D01*
X159756Y584645D01*
X159512Y584560D01*
X159287Y584457D01*
X159184Y584382D01*
X159090Y584307D01*
X159081Y584298D01*
X159072Y584289D01*
X159043Y584260D01*
X159015Y584223D01*
X158978Y584176D01*
X158940Y584120D01*
X158903Y584054D01*
X158856Y583979D01*
X158809Y583895D01*
X158772Y583792D01*
X158734Y583689D01*
X158697Y583576D01*
X158668Y583445D01*
X158640Y583304D01*
X158631Y583164D01*
X158622Y583004D01*
Y582733D01*
X162502D01*
Y582770D01*
X162511Y582808D01*
Y582855D01*
X162521Y582967D01*
Y583136D01*
X162511Y583192D01*
X162502Y583258D01*
X162493Y583342D01*
X162464Y583520D01*
X162408Y583717D01*
X162314Y583923D01*
X162268Y584026D01*
X162202Y584129D01*
X162127Y584223D01*
X162043Y584307D01*
X162033Y584317D01*
X162024Y584326D01*
X161986Y584345D01*
X161949Y584373D01*
X161902Y584410D01*
X161836Y584448D01*
X161761Y584485D01*
X161677Y584532D01*
X161574Y584570D01*
X161462Y584607D01*
X161340Y584645D01*
X161208Y584682D01*
X161059Y584710D01*
X160909Y584729D01*
X160730Y584748D01*
D02*
G37*
G36*
X162952Y576200D02*
X162680D01*
X162671D01*
X162661D01*
X162633D01*
X162605D01*
X162511D01*
X162389Y576191D01*
X162239D01*
X162071Y576181D01*
X161883Y576172D01*
X161686Y576162D01*
X161471Y576144D01*
X161255Y576116D01*
X160815Y576059D01*
X160599Y576022D01*
X160393Y575975D01*
X160206Y575919D01*
X160028Y575863D01*
X160018D01*
X159990Y575844D01*
X159943Y575825D01*
X159887Y575806D01*
X159812Y575769D01*
X159728Y575731D01*
X159540Y575638D01*
X159334Y575516D01*
X159118Y575366D01*
X158931Y575206D01*
X158847Y575113D01*
X158772Y575019D01*
Y575010D01*
X158753Y575000D01*
X158734Y574972D01*
X158715Y574925D01*
X158687Y574879D01*
X158659Y574822D01*
X158584Y574682D01*
X158518Y574513D01*
X158462Y574316D01*
X158425Y574091D01*
X158406Y573848D01*
Y573791D01*
X158415Y573726D01*
X158425Y573641D01*
X158443Y573548D01*
X158472Y573426D01*
X158509Y573294D01*
X158565Y573154D01*
X158631Y573004D01*
X158715Y572854D01*
X158819Y572695D01*
X158940Y572535D01*
X159081Y572385D01*
X159250Y572235D01*
X159446Y572104D01*
X159671Y571973D01*
X159681Y571964D01*
X159718Y571954D01*
X159775Y571926D01*
X159859Y571889D01*
X159971Y571851D01*
X160103Y571814D01*
X160252Y571767D01*
X160431Y571720D01*
X160627Y571664D01*
X160843Y571617D01*
X161087Y571579D01*
X161358Y571542D01*
X161640Y571504D01*
X161949Y571476D01*
X162277Y571467D01*
X162633Y571457D01*
X162642D01*
X162661D01*
X162689D01*
X162736D01*
X162783D01*
X162849Y571467D01*
X162924D01*
X163008D01*
X163195Y571486D01*
X163420Y571504D01*
X163655Y571523D01*
X163917Y571561D01*
X164189Y571598D01*
X164470Y571654D01*
X164751Y571720D01*
X165033Y571795D01*
X165304Y571889D01*
X165567Y571992D01*
X165810Y572114D01*
X166026Y572254D01*
X166035Y572263D01*
X166054Y572282D01*
X166092Y572310D01*
X166148Y572357D01*
X166204Y572413D01*
X166270Y572489D01*
X166335Y572563D01*
X166401Y572667D01*
X166476Y572770D01*
X166542Y572882D01*
X166607Y573013D01*
X166663Y573154D01*
X166710Y573304D01*
X166748Y573473D01*
X166776Y573641D01*
X166785Y573829D01*
Y573894D01*
X166776Y573941D01*
Y573997D01*
X166766Y574072D01*
X166748Y574232D01*
X166701Y574410D01*
X166645Y574597D01*
X166570Y574785D01*
X166457Y574963D01*
X166448Y574972D01*
X166438Y574991D01*
X166410Y575019D01*
X166373Y575057D01*
X166335Y575103D01*
X166279Y575160D01*
X166204Y575225D01*
X166129Y575291D01*
X166045Y575366D01*
X165942Y575441D01*
X165829Y575516D01*
X165707Y575591D01*
X165576Y575666D01*
X165436Y575741D01*
X165276Y575806D01*
X165107Y575872D01*
X165098D01*
X165061Y575891D01*
X165014Y575900D01*
X164939Y575928D01*
X164845Y575947D01*
X164733Y575975D01*
X164601Y576003D01*
X164451Y576041D01*
X164292Y576069D01*
X164105Y576097D01*
X163908Y576125D01*
X163692Y576153D01*
X163458Y576172D01*
X163214Y576191D01*
X162952Y576200D01*
D02*
G37*
G36*
X160730Y532833D02*
X160552D01*
X160543D01*
X160506D01*
X160459D01*
X160384Y532824D01*
X160309D01*
X160215Y532814D01*
X160103Y532795D01*
X159990Y532777D01*
X159756Y532730D01*
X159512Y532645D01*
X159287Y532542D01*
X159184Y532467D01*
X159090Y532393D01*
X159081Y532383D01*
X159072Y532374D01*
X159043Y532346D01*
X159015Y532308D01*
X158978Y532261D01*
X158940Y532205D01*
X158903Y532139D01*
X158856Y532064D01*
X158809Y531980D01*
X158772Y531877D01*
X158734Y531774D01*
X158697Y531661D01*
X158668Y531530D01*
X158640Y531390D01*
X158631Y531249D01*
X158622Y531090D01*
Y530818D01*
X162502D01*
Y530855D01*
X162511Y530893D01*
Y530940D01*
X162521Y531052D01*
Y531221D01*
X162511Y531277D01*
X162502Y531343D01*
X162493Y531427D01*
X162464Y531605D01*
X162408Y531802D01*
X162314Y532008D01*
X162268Y532111D01*
X162202Y532214D01*
X162127Y532308D01*
X162043Y532393D01*
X162033Y532402D01*
X162024Y532411D01*
X161986Y532430D01*
X161949Y532458D01*
X161902Y532496D01*
X161836Y532533D01*
X161761Y532571D01*
X161677Y532617D01*
X161574Y532655D01*
X161462Y532692D01*
X161340Y532730D01*
X161208Y532767D01*
X161059Y532795D01*
X160909Y532814D01*
X160730Y532833D01*
D02*
G37*
G36*
X250171Y327458D02*
X250161D01*
X250152D01*
X250096D01*
X250002D01*
X249880Y327449D01*
X249739Y327440D01*
X249571Y327430D01*
X249383Y327412D01*
X249177Y327393D01*
X248962Y327365D01*
X248737Y327327D01*
X248512Y327280D01*
X248277Y327234D01*
X248052Y327168D01*
X247827Y327093D01*
X247612Y327009D01*
X247415Y326915D01*
X247406Y326906D01*
X247378Y326896D01*
X247340Y326868D01*
X247284Y326840D01*
X247218Y326793D01*
X247143Y326746D01*
X246975Y326615D01*
X246796Y326456D01*
X246609Y326268D01*
X246450Y326053D01*
X246375Y325931D01*
X246318Y325809D01*
Y325799D01*
X246309Y325790D01*
X246300Y325762D01*
X246290Y325715D01*
X246272Y325668D01*
X246253Y325603D01*
X246234Y325518D01*
X246215Y325434D01*
X246197Y325331D01*
X246178Y325218D01*
X246159Y325087D01*
X246140Y324947D01*
X246131Y324787D01*
X246122Y324619D01*
X246112Y324431D01*
Y324234D01*
X253114D01*
X253123D01*
X253142D01*
X253170D01*
X253198D01*
X253292D01*
X253404Y324244D01*
X253526D01*
X253638Y324253D01*
X253732Y324262D01*
X253770Y324272D01*
X253798Y324281D01*
X253807D01*
X253817Y324291D01*
X253863Y324328D01*
X253929Y324384D01*
X253985Y324459D01*
Y324469D01*
X254004Y324497D01*
X254013Y324534D01*
X254032Y324590D01*
X254051Y324665D01*
X254060Y324750D01*
X254079Y324853D01*
Y325022D01*
X254070Y325078D01*
Y325153D01*
X254060Y325247D01*
X254042Y325359D01*
X254013Y325471D01*
X253985Y325603D01*
X253948Y325734D01*
X253892Y325874D01*
X253835Y326015D01*
X253760Y326156D01*
X253676Y326287D01*
X253573Y326418D01*
X253460Y326549D01*
X253329Y326662D01*
X253320Y326671D01*
X253282Y326699D01*
X253217Y326737D01*
X253132Y326784D01*
X253029Y326849D01*
X252889Y326915D01*
X252739Y326990D01*
X252551Y327065D01*
X252345Y327130D01*
X252111Y327205D01*
X251848Y327271D01*
X251567Y327337D01*
X251258Y327383D01*
X250920Y327421D01*
X250555Y327449D01*
X250171Y327458D01*
D02*
G37*
G36*
X247856Y280652D02*
X247846D01*
X247827D01*
X247799D01*
X247752D01*
X247649Y280642D01*
X247509Y280624D01*
X247359Y280595D01*
X247199Y280549D01*
X247031Y280492D01*
X246881Y280408D01*
X246862Y280399D01*
X246815Y280361D01*
X246750Y280314D01*
X246665Y280239D01*
X246572Y280136D01*
X246478Y280024D01*
X246384Y279893D01*
X246300Y279733D01*
Y279724D01*
X246290Y279714D01*
X246281Y279686D01*
X246272Y279649D01*
X246253Y279602D01*
X246234Y279546D01*
X246215Y279480D01*
X246197Y279396D01*
X246187Y279302D01*
X246168Y279199D01*
X246150Y279086D01*
X246131Y278965D01*
X246122Y278824D01*
X246112Y278674D01*
X246103Y278515D01*
Y278337D01*
X249646D01*
Y278487D01*
X249636Y278571D01*
Y278655D01*
X249627Y278758D01*
X249618Y278862D01*
X249599Y279086D01*
X249561Y279321D01*
X249505Y279536D01*
X249477Y279630D01*
X249440Y279724D01*
Y279733D01*
X249430Y279743D01*
X249402Y279799D01*
X249355Y279883D01*
X249280Y279977D01*
X249196Y280089D01*
X249093Y280202D01*
X248971Y280314D01*
X248840Y280408D01*
X248821Y280417D01*
X248774Y280445D01*
X248690Y280483D01*
X248568Y280530D01*
X248427Y280577D01*
X248259Y280614D01*
X248071Y280642D01*
X247856Y280652D01*
D02*
G37*
G36*
X252176Y280895D02*
X252167D01*
X252148D01*
X252111D01*
X252073D01*
X252017Y280886D01*
X251951D01*
X251801Y280867D01*
X251623Y280830D01*
X251436Y280783D01*
X251239Y280717D01*
X251052Y280633D01*
X251042D01*
X251033Y280624D01*
X250967Y280586D01*
X250883Y280520D01*
X250780Y280436D01*
X250667Y280324D01*
X250546Y280192D01*
X250442Y280033D01*
X250358Y279855D01*
Y279846D01*
X250349Y279836D01*
X250339Y279799D01*
X250330Y279761D01*
X250311Y279705D01*
X250292Y279639D01*
X250274Y279564D01*
X250255Y279480D01*
X250246Y279377D01*
X250227Y279265D01*
X250208Y279133D01*
X250189Y279002D01*
X250180Y278852D01*
X250171Y278693D01*
X250161Y278524D01*
Y278337D01*
X253039Y278327D01*
X253367D01*
X253385D01*
X253423D01*
X253489Y278337D01*
X253563Y278346D01*
X253657Y278374D01*
X253742Y278402D01*
X253826Y278449D01*
X253901Y278505D01*
X253910Y278515D01*
X253929Y278543D01*
X253957Y278580D01*
X253985Y278637D01*
X254023Y278712D01*
X254051Y278805D01*
X254070Y278908D01*
X254079Y279030D01*
Y279124D01*
X254070Y279218D01*
X254051Y279349D01*
X254023Y279499D01*
X253976Y279658D01*
X253920Y279818D01*
X253845Y279986D01*
Y279996D01*
X253835Y280005D01*
X253798Y280061D01*
X253751Y280136D01*
X253676Y280239D01*
X253573Y280342D01*
X253460Y280455D01*
X253329Y280567D01*
X253170Y280661D01*
X253160D01*
X253151Y280670D01*
X253123Y280680D01*
X253095Y280699D01*
X253001Y280736D01*
X252879Y280783D01*
X252729Y280820D01*
X252561Y280858D01*
X252373Y280886D01*
X252176Y280895D01*
D02*
G37*
G36*
X13586Y486170D02*
X13389D01*
Y479168D01*
Y479159D01*
Y479140D01*
Y479112D01*
Y479084D01*
Y478990D01*
X13398Y478878D01*
Y478756D01*
X13408Y478643D01*
X13417Y478550D01*
X13427Y478512D01*
X13436Y478484D01*
Y478475D01*
X13445Y478465D01*
X13483Y478419D01*
X13539Y478353D01*
X13614Y478297D01*
X13623D01*
X13651Y478278D01*
X13689Y478269D01*
X13745Y478250D01*
X13820Y478231D01*
X13905Y478222D01*
X14008Y478203D01*
X14176D01*
X14233Y478212D01*
X14308D01*
X14401Y478222D01*
X14514Y478240D01*
X14626Y478269D01*
X14757Y478297D01*
X14889Y478334D01*
X15029Y478390D01*
X15170Y478447D01*
X15310Y478522D01*
X15442Y478606D01*
X15573Y478709D01*
X15704Y478821D01*
X15817Y478953D01*
X15826Y478962D01*
X15854Y479000D01*
X15891Y479065D01*
X15938Y479150D01*
X16004Y479253D01*
X16070Y479393D01*
X16145Y479543D01*
X16220Y479731D01*
X16285Y479937D01*
X16360Y480171D01*
X16426Y480434D01*
X16491Y480715D01*
X16538Y481024D01*
X16576Y481362D01*
X16604Y481727D01*
X16613Y482111D01*
Y482121D01*
Y482130D01*
Y482186D01*
Y482280D01*
X16604Y482402D01*
X16595Y482542D01*
X16585Y482711D01*
X16566Y482899D01*
X16548Y483105D01*
X16520Y483320D01*
X16482Y483545D01*
X16435Y483770D01*
X16388Y484005D01*
X16323Y484230D01*
X16248Y484454D01*
X16163Y484670D01*
X16070Y484867D01*
X16060Y484876D01*
X16051Y484904D01*
X16023Y484942D01*
X15995Y484998D01*
X15948Y485064D01*
X15901Y485139D01*
X15770Y485307D01*
X15610Y485485D01*
X15423Y485673D01*
X15207Y485832D01*
X15086Y485907D01*
X14964Y485964D01*
X14954D01*
X14945Y485973D01*
X14917Y485982D01*
X14870Y485992D01*
X14823Y486010D01*
X14757Y486029D01*
X14673Y486048D01*
X14589Y486067D01*
X14486Y486085D01*
X14373Y486104D01*
X14242Y486123D01*
X14101Y486142D01*
X13942Y486151D01*
X13773Y486160D01*
X13586Y486170D01*
D02*
G37*
G36*
X20775Y511188D02*
X20072D01*
Y507261D01*
X20597D01*
X20672Y507271D01*
X20859D01*
X20962Y507280D01*
X21187Y507299D01*
X21412Y507327D01*
X21637Y507364D01*
X21731Y507393D01*
X21824Y507421D01*
X21834D01*
X21843Y507430D01*
X21899Y507458D01*
X21984Y507496D01*
X22087Y507561D01*
X22199Y507646D01*
X22321Y507749D01*
X22443Y507880D01*
X22546Y508030D01*
Y508039D01*
X22555Y508049D01*
X22574Y508077D01*
X22584Y508114D01*
X22630Y508208D01*
X22677Y508339D01*
X22724Y508508D01*
X22771Y508705D01*
X22799Y508930D01*
X22808Y509183D01*
Y509192D01*
Y509230D01*
Y509276D01*
X22799Y509351D01*
X22790Y509436D01*
X22780Y509529D01*
X22771Y509642D01*
X22752Y509754D01*
X22687Y509998D01*
X22602Y510251D01*
X22546Y510373D01*
X22480Y510485D01*
X22406Y510598D01*
X22321Y510692D01*
X22312Y510701D01*
X22302Y510710D01*
X22274Y510738D01*
X22227Y510767D01*
X22181Y510804D01*
X22115Y510851D01*
X22040Y510898D01*
X21946Y510945D01*
X21843Y510982D01*
X21731Y511029D01*
X21609Y511076D01*
X21468Y511113D01*
X21318Y511142D01*
X21150Y511170D01*
X20972Y511179D01*
X20775Y511188D01*
D02*
G37*
G36*
X-1410Y511160D02*
X-1682D01*
Y507280D01*
X-1645D01*
X-1607Y507271D01*
X-1560D01*
X-1448Y507261D01*
X-1279D01*
X-1223Y507271D01*
X-1157Y507280D01*
X-1073Y507289D01*
X-895Y507318D01*
X-698Y507374D01*
X-492Y507467D01*
X-389Y507514D01*
X-286Y507580D01*
X-192Y507655D01*
X-108Y507739D01*
X-98Y507749D01*
X-89Y507758D01*
X-70Y507795D01*
X-42Y507833D01*
X-4Y507880D01*
X33Y507946D01*
X71Y508021D01*
X117Y508105D01*
X155Y508208D01*
X192Y508320D01*
X230Y508442D01*
X267Y508573D01*
X295Y508723D01*
X314Y508873D01*
X333Y509052D01*
Y509230D01*
Y509239D01*
Y509276D01*
Y509323D01*
X324Y509398D01*
Y509473D01*
X314Y509567D01*
X295Y509679D01*
X277Y509792D01*
X230Y510026D01*
X146Y510270D01*
X43Y510495D01*
X-33Y510598D01*
X-108Y510692D01*
X-117Y510701D01*
X-126Y510710D01*
X-154Y510738D01*
X-192Y510767D01*
X-239Y510804D01*
X-295Y510842D01*
X-361Y510879D01*
X-435Y510926D01*
X-520Y510973D01*
X-623Y511010D01*
X-726Y511048D01*
X-839Y511085D01*
X-970Y511113D01*
X-1110Y511142D01*
X-1251Y511151D01*
X-1410Y511160D01*
D02*
G37*
%LPD*%
D10*
X378650Y396750D02*
G03*
X391350Y396750I6350J0D01*
G01*
X283650Y678000D02*
G03*
X296350Y678000I6350J0D01*
G01*
X283650Y503000D02*
G03*
X296350Y503000I6350J0D01*
G01*
X283650Y593000D02*
G03*
X296350Y593000I6350J0D01*
G01*
X380000Y350000D02*
X390001D01*
X385000Y344999D02*
Y355000D01*
X391350Y396750D02*
X405000D01*
X365000Y303250D02*
X405000D01*
X365000Y396750D02*
X378650D01*
X251966Y436430D02*
X288034D01*
X251966Y413570D02*
X288034D01*
X266698D02*
Y436430D01*
X250966Y406430D02*
X287034D01*
X250966Y383570D02*
X287034D01*
X265698D02*
Y406430D01*
X250966Y377430D02*
X287034D01*
X250966Y354570D02*
X287034D01*
X265698D02*
Y377430D01*
X-107900Y270978D02*
X-98710D01*
Y263104D02*
Y270978D01*
X-107900Y263104D02*
X-98710D01*
X-107900Y256500D02*
Y263104D01*
Y270978D02*
Y314500D01*
X213234Y270978D02*
X222500D01*
X213234Y263104D02*
Y270978D01*
Y263104D02*
X222500D01*
Y256500D02*
Y263104D01*
Y270978D02*
Y314500D01*
X-107900Y256500D02*
X222500D01*
X-107900Y314500D02*
X222500D01*
X-219250Y432500D02*
X-141750D01*
X-219250Y257501D02*
Y432501D01*
X-219250Y257500D02*
X-141750D01*
Y271000D01*
Y419250D02*
Y432500D01*
X54000Y434000D02*
X146000D01*
Y526000D01*
X54000D02*
X146000D01*
X54000Y434000D02*
Y526000D01*
X100000Y474999D02*
Y485000D01*
X95000Y480000D02*
X105001D01*
X-66000Y513500D02*
Y519750D01*
X-69000Y517000D02*
X-62750D01*
X-66000Y495250D02*
Y510250D01*
X-10000Y495250D02*
Y516750D01*
X-58000D02*
X-10000D01*
X-66000Y495250D02*
X-10000D01*
X-66000Y486500D02*
Y492750D01*
X-69000Y490000D02*
X-62750D01*
X-66000Y468250D02*
Y483250D01*
X-10000Y468250D02*
Y489750D01*
X-58000D02*
X-10000D01*
X-66000Y468250D02*
X-10000D01*
X685000Y406000D02*
X705000D01*
X685000Y438000D02*
X705000D01*
X575000Y406000D02*
X595000D01*
X575000Y438000D02*
X595000D01*
X469000Y405000D02*
X489000D01*
X469000Y437000D02*
X489000D01*
X441500Y481500D02*
Y486500D01*
Y481500D02*
X508500D01*
Y486500D01*
X296350Y678000D02*
X310000D01*
X270000Y622000D02*
X310000D01*
X270000Y678000D02*
X283650D01*
X290000Y644999D02*
Y655000D01*
X285000Y650000D02*
X295001D01*
X129200Y665956D02*
Y724972D01*
Y649750D02*
Y657916D01*
Y665956D02*
X136058Y668637D01*
X129200Y657916D02*
X136058Y655235D01*
Y668637D01*
X235999Y656138D02*
Y668242D01*
X230800Y666210D02*
X235999Y668242D01*
X230800Y658170D02*
X235999Y656138D01*
X230800Y649750D02*
Y658170D01*
X-95000Y713000D02*
X-25000D01*
X-95000Y617000D02*
X-25000D01*
Y713000D01*
X-95000Y617000D02*
Y713000D01*
X-60000Y660000D02*
Y670001D01*
X-65001Y665000D02*
X-55000D01*
X-105188Y642060D02*
Y697940D01*
X-144812Y676500D02*
X-105188D01*
X-109188Y642060D02*
X-105188D01*
X-144812D02*
Y697940D01*
Y642060D02*
X-140812D01*
X-144812Y697940D02*
X-140812D01*
X-109188D02*
X-105188D01*
X441500Y620000D02*
Y625000D01*
Y620000D02*
X508500D01*
Y625000D01*
X-148250Y440000D02*
X-70750D01*
X-70750Y439999D02*
Y614999D01*
X-148250Y615000D02*
X-70750D01*
X-148250Y601500D02*
Y615000D01*
Y440000D02*
Y453250D01*
X618500Y481500D02*
Y486500D01*
X551500Y481500D02*
X618500D01*
X551500D02*
Y486500D01*
X618500Y621500D02*
Y626500D01*
X551500Y621500D02*
X618500D01*
X551500D02*
Y626500D01*
X728500Y481500D02*
Y486500D01*
X661500Y481500D02*
X728500D01*
X661500D02*
Y486500D01*
X728500Y620000D02*
Y625000D01*
X661500Y620000D02*
X728500D01*
X661500D02*
Y625000D01*
X503601Y346758D02*
Y358862D01*
Y346758D02*
X508800Y348790D01*
X503601Y358862D02*
X508800Y356830D01*
Y365250D01*
X654342Y346363D02*
Y359765D01*
X661200Y357084D01*
X654342Y346363D02*
X661200Y349044D01*
Y357084D02*
Y365250D01*
Y290028D02*
Y349044D01*
X285000Y475000D02*
X295001D01*
X290000Y469999D02*
Y480000D01*
X270000Y503000D02*
X283650D01*
X270000Y447000D02*
X310000D01*
X296350Y503000D02*
X310000D01*
X285000Y565000D02*
X295001D01*
X290000Y559999D02*
Y570000D01*
X270000Y593000D02*
X283650D01*
X270000Y537000D02*
X310000D01*
X296350Y593000D02*
X310000D01*
D11*
X344750Y388500D02*
G03*
X344750Y388500I-1000J0D01*
G01*
X31000Y518250D02*
G03*
X31000Y518250I-1000J0D01*
G01*
X453250Y448750D02*
G03*
X453250Y448750I-1000J0D01*
G01*
X249500Y669250D02*
G03*
X249500Y669250I-1000J0D01*
G01*
X-35750Y717750D02*
G03*
X-35750Y717750I-1000J0D01*
G01*
X453250Y587250D02*
G03*
X453250Y587250I-1000J0D01*
G01*
X563250Y448750D02*
G03*
X563250Y448750I-1000J0D01*
G01*
Y588750D02*
G03*
X563250Y588750I-1000J0D01*
G01*
X673250Y448750D02*
G03*
X673250Y448750I-1000J0D01*
G01*
Y587250D02*
G03*
X673250Y587250I-1000J0D01*
G01*
X249500Y494250D02*
G03*
X249500Y494250I-1000J0D01*
G01*
Y584250D02*
G03*
X249500Y584250I-1000J0D01*
G01*
D12*
X63916Y518862D02*
G03*
X63916Y518862I-2000J0D01*
G01*
D13*
X394590Y505090D02*
Y512523D01*
X407410Y505090D02*
Y512523D01*
X394590Y505090D02*
X407410D01*
X394590Y532910D02*
X407410D01*
X394590Y525477D02*
Y532910D01*
X407410Y525477D02*
Y532910D01*
X394590Y643090D02*
Y650523D01*
X407410Y643090D02*
Y650523D01*
X394590Y643090D02*
X407410D01*
X394590Y670910D02*
X407410D01*
X394590Y663477D02*
Y670910D01*
X407410Y663477D02*
Y670910D01*
X394590Y607090D02*
Y614523D01*
X407410Y607090D02*
Y614523D01*
X394590Y607090D02*
X407410D01*
X394590Y634910D02*
X407410D01*
X394590Y627477D02*
Y634910D01*
X407410Y627477D02*
Y634910D01*
X379477Y485590D02*
X386910D01*
X379477Y498410D02*
X386910D01*
Y485590D02*
Y498410D01*
X359090Y485590D02*
Y498410D01*
Y485590D02*
X366523D01*
X359090Y498410D02*
X366523D01*
X413090Y261590D02*
Y273523D01*
Y261590D02*
X426910D01*
Y273523D01*
X413090D02*
Y298410D01*
X426910D01*
Y273523D02*
Y298410D01*
X393590Y266090D02*
Y273523D01*
X406410Y266090D02*
Y273523D01*
X393590Y266090D02*
X406410D01*
X393590Y293910D02*
X406410D01*
X393590Y286477D02*
Y293910D01*
X406410Y286477D02*
Y293910D01*
X386410Y286477D02*
Y293910D01*
X373590Y286477D02*
Y293910D01*
X386410D01*
X373590Y266090D02*
X386410D01*
Y273523D01*
X373590Y266090D02*
Y273523D01*
X353590Y266090D02*
Y273523D01*
X366410Y266090D02*
Y273523D01*
X353590Y266090D02*
X366410D01*
X353590Y293910D02*
X366410D01*
X353590Y286477D02*
Y293910D01*
X366410Y286477D02*
Y293910D01*
X326477Y398590D02*
X333910D01*
X326477Y411410D02*
X333910D01*
Y398590D02*
Y411410D01*
X306090Y398590D02*
Y411410D01*
Y398590D02*
X313523D01*
X306090Y411410D02*
X313523D01*
X326477Y378590D02*
X333910D01*
X326477Y391410D02*
X333910D01*
Y378590D02*
Y391410D01*
X306090Y378590D02*
Y391410D01*
Y378590D02*
X313523D01*
X306090Y391410D02*
X313523D01*
X306090Y371410D02*
X313523D01*
X306090Y358590D02*
X313523D01*
X306090D02*
Y371410D01*
X333910Y358590D02*
Y371410D01*
X326477D02*
X333910D01*
X326477Y358590D02*
X333910D01*
X326477Y338590D02*
X333910D01*
X326477Y351410D02*
X333910D01*
Y338590D02*
Y351410D01*
X306090Y338590D02*
Y351410D01*
Y338590D02*
X313523D01*
X306090Y351410D02*
X313523D01*
X326477Y318590D02*
X333910D01*
X326477Y331410D02*
X333910D01*
Y318590D02*
Y331410D01*
X306090Y318590D02*
Y331410D01*
Y318590D02*
X313523D01*
X306090Y331410D02*
X313523D01*
X306090Y315410D02*
X313523D01*
X306090Y302590D02*
X313523D01*
X306090D02*
Y315410D01*
X333910Y302590D02*
Y315410D01*
X326477D02*
X333910D01*
X326477Y302590D02*
X333910D01*
X306090Y300410D02*
X313523D01*
X306090Y287590D02*
X313523D01*
X306090D02*
Y300410D01*
X333910Y287590D02*
Y300410D01*
X326477D02*
X333910D01*
X326477Y287590D02*
X333910D01*
X326477Y272590D02*
X333910D01*
X326477Y285410D02*
X333910D01*
Y272590D02*
Y285410D01*
X306090Y272590D02*
Y285410D01*
Y272590D02*
X313523D01*
X306090Y285410D02*
X313523D01*
X224477Y329590D02*
X231910D01*
X224477Y342410D02*
X231910D01*
Y329590D02*
Y342410D01*
X204090Y329590D02*
Y342410D01*
Y329590D02*
X211523D01*
X204090Y342410D02*
X211523D01*
X224477Y346590D02*
X231910D01*
X224477Y359410D02*
X231910D01*
Y346590D02*
Y359410D01*
X204090Y346590D02*
Y359410D01*
Y346590D02*
X211523D01*
X204090Y359410D02*
X211523D01*
X224477Y363590D02*
X231910D01*
X224477Y376410D02*
X231910D01*
Y363590D02*
Y376410D01*
X204090Y363590D02*
Y376410D01*
Y363590D02*
X211523D01*
X204090Y376410D02*
X211523D01*
X224477Y379590D02*
X231910D01*
X224477Y392410D02*
X231910D01*
Y379590D02*
Y392410D01*
X204090Y379590D02*
Y392410D01*
Y379590D02*
X211523D01*
X204090Y392410D02*
X211523D01*
X224477Y398590D02*
X231910D01*
X224477Y411410D02*
X231910D01*
Y398590D02*
Y411410D01*
X204090Y398590D02*
Y411410D01*
Y398590D02*
X211523D01*
X204090Y411410D02*
X211523D01*
X224477Y417590D02*
X231910D01*
X224477Y430410D02*
X231910D01*
Y417590D02*
Y430410D01*
X204090Y417590D02*
Y430410D01*
Y417590D02*
X211523D01*
X204090Y430410D02*
X211523D01*
X204090Y448410D02*
X211523D01*
X204090Y435590D02*
X211523D01*
X204090D02*
Y448410D01*
X231910Y435590D02*
Y448410D01*
X224477D02*
X231910D01*
X224477Y435590D02*
X231910D01*
X204090Y468410D02*
X211523D01*
X204090Y455590D02*
X211523D01*
X204090D02*
Y468410D01*
X231910Y455590D02*
Y468410D01*
X224477D02*
X231910D01*
X224477Y455590D02*
X231910D01*
X204090Y488410D02*
X211523D01*
X204090Y475590D02*
X211523D01*
X204090D02*
Y488410D01*
X231910Y475590D02*
Y488410D01*
X224477D02*
X231910D01*
X224477Y475590D02*
X231910D01*
X224477Y493590D02*
X231910D01*
X224477Y506410D02*
X231910D01*
Y493590D02*
Y506410D01*
X204090Y493590D02*
Y506410D01*
Y493590D02*
X211523D01*
X204090Y506410D02*
X211523D01*
X224477Y511590D02*
X231910D01*
X224477Y524410D02*
X231910D01*
Y511590D02*
Y524410D01*
X204090Y511590D02*
Y524410D01*
Y511590D02*
X211523D01*
X204090Y524410D02*
X211523D01*
X224477Y531590D02*
X231910D01*
X224477Y544410D02*
X231910D01*
Y531590D02*
Y544410D01*
X204090Y531590D02*
Y544410D01*
Y531590D02*
X211523D01*
X204090Y544410D02*
X211523D01*
X224477Y551590D02*
X231910D01*
X224477Y564410D02*
X231910D01*
Y551590D02*
Y564410D01*
X204090Y551590D02*
Y564410D01*
Y551590D02*
X211523D01*
X204090Y564410D02*
X211523D01*
X224477Y571590D02*
X231910D01*
X224477Y584410D02*
X231910D01*
Y571590D02*
Y584410D01*
X204090Y571590D02*
Y584410D01*
Y571590D02*
X211523D01*
X204090Y584410D02*
X211523D01*
X224477Y591590D02*
X231910D01*
X224477Y604410D02*
X231910D01*
Y591590D02*
Y604410D01*
X204090Y591590D02*
Y604410D01*
Y591590D02*
X211523D01*
X204090Y604410D02*
X211523D01*
X17477Y389590D02*
X24910D01*
X17477Y402410D02*
X24910D01*
Y389590D02*
Y402410D01*
X-2910Y389590D02*
Y402410D01*
Y389590D02*
X4523D01*
X-2910Y402410D02*
X4523D01*
X-2910Y385410D02*
X4523D01*
X-2910Y372590D02*
X4523D01*
X-2910D02*
Y385410D01*
X24910Y372590D02*
Y385410D01*
X17477D02*
X24910D01*
X17477Y372590D02*
X24910D01*
X-2910Y368410D02*
X4523D01*
X-2910Y355590D02*
X4523D01*
X-2910D02*
Y368410D01*
X24910Y355590D02*
Y368410D01*
X4523D02*
X24910D01*
X4523Y355590D02*
X24910D01*
X-2910Y431410D02*
X4523D01*
X-2910Y418590D02*
X4523D01*
X-2910D02*
Y431410D01*
X24910Y418590D02*
Y431410D01*
X17477D02*
X24910D01*
X17477Y418590D02*
X24910D01*
X4523Y435590D02*
X24910D01*
X4523Y448410D02*
X24910D01*
Y435590D02*
Y448410D01*
X-2910Y435590D02*
Y448410D01*
Y435590D02*
X4523D01*
X-2910Y448410D02*
X4523D01*
X83590Y566090D02*
Y586477D01*
X96410Y566090D02*
Y586477D01*
X83590Y566090D02*
X96410D01*
X83590Y593910D02*
X96410D01*
X83590Y586477D02*
Y593910D01*
X96410Y586477D02*
Y593910D01*
X61410Y586477D02*
Y593910D01*
X48590Y586477D02*
Y593910D01*
X61410D01*
X48590Y566090D02*
X61410D01*
Y573523D01*
X48590Y566090D02*
Y573523D01*
X43410Y586477D02*
Y593910D01*
X30590Y586477D02*
Y593910D01*
X43410D01*
X30590Y566090D02*
X43410D01*
Y573523D01*
X30590Y566090D02*
Y573523D01*
X2410Y586477D02*
Y593910D01*
X-10410Y586477D02*
Y593910D01*
X2410D01*
X-10410Y566090D02*
X2410D01*
Y573523D01*
X-10410Y566090D02*
Y573523D01*
X-14590D02*
Y593910D01*
X-27410Y573523D02*
Y593910D01*
X-14590D01*
X-27410Y566090D02*
X-14590D01*
Y573523D01*
X-27410Y566090D02*
Y573523D01*
X-31590Y586477D02*
Y593910D01*
X-44410Y586477D02*
Y593910D01*
X-31590D01*
X-44410Y566090D02*
X-31590D01*
Y573523D01*
X-44410Y566090D02*
Y573523D01*
X-65410Y566090D02*
Y586477D01*
X-52590Y566090D02*
Y586477D01*
X-65410Y566090D02*
X-52590D01*
X-65410Y593910D02*
X-52590D01*
X-65410Y586477D02*
Y593910D01*
X-52590Y586477D02*
Y593910D01*
X379477Y450590D02*
X386910D01*
X379477Y463410D02*
X386910D01*
Y450590D02*
Y463410D01*
X359090Y450590D02*
Y463410D01*
Y450590D02*
X366523D01*
X359090Y463410D02*
X366523D01*
X391410Y421477D02*
Y428910D01*
X378590Y421477D02*
Y428910D01*
X391410D01*
X378590Y401090D02*
X391410D01*
Y408523D01*
X378590Y401090D02*
Y408523D01*
X409410Y421477D02*
Y428910D01*
X396590Y421477D02*
Y428910D01*
X409410D01*
X396590Y401090D02*
X409410D01*
Y408523D01*
X396590Y401090D02*
Y408523D01*
X414590Y401090D02*
Y408523D01*
X427410Y401090D02*
Y408523D01*
X414590Y401090D02*
X427410D01*
X414590Y428910D02*
X427410D01*
X414590Y421477D02*
Y428910D01*
X427410Y421477D02*
Y428910D01*
X373410Y421477D02*
Y428910D01*
X360590Y421477D02*
Y428910D01*
X373410D01*
X360590Y401090D02*
X373410D01*
Y408523D01*
X360590Y401090D02*
Y408523D01*
X341590Y401090D02*
Y408523D01*
X354410Y401090D02*
Y408523D01*
X341590Y401090D02*
X354410D01*
X341590Y428910D02*
X354410D01*
X341590Y421477D02*
Y428910D01*
X354410Y421477D02*
Y428910D01*
X333590Y466090D02*
Y486477D01*
X346410Y466090D02*
Y486477D01*
X333590Y466090D02*
X346410D01*
X333590Y493910D02*
X346410D01*
X333590Y486477D02*
Y493910D01*
X346410Y486477D02*
Y493910D01*
X379477Y533590D02*
X386910D01*
X379477Y546410D02*
X386910D01*
Y533590D02*
Y546410D01*
X359090Y533590D02*
Y546410D01*
Y533590D02*
X366523D01*
X359090Y546410D02*
X366523D01*
X407410Y489477D02*
Y496910D01*
X394590Y489477D02*
Y496910D01*
X407410D01*
X394590Y469090D02*
X407410D01*
Y476523D01*
X394590Y469090D02*
Y476523D01*
X395590Y538090D02*
Y545523D01*
X408410Y538090D02*
Y545523D01*
X395590Y538090D02*
X408410D01*
X395590Y565910D02*
X408410D01*
X395590Y558477D02*
Y565910D01*
X408410Y558477D02*
Y565910D01*
X395590Y571090D02*
Y578523D01*
X408410Y571090D02*
Y578523D01*
X395590Y571090D02*
X408410D01*
X395590Y598910D02*
X408410D01*
X395590Y591477D02*
Y598910D01*
X408410Y591477D02*
Y598910D01*
X333590Y556090D02*
Y576477D01*
X346410Y556090D02*
Y576477D01*
X333590Y556090D02*
X346410D01*
X333590Y583910D02*
X346410D01*
X333590Y576477D02*
Y583910D01*
X346410Y576477D02*
Y583910D01*
X378477Y581590D02*
X385910D01*
X378477Y594410D02*
X385910D01*
Y581590D02*
Y594410D01*
X358090Y581590D02*
Y594410D01*
Y581590D02*
X365523D01*
X358090Y594410D02*
X365523D01*
X379477Y608590D02*
X386910D01*
X379477Y621410D02*
X386910D01*
Y608590D02*
Y621410D01*
X359090Y608590D02*
Y621410D01*
Y608590D02*
X366523D01*
X359090Y621410D02*
X366523D01*
X359090Y671410D02*
X366523D01*
X359090Y658590D02*
X366523D01*
X359090D02*
Y671410D01*
X386910Y658590D02*
Y671410D01*
X379477D02*
X386910D01*
X379477Y658590D02*
X386910D01*
X333590Y641090D02*
Y661477D01*
X346410Y641090D02*
Y661477D01*
X333590Y641090D02*
X346410D01*
X333590Y668910D02*
X346410D01*
X333590Y661477D02*
Y668910D01*
X346410Y661477D02*
Y668910D01*
D14*
X368698Y548650D02*
Y561350D01*
X363110Y548650D02*
X380890D01*
X363110Y561350D02*
X380890D01*
X368698Y502650D02*
Y515350D01*
X363110Y502650D02*
X380890D01*
X363110Y515350D02*
X380890D01*
X368698Y467650D02*
Y480350D01*
X363110Y467650D02*
X380890D01*
X363110Y480350D02*
X380890D01*
X293302Y598650D02*
Y611350D01*
X281110D02*
X298890D01*
X281110Y598650D02*
X298890D01*
X293302Y508650D02*
Y521350D01*
X281110D02*
X298890D01*
X281110Y508650D02*
X298890D01*
X368698Y565650D02*
Y578350D01*
X363110Y565650D02*
X380890D01*
X363110Y578350D02*
X380890D01*
X369698Y623650D02*
Y636350D01*
X364110Y623650D02*
X381890D01*
X364110Y636350D02*
X381890D01*
X369698Y642650D02*
Y655350D01*
X364110Y642650D02*
X381890D01*
X364110Y655350D02*
X381890D01*
X293302Y683650D02*
Y696350D01*
X281110D02*
X298890D01*
X281110Y683650D02*
X298890D01*
D15*
X388333Y499167D02*
X390000Y502500D01*
X388333Y499167D02*
X390000Y497500D01*
X388333Y499167D02*
X390000Y500000D01*
X415000D01*
X237500Y433000D02*
Y491000D01*
X201000Y433000D02*
Y491000D01*
X233000Y433000D02*
X237500D01*
X201000D02*
X203000D01*
X233000Y491000D02*
X237500D01*
D16*
X131500Y642700D02*
X232846D01*
X233100Y617300D02*
Y642700D01*
X131500Y617300D02*
Y642700D01*
X182300Y618652D02*
Y639652D01*
X208208Y618906D02*
Y639906D01*
X157408Y618906D02*
Y639906D01*
X131500Y617300D02*
X233100D01*
X-67430Y269160D02*
Y290160D01*
X-42430Y269160D02*
Y290160D01*
X107408Y268906D02*
Y289906D01*
X132408Y268906D02*
Y289906D01*
X157354Y269160D02*
Y290160D01*
X182500Y268906D02*
Y289906D01*
X82608Y269160D02*
Y290160D01*
X57462Y269160D02*
Y290160D01*
X32570Y269160D02*
Y290160D01*
X7570Y269160D02*
Y290160D01*
X-17430Y269160D02*
Y290160D01*
X-154906Y320000D02*
X-133906D01*
X-154906Y345000D02*
X-133906D01*
X-154906Y370000D02*
X-133906D01*
X-154906Y395000D02*
X-133906D01*
X-154906Y295000D02*
X-133906D01*
X64900Y360300D02*
X141100D01*
X64900D02*
Y385700D01*
X141100Y360300D02*
Y385700D01*
X90300Y363348D02*
Y384348D01*
X115192Y363094D02*
Y384094D01*
X65154Y385700D02*
X141100D01*
X-156094Y552500D02*
X-135094D01*
X-156094Y527500D02*
X-135094D01*
X-156094Y502500D02*
X-135094D01*
X-156094Y477500D02*
X-135094D01*
X-156094Y577500D02*
X-135094D01*
X176837Y441001D02*
Y448999D01*
X180835D01*
X182168Y447666D01*
Y445000D01*
X180835Y443667D01*
X176837D01*
X179503D02*
X182168Y441001D01*
X190166Y448999D02*
X184834D01*
Y445000D01*
X187500Y446333D01*
X188833D01*
X190166Y445000D01*
Y442334D01*
X188833Y441001D01*
X186167D01*
X184834Y442334D01*
X192832Y447666D02*
X194165Y448999D01*
X196830D01*
X198163Y447666D01*
Y446333D01*
X196830Y445000D01*
X195497D01*
X196830D01*
X198163Y443667D01*
Y442334D01*
X196830Y441001D01*
X194165D01*
X192832Y442334D01*
X176837Y458501D02*
Y466499D01*
X180835D01*
X182168Y465166D01*
Y462500D01*
X180835Y461167D01*
X176837D01*
X179503D02*
X182168Y458501D01*
X190166Y466499D02*
X184834D01*
Y462500D01*
X187500Y463833D01*
X188833D01*
X190166Y462500D01*
Y459834D01*
X188833Y458501D01*
X186167D01*
X184834Y459834D01*
X198163Y458501D02*
X192832D01*
X198163Y463833D01*
Y465166D01*
X196830Y466499D01*
X194165D01*
X192832Y465166D01*
X180670Y476001D02*
Y483999D01*
X184668D01*
X186001Y482666D01*
Y480000D01*
X184668Y478667D01*
X180670D01*
X183335D02*
X186001Y476001D01*
X193999Y483999D02*
X188667D01*
Y480000D01*
X191333Y481333D01*
X192666D01*
X193999Y480000D01*
Y477334D01*
X192666Y476001D01*
X190000D01*
X188667Y477334D01*
X196665Y476001D02*
X199330D01*
X197997D01*
Y483999D01*
X196665Y482666D01*
X331837Y611001D02*
Y618999D01*
X335835D01*
X337168Y617666D01*
Y615000D01*
X335835Y613667D01*
X331837D01*
X334503D02*
X337168Y611001D01*
X345166Y618999D02*
X339834D01*
Y615000D01*
X342500Y616333D01*
X343833D01*
X345166Y615000D01*
Y612334D01*
X343833Y611001D01*
X341167D01*
X339834Y612334D01*
X347832Y617666D02*
X349165Y618999D01*
X351830D01*
X353163Y617666D01*
Y612334D01*
X351830Y611001D01*
X349165D01*
X347832Y612334D01*
Y617666D01*
X361837Y701001D02*
Y708999D01*
X365835D01*
X367168Y707666D01*
Y705000D01*
X365835Y703667D01*
X361837D01*
X364503D02*
X367168Y701001D01*
X373833D02*
Y708999D01*
X369834Y705000D01*
X375166D01*
X377832Y702334D02*
X379165Y701001D01*
X381830D01*
X383163Y702334D01*
Y707666D01*
X381830Y708999D01*
X379165D01*
X377832Y707666D01*
Y706333D01*
X379165Y705000D01*
X383163D01*
X176837Y573501D02*
Y581499D01*
X180835D01*
X182168Y580166D01*
Y577500D01*
X180835Y576167D01*
X176837D01*
X179503D02*
X182168Y573501D01*
X188833D02*
Y581499D01*
X184834Y577500D01*
X190166D01*
X192832Y580166D02*
X194165Y581499D01*
X196830D01*
X198163Y580166D01*
Y578833D01*
X196830Y577500D01*
X198163Y576167D01*
Y574834D01*
X196830Y573501D01*
X194165D01*
X192832Y574834D01*
Y576167D01*
X194165Y577500D01*
X192832Y578833D01*
Y580166D01*
X194165Y577500D02*
X196830D01*
X176837Y593501D02*
Y601499D01*
X180835D01*
X182168Y600166D01*
Y597500D01*
X180835Y596167D01*
X176837D01*
X179503D02*
X182168Y593501D01*
X188833D02*
Y601499D01*
X184834Y597500D01*
X190166D01*
X192832Y601499D02*
X198163D01*
Y600166D01*
X192832Y594834D01*
Y593501D01*
X438999Y404337D02*
X431001D01*
Y408335D01*
X432334Y409668D01*
X435000D01*
X436333Y408335D01*
Y404337D01*
Y407003D02*
X438999Y409668D01*
Y416333D02*
X431001D01*
X435000Y412334D01*
Y417666D01*
X431001Y425663D02*
X432334Y422998D01*
X435000Y420332D01*
X437666D01*
X438999Y421665D01*
Y424330D01*
X437666Y425663D01*
X436333D01*
X435000Y424330D01*
Y420332D01*
X414337Y533501D02*
Y541499D01*
X418335D01*
X419668Y540166D01*
Y537500D01*
X418335Y536167D01*
X414337D01*
X417003D02*
X419668Y533501D01*
X426333D02*
Y541499D01*
X422334Y537500D01*
X427666D01*
X435663Y541499D02*
X430332D01*
Y537500D01*
X432997Y538833D01*
X434330D01*
X435663Y537500D01*
Y534834D01*
X434330Y533501D01*
X431665D01*
X430332Y534834D01*
X453999Y269337D02*
X446001D01*
Y273335D01*
X447334Y274668D01*
X450000D01*
X451333Y273335D01*
Y269337D01*
Y272003D02*
X453999Y274668D01*
Y281333D02*
X446001D01*
X450000Y277334D01*
Y282666D01*
X453999Y289330D02*
X446001D01*
X450000Y285332D01*
Y290663D01*
X176837Y533501D02*
Y541499D01*
X180835D01*
X182168Y540166D01*
Y537500D01*
X180835Y536167D01*
X176837D01*
X179503D02*
X182168Y533501D01*
X188833D02*
Y541499D01*
X184834Y537500D01*
X190166D01*
X192832Y540166D02*
X194165Y541499D01*
X196830D01*
X198163Y540166D01*
Y538833D01*
X196830Y537500D01*
X195497D01*
X196830D01*
X198163Y536167D01*
Y534834D01*
X196830Y533501D01*
X194165D01*
X192832Y534834D01*
X348999Y269337D02*
X341001D01*
Y273335D01*
X342334Y274668D01*
X345000D01*
X346333Y273335D01*
Y269337D01*
Y272003D02*
X348999Y274668D01*
Y281333D02*
X341001D01*
X345000Y277334D01*
Y282666D01*
X342334Y285332D02*
X341001Y286665D01*
Y289330D01*
X342334Y290663D01*
X347666D01*
X348999Y289330D01*
Y286665D01*
X347666Y285332D01*
X342334D01*
X438999Y269337D02*
X431001D01*
Y273335D01*
X432334Y274668D01*
X435000D01*
X436333Y273335D01*
Y269337D01*
Y272003D02*
X438999Y274668D01*
X432334Y277334D02*
X431001Y278667D01*
Y281333D01*
X432334Y282666D01*
X433667D01*
X435000Y281333D01*
Y280000D01*
Y281333D01*
X436333Y282666D01*
X437666D01*
X438999Y281333D01*
Y278667D01*
X437666Y277334D01*
Y285332D02*
X438999Y286665D01*
Y289330D01*
X437666Y290663D01*
X432334D01*
X431001Y289330D01*
Y286665D01*
X432334Y285332D01*
X433667D01*
X435000Y286665D01*
Y290663D01*
X391837Y453501D02*
Y461499D01*
X395835D01*
X397168Y460166D01*
Y457500D01*
X395835Y456167D01*
X391837D01*
X394503D02*
X397168Y453501D01*
X399834Y460166D02*
X401167Y461499D01*
X403833D01*
X405166Y460166D01*
Y458833D01*
X403833Y457500D01*
X402500D01*
X403833D01*
X405166Y456167D01*
Y454834D01*
X403833Y453501D01*
X401167D01*
X399834Y454834D01*
X407832Y460166D02*
X409165Y461499D01*
X411830D01*
X413163Y460166D01*
Y458833D01*
X411830Y457500D01*
X413163Y456167D01*
Y454834D01*
X411830Y453501D01*
X409165D01*
X407832Y454834D01*
Y456167D01*
X409165Y457500D01*
X407832Y458833D01*
Y460166D01*
X409165Y457500D02*
X411830D01*
X351837Y436001D02*
Y443999D01*
X355835D01*
X357168Y442666D01*
Y440000D01*
X355835Y438667D01*
X351837D01*
X354503D02*
X357168Y436001D01*
X359834Y442666D02*
X361167Y443999D01*
X363833D01*
X365166Y442666D01*
Y441333D01*
X363833Y440000D01*
X362500D01*
X363833D01*
X365166Y438667D01*
Y437334D01*
X363833Y436001D01*
X361167D01*
X359834Y437334D01*
X367832Y443999D02*
X373163D01*
Y442666D01*
X367832Y437334D01*
Y436001D01*
X346499Y434337D02*
X338501D01*
Y438335D01*
X339834Y439668D01*
X342500D01*
X343833Y438335D01*
Y434337D01*
Y437003D02*
X346499Y439668D01*
X339834Y442334D02*
X338501Y443667D01*
Y446333D01*
X339834Y447666D01*
X341167D01*
X342500Y446333D01*
Y445000D01*
Y446333D01*
X343833Y447666D01*
X345166D01*
X346499Y446333D01*
Y443667D01*
X345166Y442334D01*
X338501Y455663D02*
X339834Y452997D01*
X342500Y450332D01*
X345166D01*
X346499Y451665D01*
Y454330D01*
X345166Y455663D01*
X343833D01*
X342500Y454330D01*
Y450332D01*
X281837Y341001D02*
Y348999D01*
X285835D01*
X287168Y347666D01*
Y345000D01*
X285835Y343667D01*
X281837D01*
X284503D02*
X287168Y341001D01*
X289834Y347666D02*
X291167Y348999D01*
X293833D01*
X295166Y347666D01*
Y346333D01*
X293833Y345000D01*
X292500D01*
X293833D01*
X295166Y343667D01*
Y342334D01*
X293833Y341001D01*
X291167D01*
X289834Y342334D01*
X303163Y348999D02*
X297832D01*
Y345000D01*
X300497Y346333D01*
X301830D01*
X303163Y345000D01*
Y342334D01*
X301830Y341001D01*
X299165D01*
X297832Y342334D01*
X301499Y354337D02*
X293501D01*
Y358335D01*
X294834Y359668D01*
X297500D01*
X298833Y358335D01*
Y354337D01*
Y357003D02*
X301499Y359668D01*
X294834Y362334D02*
X293501Y363667D01*
Y366333D01*
X294834Y367666D01*
X296167D01*
X297500Y366333D01*
Y365000D01*
Y366333D01*
X298833Y367666D01*
X300166D01*
X301499Y366333D01*
Y363667D01*
X300166Y362334D01*
X301499Y374330D02*
X293501D01*
X297500Y370332D01*
Y375663D01*
X176173Y495837D02*
Y503834D01*
X180171D01*
X181504Y502502D01*
Y499836D01*
X180171Y498503D01*
X176173D01*
X178838D02*
X181504Y495837D01*
X184170Y502502D02*
X185503Y503834D01*
X188169D01*
X189502Y502502D01*
Y501169D01*
X188169Y499836D01*
X186836D01*
X188169D01*
X189502Y498503D01*
Y497170D01*
X188169Y495837D01*
X185503D01*
X184170Y497170D01*
X192167Y502502D02*
X193500Y503834D01*
X196166D01*
X197499Y502502D01*
Y501169D01*
X196166Y499836D01*
X194833D01*
X196166D01*
X197499Y498503D01*
Y497170D01*
X196166Y495837D01*
X193500D01*
X192167Y497170D01*
X176837Y513501D02*
Y521499D01*
X180835D01*
X182168Y520166D01*
Y517500D01*
X180835Y516167D01*
X176837D01*
X179503D02*
X182168Y513501D01*
X184834Y520166D02*
X186167Y521499D01*
X188833D01*
X190166Y520166D01*
Y518833D01*
X188833Y517500D01*
X187500D01*
X188833D01*
X190166Y516167D01*
Y514834D01*
X188833Y513501D01*
X186167D01*
X184834Y514834D01*
X198163Y513501D02*
X192832D01*
X198163Y518833D01*
Y520166D01*
X196830Y521499D01*
X194165D01*
X192832Y520166D01*
X378170Y436001D02*
Y443999D01*
X382168D01*
X383501Y442666D01*
Y440000D01*
X382168Y438667D01*
X378170D01*
X380835D02*
X383501Y436001D01*
X386167Y442666D02*
X387500Y443999D01*
X390166D01*
X391499Y442666D01*
Y441333D01*
X390166Y440000D01*
X388833D01*
X390166D01*
X391499Y438667D01*
Y437334D01*
X390166Y436001D01*
X387500D01*
X386167Y437334D01*
X394165Y436001D02*
X396830D01*
X395498D01*
Y443999D01*
X394165Y442666D01*
X301499Y379337D02*
X293501D01*
Y383335D01*
X294834Y384668D01*
X297500D01*
X298833Y383335D01*
Y379337D01*
Y382003D02*
X301499Y384668D01*
X294834Y387334D02*
X293501Y388667D01*
Y391333D01*
X294834Y392666D01*
X296167D01*
X297500Y391333D01*
Y390000D01*
Y391333D01*
X298833Y392666D01*
X300166D01*
X301499Y391333D01*
Y388667D01*
X300166Y387334D01*
X294834Y395332D02*
X293501Y396665D01*
Y399330D01*
X294834Y400663D01*
X300166D01*
X301499Y399330D01*
Y396665D01*
X300166Y395332D01*
X294834D01*
X416837Y496001D02*
Y503999D01*
X420835D01*
X422168Y502666D01*
Y500000D01*
X420835Y498667D01*
X416837D01*
X419503D02*
X422168Y496001D01*
X430166D02*
X424834D01*
X430166Y501333D01*
Y502666D01*
X428833Y503999D01*
X426167D01*
X424834Y502666D01*
X432832Y497334D02*
X434165Y496001D01*
X436830D01*
X438163Y497334D01*
Y502666D01*
X436830Y503999D01*
X434165D01*
X432832Y502666D01*
Y501333D01*
X434165Y500000D01*
X438163D01*
X306837Y418501D02*
Y426499D01*
X310835D01*
X312168Y425166D01*
Y422500D01*
X310835Y421167D01*
X306837D01*
X309503D02*
X312168Y418501D01*
X320166D02*
X314834D01*
X320166Y423833D01*
Y425166D01*
X318833Y426499D01*
X316167D01*
X314834Y425166D01*
X322832D02*
X324165Y426499D01*
X326830D01*
X328163Y425166D01*
Y423833D01*
X326830Y422500D01*
X328163Y421167D01*
Y419834D01*
X326830Y418501D01*
X324165D01*
X322832Y419834D01*
Y421167D01*
X324165Y422500D01*
X322832Y423833D01*
Y425166D01*
X324165Y422500D02*
X326830D01*
X401837Y436001D02*
Y443999D01*
X405835D01*
X407168Y442666D01*
Y440000D01*
X405835Y438667D01*
X401837D01*
X404503D02*
X407168Y436001D01*
X415166D02*
X409834D01*
X415166Y441333D01*
Y442666D01*
X413833Y443999D01*
X411167D01*
X409834Y442666D01*
X417832Y443999D02*
X423163D01*
Y442666D01*
X417832Y437334D01*
Y436001D01*
X281837Y288501D02*
Y296499D01*
X285835D01*
X287168Y295166D01*
Y292500D01*
X285835Y291167D01*
X281837D01*
X284503D02*
X287168Y288501D01*
X295166D02*
X289834D01*
X295166Y293833D01*
Y295166D01*
X293833Y296499D01*
X291167D01*
X289834Y295166D01*
X303163Y296499D02*
X300497Y295166D01*
X297832Y292500D01*
Y289834D01*
X299165Y288501D01*
X301830D01*
X303163Y289834D01*
Y291167D01*
X301830Y292500D01*
X297832D01*
X281837Y321001D02*
Y328999D01*
X285835D01*
X287168Y327666D01*
Y325000D01*
X285835Y323667D01*
X281837D01*
X284503D02*
X287168Y321001D01*
X295166D02*
X289834D01*
X295166Y326333D01*
Y327666D01*
X293833Y328999D01*
X291167D01*
X289834Y327666D01*
X303163Y328999D02*
X297832D01*
Y325000D01*
X300497Y326333D01*
X301830D01*
X303163Y325000D01*
Y322334D01*
X301830Y321001D01*
X299165D01*
X297832Y322334D01*
X281837Y273501D02*
Y281499D01*
X285835D01*
X287168Y280166D01*
Y277500D01*
X285835Y276167D01*
X281837D01*
X284503D02*
X287168Y273501D01*
X295166D02*
X289834D01*
X295166Y278833D01*
Y280166D01*
X293833Y281499D01*
X291167D01*
X289834Y280166D01*
X301830Y273501D02*
Y281499D01*
X297832Y277500D01*
X303163D01*
X281837Y306001D02*
Y313999D01*
X285835D01*
X287168Y312666D01*
Y310000D01*
X285835Y308667D01*
X281837D01*
X284503D02*
X287168Y306001D01*
X295166D02*
X289834D01*
X295166Y311333D01*
Y312666D01*
X293833Y313999D01*
X291167D01*
X289834Y312666D01*
X297832D02*
X299165Y313999D01*
X301830D01*
X303163Y312666D01*
Y311333D01*
X301830Y310000D01*
X300497D01*
X301830D01*
X303163Y308667D01*
Y307334D01*
X301830Y306001D01*
X299165D01*
X297832Y307334D01*
X423999Y613335D02*
X416001D01*
Y617334D01*
X417334Y618667D01*
X420000D01*
X421333Y617334D01*
Y613335D01*
Y616001D02*
X423999Y618667D01*
X422666Y621333D02*
X423999Y622666D01*
Y625332D01*
X422666Y626665D01*
X417334D01*
X416001Y625332D01*
Y622666D01*
X417334Y621333D01*
X418667D01*
X420000Y622666D01*
Y626665D01*
X423999Y545835D02*
X416001D01*
Y549834D01*
X417334Y551167D01*
X420000D01*
X421333Y549834D01*
Y545835D01*
Y548501D02*
X423999Y551167D01*
X417334Y553833D02*
X416001Y555166D01*
Y557832D01*
X417334Y559165D01*
X418667D01*
X420000Y557832D01*
X421333Y559165D01*
X422666D01*
X423999Y557832D01*
Y555166D01*
X422666Y553833D01*
X421333D01*
X420000Y555166D01*
X418667Y553833D01*
X417334D01*
X420000Y555166D02*
Y557832D01*
X421499Y473335D02*
X413501D01*
Y477334D01*
X414834Y478667D01*
X417500D01*
X418833Y477334D01*
Y473335D01*
Y476001D02*
X421499Y478667D01*
X413501Y481333D02*
Y486665D01*
X414834D01*
X420166Y481333D01*
X421499D01*
X423999Y650835D02*
X416001D01*
Y654834D01*
X417334Y656167D01*
X420000D01*
X421333Y654834D01*
Y650835D01*
Y653501D02*
X423999Y656167D01*
X416001Y664165D02*
Y658833D01*
X420000D01*
X418667Y661499D01*
Y662832D01*
X420000Y664165D01*
X422666D01*
X423999Y662832D01*
Y660166D01*
X422666Y658833D01*
X423999Y583335D02*
X416001D01*
Y587334D01*
X417334Y588667D01*
X420000D01*
X421333Y587334D01*
Y583335D01*
Y586001D02*
X423999Y588667D01*
Y595332D02*
X416001D01*
X420000Y591333D01*
Y596665D01*
X423999Y510835D02*
X416001D01*
Y514834D01*
X417334Y516167D01*
X420000D01*
X421333Y514834D01*
Y510835D01*
Y513501D02*
X423999Y516167D01*
X417334Y518833D02*
X416001Y520166D01*
Y522832D01*
X417334Y524165D01*
X418667D01*
X420000Y522832D01*
Y521499D01*
Y522832D01*
X421333Y524165D01*
X422666D01*
X423999Y522832D01*
Y520166D01*
X422666Y518833D01*
X-21665Y376001D02*
Y383999D01*
X-17666D01*
X-16333Y382666D01*
Y380000D01*
X-17666Y378667D01*
X-21665D01*
X-18999D02*
X-16333Y376001D01*
X-8335D02*
X-13667D01*
X-8335Y381333D01*
Y382666D01*
X-9668Y383999D01*
X-12334D01*
X-13667Y382666D01*
X-20332Y393501D02*
Y401499D01*
X-16333D01*
X-15000Y400166D01*
Y397500D01*
X-16333Y396167D01*
X-20332D01*
X-17666D02*
X-15000Y393501D01*
X-12334D02*
X-9668D01*
X-11001D01*
Y401499D01*
X-12334Y400166D01*
X362503Y681499D02*
Y673501D01*
X366502D01*
X367835Y674834D01*
Y680166D01*
X366502Y681499D01*
X362503D01*
X370501Y673501D02*
X373166D01*
X371833D01*
Y681499D01*
X370501Y680166D01*
X377165D02*
X378498Y681499D01*
X381164D01*
X382497Y680166D01*
Y678833D01*
X381164Y677500D01*
X379831D01*
X381164D01*
X382497Y676167D01*
Y674834D01*
X381164Y673501D01*
X378498D01*
X377165Y674834D01*
X362503Y693999D02*
Y686001D01*
X366502D01*
X367835Y687334D01*
Y692666D01*
X366502Y693999D01*
X362503D01*
X370501Y686001D02*
X373166D01*
X371833D01*
Y693999D01*
X370501Y692666D01*
X382497Y686001D02*
X377165D01*
X382497Y691333D01*
Y692666D01*
X381164Y693999D01*
X378498D01*
X377165Y692666D01*
X306336Y693999D02*
Y686001D01*
X310335D01*
X311668Y687334D01*
Y692666D01*
X310335Y693999D01*
X306336D01*
X314334Y686001D02*
X316999D01*
X315667D01*
Y693999D01*
X314334Y692666D01*
X320998Y686001D02*
X323664D01*
X322331D01*
Y693999D01*
X320998Y692666D01*
X332503Y551499D02*
Y543501D01*
X336502D01*
X337835Y544834D01*
Y550166D01*
X336502Y551499D01*
X332503D01*
X340501Y543501D02*
X343166D01*
X341834D01*
Y551499D01*
X340501Y550166D01*
X347165D02*
X348498Y551499D01*
X351164D01*
X352497Y550166D01*
Y544834D01*
X351164Y543501D01*
X348498D01*
X347165Y544834D01*
Y550166D01*
X415835Y573999D02*
Y566001D01*
X419834D01*
X421167Y567334D01*
Y572666D01*
X419834Y573999D01*
X415835D01*
X423833Y567334D02*
X425166Y566001D01*
X427832D01*
X429165Y567334D01*
Y572666D01*
X427832Y573999D01*
X425166D01*
X423833Y572666D01*
Y571333D01*
X425166Y570000D01*
X429165D01*
X348501Y468335D02*
X356499D01*
Y472334D01*
X355166Y473667D01*
X349834D01*
X348501Y472334D01*
Y468335D01*
X349834Y476333D02*
X348501Y477666D01*
Y480332D01*
X349834Y481665D01*
X351167D01*
X352500Y480332D01*
X353833Y481665D01*
X355166D01*
X356499Y480332D01*
Y477666D01*
X355166Y476333D01*
X353833D01*
X352500Y477666D01*
X351167Y476333D01*
X349834D01*
X352500Y477666D02*
Y480332D01*
X305835Y608999D02*
Y601001D01*
X309834D01*
X311167Y602334D01*
Y607666D01*
X309834Y608999D01*
X305835D01*
X313833D02*
X319165D01*
Y607666D01*
X313833Y602334D01*
Y601001D01*
X365835Y528999D02*
Y521001D01*
X369834D01*
X371167Y522334D01*
Y527666D01*
X369834Y528999D01*
X365835D01*
X379165D02*
X376499Y527666D01*
X373833Y525000D01*
Y522334D01*
X375166Y521001D01*
X377832D01*
X379165Y522334D01*
Y523667D01*
X377832Y525000D01*
X373833D01*
X308335Y518999D02*
Y511001D01*
X312334D01*
X313667Y512334D01*
Y517666D01*
X312334Y518999D01*
X308335D01*
X321665D02*
X316333D01*
Y515000D01*
X318999Y516333D01*
X320332D01*
X321665Y515000D01*
Y512334D01*
X320332Y511001D01*
X317666D01*
X316333Y512334D01*
X87334Y606917D02*
X86001Y605584D01*
Y602919D01*
X87334Y601586D01*
X92666D01*
X93999Y602919D01*
Y605584D01*
X92666Y606917D01*
X87334Y609583D02*
X86001Y610916D01*
Y613582D01*
X87334Y614915D01*
X88667D01*
X90000Y613582D01*
X91333Y614915D01*
X92666D01*
X93999Y613582D01*
Y610916D01*
X92666Y609583D01*
X91333D01*
X90000Y610916D01*
X88667Y609583D01*
X87334D01*
X90000Y610916D02*
Y613582D01*
X459834Y276167D02*
X458501Y274834D01*
Y272168D01*
X459834Y270835D01*
X465166D01*
X466499Y272168D01*
Y274834D01*
X465166Y276167D01*
X458501Y278833D02*
Y284165D01*
X459834D01*
X465166Y278833D01*
X466499D01*
X337334Y682667D02*
X336001Y681334D01*
Y678668D01*
X337334Y677336D01*
X342666D01*
X343999Y678668D01*
Y681334D01*
X342666Y682667D01*
X336001Y690665D02*
X337334Y687999D01*
X340000Y685333D01*
X342666D01*
X343999Y686666D01*
Y689332D01*
X342666Y690665D01*
X341333D01*
X340000Y689332D01*
Y685333D01*
X337334Y593667D02*
X336001Y592334D01*
Y589668D01*
X337334Y588335D01*
X342666D01*
X343999Y589668D01*
Y592334D01*
X342666Y593667D01*
X336001Y601665D02*
Y596333D01*
X340000D01*
X338667Y598999D01*
Y600332D01*
X340000Y601665D01*
X342666D01*
X343999Y600332D01*
Y597666D01*
X342666Y596333D01*
X337334Y506167D02*
X336001Y504834D01*
Y502168D01*
X337334Y500835D01*
X342666D01*
X343999Y502168D01*
Y504834D01*
X342666Y506167D01*
X343999Y512832D02*
X336001D01*
X340000Y508833D01*
Y514165D01*
X-16333Y365166D02*
X-17666Y366499D01*
X-20332D01*
X-21665Y365166D01*
Y359834D01*
X-20332Y358501D01*
X-17666D01*
X-16333Y359834D01*
X-8335Y358501D02*
X-13667D01*
X-8335Y363833D01*
Y365166D01*
X-9668Y366499D01*
X-12334D01*
X-13667Y365166D01*
X503825Y378996D02*
Y386994D01*
X506491Y384328D01*
X509156Y386994D01*
Y378996D01*
X515821Y386994D02*
X513155D01*
X511822Y385661D01*
Y380329D01*
X513155Y378996D01*
X515821D01*
X517154Y380329D01*
Y385661D01*
X515821Y386994D01*
X519819D02*
X525151D01*
X522485D01*
Y378996D01*
X531816Y386994D02*
X529150D01*
X527817Y385661D01*
Y380329D01*
X529150Y378996D01*
X531816D01*
X533148Y380329D01*
Y385661D01*
X531816Y386994D01*
X535814Y378996D02*
Y386994D01*
X539813D01*
X541146Y385661D01*
Y382995D01*
X539813Y381662D01*
X535814D01*
X538480D02*
X541146Y378996D01*
X543812D02*
X546478D01*
X545145D01*
Y386994D01*
X543812Y385661D01*
X239339Y725999D02*
Y718001D01*
X243337D01*
X244670Y719334D01*
Y724666D01*
X243337Y725999D01*
X239339D01*
X252668Y724666D02*
X251335Y725999D01*
X248669D01*
X247336Y724666D01*
Y719334D01*
X248669Y718001D01*
X251335D01*
X252668Y719334D01*
X255334Y725999D02*
X257999D01*
X256667D01*
Y718001D01*
X255334D01*
X257999D01*
X261998D02*
Y725999D01*
X267330Y718001D01*
Y725999D01*
X269995Y718001D02*
X272661D01*
X271328D01*
Y725999D01*
X269995Y724666D01*
X38335Y538999D02*
Y532334D01*
X39668Y531001D01*
X42334D01*
X43667Y532334D01*
Y538999D01*
X51665D02*
X48999Y537666D01*
X46333Y535000D01*
Y532334D01*
X47666Y531001D01*
X50332D01*
X51665Y532334D01*
Y533667D01*
X50332Y535000D01*
X46333D01*
X255336Y690999D02*
Y684334D01*
X256668Y683001D01*
X259334D01*
X260667Y684334D01*
Y690999D01*
X268664D02*
X263333D01*
Y687000D01*
X265999Y688333D01*
X267332D01*
X268664Y687000D01*
Y684334D01*
X267332Y683001D01*
X264666D01*
X263333Y684334D01*
X247539Y608482D02*
Y601817D01*
X248872Y600484D01*
X251537D01*
X252870Y601817D01*
Y608482D01*
X259535Y600484D02*
Y608482D01*
X255536Y604483D01*
X260868D01*
X430835Y393999D02*
Y387334D01*
X432168Y386001D01*
X434834D01*
X436167Y387334D01*
Y393999D01*
X444165Y386001D02*
X438833D01*
X444165Y391333D01*
Y392666D01*
X442832Y393999D01*
X440166D01*
X438833Y392666D01*
X247539Y518566D02*
Y511901D01*
X248872Y510568D01*
X251537D01*
X252870Y511901D01*
Y518566D01*
X255536Y517233D02*
X256869Y518566D01*
X259535D01*
X260868Y517233D01*
Y515900D01*
X259535Y514567D01*
X258202D01*
X259535D01*
X260868Y513234D01*
Y511901D01*
X259535Y510568D01*
X256869D01*
X255536Y511901D01*
X-68332Y724999D02*
Y718334D01*
X-66999Y717001D01*
X-64333D01*
X-63000Y718334D01*
Y724999D01*
X-60334Y717001D02*
X-57668D01*
X-59001D01*
Y724999D01*
X-60334Y723666D01*
X361837Y598501D02*
Y606499D01*
X365835D01*
X367168Y605166D01*
Y602500D01*
X365835Y601167D01*
X361837D01*
X364503D02*
X367168Y598501D01*
X373833D02*
Y606499D01*
X369834Y602500D01*
X375166D01*
X383163Y598501D02*
X377832D01*
X383163Y603833D01*
Y605166D01*
X381830Y606499D01*
X379165D01*
X377832Y605166D01*
X175670Y553501D02*
Y561499D01*
X179668D01*
X181001Y560166D01*
Y557500D01*
X179668Y556167D01*
X175670D01*
X178335D02*
X181001Y553501D01*
X187666D02*
Y561499D01*
X183667Y557500D01*
X188999D01*
X191665Y553501D02*
X194330D01*
X192997D01*
Y561499D01*
X191665Y560166D01*
X573170Y446001D02*
Y453999D01*
X577168D01*
X578501Y452666D01*
Y450000D01*
X577168Y448667D01*
X573170D01*
X575835D02*
X578501Y446001D01*
X586499D02*
X581167D01*
X586499Y451333D01*
Y452666D01*
X585166Y453999D01*
X582500D01*
X581167Y452666D01*
X589165Y446001D02*
X591830D01*
X590497D01*
Y453999D01*
X589165Y452666D01*
X685003Y446001D02*
Y453999D01*
X689002D01*
X690335Y452666D01*
Y450000D01*
X689002Y448667D01*
X685003D01*
X687669D02*
X690335Y446001D01*
X693001D02*
X695667D01*
X694334D01*
Y453999D01*
X693001Y452666D01*
X704997Y453999D02*
X702331Y452666D01*
X699665Y450000D01*
Y447334D01*
X700998Y446001D01*
X703664D01*
X704997Y447334D01*
Y448667D01*
X703664Y450000D01*
X699665D01*
X470003Y446001D02*
Y453999D01*
X474002D01*
X475335Y452666D01*
Y450000D01*
X474002Y448667D01*
X470003D01*
X472669D02*
X475335Y446001D01*
X478001D02*
X480667D01*
X479334D01*
Y453999D01*
X478001Y452666D01*
X489997Y453999D02*
X484665D01*
Y450000D01*
X487331Y451333D01*
X488664D01*
X489997Y450000D01*
Y447334D01*
X488664Y446001D01*
X485998D01*
X484665Y447334D01*
X177503Y381001D02*
Y388999D01*
X181502D01*
X182835Y387666D01*
Y385000D01*
X181502Y383667D01*
X177503D01*
X180169D02*
X182835Y381001D01*
X185501D02*
X188167D01*
X186834D01*
Y388999D01*
X185501Y387666D01*
X192165Y382334D02*
X193498Y381001D01*
X196164D01*
X197497Y382334D01*
Y387666D01*
X196164Y388999D01*
X193498D01*
X192165Y387666D01*
Y386333D01*
X193498Y385000D01*
X197497D01*
X177503Y331001D02*
Y338999D01*
X181502D01*
X182835Y337666D01*
Y335000D01*
X181502Y333667D01*
X177503D01*
X180169D02*
X182835Y331001D01*
X185501D02*
X188167D01*
X186834D01*
Y338999D01*
X185501Y337666D01*
X192165D02*
X193498Y338999D01*
X196164D01*
X197497Y337666D01*
Y336333D01*
X196164Y335000D01*
X197497Y333667D01*
Y332334D01*
X196164Y331001D01*
X193498D01*
X192165Y332334D01*
Y333667D01*
X193498Y335000D01*
X192165Y336333D01*
Y337666D01*
X193498Y335000D02*
X196164D01*
X175003Y418501D02*
Y426499D01*
X179002D01*
X180335Y425166D01*
Y422500D01*
X179002Y421167D01*
X175003D01*
X177669D02*
X180335Y418501D01*
X183001D02*
X185667D01*
X184334D01*
Y426499D01*
X183001Y425166D01*
X189665Y426499D02*
X194997D01*
Y425166D01*
X189665Y419834D01*
Y418501D01*
X-1001Y539337D02*
X-8999D01*
Y543335D01*
X-7666Y544668D01*
X-5000D01*
X-3667Y543335D01*
Y539337D01*
Y542003D02*
X-1001Y544668D01*
Y552666D02*
Y547334D01*
X-6333Y552666D01*
X-7666D01*
X-8999Y551333D01*
Y548667D01*
X-7666Y547334D01*
Y555332D02*
X-8999Y556665D01*
Y559330D01*
X-7666Y560663D01*
X-2334D01*
X-1001Y559330D01*
Y556665D01*
X-2334Y555332D01*
X-7666D01*
X177503Y366001D02*
Y373999D01*
X181502D01*
X182835Y372666D01*
Y370000D01*
X181502Y368667D01*
X177503D01*
X180169D02*
X182835Y366001D01*
X185501D02*
X188167D01*
X186834D01*
Y373999D01*
X185501Y372666D01*
X192165D02*
X193498Y373999D01*
X196164D01*
X197497Y372666D01*
Y371333D01*
X196164Y370000D01*
X194831D01*
X196164D01*
X197497Y368667D01*
Y367334D01*
X196164Y366001D01*
X193498D01*
X192165Y367334D01*
X170003Y348501D02*
Y356499D01*
X174002D01*
X175335Y355166D01*
Y352500D01*
X174002Y351167D01*
X170003D01*
X172669D02*
X175335Y348501D01*
X178001D02*
X180666D01*
X179334D01*
Y356499D01*
X178001Y355166D01*
X189997Y348501D02*
X184665D01*
X189997Y353833D01*
Y355166D01*
X188664Y356499D01*
X185998D01*
X184665Y355166D01*
X176336Y401001D02*
Y408999D01*
X180335D01*
X181668Y407666D01*
Y405000D01*
X180335Y403667D01*
X176336D01*
X179002D02*
X181668Y401001D01*
X184334D02*
X186999D01*
X185667D01*
Y408999D01*
X184334Y407666D01*
X190998Y401001D02*
X193664D01*
X192331D01*
Y408999D01*
X190998Y407666D01*
X58999Y600003D02*
X51001D01*
Y604002D01*
X52334Y605335D01*
X55000D01*
X56333Y604002D01*
Y600003D01*
Y602669D02*
X58999Y605335D01*
Y608001D02*
Y610666D01*
Y609334D01*
X51001D01*
X52334Y608001D01*
X58999Y618664D02*
X51001D01*
X55000Y614665D01*
Y619997D01*
X-33501Y542503D02*
X-41499D01*
Y546502D01*
X-40166Y547835D01*
X-37500D01*
X-36167Y546502D01*
Y542503D01*
Y545169D02*
X-33501Y547835D01*
Y550501D02*
Y553167D01*
Y551834D01*
X-41499D01*
X-40166Y550501D01*
Y557165D02*
X-41499Y558498D01*
Y561164D01*
X-40166Y562497D01*
X-34834D01*
X-33501Y561164D01*
Y558498D01*
X-34834Y557165D01*
X-40166D01*
X41499Y599337D02*
X33501D01*
Y603335D01*
X34834Y604668D01*
X37500D01*
X38833Y603335D01*
Y599337D01*
Y602003D02*
X41499Y604668D01*
Y612666D02*
Y607334D01*
X36167Y612666D01*
X34834D01*
X33501Y611333D01*
Y608667D01*
X34834Y607334D01*
X41499Y620663D02*
Y615332D01*
X36167Y620663D01*
X34834D01*
X33501Y619330D01*
Y616665D01*
X34834Y615332D01*
X-21665Y421001D02*
Y428999D01*
X-17666D01*
X-16333Y427666D01*
Y425000D01*
X-17666Y423667D01*
X-21665D01*
X-18999D02*
X-16333Y421001D01*
X-8335Y428999D02*
X-11001Y427666D01*
X-13667Y425000D01*
Y422334D01*
X-12334Y421001D01*
X-9668D01*
X-8335Y422334D01*
Y423667D01*
X-9668Y425000D01*
X-13667D01*
X666890Y568543D02*
Y573875D01*
X665557Y575208D01*
X662892D01*
X661559Y573875D01*
Y568543D01*
X662892Y567210D01*
X665557D01*
X664224Y569876D02*
X666890Y567210D01*
X665557D02*
X666890Y568543D01*
X674888Y575208D02*
X672222Y573875D01*
X669556Y571209D01*
Y568543D01*
X670889Y567210D01*
X673555D01*
X674888Y568543D01*
Y569876D01*
X673555Y571209D01*
X669556D01*
X556908Y568543D02*
Y573875D01*
X555575Y575208D01*
X552910D01*
X551577Y573875D01*
Y568543D01*
X552910Y567210D01*
X555575D01*
X554243Y569876D02*
X556908Y567210D01*
X555575D02*
X556908Y568543D01*
X564906Y575208D02*
X559574D01*
Y571209D01*
X562240Y572542D01*
X563573D01*
X564906Y571209D01*
Y568543D01*
X563573Y567210D01*
X560907D01*
X559574Y568543D01*
X468667Y567334D02*
Y572666D01*
X467334Y573999D01*
X464668D01*
X463335Y572666D01*
Y567334D01*
X464668Y566001D01*
X467334D01*
X466001Y568667D02*
X468667Y566001D01*
X467334D02*
X468667Y567334D01*
X475332Y566001D02*
Y573999D01*
X471333Y570000D01*
X476665D01*
X666890Y706973D02*
Y712305D01*
X665557Y713638D01*
X662892D01*
X661559Y712305D01*
Y706973D01*
X662892Y705640D01*
X665557D01*
X664224Y708306D02*
X666890Y705640D01*
X665557D02*
X666890Y706973D01*
X669556Y712305D02*
X670889Y713638D01*
X673555D01*
X674888Y712305D01*
Y710972D01*
X673555Y709639D01*
X672222D01*
X673555D01*
X674888Y708306D01*
Y706973D01*
X673555Y705640D01*
X670889D01*
X669556Y706973D01*
X556908Y708497D02*
Y713829D01*
X555575Y715162D01*
X552910D01*
X551577Y713829D01*
Y708497D01*
X552910Y707164D01*
X555575D01*
X554243Y709830D02*
X556908Y707164D01*
X555575D02*
X556908Y708497D01*
X564906Y707164D02*
X559574D01*
X564906Y712496D01*
Y713829D01*
X563573Y715162D01*
X560907D01*
X559574Y713829D01*
X446926Y706973D02*
Y712305D01*
X445593Y713638D01*
X442928D01*
X441595Y712305D01*
Y706973D01*
X442928Y705640D01*
X445593D01*
X444260Y708306D02*
X446926Y705640D01*
X445593D02*
X446926Y706973D01*
X449592Y705640D02*
X452258D01*
X450925D01*
Y713638D01*
X449592Y712305D01*
X-67162Y533999D02*
Y526001D01*
X-61830D01*
X-53833Y533999D02*
X-59165D01*
Y526001D01*
X-53833D01*
X-59165Y530000D02*
X-56499D01*
X-51167Y533999D02*
Y526001D01*
X-47168D01*
X-45835Y527334D01*
Y532666D01*
X-47168Y533999D01*
X-51167D01*
X-37838Y526001D02*
X-43170D01*
X-37838Y531333D01*
Y532666D01*
X-39171Y533999D01*
X-41837D01*
X-43170Y532666D01*
X-65829Y461499D02*
Y453501D01*
X-60497D01*
X-52500Y461499D02*
X-57832D01*
Y453501D01*
X-52500D01*
X-57832Y457500D02*
X-55166D01*
X-49834Y461499D02*
Y453501D01*
X-45835D01*
X-44503Y454834D01*
Y460166D01*
X-45835Y461499D01*
X-49834D01*
X-41837Y453501D02*
X-39171D01*
X-40504D01*
Y461499D01*
X-41837Y460166D01*
X-98833Y328999D02*
X-101499D01*
X-100166D01*
Y322334D01*
X-101499Y321001D01*
X-102832D01*
X-104164Y322334D01*
X-90836Y328999D02*
X-96167D01*
Y325000D01*
X-93501Y326333D01*
X-92168D01*
X-90836Y325000D01*
Y322334D01*
X-92168Y321001D01*
X-94834D01*
X-96167Y322334D01*
X138667Y611499D02*
X136001D01*
X137334D01*
Y604834D01*
X136001Y603501D01*
X134668D01*
X133336Y604834D01*
X141333Y610166D02*
X142666Y611499D01*
X145332D01*
X146664Y610166D01*
Y608833D01*
X145332Y607500D01*
X143999D01*
X145332D01*
X146664Y606167D01*
Y604834D01*
X145332Y603501D01*
X142666D01*
X141333Y604834D01*
X103667Y353999D02*
X101001D01*
X102334D01*
Y347334D01*
X101001Y346001D01*
X99668D01*
X98336Y347334D01*
X111664Y346001D02*
X106333D01*
X111664Y351333D01*
Y352666D01*
X110332Y353999D01*
X107666D01*
X106333Y352666D01*
X-155054Y630580D02*
X-157719D01*
X-156387D01*
Y623915D01*
X-157719Y622582D01*
X-159052D01*
X-160385Y623915D01*
X-148389Y622582D02*
Y630580D01*
X-152388Y626581D01*
X-147056D01*
X-120000Y423999D02*
X-122666D01*
X-121333D01*
Y417334D01*
X-122666Y416001D01*
X-123999D01*
X-125332Y417334D01*
X-117334Y416001D02*
X-114668D01*
X-116001D01*
Y423999D01*
X-117334Y422666D01*
X-163999Y666668D02*
X-156001D01*
Y670667D01*
X-157334Y672000D01*
X-162666D01*
X-163999Y670667D01*
Y666668D01*
X-156001Y674666D02*
Y677332D01*
Y675999D01*
X-163999D01*
X-162666Y674666D01*
X238501Y388335D02*
X246499D01*
Y392334D01*
X245166Y393667D01*
X239834D01*
X238501Y392334D01*
Y388335D01*
X246499Y400332D02*
X238501D01*
X242500Y396333D01*
Y401665D01*
X238501Y358335D02*
X246499D01*
Y362334D01*
X245166Y363667D01*
X239834D01*
X238501Y362334D01*
Y358335D01*
X239834Y366333D02*
X238501Y367666D01*
Y370332D01*
X239834Y371665D01*
X241167D01*
X242500Y370332D01*
Y368999D01*
Y370332D01*
X243833Y371665D01*
X245166D01*
X246499Y370332D01*
Y367666D01*
X245166Y366333D01*
X238501Y418335D02*
X246499D01*
Y422334D01*
X245166Y423667D01*
X239834D01*
X238501Y422334D01*
Y418335D01*
X246499Y431665D02*
Y426333D01*
X241167Y431665D01*
X239834D01*
X238501Y430332D01*
Y427666D01*
X239834Y426333D01*
X-23999Y533004D02*
X-25332Y531671D01*
Y529005D01*
X-23999Y527672D01*
X-18667D01*
X-17334Y529005D01*
Y531671D01*
X-18667Y533004D01*
X-22666Y537003D02*
Y539668D01*
X-21333Y541001D01*
X-17334D01*
Y537003D01*
X-18667Y535670D01*
X-20000Y537003D01*
Y541001D01*
X-25332Y548999D02*
X-17334D01*
Y545000D01*
X-18667Y543667D01*
X-21333D01*
X-22666Y545000D01*
Y548999D01*
X-14668Y551665D02*
Y552997D01*
X-16001Y554330D01*
X-22666D01*
X-17334Y559662D02*
Y562328D01*
Y560995D01*
X-25332D01*
X-23999Y559662D01*
X-16333Y445166D02*
X-17666Y446499D01*
X-20332D01*
X-21665Y445166D01*
Y439834D01*
X-20332Y438501D01*
X-17666D01*
X-16333Y439834D01*
X-13667D02*
X-12334Y438501D01*
X-9668D01*
X-8335Y439834D01*
Y445166D01*
X-9668Y446499D01*
X-12334D01*
X-13667Y445166D01*
Y443833D01*
X-12334Y442500D01*
X-8335D01*
X-62666Y551167D02*
X-63999Y549834D01*
Y547168D01*
X-62666Y545835D01*
X-57334D01*
X-56001Y547168D01*
Y549834D01*
X-57334Y551167D01*
X-62666Y553833D02*
X-63999Y555166D01*
Y557832D01*
X-62666Y559165D01*
X-61333D01*
X-60000Y557832D01*
Y556499D01*
Y557832D01*
X-58667Y559165D01*
X-57334D01*
X-56001Y557832D01*
Y555166D01*
X-57334Y553833D01*
X111000Y705666D02*
X109667Y706999D01*
X107001D01*
X105668Y705666D01*
Y700334D01*
X107001Y699001D01*
X109667D01*
X111000Y700334D01*
X113666Y699001D02*
X116332D01*
X114999D01*
Y706999D01*
X113666Y705666D01*
D17*
X82474Y546294D02*
Y557978D01*
X107620Y546294D02*
Y551120D01*
X132512Y546294D02*
Y557978D01*
X167564Y502352D02*
X172898D01*
X167564Y477460D02*
X179756D01*
X167564Y452568D02*
X172898D01*
X127432Y401768D02*
Y413706D01*
X102540Y409642D02*
Y413706D01*
X77394Y401514D02*
Y413706D01*
X27864Y447488D02*
X32690D01*
X19482Y472634D02*
X32690D01*
X27864Y497526D02*
X32690D01*
X-6500Y731500D02*
X76500D01*
X-6500Y691250D02*
Y731500D01*
X76500D02*
X96500Y711500D01*
X-6500Y628500D02*
X76500D01*
X96500Y648500D01*
X-6500Y628500D02*
Y668750D01*
X96500Y648500D02*
Y668750D01*
Y691250D02*
Y711500D01*
D18*
X-39810Y502190D02*
X-36000Y506000D01*
X-39810Y502190D02*
Y509810D01*
X-36000Y506000D01*
Y502190D02*
Y509810D01*
X-39810Y475190D02*
X-36000Y479000D01*
X-39810Y475190D02*
Y482810D01*
X-36000Y479000D01*
Y475190D02*
Y482810D01*
X136350Y656900D02*
X230800D01*
X129200Y649750D02*
X230800D01*
Y666210D02*
Y724972D01*
X180000Y650550D02*
Y656900D01*
X129200Y724972D02*
X230800D01*
X559600Y358100D02*
Y364450D01*
X508800Y358100D02*
X654050D01*
X508800Y290028D02*
Y348790D01*
Y290028D02*
X661200Y290028D01*
X610400Y358100D02*
Y364450D01*
X508800Y365250D02*
X661200Y365250D01*
D19*
X125658Y624158D02*
X128620D01*
X127139D01*
Y633045D01*
X125658Y631564D01*
X241607Y625428D02*
Y634315D01*
X237164Y629872D01*
X243089D01*
X226000Y276000D02*
X228962D01*
X227481D01*
Y284887D01*
X226000Y283406D01*
X-125500Y275500D02*
X-122538D01*
X-124019D01*
Y284387D01*
X-125500Y282906D01*
X-112169Y275500D02*
X-118094D01*
X-112169Y281425D01*
Y282906D01*
X-113651Y284387D01*
X-116613D01*
X-118094Y282906D01*
X-138387Y271675D02*
X-136906Y268712D01*
X-133944Y265750D01*
X-130981D01*
X-129500Y267231D01*
Y270194D01*
X-130981Y271675D01*
X-132462D01*
X-133944Y270194D01*
Y265750D01*
X-129500Y420000D02*
Y422962D01*
Y421481D01*
X-138387D01*
X-136906Y420000D01*
X146942Y378842D02*
X143980D01*
X145461D01*
Y369955D01*
X146942Y371436D01*
X61598Y369658D02*
X60117Y368177D01*
X57154D01*
X55673Y369658D01*
Y371139D01*
X57154Y372620D01*
X58636D01*
X57154D01*
X55673Y374102D01*
Y375583D01*
X57154Y377064D01*
X60117D01*
X61598Y375583D01*
X-151613Y600825D02*
X-153094Y603788D01*
X-156056Y606750D01*
X-159019D01*
X-160500Y605269D01*
Y602306D01*
X-159019Y600825D01*
X-157538D01*
X-156056Y602306D01*
Y606750D01*
X-160500Y452500D02*
Y449538D01*
Y451019D01*
X-151613D01*
X-153094Y452500D01*
M02*
