G04*
G04 #@! TF.GenerationSoftware,Altium Limited,Altium Designer,22.4.2 (48)*
G04*
G04 Layer_Color=8421504*
%FSLAX44Y44*%
%MOMM*%
G71*
G04*
G04 #@! TF.SameCoordinates,66DA3E34-DB1B-427B-9A16-6C510F1B548E*
G04*
G04*
G04 #@! TF.FilePolarity,Positive*
G04*
G01*
G75*
%ADD20R,0.9000X0.9000*%
%ADD21O,1.8000X0.6500*%
%ADD22R,1.8000X0.6500*%
%ADD23R,0.7000X0.8500*%
%ADD24R,0.9000X0.9000*%
%ADD25R,1.0000X1.2000*%
%ADD26R,0.9000X1.6000*%
%ADD27R,0.2800X1.5000*%
%ADD28R,1.5000X0.2800*%
%ADD29R,1.5000X1.6000*%
%ADD30R,2.5000X3.4000*%
%ADD31R,0.9500X1.9000*%
%ADD32R,6.8000X6.9000*%
%ADD33R,4.1000X1.8000*%
%ADD34R,1.2000X2.2000*%
%ADD35R,3.6000X2.2000*%
%ADD36R,2.3000X2.5000*%
D20*
X401000Y526500D02*
D03*
Y511500D02*
D03*
Y664500D02*
D03*
Y649500D02*
D03*
Y628500D02*
D03*
Y613500D02*
D03*
X400000Y287500D02*
D03*
Y272500D02*
D03*
X380000D02*
D03*
Y287500D02*
D03*
X360000D02*
D03*
Y272500D02*
D03*
X90000Y587500D02*
D03*
Y572500D02*
D03*
X55000D02*
D03*
Y587500D02*
D03*
X37000Y572500D02*
D03*
Y587500D02*
D03*
X-4000Y572500D02*
D03*
Y587500D02*
D03*
X-21000Y572500D02*
D03*
Y587500D02*
D03*
X-38000Y572500D02*
D03*
Y587500D02*
D03*
X-59000D02*
D03*
Y572500D02*
D03*
X385000Y407500D02*
D03*
Y422500D02*
D03*
X403000Y407500D02*
D03*
Y422500D02*
D03*
X421000D02*
D03*
Y407500D02*
D03*
X367000D02*
D03*
Y422500D02*
D03*
X348000D02*
D03*
Y407500D02*
D03*
X340000Y487500D02*
D03*
Y472500D02*
D03*
X401000Y475500D02*
D03*
Y490500D02*
D03*
X402000Y559500D02*
D03*
Y544500D02*
D03*
Y592500D02*
D03*
Y577500D02*
D03*
X340000Y577500D02*
D03*
Y562500D02*
D03*
Y662500D02*
D03*
Y647500D02*
D03*
D21*
X413000Y311900D02*
D03*
Y324600D02*
D03*
Y337300D02*
D03*
Y350000D02*
D03*
Y362700D02*
D03*
Y375400D02*
D03*
Y388100D02*
D03*
X357000Y311900D02*
D03*
Y324600D02*
D03*
Y337300D02*
D03*
Y350000D02*
D03*
Y362700D02*
D03*
Y375400D02*
D03*
X318000Y630950D02*
D03*
Y643650D02*
D03*
Y656350D02*
D03*
Y669050D02*
D03*
X262000Y630950D02*
D03*
Y643650D02*
D03*
Y656350D02*
D03*
Y481350D02*
D03*
Y468650D02*
D03*
Y455950D02*
D03*
X318000Y494050D02*
D03*
Y481350D02*
D03*
Y468650D02*
D03*
Y455950D02*
D03*
X262000Y571350D02*
D03*
Y558650D02*
D03*
Y545950D02*
D03*
X318000Y584050D02*
D03*
Y571350D02*
D03*
Y558650D02*
D03*
Y545950D02*
D03*
D22*
X357000Y388100D02*
D03*
X262000Y669050D02*
D03*
Y494050D02*
D03*
Y584050D02*
D03*
D23*
X360500Y555000D02*
D03*
X383500D02*
D03*
X360500Y509000D02*
D03*
X383500D02*
D03*
X360500Y474000D02*
D03*
X383500D02*
D03*
X301500Y605000D02*
D03*
X278500D02*
D03*
X301500Y515000D02*
D03*
X278500D02*
D03*
X360500Y572000D02*
D03*
X383500D02*
D03*
X361500Y630000D02*
D03*
X384500D02*
D03*
X361500Y649000D02*
D03*
X384500D02*
D03*
X301500Y690000D02*
D03*
X278500D02*
D03*
D24*
X365500Y492000D02*
D03*
X380500D02*
D03*
X312500Y405000D02*
D03*
X327500D02*
D03*
X312500Y385000D02*
D03*
X327500D02*
D03*
Y365000D02*
D03*
X312500D02*
D03*
Y345000D02*
D03*
X327500D02*
D03*
X312500Y325000D02*
D03*
X327500D02*
D03*
X327500Y309000D02*
D03*
X312500D02*
D03*
X327500Y294000D02*
D03*
X312500D02*
D03*
Y279000D02*
D03*
X327500D02*
D03*
X210500Y336000D02*
D03*
X225500D02*
D03*
X210500Y353000D02*
D03*
X225500D02*
D03*
X210500Y370000D02*
D03*
X225500D02*
D03*
X210500Y386000D02*
D03*
X225500D02*
D03*
X210500Y405000D02*
D03*
X225500D02*
D03*
X210500Y424000D02*
D03*
X225500D02*
D03*
Y442000D02*
D03*
X210500D02*
D03*
X225500Y462000D02*
D03*
X210500D02*
D03*
X225500Y482000D02*
D03*
X210500D02*
D03*
Y500000D02*
D03*
X225500D02*
D03*
X210500Y518000D02*
D03*
X225500D02*
D03*
X210500Y538000D02*
D03*
X225500D02*
D03*
X210500Y558000D02*
D03*
X225500D02*
D03*
X210500Y578000D02*
D03*
X225500D02*
D03*
X210500Y598000D02*
D03*
X225500D02*
D03*
X3500Y396000D02*
D03*
X18500D02*
D03*
Y379000D02*
D03*
X3500D02*
D03*
X18500Y362000D02*
D03*
X3500D02*
D03*
X18500Y425000D02*
D03*
X3500D02*
D03*
Y442000D02*
D03*
X18500D02*
D03*
X365500Y457000D02*
D03*
X380500D02*
D03*
X365500Y540000D02*
D03*
X380500D02*
D03*
X364500Y588000D02*
D03*
X379500D02*
D03*
X365500Y615000D02*
D03*
X380500D02*
D03*
Y665000D02*
D03*
X365500D02*
D03*
D25*
X420000Y269500D02*
D03*
Y290500D02*
D03*
D26*
X286000Y425000D02*
D03*
X254000D02*
D03*
X285000Y395000D02*
D03*
X253000D02*
D03*
X285000Y366000D02*
D03*
X253000D02*
D03*
D27*
X62500Y537000D02*
D03*
X67500D02*
D03*
X72500D02*
D03*
X77500D02*
D03*
X82500D02*
D03*
X87500D02*
D03*
X92500D02*
D03*
X97500D02*
D03*
X102500D02*
D03*
X107500D02*
D03*
X112500D02*
D03*
X117500D02*
D03*
X122500D02*
D03*
X127500D02*
D03*
X132500D02*
D03*
X137500D02*
D03*
Y423000D02*
D03*
X132500D02*
D03*
X127500D02*
D03*
X122500D02*
D03*
X117500D02*
D03*
X112500D02*
D03*
X107500D02*
D03*
X102500D02*
D03*
X97500D02*
D03*
X92500D02*
D03*
X87500D02*
D03*
X82500D02*
D03*
X77500D02*
D03*
X72500D02*
D03*
X67500D02*
D03*
X62500D02*
D03*
D28*
X157000Y517500D02*
D03*
Y512500D02*
D03*
Y507500D02*
D03*
Y502500D02*
D03*
Y497500D02*
D03*
Y492500D02*
D03*
Y487500D02*
D03*
Y482500D02*
D03*
Y477500D02*
D03*
Y472500D02*
D03*
Y467500D02*
D03*
Y462500D02*
D03*
Y457500D02*
D03*
Y452500D02*
D03*
Y447500D02*
D03*
Y442500D02*
D03*
X43000D02*
D03*
Y447500D02*
D03*
Y452500D02*
D03*
Y457500D02*
D03*
Y462500D02*
D03*
Y467500D02*
D03*
Y472500D02*
D03*
Y477500D02*
D03*
Y482500D02*
D03*
Y487500D02*
D03*
Y492500D02*
D03*
Y497500D02*
D03*
Y502500D02*
D03*
Y507500D02*
D03*
Y512500D02*
D03*
Y517500D02*
D03*
D29*
X-20500Y506000D02*
D03*
X-55500D02*
D03*
X-20500Y479000D02*
D03*
X-55500D02*
D03*
D30*
X720500Y422000D02*
D03*
X669500D02*
D03*
X610500D02*
D03*
X559500D02*
D03*
X504500Y421000D02*
D03*
X453500D02*
D03*
D31*
X452000Y463000D02*
D03*
X498000D02*
D03*
X452000Y601500D02*
D03*
X498000D02*
D03*
X608000Y463000D02*
D03*
X562000D02*
D03*
X608000Y603000D02*
D03*
X562000D02*
D03*
X718000Y463000D02*
D03*
X672000D02*
D03*
X718000Y601500D02*
D03*
X672000D02*
D03*
D32*
X475000Y525000D02*
D03*
Y663500D02*
D03*
X585000Y525000D02*
D03*
Y665000D02*
D03*
X695000Y525000D02*
D03*
Y663500D02*
D03*
D33*
X1500Y680000D02*
D03*
X88500D02*
D03*
D34*
X-37000Y696000D02*
D03*
X-60000D02*
D03*
X-83000D02*
D03*
D35*
X-60000Y634000D02*
D03*
D36*
X-124995Y648499D02*
D03*
Y691499D02*
D03*
M02*
