G04*
G04 #@! TF.GenerationSoftware,Altium Limited,Altium Designer,22.4.2 (48)*
G04*
G04 Layer_Color=16711935*
%FSLAX44Y44*%
%MOMM*%
G71*
G04*
G04 #@! TF.SameCoordinates,66DA3E34-DB1B-427B-9A16-6C510F1B548E*
G04*
G04*
G04 #@! TF.FilePolarity,Negative*
G04*
G01*
G75*
%ADD11C,0.3000*%
%ADD54C,2.2032*%
%ADD55R,2.2032X2.2032*%
%ADD56C,1.9032*%
%ADD57R,1.9032X1.9032*%
%ADD58C,2.0032*%
%ADD59R,2.0032X2.0032*%
%ADD60O,2.2032X3.2032*%
%ADD61C,0.7032*%
D11*
X475000Y677500D02*
X492500Y660000D01*
X282500Y677500D02*
X475000D01*
X480000Y695000D02*
X495000Y680000D01*
X280000Y695000D02*
X480000D01*
X485000Y712500D02*
X497500Y700000D01*
X280000Y712500D02*
X485000D01*
X687500Y320000D02*
X720000Y352500D01*
Y517500D01*
X667500Y335000D02*
X692500Y360000D01*
Y517500D01*
X605000Y347500D02*
X622500Y365000D01*
Y517500D01*
X582500Y347500D02*
X600000Y365000D01*
Y517500D01*
X497500Y342500D02*
Y517500D01*
X477500Y340000D02*
Y517500D01*
D54*
X195000Y630000D02*
D03*
X220400D02*
D03*
X169600D02*
D03*
X77600Y373000D02*
D03*
X103000D02*
D03*
D55*
X144200Y630000D02*
D03*
X128400Y373000D02*
D03*
D56*
X-80000Y280000D02*
D03*
X-55000D02*
D03*
X20000D02*
D03*
X45000D02*
D03*
X70000D02*
D03*
X95000D02*
D03*
X170000D02*
D03*
X145000D02*
D03*
X120000D02*
D03*
X-5000D02*
D03*
X-30000D02*
D03*
D57*
X195000D02*
D03*
D58*
X-145000Y307500D02*
D03*
Y332500D02*
D03*
Y357500D02*
D03*
Y382500D02*
D03*
Y282500D02*
D03*
Y565000D02*
D03*
Y540000D02*
D03*
Y515000D02*
D03*
Y490000D02*
D03*
Y590000D02*
D03*
D59*
Y407500D02*
D03*
Y465000D02*
D03*
D60*
X154600Y695000D02*
D03*
X205400D02*
D03*
X534200Y320000D02*
D03*
X585000D02*
D03*
X635800D02*
D03*
D61*
X145000Y397500D02*
D03*
X87179Y550070D02*
D03*
X425000Y290000D02*
D03*
X387500Y272500D02*
D03*
X518893Y656621D02*
D03*
Y663621D02*
D03*
Y670621D02*
D03*
Y677621D02*
D03*
X524893Y656621D02*
D03*
Y663621D02*
D03*
Y670621D02*
D03*
Y677621D02*
D03*
X545893Y656621D02*
D03*
X538893D02*
D03*
X531893D02*
D03*
X545893Y663621D02*
D03*
X538893D02*
D03*
X531893D02*
D03*
X545893Y670621D02*
D03*
X538893D02*
D03*
X531893D02*
D03*
X545893Y677621D02*
D03*
X538893D02*
D03*
X531893D02*
D03*
X531500Y713500D02*
D03*
X538500D02*
D03*
X545500D02*
D03*
X531500Y706500D02*
D03*
X538500D02*
D03*
X545500D02*
D03*
X531500Y699500D02*
D03*
X538500D02*
D03*
X545500D02*
D03*
X531500Y692500D02*
D03*
X538500D02*
D03*
X545500D02*
D03*
X524500Y713500D02*
D03*
Y706500D02*
D03*
Y699500D02*
D03*
Y692500D02*
D03*
X518500Y713500D02*
D03*
Y706500D02*
D03*
Y699500D02*
D03*
Y692500D02*
D03*
X704000Y591000D02*
D03*
Y598000D02*
D03*
Y605000D02*
D03*
Y612000D02*
D03*
X710000Y591000D02*
D03*
Y598000D02*
D03*
Y605000D02*
D03*
Y612000D02*
D03*
X731000Y591000D02*
D03*
X724000D02*
D03*
X717000D02*
D03*
X731000Y598000D02*
D03*
X724000D02*
D03*
X717000D02*
D03*
X731000Y605000D02*
D03*
X724000D02*
D03*
X717000D02*
D03*
X731000Y612000D02*
D03*
X724000D02*
D03*
X717000D02*
D03*
X696000Y537000D02*
D03*
Y544000D02*
D03*
Y551000D02*
D03*
Y558000D02*
D03*
X702000Y537000D02*
D03*
Y544000D02*
D03*
Y551000D02*
D03*
Y558000D02*
D03*
X723000Y537000D02*
D03*
X716000D02*
D03*
X709000D02*
D03*
X723000Y544000D02*
D03*
X716000D02*
D03*
X709000D02*
D03*
X723000Y551000D02*
D03*
X716000D02*
D03*
X709000D02*
D03*
X723000Y558000D02*
D03*
X716000D02*
D03*
X709000D02*
D03*
X596000Y590000D02*
D03*
Y597000D02*
D03*
Y604000D02*
D03*
Y611000D02*
D03*
X602000Y590000D02*
D03*
Y597000D02*
D03*
Y604000D02*
D03*
Y611000D02*
D03*
X623000Y590000D02*
D03*
X616000D02*
D03*
X609000D02*
D03*
X623000Y597000D02*
D03*
X616000D02*
D03*
X609000D02*
D03*
X623000Y604000D02*
D03*
X616000D02*
D03*
X609000D02*
D03*
X623000Y611000D02*
D03*
X616000D02*
D03*
X609000D02*
D03*
X588000Y536000D02*
D03*
Y543000D02*
D03*
Y550000D02*
D03*
Y557000D02*
D03*
X594000Y536000D02*
D03*
Y543000D02*
D03*
Y550000D02*
D03*
Y557000D02*
D03*
X615000Y536000D02*
D03*
X608000D02*
D03*
X601000D02*
D03*
X615000Y543000D02*
D03*
X608000D02*
D03*
X601000D02*
D03*
X615000Y550000D02*
D03*
X608000D02*
D03*
X601000D02*
D03*
X615000Y557000D02*
D03*
X608000D02*
D03*
X601000D02*
D03*
X64000Y455000D02*
D03*
X58000Y448000D02*
D03*
X107000Y409000D02*
D03*
X97000Y408000D02*
D03*
X193000Y436980D02*
D03*
X168000Y434000D02*
D03*
X213000Y420000D02*
D03*
X222000Y390000D02*
D03*
Y357000D02*
D03*
X52251Y442481D02*
D03*
X209000Y382000D02*
D03*
X214000Y333000D02*
D03*
X194020Y349000D02*
D03*
X207000Y353000D02*
D03*
X291000Y425000D02*
D03*
X-21000Y421000D02*
D03*
X59000Y462000D02*
D03*
X72000Y478000D02*
D03*
X71000Y468000D02*
D03*
X62000Y475000D02*
D03*
X59000Y348000D02*
D03*
X51000Y354000D02*
D03*
X36450Y353450D02*
D03*
X0Y428000D02*
D03*
X58000Y493020D02*
D03*
X43791Y346890D02*
D03*
X29000Y492000D02*
D03*
X73000Y519000D02*
D03*
X79000Y510000D02*
D03*
X30412Y345588D02*
D03*
X23000Y516000D02*
D03*
X340000Y422000D02*
D03*
X138000Y412000D02*
D03*
X306090Y309000D02*
D03*
X294000D02*
D03*
X327000Y342000D02*
D03*
X367000Y427000D02*
D03*
X491000Y556000D02*
D03*
X498000D02*
D03*
X505000D02*
D03*
X491000Y549000D02*
D03*
X498000D02*
D03*
X505000D02*
D03*
X491000Y542000D02*
D03*
X498000D02*
D03*
X505000D02*
D03*
X491000Y535000D02*
D03*
X498000D02*
D03*
X505000D02*
D03*
X484000Y556000D02*
D03*
Y549000D02*
D03*
Y542000D02*
D03*
Y535000D02*
D03*
X478000Y556000D02*
D03*
Y549000D02*
D03*
Y542000D02*
D03*
Y535000D02*
D03*
X499000Y610000D02*
D03*
X506000D02*
D03*
X513000D02*
D03*
X499000Y603000D02*
D03*
X506000D02*
D03*
X513000D02*
D03*
X499000Y596000D02*
D03*
X506000D02*
D03*
X513000D02*
D03*
X499000Y589000D02*
D03*
X506000D02*
D03*
X513000D02*
D03*
X492000Y610000D02*
D03*
Y603000D02*
D03*
Y596000D02*
D03*
Y589000D02*
D03*
X486000Y610000D02*
D03*
Y603000D02*
D03*
Y596000D02*
D03*
Y589000D02*
D03*
X426000Y356000D02*
D03*
X569000Y407000D02*
D03*
Y413000D02*
D03*
Y420000D02*
D03*
Y427000D02*
D03*
Y434000D02*
D03*
X534000Y407000D02*
D03*
Y413000D02*
D03*
Y420000D02*
D03*
Y427000D02*
D03*
Y434000D02*
D03*
X540000Y407000D02*
D03*
Y413000D02*
D03*
Y420000D02*
D03*
Y427000D02*
D03*
Y434000D02*
D03*
X561000Y407000D02*
D03*
X554000D02*
D03*
X547000D02*
D03*
X561000Y413000D02*
D03*
X554000D02*
D03*
X547000D02*
D03*
X561000Y420000D02*
D03*
X554000D02*
D03*
X547000D02*
D03*
X561000Y427000D02*
D03*
X554000D02*
D03*
X547000D02*
D03*
X561000Y434000D02*
D03*
X554000D02*
D03*
X547000D02*
D03*
X432000Y557500D02*
D03*
X450000Y593000D02*
D03*
X256000Y454000D02*
D03*
Y545000D02*
D03*
Y629000D02*
D03*
X177000Y507000D02*
D03*
Y481000D02*
D03*
X-13000Y510000D02*
D03*
X93000Y559000D02*
D03*
X46000Y544000D02*
D03*
Y554000D02*
D03*
X11000Y679000D02*
D03*
X-4000Y566090D02*
D03*
X4000Y357000D02*
D03*
X-58000Y592000D02*
D03*
X370000Y350000D02*
D03*
M02*
