G04 Layer_Color=9218505*
%FSAX25Y25*%
%MOIN*%
G70*
G01*
G75*
%ADD49C,0.01000*%
%ADD63C,0.00800*%
%ADD82C,0.00700*%
%ADD84C,0.00600*%
G36*
X0370595Y0167141D02*
X0370690Y0167125D01*
X0370782Y0167104D01*
X0370869Y0167071D01*
X0370948Y0167037D01*
X0371023Y0166996D01*
X0371094Y0166954D01*
X0371156Y0166908D01*
X0371215Y0166863D01*
X0371260Y0166821D01*
X0371306Y0166779D01*
X0371339Y0166746D01*
X0371369Y0166717D01*
X0371389Y0166692D01*
X0371402Y0166675D01*
X0371406Y0166671D01*
Y0167083D01*
X0372088D01*
Y0164300D01*
X0371352D01*
Y0165560D01*
Y0165644D01*
X0371348Y0165723D01*
Y0165793D01*
X0371343Y0165856D01*
X0371339Y0165914D01*
X0371335Y0165968D01*
X0371331Y0166014D01*
X0371323Y0166056D01*
X0371319Y0166089D01*
X0371314Y0166118D01*
X0371310Y0166143D01*
X0371306Y0166164D01*
X0371302Y0166180D01*
Y0166189D01*
X0371298Y0166197D01*
X0371273Y0166259D01*
X0371244Y0166313D01*
X0371210Y0166363D01*
X0371177Y0166401D01*
X0371144Y0166434D01*
X0371119Y0166455D01*
X0371102Y0166472D01*
X0371094Y0166476D01*
X0371036Y0166513D01*
X0370973Y0166538D01*
X0370915Y0166559D01*
X0370865Y0166571D01*
X0370815Y0166580D01*
X0370782Y0166584D01*
X0370749D01*
X0370695Y0166580D01*
X0370649Y0166571D01*
X0370607Y0166559D01*
X0370570Y0166546D01*
X0370541Y0166534D01*
X0370516Y0166521D01*
X0370503Y0166513D01*
X0370499Y0166509D01*
X0370462Y0166480D01*
X0370428Y0166447D01*
X0370403Y0166409D01*
X0370383Y0166376D01*
X0370366Y0166347D01*
X0370353Y0166322D01*
X0370345Y0166305D01*
Y0166301D01*
X0370337Y0166272D01*
X0370328Y0166239D01*
X0370320Y0166201D01*
X0370316Y0166155D01*
X0370308Y0166060D01*
X0370299Y0165960D01*
Y0165868D01*
X0370295Y0165827D01*
Y0165793D01*
Y0165760D01*
Y0165739D01*
Y0165723D01*
Y0165719D01*
Y0164300D01*
X0369559D01*
Y0166026D01*
Y0166143D01*
X0369567Y0166243D01*
X0369571Y0166326D01*
X0369580Y0166397D01*
X0369588Y0166451D01*
X0369592Y0166488D01*
X0369601Y0166513D01*
Y0166521D01*
X0369617Y0166584D01*
X0369642Y0166642D01*
X0369663Y0166696D01*
X0369688Y0166742D01*
X0369713Y0166779D01*
X0369729Y0166804D01*
X0369742Y0166825D01*
X0369746Y0166829D01*
X0369788Y0166879D01*
X0369838Y0166921D01*
X0369887Y0166962D01*
X0369937Y0166991D01*
X0369979Y0167021D01*
X0370017Y0167037D01*
X0370041Y0167050D01*
X0370046Y0167054D01*
X0370050D01*
X0370125Y0167083D01*
X0370204Y0167108D01*
X0370279Y0167125D01*
X0370345Y0167133D01*
X0370408Y0167141D01*
X0370453Y0167145D01*
X0370495D01*
X0370595Y0167141D01*
D02*
G37*
G36*
X0379826Y0164300D02*
X0379089D01*
Y0168140D01*
X0379826D01*
Y0164300D01*
D02*
G37*
G36*
X0381615Y0167141D02*
X0381710Y0167125D01*
X0381802Y0167104D01*
X0381889Y0167071D01*
X0381968Y0167037D01*
X0382043Y0166996D01*
X0382114Y0166954D01*
X0382176Y0166908D01*
X0382234Y0166863D01*
X0382280Y0166821D01*
X0382326Y0166779D01*
X0382359Y0166746D01*
X0382388Y0166717D01*
X0382409Y0166692D01*
X0382422Y0166675D01*
X0382426Y0166671D01*
Y0167083D01*
X0383108D01*
Y0164300D01*
X0382372D01*
Y0165560D01*
Y0165644D01*
X0382367Y0165723D01*
Y0165793D01*
X0382363Y0165856D01*
X0382359Y0165914D01*
X0382355Y0165968D01*
X0382351Y0166014D01*
X0382343Y0166056D01*
X0382338Y0166089D01*
X0382334Y0166118D01*
X0382330Y0166143D01*
X0382326Y0166164D01*
X0382322Y0166180D01*
Y0166189D01*
X0382318Y0166197D01*
X0382293Y0166259D01*
X0382263Y0166313D01*
X0382230Y0166363D01*
X0382197Y0166401D01*
X0382164Y0166434D01*
X0382139Y0166455D01*
X0382122Y0166472D01*
X0382114Y0166476D01*
X0382055Y0166513D01*
X0381993Y0166538D01*
X0381935Y0166559D01*
X0381885Y0166571D01*
X0381835Y0166580D01*
X0381802Y0166584D01*
X0381768D01*
X0381714Y0166580D01*
X0381669Y0166571D01*
X0381627Y0166559D01*
X0381590Y0166546D01*
X0381560Y0166534D01*
X0381536Y0166521D01*
X0381523Y0166513D01*
X0381519Y0166509D01*
X0381481Y0166480D01*
X0381448Y0166447D01*
X0381423Y0166409D01*
X0381402Y0166376D01*
X0381386Y0166347D01*
X0381373Y0166322D01*
X0381365Y0166305D01*
Y0166301D01*
X0381357Y0166272D01*
X0381348Y0166239D01*
X0381340Y0166201D01*
X0381336Y0166155D01*
X0381328Y0166060D01*
X0381319Y0165960D01*
Y0165868D01*
X0381315Y0165827D01*
Y0165793D01*
Y0165760D01*
Y0165739D01*
Y0165723D01*
Y0165719D01*
Y0164300D01*
X0380579D01*
Y0166026D01*
Y0166143D01*
X0380587Y0166243D01*
X0380591Y0166326D01*
X0380599Y0166397D01*
X0380608Y0166451D01*
X0380612Y0166488D01*
X0380620Y0166513D01*
Y0166521D01*
X0380637Y0166584D01*
X0380662Y0166642D01*
X0380683Y0166696D01*
X0380708Y0166742D01*
X0380733Y0166779D01*
X0380749Y0166804D01*
X0380762Y0166825D01*
X0380766Y0166829D01*
X0380807Y0166879D01*
X0380857Y0166921D01*
X0380907Y0166962D01*
X0380957Y0166991D01*
X0380999Y0167021D01*
X0381036Y0167037D01*
X0381061Y0167050D01*
X0381065Y0167054D01*
X0381070D01*
X0381144Y0167083D01*
X0381224Y0167108D01*
X0381298Y0167125D01*
X0381365Y0167133D01*
X0381427Y0167141D01*
X0381473Y0167145D01*
X0381515D01*
X0381615Y0167141D01*
D02*
G37*
G36*
X0362254Y0164300D02*
X0361480D01*
Y0165931D01*
X0359874D01*
Y0166580D01*
X0361480D01*
Y0167491D01*
X0359621D01*
Y0168140D01*
X0362254D01*
Y0164300D01*
D02*
G37*
G36*
X0317854Y0167141D02*
X0317913Y0167133D01*
X0317967Y0167116D01*
X0318017Y0167100D01*
X0318054Y0167083D01*
X0318083Y0167066D01*
X0318100Y0167058D01*
X0318108Y0167054D01*
X0318133Y0167037D01*
X0318162Y0167012D01*
X0318216Y0166958D01*
X0318266Y0166900D01*
X0318316Y0166838D01*
X0318358Y0166779D01*
X0318391Y0166729D01*
X0318403Y0166709D01*
X0318412Y0166696D01*
X0318416Y0166688D01*
X0318420Y0166684D01*
Y0167083D01*
X0319102D01*
Y0164300D01*
X0318366D01*
Y0165157D01*
Y0165286D01*
X0318362Y0165402D01*
Y0165506D01*
X0318358Y0165602D01*
X0318353Y0165689D01*
X0318349Y0165764D01*
X0318341Y0165831D01*
X0318337Y0165889D01*
X0318333Y0165939D01*
X0318324Y0165981D01*
X0318320Y0166018D01*
X0318316Y0166043D01*
X0318312Y0166064D01*
Y0166076D01*
X0318308Y0166085D01*
Y0166089D01*
X0318283Y0166168D01*
X0318254Y0166230D01*
X0318225Y0166284D01*
X0318199Y0166326D01*
X0318175Y0166359D01*
X0318154Y0166380D01*
X0318141Y0166393D01*
X0318137Y0166397D01*
X0318095Y0166426D01*
X0318050Y0166447D01*
X0318008Y0166463D01*
X0317967Y0166472D01*
X0317929Y0166480D01*
X0317900Y0166484D01*
X0317875D01*
X0317813Y0166480D01*
X0317754Y0166467D01*
X0317696Y0166447D01*
X0317642Y0166426D01*
X0317596Y0166401D01*
X0317563Y0166384D01*
X0317538Y0166367D01*
X0317530Y0166363D01*
X0317301Y0167004D01*
X0317388Y0167050D01*
X0317476Y0167087D01*
X0317559Y0167112D01*
X0317634Y0167129D01*
X0317696Y0167137D01*
X0317721Y0167141D01*
X0317746Y0167145D01*
X0317788D01*
X0317854Y0167141D01*
D02*
G37*
G36*
X0323295Y0168198D02*
X0323395Y0168185D01*
X0323483Y0168165D01*
X0323558Y0168148D01*
X0323616Y0168127D01*
X0323657Y0168106D01*
X0323674Y0168102D01*
X0323687Y0168094D01*
X0323691Y0168090D01*
X0323695D01*
X0323766Y0168048D01*
X0323824Y0168002D01*
X0323870Y0167953D01*
X0323907Y0167911D01*
X0323936Y0167869D01*
X0323953Y0167840D01*
X0323965Y0167819D01*
X0323969Y0167811D01*
X0323982Y0167778D01*
X0323994Y0167740D01*
X0324011Y0167657D01*
X0324028Y0167570D01*
X0324036Y0167487D01*
X0324040Y0167412D01*
Y0167378D01*
X0324044Y0167349D01*
Y0167324D01*
Y0167308D01*
Y0167295D01*
Y0167291D01*
Y0167083D01*
X0324452D01*
Y0166505D01*
X0324044D01*
Y0164300D01*
X0323308D01*
Y0166505D01*
X0322759D01*
Y0167083D01*
X0323308D01*
Y0167279D01*
X0323304Y0167353D01*
X0323295Y0167412D01*
X0323287Y0167462D01*
X0323275Y0167503D01*
X0323262Y0167532D01*
X0323250Y0167549D01*
X0323246Y0167561D01*
X0323241Y0167566D01*
X0323212Y0167591D01*
X0323175Y0167607D01*
X0323137Y0167624D01*
X0323100Y0167632D01*
X0323063Y0167636D01*
X0323033Y0167640D01*
X0322946D01*
X0322884Y0167632D01*
X0322825Y0167628D01*
X0322771Y0167620D01*
X0322730Y0167611D01*
X0322692Y0167603D01*
X0322672Y0167599D01*
X0322663Y0167595D01*
X0322568Y0168106D01*
X0322680Y0168140D01*
X0322792Y0168160D01*
X0322896Y0168177D01*
X0322992Y0168190D01*
X0323033Y0168194D01*
X0323071Y0168198D01*
X0323104D01*
X0323133Y0168202D01*
X0323187D01*
X0323295Y0168198D01*
D02*
G37*
G36*
X0339004Y0167141D02*
X0339062Y0167133D01*
X0339116Y0167116D01*
X0339166Y0167100D01*
X0339203Y0167083D01*
X0339232Y0167066D01*
X0339249Y0167058D01*
X0339257Y0167054D01*
X0339282Y0167037D01*
X0339312Y0167012D01*
X0339366Y0166958D01*
X0339416Y0166900D01*
X0339465Y0166838D01*
X0339507Y0166779D01*
X0339540Y0166729D01*
X0339553Y0166709D01*
X0339561Y0166696D01*
X0339565Y0166688D01*
X0339569Y0166684D01*
Y0167083D01*
X0340252D01*
Y0164300D01*
X0339515D01*
Y0165157D01*
Y0165286D01*
X0339511Y0165402D01*
Y0165506D01*
X0339507Y0165602D01*
X0339503Y0165689D01*
X0339499Y0165764D01*
X0339490Y0165831D01*
X0339486Y0165889D01*
X0339482Y0165939D01*
X0339474Y0165981D01*
X0339470Y0166018D01*
X0339465Y0166043D01*
X0339461Y0166064D01*
Y0166076D01*
X0339457Y0166085D01*
Y0166089D01*
X0339432Y0166168D01*
X0339403Y0166230D01*
X0339374Y0166284D01*
X0339349Y0166326D01*
X0339324Y0166359D01*
X0339303Y0166380D01*
X0339291Y0166393D01*
X0339287Y0166397D01*
X0339245Y0166426D01*
X0339199Y0166447D01*
X0339158Y0166463D01*
X0339116Y0166472D01*
X0339079Y0166480D01*
X0339049Y0166484D01*
X0339024D01*
X0338962Y0166480D01*
X0338904Y0166467D01*
X0338846Y0166447D01*
X0338791Y0166426D01*
X0338746Y0166401D01*
X0338713Y0166384D01*
X0338687Y0166367D01*
X0338679Y0166363D01*
X0338450Y0167004D01*
X0338538Y0167050D01*
X0338625Y0167087D01*
X0338708Y0167112D01*
X0338783Y0167129D01*
X0338846Y0167137D01*
X0338871Y0167141D01*
X0338896Y0167145D01*
X0338937D01*
X0339004Y0167141D01*
D02*
G37*
G36*
X0424500Y0164300D02*
X0423726D01*
Y0165931D01*
X0422121D01*
Y0166580D01*
X0423726D01*
Y0167491D01*
X0421867D01*
Y0168140D01*
X0424500D01*
Y0164300D01*
D02*
G37*
G36*
X0302009Y0167141D02*
X0302109Y0167129D01*
X0302200Y0167108D01*
X0302283Y0167083D01*
X0302367Y0167054D01*
X0302441Y0167021D01*
X0302512Y0166983D01*
X0302575Y0166950D01*
X0302629Y0166912D01*
X0302679Y0166875D01*
X0302724Y0166842D01*
X0302758Y0166813D01*
X0302787Y0166788D01*
X0302807Y0166767D01*
X0302820Y0166754D01*
X0302824Y0166750D01*
X0302887Y0166675D01*
X0302941Y0166592D01*
X0302991Y0166505D01*
X0303032Y0166417D01*
X0303065Y0166326D01*
X0303095Y0166234D01*
X0303119Y0166147D01*
X0303136Y0166064D01*
X0303153Y0165981D01*
X0303161Y0165910D01*
X0303169Y0165839D01*
X0303178Y0165781D01*
Y0165735D01*
X0303182Y0165698D01*
Y0165677D01*
Y0165669D01*
X0303178Y0165565D01*
X0303169Y0165461D01*
X0303157Y0165365D01*
X0303140Y0165273D01*
X0303119Y0165190D01*
X0303095Y0165111D01*
X0303070Y0165036D01*
X0303045Y0164970D01*
X0303020Y0164911D01*
X0302995Y0164857D01*
X0302970Y0164816D01*
X0302949Y0164778D01*
X0302932Y0164745D01*
X0302920Y0164724D01*
X0302911Y0164712D01*
X0302907Y0164708D01*
X0302837Y0164625D01*
X0302762Y0164554D01*
X0302679Y0164491D01*
X0302595Y0164437D01*
X0302504Y0164392D01*
X0302416Y0164354D01*
X0302329Y0164321D01*
X0302242Y0164296D01*
X0302159Y0164275D01*
X0302084Y0164263D01*
X0302013Y0164250D01*
X0301955Y0164246D01*
X0301905Y0164242D01*
X0301867Y0164238D01*
X0301834D01*
X0301751Y0164242D01*
X0301672Y0164246D01*
X0301593Y0164258D01*
X0301522Y0164271D01*
X0301455Y0164287D01*
X0301393Y0164304D01*
X0301335Y0164321D01*
X0301281Y0164342D01*
X0301235Y0164362D01*
X0301193Y0164379D01*
X0301156Y0164396D01*
X0301127Y0164412D01*
X0301102Y0164425D01*
X0301085Y0164437D01*
X0301077Y0164441D01*
X0301073Y0164446D01*
X0301019Y0164487D01*
X0300965Y0164533D01*
X0300873Y0164633D01*
X0300794Y0164733D01*
X0300732Y0164832D01*
X0300707Y0164878D01*
X0300686Y0164924D01*
X0300665Y0164961D01*
X0300648Y0164995D01*
X0300640Y0165024D01*
X0300632Y0165045D01*
X0300623Y0165057D01*
Y0165061D01*
X0301356Y0165186D01*
X0301381Y0165111D01*
X0301410Y0165049D01*
X0301439Y0164995D01*
X0301472Y0164953D01*
X0301497Y0164920D01*
X0301518Y0164895D01*
X0301535Y0164882D01*
X0301539Y0164878D01*
X0301585Y0164849D01*
X0301634Y0164824D01*
X0301680Y0164807D01*
X0301726Y0164799D01*
X0301767Y0164791D01*
X0301797Y0164787D01*
X0301826D01*
X0301871Y0164791D01*
X0301917Y0164795D01*
X0302000Y0164816D01*
X0302075Y0164845D01*
X0302138Y0164878D01*
X0302188Y0164907D01*
X0302225Y0164936D01*
X0302246Y0164957D01*
X0302250Y0164966D01*
X0302254D01*
X0302312Y0165041D01*
X0302354Y0165124D01*
X0302383Y0165211D01*
X0302404Y0165294D01*
X0302416Y0165365D01*
X0302421Y0165398D01*
X0302425Y0165427D01*
X0302429Y0165448D01*
Y0165469D01*
Y0165477D01*
Y0165481D01*
X0300586D01*
Y0165635D01*
X0300599Y0165777D01*
X0300615Y0165910D01*
X0300636Y0166035D01*
X0300661Y0166147D01*
X0300690Y0166247D01*
X0300719Y0166343D01*
X0300752Y0166426D01*
X0300786Y0166497D01*
X0300819Y0166559D01*
X0300848Y0166613D01*
X0300877Y0166659D01*
X0300898Y0166692D01*
X0300915Y0166713D01*
X0300927Y0166729D01*
X0300931Y0166734D01*
X0301002Y0166804D01*
X0301077Y0166871D01*
X0301156Y0166925D01*
X0301235Y0166971D01*
X0301318Y0167012D01*
X0301397Y0167046D01*
X0301476Y0167071D01*
X0301555Y0167095D01*
X0301626Y0167112D01*
X0301693Y0167125D01*
X0301755Y0167133D01*
X0301805Y0167137D01*
X0301851Y0167141D01*
X0301880Y0167145D01*
X0301909D01*
X0302009Y0167141D01*
D02*
G37*
G36*
X0312446D02*
X0312546Y0167129D01*
X0312638Y0167108D01*
X0312721Y0167083D01*
X0312804Y0167054D01*
X0312879Y0167021D01*
X0312950Y0166983D01*
X0313012Y0166950D01*
X0313066Y0166912D01*
X0313116Y0166875D01*
X0313162Y0166842D01*
X0313195Y0166813D01*
X0313224Y0166788D01*
X0313245Y0166767D01*
X0313257Y0166754D01*
X0313262Y0166750D01*
X0313324Y0166675D01*
X0313378Y0166592D01*
X0313428Y0166505D01*
X0313470Y0166417D01*
X0313503Y0166326D01*
X0313532Y0166234D01*
X0313557Y0166147D01*
X0313574Y0166064D01*
X0313590Y0165981D01*
X0313599Y0165910D01*
X0313607Y0165839D01*
X0313615Y0165781D01*
Y0165735D01*
X0313619Y0165698D01*
Y0165677D01*
Y0165669D01*
X0313615Y0165565D01*
X0313607Y0165461D01*
X0313594Y0165365D01*
X0313578Y0165273D01*
X0313557Y0165190D01*
X0313532Y0165111D01*
X0313507Y0165036D01*
X0313482Y0164970D01*
X0313457Y0164911D01*
X0313432Y0164857D01*
X0313407Y0164816D01*
X0313386Y0164778D01*
X0313370Y0164745D01*
X0313357Y0164724D01*
X0313349Y0164712D01*
X0313345Y0164708D01*
X0313274Y0164625D01*
X0313199Y0164554D01*
X0313116Y0164491D01*
X0313033Y0164437D01*
X0312941Y0164392D01*
X0312854Y0164354D01*
X0312767Y0164321D01*
X0312679Y0164296D01*
X0312596Y0164275D01*
X0312521Y0164263D01*
X0312450Y0164250D01*
X0312392Y0164246D01*
X0312342Y0164242D01*
X0312305Y0164238D01*
X0312271D01*
X0312188Y0164242D01*
X0312109Y0164246D01*
X0312030Y0164258D01*
X0311960Y0164271D01*
X0311893Y0164287D01*
X0311831Y0164304D01*
X0311772Y0164321D01*
X0311718Y0164342D01*
X0311672Y0164362D01*
X0311631Y0164379D01*
X0311593Y0164396D01*
X0311564Y0164412D01*
X0311539Y0164425D01*
X0311523Y0164437D01*
X0311514Y0164441D01*
X0311510Y0164446D01*
X0311456Y0164487D01*
X0311402Y0164533D01*
X0311311Y0164633D01*
X0311231Y0164733D01*
X0311169Y0164832D01*
X0311144Y0164878D01*
X0311123Y0164924D01*
X0311103Y0164961D01*
X0311086Y0164995D01*
X0311078Y0165024D01*
X0311069Y0165045D01*
X0311061Y0165057D01*
Y0165061D01*
X0311793Y0165186D01*
X0311818Y0165111D01*
X0311847Y0165049D01*
X0311876Y0164995D01*
X0311910Y0164953D01*
X0311935Y0164920D01*
X0311955Y0164895D01*
X0311972Y0164882D01*
X0311976Y0164878D01*
X0312022Y0164849D01*
X0312072Y0164824D01*
X0312118Y0164807D01*
X0312163Y0164799D01*
X0312205Y0164791D01*
X0312234Y0164787D01*
X0312263D01*
X0312309Y0164791D01*
X0312355Y0164795D01*
X0312438Y0164816D01*
X0312513Y0164845D01*
X0312575Y0164878D01*
X0312625Y0164907D01*
X0312663Y0164936D01*
X0312683Y0164957D01*
X0312687Y0164966D01*
X0312692D01*
X0312750Y0165041D01*
X0312791Y0165124D01*
X0312821Y0165211D01*
X0312841Y0165294D01*
X0312854Y0165365D01*
X0312858Y0165398D01*
X0312862Y0165427D01*
X0312866Y0165448D01*
Y0165469D01*
Y0165477D01*
Y0165481D01*
X0311023D01*
Y0165635D01*
X0311036Y0165777D01*
X0311053Y0165910D01*
X0311073Y0166035D01*
X0311098Y0166147D01*
X0311127Y0166247D01*
X0311157Y0166343D01*
X0311190Y0166426D01*
X0311223Y0166497D01*
X0311257Y0166559D01*
X0311286Y0166613D01*
X0311315Y0166659D01*
X0311335Y0166692D01*
X0311352Y0166713D01*
X0311365Y0166729D01*
X0311369Y0166734D01*
X0311439Y0166804D01*
X0311514Y0166871D01*
X0311593Y0166925D01*
X0311672Y0166971D01*
X0311756Y0167012D01*
X0311835Y0167046D01*
X0311914Y0167071D01*
X0311993Y0167095D01*
X0312064Y0167112D01*
X0312130Y0167125D01*
X0312193Y0167133D01*
X0312242Y0167137D01*
X0312288Y0167141D01*
X0312317Y0167145D01*
X0312346D01*
X0312446Y0167141D01*
D02*
G37*
G36*
X0416742D02*
X0416800Y0167133D01*
X0416854Y0167116D01*
X0416904Y0167100D01*
X0416941Y0167083D01*
X0416970Y0167066D01*
X0416987Y0167058D01*
X0416995Y0167054D01*
X0417020Y0167037D01*
X0417049Y0167012D01*
X0417103Y0166958D01*
X0417153Y0166900D01*
X0417203Y0166838D01*
X0417245Y0166779D01*
X0417278Y0166729D01*
X0417291Y0166709D01*
X0417299Y0166696D01*
X0417303Y0166688D01*
X0417307Y0166684D01*
Y0167083D01*
X0417990D01*
Y0164300D01*
X0417253D01*
Y0165157D01*
Y0165286D01*
X0417249Y0165402D01*
Y0165506D01*
X0417245Y0165602D01*
X0417241Y0165689D01*
X0417237Y0165764D01*
X0417228Y0165831D01*
X0417224Y0165889D01*
X0417220Y0165939D01*
X0417212Y0165981D01*
X0417207Y0166018D01*
X0417203Y0166043D01*
X0417199Y0166064D01*
Y0166076D01*
X0417195Y0166085D01*
Y0166089D01*
X0417170Y0166168D01*
X0417141Y0166230D01*
X0417112Y0166284D01*
X0417087Y0166326D01*
X0417062Y0166359D01*
X0417041Y0166380D01*
X0417029Y0166393D01*
X0417025Y0166397D01*
X0416983Y0166426D01*
X0416937Y0166447D01*
X0416895Y0166463D01*
X0416854Y0166472D01*
X0416817Y0166480D01*
X0416787Y0166484D01*
X0416762D01*
X0416700Y0166480D01*
X0416642Y0166467D01*
X0416583Y0166447D01*
X0416529Y0166426D01*
X0416484Y0166401D01*
X0416450Y0166384D01*
X0416425Y0166367D01*
X0416417Y0166363D01*
X0416188Y0167004D01*
X0416276Y0167050D01*
X0416363Y0167087D01*
X0416446Y0167112D01*
X0416521Y0167129D01*
X0416583Y0167137D01*
X0416608Y0167141D01*
X0416633Y0167145D01*
X0416675D01*
X0416742Y0167141D01*
D02*
G37*
G36*
X0389652D02*
X0389747Y0167125D01*
X0389839Y0167104D01*
X0389926Y0167071D01*
X0390005Y0167037D01*
X0390080Y0166996D01*
X0390151Y0166954D01*
X0390213Y0166908D01*
X0390271Y0166863D01*
X0390317Y0166821D01*
X0390363Y0166779D01*
X0390396Y0166746D01*
X0390425Y0166717D01*
X0390446Y0166692D01*
X0390459Y0166675D01*
X0390463Y0166671D01*
Y0167083D01*
X0391145D01*
Y0164300D01*
X0390409D01*
Y0165560D01*
Y0165644D01*
X0390405Y0165723D01*
Y0165793D01*
X0390401Y0165856D01*
X0390396Y0165914D01*
X0390392Y0165968D01*
X0390388Y0166014D01*
X0390380Y0166056D01*
X0390375Y0166089D01*
X0390371Y0166118D01*
X0390367Y0166143D01*
X0390363Y0166164D01*
X0390359Y0166180D01*
Y0166189D01*
X0390355Y0166197D01*
X0390330Y0166259D01*
X0390301Y0166313D01*
X0390267Y0166363D01*
X0390234Y0166401D01*
X0390201Y0166434D01*
X0390176Y0166455D01*
X0390159Y0166472D01*
X0390151Y0166476D01*
X0390093Y0166513D01*
X0390030Y0166538D01*
X0389972Y0166559D01*
X0389922Y0166571D01*
X0389872Y0166580D01*
X0389839Y0166584D01*
X0389806D01*
X0389752Y0166580D01*
X0389706Y0166571D01*
X0389664Y0166559D01*
X0389627Y0166546D01*
X0389598Y0166534D01*
X0389573Y0166521D01*
X0389560Y0166513D01*
X0389556Y0166509D01*
X0389519Y0166480D01*
X0389485Y0166447D01*
X0389460Y0166409D01*
X0389440Y0166376D01*
X0389423Y0166347D01*
X0389410Y0166322D01*
X0389402Y0166305D01*
Y0166301D01*
X0389394Y0166272D01*
X0389385Y0166239D01*
X0389377Y0166201D01*
X0389373Y0166155D01*
X0389365Y0166060D01*
X0389356Y0165960D01*
Y0165868D01*
X0389352Y0165827D01*
Y0165793D01*
Y0165760D01*
Y0165739D01*
Y0165723D01*
Y0165719D01*
Y0164300D01*
X0388616D01*
Y0166026D01*
Y0166143D01*
X0388624Y0166243D01*
X0388628Y0166326D01*
X0388637Y0166397D01*
X0388645Y0166451D01*
X0388649Y0166488D01*
X0388657Y0166513D01*
Y0166521D01*
X0388674Y0166584D01*
X0388699Y0166642D01*
X0388720Y0166696D01*
X0388745Y0166742D01*
X0388770Y0166779D01*
X0388786Y0166804D01*
X0388799Y0166825D01*
X0388803Y0166829D01*
X0388845Y0166879D01*
X0388895Y0166921D01*
X0388945Y0166962D01*
X0388994Y0166991D01*
X0389036Y0167021D01*
X0389073Y0167037D01*
X0389098Y0167050D01*
X0389103Y0167054D01*
X0389107D01*
X0389182Y0167083D01*
X0389261Y0167108D01*
X0389335Y0167125D01*
X0389402Y0167133D01*
X0389464Y0167141D01*
X0389510Y0167145D01*
X0389552D01*
X0389652Y0167141D01*
D02*
G37*
G36*
X0395900Y0164300D02*
X0395164D01*
Y0167083D01*
X0395900D01*
Y0164300D01*
D02*
G37*
G36*
X0405431D02*
X0404694D01*
Y0168140D01*
X0405431D01*
Y0164300D01*
D02*
G37*
G36*
X0321236Y0167137D02*
X0321374Y0167116D01*
X0321498Y0167087D01*
X0321557Y0167071D01*
X0321611Y0167054D01*
X0321656Y0167037D01*
X0321698Y0167021D01*
X0321736Y0167004D01*
X0321769Y0166991D01*
X0321794Y0166979D01*
X0321810Y0166971D01*
X0321823Y0166967D01*
X0321827Y0166962D01*
X0321943Y0166887D01*
X0322043Y0166804D01*
X0322131Y0166717D01*
X0322206Y0166634D01*
X0322260Y0166559D01*
X0322285Y0166526D01*
X0322301Y0166497D01*
X0322314Y0166472D01*
X0322326Y0166455D01*
X0322330Y0166442D01*
X0322335Y0166438D01*
X0322368Y0166376D01*
X0322393Y0166309D01*
X0322439Y0166184D01*
X0322468Y0166064D01*
X0322493Y0165956D01*
X0322497Y0165906D01*
X0322505Y0165864D01*
X0322509Y0165823D01*
Y0165789D01*
X0322513Y0165764D01*
Y0165744D01*
Y0165731D01*
Y0165727D01*
X0322509Y0165639D01*
X0322505Y0165556D01*
X0322497Y0165473D01*
X0322484Y0165398D01*
X0322472Y0165328D01*
X0322455Y0165261D01*
X0322439Y0165199D01*
X0322422Y0165140D01*
X0322405Y0165090D01*
X0322393Y0165045D01*
X0322376Y0165007D01*
X0322364Y0164974D01*
X0322351Y0164949D01*
X0322343Y0164932D01*
X0322335Y0164920D01*
Y0164916D01*
X0322260Y0164799D01*
X0322177Y0164695D01*
X0322089Y0164608D01*
X0322006Y0164537D01*
X0321927Y0164483D01*
X0321898Y0164458D01*
X0321869Y0164441D01*
X0321844Y0164425D01*
X0321827Y0164417D01*
X0321815Y0164412D01*
X0321810Y0164408D01*
X0321681Y0164350D01*
X0321552Y0164308D01*
X0321428Y0164279D01*
X0321315Y0164258D01*
X0321265Y0164250D01*
X0321220Y0164246D01*
X0321182Y0164242D01*
X0321149D01*
X0321120Y0164238D01*
X0321082D01*
X0320970Y0164242D01*
X0320862Y0164254D01*
X0320758Y0164275D01*
X0320662Y0164304D01*
X0320571Y0164333D01*
X0320487Y0164367D01*
X0320409Y0164404D01*
X0320338Y0164446D01*
X0320275Y0164483D01*
X0320221Y0164521D01*
X0320171Y0164554D01*
X0320134Y0164587D01*
X0320101Y0164612D01*
X0320076Y0164633D01*
X0320063Y0164645D01*
X0320059Y0164649D01*
X0319988Y0164728D01*
X0319926Y0164816D01*
X0319872Y0164899D01*
X0319822Y0164991D01*
X0319784Y0165078D01*
X0319751Y0165165D01*
X0319722Y0165249D01*
X0319701Y0165332D01*
X0319685Y0165407D01*
X0319672Y0165477D01*
X0319664Y0165540D01*
X0319655Y0165594D01*
Y0165635D01*
X0319651Y0165669D01*
Y0165689D01*
Y0165698D01*
X0319655Y0165814D01*
X0319668Y0165922D01*
X0319689Y0166026D01*
X0319714Y0166122D01*
X0319743Y0166214D01*
X0319780Y0166301D01*
X0319814Y0166380D01*
X0319851Y0166451D01*
X0319893Y0166513D01*
X0319926Y0166571D01*
X0319959Y0166617D01*
X0319992Y0166659D01*
X0320017Y0166692D01*
X0320038Y0166713D01*
X0320051Y0166729D01*
X0320055Y0166734D01*
X0320134Y0166804D01*
X0320213Y0166871D01*
X0320300Y0166925D01*
X0320388Y0166971D01*
X0320471Y0167012D01*
X0320558Y0167046D01*
X0320641Y0167071D01*
X0320721Y0167095D01*
X0320795Y0167112D01*
X0320866Y0167125D01*
X0320929Y0167133D01*
X0320983Y0167137D01*
X0321024Y0167141D01*
X0321057Y0167145D01*
X0321161D01*
X0321236Y0167137D01*
D02*
G37*
G36*
X0327081Y0166754D02*
X0327148Y0166825D01*
X0327214Y0166883D01*
X0327281Y0166937D01*
X0327351Y0166979D01*
X0327418Y0167016D01*
X0327485Y0167050D01*
X0327551Y0167075D01*
X0327614Y0167095D01*
X0327672Y0167112D01*
X0327722Y0167125D01*
X0327767Y0167133D01*
X0327809Y0167141D01*
X0327842D01*
X0327867Y0167145D01*
X0327888D01*
X0327980Y0167141D01*
X0328071Y0167129D01*
X0328154Y0167112D01*
X0328233Y0167087D01*
X0328308Y0167058D01*
X0328375Y0167029D01*
X0328441Y0166996D01*
X0328500Y0166962D01*
X0328550Y0166925D01*
X0328595Y0166892D01*
X0328637Y0166863D01*
X0328670Y0166833D01*
X0328695Y0166808D01*
X0328712Y0166792D01*
X0328724Y0166779D01*
X0328729Y0166775D01*
X0328787Y0166704D01*
X0328837Y0166625D01*
X0328882Y0166542D01*
X0328920Y0166455D01*
X0328949Y0166363D01*
X0328978Y0166276D01*
X0328999Y0166189D01*
X0329015Y0166101D01*
X0329028Y0166022D01*
X0329041Y0165943D01*
X0329049Y0165877D01*
X0329053Y0165818D01*
Y0165769D01*
X0329057Y0165735D01*
Y0165710D01*
Y0165702D01*
X0329053Y0165577D01*
X0329041Y0165456D01*
X0329024Y0165344D01*
X0329003Y0165240D01*
X0328978Y0165145D01*
X0328949Y0165053D01*
X0328920Y0164974D01*
X0328887Y0164899D01*
X0328853Y0164837D01*
X0328824Y0164778D01*
X0328795Y0164733D01*
X0328770Y0164691D01*
X0328749Y0164662D01*
X0328729Y0164637D01*
X0328720Y0164625D01*
X0328716Y0164620D01*
X0328649Y0164554D01*
X0328583Y0164496D01*
X0328512Y0164441D01*
X0328446Y0164400D01*
X0328375Y0164362D01*
X0328308Y0164329D01*
X0328242Y0164304D01*
X0328179Y0164287D01*
X0328121Y0164271D01*
X0328067Y0164258D01*
X0328017Y0164250D01*
X0327976Y0164242D01*
X0327942D01*
X0327917Y0164238D01*
X0327896D01*
X0327809Y0164242D01*
X0327726Y0164254D01*
X0327647Y0164275D01*
X0327576Y0164296D01*
X0327518Y0164313D01*
X0327472Y0164333D01*
X0327455Y0164342D01*
X0327439Y0164346D01*
X0327435Y0164350D01*
X0327431D01*
X0327347Y0164400D01*
X0327268Y0164454D01*
X0327202Y0164516D01*
X0327139Y0164575D01*
X0327094Y0164625D01*
X0327056Y0164670D01*
X0327044Y0164683D01*
X0327035Y0164695D01*
X0327027Y0164704D01*
Y0164300D01*
X0326345D01*
Y0168140D01*
X0327081D01*
Y0166754D01*
D02*
G37*
G36*
X0337023Y0167137D02*
X0337161Y0167116D01*
X0337286Y0167087D01*
X0337344Y0167071D01*
X0337398Y0167054D01*
X0337444Y0167037D01*
X0337485Y0167021D01*
X0337523Y0167004D01*
X0337556Y0166991D01*
X0337581Y0166979D01*
X0337598Y0166971D01*
X0337610Y0166967D01*
X0337614Y0166962D01*
X0337731Y0166887D01*
X0337831Y0166804D01*
X0337918Y0166717D01*
X0337993Y0166634D01*
X0338047Y0166559D01*
X0338072Y0166526D01*
X0338088Y0166497D01*
X0338101Y0166472D01*
X0338113Y0166455D01*
X0338118Y0166442D01*
X0338122Y0166438D01*
X0338155Y0166376D01*
X0338180Y0166309D01*
X0338226Y0166184D01*
X0338255Y0166064D01*
X0338280Y0165956D01*
X0338284Y0165906D01*
X0338292Y0165864D01*
X0338297Y0165823D01*
Y0165789D01*
X0338301Y0165764D01*
Y0165744D01*
Y0165731D01*
Y0165727D01*
X0338297Y0165639D01*
X0338292Y0165556D01*
X0338284Y0165473D01*
X0338271Y0165398D01*
X0338259Y0165328D01*
X0338242Y0165261D01*
X0338226Y0165199D01*
X0338209Y0165140D01*
X0338193Y0165090D01*
X0338180Y0165045D01*
X0338163Y0165007D01*
X0338151Y0164974D01*
X0338138Y0164949D01*
X0338130Y0164932D01*
X0338122Y0164920D01*
Y0164916D01*
X0338047Y0164799D01*
X0337964Y0164695D01*
X0337876Y0164608D01*
X0337793Y0164537D01*
X0337714Y0164483D01*
X0337685Y0164458D01*
X0337656Y0164441D01*
X0337631Y0164425D01*
X0337614Y0164417D01*
X0337602Y0164412D01*
X0337598Y0164408D01*
X0337469Y0164350D01*
X0337340Y0164308D01*
X0337215Y0164279D01*
X0337103Y0164258D01*
X0337053Y0164250D01*
X0337007Y0164246D01*
X0336969Y0164242D01*
X0336936D01*
X0336907Y0164238D01*
X0336870D01*
X0336757Y0164242D01*
X0336649Y0164254D01*
X0336545Y0164275D01*
X0336449Y0164304D01*
X0336358Y0164333D01*
X0336275Y0164367D01*
X0336196Y0164404D01*
X0336125Y0164446D01*
X0336063Y0164483D01*
X0336009Y0164521D01*
X0335959Y0164554D01*
X0335921Y0164587D01*
X0335888Y0164612D01*
X0335863Y0164633D01*
X0335850Y0164645D01*
X0335846Y0164649D01*
X0335775Y0164728D01*
X0335713Y0164816D01*
X0335659Y0164899D01*
X0335609Y0164991D01*
X0335572Y0165078D01*
X0335538Y0165165D01*
X0335509Y0165249D01*
X0335489Y0165332D01*
X0335472Y0165407D01*
X0335459Y0165477D01*
X0335451Y0165540D01*
X0335443Y0165594D01*
Y0165635D01*
X0335439Y0165669D01*
Y0165689D01*
Y0165698D01*
X0335443Y0165814D01*
X0335455Y0165922D01*
X0335476Y0166026D01*
X0335501Y0166122D01*
X0335530Y0166214D01*
X0335567Y0166301D01*
X0335601Y0166380D01*
X0335638Y0166451D01*
X0335680Y0166513D01*
X0335713Y0166571D01*
X0335746Y0166617D01*
X0335780Y0166659D01*
X0335805Y0166692D01*
X0335825Y0166713D01*
X0335838Y0166729D01*
X0335842Y0166734D01*
X0335921Y0166804D01*
X0336000Y0166871D01*
X0336087Y0166925D01*
X0336175Y0166971D01*
X0336258Y0167012D01*
X0336345Y0167046D01*
X0336429Y0167071D01*
X0336508Y0167095D01*
X0336583Y0167112D01*
X0336653Y0167125D01*
X0336716Y0167133D01*
X0336770Y0167137D01*
X0336811Y0167141D01*
X0336845Y0167145D01*
X0336949D01*
X0337023Y0167137D01*
D02*
G37*
G36*
X0309522Y0167141D02*
X0309622Y0167133D01*
X0309717Y0167121D01*
X0309805Y0167108D01*
X0309884Y0167087D01*
X0309954Y0167066D01*
X0310021Y0167046D01*
X0310079Y0167021D01*
X0310129Y0166996D01*
X0310175Y0166975D01*
X0310212Y0166954D01*
X0310241Y0166933D01*
X0310266Y0166921D01*
X0310283Y0166908D01*
X0310291Y0166900D01*
X0310296Y0166896D01*
X0310345Y0166850D01*
X0310387Y0166800D01*
X0310424Y0166750D01*
X0310458Y0166696D01*
X0310487Y0166646D01*
X0310508Y0166596D01*
X0310541Y0166501D01*
X0310553Y0166455D01*
X0310562Y0166417D01*
X0310570Y0166380D01*
X0310574Y0166351D01*
X0310578Y0166322D01*
Y0166305D01*
Y0166293D01*
Y0166288D01*
X0310574Y0166218D01*
X0310566Y0166147D01*
X0310549Y0166085D01*
X0310528Y0166022D01*
X0310504Y0165968D01*
X0310474Y0165914D01*
X0310445Y0165868D01*
X0310412Y0165827D01*
X0310383Y0165789D01*
X0310354Y0165756D01*
X0310325Y0165727D01*
X0310300Y0165706D01*
X0310279Y0165689D01*
X0310262Y0165677D01*
X0310254Y0165669D01*
X0310250Y0165665D01*
X0310200Y0165635D01*
X0310133Y0165602D01*
X0310058Y0165573D01*
X0309975Y0165540D01*
X0309884Y0165511D01*
X0309788Y0165481D01*
X0309601Y0165423D01*
X0309505Y0165398D01*
X0309418Y0165377D01*
X0309339Y0165357D01*
X0309268Y0165340D01*
X0309210Y0165328D01*
X0309164Y0165315D01*
X0309147Y0165311D01*
X0309135D01*
X0309131Y0165307D01*
X0309127D01*
X0309060Y0165290D01*
X0309006Y0165273D01*
X0308964Y0165257D01*
X0308931Y0165240D01*
X0308910Y0165228D01*
X0308894Y0165215D01*
X0308885Y0165211D01*
X0308881Y0165207D01*
X0308864Y0165186D01*
X0308848Y0165161D01*
X0308835Y0165120D01*
X0308831Y0165099D01*
X0308827Y0165082D01*
Y0165074D01*
Y0165070D01*
X0308831Y0165024D01*
X0308844Y0164986D01*
X0308860Y0164953D01*
X0308877Y0164924D01*
X0308894Y0164903D01*
X0308910Y0164887D01*
X0308923Y0164878D01*
X0308927Y0164874D01*
X0308985Y0164841D01*
X0309052Y0164816D01*
X0309122Y0164795D01*
X0309193Y0164783D01*
X0309256Y0164774D01*
X0309285D01*
X0309310Y0164770D01*
X0309355D01*
X0309447Y0164774D01*
X0309526Y0164787D01*
X0309597Y0164803D01*
X0309655Y0164824D01*
X0309701Y0164845D01*
X0309734Y0164862D01*
X0309751Y0164874D01*
X0309759Y0164878D01*
X0309809Y0164924D01*
X0309846Y0164974D01*
X0309879Y0165028D01*
X0309905Y0165082D01*
X0309925Y0165128D01*
X0309938Y0165169D01*
X0309942Y0165194D01*
X0309946Y0165199D01*
Y0165203D01*
X0310682Y0165090D01*
X0310662Y0165020D01*
X0310637Y0164949D01*
X0310608Y0164887D01*
X0310574Y0164828D01*
X0310537Y0164770D01*
X0310504Y0164720D01*
X0310466Y0164674D01*
X0310429Y0164629D01*
X0310395Y0164591D01*
X0310362Y0164558D01*
X0310333Y0164533D01*
X0310308Y0164508D01*
X0310283Y0164491D01*
X0310266Y0164479D01*
X0310258Y0164471D01*
X0310254Y0164466D01*
X0310187Y0164425D01*
X0310121Y0164392D01*
X0310046Y0164362D01*
X0309971Y0164333D01*
X0309821Y0164292D01*
X0309676Y0164267D01*
X0309609Y0164258D01*
X0309551Y0164250D01*
X0309493Y0164246D01*
X0309447Y0164242D01*
X0309405Y0164238D01*
X0309351D01*
X0309239Y0164242D01*
X0309131Y0164250D01*
X0309031Y0164263D01*
X0308939Y0164279D01*
X0308856Y0164300D01*
X0308777Y0164325D01*
X0308706Y0164350D01*
X0308644Y0164375D01*
X0308590Y0164400D01*
X0308540Y0164425D01*
X0308498Y0164450D01*
X0308465Y0164471D01*
X0308440Y0164487D01*
X0308423Y0164500D01*
X0308411Y0164508D01*
X0308407Y0164512D01*
X0308349Y0164566D01*
X0308303Y0164620D01*
X0308257Y0164674D01*
X0308220Y0164733D01*
X0308191Y0164787D01*
X0308166Y0164841D01*
X0308145Y0164895D01*
X0308128Y0164945D01*
X0308112Y0164991D01*
X0308103Y0165032D01*
X0308095Y0165074D01*
X0308091Y0165107D01*
X0308087Y0165132D01*
Y0165153D01*
Y0165165D01*
Y0165169D01*
X0308091Y0165232D01*
X0308095Y0165294D01*
X0308124Y0165402D01*
X0308161Y0165494D01*
X0308203Y0165573D01*
X0308224Y0165606D01*
X0308245Y0165635D01*
X0308265Y0165660D01*
X0308282Y0165677D01*
X0308299Y0165694D01*
X0308311Y0165706D01*
X0308315Y0165710D01*
X0308319Y0165714D01*
X0308365Y0165752D01*
X0308423Y0165785D01*
X0308482Y0165818D01*
X0308544Y0165848D01*
X0308681Y0165906D01*
X0308815Y0165952D01*
X0308881Y0165972D01*
X0308939Y0165989D01*
X0308998Y0166006D01*
X0309043Y0166018D01*
X0309085Y0166031D01*
X0309114Y0166039D01*
X0309131Y0166043D01*
X0309139D01*
X0309243Y0166068D01*
X0309339Y0166089D01*
X0309422Y0166114D01*
X0309493Y0166130D01*
X0309559Y0166151D01*
X0309613Y0166168D01*
X0309663Y0166184D01*
X0309701Y0166197D01*
X0309734Y0166209D01*
X0309763Y0166222D01*
X0309784Y0166230D01*
X0309801Y0166239D01*
X0309813Y0166243D01*
X0309821Y0166247D01*
X0309825Y0166251D01*
X0309850Y0166272D01*
X0309867Y0166297D01*
X0309879Y0166318D01*
X0309888Y0166338D01*
X0309892Y0166355D01*
X0309896Y0166372D01*
Y0166380D01*
Y0166384D01*
X0309892Y0166417D01*
X0309884Y0166447D01*
X0309871Y0166472D01*
X0309855Y0166492D01*
X0309838Y0166509D01*
X0309825Y0166526D01*
X0309817Y0166530D01*
X0309813Y0166534D01*
X0309759Y0166563D01*
X0309697Y0166584D01*
X0309626Y0166596D01*
X0309559Y0166609D01*
X0309497Y0166613D01*
X0309447Y0166617D01*
X0309401D01*
X0309322Y0166613D01*
X0309247Y0166605D01*
X0309189Y0166588D01*
X0309139Y0166576D01*
X0309097Y0166559D01*
X0309072Y0166542D01*
X0309052Y0166534D01*
X0309048Y0166530D01*
X0309006Y0166492D01*
X0308968Y0166455D01*
X0308939Y0166413D01*
X0308914Y0166372D01*
X0308898Y0166334D01*
X0308885Y0166305D01*
X0308877Y0166288D01*
Y0166280D01*
X0308182Y0166409D01*
X0308228Y0166538D01*
X0308257Y0166596D01*
X0308286Y0166646D01*
X0308319Y0166696D01*
X0308353Y0166742D01*
X0308386Y0166783D01*
X0308415Y0166821D01*
X0308449Y0166850D01*
X0308473Y0166879D01*
X0308503Y0166904D01*
X0308523Y0166925D01*
X0308544Y0166937D01*
X0308557Y0166950D01*
X0308565Y0166958D01*
X0308569D01*
X0308623Y0166991D01*
X0308686Y0167021D01*
X0308748Y0167046D01*
X0308819Y0167066D01*
X0308956Y0167100D01*
X0309093Y0167121D01*
X0309160Y0167129D01*
X0309218Y0167137D01*
X0309272Y0167141D01*
X0309322D01*
X0309360Y0167145D01*
X0309414D01*
X0309522Y0167141D01*
D02*
G37*
G36*
X0342065D02*
X0342161Y0167125D01*
X0342249Y0167104D01*
X0342323Y0167079D01*
X0342386Y0167054D01*
X0342411Y0167041D01*
X0342431Y0167033D01*
X0342448Y0167025D01*
X0342461Y0167016D01*
X0342469Y0167012D01*
X0342473D01*
X0342552Y0166962D01*
X0342623Y0166904D01*
X0342685Y0166846D01*
X0342735Y0166792D01*
X0342777Y0166746D01*
X0342806Y0166704D01*
X0342823Y0166680D01*
X0342831Y0166675D01*
Y0167083D01*
X0343517D01*
Y0163243D01*
X0342781D01*
Y0164641D01*
X0342706Y0164566D01*
X0342635Y0164500D01*
X0342569Y0164446D01*
X0342511Y0164404D01*
X0342461Y0164371D01*
X0342423Y0164346D01*
X0342398Y0164333D01*
X0342390Y0164329D01*
X0342319Y0164300D01*
X0342244Y0164275D01*
X0342174Y0164258D01*
X0342111Y0164250D01*
X0342053Y0164242D01*
X0342007Y0164238D01*
X0341970D01*
X0341878Y0164242D01*
X0341795Y0164254D01*
X0341712Y0164275D01*
X0341637Y0164296D01*
X0341562Y0164325D01*
X0341495Y0164358D01*
X0341429Y0164392D01*
X0341375Y0164429D01*
X0341321Y0164466D01*
X0341275Y0164500D01*
X0341238Y0164533D01*
X0341204Y0164562D01*
X0341175Y0164587D01*
X0341159Y0164604D01*
X0341146Y0164616D01*
X0341142Y0164620D01*
X0341084Y0164695D01*
X0341030Y0164778D01*
X0340984Y0164866D01*
X0340946Y0164953D01*
X0340913Y0165045D01*
X0340884Y0165132D01*
X0340863Y0165224D01*
X0340842Y0165307D01*
X0340830Y0165390D01*
X0340817Y0165465D01*
X0340809Y0165531D01*
X0340805Y0165590D01*
Y0165639D01*
X0340801Y0165677D01*
Y0165698D01*
Y0165706D01*
X0340805Y0165831D01*
X0340813Y0165947D01*
X0340834Y0166056D01*
X0340855Y0166155D01*
X0340880Y0166251D01*
X0340909Y0166338D01*
X0340938Y0166417D01*
X0340971Y0166488D01*
X0341005Y0166551D01*
X0341034Y0166609D01*
X0341063Y0166655D01*
X0341088Y0166692D01*
X0341109Y0166725D01*
X0341125Y0166746D01*
X0341138Y0166759D01*
X0341142Y0166763D01*
X0341209Y0166829D01*
X0341275Y0166887D01*
X0341342Y0166942D01*
X0341412Y0166983D01*
X0341483Y0167021D01*
X0341550Y0167054D01*
X0341616Y0167079D01*
X0341679Y0167100D01*
X0341741Y0167112D01*
X0341795Y0167125D01*
X0341841Y0167133D01*
X0341882Y0167141D01*
X0341920D01*
X0341945Y0167145D01*
X0341966D01*
X0342065Y0167141D01*
D02*
G37*
G36*
X0345339D02*
X0345435Y0167125D01*
X0345522Y0167104D01*
X0345597Y0167079D01*
X0345660Y0167054D01*
X0345685Y0167041D01*
X0345705Y0167033D01*
X0345722Y0167025D01*
X0345735Y0167016D01*
X0345743Y0167012D01*
X0345747D01*
X0345826Y0166962D01*
X0345897Y0166904D01*
X0345959Y0166846D01*
X0346009Y0166792D01*
X0346051Y0166746D01*
X0346080Y0166704D01*
X0346096Y0166680D01*
X0346105Y0166675D01*
Y0167083D01*
X0346791D01*
Y0163243D01*
X0346055D01*
Y0164641D01*
X0345980Y0164566D01*
X0345909Y0164500D01*
X0345843Y0164446D01*
X0345784Y0164404D01*
X0345735Y0164371D01*
X0345697Y0164346D01*
X0345672Y0164333D01*
X0345664Y0164329D01*
X0345593Y0164300D01*
X0345518Y0164275D01*
X0345447Y0164258D01*
X0345385Y0164250D01*
X0345327Y0164242D01*
X0345281Y0164238D01*
X0345244D01*
X0345152Y0164242D01*
X0345069Y0164254D01*
X0344986Y0164275D01*
X0344911Y0164296D01*
X0344836Y0164325D01*
X0344769Y0164358D01*
X0344703Y0164392D01*
X0344649Y0164429D01*
X0344595Y0164466D01*
X0344549Y0164500D01*
X0344512Y0164533D01*
X0344478Y0164562D01*
X0344449Y0164587D01*
X0344432Y0164604D01*
X0344420Y0164616D01*
X0344416Y0164620D01*
X0344358Y0164695D01*
X0344303Y0164778D01*
X0344258Y0164866D01*
X0344220Y0164953D01*
X0344187Y0165045D01*
X0344158Y0165132D01*
X0344137Y0165224D01*
X0344116Y0165307D01*
X0344104Y0165390D01*
X0344091Y0165465D01*
X0344083Y0165531D01*
X0344079Y0165590D01*
Y0165639D01*
X0344075Y0165677D01*
Y0165698D01*
Y0165706D01*
X0344079Y0165831D01*
X0344087Y0165947D01*
X0344108Y0166056D01*
X0344129Y0166155D01*
X0344154Y0166251D01*
X0344183Y0166338D01*
X0344212Y0166417D01*
X0344245Y0166488D01*
X0344279Y0166551D01*
X0344308Y0166609D01*
X0344337Y0166655D01*
X0344362Y0166692D01*
X0344383Y0166725D01*
X0344399Y0166746D01*
X0344412Y0166759D01*
X0344416Y0166763D01*
X0344482Y0166829D01*
X0344549Y0166887D01*
X0344616Y0166942D01*
X0344686Y0166983D01*
X0344757Y0167021D01*
X0344824Y0167054D01*
X0344890Y0167079D01*
X0344953Y0167100D01*
X0345015Y0167112D01*
X0345069Y0167125D01*
X0345115Y0167133D01*
X0345156Y0167141D01*
X0345194D01*
X0345219Y0167145D01*
X0345239D01*
X0345339Y0167141D01*
D02*
G37*
G36*
X0375237Y0164300D02*
X0374880D01*
X0374888Y0164225D01*
X0374900Y0164154D01*
X0374917Y0164096D01*
X0374934Y0164046D01*
X0374954Y0164009D01*
X0374967Y0163980D01*
X0374979Y0163959D01*
X0374984Y0163955D01*
X0375025Y0163909D01*
X0375071Y0163867D01*
X0375121Y0163830D01*
X0375175Y0163801D01*
X0375221Y0163776D01*
X0375258Y0163759D01*
X0375287Y0163751D01*
X0375291Y0163747D01*
X0375295D01*
X0375154Y0163443D01*
X0375071Y0163476D01*
X0374992Y0163518D01*
X0374925Y0163555D01*
X0374871Y0163593D01*
X0374825Y0163626D01*
X0374792Y0163651D01*
X0374776Y0163668D01*
X0374767Y0163676D01*
X0374713Y0163734D01*
X0374672Y0163788D01*
X0374634Y0163847D01*
X0374605Y0163897D01*
X0374584Y0163942D01*
X0374572Y0163976D01*
X0374563Y0164000D01*
X0374559Y0164009D01*
X0374538Y0164084D01*
X0374526Y0164163D01*
X0374513Y0164246D01*
X0374509Y0164329D01*
X0374505Y0164400D01*
X0374501Y0164429D01*
Y0164454D01*
Y0164479D01*
Y0164496D01*
Y0164504D01*
Y0164508D01*
Y0165036D01*
X0375237D01*
Y0164300D01*
D02*
G37*
G36*
X0299987D02*
X0299251D01*
Y0165036D01*
X0299987D01*
Y0164300D01*
D02*
G37*
G36*
X0304455D02*
X0303719D01*
Y0168140D01*
X0304455D01*
Y0164300D01*
D02*
G37*
G36*
X0314277Y0167141D02*
X0314335Y0167133D01*
X0314389Y0167116D01*
X0314439Y0167100D01*
X0314476Y0167083D01*
X0314505Y0167066D01*
X0314522Y0167058D01*
X0314530Y0167054D01*
X0314555Y0167037D01*
X0314584Y0167012D01*
X0314639Y0166958D01*
X0314688Y0166900D01*
X0314738Y0166838D01*
X0314780Y0166779D01*
X0314813Y0166729D01*
X0314826Y0166709D01*
X0314834Y0166696D01*
X0314838Y0166688D01*
X0314842Y0166684D01*
Y0167083D01*
X0315525D01*
Y0164300D01*
X0314788D01*
Y0165157D01*
Y0165286D01*
X0314784Y0165402D01*
Y0165506D01*
X0314780Y0165602D01*
X0314776Y0165689D01*
X0314772Y0165764D01*
X0314763Y0165831D01*
X0314759Y0165889D01*
X0314755Y0165939D01*
X0314747Y0165981D01*
X0314743Y0166018D01*
X0314738Y0166043D01*
X0314734Y0166064D01*
Y0166076D01*
X0314730Y0166085D01*
Y0166089D01*
X0314705Y0166168D01*
X0314676Y0166230D01*
X0314647Y0166284D01*
X0314622Y0166326D01*
X0314597Y0166359D01*
X0314576Y0166380D01*
X0314564Y0166393D01*
X0314560Y0166397D01*
X0314518Y0166426D01*
X0314472Y0166447D01*
X0314431Y0166463D01*
X0314389Y0166472D01*
X0314352Y0166480D01*
X0314322Y0166484D01*
X0314297D01*
X0314235Y0166480D01*
X0314177Y0166467D01*
X0314119Y0166447D01*
X0314065Y0166426D01*
X0314019Y0166401D01*
X0313985Y0166384D01*
X0313961Y0166367D01*
X0313952Y0166363D01*
X0313723Y0167004D01*
X0313811Y0167050D01*
X0313898Y0167087D01*
X0313981Y0167112D01*
X0314056Y0167129D01*
X0314119Y0167137D01*
X0314143Y0167141D01*
X0314169Y0167145D01*
X0314210D01*
X0314277Y0167141D01*
D02*
G37*
G36*
X0420124Y0167137D02*
X0420261Y0167116D01*
X0420386Y0167087D01*
X0420444Y0167071D01*
X0420498Y0167054D01*
X0420544Y0167037D01*
X0420585Y0167021D01*
X0420623Y0167004D01*
X0420656Y0166991D01*
X0420681Y0166979D01*
X0420698Y0166971D01*
X0420710Y0166967D01*
X0420714Y0166962D01*
X0420831Y0166887D01*
X0420931Y0166804D01*
X0421018Y0166717D01*
X0421093Y0166634D01*
X0421147Y0166559D01*
X0421172Y0166526D01*
X0421189Y0166497D01*
X0421201Y0166472D01*
X0421214Y0166455D01*
X0421218Y0166442D01*
X0421222Y0166438D01*
X0421255Y0166376D01*
X0421280Y0166309D01*
X0421326Y0166184D01*
X0421355Y0166064D01*
X0421380Y0165956D01*
X0421384Y0165906D01*
X0421392Y0165864D01*
X0421397Y0165823D01*
Y0165789D01*
X0421401Y0165764D01*
Y0165744D01*
Y0165731D01*
Y0165727D01*
X0421397Y0165639D01*
X0421392Y0165556D01*
X0421384Y0165473D01*
X0421372Y0165398D01*
X0421359Y0165328D01*
X0421343Y0165261D01*
X0421326Y0165199D01*
X0421309Y0165140D01*
X0421293Y0165090D01*
X0421280Y0165045D01*
X0421264Y0165007D01*
X0421251Y0164974D01*
X0421239Y0164949D01*
X0421230Y0164932D01*
X0421222Y0164920D01*
Y0164916D01*
X0421147Y0164799D01*
X0421064Y0164695D01*
X0420976Y0164608D01*
X0420893Y0164537D01*
X0420814Y0164483D01*
X0420785Y0164458D01*
X0420756Y0164441D01*
X0420731Y0164425D01*
X0420714Y0164417D01*
X0420702Y0164412D01*
X0420698Y0164408D01*
X0420569Y0164350D01*
X0420440Y0164308D01*
X0420315Y0164279D01*
X0420203Y0164258D01*
X0420153Y0164250D01*
X0420107Y0164246D01*
X0420070Y0164242D01*
X0420036D01*
X0420007Y0164238D01*
X0419970D01*
X0419857Y0164242D01*
X0419749Y0164254D01*
X0419645Y0164275D01*
X0419550Y0164304D01*
X0419458Y0164333D01*
X0419375Y0164367D01*
X0419296Y0164404D01*
X0419225Y0164446D01*
X0419163Y0164483D01*
X0419109Y0164521D01*
X0419059Y0164554D01*
X0419021Y0164587D01*
X0418988Y0164612D01*
X0418963Y0164633D01*
X0418951Y0164645D01*
X0418946Y0164649D01*
X0418876Y0164728D01*
X0418813Y0164816D01*
X0418759Y0164899D01*
X0418709Y0164991D01*
X0418672Y0165078D01*
X0418639Y0165165D01*
X0418609Y0165249D01*
X0418589Y0165332D01*
X0418572Y0165407D01*
X0418560Y0165477D01*
X0418551Y0165540D01*
X0418543Y0165594D01*
Y0165635D01*
X0418539Y0165669D01*
Y0165689D01*
Y0165698D01*
X0418543Y0165814D01*
X0418555Y0165922D01*
X0418576Y0166026D01*
X0418601Y0166122D01*
X0418630Y0166214D01*
X0418668Y0166301D01*
X0418701Y0166380D01*
X0418738Y0166451D01*
X0418780Y0166513D01*
X0418813Y0166571D01*
X0418847Y0166617D01*
X0418880Y0166659D01*
X0418905Y0166692D01*
X0418926Y0166713D01*
X0418938Y0166729D01*
X0418942Y0166734D01*
X0419021Y0166804D01*
X0419100Y0166871D01*
X0419188Y0166925D01*
X0419275Y0166971D01*
X0419358Y0167012D01*
X0419446Y0167046D01*
X0419529Y0167071D01*
X0419608Y0167095D01*
X0419683Y0167112D01*
X0419753Y0167125D01*
X0419816Y0167133D01*
X0419870Y0167137D01*
X0419911Y0167141D01*
X0419945Y0167145D01*
X0420049D01*
X0420124Y0167137D01*
D02*
G37*
G36*
X0367699D02*
X0367837Y0167116D01*
X0367961Y0167087D01*
X0368020Y0167071D01*
X0368074Y0167054D01*
X0368120Y0167037D01*
X0368161Y0167021D01*
X0368199Y0167004D01*
X0368232Y0166991D01*
X0368257Y0166979D01*
X0368273Y0166971D01*
X0368286Y0166967D01*
X0368290Y0166962D01*
X0368407Y0166887D01*
X0368506Y0166804D01*
X0368594Y0166717D01*
X0368669Y0166634D01*
X0368723Y0166559D01*
X0368748Y0166526D01*
X0368764Y0166497D01*
X0368777Y0166472D01*
X0368789Y0166455D01*
X0368793Y0166442D01*
X0368798Y0166438D01*
X0368831Y0166376D01*
X0368856Y0166309D01*
X0368902Y0166184D01*
X0368931Y0166064D01*
X0368956Y0165956D01*
X0368960Y0165906D01*
X0368968Y0165864D01*
X0368972Y0165823D01*
Y0165789D01*
X0368976Y0165764D01*
Y0165744D01*
Y0165731D01*
Y0165727D01*
X0368972Y0165639D01*
X0368968Y0165556D01*
X0368960Y0165473D01*
X0368947Y0165398D01*
X0368935Y0165328D01*
X0368918Y0165261D01*
X0368902Y0165199D01*
X0368885Y0165140D01*
X0368868Y0165090D01*
X0368856Y0165045D01*
X0368839Y0165007D01*
X0368827Y0164974D01*
X0368814Y0164949D01*
X0368806Y0164932D01*
X0368798Y0164920D01*
Y0164916D01*
X0368723Y0164799D01*
X0368639Y0164695D01*
X0368552Y0164608D01*
X0368469Y0164537D01*
X0368390Y0164483D01*
X0368361Y0164458D01*
X0368332Y0164441D01*
X0368307Y0164425D01*
X0368290Y0164417D01*
X0368278Y0164412D01*
X0368273Y0164408D01*
X0368144Y0164350D01*
X0368016Y0164308D01*
X0367891Y0164279D01*
X0367778Y0164258D01*
X0367728Y0164250D01*
X0367683Y0164246D01*
X0367645Y0164242D01*
X0367612D01*
X0367583Y0164238D01*
X0367545D01*
X0367433Y0164242D01*
X0367325Y0164254D01*
X0367221Y0164275D01*
X0367125Y0164304D01*
X0367034Y0164333D01*
X0366951Y0164367D01*
X0366872Y0164404D01*
X0366801Y0164446D01*
X0366738Y0164483D01*
X0366684Y0164521D01*
X0366634Y0164554D01*
X0366597Y0164587D01*
X0366564Y0164612D01*
X0366539Y0164633D01*
X0366526Y0164645D01*
X0366522Y0164649D01*
X0366451Y0164728D01*
X0366389Y0164816D01*
X0366335Y0164899D01*
X0366285Y0164991D01*
X0366248Y0165078D01*
X0366214Y0165165D01*
X0366185Y0165249D01*
X0366164Y0165332D01*
X0366148Y0165407D01*
X0366135Y0165477D01*
X0366127Y0165540D01*
X0366119Y0165594D01*
Y0165635D01*
X0366114Y0165669D01*
Y0165689D01*
Y0165698D01*
X0366119Y0165814D01*
X0366131Y0165922D01*
X0366152Y0166026D01*
X0366177Y0166122D01*
X0366206Y0166214D01*
X0366243Y0166301D01*
X0366277Y0166380D01*
X0366314Y0166451D01*
X0366356Y0166513D01*
X0366389Y0166571D01*
X0366422Y0166617D01*
X0366456Y0166659D01*
X0366480Y0166692D01*
X0366501Y0166713D01*
X0366514Y0166729D01*
X0366518Y0166734D01*
X0366597Y0166804D01*
X0366676Y0166871D01*
X0366763Y0166925D01*
X0366851Y0166971D01*
X0366934Y0167012D01*
X0367021Y0167046D01*
X0367105Y0167071D01*
X0367183Y0167095D01*
X0367258Y0167112D01*
X0367329Y0167125D01*
X0367391Y0167133D01*
X0367446Y0167137D01*
X0367487Y0167141D01*
X0367520Y0167145D01*
X0367624D01*
X0367699Y0167137D01*
D02*
G37*
G36*
X0385267D02*
X0385404Y0167116D01*
X0385529Y0167087D01*
X0385587Y0167071D01*
X0385641Y0167054D01*
X0385687Y0167037D01*
X0385729Y0167021D01*
X0385766Y0167004D01*
X0385800Y0166991D01*
X0385824Y0166979D01*
X0385841Y0166971D01*
X0385854Y0166967D01*
X0385858Y0166962D01*
X0385974Y0166887D01*
X0386074Y0166804D01*
X0386161Y0166717D01*
X0386236Y0166634D01*
X0386290Y0166559D01*
X0386315Y0166526D01*
X0386332Y0166497D01*
X0386345Y0166472D01*
X0386357Y0166455D01*
X0386361Y0166442D01*
X0386365Y0166438D01*
X0386399Y0166376D01*
X0386423Y0166309D01*
X0386469Y0166184D01*
X0386498Y0166064D01*
X0386523Y0165956D01*
X0386527Y0165906D01*
X0386536Y0165864D01*
X0386540Y0165823D01*
Y0165789D01*
X0386544Y0165764D01*
Y0165744D01*
Y0165731D01*
Y0165727D01*
X0386540Y0165639D01*
X0386536Y0165556D01*
X0386527Y0165473D01*
X0386515Y0165398D01*
X0386503Y0165328D01*
X0386486Y0165261D01*
X0386469Y0165199D01*
X0386453Y0165140D01*
X0386436Y0165090D01*
X0386423Y0165045D01*
X0386407Y0165007D01*
X0386394Y0164974D01*
X0386382Y0164949D01*
X0386374Y0164932D01*
X0386365Y0164920D01*
Y0164916D01*
X0386290Y0164799D01*
X0386207Y0164695D01*
X0386120Y0164608D01*
X0386037Y0164537D01*
X0385958Y0164483D01*
X0385929Y0164458D01*
X0385899Y0164441D01*
X0385874Y0164425D01*
X0385858Y0164417D01*
X0385845Y0164412D01*
X0385841Y0164408D01*
X0385712Y0164350D01*
X0385583Y0164308D01*
X0385458Y0164279D01*
X0385346Y0164258D01*
X0385296Y0164250D01*
X0385250Y0164246D01*
X0385213Y0164242D01*
X0385180D01*
X0385151Y0164238D01*
X0385113D01*
X0385001Y0164242D01*
X0384893Y0164254D01*
X0384789Y0164275D01*
X0384693Y0164304D01*
X0384601Y0164333D01*
X0384518Y0164367D01*
X0384439Y0164404D01*
X0384368Y0164446D01*
X0384306Y0164483D01*
X0384252Y0164521D01*
X0384202Y0164554D01*
X0384165Y0164587D01*
X0384131Y0164612D01*
X0384106Y0164633D01*
X0384094Y0164645D01*
X0384090Y0164649D01*
X0384019Y0164728D01*
X0383957Y0164816D01*
X0383903Y0164899D01*
X0383853Y0164991D01*
X0383815Y0165078D01*
X0383782Y0165165D01*
X0383753Y0165249D01*
X0383732Y0165332D01*
X0383715Y0165407D01*
X0383703Y0165477D01*
X0383695Y0165540D01*
X0383686Y0165594D01*
Y0165635D01*
X0383682Y0165669D01*
Y0165689D01*
Y0165698D01*
X0383686Y0165814D01*
X0383699Y0165922D01*
X0383719Y0166026D01*
X0383745Y0166122D01*
X0383774Y0166214D01*
X0383811Y0166301D01*
X0383844Y0166380D01*
X0383882Y0166451D01*
X0383923Y0166513D01*
X0383957Y0166571D01*
X0383990Y0166617D01*
X0384023Y0166659D01*
X0384048Y0166692D01*
X0384069Y0166713D01*
X0384081Y0166729D01*
X0384086Y0166734D01*
X0384165Y0166804D01*
X0384244Y0166871D01*
X0384331Y0166925D01*
X0384418Y0166971D01*
X0384502Y0167012D01*
X0384589Y0167046D01*
X0384672Y0167071D01*
X0384751Y0167095D01*
X0384826Y0167112D01*
X0384897Y0167125D01*
X0384959Y0167133D01*
X0385013Y0167137D01*
X0385055Y0167141D01*
X0385088Y0167145D01*
X0385192D01*
X0385267Y0167137D01*
D02*
G37*
G36*
X0393304D02*
X0393441Y0167116D01*
X0393566Y0167087D01*
X0393624Y0167071D01*
X0393679Y0167054D01*
X0393724Y0167037D01*
X0393766Y0167021D01*
X0393803Y0167004D01*
X0393837Y0166991D01*
X0393862Y0166979D01*
X0393878Y0166971D01*
X0393891Y0166967D01*
X0393895Y0166962D01*
X0394011Y0166887D01*
X0394111Y0166804D01*
X0394199Y0166717D01*
X0394273Y0166634D01*
X0394327Y0166559D01*
X0394353Y0166526D01*
X0394369Y0166497D01*
X0394382Y0166472D01*
X0394394Y0166455D01*
X0394398Y0166442D01*
X0394402Y0166438D01*
X0394436Y0166376D01*
X0394461Y0166309D01*
X0394506Y0166184D01*
X0394535Y0166064D01*
X0394561Y0165956D01*
X0394565Y0165906D01*
X0394573Y0165864D01*
X0394577Y0165823D01*
Y0165789D01*
X0394581Y0165764D01*
Y0165744D01*
Y0165731D01*
Y0165727D01*
X0394577Y0165639D01*
X0394573Y0165556D01*
X0394565Y0165473D01*
X0394552Y0165398D01*
X0394540Y0165328D01*
X0394523Y0165261D01*
X0394506Y0165199D01*
X0394490Y0165140D01*
X0394473Y0165090D01*
X0394461Y0165045D01*
X0394444Y0165007D01*
X0394431Y0164974D01*
X0394419Y0164949D01*
X0394411Y0164932D01*
X0394402Y0164920D01*
Y0164916D01*
X0394327Y0164799D01*
X0394244Y0164695D01*
X0394157Y0164608D01*
X0394074Y0164537D01*
X0393995Y0164483D01*
X0393966Y0164458D01*
X0393936Y0164441D01*
X0393912Y0164425D01*
X0393895Y0164417D01*
X0393882Y0164412D01*
X0393878Y0164408D01*
X0393749Y0164350D01*
X0393620Y0164308D01*
X0393495Y0164279D01*
X0393383Y0164258D01*
X0393333Y0164250D01*
X0393287Y0164246D01*
X0393250Y0164242D01*
X0393217D01*
X0393188Y0164238D01*
X0393150D01*
X0393038Y0164242D01*
X0392930Y0164254D01*
X0392826Y0164275D01*
X0392730Y0164304D01*
X0392639Y0164333D01*
X0392555Y0164367D01*
X0392476Y0164404D01*
X0392406Y0164446D01*
X0392343Y0164483D01*
X0392289Y0164521D01*
X0392239Y0164554D01*
X0392202Y0164587D01*
X0392168Y0164612D01*
X0392144Y0164633D01*
X0392131Y0164645D01*
X0392127Y0164649D01*
X0392056Y0164728D01*
X0391994Y0164816D01*
X0391940Y0164899D01*
X0391890Y0164991D01*
X0391852Y0165078D01*
X0391819Y0165165D01*
X0391790Y0165249D01*
X0391769Y0165332D01*
X0391753Y0165407D01*
X0391740Y0165477D01*
X0391732Y0165540D01*
X0391723Y0165594D01*
Y0165635D01*
X0391719Y0165669D01*
Y0165689D01*
Y0165698D01*
X0391723Y0165814D01*
X0391736Y0165922D01*
X0391757Y0166026D01*
X0391782Y0166122D01*
X0391811Y0166214D01*
X0391848Y0166301D01*
X0391881Y0166380D01*
X0391919Y0166451D01*
X0391961Y0166513D01*
X0391994Y0166571D01*
X0392027Y0166617D01*
X0392060Y0166659D01*
X0392085Y0166692D01*
X0392106Y0166713D01*
X0392119Y0166729D01*
X0392123Y0166734D01*
X0392202Y0166804D01*
X0392281Y0166871D01*
X0392368Y0166925D01*
X0392456Y0166971D01*
X0392539Y0167012D01*
X0392626Y0167046D01*
X0392709Y0167071D01*
X0392788Y0167095D01*
X0392863Y0167112D01*
X0392934Y0167125D01*
X0392996Y0167133D01*
X0393050Y0167137D01*
X0393092Y0167141D01*
X0393125Y0167145D01*
X0393229D01*
X0393304Y0167137D01*
D02*
G37*
G36*
X0330917Y0167141D02*
X0331016Y0167129D01*
X0331108Y0167108D01*
X0331191Y0167083D01*
X0331274Y0167054D01*
X0331349Y0167021D01*
X0331420Y0166983D01*
X0331482Y0166950D01*
X0331537Y0166912D01*
X0331586Y0166875D01*
X0331632Y0166842D01*
X0331665Y0166813D01*
X0331695Y0166788D01*
X0331715Y0166767D01*
X0331728Y0166754D01*
X0331732Y0166750D01*
X0331794Y0166675D01*
X0331849Y0166592D01*
X0331898Y0166505D01*
X0331940Y0166417D01*
X0331973Y0166326D01*
X0332002Y0166234D01*
X0332027Y0166147D01*
X0332044Y0166064D01*
X0332061Y0165981D01*
X0332069Y0165910D01*
X0332077Y0165839D01*
X0332086Y0165781D01*
Y0165735D01*
X0332090Y0165698D01*
Y0165677D01*
Y0165669D01*
X0332086Y0165565D01*
X0332077Y0165461D01*
X0332065Y0165365D01*
X0332048Y0165273D01*
X0332027Y0165190D01*
X0332002Y0165111D01*
X0331977Y0165036D01*
X0331953Y0164970D01*
X0331927Y0164911D01*
X0331903Y0164857D01*
X0331878Y0164816D01*
X0331857Y0164778D01*
X0331840Y0164745D01*
X0331828Y0164724D01*
X0331819Y0164712D01*
X0331815Y0164708D01*
X0331745Y0164625D01*
X0331670Y0164554D01*
X0331586Y0164491D01*
X0331503Y0164437D01*
X0331412Y0164392D01*
X0331324Y0164354D01*
X0331237Y0164321D01*
X0331150Y0164296D01*
X0331066Y0164275D01*
X0330992Y0164263D01*
X0330921Y0164250D01*
X0330863Y0164246D01*
X0330813Y0164242D01*
X0330775Y0164238D01*
X0330742D01*
X0330659Y0164242D01*
X0330580Y0164246D01*
X0330501Y0164258D01*
X0330430Y0164271D01*
X0330363Y0164287D01*
X0330301Y0164304D01*
X0330243Y0164321D01*
X0330189Y0164342D01*
X0330143Y0164362D01*
X0330101Y0164379D01*
X0330064Y0164396D01*
X0330035Y0164412D01*
X0330010Y0164425D01*
X0329993Y0164437D01*
X0329985Y0164441D01*
X0329981Y0164446D01*
X0329927Y0164487D01*
X0329872Y0164533D01*
X0329781Y0164633D01*
X0329702Y0164733D01*
X0329640Y0164832D01*
X0329615Y0164878D01*
X0329594Y0164924D01*
X0329573Y0164961D01*
X0329556Y0164995D01*
X0329548Y0165024D01*
X0329540Y0165045D01*
X0329531Y0165057D01*
Y0165061D01*
X0330263Y0165186D01*
X0330289Y0165111D01*
X0330318Y0165049D01*
X0330347Y0164995D01*
X0330380Y0164953D01*
X0330405Y0164920D01*
X0330426Y0164895D01*
X0330442Y0164882D01*
X0330447Y0164878D01*
X0330492Y0164849D01*
X0330542Y0164824D01*
X0330588Y0164807D01*
X0330634Y0164799D01*
X0330675Y0164791D01*
X0330704Y0164787D01*
X0330734D01*
X0330779Y0164791D01*
X0330825Y0164795D01*
X0330908Y0164816D01*
X0330983Y0164845D01*
X0331046Y0164878D01*
X0331096Y0164907D01*
X0331133Y0164936D01*
X0331154Y0164957D01*
X0331158Y0164966D01*
X0331162D01*
X0331220Y0165041D01*
X0331262Y0165124D01*
X0331291Y0165211D01*
X0331312Y0165294D01*
X0331324Y0165365D01*
X0331329Y0165398D01*
X0331333Y0165427D01*
X0331337Y0165448D01*
Y0165469D01*
Y0165477D01*
Y0165481D01*
X0329494D01*
Y0165635D01*
X0329506Y0165777D01*
X0329523Y0165910D01*
X0329544Y0166035D01*
X0329569Y0166147D01*
X0329598Y0166247D01*
X0329627Y0166343D01*
X0329660Y0166426D01*
X0329694Y0166497D01*
X0329727Y0166559D01*
X0329756Y0166613D01*
X0329785Y0166659D01*
X0329806Y0166692D01*
X0329823Y0166713D01*
X0329835Y0166729D01*
X0329839Y0166734D01*
X0329910Y0166804D01*
X0329985Y0166871D01*
X0330064Y0166925D01*
X0330143Y0166971D01*
X0330226Y0167012D01*
X0330305Y0167046D01*
X0330384Y0167071D01*
X0330463Y0167095D01*
X0330534Y0167112D01*
X0330601Y0167125D01*
X0330663Y0167133D01*
X0330713Y0167137D01*
X0330759Y0167141D01*
X0330788Y0167145D01*
X0330817D01*
X0330917Y0167141D01*
D02*
G37*
G36*
X0357470Y0168198D02*
X0357611Y0168181D01*
X0357745Y0168152D01*
X0357869Y0168119D01*
X0357986Y0168077D01*
X0358090Y0168036D01*
X0358190Y0167986D01*
X0358277Y0167936D01*
X0358356Y0167886D01*
X0358427Y0167840D01*
X0358485Y0167794D01*
X0358535Y0167753D01*
X0358576Y0167719D01*
X0358601Y0167695D01*
X0358622Y0167674D01*
X0358626Y0167670D01*
X0358714Y0167566D01*
X0358789Y0167453D01*
X0358855Y0167337D01*
X0358909Y0167216D01*
X0358959Y0167091D01*
X0358997Y0166967D01*
X0359030Y0166846D01*
X0359055Y0166725D01*
X0359076Y0166617D01*
X0359092Y0166513D01*
X0359101Y0166417D01*
X0359109Y0166338D01*
X0359113Y0166272D01*
X0359117Y0166247D01*
Y0166222D01*
Y0166205D01*
Y0166193D01*
Y0166184D01*
Y0166180D01*
X0359113Y0166014D01*
X0359097Y0165860D01*
X0359071Y0165714D01*
X0359042Y0165577D01*
X0359005Y0165448D01*
X0358963Y0165332D01*
X0358918Y0165224D01*
X0358872Y0165128D01*
X0358826Y0165041D01*
X0358780Y0164966D01*
X0358739Y0164903D01*
X0358701Y0164849D01*
X0358672Y0164807D01*
X0358647Y0164778D01*
X0358631Y0164758D01*
X0358626Y0164753D01*
X0358531Y0164662D01*
X0358431Y0164583D01*
X0358327Y0164512D01*
X0358223Y0164454D01*
X0358119Y0164404D01*
X0358015Y0164362D01*
X0357911Y0164325D01*
X0357815Y0164300D01*
X0357724Y0164275D01*
X0357636Y0164263D01*
X0357561Y0164250D01*
X0357499Y0164242D01*
X0357445Y0164238D01*
X0357403Y0164233D01*
X0357370D01*
X0357258Y0164238D01*
X0357150Y0164246D01*
X0357046Y0164263D01*
X0356950Y0164279D01*
X0356858Y0164304D01*
X0356775Y0164329D01*
X0356696Y0164358D01*
X0356630Y0164387D01*
X0356563Y0164412D01*
X0356509Y0164441D01*
X0356463Y0164466D01*
X0356422Y0164491D01*
X0356393Y0164508D01*
X0356367Y0164525D01*
X0356355Y0164533D01*
X0356351Y0164537D01*
X0356276Y0164600D01*
X0356209Y0164666D01*
X0356147Y0164737D01*
X0356089Y0164816D01*
X0356039Y0164891D01*
X0355989Y0164970D01*
X0355947Y0165049D01*
X0355910Y0165124D01*
X0355877Y0165194D01*
X0355848Y0165261D01*
X0355827Y0165323D01*
X0355806Y0165373D01*
X0355789Y0165419D01*
X0355781Y0165448D01*
X0355773Y0165469D01*
Y0165477D01*
X0356526Y0165710D01*
X0356546Y0165635D01*
X0356567Y0165560D01*
X0356592Y0165494D01*
X0356617Y0165436D01*
X0356646Y0165377D01*
X0356671Y0165328D01*
X0356700Y0165282D01*
X0356725Y0165240D01*
X0356750Y0165207D01*
X0356775Y0165174D01*
X0356796Y0165149D01*
X0356813Y0165128D01*
X0356829Y0165111D01*
X0356842Y0165099D01*
X0356846Y0165095D01*
X0356850Y0165090D01*
X0356892Y0165057D01*
X0356937Y0165028D01*
X0357025Y0164978D01*
X0357112Y0164945D01*
X0357195Y0164920D01*
X0357270Y0164907D01*
X0357299Y0164899D01*
X0357329D01*
X0357349Y0164895D01*
X0357378D01*
X0357453Y0164899D01*
X0357528Y0164907D01*
X0357599Y0164924D01*
X0357661Y0164945D01*
X0357724Y0164966D01*
X0357778Y0164991D01*
X0357832Y0165020D01*
X0357878Y0165049D01*
X0357919Y0165078D01*
X0357957Y0165107D01*
X0357986Y0165132D01*
X0358015Y0165153D01*
X0358032Y0165174D01*
X0358048Y0165190D01*
X0358056Y0165199D01*
X0358061Y0165203D01*
X0358106Y0165265D01*
X0358144Y0165336D01*
X0358181Y0165411D01*
X0358210Y0165494D01*
X0358235Y0165581D01*
X0358256Y0165665D01*
X0358285Y0165835D01*
X0358298Y0165918D01*
X0358306Y0165993D01*
X0358310Y0166060D01*
X0358314Y0166122D01*
X0358319Y0166168D01*
Y0166205D01*
Y0166230D01*
Y0166239D01*
X0358314Y0166363D01*
X0358306Y0166480D01*
X0358294Y0166584D01*
X0358277Y0166684D01*
X0358256Y0166775D01*
X0358235Y0166854D01*
X0358210Y0166929D01*
X0358185Y0166991D01*
X0358165Y0167050D01*
X0358140Y0167100D01*
X0358119Y0167141D01*
X0358098Y0167175D01*
X0358081Y0167200D01*
X0358069Y0167220D01*
X0358061Y0167229D01*
X0358056Y0167233D01*
X0358007Y0167287D01*
X0357948Y0167333D01*
X0357894Y0167374D01*
X0357836Y0167412D01*
X0357778Y0167441D01*
X0357719Y0167466D01*
X0357661Y0167487D01*
X0357607Y0167503D01*
X0357557Y0167516D01*
X0357511Y0167524D01*
X0357470Y0167532D01*
X0357433Y0167536D01*
X0357403Y0167541D01*
X0357362D01*
X0357249Y0167532D01*
X0357150Y0167511D01*
X0357062Y0167487D01*
X0356983Y0167453D01*
X0356921Y0167420D01*
X0356896Y0167408D01*
X0356875Y0167395D01*
X0356858Y0167383D01*
X0356846Y0167374D01*
X0356842Y0167370D01*
X0356838Y0167366D01*
X0356763Y0167295D01*
X0356700Y0167220D01*
X0356650Y0167141D01*
X0356613Y0167066D01*
X0356584Y0167000D01*
X0356571Y0166971D01*
X0356563Y0166946D01*
X0356559Y0166925D01*
X0356555Y0166908D01*
X0356551Y0166900D01*
Y0166896D01*
X0355785Y0167079D01*
X0355810Y0167162D01*
X0355839Y0167241D01*
X0355873Y0167312D01*
X0355902Y0167383D01*
X0355935Y0167445D01*
X0355968Y0167503D01*
X0356001Y0167553D01*
X0356031Y0167603D01*
X0356064Y0167645D01*
X0356089Y0167682D01*
X0356114Y0167711D01*
X0356139Y0167736D01*
X0356155Y0167757D01*
X0356168Y0167769D01*
X0356176Y0167778D01*
X0356180Y0167782D01*
X0356268Y0167857D01*
X0356355Y0167919D01*
X0356451Y0167977D01*
X0356546Y0168023D01*
X0356642Y0168065D01*
X0356738Y0168098D01*
X0356829Y0168127D01*
X0356917Y0168148D01*
X0357000Y0168169D01*
X0357079Y0168181D01*
X0357150Y0168190D01*
X0357208Y0168194D01*
X0357258Y0168198D01*
X0357291Y0168202D01*
X0357324D01*
X0357470Y0168198D01*
D02*
G37*
G36*
X0377633Y0164292D02*
X0377658Y0164208D01*
X0377688Y0164138D01*
X0377721Y0164071D01*
X0377750Y0164017D01*
X0377779Y0163971D01*
X0377800Y0163942D01*
X0377817Y0163921D01*
X0377821Y0163913D01*
X0377871Y0163863D01*
X0377929Y0163826D01*
X0377995Y0163797D01*
X0378054Y0163780D01*
X0378112Y0163768D01*
X0378158Y0163763D01*
X0378174Y0163759D01*
X0378199D01*
X0378303Y0163763D01*
X0378357Y0163772D01*
X0378403Y0163780D01*
X0378445Y0163784D01*
X0378478Y0163793D01*
X0378499Y0163797D01*
X0378507D01*
X0378440Y0163218D01*
X0378366Y0163202D01*
X0378291Y0163193D01*
X0378224Y0163185D01*
X0378158Y0163177D01*
X0378108D01*
X0378066Y0163173D01*
X0378029D01*
X0377950Y0163177D01*
X0377879Y0163181D01*
X0377817Y0163189D01*
X0377762Y0163198D01*
X0377717Y0163206D01*
X0377683Y0163210D01*
X0377663Y0163218D01*
X0377654D01*
X0377596Y0163235D01*
X0377542Y0163256D01*
X0377492Y0163277D01*
X0377450Y0163297D01*
X0377421Y0163314D01*
X0377396Y0163331D01*
X0377380Y0163339D01*
X0377376Y0163343D01*
X0377334Y0163376D01*
X0377292Y0163410D01*
X0377259Y0163443D01*
X0377230Y0163476D01*
X0377205Y0163505D01*
X0377188Y0163530D01*
X0377176Y0163547D01*
X0377172Y0163551D01*
X0377138Y0163605D01*
X0377105Y0163663D01*
X0377076Y0163726D01*
X0377047Y0163784D01*
X0377022Y0163838D01*
X0377005Y0163880D01*
X0376997Y0163897D01*
X0376993Y0163909D01*
X0376989Y0163917D01*
Y0163921D01*
X0376810Y0164404D01*
X0375828Y0167083D01*
X0376589D01*
X0377242Y0165103D01*
X0377904Y0167083D01*
X0378686D01*
X0377633Y0164292D01*
D02*
G37*
G36*
X0334099Y0164300D02*
X0333438D01*
X0332331Y0167083D01*
X0333088D01*
X0333616Y0165660D01*
X0333646Y0165573D01*
X0333658Y0165535D01*
X0333671Y0165498D01*
X0333683Y0165469D01*
X0333687Y0165444D01*
X0333696Y0165427D01*
Y0165423D01*
X0333704Y0165398D01*
X0333712Y0165365D01*
X0333725Y0165323D01*
X0333737Y0165286D01*
X0333750Y0165249D01*
X0333762Y0165215D01*
X0333766Y0165194D01*
X0333770Y0165190D01*
Y0165186D01*
X0333920Y0165660D01*
X0334444Y0167083D01*
X0335218D01*
X0334099Y0164300D01*
D02*
G37*
G36*
X0365499Y0167636D02*
Y0167083D01*
X0365836D01*
Y0166497D01*
X0365499D01*
Y0165282D01*
Y0165211D01*
Y0165149D01*
Y0165090D01*
X0365495Y0165036D01*
Y0164986D01*
X0365490Y0164945D01*
Y0164907D01*
X0365486Y0164874D01*
Y0164849D01*
Y0164824D01*
X0365482Y0164803D01*
Y0164787D01*
X0365478Y0164770D01*
Y0164762D01*
X0365465Y0164699D01*
X0365449Y0164641D01*
X0365432Y0164591D01*
X0365416Y0164550D01*
X0365399Y0164521D01*
X0365386Y0164496D01*
X0365378Y0164479D01*
X0365374Y0164475D01*
X0365341Y0164437D01*
X0365307Y0164404D01*
X0365266Y0164375D01*
X0365228Y0164350D01*
X0365195Y0164329D01*
X0365166Y0164317D01*
X0365149Y0164308D01*
X0365141Y0164304D01*
X0365079Y0164283D01*
X0365016Y0164267D01*
X0364958Y0164254D01*
X0364904Y0164246D01*
X0364854Y0164242D01*
X0364816Y0164238D01*
X0364783D01*
X0364667Y0164242D01*
X0364554Y0164254D01*
X0364455Y0164271D01*
X0364371Y0164292D01*
X0364334Y0164300D01*
X0364301Y0164313D01*
X0364271Y0164321D01*
X0364247Y0164329D01*
X0364226Y0164337D01*
X0364213Y0164342D01*
X0364205Y0164346D01*
X0364201D01*
X0364267Y0164916D01*
X0364334Y0164895D01*
X0364392Y0164878D01*
X0364446Y0164866D01*
X0364488Y0164857D01*
X0364521Y0164853D01*
X0364542Y0164849D01*
X0364563D01*
X0364613Y0164853D01*
X0364650Y0164866D01*
X0364667Y0164874D01*
X0364679Y0164878D01*
X0364683Y0164882D01*
X0364687D01*
X0364717Y0164911D01*
X0364737Y0164941D01*
X0364746Y0164966D01*
X0364750Y0164970D01*
Y0164974D01*
Y0164986D01*
X0364754Y0165007D01*
Y0165032D01*
X0364758Y0165061D01*
Y0165128D01*
X0364762Y0165194D01*
Y0165261D01*
Y0165294D01*
Y0165319D01*
Y0165340D01*
Y0165357D01*
Y0165369D01*
Y0165373D01*
Y0166497D01*
X0364259D01*
Y0167083D01*
X0364762D01*
Y0168069D01*
X0365499Y0167636D01*
D02*
G37*
G36*
X0397651D02*
Y0167083D01*
X0397988D01*
Y0166497D01*
X0397651D01*
Y0165282D01*
Y0165211D01*
Y0165149D01*
Y0165090D01*
X0397647Y0165036D01*
Y0164986D01*
X0397643Y0164945D01*
Y0164907D01*
X0397639Y0164874D01*
Y0164849D01*
Y0164824D01*
X0397635Y0164803D01*
Y0164787D01*
X0397631Y0164770D01*
Y0164762D01*
X0397618Y0164699D01*
X0397601Y0164641D01*
X0397585Y0164591D01*
X0397568Y0164550D01*
X0397551Y0164521D01*
X0397539Y0164496D01*
X0397531Y0164479D01*
X0397527Y0164475D01*
X0397493Y0164437D01*
X0397460Y0164404D01*
X0397418Y0164375D01*
X0397381Y0164350D01*
X0397348Y0164329D01*
X0397319Y0164317D01*
X0397302Y0164308D01*
X0397294Y0164304D01*
X0397231Y0164283D01*
X0397169Y0164267D01*
X0397111Y0164254D01*
X0397057Y0164246D01*
X0397007Y0164242D01*
X0396969Y0164238D01*
X0396936D01*
X0396819Y0164242D01*
X0396707Y0164254D01*
X0396607Y0164271D01*
X0396524Y0164292D01*
X0396487Y0164300D01*
X0396453Y0164313D01*
X0396424Y0164321D01*
X0396399Y0164329D01*
X0396378Y0164337D01*
X0396366Y0164342D01*
X0396358Y0164346D01*
X0396353D01*
X0396420Y0164916D01*
X0396487Y0164895D01*
X0396545Y0164878D01*
X0396599Y0164866D01*
X0396640Y0164857D01*
X0396674Y0164853D01*
X0396695Y0164849D01*
X0396715D01*
X0396765Y0164853D01*
X0396803Y0164866D01*
X0396819Y0164874D01*
X0396832Y0164878D01*
X0396836Y0164882D01*
X0396840D01*
X0396869Y0164911D01*
X0396890Y0164941D01*
X0396898Y0164966D01*
X0396903Y0164970D01*
Y0164974D01*
Y0164986D01*
X0396907Y0165007D01*
Y0165032D01*
X0396911Y0165061D01*
Y0165128D01*
X0396915Y0165194D01*
Y0165261D01*
Y0165294D01*
Y0165319D01*
Y0165340D01*
Y0165357D01*
Y0165369D01*
Y0165373D01*
Y0166497D01*
X0396412D01*
Y0167083D01*
X0396915D01*
Y0168069D01*
X0397651Y0167636D01*
D02*
G37*
G36*
X0353597Y0168198D02*
X0353738Y0168181D01*
X0353871Y0168152D01*
X0353996Y0168119D01*
X0354113Y0168077D01*
X0354217Y0168036D01*
X0354317Y0167986D01*
X0354404Y0167936D01*
X0354483Y0167886D01*
X0354554Y0167840D01*
X0354612Y0167794D01*
X0354662Y0167753D01*
X0354703Y0167719D01*
X0354729Y0167695D01*
X0354749Y0167674D01*
X0354753Y0167670D01*
X0354841Y0167566D01*
X0354916Y0167453D01*
X0354982Y0167337D01*
X0355036Y0167216D01*
X0355086Y0167091D01*
X0355124Y0166967D01*
X0355157Y0166846D01*
X0355182Y0166725D01*
X0355203Y0166617D01*
X0355219Y0166513D01*
X0355228Y0166417D01*
X0355236Y0166338D01*
X0355240Y0166272D01*
X0355244Y0166247D01*
Y0166222D01*
Y0166205D01*
Y0166193D01*
Y0166184D01*
Y0166180D01*
X0355240Y0166014D01*
X0355223Y0165860D01*
X0355199Y0165714D01*
X0355169Y0165577D01*
X0355132Y0165448D01*
X0355090Y0165332D01*
X0355045Y0165224D01*
X0354999Y0165128D01*
X0354953Y0165041D01*
X0354907Y0164966D01*
X0354866Y0164903D01*
X0354828Y0164849D01*
X0354799Y0164807D01*
X0354774Y0164778D01*
X0354758Y0164758D01*
X0354753Y0164753D01*
X0354658Y0164662D01*
X0354558Y0164583D01*
X0354454Y0164512D01*
X0354350Y0164454D01*
X0354246Y0164404D01*
X0354142Y0164362D01*
X0354038Y0164325D01*
X0353942Y0164300D01*
X0353851Y0164275D01*
X0353763Y0164263D01*
X0353689Y0164250D01*
X0353626Y0164242D01*
X0353572Y0164238D01*
X0353530Y0164233D01*
X0353497D01*
X0353385Y0164238D01*
X0353277Y0164246D01*
X0353173Y0164263D01*
X0353077Y0164279D01*
X0352985Y0164304D01*
X0352902Y0164329D01*
X0352823Y0164358D01*
X0352757Y0164387D01*
X0352690Y0164412D01*
X0352636Y0164441D01*
X0352590Y0164466D01*
X0352549Y0164491D01*
X0352519Y0164508D01*
X0352495Y0164525D01*
X0352482Y0164533D01*
X0352478Y0164537D01*
X0352403Y0164600D01*
X0352337Y0164666D01*
X0352274Y0164737D01*
X0352216Y0164816D01*
X0352166Y0164891D01*
X0352116Y0164970D01*
X0352074Y0165049D01*
X0352037Y0165124D01*
X0352004Y0165194D01*
X0351975Y0165261D01*
X0351954Y0165323D01*
X0351933Y0165373D01*
X0351916Y0165419D01*
X0351908Y0165448D01*
X0351900Y0165469D01*
Y0165477D01*
X0352653Y0165710D01*
X0352673Y0165635D01*
X0352694Y0165560D01*
X0352719Y0165494D01*
X0352744Y0165436D01*
X0352773Y0165377D01*
X0352798Y0165328D01*
X0352827Y0165282D01*
X0352852Y0165240D01*
X0352877Y0165207D01*
X0352902Y0165174D01*
X0352923Y0165149D01*
X0352940Y0165128D01*
X0352956Y0165111D01*
X0352969Y0165099D01*
X0352973Y0165095D01*
X0352977Y0165090D01*
X0353019Y0165057D01*
X0353064Y0165028D01*
X0353152Y0164978D01*
X0353239Y0164945D01*
X0353322Y0164920D01*
X0353397Y0164907D01*
X0353426Y0164899D01*
X0353455D01*
X0353476Y0164895D01*
X0353505D01*
X0353580Y0164899D01*
X0353655Y0164907D01*
X0353726Y0164924D01*
X0353788Y0164945D01*
X0353851Y0164966D01*
X0353905Y0164991D01*
X0353959Y0165020D01*
X0354005Y0165049D01*
X0354046Y0165078D01*
X0354084Y0165107D01*
X0354113Y0165132D01*
X0354142Y0165153D01*
X0354159Y0165174D01*
X0354175Y0165190D01*
X0354184Y0165199D01*
X0354188Y0165203D01*
X0354233Y0165265D01*
X0354271Y0165336D01*
X0354308Y0165411D01*
X0354337Y0165494D01*
X0354362Y0165581D01*
X0354383Y0165665D01*
X0354412Y0165835D01*
X0354425Y0165918D01*
X0354433Y0165993D01*
X0354437Y0166060D01*
X0354441Y0166122D01*
X0354446Y0166168D01*
Y0166205D01*
Y0166230D01*
Y0166239D01*
X0354441Y0166363D01*
X0354433Y0166480D01*
X0354421Y0166584D01*
X0354404Y0166684D01*
X0354383Y0166775D01*
X0354362Y0166854D01*
X0354337Y0166929D01*
X0354312Y0166991D01*
X0354292Y0167050D01*
X0354267Y0167100D01*
X0354246Y0167141D01*
X0354225Y0167175D01*
X0354208Y0167200D01*
X0354196Y0167220D01*
X0354188Y0167229D01*
X0354184Y0167233D01*
X0354134Y0167287D01*
X0354075Y0167333D01*
X0354021Y0167374D01*
X0353963Y0167412D01*
X0353905Y0167441D01*
X0353847Y0167466D01*
X0353788Y0167487D01*
X0353734Y0167503D01*
X0353684Y0167516D01*
X0353639Y0167524D01*
X0353597Y0167532D01*
X0353559Y0167536D01*
X0353530Y0167541D01*
X0353489D01*
X0353377Y0167532D01*
X0353277Y0167511D01*
X0353189Y0167487D01*
X0353110Y0167453D01*
X0353048Y0167420D01*
X0353023Y0167408D01*
X0353002Y0167395D01*
X0352985Y0167383D01*
X0352973Y0167374D01*
X0352969Y0167370D01*
X0352965Y0167366D01*
X0352890Y0167295D01*
X0352827Y0167220D01*
X0352777Y0167141D01*
X0352740Y0167066D01*
X0352711Y0167000D01*
X0352698Y0166971D01*
X0352690Y0166946D01*
X0352686Y0166925D01*
X0352682Y0166908D01*
X0352678Y0166900D01*
Y0166896D01*
X0351912Y0167079D01*
X0351937Y0167162D01*
X0351966Y0167241D01*
X0351999Y0167312D01*
X0352029Y0167383D01*
X0352062Y0167445D01*
X0352095Y0167503D01*
X0352129Y0167553D01*
X0352158Y0167603D01*
X0352191Y0167645D01*
X0352216Y0167682D01*
X0352241Y0167711D01*
X0352266Y0167736D01*
X0352282Y0167757D01*
X0352295Y0167769D01*
X0352303Y0167778D01*
X0352307Y0167782D01*
X0352395Y0167857D01*
X0352482Y0167919D01*
X0352578Y0167977D01*
X0352673Y0168023D01*
X0352769Y0168065D01*
X0352865Y0168098D01*
X0352956Y0168127D01*
X0353044Y0168148D01*
X0353127Y0168169D01*
X0353206Y0168181D01*
X0353277Y0168190D01*
X0353335Y0168194D01*
X0353385Y0168198D01*
X0353418Y0168202D01*
X0353451D01*
X0353597Y0168198D01*
D02*
G37*
G36*
X0410639Y0164300D02*
X0409977D01*
X0408871Y0167083D01*
X0409628D01*
X0410156Y0165660D01*
X0410185Y0165573D01*
X0410198Y0165535D01*
X0410210Y0165498D01*
X0410223Y0165469D01*
X0410227Y0165444D01*
X0410235Y0165427D01*
Y0165423D01*
X0410244Y0165398D01*
X0410252Y0165365D01*
X0410264Y0165323D01*
X0410277Y0165286D01*
X0410289Y0165249D01*
X0410302Y0165215D01*
X0410306Y0165194D01*
X0410310Y0165190D01*
Y0165186D01*
X0410460Y0165660D01*
X0410984Y0167083D01*
X0411758D01*
X0410639Y0164300D01*
D02*
G37*
G36*
X0407519Y0167137D02*
X0407606Y0167129D01*
X0407685Y0167116D01*
X0407760Y0167100D01*
X0407827Y0167083D01*
X0407885Y0167066D01*
X0407943Y0167050D01*
X0407989Y0167029D01*
X0408031Y0167012D01*
X0408068Y0166996D01*
X0408097Y0166979D01*
X0408118Y0166967D01*
X0408135Y0166958D01*
X0408143Y0166954D01*
X0408147Y0166950D01*
X0408197Y0166912D01*
X0408243Y0166867D01*
X0408322Y0166775D01*
X0408388Y0166675D01*
X0408442Y0166576D01*
X0408484Y0166488D01*
X0408501Y0166451D01*
X0408513Y0166417D01*
X0408521Y0166388D01*
X0408530Y0166367D01*
X0408534Y0166355D01*
Y0166351D01*
X0407872Y0166230D01*
X0407847Y0166297D01*
X0407818Y0166355D01*
X0407789Y0166405D01*
X0407760Y0166442D01*
X0407735Y0166472D01*
X0407714Y0166488D01*
X0407702Y0166501D01*
X0407698Y0166505D01*
X0407652Y0166530D01*
X0407602Y0166551D01*
X0407548Y0166563D01*
X0407498Y0166576D01*
X0407456Y0166580D01*
X0407419Y0166584D01*
X0407332D01*
X0407282Y0166580D01*
X0407240Y0166576D01*
X0407199Y0166571D01*
X0407128Y0166555D01*
X0407074Y0166538D01*
X0407036Y0166521D01*
X0407007Y0166505D01*
X0406991Y0166497D01*
X0406986Y0166492D01*
X0406949Y0166455D01*
X0406924Y0166405D01*
X0406903Y0166355D01*
X0406891Y0166305D01*
X0406882Y0166259D01*
X0406878Y0166222D01*
Y0166193D01*
Y0166189D01*
Y0166184D01*
Y0166114D01*
X0406920Y0166097D01*
X0406966Y0166080D01*
X0407020Y0166064D01*
X0407074Y0166047D01*
X0407194Y0166018D01*
X0407311Y0165989D01*
X0407369Y0165977D01*
X0407423Y0165964D01*
X0407473Y0165956D01*
X0407515Y0165947D01*
X0407548Y0165939D01*
X0407577Y0165935D01*
X0407594Y0165931D01*
X0407598D01*
X0407669Y0165918D01*
X0407731Y0165902D01*
X0407793Y0165885D01*
X0407852Y0165873D01*
X0407902Y0165856D01*
X0407951Y0165843D01*
X0407997Y0165827D01*
X0408035Y0165814D01*
X0408068Y0165802D01*
X0408101Y0165793D01*
X0408126Y0165781D01*
X0408147Y0165773D01*
X0408164Y0165764D01*
X0408176Y0165760D01*
X0408180Y0165756D01*
X0408184D01*
X0408255Y0165719D01*
X0408318Y0165673D01*
X0408372Y0165627D01*
X0408413Y0165581D01*
X0408451Y0165540D01*
X0408476Y0165506D01*
X0408492Y0165486D01*
X0408497Y0165481D01*
Y0165477D01*
X0408534Y0165407D01*
X0408563Y0165336D01*
X0408580Y0165265D01*
X0408596Y0165199D01*
X0408605Y0165140D01*
X0408609Y0165099D01*
Y0165082D01*
Y0165070D01*
Y0165061D01*
Y0165057D01*
X0408605Y0164991D01*
X0408596Y0164928D01*
X0408588Y0164870D01*
X0408571Y0164816D01*
X0408530Y0164712D01*
X0408509Y0164670D01*
X0408484Y0164629D01*
X0408463Y0164591D01*
X0408442Y0164558D01*
X0408422Y0164533D01*
X0408401Y0164508D01*
X0408384Y0164491D01*
X0408376Y0164479D01*
X0408367Y0164471D01*
X0408363Y0164466D01*
X0408313Y0164425D01*
X0408263Y0164392D01*
X0408209Y0164362D01*
X0408151Y0164333D01*
X0408039Y0164292D01*
X0407931Y0164267D01*
X0407881Y0164258D01*
X0407835Y0164250D01*
X0407793Y0164246D01*
X0407756Y0164242D01*
X0407727Y0164238D01*
X0407685D01*
X0407594Y0164242D01*
X0407511Y0164250D01*
X0407432Y0164267D01*
X0407365Y0164283D01*
X0407307Y0164300D01*
X0407265Y0164317D01*
X0407248Y0164321D01*
X0407236Y0164325D01*
X0407232Y0164329D01*
X0407228D01*
X0407149Y0164367D01*
X0407074Y0164412D01*
X0407003Y0164458D01*
X0406945Y0164500D01*
X0406895Y0164541D01*
X0406857Y0164575D01*
X0406833Y0164595D01*
X0406824Y0164604D01*
X0406820Y0164595D01*
X0406816Y0164583D01*
X0406808Y0164554D01*
X0406803Y0164529D01*
X0406799Y0164521D01*
Y0164516D01*
X0406783Y0164466D01*
X0406770Y0164421D01*
X0406753Y0164383D01*
X0406745Y0164354D01*
X0406737Y0164329D01*
X0406729Y0164313D01*
X0406724Y0164304D01*
Y0164300D01*
X0405996D01*
X0406030Y0164371D01*
X0406059Y0164441D01*
X0406084Y0164504D01*
X0406100Y0164558D01*
X0406113Y0164604D01*
X0406121Y0164641D01*
X0406129Y0164662D01*
Y0164670D01*
X0406134Y0164704D01*
X0406142Y0164745D01*
X0406150Y0164828D01*
X0406154Y0164920D01*
X0406159Y0165007D01*
X0406163Y0165086D01*
Y0165120D01*
Y0165153D01*
Y0165178D01*
Y0165194D01*
Y0165207D01*
Y0165211D01*
X0406150Y0166072D01*
Y0166159D01*
X0406154Y0166239D01*
X0406159Y0166309D01*
X0406167Y0166376D01*
X0406175Y0166438D01*
X0406183Y0166492D01*
X0406192Y0166538D01*
X0406200Y0166580D01*
X0406209Y0166617D01*
X0406217Y0166646D01*
X0406225Y0166675D01*
X0406233Y0166696D01*
X0406242Y0166709D01*
X0406246Y0166721D01*
X0406250Y0166729D01*
X0406292Y0166792D01*
X0406346Y0166850D01*
X0406400Y0166900D01*
X0406458Y0166946D01*
X0406508Y0166979D01*
X0406554Y0167004D01*
X0406566Y0167012D01*
X0406579Y0167021D01*
X0406587Y0167025D01*
X0406591D01*
X0406641Y0167046D01*
X0406691Y0167066D01*
X0406808Y0167095D01*
X0406928Y0167116D01*
X0407049Y0167129D01*
X0407107Y0167137D01*
X0407157Y0167141D01*
X0407207D01*
X0407244Y0167145D01*
X0407427D01*
X0407519Y0167137D01*
D02*
G37*
G36*
X0375237Y0166347D02*
X0374501D01*
Y0167083D01*
X0375237D01*
Y0166347D01*
D02*
G37*
G36*
X0395900Y0167457D02*
X0395164D01*
Y0168140D01*
X0395900D01*
Y0167457D01*
D02*
G37*
G36*
X0306543Y0167137D02*
X0306631Y0167129D01*
X0306710Y0167116D01*
X0306785Y0167100D01*
X0306851Y0167083D01*
X0306909Y0167066D01*
X0306967Y0167050D01*
X0307013Y0167029D01*
X0307055Y0167012D01*
X0307092Y0166996D01*
X0307121Y0166979D01*
X0307142Y0166967D01*
X0307159Y0166958D01*
X0307167Y0166954D01*
X0307171Y0166950D01*
X0307221Y0166912D01*
X0307267Y0166867D01*
X0307346Y0166775D01*
X0307413Y0166675D01*
X0307467Y0166576D01*
X0307508Y0166488D01*
X0307525Y0166451D01*
X0307537Y0166417D01*
X0307546Y0166388D01*
X0307554Y0166367D01*
X0307558Y0166355D01*
Y0166351D01*
X0306897Y0166230D01*
X0306872Y0166297D01*
X0306843Y0166355D01*
X0306814Y0166405D01*
X0306785Y0166442D01*
X0306760Y0166472D01*
X0306739Y0166488D01*
X0306726Y0166501D01*
X0306722Y0166505D01*
X0306676Y0166530D01*
X0306626Y0166551D01*
X0306572Y0166563D01*
X0306522Y0166576D01*
X0306481Y0166580D01*
X0306443Y0166584D01*
X0306356D01*
X0306306Y0166580D01*
X0306264Y0166576D01*
X0306223Y0166571D01*
X0306152Y0166555D01*
X0306098Y0166538D01*
X0306061Y0166521D01*
X0306031Y0166505D01*
X0306015Y0166497D01*
X0306011Y0166492D01*
X0305973Y0166455D01*
X0305948Y0166405D01*
X0305927Y0166355D01*
X0305915Y0166305D01*
X0305907Y0166259D01*
X0305903Y0166222D01*
Y0166193D01*
Y0166189D01*
Y0166184D01*
Y0166114D01*
X0305944Y0166097D01*
X0305990Y0166080D01*
X0306044Y0166064D01*
X0306098Y0166047D01*
X0306219Y0166018D01*
X0306335Y0165989D01*
X0306393Y0165977D01*
X0306448Y0165964D01*
X0306497Y0165956D01*
X0306539Y0165947D01*
X0306572Y0165939D01*
X0306601Y0165935D01*
X0306618Y0165931D01*
X0306622D01*
X0306693Y0165918D01*
X0306755Y0165902D01*
X0306818Y0165885D01*
X0306876Y0165873D01*
X0306926Y0165856D01*
X0306976Y0165843D01*
X0307022Y0165827D01*
X0307059Y0165814D01*
X0307092Y0165802D01*
X0307126Y0165793D01*
X0307151Y0165781D01*
X0307171Y0165773D01*
X0307188Y0165764D01*
X0307201Y0165760D01*
X0307205Y0165756D01*
X0307209D01*
X0307279Y0165719D01*
X0307342Y0165673D01*
X0307396Y0165627D01*
X0307438Y0165581D01*
X0307475Y0165540D01*
X0307500Y0165506D01*
X0307517Y0165486D01*
X0307521Y0165481D01*
Y0165477D01*
X0307558Y0165407D01*
X0307587Y0165336D01*
X0307604Y0165265D01*
X0307621Y0165199D01*
X0307629Y0165140D01*
X0307633Y0165099D01*
Y0165082D01*
Y0165070D01*
Y0165061D01*
Y0165057D01*
X0307629Y0164991D01*
X0307621Y0164928D01*
X0307612Y0164870D01*
X0307596Y0164816D01*
X0307554Y0164712D01*
X0307533Y0164670D01*
X0307508Y0164629D01*
X0307488Y0164591D01*
X0307467Y0164558D01*
X0307446Y0164533D01*
X0307425Y0164508D01*
X0307408Y0164491D01*
X0307400Y0164479D01*
X0307392Y0164471D01*
X0307388Y0164466D01*
X0307338Y0164425D01*
X0307288Y0164392D01*
X0307234Y0164362D01*
X0307175Y0164333D01*
X0307063Y0164292D01*
X0306955Y0164267D01*
X0306905Y0164258D01*
X0306859Y0164250D01*
X0306818Y0164246D01*
X0306780Y0164242D01*
X0306751Y0164238D01*
X0306710D01*
X0306618Y0164242D01*
X0306535Y0164250D01*
X0306456Y0164267D01*
X0306389Y0164283D01*
X0306331Y0164300D01*
X0306289Y0164317D01*
X0306273Y0164321D01*
X0306260Y0164325D01*
X0306256Y0164329D01*
X0306252D01*
X0306173Y0164367D01*
X0306098Y0164412D01*
X0306027Y0164458D01*
X0305969Y0164500D01*
X0305919Y0164541D01*
X0305882Y0164575D01*
X0305857Y0164595D01*
X0305849Y0164604D01*
X0305844Y0164595D01*
X0305840Y0164583D01*
X0305832Y0164554D01*
X0305828Y0164529D01*
X0305823Y0164521D01*
Y0164516D01*
X0305807Y0164466D01*
X0305794Y0164421D01*
X0305778Y0164383D01*
X0305769Y0164354D01*
X0305761Y0164329D01*
X0305753Y0164313D01*
X0305749Y0164304D01*
Y0164300D01*
X0305021D01*
X0305054Y0164371D01*
X0305083Y0164441D01*
X0305108Y0164504D01*
X0305125Y0164558D01*
X0305137Y0164604D01*
X0305145Y0164641D01*
X0305154Y0164662D01*
Y0164670D01*
X0305158Y0164704D01*
X0305166Y0164745D01*
X0305175Y0164828D01*
X0305179Y0164920D01*
X0305183Y0165007D01*
X0305187Y0165086D01*
Y0165120D01*
Y0165153D01*
Y0165178D01*
Y0165194D01*
Y0165207D01*
Y0165211D01*
X0305175Y0166072D01*
Y0166159D01*
X0305179Y0166239D01*
X0305183Y0166309D01*
X0305191Y0166376D01*
X0305200Y0166438D01*
X0305208Y0166492D01*
X0305216Y0166538D01*
X0305224Y0166580D01*
X0305233Y0166617D01*
X0305241Y0166646D01*
X0305249Y0166675D01*
X0305258Y0166696D01*
X0305266Y0166709D01*
X0305270Y0166721D01*
X0305274Y0166729D01*
X0305316Y0166792D01*
X0305370Y0166850D01*
X0305424Y0166900D01*
X0305482Y0166946D01*
X0305532Y0166979D01*
X0305578Y0167004D01*
X0305591Y0167012D01*
X0305603Y0167021D01*
X0305611Y0167025D01*
X0305615D01*
X0305665Y0167046D01*
X0305715Y0167066D01*
X0305832Y0167095D01*
X0305953Y0167116D01*
X0306073Y0167129D01*
X0306131Y0167137D01*
X0306181Y0167141D01*
X0306231D01*
X0306269Y0167145D01*
X0306452D01*
X0306543Y0167137D01*
D02*
G37*
G36*
X0348855D02*
X0348942Y0167129D01*
X0349021Y0167116D01*
X0349096Y0167100D01*
X0349162Y0167083D01*
X0349221Y0167066D01*
X0349279Y0167050D01*
X0349325Y0167029D01*
X0349366Y0167012D01*
X0349404Y0166996D01*
X0349433Y0166979D01*
X0349454Y0166967D01*
X0349470Y0166958D01*
X0349479Y0166954D01*
X0349483Y0166950D01*
X0349533Y0166912D01*
X0349578Y0166867D01*
X0349657Y0166775D01*
X0349724Y0166675D01*
X0349778Y0166576D01*
X0349820Y0166488D01*
X0349836Y0166451D01*
X0349849Y0166417D01*
X0349857Y0166388D01*
X0349865Y0166367D01*
X0349870Y0166355D01*
Y0166351D01*
X0349208Y0166230D01*
X0349183Y0166297D01*
X0349154Y0166355D01*
X0349125Y0166405D01*
X0349096Y0166442D01*
X0349071Y0166472D01*
X0349050Y0166488D01*
X0349038Y0166501D01*
X0349033Y0166505D01*
X0348988Y0166530D01*
X0348938Y0166551D01*
X0348884Y0166563D01*
X0348834Y0166576D01*
X0348792Y0166580D01*
X0348755Y0166584D01*
X0348667D01*
X0348617Y0166580D01*
X0348576Y0166576D01*
X0348534Y0166571D01*
X0348464Y0166555D01*
X0348409Y0166538D01*
X0348372Y0166521D01*
X0348343Y0166505D01*
X0348326Y0166497D01*
X0348322Y0166492D01*
X0348285Y0166455D01*
X0348260Y0166405D01*
X0348239Y0166355D01*
X0348226Y0166305D01*
X0348218Y0166259D01*
X0348214Y0166222D01*
Y0166193D01*
Y0166189D01*
Y0166184D01*
Y0166114D01*
X0348255Y0166097D01*
X0348301Y0166080D01*
X0348355Y0166064D01*
X0348409Y0166047D01*
X0348530Y0166018D01*
X0348647Y0165989D01*
X0348705Y0165977D01*
X0348759Y0165964D01*
X0348809Y0165956D01*
X0348850Y0165947D01*
X0348884Y0165939D01*
X0348913Y0165935D01*
X0348929Y0165931D01*
X0348934D01*
X0349004Y0165918D01*
X0349067Y0165902D01*
X0349129Y0165885D01*
X0349187Y0165873D01*
X0349237Y0165856D01*
X0349287Y0165843D01*
X0349333Y0165827D01*
X0349370Y0165814D01*
X0349404Y0165802D01*
X0349437Y0165793D01*
X0349462Y0165781D01*
X0349483Y0165773D01*
X0349499Y0165764D01*
X0349512Y0165760D01*
X0349516Y0165756D01*
X0349520D01*
X0349591Y0165719D01*
X0349653Y0165673D01*
X0349707Y0165627D01*
X0349749Y0165581D01*
X0349786Y0165540D01*
X0349811Y0165506D01*
X0349828Y0165486D01*
X0349832Y0165481D01*
Y0165477D01*
X0349870Y0165407D01*
X0349899Y0165336D01*
X0349915Y0165265D01*
X0349932Y0165199D01*
X0349940Y0165140D01*
X0349944Y0165099D01*
Y0165082D01*
Y0165070D01*
Y0165061D01*
Y0165057D01*
X0349940Y0164991D01*
X0349932Y0164928D01*
X0349924Y0164870D01*
X0349907Y0164816D01*
X0349865Y0164712D01*
X0349845Y0164670D01*
X0349820Y0164629D01*
X0349799Y0164591D01*
X0349778Y0164558D01*
X0349757Y0164533D01*
X0349736Y0164508D01*
X0349720Y0164491D01*
X0349711Y0164479D01*
X0349703Y0164471D01*
X0349699Y0164466D01*
X0349649Y0164425D01*
X0349599Y0164392D01*
X0349545Y0164362D01*
X0349487Y0164333D01*
X0349375Y0164292D01*
X0349266Y0164267D01*
X0349217Y0164258D01*
X0349171Y0164250D01*
X0349129Y0164246D01*
X0349092Y0164242D01*
X0349063Y0164238D01*
X0349021D01*
X0348929Y0164242D01*
X0348846Y0164250D01*
X0348767Y0164267D01*
X0348701Y0164283D01*
X0348642Y0164300D01*
X0348601Y0164317D01*
X0348584Y0164321D01*
X0348572Y0164325D01*
X0348568Y0164329D01*
X0348563D01*
X0348484Y0164367D01*
X0348409Y0164412D01*
X0348339Y0164458D01*
X0348281Y0164500D01*
X0348231Y0164541D01*
X0348193Y0164575D01*
X0348168Y0164595D01*
X0348160Y0164604D01*
X0348156Y0164595D01*
X0348151Y0164583D01*
X0348143Y0164554D01*
X0348139Y0164529D01*
X0348135Y0164521D01*
Y0164516D01*
X0348118Y0164466D01*
X0348106Y0164421D01*
X0348089Y0164383D01*
X0348081Y0164354D01*
X0348073Y0164329D01*
X0348064Y0164313D01*
X0348060Y0164304D01*
Y0164300D01*
X0347332D01*
X0347365Y0164371D01*
X0347394Y0164441D01*
X0347419Y0164504D01*
X0347436Y0164558D01*
X0347448Y0164604D01*
X0347457Y0164641D01*
X0347465Y0164662D01*
Y0164670D01*
X0347469Y0164704D01*
X0347478Y0164745D01*
X0347486Y0164828D01*
X0347490Y0164920D01*
X0347494Y0165007D01*
X0347498Y0165086D01*
Y0165120D01*
Y0165153D01*
Y0165178D01*
Y0165194D01*
Y0165207D01*
Y0165211D01*
X0347486Y0166072D01*
Y0166159D01*
X0347490Y0166239D01*
X0347494Y0166309D01*
X0347503Y0166376D01*
X0347511Y0166438D01*
X0347519Y0166492D01*
X0347528Y0166538D01*
X0347536Y0166580D01*
X0347544Y0166617D01*
X0347552Y0166646D01*
X0347561Y0166675D01*
X0347569Y0166696D01*
X0347577Y0166709D01*
X0347582Y0166721D01*
X0347586Y0166729D01*
X0347627Y0166792D01*
X0347681Y0166850D01*
X0347736Y0166900D01*
X0347794Y0166946D01*
X0347844Y0166979D01*
X0347889Y0167004D01*
X0347902Y0167012D01*
X0347914Y0167021D01*
X0347923Y0167025D01*
X0347927D01*
X0347977Y0167046D01*
X0348027Y0167066D01*
X0348143Y0167095D01*
X0348264Y0167116D01*
X0348384Y0167129D01*
X0348443Y0167137D01*
X0348493Y0167141D01*
X0348543D01*
X0348580Y0167145D01*
X0348763D01*
X0348855Y0167137D01*
D02*
G37*
G36*
X0399773D02*
X0399860Y0167129D01*
X0399939Y0167116D01*
X0400014Y0167100D01*
X0400081Y0167083D01*
X0400139Y0167066D01*
X0400197Y0167050D01*
X0400243Y0167029D01*
X0400285Y0167012D01*
X0400322Y0166996D01*
X0400351Y0166979D01*
X0400372Y0166967D01*
X0400389Y0166958D01*
X0400397Y0166954D01*
X0400401Y0166950D01*
X0400451Y0166912D01*
X0400497Y0166867D01*
X0400576Y0166775D01*
X0400642Y0166675D01*
X0400697Y0166576D01*
X0400738Y0166488D01*
X0400755Y0166451D01*
X0400767Y0166417D01*
X0400775Y0166388D01*
X0400784Y0166367D01*
X0400788Y0166355D01*
Y0166351D01*
X0400127Y0166230D01*
X0400102Y0166297D01*
X0400072Y0166355D01*
X0400043Y0166405D01*
X0400014Y0166442D01*
X0399989Y0166472D01*
X0399969Y0166488D01*
X0399956Y0166501D01*
X0399952Y0166505D01*
X0399906Y0166530D01*
X0399856Y0166551D01*
X0399802Y0166563D01*
X0399752Y0166576D01*
X0399711Y0166580D01*
X0399673Y0166584D01*
X0399586D01*
X0399536Y0166580D01*
X0399494Y0166576D01*
X0399453Y0166571D01*
X0399382Y0166555D01*
X0399328Y0166538D01*
X0399290Y0166521D01*
X0399261Y0166505D01*
X0399245Y0166497D01*
X0399240Y0166492D01*
X0399203Y0166455D01*
X0399178Y0166405D01*
X0399157Y0166355D01*
X0399145Y0166305D01*
X0399136Y0166259D01*
X0399132Y0166222D01*
Y0166193D01*
Y0166189D01*
Y0166184D01*
Y0166114D01*
X0399174Y0166097D01*
X0399220Y0166080D01*
X0399274Y0166064D01*
X0399328Y0166047D01*
X0399448Y0166018D01*
X0399565Y0165989D01*
X0399623Y0165977D01*
X0399677Y0165964D01*
X0399727Y0165956D01*
X0399769Y0165947D01*
X0399802Y0165939D01*
X0399831Y0165935D01*
X0399848Y0165931D01*
X0399852D01*
X0399923Y0165918D01*
X0399985Y0165902D01*
X0400047Y0165885D01*
X0400106Y0165873D01*
X0400156Y0165856D01*
X0400206Y0165843D01*
X0400251Y0165827D01*
X0400289Y0165814D01*
X0400322Y0165802D01*
X0400355Y0165793D01*
X0400380Y0165781D01*
X0400401Y0165773D01*
X0400418Y0165764D01*
X0400430Y0165760D01*
X0400434Y0165756D01*
X0400439D01*
X0400509Y0165719D01*
X0400572Y0165673D01*
X0400626Y0165627D01*
X0400667Y0165581D01*
X0400705Y0165540D01*
X0400730Y0165506D01*
X0400746Y0165486D01*
X0400751Y0165481D01*
Y0165477D01*
X0400788Y0165407D01*
X0400817Y0165336D01*
X0400834Y0165265D01*
X0400850Y0165199D01*
X0400859Y0165140D01*
X0400863Y0165099D01*
Y0165082D01*
Y0165070D01*
Y0165061D01*
Y0165057D01*
X0400859Y0164991D01*
X0400850Y0164928D01*
X0400842Y0164870D01*
X0400825Y0164816D01*
X0400784Y0164712D01*
X0400763Y0164670D01*
X0400738Y0164629D01*
X0400717Y0164591D01*
X0400697Y0164558D01*
X0400676Y0164533D01*
X0400655Y0164508D01*
X0400638Y0164491D01*
X0400630Y0164479D01*
X0400622Y0164471D01*
X0400617Y0164466D01*
X0400567Y0164425D01*
X0400518Y0164392D01*
X0400463Y0164362D01*
X0400405Y0164333D01*
X0400293Y0164292D01*
X0400185Y0164267D01*
X0400135Y0164258D01*
X0400089Y0164250D01*
X0400047Y0164246D01*
X0400010Y0164242D01*
X0399981Y0164238D01*
X0399939D01*
X0399848Y0164242D01*
X0399765Y0164250D01*
X0399686Y0164267D01*
X0399619Y0164283D01*
X0399561Y0164300D01*
X0399519Y0164317D01*
X0399503Y0164321D01*
X0399490Y0164325D01*
X0399486Y0164329D01*
X0399482D01*
X0399403Y0164367D01*
X0399328Y0164412D01*
X0399257Y0164458D01*
X0399199Y0164500D01*
X0399149Y0164541D01*
X0399112Y0164575D01*
X0399087Y0164595D01*
X0399078Y0164604D01*
X0399074Y0164595D01*
X0399070Y0164583D01*
X0399062Y0164554D01*
X0399057Y0164529D01*
X0399053Y0164521D01*
Y0164516D01*
X0399037Y0164466D01*
X0399024Y0164421D01*
X0399008Y0164383D01*
X0398999Y0164354D01*
X0398991Y0164329D01*
X0398983Y0164313D01*
X0398978Y0164304D01*
Y0164300D01*
X0398250D01*
X0398284Y0164371D01*
X0398313Y0164441D01*
X0398338Y0164504D01*
X0398354Y0164558D01*
X0398367Y0164604D01*
X0398375Y0164641D01*
X0398383Y0164662D01*
Y0164670D01*
X0398388Y0164704D01*
X0398396Y0164745D01*
X0398404Y0164828D01*
X0398409Y0164920D01*
X0398413Y0165007D01*
X0398417Y0165086D01*
Y0165120D01*
Y0165153D01*
Y0165178D01*
Y0165194D01*
Y0165207D01*
Y0165211D01*
X0398404Y0166072D01*
Y0166159D01*
X0398409Y0166239D01*
X0398413Y0166309D01*
X0398421Y0166376D01*
X0398429Y0166438D01*
X0398438Y0166492D01*
X0398446Y0166538D01*
X0398454Y0166580D01*
X0398463Y0166617D01*
X0398471Y0166646D01*
X0398479Y0166675D01*
X0398487Y0166696D01*
X0398496Y0166709D01*
X0398500Y0166721D01*
X0398504Y0166729D01*
X0398546Y0166792D01*
X0398600Y0166850D01*
X0398654Y0166900D01*
X0398712Y0166946D01*
X0398762Y0166979D01*
X0398808Y0167004D01*
X0398820Y0167012D01*
X0398833Y0167021D01*
X0398841Y0167025D01*
X0398845D01*
X0398895Y0167046D01*
X0398945Y0167066D01*
X0399062Y0167095D01*
X0399182Y0167116D01*
X0399303Y0167129D01*
X0399361Y0167137D01*
X0399411Y0167141D01*
X0399461D01*
X0399498Y0167145D01*
X0399681D01*
X0399773Y0167137D01*
D02*
G37*
G36*
X0403958Y0165319D02*
X0403954Y0165182D01*
X0403950Y0165115D01*
X0403941Y0165057D01*
X0403937Y0165003D01*
X0403929Y0164953D01*
X0403921Y0164907D01*
X0403908Y0164866D01*
X0403900Y0164828D01*
X0403891Y0164795D01*
X0403883Y0164766D01*
X0403879Y0164745D01*
X0403871Y0164728D01*
X0403866Y0164716D01*
X0403862Y0164708D01*
Y0164704D01*
X0403821Y0164625D01*
X0403771Y0164558D01*
X0403717Y0164496D01*
X0403663Y0164450D01*
X0403617Y0164408D01*
X0403579Y0164383D01*
X0403563Y0164371D01*
X0403550Y0164362D01*
X0403546Y0164358D01*
X0403542D01*
X0403455Y0164317D01*
X0403367Y0164287D01*
X0403284Y0164267D01*
X0403205Y0164254D01*
X0403138Y0164246D01*
X0403109Y0164242D01*
X0403084Y0164238D01*
X0403039D01*
X0402939Y0164242D01*
X0402843Y0164258D01*
X0402751Y0164279D01*
X0402677Y0164300D01*
X0402610Y0164325D01*
X0402585Y0164333D01*
X0402560Y0164342D01*
X0402543Y0164350D01*
X0402531Y0164358D01*
X0402523Y0164362D01*
X0402519D01*
X0402431Y0164417D01*
X0402348Y0164471D01*
X0402281Y0164533D01*
X0402223Y0164587D01*
X0402177Y0164637D01*
X0402144Y0164679D01*
X0402132Y0164695D01*
X0402123Y0164708D01*
X0402115Y0164712D01*
Y0164300D01*
X0401433D01*
Y0167083D01*
X0402169D01*
Y0165906D01*
Y0165798D01*
X0402173Y0165702D01*
Y0165615D01*
X0402177Y0165540D01*
X0402182Y0165469D01*
X0402186Y0165407D01*
X0402194Y0165352D01*
X0402198Y0165307D01*
X0402202Y0165269D01*
X0402211Y0165236D01*
X0402215Y0165211D01*
X0402219Y0165190D01*
X0402223Y0165174D01*
Y0165165D01*
X0402227Y0165157D01*
X0402252Y0165103D01*
X0402281Y0165053D01*
X0402315Y0165007D01*
X0402348Y0164970D01*
X0402381Y0164941D01*
X0402406Y0164920D01*
X0402423Y0164903D01*
X0402431Y0164899D01*
X0402485Y0164866D01*
X0402543Y0164841D01*
X0402602Y0164824D01*
X0402652Y0164812D01*
X0402697Y0164803D01*
X0402731Y0164799D01*
X0402764D01*
X0402822Y0164803D01*
X0402876Y0164812D01*
X0402922Y0164824D01*
X0402964Y0164837D01*
X0402997Y0164849D01*
X0403018Y0164862D01*
X0403034Y0164870D01*
X0403039Y0164874D01*
X0403076Y0164907D01*
X0403105Y0164941D01*
X0403130Y0164974D01*
X0403151Y0165007D01*
X0403163Y0165036D01*
X0403176Y0165061D01*
X0403180Y0165078D01*
X0403184Y0165082D01*
X0403193Y0165111D01*
X0403197Y0165153D01*
X0403201Y0165199D01*
X0403205Y0165253D01*
X0403209Y0165307D01*
X0403213Y0165369D01*
X0403217Y0165494D01*
Y0165552D01*
Y0165610D01*
X0403222Y0165660D01*
Y0165710D01*
Y0165748D01*
Y0165777D01*
Y0165793D01*
Y0165802D01*
Y0167083D01*
X0403958D01*
Y0165319D01*
D02*
G37*
G36*
X0413422Y0167141D02*
X0413522Y0167129D01*
X0413613Y0167108D01*
X0413696Y0167083D01*
X0413780Y0167054D01*
X0413855Y0167021D01*
X0413925Y0166983D01*
X0413988Y0166950D01*
X0414042Y0166912D01*
X0414092Y0166875D01*
X0414137Y0166842D01*
X0414171Y0166813D01*
X0414200Y0166788D01*
X0414221Y0166767D01*
X0414233Y0166754D01*
X0414237Y0166750D01*
X0414300Y0166675D01*
X0414354Y0166592D01*
X0414404Y0166505D01*
X0414445Y0166417D01*
X0414479Y0166326D01*
X0414508Y0166234D01*
X0414533Y0166147D01*
X0414549Y0166064D01*
X0414566Y0165981D01*
X0414574Y0165910D01*
X0414583Y0165839D01*
X0414591Y0165781D01*
Y0165735D01*
X0414595Y0165698D01*
Y0165677D01*
Y0165669D01*
X0414591Y0165565D01*
X0414583Y0165461D01*
X0414570Y0165365D01*
X0414553Y0165273D01*
X0414533Y0165190D01*
X0414508Y0165111D01*
X0414483Y0165036D01*
X0414458Y0164970D01*
X0414433Y0164911D01*
X0414408Y0164857D01*
X0414383Y0164816D01*
X0414362Y0164778D01*
X0414345Y0164745D01*
X0414333Y0164724D01*
X0414325Y0164712D01*
X0414321Y0164708D01*
X0414250Y0164625D01*
X0414175Y0164554D01*
X0414092Y0164491D01*
X0414009Y0164437D01*
X0413917Y0164392D01*
X0413830Y0164354D01*
X0413742Y0164321D01*
X0413655Y0164296D01*
X0413572Y0164275D01*
X0413497Y0164263D01*
X0413426Y0164250D01*
X0413368Y0164246D01*
X0413318Y0164242D01*
X0413280Y0164238D01*
X0413247D01*
X0413164Y0164242D01*
X0413085Y0164246D01*
X0413006Y0164258D01*
X0412935Y0164271D01*
X0412869Y0164287D01*
X0412806Y0164304D01*
X0412748Y0164321D01*
X0412694Y0164342D01*
X0412648Y0164362D01*
X0412607Y0164379D01*
X0412569Y0164396D01*
X0412540Y0164412D01*
X0412515Y0164425D01*
X0412498Y0164437D01*
X0412490Y0164441D01*
X0412486Y0164446D01*
X0412432Y0164487D01*
X0412378Y0164533D01*
X0412286Y0164633D01*
X0412207Y0164733D01*
X0412145Y0164832D01*
X0412120Y0164878D01*
X0412099Y0164924D01*
X0412078Y0164961D01*
X0412062Y0164995D01*
X0412053Y0165024D01*
X0412045Y0165045D01*
X0412037Y0165057D01*
Y0165061D01*
X0412769Y0165186D01*
X0412794Y0165111D01*
X0412823Y0165049D01*
X0412852Y0164995D01*
X0412885Y0164953D01*
X0412910Y0164920D01*
X0412931Y0164895D01*
X0412948Y0164882D01*
X0412952Y0164878D01*
X0412998Y0164849D01*
X0413048Y0164824D01*
X0413093Y0164807D01*
X0413139Y0164799D01*
X0413181Y0164791D01*
X0413210Y0164787D01*
X0413239D01*
X0413285Y0164791D01*
X0413330Y0164795D01*
X0413414Y0164816D01*
X0413488Y0164845D01*
X0413551Y0164878D01*
X0413601Y0164907D01*
X0413638Y0164936D01*
X0413659Y0164957D01*
X0413663Y0164966D01*
X0413667D01*
X0413726Y0165041D01*
X0413767Y0165124D01*
X0413796Y0165211D01*
X0413817Y0165294D01*
X0413830Y0165365D01*
X0413834Y0165398D01*
X0413838Y0165427D01*
X0413842Y0165448D01*
Y0165469D01*
Y0165477D01*
Y0165481D01*
X0411999D01*
Y0165635D01*
X0412012Y0165777D01*
X0412028Y0165910D01*
X0412049Y0166035D01*
X0412074Y0166147D01*
X0412103Y0166247D01*
X0412132Y0166343D01*
X0412166Y0166426D01*
X0412199Y0166497D01*
X0412232Y0166559D01*
X0412261Y0166613D01*
X0412290Y0166659D01*
X0412311Y0166692D01*
X0412328Y0166713D01*
X0412340Y0166729D01*
X0412345Y0166734D01*
X0412415Y0166804D01*
X0412490Y0166871D01*
X0412569Y0166925D01*
X0412648Y0166971D01*
X0412731Y0167012D01*
X0412810Y0167046D01*
X0412889Y0167071D01*
X0412968Y0167095D01*
X0413039Y0167112D01*
X0413106Y0167125D01*
X0413168Y0167133D01*
X0413218Y0167137D01*
X0413264Y0167141D01*
X0413293Y0167145D01*
X0413322D01*
X0413422Y0167141D01*
D02*
G37*
%LPC*%
G36*
X0301892Y0166584D02*
X0301867D01*
X0301788Y0166576D01*
X0301713Y0166559D01*
X0301647Y0166530D01*
X0301593Y0166501D01*
X0301547Y0166467D01*
X0301514Y0166438D01*
X0301493Y0166422D01*
X0301485Y0166413D01*
X0301431Y0166347D01*
X0301393Y0166268D01*
X0301364Y0166189D01*
X0301343Y0166110D01*
X0301331Y0166039D01*
X0301327Y0166010D01*
X0301322Y0165985D01*
X0301318Y0165960D01*
Y0165943D01*
Y0165935D01*
Y0165931D01*
X0302416D01*
X0302412Y0166039D01*
X0302396Y0166130D01*
X0302371Y0166214D01*
X0302342Y0166280D01*
X0302312Y0166334D01*
X0302288Y0166372D01*
X0302271Y0166397D01*
X0302263Y0166405D01*
X0302233Y0166438D01*
X0302200Y0166463D01*
X0302138Y0166509D01*
X0302071Y0166542D01*
X0302009Y0166563D01*
X0301951Y0166576D01*
X0301909Y0166580D01*
X0301892Y0166584D01*
D02*
G37*
G36*
X0312330D02*
X0312305D01*
X0312226Y0166576D01*
X0312151Y0166559D01*
X0312084Y0166530D01*
X0312030Y0166501D01*
X0311984Y0166467D01*
X0311951Y0166438D01*
X0311930Y0166422D01*
X0311922Y0166413D01*
X0311868Y0166347D01*
X0311831Y0166268D01*
X0311801Y0166189D01*
X0311781Y0166110D01*
X0311768Y0166039D01*
X0311764Y0166010D01*
X0311760Y0165985D01*
X0311756Y0165960D01*
Y0165943D01*
Y0165935D01*
Y0165931D01*
X0312854D01*
X0312850Y0166039D01*
X0312833Y0166130D01*
X0312808Y0166214D01*
X0312779Y0166280D01*
X0312750Y0166334D01*
X0312725Y0166372D01*
X0312708Y0166397D01*
X0312700Y0166405D01*
X0312671Y0166438D01*
X0312638Y0166463D01*
X0312575Y0166509D01*
X0312509Y0166542D01*
X0312446Y0166563D01*
X0312388Y0166576D01*
X0312346Y0166580D01*
X0312330Y0166584D01*
D02*
G37*
G36*
X0321116Y0166546D02*
X0321087D01*
X0321033Y0166542D01*
X0320983Y0166538D01*
X0320891Y0166513D01*
X0320808Y0166476D01*
X0320737Y0166438D01*
X0320679Y0166397D01*
X0320637Y0166359D01*
X0320625Y0166347D01*
X0320612Y0166334D01*
X0320608Y0166330D01*
X0320604Y0166326D01*
X0320571Y0166284D01*
X0320537Y0166234D01*
X0320492Y0166135D01*
X0320454Y0166031D01*
X0320433Y0165927D01*
X0320425Y0165881D01*
X0320417Y0165835D01*
X0320413Y0165798D01*
Y0165760D01*
X0320409Y0165735D01*
Y0165710D01*
Y0165698D01*
Y0165694D01*
Y0165619D01*
X0320417Y0165544D01*
X0320425Y0165477D01*
X0320438Y0165415D01*
X0320454Y0165361D01*
X0320471Y0165307D01*
X0320487Y0165257D01*
X0320504Y0165215D01*
X0320525Y0165178D01*
X0320542Y0165145D01*
X0320558Y0165115D01*
X0320575Y0165095D01*
X0320587Y0165078D01*
X0320596Y0165065D01*
X0320600Y0165057D01*
X0320604Y0165053D01*
X0320641Y0165015D01*
X0320679Y0164982D01*
X0320721Y0164953D01*
X0320762Y0164928D01*
X0320841Y0164891D01*
X0320920Y0164866D01*
X0320987Y0164849D01*
X0321016Y0164845D01*
X0321037Y0164841D01*
X0321057Y0164837D01*
X0321087D01*
X0321141Y0164841D01*
X0321191Y0164845D01*
X0321282Y0164870D01*
X0321365Y0164903D01*
X0321436Y0164945D01*
X0321490Y0164986D01*
X0321536Y0165020D01*
X0321548Y0165032D01*
X0321561Y0165045D01*
X0321565Y0165049D01*
X0321569Y0165053D01*
X0321602Y0165095D01*
X0321632Y0165145D01*
X0321681Y0165244D01*
X0321715Y0165352D01*
X0321736Y0165452D01*
X0321744Y0165502D01*
X0321752Y0165548D01*
X0321756Y0165585D01*
Y0165623D01*
X0321761Y0165648D01*
Y0165673D01*
Y0165685D01*
Y0165689D01*
X0321756Y0165764D01*
X0321752Y0165835D01*
X0321744Y0165902D01*
X0321731Y0165964D01*
X0321715Y0166022D01*
X0321698Y0166072D01*
X0321681Y0166122D01*
X0321665Y0166164D01*
X0321648Y0166201D01*
X0321632Y0166234D01*
X0321615Y0166263D01*
X0321598Y0166284D01*
X0321586Y0166301D01*
X0321577Y0166318D01*
X0321569Y0166322D01*
Y0166326D01*
X0321532Y0166363D01*
X0321490Y0166401D01*
X0321453Y0166430D01*
X0321411Y0166455D01*
X0321332Y0166492D01*
X0321253Y0166517D01*
X0321186Y0166534D01*
X0321157Y0166538D01*
X0321132Y0166542D01*
X0321116Y0166546D01*
D02*
G37*
G36*
X0327718Y0166584D02*
X0327693D01*
X0327643Y0166580D01*
X0327597Y0166576D01*
X0327510Y0166551D01*
X0327435Y0166517D01*
X0327372Y0166480D01*
X0327318Y0166438D01*
X0327281Y0166405D01*
X0327260Y0166380D01*
X0327252Y0166376D01*
Y0166372D01*
X0327223Y0166330D01*
X0327193Y0166280D01*
X0327152Y0166176D01*
X0327119Y0166060D01*
X0327098Y0165947D01*
X0327089Y0165893D01*
X0327085Y0165843D01*
X0327081Y0165798D01*
Y0165760D01*
X0327077Y0165727D01*
Y0165702D01*
Y0165685D01*
Y0165681D01*
Y0165602D01*
X0327085Y0165527D01*
X0327094Y0165461D01*
X0327106Y0165398D01*
X0327119Y0165340D01*
X0327135Y0165286D01*
X0327148Y0165236D01*
X0327164Y0165194D01*
X0327181Y0165157D01*
X0327198Y0165124D01*
X0327214Y0165095D01*
X0327227Y0165074D01*
X0327239Y0165057D01*
X0327248Y0165041D01*
X0327252Y0165036D01*
X0327256Y0165032D01*
X0327289Y0164995D01*
X0327327Y0164961D01*
X0327364Y0164932D01*
X0327397Y0164911D01*
X0327472Y0164870D01*
X0327539Y0164845D01*
X0327597Y0164832D01*
X0327647Y0164824D01*
X0327663Y0164820D01*
X0327689D01*
X0327747Y0164824D01*
X0327801Y0164832D01*
X0327851Y0164845D01*
X0327901Y0164866D01*
X0327984Y0164911D01*
X0328055Y0164966D01*
X0328109Y0165015D01*
X0328150Y0165061D01*
X0328163Y0165082D01*
X0328175Y0165095D01*
X0328179Y0165103D01*
X0328184Y0165107D01*
X0328204Y0165149D01*
X0328225Y0165190D01*
X0328254Y0165294D01*
X0328275Y0165398D01*
X0328288Y0165506D01*
X0328296Y0165552D01*
Y0165602D01*
X0328300Y0165644D01*
X0328304Y0165681D01*
Y0165710D01*
Y0165731D01*
Y0165748D01*
Y0165752D01*
X0328300Y0165827D01*
X0328296Y0165897D01*
X0328288Y0165964D01*
X0328275Y0166022D01*
X0328263Y0166076D01*
X0328250Y0166130D01*
X0328233Y0166176D01*
X0328217Y0166218D01*
X0328200Y0166251D01*
X0328184Y0166284D01*
X0328171Y0166309D01*
X0328159Y0166334D01*
X0328146Y0166351D01*
X0328138Y0166363D01*
X0328129Y0166367D01*
Y0166372D01*
X0328096Y0166409D01*
X0328059Y0166442D01*
X0328025Y0166472D01*
X0327988Y0166497D01*
X0327913Y0166534D01*
X0327847Y0166559D01*
X0327784Y0166571D01*
X0327734Y0166580D01*
X0327718Y0166584D01*
D02*
G37*
G36*
X0336903Y0166546D02*
X0336874D01*
X0336820Y0166542D01*
X0336770Y0166538D01*
X0336678Y0166513D01*
X0336595Y0166476D01*
X0336524Y0166438D01*
X0336466Y0166397D01*
X0336424Y0166359D01*
X0336412Y0166347D01*
X0336400Y0166334D01*
X0336395Y0166330D01*
X0336391Y0166326D01*
X0336358Y0166284D01*
X0336325Y0166234D01*
X0336279Y0166135D01*
X0336241Y0166031D01*
X0336221Y0165927D01*
X0336212Y0165881D01*
X0336204Y0165835D01*
X0336200Y0165798D01*
Y0165760D01*
X0336196Y0165735D01*
Y0165710D01*
Y0165698D01*
Y0165694D01*
Y0165619D01*
X0336204Y0165544D01*
X0336212Y0165477D01*
X0336225Y0165415D01*
X0336241Y0165361D01*
X0336258Y0165307D01*
X0336275Y0165257D01*
X0336291Y0165215D01*
X0336312Y0165178D01*
X0336329Y0165145D01*
X0336345Y0165115D01*
X0336362Y0165095D01*
X0336375Y0165078D01*
X0336383Y0165065D01*
X0336387Y0165057D01*
X0336391Y0165053D01*
X0336429Y0165015D01*
X0336466Y0164982D01*
X0336508Y0164953D01*
X0336549Y0164928D01*
X0336628Y0164891D01*
X0336707Y0164866D01*
X0336774Y0164849D01*
X0336803Y0164845D01*
X0336824Y0164841D01*
X0336845Y0164837D01*
X0336874D01*
X0336928Y0164841D01*
X0336978Y0164845D01*
X0337069Y0164870D01*
X0337153Y0164903D01*
X0337223Y0164945D01*
X0337277Y0164986D01*
X0337323Y0165020D01*
X0337335Y0165032D01*
X0337348Y0165045D01*
X0337352Y0165049D01*
X0337356Y0165053D01*
X0337390Y0165095D01*
X0337419Y0165145D01*
X0337469Y0165244D01*
X0337502Y0165352D01*
X0337523Y0165452D01*
X0337531Y0165502D01*
X0337539Y0165548D01*
X0337544Y0165585D01*
Y0165623D01*
X0337548Y0165648D01*
Y0165673D01*
Y0165685D01*
Y0165689D01*
X0337544Y0165764D01*
X0337539Y0165835D01*
X0337531Y0165902D01*
X0337519Y0165964D01*
X0337502Y0166022D01*
X0337485Y0166072D01*
X0337469Y0166122D01*
X0337452Y0166164D01*
X0337435Y0166201D01*
X0337419Y0166234D01*
X0337402Y0166263D01*
X0337385Y0166284D01*
X0337373Y0166301D01*
X0337365Y0166318D01*
X0337356Y0166322D01*
Y0166326D01*
X0337319Y0166363D01*
X0337277Y0166401D01*
X0337240Y0166430D01*
X0337198Y0166455D01*
X0337119Y0166492D01*
X0337040Y0166517D01*
X0336974Y0166534D01*
X0336945Y0166538D01*
X0336919Y0166542D01*
X0336903Y0166546D01*
D02*
G37*
G36*
X0342194Y0166563D02*
X0342169D01*
X0342120Y0166559D01*
X0342074Y0166555D01*
X0341991Y0166530D01*
X0341916Y0166497D01*
X0341853Y0166455D01*
X0341803Y0166413D01*
X0341766Y0166380D01*
X0341741Y0166355D01*
X0341733Y0166351D01*
Y0166347D01*
X0341699Y0166305D01*
X0341674Y0166259D01*
X0341629Y0166155D01*
X0341595Y0166047D01*
X0341575Y0165943D01*
X0341570Y0165893D01*
X0341562Y0165848D01*
X0341558Y0165806D01*
Y0165769D01*
X0341554Y0165739D01*
Y0165719D01*
Y0165702D01*
Y0165698D01*
Y0165615D01*
X0341562Y0165535D01*
X0341570Y0165461D01*
X0341583Y0165394D01*
X0341595Y0165332D01*
X0341608Y0165278D01*
X0341624Y0165228D01*
X0341641Y0165186D01*
X0341658Y0165145D01*
X0341674Y0165111D01*
X0341687Y0165086D01*
X0341699Y0165061D01*
X0341712Y0165045D01*
X0341720Y0165032D01*
X0341724Y0165028D01*
X0341728Y0165024D01*
X0341762Y0164986D01*
X0341795Y0164957D01*
X0341832Y0164928D01*
X0341866Y0164907D01*
X0341936Y0164870D01*
X0342003Y0164845D01*
X0342065Y0164832D01*
X0342111Y0164824D01*
X0342128Y0164820D01*
X0342153D01*
X0342203Y0164824D01*
X0342249Y0164828D01*
X0342340Y0164853D01*
X0342415Y0164891D01*
X0342481Y0164932D01*
X0342535Y0164970D01*
X0342577Y0165007D01*
X0342602Y0165032D01*
X0342606Y0165036D01*
X0342610Y0165041D01*
X0342644Y0165086D01*
X0342669Y0165136D01*
X0342714Y0165244D01*
X0342748Y0165361D01*
X0342769Y0165473D01*
X0342777Y0165527D01*
X0342785Y0165573D01*
X0342789Y0165619D01*
Y0165660D01*
X0342793Y0165689D01*
Y0165714D01*
Y0165731D01*
Y0165735D01*
X0342789Y0165810D01*
X0342785Y0165881D01*
X0342777Y0165943D01*
X0342764Y0166006D01*
X0342752Y0166060D01*
X0342739Y0166110D01*
X0342723Y0166155D01*
X0342706Y0166197D01*
X0342689Y0166230D01*
X0342673Y0166263D01*
X0342660Y0166288D01*
X0342648Y0166313D01*
X0342635Y0166330D01*
X0342627Y0166343D01*
X0342619Y0166347D01*
Y0166351D01*
X0342585Y0166388D01*
X0342548Y0166422D01*
X0342511Y0166451D01*
X0342473Y0166476D01*
X0342398Y0166513D01*
X0342327Y0166538D01*
X0342265Y0166551D01*
X0342236Y0166555D01*
X0342215Y0166559D01*
X0342194Y0166563D01*
D02*
G37*
G36*
X0345468D02*
X0345443D01*
X0345393Y0166559D01*
X0345348Y0166555D01*
X0345265Y0166530D01*
X0345190Y0166497D01*
X0345127Y0166455D01*
X0345077Y0166413D01*
X0345040Y0166380D01*
X0345015Y0166355D01*
X0345007Y0166351D01*
Y0166347D01*
X0344973Y0166305D01*
X0344948Y0166259D01*
X0344903Y0166155D01*
X0344869Y0166047D01*
X0344848Y0165943D01*
X0344844Y0165893D01*
X0344836Y0165848D01*
X0344832Y0165806D01*
Y0165769D01*
X0344828Y0165739D01*
Y0165719D01*
Y0165702D01*
Y0165698D01*
Y0165615D01*
X0344836Y0165535D01*
X0344844Y0165461D01*
X0344857Y0165394D01*
X0344869Y0165332D01*
X0344882Y0165278D01*
X0344898Y0165228D01*
X0344915Y0165186D01*
X0344932Y0165145D01*
X0344948Y0165111D01*
X0344961Y0165086D01*
X0344973Y0165061D01*
X0344986Y0165045D01*
X0344994Y0165032D01*
X0344998Y0165028D01*
X0345002Y0165024D01*
X0345036Y0164986D01*
X0345069Y0164957D01*
X0345106Y0164928D01*
X0345140Y0164907D01*
X0345210Y0164870D01*
X0345277Y0164845D01*
X0345339Y0164832D01*
X0345385Y0164824D01*
X0345402Y0164820D01*
X0345427D01*
X0345477Y0164824D01*
X0345522Y0164828D01*
X0345614Y0164853D01*
X0345689Y0164891D01*
X0345755Y0164932D01*
X0345809Y0164970D01*
X0345851Y0165007D01*
X0345876Y0165032D01*
X0345880Y0165036D01*
X0345884Y0165041D01*
X0345918Y0165086D01*
X0345943Y0165136D01*
X0345988Y0165244D01*
X0346022Y0165361D01*
X0346042Y0165473D01*
X0346051Y0165527D01*
X0346059Y0165573D01*
X0346063Y0165619D01*
Y0165660D01*
X0346067Y0165689D01*
Y0165714D01*
Y0165731D01*
Y0165735D01*
X0346063Y0165810D01*
X0346059Y0165881D01*
X0346051Y0165943D01*
X0346038Y0166006D01*
X0346026Y0166060D01*
X0346013Y0166110D01*
X0345997Y0166155D01*
X0345980Y0166197D01*
X0345963Y0166230D01*
X0345947Y0166263D01*
X0345934Y0166288D01*
X0345922Y0166313D01*
X0345909Y0166330D01*
X0345901Y0166343D01*
X0345893Y0166347D01*
Y0166351D01*
X0345859Y0166388D01*
X0345822Y0166422D01*
X0345784Y0166451D01*
X0345747Y0166476D01*
X0345672Y0166513D01*
X0345601Y0166538D01*
X0345539Y0166551D01*
X0345510Y0166555D01*
X0345489Y0166559D01*
X0345468Y0166563D01*
D02*
G37*
G36*
X0420003Y0166546D02*
X0419974D01*
X0419920Y0166542D01*
X0419870Y0166538D01*
X0419778Y0166513D01*
X0419695Y0166476D01*
X0419625Y0166438D01*
X0419566Y0166397D01*
X0419525Y0166359D01*
X0419512Y0166347D01*
X0419500Y0166334D01*
X0419495Y0166330D01*
X0419491Y0166326D01*
X0419458Y0166284D01*
X0419425Y0166234D01*
X0419379Y0166135D01*
X0419342Y0166031D01*
X0419321Y0165927D01*
X0419312Y0165881D01*
X0419304Y0165835D01*
X0419300Y0165798D01*
Y0165760D01*
X0419296Y0165735D01*
Y0165710D01*
Y0165698D01*
Y0165694D01*
Y0165619D01*
X0419304Y0165544D01*
X0419312Y0165477D01*
X0419325Y0165415D01*
X0419342Y0165361D01*
X0419358Y0165307D01*
X0419375Y0165257D01*
X0419391Y0165215D01*
X0419412Y0165178D01*
X0419429Y0165145D01*
X0419446Y0165115D01*
X0419462Y0165095D01*
X0419475Y0165078D01*
X0419483Y0165065D01*
X0419487Y0165057D01*
X0419491Y0165053D01*
X0419529Y0165015D01*
X0419566Y0164982D01*
X0419608Y0164953D01*
X0419649Y0164928D01*
X0419729Y0164891D01*
X0419807Y0164866D01*
X0419874Y0164849D01*
X0419903Y0164845D01*
X0419924Y0164841D01*
X0419945Y0164837D01*
X0419974D01*
X0420028Y0164841D01*
X0420078Y0164845D01*
X0420169Y0164870D01*
X0420253Y0164903D01*
X0420323Y0164945D01*
X0420377Y0164986D01*
X0420423Y0165020D01*
X0420436Y0165032D01*
X0420448Y0165045D01*
X0420452Y0165049D01*
X0420457Y0165053D01*
X0420490Y0165095D01*
X0420519Y0165145D01*
X0420569Y0165244D01*
X0420602Y0165352D01*
X0420623Y0165452D01*
X0420631Y0165502D01*
X0420640Y0165548D01*
X0420644Y0165585D01*
Y0165623D01*
X0420648Y0165648D01*
Y0165673D01*
Y0165685D01*
Y0165689D01*
X0420644Y0165764D01*
X0420640Y0165835D01*
X0420631Y0165902D01*
X0420619Y0165964D01*
X0420602Y0166022D01*
X0420585Y0166072D01*
X0420569Y0166122D01*
X0420552Y0166164D01*
X0420536Y0166201D01*
X0420519Y0166234D01*
X0420502Y0166263D01*
X0420486Y0166284D01*
X0420473Y0166301D01*
X0420465Y0166318D01*
X0420457Y0166322D01*
Y0166326D01*
X0420419Y0166363D01*
X0420377Y0166401D01*
X0420340Y0166430D01*
X0420298Y0166455D01*
X0420219Y0166492D01*
X0420140Y0166517D01*
X0420074Y0166534D01*
X0420045Y0166538D01*
X0420020Y0166542D01*
X0420003Y0166546D01*
D02*
G37*
G36*
X0367579D02*
X0367550D01*
X0367495Y0166542D01*
X0367446Y0166538D01*
X0367354Y0166513D01*
X0367271Y0166476D01*
X0367200Y0166438D01*
X0367142Y0166397D01*
X0367100Y0166359D01*
X0367088Y0166347D01*
X0367075Y0166334D01*
X0367071Y0166330D01*
X0367067Y0166326D01*
X0367034Y0166284D01*
X0367001Y0166234D01*
X0366955Y0166135D01*
X0366917Y0166031D01*
X0366897Y0165927D01*
X0366888Y0165881D01*
X0366880Y0165835D01*
X0366876Y0165798D01*
Y0165760D01*
X0366872Y0165735D01*
Y0165710D01*
Y0165698D01*
Y0165694D01*
Y0165619D01*
X0366880Y0165544D01*
X0366888Y0165477D01*
X0366901Y0165415D01*
X0366917Y0165361D01*
X0366934Y0165307D01*
X0366951Y0165257D01*
X0366967Y0165215D01*
X0366988Y0165178D01*
X0367005Y0165145D01*
X0367021Y0165115D01*
X0367038Y0165095D01*
X0367050Y0165078D01*
X0367059Y0165065D01*
X0367063Y0165057D01*
X0367067Y0165053D01*
X0367105Y0165015D01*
X0367142Y0164982D01*
X0367183Y0164953D01*
X0367225Y0164928D01*
X0367304Y0164891D01*
X0367383Y0164866D01*
X0367450Y0164849D01*
X0367479Y0164845D01*
X0367500Y0164841D01*
X0367520Y0164837D01*
X0367550D01*
X0367604Y0164841D01*
X0367654Y0164845D01*
X0367745Y0164870D01*
X0367828Y0164903D01*
X0367899Y0164945D01*
X0367953Y0164986D01*
X0367999Y0165020D01*
X0368011Y0165032D01*
X0368024Y0165045D01*
X0368028Y0165049D01*
X0368032Y0165053D01*
X0368065Y0165095D01*
X0368095Y0165145D01*
X0368144Y0165244D01*
X0368178Y0165352D01*
X0368199Y0165452D01*
X0368207Y0165502D01*
X0368215Y0165548D01*
X0368219Y0165585D01*
Y0165623D01*
X0368224Y0165648D01*
Y0165673D01*
Y0165685D01*
Y0165689D01*
X0368219Y0165764D01*
X0368215Y0165835D01*
X0368207Y0165902D01*
X0368194Y0165964D01*
X0368178Y0166022D01*
X0368161Y0166072D01*
X0368144Y0166122D01*
X0368128Y0166164D01*
X0368111Y0166201D01*
X0368095Y0166234D01*
X0368078Y0166263D01*
X0368061Y0166284D01*
X0368049Y0166301D01*
X0368040Y0166318D01*
X0368032Y0166322D01*
Y0166326D01*
X0367995Y0166363D01*
X0367953Y0166401D01*
X0367916Y0166430D01*
X0367874Y0166455D01*
X0367795Y0166492D01*
X0367716Y0166517D01*
X0367649Y0166534D01*
X0367620Y0166538D01*
X0367595Y0166542D01*
X0367579Y0166546D01*
D02*
G37*
G36*
X0385146D02*
X0385117D01*
X0385063Y0166542D01*
X0385013Y0166538D01*
X0384922Y0166513D01*
X0384839Y0166476D01*
X0384768Y0166438D01*
X0384710Y0166397D01*
X0384668Y0166359D01*
X0384655Y0166347D01*
X0384643Y0166334D01*
X0384639Y0166330D01*
X0384635Y0166326D01*
X0384601Y0166284D01*
X0384568Y0166234D01*
X0384522Y0166135D01*
X0384485Y0166031D01*
X0384464Y0165927D01*
X0384456Y0165881D01*
X0384448Y0165835D01*
X0384443Y0165798D01*
Y0165760D01*
X0384439Y0165735D01*
Y0165710D01*
Y0165698D01*
Y0165694D01*
Y0165619D01*
X0384448Y0165544D01*
X0384456Y0165477D01*
X0384468Y0165415D01*
X0384485Y0165361D01*
X0384502Y0165307D01*
X0384518Y0165257D01*
X0384535Y0165215D01*
X0384556Y0165178D01*
X0384572Y0165145D01*
X0384589Y0165115D01*
X0384606Y0165095D01*
X0384618Y0165078D01*
X0384626Y0165065D01*
X0384631Y0165057D01*
X0384635Y0165053D01*
X0384672Y0165015D01*
X0384710Y0164982D01*
X0384751Y0164953D01*
X0384793Y0164928D01*
X0384872Y0164891D01*
X0384951Y0164866D01*
X0385017Y0164849D01*
X0385047Y0164845D01*
X0385067Y0164841D01*
X0385088Y0164837D01*
X0385117D01*
X0385171Y0164841D01*
X0385221Y0164845D01*
X0385313Y0164870D01*
X0385396Y0164903D01*
X0385467Y0164945D01*
X0385521Y0164986D01*
X0385567Y0165020D01*
X0385579Y0165032D01*
X0385592Y0165045D01*
X0385596Y0165049D01*
X0385600Y0165053D01*
X0385633Y0165095D01*
X0385662Y0165145D01*
X0385712Y0165244D01*
X0385745Y0165352D01*
X0385766Y0165452D01*
X0385775Y0165502D01*
X0385783Y0165548D01*
X0385787Y0165585D01*
Y0165623D01*
X0385791Y0165648D01*
Y0165673D01*
Y0165685D01*
Y0165689D01*
X0385787Y0165764D01*
X0385783Y0165835D01*
X0385775Y0165902D01*
X0385762Y0165964D01*
X0385745Y0166022D01*
X0385729Y0166072D01*
X0385712Y0166122D01*
X0385696Y0166164D01*
X0385679Y0166201D01*
X0385662Y0166234D01*
X0385646Y0166263D01*
X0385629Y0166284D01*
X0385616Y0166301D01*
X0385608Y0166318D01*
X0385600Y0166322D01*
Y0166326D01*
X0385562Y0166363D01*
X0385521Y0166401D01*
X0385483Y0166430D01*
X0385442Y0166455D01*
X0385363Y0166492D01*
X0385284Y0166517D01*
X0385217Y0166534D01*
X0385188Y0166538D01*
X0385163Y0166542D01*
X0385146Y0166546D01*
D02*
G37*
G36*
X0393183D02*
X0393154D01*
X0393100Y0166542D01*
X0393050Y0166538D01*
X0392959Y0166513D01*
X0392876Y0166476D01*
X0392805Y0166438D01*
X0392747Y0166397D01*
X0392705Y0166359D01*
X0392693Y0166347D01*
X0392680Y0166334D01*
X0392676Y0166330D01*
X0392672Y0166326D01*
X0392639Y0166284D01*
X0392605Y0166234D01*
X0392560Y0166135D01*
X0392522Y0166031D01*
X0392501Y0165927D01*
X0392493Y0165881D01*
X0392485Y0165835D01*
X0392480Y0165798D01*
Y0165760D01*
X0392476Y0165735D01*
Y0165710D01*
Y0165698D01*
Y0165694D01*
Y0165619D01*
X0392485Y0165544D01*
X0392493Y0165477D01*
X0392505Y0165415D01*
X0392522Y0165361D01*
X0392539Y0165307D01*
X0392555Y0165257D01*
X0392572Y0165215D01*
X0392593Y0165178D01*
X0392609Y0165145D01*
X0392626Y0165115D01*
X0392643Y0165095D01*
X0392655Y0165078D01*
X0392664Y0165065D01*
X0392668Y0165057D01*
X0392672Y0165053D01*
X0392709Y0165015D01*
X0392747Y0164982D01*
X0392788Y0164953D01*
X0392830Y0164928D01*
X0392909Y0164891D01*
X0392988Y0164866D01*
X0393055Y0164849D01*
X0393084Y0164845D01*
X0393105Y0164841D01*
X0393125Y0164837D01*
X0393154D01*
X0393209Y0164841D01*
X0393258Y0164845D01*
X0393350Y0164870D01*
X0393433Y0164903D01*
X0393504Y0164945D01*
X0393558Y0164986D01*
X0393604Y0165020D01*
X0393616Y0165032D01*
X0393629Y0165045D01*
X0393633Y0165049D01*
X0393637Y0165053D01*
X0393670Y0165095D01*
X0393699Y0165145D01*
X0393749Y0165244D01*
X0393783Y0165352D01*
X0393803Y0165452D01*
X0393812Y0165502D01*
X0393820Y0165548D01*
X0393824Y0165585D01*
Y0165623D01*
X0393828Y0165648D01*
Y0165673D01*
Y0165685D01*
Y0165689D01*
X0393824Y0165764D01*
X0393820Y0165835D01*
X0393812Y0165902D01*
X0393799Y0165964D01*
X0393783Y0166022D01*
X0393766Y0166072D01*
X0393749Y0166122D01*
X0393733Y0166164D01*
X0393716Y0166201D01*
X0393699Y0166234D01*
X0393683Y0166263D01*
X0393666Y0166284D01*
X0393654Y0166301D01*
X0393645Y0166318D01*
X0393637Y0166322D01*
Y0166326D01*
X0393600Y0166363D01*
X0393558Y0166401D01*
X0393520Y0166430D01*
X0393479Y0166455D01*
X0393400Y0166492D01*
X0393321Y0166517D01*
X0393254Y0166534D01*
X0393225Y0166538D01*
X0393200Y0166542D01*
X0393183Y0166546D01*
D02*
G37*
G36*
X0330800Y0166584D02*
X0330775D01*
X0330696Y0166576D01*
X0330621Y0166559D01*
X0330555Y0166530D01*
X0330501Y0166501D01*
X0330455Y0166467D01*
X0330422Y0166438D01*
X0330401Y0166422D01*
X0330393Y0166413D01*
X0330338Y0166347D01*
X0330301Y0166268D01*
X0330272Y0166189D01*
X0330251Y0166110D01*
X0330239Y0166039D01*
X0330234Y0166010D01*
X0330230Y0165985D01*
X0330226Y0165960D01*
Y0165943D01*
Y0165935D01*
Y0165931D01*
X0331324D01*
X0331320Y0166039D01*
X0331304Y0166130D01*
X0331279Y0166214D01*
X0331249Y0166280D01*
X0331220Y0166334D01*
X0331195Y0166372D01*
X0331179Y0166397D01*
X0331170Y0166405D01*
X0331141Y0166438D01*
X0331108Y0166463D01*
X0331046Y0166509D01*
X0330979Y0166542D01*
X0330917Y0166563D01*
X0330858Y0166576D01*
X0330817Y0166580D01*
X0330800Y0166584D01*
D02*
G37*
G36*
X0406878Y0165635D02*
Y0165486D01*
Y0165394D01*
X0406882Y0165319D01*
X0406887Y0165257D01*
X0406891Y0165207D01*
X0406899Y0165174D01*
X0406903Y0165149D01*
X0406907Y0165132D01*
Y0165128D01*
X0406928Y0165078D01*
X0406953Y0165032D01*
X0406982Y0164991D01*
X0407016Y0164953D01*
X0407041Y0164924D01*
X0407065Y0164903D01*
X0407082Y0164891D01*
X0407086Y0164887D01*
X0407153Y0164845D01*
X0407219Y0164812D01*
X0407286Y0164791D01*
X0407344Y0164774D01*
X0407394Y0164766D01*
X0407432Y0164762D01*
X0407456Y0164758D01*
X0407465D01*
X0407527Y0164762D01*
X0407585Y0164774D01*
X0407635Y0164795D01*
X0407681Y0164816D01*
X0407714Y0164832D01*
X0407739Y0164853D01*
X0407756Y0164866D01*
X0407760Y0164870D01*
X0407798Y0164916D01*
X0407827Y0164957D01*
X0407843Y0165003D01*
X0407860Y0165045D01*
X0407868Y0165082D01*
X0407872Y0165111D01*
Y0165128D01*
Y0165136D01*
X0407868Y0165190D01*
X0407852Y0165240D01*
X0407827Y0165286D01*
X0407802Y0165323D01*
X0407777Y0165352D01*
X0407752Y0165377D01*
X0407735Y0165390D01*
X0407731Y0165394D01*
X0407710Y0165407D01*
X0407685Y0165419D01*
X0407627Y0165440D01*
X0407560Y0165461D01*
X0407494Y0165481D01*
X0407432Y0165494D01*
X0407382Y0165506D01*
X0407361Y0165515D01*
X0407344D01*
X0407336Y0165519D01*
X0407332D01*
X0407224Y0165544D01*
X0407132Y0165565D01*
X0407053Y0165585D01*
X0406991Y0165602D01*
X0406941Y0165615D01*
X0406907Y0165627D01*
X0406887Y0165631D01*
X0406878Y0165635D01*
D02*
G37*
G36*
X0305903D02*
Y0165486D01*
Y0165394D01*
X0305907Y0165319D01*
X0305911Y0165257D01*
X0305915Y0165207D01*
X0305923Y0165174D01*
X0305927Y0165149D01*
X0305932Y0165132D01*
Y0165128D01*
X0305953Y0165078D01*
X0305977Y0165032D01*
X0306007Y0164991D01*
X0306040Y0164953D01*
X0306065Y0164924D01*
X0306090Y0164903D01*
X0306106Y0164891D01*
X0306111Y0164887D01*
X0306177Y0164845D01*
X0306244Y0164812D01*
X0306310Y0164791D01*
X0306368Y0164774D01*
X0306418Y0164766D01*
X0306456Y0164762D01*
X0306481Y0164758D01*
X0306489D01*
X0306552Y0164762D01*
X0306610Y0164774D01*
X0306660Y0164795D01*
X0306705Y0164816D01*
X0306739Y0164832D01*
X0306764Y0164853D01*
X0306780Y0164866D01*
X0306785Y0164870D01*
X0306822Y0164916D01*
X0306851Y0164957D01*
X0306868Y0165003D01*
X0306884Y0165045D01*
X0306893Y0165082D01*
X0306897Y0165111D01*
Y0165128D01*
Y0165136D01*
X0306893Y0165190D01*
X0306876Y0165240D01*
X0306851Y0165286D01*
X0306826Y0165323D01*
X0306801Y0165352D01*
X0306776Y0165377D01*
X0306760Y0165390D01*
X0306755Y0165394D01*
X0306735Y0165407D01*
X0306710Y0165419D01*
X0306651Y0165440D01*
X0306585Y0165461D01*
X0306518Y0165481D01*
X0306456Y0165494D01*
X0306406Y0165506D01*
X0306385Y0165515D01*
X0306368D01*
X0306360Y0165519D01*
X0306356D01*
X0306248Y0165544D01*
X0306156Y0165565D01*
X0306077Y0165585D01*
X0306015Y0165602D01*
X0305965Y0165615D01*
X0305932Y0165627D01*
X0305911Y0165631D01*
X0305903Y0165635D01*
D02*
G37*
G36*
X0348214D02*
Y0165486D01*
Y0165394D01*
X0348218Y0165319D01*
X0348222Y0165257D01*
X0348226Y0165207D01*
X0348235Y0165174D01*
X0348239Y0165149D01*
X0348243Y0165132D01*
Y0165128D01*
X0348264Y0165078D01*
X0348289Y0165032D01*
X0348318Y0164991D01*
X0348351Y0164953D01*
X0348376Y0164924D01*
X0348401Y0164903D01*
X0348418Y0164891D01*
X0348422Y0164887D01*
X0348488Y0164845D01*
X0348555Y0164812D01*
X0348622Y0164791D01*
X0348680Y0164774D01*
X0348730Y0164766D01*
X0348767Y0164762D01*
X0348792Y0164758D01*
X0348800D01*
X0348863Y0164762D01*
X0348921Y0164774D01*
X0348971Y0164795D01*
X0349017Y0164816D01*
X0349050Y0164832D01*
X0349075Y0164853D01*
X0349092Y0164866D01*
X0349096Y0164870D01*
X0349133Y0164916D01*
X0349162Y0164957D01*
X0349179Y0165003D01*
X0349196Y0165045D01*
X0349204Y0165082D01*
X0349208Y0165111D01*
Y0165128D01*
Y0165136D01*
X0349204Y0165190D01*
X0349187Y0165240D01*
X0349162Y0165286D01*
X0349137Y0165323D01*
X0349113Y0165352D01*
X0349088Y0165377D01*
X0349071Y0165390D01*
X0349067Y0165394D01*
X0349046Y0165407D01*
X0349021Y0165419D01*
X0348963Y0165440D01*
X0348896Y0165461D01*
X0348830Y0165481D01*
X0348767Y0165494D01*
X0348717Y0165506D01*
X0348696Y0165515D01*
X0348680D01*
X0348672Y0165519D01*
X0348667D01*
X0348559Y0165544D01*
X0348468Y0165565D01*
X0348389Y0165585D01*
X0348326Y0165602D01*
X0348276Y0165615D01*
X0348243Y0165627D01*
X0348222Y0165631D01*
X0348214Y0165635D01*
D02*
G37*
G36*
X0399132D02*
Y0165486D01*
Y0165394D01*
X0399136Y0165319D01*
X0399141Y0165257D01*
X0399145Y0165207D01*
X0399153Y0165174D01*
X0399157Y0165149D01*
X0399161Y0165132D01*
Y0165128D01*
X0399182Y0165078D01*
X0399207Y0165032D01*
X0399236Y0164991D01*
X0399270Y0164953D01*
X0399295Y0164924D01*
X0399320Y0164903D01*
X0399336Y0164891D01*
X0399340Y0164887D01*
X0399407Y0164845D01*
X0399473Y0164812D01*
X0399540Y0164791D01*
X0399598Y0164774D01*
X0399648Y0164766D01*
X0399686Y0164762D01*
X0399711Y0164758D01*
X0399719D01*
X0399781Y0164762D01*
X0399839Y0164774D01*
X0399889Y0164795D01*
X0399935Y0164816D01*
X0399969Y0164832D01*
X0399993Y0164853D01*
X0400010Y0164866D01*
X0400014Y0164870D01*
X0400052Y0164916D01*
X0400081Y0164957D01*
X0400097Y0165003D01*
X0400114Y0165045D01*
X0400122Y0165082D01*
X0400127Y0165111D01*
Y0165128D01*
Y0165136D01*
X0400122Y0165190D01*
X0400106Y0165240D01*
X0400081Y0165286D01*
X0400056Y0165323D01*
X0400031Y0165352D01*
X0400006Y0165377D01*
X0399989Y0165390D01*
X0399985Y0165394D01*
X0399964Y0165407D01*
X0399939Y0165419D01*
X0399881Y0165440D01*
X0399815Y0165461D01*
X0399748Y0165481D01*
X0399686Y0165494D01*
X0399636Y0165506D01*
X0399615Y0165515D01*
X0399598D01*
X0399590Y0165519D01*
X0399586D01*
X0399478Y0165544D01*
X0399386Y0165565D01*
X0399307Y0165585D01*
X0399245Y0165602D01*
X0399195Y0165615D01*
X0399161Y0165627D01*
X0399141Y0165631D01*
X0399132Y0165635D01*
D02*
G37*
G36*
X0413305Y0166584D02*
X0413280D01*
X0413201Y0166576D01*
X0413127Y0166559D01*
X0413060Y0166530D01*
X0413006Y0166501D01*
X0412960Y0166467D01*
X0412927Y0166438D01*
X0412906Y0166422D01*
X0412898Y0166413D01*
X0412844Y0166347D01*
X0412806Y0166268D01*
X0412777Y0166189D01*
X0412756Y0166110D01*
X0412744Y0166039D01*
X0412740Y0166010D01*
X0412736Y0165985D01*
X0412731Y0165960D01*
Y0165943D01*
Y0165935D01*
Y0165931D01*
X0413830D01*
X0413825Y0166039D01*
X0413809Y0166130D01*
X0413784Y0166214D01*
X0413755Y0166280D01*
X0413726Y0166334D01*
X0413701Y0166372D01*
X0413684Y0166397D01*
X0413676Y0166405D01*
X0413647Y0166438D01*
X0413613Y0166463D01*
X0413551Y0166509D01*
X0413484Y0166542D01*
X0413422Y0166563D01*
X0413364Y0166576D01*
X0413322Y0166580D01*
X0413305Y0166584D01*
D02*
G37*
%LPD*%
G54D49*
X0559400Y0039400D02*
Y0059683D01*
X0440500Y0040050D02*
X0700200D01*
Y0101050D01*
X0286500Y0040050D02*
Y0101050D01*
X0040000Y0040050D02*
Y0101050D01*
X0040050Y0040050D02*
X0197600D01*
X0040050D02*
Y0101050D01*
Y0101050D02*
X0700200D01*
X0040000Y0040050D02*
X0440500D01*
X0040000Y0060383D02*
X0700000D01*
X0040000Y0080717D02*
X0700200D01*
X0413200D02*
Y0101050D01*
X0497200Y0080717D02*
Y0101050D01*
G54D63*
X0126900Y0073549D02*
Y0067551D01*
X0129899D01*
X0130899Y0068550D01*
Y0069550D01*
X0129899Y0070550D01*
X0126900D01*
X0129899D01*
X0130899Y0071549D01*
Y0072549D01*
X0129899Y0073549D01*
X0126900D01*
X0133898Y0067551D02*
X0135897D01*
X0136897Y0068550D01*
Y0070550D01*
X0135897Y0071549D01*
X0133898D01*
X0132898Y0070550D01*
Y0068550D01*
X0133898Y0067551D01*
X0139896Y0072549D02*
Y0071549D01*
X0138896D01*
X0140895D01*
X0139896D01*
Y0068550D01*
X0140895Y0067551D01*
X0144894Y0072549D02*
Y0071549D01*
X0143895D01*
X0145894D01*
X0144894D01*
Y0068550D01*
X0145894Y0067551D01*
X0149893D02*
X0151892D01*
X0152892Y0068550D01*
Y0070550D01*
X0151892Y0071549D01*
X0149893D01*
X0148893Y0070550D01*
Y0068550D01*
X0149893Y0067551D01*
X0154891D02*
Y0071549D01*
X0155891D01*
X0156890Y0070550D01*
Y0067551D01*
Y0070550D01*
X0157890Y0071549D01*
X0158890Y0070550D01*
Y0067551D01*
X0169886Y0073549D02*
X0167887D01*
X0166887Y0072549D01*
Y0068550D01*
X0167887Y0067551D01*
X0169886D01*
X0170886Y0068550D01*
Y0072549D01*
X0169886Y0073549D01*
X0172885Y0071549D02*
X0174884Y0067551D01*
X0176884Y0071549D01*
X0181882Y0067551D02*
X0179883D01*
X0178883Y0068550D01*
Y0070550D01*
X0179883Y0071549D01*
X0181882D01*
X0182882Y0070550D01*
Y0069550D01*
X0178883D01*
X0184881Y0071549D02*
Y0067551D01*
Y0069550D01*
X0185881Y0070550D01*
X0186881Y0071549D01*
X0187880D01*
X0190879Y0067551D02*
X0192879D01*
X0191879D01*
Y0073549D01*
X0190879D01*
X0196877Y0071549D02*
X0198877D01*
X0199876Y0070550D01*
Y0067551D01*
X0196877D01*
X0195878Y0068550D01*
X0196877Y0069550D01*
X0199876D01*
X0201876Y0071549D02*
Y0068550D01*
X0202875Y0067551D01*
X0205874D01*
Y0066551D01*
X0204875Y0065551D01*
X0203875D01*
X0205874Y0067551D02*
Y0071549D01*
X0348550Y0073498D02*
X0352549D01*
X0350549D01*
Y0067500D01*
X0354548Y0073498D02*
X0356547D01*
X0355548D01*
Y0067500D01*
X0354548D01*
X0356547D01*
X0359546Y0073498D02*
Y0067500D01*
X0362545D01*
X0363545Y0068500D01*
Y0072498D01*
X0362545Y0073498D01*
X0359546D01*
X0365545Y0067500D02*
Y0071499D01*
X0367544Y0073498D01*
X0369543Y0071499D01*
Y0067500D01*
Y0070499D01*
X0365545D01*
X0371543D02*
X0375541D01*
X0377541Y0072498D02*
X0378540Y0073498D01*
X0380540D01*
X0381539Y0072498D01*
Y0068500D01*
X0380540Y0067500D01*
X0378540D01*
X0377541Y0068500D01*
Y0072498D01*
X0383539Y0067500D02*
X0385538D01*
X0384538D01*
Y0073498D01*
X0383539Y0072498D01*
X0388537D02*
X0389537Y0073498D01*
X0391536D01*
X0392536Y0072498D01*
Y0068500D01*
X0391536Y0067500D01*
X0389537D01*
X0388537Y0068500D01*
Y0072498D01*
X0394535D02*
X0395535Y0073498D01*
X0397534D01*
X0398534Y0072498D01*
Y0068500D01*
X0397534Y0067500D01*
X0395535D01*
X0394535Y0068500D01*
Y0072498D01*
X0400533D02*
X0401533Y0073498D01*
X0403532D01*
X0404532Y0072498D01*
Y0071499D01*
X0403532Y0070499D01*
X0402532D01*
X0403532D01*
X0404532Y0069499D01*
Y0068500D01*
X0403532Y0067500D01*
X0401533D01*
X0400533Y0068500D01*
X0406531Y0072498D02*
X0407531Y0073498D01*
X0409530D01*
X0410530Y0072498D01*
Y0068500D01*
X0409530Y0067500D01*
X0407531D01*
X0406531Y0068500D01*
Y0072498D01*
X0294000Y0073498D02*
X0297999D01*
X0295999D01*
Y0067500D01*
X0299998Y0073498D02*
X0301997D01*
X0300998D01*
Y0067500D01*
X0299998D01*
X0301997D01*
X0304996Y0073498D02*
Y0067500D01*
X0307996D01*
X0308995Y0068500D01*
Y0072498D01*
X0307996Y0073498D01*
X0304996D01*
X0317992Y0067500D02*
Y0073498D01*
X0319992D02*
Y0067500D01*
X0316993Y0071499D02*
X0319992D01*
X0320991D01*
X0316993Y0069499D02*
X0320991D01*
X0322991Y0071499D02*
X0323990D01*
Y0070499D01*
X0322991D01*
Y0071499D01*
Y0068500D02*
X0323990D01*
Y0067500D01*
X0322991D01*
Y0068500D01*
X0580500Y0052965D02*
X0584499D01*
X0582499D01*
Y0046966D01*
X0590497Y0052965D02*
X0586498D01*
Y0046966D01*
X0590497D01*
X0586498Y0049966D02*
X0588497D01*
X0592496Y0052965D02*
X0596495Y0046966D01*
Y0052965D02*
X0592496Y0046966D01*
X0598494D02*
Y0050965D01*
X0600493Y0052965D01*
X0602493Y0050965D01*
Y0046966D01*
Y0049966D01*
X0598494D01*
X0608491Y0051965D02*
X0607491Y0052965D01*
X0605492D01*
X0604492Y0051965D01*
Y0050965D01*
X0605492Y0049966D01*
X0607491D01*
X0608491Y0048966D01*
Y0047966D01*
X0607491Y0046966D01*
X0605492D01*
X0604492Y0047966D01*
X0616488Y0052965D02*
X0618488D01*
X0617488D01*
Y0046966D01*
X0616488D01*
X0618488D01*
X0621487D02*
Y0052965D01*
X0625486Y0046966D01*
Y0052965D01*
X0631484Y0051965D02*
X0630484Y0052965D01*
X0628484D01*
X0627485Y0051965D01*
Y0050965D01*
X0628484Y0049966D01*
X0630484D01*
X0631484Y0048966D01*
Y0047966D01*
X0630484Y0046966D01*
X0628484D01*
X0627485Y0047966D01*
X0633483Y0052965D02*
X0637482D01*
X0635482D01*
Y0046966D01*
X0639481D02*
Y0052965D01*
X0642480D01*
X0643480Y0051965D01*
Y0049966D01*
X0642480Y0048966D01*
X0639481D01*
X0641480D02*
X0643480Y0046966D01*
X0645479Y0052965D02*
Y0047966D01*
X0646479Y0046966D01*
X0648478D01*
X0649478Y0047966D01*
Y0052965D01*
X0651477Y0046966D02*
Y0052965D01*
X0653476Y0050965D01*
X0655476Y0052965D01*
Y0046966D01*
X0661474Y0052965D02*
X0657475D01*
Y0046966D01*
X0661474D01*
X0657475Y0049966D02*
X0659474D01*
X0663473Y0046966D02*
Y0052965D01*
X0667472Y0046966D01*
Y0052965D01*
X0669471D02*
X0673470D01*
X0671471D01*
Y0046966D01*
X0679468Y0051965D02*
X0678468Y0052965D01*
X0676469D01*
X0675469Y0051965D01*
Y0050965D01*
X0676469Y0049966D01*
X0678468D01*
X0679468Y0048966D01*
Y0047966D01*
X0678468Y0046966D01*
X0676469D01*
X0675469Y0047966D01*
X0454050Y0046966D02*
X0456049D01*
X0455050D01*
Y0052965D01*
X0454050Y0051965D01*
X0459048D02*
X0460048Y0052965D01*
X0462047D01*
X0463047Y0051965D01*
Y0047966D01*
X0462047Y0046966D01*
X0460048D01*
X0459048Y0047966D01*
Y0051965D01*
X0465046Y0050965D02*
X0466046D01*
Y0049966D01*
X0465046D01*
Y0050965D01*
Y0047966D02*
X0466046D01*
Y0046966D01*
X0465046D01*
Y0047966D01*
X0470045Y0046966D02*
X0472044D01*
X0471044D01*
Y0052965D01*
X0470045Y0051965D01*
X0475043D02*
X0476043Y0052965D01*
X0478042D01*
X0479042Y0051965D01*
Y0050965D01*
X0478042Y0049966D01*
X0477043D01*
X0478042D01*
X0479042Y0048966D01*
Y0047966D01*
X0478042Y0046966D01*
X0476043D01*
X0475043Y0047966D01*
X0481041Y0050965D02*
X0482041D01*
Y0049966D01*
X0481041D01*
Y0050965D01*
Y0047966D02*
X0482041D01*
Y0046966D01*
X0481041D01*
Y0047966D01*
X0490038Y0046966D02*
X0486040D01*
X0490038Y0050965D01*
Y0051965D01*
X0489039Y0052965D01*
X0487039D01*
X0486040Y0051965D01*
X0492038D02*
X0493037Y0052965D01*
X0495037D01*
X0496036Y0051965D01*
Y0050965D01*
X0495037Y0049966D01*
X0494037D01*
X0495037D01*
X0496036Y0048966D01*
Y0047966D01*
X0495037Y0046966D01*
X0493037D01*
X0492038Y0047966D01*
X0046350Y0046966D02*
Y0052965D01*
X0049349D01*
X0050349Y0051965D01*
Y0049966D01*
X0049349Y0048966D01*
X0046350D01*
X0052348Y0052965D02*
Y0046966D01*
X0056347D01*
X0061345Y0052965D02*
X0059346D01*
X0058346Y0051965D01*
Y0047966D01*
X0059346Y0046966D01*
X0061345D01*
X0062345Y0047966D01*
Y0051965D01*
X0061345Y0052965D01*
X0064344D02*
X0068343D01*
X0066343D01*
Y0046966D01*
X0076340D02*
Y0052965D01*
X0080339Y0046966D01*
Y0052965D01*
X0082338Y0046966D02*
Y0050965D01*
X0084338Y0052965D01*
X0086337Y0050965D01*
Y0046966D01*
Y0049966D01*
X0082338D01*
X0088336Y0046966D02*
Y0052965D01*
X0090336Y0050965D01*
X0092335Y0052965D01*
Y0046966D01*
X0098333Y0052965D02*
X0094335D01*
Y0046966D01*
X0098333D01*
X0094335Y0049966D02*
X0096334D01*
X0106331Y0048966D02*
X0110329D01*
X0106331Y0050965D02*
X0110329D01*
X0046350Y0073549D02*
Y0067551D01*
X0050349D01*
X0052348D02*
Y0071549D01*
X0054347Y0073549D01*
X0056347Y0071549D01*
Y0067551D01*
Y0070550D01*
X0052348D01*
X0058346Y0073549D02*
Y0072549D01*
X0060346Y0070550D01*
X0062345Y0072549D01*
Y0073549D01*
X0060346Y0070550D02*
Y0067551D01*
X0068343Y0073549D02*
X0064344D01*
Y0067551D01*
X0068343D01*
X0064344Y0070550D02*
X0066343D01*
X0070342Y0067551D02*
Y0073549D01*
X0073341D01*
X0074341Y0072549D01*
Y0070550D01*
X0073341Y0069550D01*
X0070342D01*
X0072342D02*
X0074341Y0067551D01*
X0082338D02*
Y0073549D01*
X0086337Y0067551D01*
Y0073549D01*
X0088336Y0067551D02*
Y0071549D01*
X0090336Y0073549D01*
X0092335Y0071549D01*
Y0067551D01*
Y0070550D01*
X0088336D01*
X0094335Y0067551D02*
Y0073549D01*
X0096334Y0071549D01*
X0098333Y0073549D01*
Y0067551D01*
X0104331Y0073549D02*
X0100332D01*
Y0067551D01*
X0104331D01*
X0100332Y0070550D02*
X0102332D01*
X0112329Y0069550D02*
X0116327D01*
X0112329Y0071549D02*
X0116327D01*
X0294000Y0093831D02*
Y0087833D01*
X0296999D01*
X0297999Y0088833D01*
Y0089833D01*
X0296999Y0090832D01*
X0294000D01*
X0296999D01*
X0297999Y0091832D01*
Y0092832D01*
X0296999Y0093831D01*
X0294000D01*
X0302997D02*
X0300998D01*
X0299998Y0092832D01*
Y0088833D01*
X0300998Y0087833D01*
X0302997D01*
X0303997Y0088833D01*
Y0092832D01*
X0302997Y0093831D01*
X0305996Y0087833D02*
Y0091832D01*
X0307996Y0093831D01*
X0309995Y0091832D01*
Y0087833D01*
Y0090832D01*
X0305996D01*
X0311994Y0087833D02*
Y0093831D01*
X0314993D01*
X0315993Y0092832D01*
Y0090832D01*
X0314993Y0089833D01*
X0311994D01*
X0313994D02*
X0315993Y0087833D01*
X0317992Y0093831D02*
Y0087833D01*
X0320991D01*
X0321991Y0088833D01*
Y0092832D01*
X0320991Y0093831D01*
X0317992D01*
X0330988Y0087833D02*
Y0093831D01*
X0332987D02*
Y0087833D01*
X0329988Y0091832D02*
X0332987D01*
X0333987D01*
X0329988Y0089833D02*
X0333987D01*
X0335986Y0091832D02*
X0336986D01*
Y0090832D01*
X0335986D01*
Y0091832D01*
Y0088833D02*
X0336986D01*
Y0087833D01*
X0335986D01*
Y0088833D01*
X0348550Y0093831D02*
X0352549D01*
X0350549D01*
Y0087833D01*
X0354548Y0093831D02*
X0356547D01*
X0355548D01*
Y0087833D01*
X0354548D01*
X0356547D01*
X0359546Y0093831D02*
Y0087833D01*
X0362545D01*
X0363545Y0088833D01*
Y0092832D01*
X0362545Y0093831D01*
X0359546D01*
X0365545Y0087833D02*
Y0091832D01*
X0367544Y0093831D01*
X0369543Y0091832D01*
Y0087833D01*
Y0090832D01*
X0365545D01*
X0371543D02*
X0375541D01*
X0377541Y0092832D02*
X0378540Y0093831D01*
X0380540D01*
X0381539Y0092832D01*
Y0088833D01*
X0380540Y0087833D01*
X0378540D01*
X0377541Y0088833D01*
Y0092832D01*
X0383539Y0087833D02*
X0385538D01*
X0384538D01*
Y0093831D01*
X0383539Y0092832D01*
X0388537D02*
X0389537Y0093831D01*
X0391536D01*
X0392536Y0092832D01*
Y0088833D01*
X0391536Y0087833D01*
X0389537D01*
X0388537Y0088833D01*
Y0092832D01*
X0394535D02*
X0395535Y0093831D01*
X0397534D01*
X0398534Y0092832D01*
Y0088833D01*
X0397534Y0087833D01*
X0395535D01*
X0394535Y0088833D01*
Y0092832D01*
X0400533D02*
X0401533Y0093831D01*
X0403532D01*
X0404532Y0092832D01*
Y0091832D01*
X0403532Y0090832D01*
X0402532D01*
X0403532D01*
X0404532Y0089833D01*
Y0088833D01*
X0403532Y0087833D01*
X0401533D01*
X0400533Y0088833D01*
X0406531Y0092832D02*
X0407531Y0093831D01*
X0409530D01*
X0410530Y0092832D01*
Y0088833D01*
X0409530Y0087833D01*
X0407531D01*
X0406531Y0088833D01*
Y0092832D01*
X0466149Y0093831D02*
X0462150D01*
Y0087833D01*
X0466149D01*
X0462150Y0090832D02*
X0464149D01*
X0468148Y0087833D02*
X0470147D01*
X0469148D01*
Y0093831D01*
X0468148Y0092832D01*
X0046350Y0087833D02*
Y0091832D01*
X0048349Y0093831D01*
X0050349Y0091832D01*
Y0087833D01*
Y0090832D01*
X0046350D01*
X0052348Y0093831D02*
Y0087833D01*
X0056347D01*
X0058346Y0093831D02*
Y0087833D01*
X0062345D01*
X0070342D02*
Y0091832D01*
X0072342Y0093831D01*
X0074341Y0091832D01*
Y0087833D01*
Y0090832D01*
X0070342D01*
X0076340Y0087833D02*
Y0093831D01*
X0079339D01*
X0080339Y0092832D01*
Y0090832D01*
X0079339Y0089833D01*
X0076340D01*
X0078340D02*
X0080339Y0087833D01*
X0082338Y0093831D02*
X0086337D01*
X0084338D01*
Y0087833D01*
X0088336Y0093831D02*
Y0087833D01*
X0090336Y0089833D01*
X0092335Y0087833D01*
Y0093831D01*
X0097334D02*
X0095334D01*
X0094335Y0092832D01*
Y0088833D01*
X0095334Y0087833D01*
X0097334D01*
X0098333Y0088833D01*
Y0092832D01*
X0097334Y0093831D01*
X0100332Y0087833D02*
Y0093831D01*
X0103332D01*
X0104331Y0092832D01*
Y0090832D01*
X0103332Y0089833D01*
X0100332D01*
X0102332D02*
X0104331Y0087833D01*
X0106331Y0093831D02*
Y0087833D01*
Y0089833D01*
X0110329Y0093831D01*
X0107330Y0090832D01*
X0110329Y0087833D01*
X0118327Y0093831D02*
Y0089833D01*
X0120326Y0087833D01*
X0122325Y0089833D01*
Y0093831D01*
X0124325D02*
X0126324D01*
X0125324D01*
Y0087833D01*
X0124325D01*
X0126324D01*
X0133322Y0093831D02*
X0129323D01*
Y0087833D01*
X0133322D01*
X0129323Y0090832D02*
X0131323D01*
X0135321Y0093831D02*
Y0087833D01*
X0137321Y0089833D01*
X0139320Y0087833D01*
Y0093831D01*
X0145318D02*
X0141319D01*
Y0087833D01*
X0145318D01*
X0141319Y0090832D02*
X0143319D01*
X0147317Y0093831D02*
Y0087833D01*
X0150316D01*
X0151316Y0088833D01*
Y0092832D01*
X0150316Y0093831D01*
X0147317D01*
X0163312D02*
X0159313D01*
Y0090832D01*
X0161313D01*
X0159313D01*
Y0087833D01*
X0165312D02*
Y0093831D01*
X0168310D01*
X0169310Y0092832D01*
Y0090832D01*
X0168310Y0089833D01*
X0165312D01*
X0167311D02*
X0169310Y0087833D01*
X0174309Y0093831D02*
X0172309D01*
X0171310Y0092832D01*
Y0088833D01*
X0172309Y0087833D01*
X0174309D01*
X0175308Y0088833D01*
Y0092832D01*
X0174309Y0093831D01*
X0177308Y0087833D02*
Y0093831D01*
X0179307Y0091832D01*
X0181306Y0093831D01*
Y0087833D01*
X0189304Y0093831D02*
X0193303D01*
X0191303D01*
Y0087833D01*
X0198301Y0093831D02*
X0196301D01*
X0195302Y0092832D01*
Y0088833D01*
X0196301Y0087833D01*
X0198301D01*
X0199301Y0088833D01*
Y0092832D01*
X0198301Y0093831D01*
X0201300Y0087833D02*
Y0093831D01*
X0204299D01*
X0205299Y0092832D01*
Y0090832D01*
X0204299Y0089833D01*
X0201300D01*
X0217295Y0092832D02*
X0216295Y0093831D01*
X0214296D01*
X0213296Y0092832D01*
Y0091832D01*
X0214296Y0090832D01*
X0216295D01*
X0217295Y0089833D01*
Y0088833D01*
X0216295Y0087833D01*
X0214296D01*
X0213296Y0088833D01*
X0219294Y0093831D02*
X0221293D01*
X0220294D01*
Y0087833D01*
X0219294D01*
X0221293D01*
X0224292Y0093831D02*
Y0087833D01*
X0227291D01*
X0228291Y0088833D01*
Y0092832D01*
X0227291Y0093831D01*
X0224292D01*
X0234289D02*
X0230291D01*
Y0087833D01*
X0234289D01*
X0230291Y0090832D02*
X0232290D01*
X0298199Y0051965D02*
X0297199Y0052965D01*
X0295200D01*
X0294200Y0051965D01*
Y0047966D01*
X0295200Y0046966D01*
X0297199D01*
X0298199Y0047966D01*
Y0049966D01*
X0296199D01*
X0304197Y0052965D02*
X0300198D01*
Y0046966D01*
X0304197D01*
X0300198Y0049966D02*
X0302197D01*
X0306196Y0046966D02*
Y0052965D01*
X0310195Y0046966D01*
Y0052965D01*
X0316193D02*
X0312194D01*
Y0046966D01*
X0316193D01*
X0312194Y0049966D02*
X0314194D01*
X0318192Y0046966D02*
Y0052965D01*
X0321191D01*
X0322191Y0051965D01*
Y0049966D01*
X0321191Y0048966D01*
X0318192D01*
X0320192D02*
X0322191Y0046966D01*
X0324190D02*
Y0050965D01*
X0326190Y0052965D01*
X0328189Y0050965D01*
Y0046966D01*
Y0049966D01*
X0324190D01*
X0330188Y0052965D02*
X0334187D01*
X0332188D01*
Y0046966D01*
X0340185Y0052965D02*
X0336186D01*
Y0046966D01*
X0340185D01*
X0336186Y0049966D02*
X0338186D01*
X0342184Y0052965D02*
Y0046966D01*
X0345183D01*
X0346183Y0047966D01*
Y0051965D01*
X0345183Y0052965D01*
X0342184D01*
X0372175Y0050965D02*
X0373175D01*
Y0049966D01*
X0372175D01*
Y0050965D01*
Y0047966D02*
X0373175D01*
Y0046966D01*
X0372175D01*
Y0047966D01*
X0385149Y0046966D02*
X0381150D01*
X0385149Y0050965D01*
Y0051965D01*
X0384149Y0052965D01*
X0382150D01*
X0381150Y0051965D01*
X0387148D02*
X0388148Y0052965D01*
X0390147D01*
X0391147Y0051965D01*
Y0047966D01*
X0390147Y0046966D01*
X0388148D01*
X0387148Y0047966D01*
Y0051965D01*
X0393146Y0046966D02*
X0395146D01*
X0394146D01*
Y0052965D01*
X0393146Y0051965D01*
X0398145Y0047966D02*
X0399144Y0046966D01*
X0401144D01*
X0402143Y0047966D01*
Y0051965D01*
X0401144Y0052965D01*
X0399144D01*
X0398145Y0051965D01*
Y0050965D01*
X0399144Y0049966D01*
X0402143D01*
X0404143Y0046966D02*
X0408141Y0050965D01*
X0414139Y0052965D02*
X0412140Y0051965D01*
X0410141Y0049966D01*
Y0047966D01*
X0411140Y0046966D01*
X0413140D01*
X0414139Y0047966D01*
Y0048966D01*
X0413140Y0049966D01*
X0410141D01*
X0416139Y0046966D02*
X0420137Y0050965D01*
X0422137Y0046966D02*
X0424136D01*
X0423136D01*
Y0052965D01*
X0422137Y0051965D01*
X0427135Y0052965D02*
X0431134D01*
Y0051965D01*
X0427135Y0047966D01*
Y0046966D01*
X0126900Y0052965D02*
X0130899D01*
X0128899D01*
Y0046966D01*
X0132898Y0052965D02*
X0134897D01*
X0133898D01*
Y0046966D01*
X0132898D01*
X0134897D01*
X0137896Y0052965D02*
Y0046966D01*
X0140895D01*
X0141895Y0047966D01*
Y0051965D01*
X0140895Y0052965D01*
X0137896D01*
X0143895Y0046966D02*
Y0050965D01*
X0145894Y0052965D01*
X0147893Y0050965D01*
Y0046966D01*
Y0049966D01*
X0143895D01*
X0149893D02*
X0153891D01*
X0155891Y0051965D02*
X0156890Y0052965D01*
X0158890D01*
X0159889Y0051965D01*
Y0047966D01*
X0158890Y0046966D01*
X0156890D01*
X0155891Y0047966D01*
Y0051965D01*
X0161889Y0046966D02*
X0163888D01*
X0162888D01*
Y0052965D01*
X0161889Y0051965D01*
X0166887D02*
X0167887Y0052965D01*
X0169886D01*
X0170886Y0051965D01*
Y0047966D01*
X0169886Y0046966D01*
X0167887D01*
X0166887Y0047966D01*
Y0051965D01*
X0172885D02*
X0173885Y0052965D01*
X0175884D01*
X0176884Y0051965D01*
Y0047966D01*
X0175884Y0046966D01*
X0173885D01*
X0172885Y0047966D01*
Y0051965D01*
X0178883D02*
X0179883Y0052965D01*
X0181882D01*
X0182882Y0051965D01*
Y0050965D01*
X0181882Y0049966D01*
X0180883D01*
X0181882D01*
X0182882Y0048966D01*
Y0047966D01*
X0181882Y0046966D01*
X0179883D01*
X0178883Y0047966D01*
X0184881Y0051965D02*
X0185881Y0052965D01*
X0187880D01*
X0188880Y0051965D01*
Y0047966D01*
X0187880Y0046966D01*
X0185881D01*
X0184881Y0047966D01*
Y0051965D01*
X0194878Y0052965D02*
X0190879D01*
Y0046966D01*
X0194878D01*
X0190879Y0049966D02*
X0192879D01*
X0196877Y0046966D02*
X0198877D01*
X0197877D01*
Y0052965D01*
X0196877Y0051965D01*
X0201876Y0046966D02*
Y0047966D01*
X0202875D01*
Y0046966D01*
X0201876D01*
X0210873Y0051965D02*
X0209873Y0052965D01*
X0207874D01*
X0206874Y0051965D01*
Y0047966D01*
X0207874Y0046966D01*
X0209873D01*
X0210873Y0047966D01*
Y0049966D01*
X0208874D01*
X0212872Y0052965D02*
Y0046966D01*
X0215871D01*
X0216871Y0047966D01*
Y0048966D01*
X0215871Y0049966D01*
X0212872D01*
X0215871D01*
X0216871Y0050965D01*
Y0051965D01*
X0215871Y0052965D01*
X0212872D01*
X0221869D02*
X0219870D01*
X0218870Y0051965D01*
Y0047966D01*
X0219870Y0046966D01*
X0221869D01*
X0222869Y0047966D01*
Y0051965D01*
X0221869Y0052965D01*
X0433000Y0087833D02*
Y0093831D01*
X0435999D01*
X0436999Y0092832D01*
Y0090832D01*
X0435999Y0089833D01*
X0433000D01*
X0434999D02*
X0436999Y0087833D01*
X0442997Y0093831D02*
X0438998D01*
Y0087833D01*
X0442997D01*
X0438998Y0090832D02*
X0440997D01*
X0444996Y0093831D02*
Y0089833D01*
X0446995Y0087833D01*
X0448995Y0089833D01*
Y0093831D01*
X0450994Y0091832D02*
X0451994D01*
Y0090832D01*
X0450994D01*
Y0091832D01*
Y0088833D02*
X0451994D01*
Y0087833D01*
X0450994D01*
Y0088833D01*
X0520799Y0092832D02*
X0519799Y0093831D01*
X0517800D01*
X0516800Y0092832D01*
Y0091832D01*
X0517800Y0090832D01*
X0519799D01*
X0520799Y0089833D01*
Y0088833D01*
X0519799Y0087833D01*
X0517800D01*
X0516800Y0088833D01*
X0522798Y0093831D02*
Y0089833D01*
X0524797Y0087833D01*
X0526797Y0089833D01*
Y0093831D01*
X0528796Y0087833D02*
Y0093831D01*
X0532795Y0087833D01*
Y0093831D01*
X0540792Y0087833D02*
Y0093831D01*
X0543791D01*
X0544791Y0092832D01*
Y0090832D01*
X0543791Y0089833D01*
X0540792D01*
X0542792D02*
X0544791Y0087833D01*
X0550789Y0093831D02*
X0546790D01*
Y0087833D01*
X0550789D01*
X0546790Y0090832D02*
X0548790D01*
X0552788Y0093831D02*
Y0089833D01*
X0554788Y0087833D01*
X0556787Y0089833D01*
Y0093831D01*
X0558786Y0091832D02*
X0559786D01*
Y0090832D01*
X0558786D01*
Y0091832D01*
Y0088833D02*
X0559786D01*
Y0087833D01*
X0558786D01*
Y0088833D01*
X0567400Y0087833D02*
Y0093831D01*
X0571399Y0087833D01*
Y0093831D01*
X0574398Y0087833D02*
X0576397D01*
X0577397Y0088833D01*
Y0090832D01*
X0576397Y0091832D01*
X0574398D01*
X0573398Y0090832D01*
Y0088833D01*
X0574398Y0087833D01*
X0580396Y0092832D02*
Y0091832D01*
X0579396D01*
X0581395D01*
X0580396D01*
Y0088833D01*
X0581395Y0087833D01*
X0590393Y0093831D02*
X0592392D01*
X0591392D01*
Y0087833D01*
X0590393D01*
X0592392D01*
X0595391D02*
Y0091832D01*
X0598390D01*
X0599390Y0090832D01*
Y0087833D01*
X0607387Y0093831D02*
Y0089833D01*
X0609386Y0087833D01*
X0611386Y0089833D01*
Y0093831D01*
X0616384Y0087833D02*
X0614385D01*
X0613385Y0088833D01*
Y0090832D01*
X0614385Y0091832D01*
X0616384D01*
X0617384Y0090832D01*
Y0089833D01*
X0613385D01*
X0619383Y0091832D02*
Y0087833D01*
Y0089833D01*
X0620383Y0090832D01*
X0621383Y0091832D01*
X0622382D01*
X0625381Y0087833D02*
X0628380D01*
X0629380Y0088833D01*
X0628380Y0089833D01*
X0626381D01*
X0625381Y0090832D01*
X0626381Y0091832D01*
X0629380D01*
X0631379Y0087833D02*
X0633379D01*
X0632379D01*
Y0091832D01*
X0631379D01*
X0637377Y0087833D02*
X0639377D01*
X0640376Y0088833D01*
Y0090832D01*
X0639377Y0091832D01*
X0637377D01*
X0636378Y0090832D01*
Y0088833D01*
X0637377Y0087833D01*
X0642376D02*
Y0091832D01*
X0645375D01*
X0646374Y0090832D01*
Y0087833D01*
X0652373Y0092832D02*
X0651373Y0093831D01*
X0649373D01*
X0648374Y0092832D01*
Y0088833D01*
X0649373Y0087833D01*
X0651373D01*
X0652373Y0088833D01*
X0655372Y0087833D02*
X0657371D01*
X0658371Y0088833D01*
Y0090832D01*
X0657371Y0091832D01*
X0655372D01*
X0654372Y0090832D01*
Y0088833D01*
X0655372Y0087833D01*
X0660370D02*
Y0091832D01*
X0663369D01*
X0664369Y0090832D01*
Y0087833D01*
X0667368Y0092832D02*
Y0091832D01*
X0666368D01*
X0668367D01*
X0667368D01*
Y0088833D01*
X0668367Y0087833D01*
X0671366Y0091832D02*
Y0087833D01*
Y0089833D01*
X0672366Y0090832D01*
X0673366Y0091832D01*
X0674365D01*
X0678364Y0087833D02*
X0680364D01*
X0681363Y0088833D01*
Y0090832D01*
X0680364Y0091832D01*
X0678364D01*
X0677364Y0090832D01*
Y0088833D01*
X0678364Y0087833D01*
X0683362D02*
X0685362D01*
X0684362D01*
Y0093831D01*
X0683362D01*
G54D82*
X0095642Y0572936D02*
X0099185D01*
X0095642D02*
Y0582464D01*
X0099185D01*
X0110996D02*
X0114540D01*
Y0572936D02*
Y0582464D01*
X0110996Y0572936D02*
X0114540D01*
X0095642Y0561128D02*
X0099185D01*
X0095642D02*
Y0570655D01*
X0099185D01*
X0110996D02*
X0114540D01*
Y0561128D02*
Y0570655D01*
X0110996Y0561128D02*
X0114540D01*
X0095642Y0549319D02*
X0099185D01*
X0095642D02*
Y0558847D01*
X0099185D01*
X0110996D02*
X0114540D01*
Y0549319D02*
Y0558847D01*
X0110996Y0549319D02*
X0114540D01*
X0095642Y0537511D02*
X0099185D01*
X0095642D02*
Y0547039D01*
X0099185D01*
X0110996D02*
X0114540D01*
Y0537511D02*
Y0547039D01*
X0110996Y0537511D02*
X0114540D01*
X0095642Y0525703D02*
X0099185D01*
X0095642D02*
Y0535230D01*
X0099185D01*
X0110996D02*
X0114540D01*
Y0525703D02*
Y0535230D01*
X0110996Y0525703D02*
X0114540D01*
X0095642Y0513895D02*
X0099185D01*
X0095642D02*
Y0523422D01*
X0099185D01*
X0110996D02*
X0114540D01*
Y0513895D02*
Y0523422D01*
X0110996Y0513895D02*
X0114540D01*
X0095642Y0502086D02*
X0099185D01*
X0095642D02*
Y0511614D01*
X0099185D01*
X0110996D02*
X0114540D01*
Y0502086D02*
Y0511614D01*
X0110996Y0502086D02*
X0114540D01*
X0095642Y0491578D02*
X0099185D01*
X0095642D02*
Y0501105D01*
X0099185D01*
X0110996D02*
X0114540D01*
Y0491578D02*
Y0501105D01*
X0110996Y0491578D02*
X0114540D01*
X0095642Y0478470D02*
X0099185D01*
X0095642D02*
Y0487997D01*
X0099185D01*
X0110996D02*
X0114540D01*
Y0478470D02*
Y0487997D01*
X0110996Y0478470D02*
X0114540D01*
X0095642Y0466661D02*
X0099185D01*
X0095642D02*
Y0476189D01*
X0099185D01*
X0110996D02*
X0114540D01*
Y0466661D02*
Y0476189D01*
X0110996Y0466661D02*
X0114540D01*
X0095642Y0454853D02*
X0099185D01*
X0095642D02*
Y0464380D01*
X0099185D01*
X0110996D02*
X0114540D01*
Y0454853D02*
Y0464380D01*
X0110996Y0454853D02*
X0114540D01*
X0095642Y0443045D02*
X0099185D01*
X0095642D02*
Y0452572D01*
X0099185D01*
X0110996D02*
X0114540D01*
Y0443045D02*
Y0452572D01*
X0110996Y0443045D02*
X0114540D01*
X0095642Y0431236D02*
X0099185D01*
X0095642D02*
Y0440764D01*
X0099185D01*
X0110996D02*
X0114540D01*
Y0431236D02*
Y0440764D01*
X0110996Y0431236D02*
X0114540D01*
G54D84*
X0124300Y0574900D02*
Y0577899D01*
X0122801D01*
X0122301Y0577399D01*
Y0576400D01*
X0122801Y0575900D01*
X0124300D01*
X0123300D02*
X0122301Y0574900D01*
X0119801D02*
Y0577899D01*
X0121301Y0576400D01*
X0119302D01*
X0116303Y0577899D02*
X0117302Y0577399D01*
X0118302Y0576400D01*
Y0575400D01*
X0117802Y0574900D01*
X0116802D01*
X0116303Y0575400D01*
Y0575900D01*
X0116802Y0576400D01*
X0118302D01*
X0123900Y0562200D02*
Y0565199D01*
X0122400D01*
X0121901Y0564699D01*
Y0563699D01*
X0122400Y0563200D01*
X0123900D01*
X0122900D02*
X0121901Y0562200D01*
X0119401D02*
Y0565199D01*
X0120901Y0563699D01*
X0118902D01*
X0116402Y0562200D02*
Y0565199D01*
X0117902Y0563699D01*
X0115903D01*
X0124700Y0549200D02*
Y0552199D01*
X0123201D01*
X0122701Y0551699D01*
Y0550700D01*
X0123201Y0550200D01*
X0124700D01*
X0123700D02*
X0122701Y0549200D01*
X0120201D02*
Y0552199D01*
X0121701Y0550700D01*
X0119702D01*
X0116703Y0549200D02*
X0118702D01*
X0116703Y0551199D01*
Y0551699D01*
X0117202Y0552199D01*
X0118202D01*
X0118702Y0551699D01*
X0124700Y0538200D02*
Y0541199D01*
X0123201D01*
X0122701Y0540699D01*
Y0539700D01*
X0123201Y0539200D01*
X0124700D01*
X0123700D02*
X0122701Y0538200D01*
X0120201D02*
Y0541199D01*
X0121701Y0539700D01*
X0119702D01*
X0118702Y0540699D02*
X0118202Y0541199D01*
X0117202D01*
X0116703Y0540699D01*
Y0538700D01*
X0117202Y0538200D01*
X0118202D01*
X0118702Y0538700D01*
Y0540699D01*
X0124500Y0525800D02*
Y0528799D01*
X0123001D01*
X0122501Y0528299D01*
Y0527299D01*
X0123001Y0526800D01*
X0124500D01*
X0123500D02*
X0122501Y0525800D01*
X0119502D02*
X0121501D01*
X0119502Y0527799D01*
Y0528299D01*
X0120001Y0528799D01*
X0121001D01*
X0121501Y0528299D01*
X0118502Y0526300D02*
X0118002Y0525800D01*
X0117002D01*
X0116503Y0526300D01*
Y0528299D01*
X0117002Y0528799D01*
X0118002D01*
X0118502Y0528299D01*
Y0527799D01*
X0118002Y0527299D01*
X0116503D01*
X0124400Y0513800D02*
Y0516799D01*
X0122900D01*
X0122401Y0516299D01*
Y0515300D01*
X0122900Y0514800D01*
X0124400D01*
X0123400D02*
X0122401Y0513800D01*
X0119402D02*
X0121401D01*
X0119402Y0515799D01*
Y0516299D01*
X0119901Y0516799D01*
X0120901D01*
X0121401Y0516299D01*
X0118402Y0516799D02*
X0116403D01*
Y0516299D01*
X0118402Y0514300D01*
Y0513800D01*
X0124500Y0502100D02*
Y0505099D01*
X0123001D01*
X0122501Y0504599D01*
Y0503600D01*
X0123001Y0503100D01*
X0124500D01*
X0123500D02*
X0122501Y0502100D01*
X0119502D02*
X0121501D01*
X0119502Y0504099D01*
Y0504599D01*
X0120001Y0505099D01*
X0121001D01*
X0121501Y0504599D01*
X0116503Y0505099D02*
X0118502D01*
Y0503600D01*
X0117502Y0504099D01*
X0117002D01*
X0116503Y0503600D01*
Y0502600D01*
X0117002Y0502100D01*
X0118002D01*
X0118502Y0502600D01*
X0124500Y0492000D02*
Y0494999D01*
X0123001D01*
X0122501Y0494499D01*
Y0493500D01*
X0123001Y0493000D01*
X0124500D01*
X0123500D02*
X0122501Y0492000D01*
X0119502D02*
X0121501D01*
X0119502Y0493999D01*
Y0494499D01*
X0120001Y0494999D01*
X0121001D01*
X0121501Y0494499D01*
X0118502D02*
X0118002Y0494999D01*
X0117002D01*
X0116503Y0494499D01*
Y0493999D01*
X0117002Y0493500D01*
X0117502D01*
X0117002D01*
X0116503Y0493000D01*
Y0492500D01*
X0117002Y0492000D01*
X0118002D01*
X0118502Y0492500D01*
X0124700Y0478200D02*
Y0481199D01*
X0123201D01*
X0122701Y0480699D01*
Y0479700D01*
X0123201Y0479200D01*
X0124700D01*
X0123700D02*
X0122701Y0478200D01*
X0121701D02*
X0120701D01*
X0121201D01*
Y0481199D01*
X0121701Y0480699D01*
X0119202D02*
X0118702Y0481199D01*
X0117702D01*
X0117202Y0480699D01*
Y0478700D01*
X0117702Y0478200D01*
X0118702D01*
X0119202Y0478700D01*
Y0480699D01*
X0121300Y0466600D02*
Y0469599D01*
X0119800D01*
X0119301Y0469099D01*
Y0468099D01*
X0119800Y0467600D01*
X0121300D01*
X0120300D02*
X0119301Y0466600D01*
X0118301Y0469099D02*
X0117801Y0469599D01*
X0116801D01*
X0116302Y0469099D01*
Y0468599D01*
X0116801Y0468099D01*
X0116302Y0467600D01*
Y0467100D01*
X0116801Y0466600D01*
X0117801D01*
X0118301Y0467100D01*
Y0467600D01*
X0117801Y0468099D01*
X0118301Y0468599D01*
Y0469099D01*
X0117801Y0468099D02*
X0116801D01*
X0121200Y0454700D02*
Y0457699D01*
X0119701D01*
X0119201Y0457199D01*
Y0456200D01*
X0119701Y0455700D01*
X0121200D01*
X0120200D02*
X0119201Y0454700D01*
X0116202Y0457699D02*
X0117201Y0457199D01*
X0118201Y0456200D01*
Y0455200D01*
X0117701Y0454700D01*
X0116701D01*
X0116202Y0455200D01*
Y0455700D01*
X0116701Y0456200D01*
X0118201D01*
X0121000Y0442900D02*
Y0445899D01*
X0119501D01*
X0119001Y0445399D01*
Y0444399D01*
X0119501Y0443900D01*
X0121000D01*
X0120000D02*
X0119001Y0442900D01*
X0116501D02*
Y0445899D01*
X0118001Y0444399D01*
X0116002D01*
X0121200Y0431100D02*
Y0434099D01*
X0119701D01*
X0119201Y0433599D01*
Y0432599D01*
X0119701Y0432100D01*
X0121200D01*
X0120200D02*
X0119201Y0431100D01*
X0116202D02*
X0118201D01*
X0116202Y0433099D01*
Y0433599D01*
X0116701Y0434099D01*
X0117701D01*
X0118201Y0433599D01*
M02*
