M48
;Layer_Color=9474304
;FILE_FORMAT=2:5
INCH
;TYPE=PLATED
T1F00S00C0.00787
T2F00S00C0.01400
T3F00S00C0.02362
T4F00S00C0.03543
T5F00S00C0.04016
T6F00S00C0.07600
%
T01
X0256735Y0563223
X0261065
Y0568341
X0256735
Y0573459
X0261065
Y0578577
X0256735
T02
X0315300Y0175300
X0318500
X0321700
X0324900
Y0178500
X0321700
X0318500
X0315300
Y0181700
X0318500
X0321700
X0324900
Y0184900
X0321700
X0318500
X0315300
Y0188100
X0318500
X0321700
X0324900
Y0191300
X0321700
X0318500
X0315300
Y0194500
X0318500
X0321700
X0324900
Y0197700
X0321700
X0318500
X0315300
Y0200900
X0318500
X0321700
X0324900
Y0204100
X0321700
X0318500
X0315300
Y0207300
X0318500
X0321700
X0324900
Y0210500
X0321700
X0318500
X0315300
Y0213700
X0318500
X0321700
X0324900
Y0216900
X0321700
X0318500
X0315300
Y0220100
X0318500
X0321700
X0324900
Y0223300
X0321700
X0318500
Y0226500
X0315300
Y0229700
Y0232900
X0318500
Y0229700
X0321700
Y0232900
X0324900
Y0236100
X0321700
X0318500
X0315300
Y0239300
Y0242500
Y0245700
Y0248900
Y0252100
Y0255300
Y0258500
Y0261700
X0318500
Y0264900
X0315300
Y0268100
X0318500
X0321700
Y0264900
Y0261700
X0324900
Y0258500
X0321700
X0318500
Y0255300
X0321700
Y0252100
Y0248900
Y0245700
Y0242500
Y0239300
X0324900
Y0242500
Y0245700
Y0248900
Y0252100
Y0255300
X0318500Y0252100
Y0248900
Y0245700
Y0242500
Y0239300
X0321700Y0226500
X0324900
Y0229700
X0315300Y0223300
X0324900Y0264900
Y0268100
X0304200Y0264700
X0269700Y0264400
X0266500
X0263300
X0260100
X0256900
X0253700
X0250500
X0247300
X0244100
X0240900
X0237700
X0234500
X0231300
X0228100
X0224900
X0221700
X0218500
X0215300
X0212100
X0208900
X0205700
Y0261200
X0208900
X0212100
X0215300
X0218500
X0221700
X0224900
X0228100
X0231300
X0234500
X0237700
X0240900
X0244100
X0247300
X0250500
X0253700
X0256900
X0260100
X0263300
X0266500
X0269700
Y0267600
X0266500
X0263300
X0260100
X0256900
X0253700
X0250500
X0247300
X0244100
X0240900
X0237700
X0234500
X0231300
X0228100
X0224900
X0221700
X0218500
X0215300
X0212100
X0208900
X0205700
Y0270800
X0208900
X0212100
X0215300
X0218500
X0221700
X0224900
X0228100
X0231300
X0234500
X0237700
X0240900
X0244100
X0247300
X0250500
X0253700
X0256900
X0260100
X0263300
X0266500
X0269700
X0288700Y0289700
X0269700Y0227800
X0266500
X0263300
X0260100
X0256900
X0253700
X0250500
X0247300
X0244100
X0240900
X0237700
X0234500
X0231300
X0228100
X0224900
X0221700
X0218500
X0215300
X0212100
X0208900
X0205700
Y0224600
Y0221400
Y0218200
X0208900
Y0221400
Y0224600
X0212100
Y0221400
Y0218200
X0215300
Y0221400
Y0224600
X0218500
Y0221400
Y0218200
X0221700
Y0221400
Y0224600
X0224900
Y0221400
Y0218200
X0228100
Y0221400
Y0224600
X0231300
Y0221400
Y0218200
X0234500
Y0221400
Y0224600
X0237700
Y0221400
Y0218200
X0240900
Y0221400
Y0224600
X0244100
Y0221400
Y0218200
X0247300
Y0221400
Y0224600
X0250500
Y0221400
Y0218200
X0253700
Y0221400
Y0224600
X0256900
Y0221400
Y0218200
X0260100
Y0221400
Y0224600
X0263300
Y0221400
Y0218200
X0266500
Y0221400
Y0224600
X0269700
Y0221400
Y0218200
X0269800Y0184500
X0266600
X0263400
X0260200
X0257000
X0253800
X0250600
X0247400
X0244200
X0241000
X0237800
X0234600
X0231400
X0228200
X0225000
X0221800
X0218600
X0215400
X0212200
X0209000
X0205800
Y0181300
Y0178100
Y0174900
X0209000
Y0178100
Y0181300
X0212200
Y0178100
Y0174900
X0215400
Y0178100
Y0181300
X0218600
Y0178100
Y0174900
X0221800
Y0178100
Y0181300
X0225000
Y0178100
Y0174900
X0228200
Y0178100
Y0181300
X0231400
Y0178100
Y0174900
X0234600
Y0178100
Y0181300
X0237800
Y0178100
Y0174900
X0241000
Y0178100
Y0181300
X0244200
Y0178100
Y0174900
X0247400
Y0178100
Y0181300
X0250600
Y0178100
Y0174900
X0253800
Y0178100
Y0181300
X0257000
Y0178100
Y0174900
X0260200
Y0178100
Y0181300
X0263400
Y0178100
Y0174900
X0266600
Y0178100
Y0181300
X0269800
Y0178100
Y0174900
X0304200Y0178600
Y0221000
X0176000Y0205700
Y0248800
X0174800Y0283400
X0143000Y0282100
Y0285300
X0139800
X0136600
X0133400
Y0282100
X0136600
X0139800
Y0278900
X0136600
X0133400
Y0275700
X0136600
X0139800
X0143000
Y0278900
Y0272500
X0139800
X0136600
X0133400
Y0269300
X0136600
X0139800
X0143000
Y0266100
X0139800
X0136600
X0133400
Y0262900
X0136600
X0139800
X0143000
Y0259700
X0139800
X0136600
X0133400
Y0256500
X0136600
X0139800
X0143000
Y0253300
X0139800
X0136600
X0133400
Y0250100
X0136600
X0139800
X0143000
Y0246900
X0139800
X0136600
X0133400
Y0243700
X0136600
X0139800
X0143000
Y0240500
X0139800
X0136600
X0133400
Y0237300
X0136600
X0139800
X0143000
Y0234100
X0139800
X0136600
X0133400
Y0230900
X0136600
X0139800
X0143000
X0113900Y0196100
Y0192900
Y0189700
Y0186500
Y0183300
Y0180100
Y0176900
Y0173700
Y0170500
Y0167300
Y0164100
Y0160900
X0110700
X0107500
X0104300
Y0164100
X0107500
X0110700
Y0167300
X0107500
X0104300
Y0170500
X0107500
X0110700
Y0173700
X0107500
X0104300
Y0176900
X0107500
X0110700
Y0180100
X0107500
X0104300
Y0183300
X0107500
X0110700
Y0186500
X0107500
X0104300
Y0189700
X0107500
X0110700
Y0192900
X0107500
X0104300
Y0196100
X0107500
X0110700
X0106300Y0434200
Y0437700
Y0446400
Y0449700
Y0458200
Y0461700
X0160500Y0444600
X0177000
X0177600Y0428000
X0174800
X0172000
X0169200
X0167800Y0425500
X0170600
X0173400
X0176200
X0179000
X0181800
X0184600
X0187400
X0186000Y0428000
X0183200
X0180400
X0179800Y0418200
Y0415000
Y0411800
Y0408600
Y0405400
Y0402200
Y0399000
Y0395800
Y0392600
Y0389400
Y0386200
Y0383000
Y0379800
Y0376600
Y0373400
Y0370200
Y0367000
Y0363800
Y0360600
Y0357400
Y0354200
Y0351000
Y0347800
Y0344600
Y0341400
Y0338200
Y0335000
Y0331800
Y0328600
Y0325400
X0183000
Y0328600
Y0331800
Y0335000
Y0338200
Y0341400
Y0344600
Y0347800
Y0351000
Y0354200
Y0357400
Y0360600
Y0363800
Y0367000
Y0370200
Y0373400
Y0376600
Y0379800
Y0383000
Y0386200
Y0389400
Y0392600
Y0395800
Y0399000
Y0402200
Y0405400
Y0408600
Y0411800
Y0415000
Y0418200
X0176600
Y0415000
Y0411800
Y0408600
Y0405400
Y0402200
Y0399000
Y0395800
Y0392600
Y0389400
Y0386200
Y0383000
Y0379800
Y0376600
Y0373400
Y0370200
Y0367000
Y0363800
Y0360600
Y0357400
Y0354200
Y0351000
Y0347800
Y0344600
Y0341400
Y0338200
Y0335000
Y0331800
Y0328600
Y0325400
X0173400
Y0328600
Y0331800
Y0335000
Y0338200
Y0341400
Y0344600
Y0347800
Y0351000
Y0354200
Y0357400
Y0360600
Y0363800
Y0367000
Y0370200
Y0373400
Y0376600
Y0379800
Y0383000
Y0386200
Y0389400
Y0392600
Y0395800
Y0399000
Y0402200
Y0405400
Y0408600
Y0411800
Y0415000
Y0418200
X0200900Y0406800
X0205100
X0221300Y0405400
Y0402200
Y0399000
Y0395800
Y0392600
Y0389400
Y0386200
Y0383000
Y0379800
Y0376600
Y0373400
Y0370200
Y0367000
Y0363800
Y0360600
Y0357400
Y0354200
X0224500
X0227700
X0230900
Y0357400
X0227700
X0224500
Y0360600
X0227700
X0230900
Y0363800
X0227700
X0224500
Y0367000
X0227700
X0230900
Y0370200
X0227700
X0224500
Y0373400
X0227700
X0230900
Y0376600
X0227700
X0224500
Y0379800
X0227700
X0230900
Y0383000
X0227700
X0224500
Y0386200
X0227700
X0230900
Y0389400
X0227700
X0224500
Y0392600
X0227700
X0230900
Y0395800
X0227700
X0224500
Y0399000
X0227700
X0230900
Y0402200
X0227700
X0224500
Y0405400
X0227700
X0230900
Y0408600
X0227700
X0224500
X0221300
Y0411800
X0224500
X0227700
X0230900
Y0415000
X0227700
X0224500
X0221300
Y0418200
X0224500
X0227700
X0230900
X0220300Y0427200
X0217250
X0214200
X0248600Y0426350
X0251200Y0430500
X0246400Y0441400
X0240800Y0444700
X0240600Y0438200
X0244900Y0448900
X0245100Y0455100
X0266800Y0452400
X0269900Y0443900
X0280700Y0459100
Y0462300
X0279700Y0418100
X0282900
X0286100
X0289300
Y0414900
X0286100
X0282900
X0279700
Y0411700
X0282900
X0286100
X0289300
Y0408500
X0286100
X0282900
X0279700
Y0405300
X0282900
X0286100
X0289300
Y0402100
X0286100
X0282900
X0279700
Y0398900
X0282900
X0286100
X0289300
Y0395700
X0286100
X0282900
X0279700
Y0392500
X0282900
X0286100
X0289300
Y0389300
X0286100
X0282900
X0279700
Y0386100
X0282900
X0286100
X0289300
Y0382900
X0286100
X0282900
X0279700
Y0379700
X0282900
X0286100
X0289300
X0301800
Y0376500
Y0373300
Y0370100
Y0366900
Y0363700
Y0360500
Y0357300
Y0354100
X0305000
X0308200
X0311400
Y0357300
X0308200
X0305000
Y0360500
X0308200
X0311400
Y0363700
X0308200
X0305000
Y0366900
X0308200
X0311400
Y0370100
X0308200
X0305000
Y0373300
X0308200
X0311400
Y0376500
X0308200
X0305000
Y0379700
X0308200
X0311400
Y0382900
X0308200
X0305000
X0301800
Y0386100
X0305000
X0308200
X0311400
Y0389300
X0308200
X0305000
X0301800
Y0392500
X0305000
X0308200
X0311400
Y0395700
X0308200
X0305000
X0301800
Y0398900
X0305000
X0308200
X0311400
Y0402100
X0308200
X0305000
X0301800
Y0405300
X0305000
X0308200
X0311400
Y0408500
X0308200
X0305000
X0301800
Y0411700
X0305000
X0308200
X0311400
Y0414900
X0308200
X0305000
X0301800
Y0418100
X0305000
X0308200
X0311400
X0272400
Y0414900
Y0411700
Y0408500
Y0405300
Y0402100
Y0398900
Y0395700
X0269200
X0266000
X0262800
Y0398900
X0266000
X0269200
Y0402100
X0266000
X0262800
Y0405300
X0266000
X0269200
Y0408500
X0266000
X0262800
Y0411700
X0266000
X0269200
Y0414900
X0266000
X0262800
Y0418100
X0266000
X0269200
X0279300Y0342000
X0281700Y0334000
X0261700Y0333800
X0255600Y0333200
X0226000Y0462300
X0189200Y0465200
X0185500Y0467000
X0180700Y0465200
X0331500Y0461500
X0339500Y0459400
X0342200
X0344900
X0343600Y0456500
X0340900
X0331500Y0451150
Y0440800
Y0430450
X0349200Y0438700
X0374300Y0463000
X0377500
X0372500Y0481400
X0372400Y0488200
X0382000Y0485800
X0397700Y0490700
X0403900Y0492300
Y0494900
X0405700Y0490100
X0420100Y0487400
X0420300Y0495700
X0416400Y0548700
X0413700Y0548800
X0412400Y0551100
X0415200Y0551200
X0414900Y0553900
X0354400Y0554400
X0352100Y0552600
X0352900Y0549700
X0350260Y0550460
X0344700Y0557500
X0341400
X0341700Y0539200
X0348400Y0526300
X0351400Y0526100
X0349700Y0523800
X0348200Y0511300
X0329100Y0504500
X0329200Y0500300
X0319200Y0504500
X0316000Y0508100
X0315600Y0539900
X0313900Y0476200
X0333900Y0484200
X0336700
X0339200Y0485600
Y0482800
X0302200Y0490600
X0304300Y0498400
Y0501500
X0301200
X0298100
X0295000
X0295100Y0498200
X0292400Y0499800
X0291600Y0504600
Y0519300
X0285400Y0527200
X0287700Y0550200
X0290471
X0293243
X0296014
X0298786
X0301557
X0304328
X0307100
X0297500Y0547400
Y0544300
X0253800Y0544400
X0251000
X0249500Y0541600
X0255700
X0236500Y0553000
X0204400Y0551400
X0212000Y0538200
X0209400Y0533700
X0208400Y0515800
X0209400Y0508900
X0218400Y0516379
X0219800Y0523700
X0238700Y0510000
X0238900Y0507000
X0234500Y0487800
X0251500Y0492100
X0255400Y0492400
X0267100Y0490300
X0268100Y0486600
X0267600Y0482400
X0279600Y0481500
X0280200Y0492300
X0267200Y0496159
X0268700Y0500200
X0248400Y0478100
X0212800Y0487500
X0187400Y0483300
X0185200Y0474900
X0189800
X0177400Y0486200
X0160200Y0484900
X0172300Y0524100
Y0539000
X0180600Y0542200
X0182900Y0534700
X0187900Y0528600
X0157400Y0546100
X0245500Y0582300
Y0585500
Y0588700
X0248700
Y0585500
Y0582300
X0251900
Y0585500
Y0588700
X0255100
Y0585500
X0258300
Y0582300
X0255100
X0261500
X0258300Y0588700
X0106400Y0579250
Y0576500
X0107300Y0567350
Y0564600
Y0554854
Y0552105
Y0543750
Y0541000
Y0531500
X0107276Y0528260
X0106600Y0519800
Y0517000
Y0509000
Y0505600
Y0497600
Y0494400
X0106300Y0484500
Y0481600
Y0473200
Y0469800
X0146100Y0488900
X0151600Y0533300
T03
X0232400Y0437247
Y0443153
X0229700Y0542747
X0224000
X0218300
Y0548653
X0224000
X0229700
T04
X0141700Y0188700
Y0198700
Y0208700
Y0218700
X0090100Y0436300
Y0446300
Y0456300
Y0466300
X0080000
Y0456300
Y0446300
Y0436300
X0289200Y0460400
X0299200
X0316000Y0515200
X0306000
X0296000
X0286000
X0263400Y0511500
Y0521500
X0253400
Y0511500
X0090100Y0516300
Y0526300
Y0536300
Y0546300
Y0556300
Y0566300
X0080000
Y0556300
Y0546300
Y0536300
Y0526300
Y0516300
Y0506300
Y0496300
Y0486300
Y0476300
X0090100
Y0486300
Y0496300
Y0506300
T05
X0410900Y0429400
Y0439400
Y0451350
Y0461350
Y0473300
Y0483300
T06
X0378700Y0202300
X0398400
X0418100
Y0229900
X0398400
X0378700
X0120300Y0232400
X0100600
X0080900
Y0204800
X0100600
X0120300
Y0338100
X0100600
X0080900
Y0365700
X0100600
X0120300
X0378700Y0363200
X0398400
X0418100
Y0335600
X0398400
X0378700
M30
