G04 Layer_Color=8388736*
%FSAX25Y25*%
%MOIN*%
G70*
G01*
G75*
%ADD49C,0.01000*%
%ADD63C,0.00800*%
G04:AMPARAMS|DCode=97|XSize=94.49mil|YSize=122.05mil|CornerRadius=1.89mil|HoleSize=0mil|Usage=FLASHONLY|Rotation=0.000|XOffset=0mil|YOffset=0mil|HoleType=Round|Shape=RoundedRectangle|*
%AMROUNDEDRECTD97*
21,1,0.09449,0.11827,0,0,0.0*
21,1,0.09071,0.12205,0,0,0.0*
1,1,0.00378,0.04535,-0.05913*
1,1,0.00378,-0.04535,-0.05913*
1,1,0.00378,-0.04535,0.05913*
1,1,0.00378,0.04535,0.05913*
%
%ADD97ROUNDEDRECTD97*%
G04:AMPARAMS|DCode=102|XSize=19.68mil|YSize=37.4mil|CornerRadius=3.94mil|HoleSize=0mil|Usage=FLASHONLY|Rotation=0.000|XOffset=0mil|YOffset=0mil|HoleType=Round|Shape=RoundedRectangle|*
%AMROUNDEDRECTD102*
21,1,0.01968,0.02953,0,0,0.0*
21,1,0.01181,0.03740,0,0,0.0*
1,1,0.00787,0.00591,-0.01476*
1,1,0.00787,-0.00591,-0.01476*
1,1,0.00787,-0.00591,0.01476*
1,1,0.00787,0.00591,0.01476*
%
%ADD102ROUNDEDRECTD102*%
%ADD103R,0.04331X0.04134*%
%ADD104R,0.04134X0.04331*%
G04:AMPARAMS|DCode=105|XSize=27.56mil|YSize=43.31mil|CornerRadius=7.87mil|HoleSize=0mil|Usage=FLASHONLY|Rotation=0.000|XOffset=0mil|YOffset=0mil|HoleType=Round|Shape=RoundedRectangle|*
%AMROUNDEDRECTD105*
21,1,0.02756,0.02756,0,0,0.0*
21,1,0.01181,0.04331,0,0,0.0*
1,1,0.01575,0.00591,-0.01378*
1,1,0.01575,-0.00591,-0.01378*
1,1,0.01575,-0.00591,0.01378*
1,1,0.01575,0.00591,0.01378*
%
%ADD105ROUNDEDRECTD105*%
G04:AMPARAMS|DCode=106|XSize=27.56mil|YSize=43.31mil|CornerRadius=7.87mil|HoleSize=0mil|Usage=FLASHONLY|Rotation=90.000|XOffset=0mil|YOffset=0mil|HoleType=Round|Shape=RoundedRectangle|*
%AMROUNDEDRECTD106*
21,1,0.02756,0.02756,0,0,90.0*
21,1,0.01181,0.04331,0,0,90.0*
1,1,0.01575,0.01378,0.00591*
1,1,0.01575,0.01378,-0.00591*
1,1,0.01575,-0.01378,-0.00591*
1,1,0.01575,-0.01378,0.00591*
%
%ADD106ROUNDEDRECTD106*%
%ADD107R,0.02756X0.03543*%
G04:AMPARAMS|DCode=108|XSize=27.56mil|YSize=61.02mil|CornerRadius=3.98mil|HoleSize=0mil|Usage=FLASHONLY|Rotation=90.000|XOffset=0mil|YOffset=0mil|HoleType=Round|Shape=RoundedRectangle|*
%AMROUNDEDRECTD108*
21,1,0.02756,0.05307,0,0,90.0*
21,1,0.01961,0.06102,0,0,90.0*
1,1,0.00795,0.02653,0.00980*
1,1,0.00795,0.02653,-0.00980*
1,1,0.00795,-0.02653,-0.00980*
1,1,0.00795,-0.02653,0.00980*
%
%ADD108ROUNDEDRECTD108*%
%ADD109O,0.01968X0.05118*%
%ADD110O,0.06102X0.02756*%
G04:AMPARAMS|DCode=111|XSize=27.56mil|YSize=43.31mil|CornerRadius=3.98mil|HoleSize=0mil|Usage=FLASHONLY|Rotation=90.000|XOffset=0mil|YOffset=0mil|HoleType=Round|Shape=RoundedRectangle|*
%AMROUNDEDRECTD111*
21,1,0.02756,0.03535,0,0,90.0*
21,1,0.01961,0.04331,0,0,90.0*
1,1,0.00795,0.01768,0.00980*
1,1,0.00795,0.01768,-0.00980*
1,1,0.00795,-0.01768,-0.00980*
1,1,0.00795,-0.01768,0.00980*
%
%ADD111ROUNDEDRECTD111*%
%ADD112O,0.06693X0.02559*%
%ADD113O,0.02165X0.05905*%
%ADD114O,0.05905X0.01575*%
%ADD115R,0.04803X0.04173*%
%ADD116R,0.08268X0.08268*%
%ADD117R,0.05512X0.13780*%
%ADD118R,0.02394X0.03894*%
%ADD119R,0.03894X0.02394*%
%ADD120R,0.05512X0.07677*%
G04:AMPARAMS|DCode=121|XSize=344.49mil|YSize=334.65mil|CornerRadius=3.62mil|HoleSize=0mil|Usage=FLASHONLY|Rotation=270.000|XOffset=0mil|YOffset=0mil|HoleType=Round|Shape=RoundedRectangle|*
%AMROUNDEDRECTD121*
21,1,0.34449,0.32740,0,0,270.0*
21,1,0.33724,0.33465,0,0,270.0*
1,1,0.00724,-0.16370,-0.16862*
1,1,0.00724,-0.16370,0.16862*
1,1,0.00724,0.16370,0.16862*
1,1,0.00724,0.16370,-0.16862*
%
%ADD121ROUNDEDRECTD121*%
G04:AMPARAMS|DCode=122|XSize=43.31mil|YSize=141.73mil|CornerRadius=3.94mil|HoleSize=0mil|Usage=FLASHONLY|Rotation=270.000|XOffset=0mil|YOffset=0mil|HoleType=Round|Shape=RoundedRectangle|*
%AMROUNDEDRECTD122*
21,1,0.04331,0.13386,0,0,270.0*
21,1,0.03543,0.14173,0,0,270.0*
1,1,0.00787,-0.06693,-0.01772*
1,1,0.00787,-0.06693,0.01772*
1,1,0.00787,0.06693,0.01772*
1,1,0.00787,0.06693,-0.01772*
%
%ADD122ROUNDEDRECTD122*%
G04:AMPARAMS|DCode=123|XSize=22.44mil|YSize=27.56mil|CornerRadius=3.91mil|HoleSize=0mil|Usage=FLASHONLY|Rotation=0.000|XOffset=0mil|YOffset=0mil|HoleType=Round|Shape=RoundedRectangle|*
%AMROUNDEDRECTD123*
21,1,0.02244,0.01974,0,0,0.0*
21,1,0.01462,0.02756,0,0,0.0*
1,1,0.00782,0.00731,-0.00987*
1,1,0.00782,-0.00731,-0.00987*
1,1,0.00782,-0.00731,0.00987*
1,1,0.00782,0.00731,0.00987*
%
%ADD123ROUNDEDRECTD123*%
%ADD124R,0.08268X0.14173*%
%ADD125R,0.13189X0.13898*%
%ADD126R,0.05276X0.29685*%
%ADD127R,0.12362X0.03504*%
%ADD128R,0.11193X0.08894*%
%ADD129R,0.03996X0.05197*%
%ADD130R,0.05197X0.03996*%
%ADD131R,0.03543X0.02756*%
%ADD132R,0.06694X0.05394*%
%ADD133R,0.05394X0.06694*%
G04:AMPARAMS|DCode=134|XSize=27.56mil|YSize=74.8mil|CornerRadius=3.98mil|HoleSize=0mil|Usage=FLASHONLY|Rotation=90.000|XOffset=0mil|YOffset=0mil|HoleType=Round|Shape=RoundedRectangle|*
%AMROUNDEDRECTD134*
21,1,0.02756,0.06685,0,0,90.0*
21,1,0.01961,0.07480,0,0,90.0*
1,1,0.00795,0.03342,0.00980*
1,1,0.00795,0.03342,-0.00980*
1,1,0.00795,-0.03342,-0.00980*
1,1,0.00795,-0.03342,0.00980*
%
%ADD134ROUNDEDRECTD134*%
%ADD135R,0.11024X0.05512*%
%ADD136R,0.04724X0.09055*%
%ADD137R,0.03543X0.03543*%
%ADD138R,0.02756X0.02756*%
G04:AMPARAMS|DCode=139|XSize=41.34mil|YSize=43.31mil|CornerRadius=0mil|HoleSize=0mil|Usage=FLASHONLY|Rotation=45.000|XOffset=0mil|YOffset=0mil|HoleType=Round|Shape=Rectangle|*
%AMROTATEDRECTD139*
4,1,4,0.00070,-0.02993,-0.02993,0.00070,-0.00070,0.02993,0.02993,-0.00070,0.00070,-0.02993,0.0*
%
%ADD139ROTATEDRECTD139*%

%ADD140C,0.06299*%
%ADD141R,0.06299X0.06299*%
%ADD142C,0.11394*%
%ADD143C,0.04724*%
G04:AMPARAMS|DCode=144|XSize=64.96mil|YSize=64.96mil|CornerRadius=3.8mil|HoleSize=0mil|Usage=FLASHONLY|Rotation=90.000|XOffset=0mil|YOffset=0mil|HoleType=Round|Shape=RoundedRectangle|*
%AMROUNDEDRECTD144*
21,1,0.06496,0.05736,0,0,90.0*
21,1,0.05736,0.06496,0,0,90.0*
1,1,0.00760,0.02868,0.02868*
1,1,0.00760,0.02868,-0.02868*
1,1,0.00760,-0.02868,-0.02868*
1,1,0.00760,-0.02868,0.02868*
%
%ADD144ROUNDEDRECTD144*%
%ADD145C,0.06496*%
%ADD146R,0.06299X0.06299*%
%ADD147C,0.03394*%
%ADD148C,0.02362*%
G36*
X0159591Y0226615D02*
X0159605Y0226614D01*
X0159613Y0226613D01*
X0159621Y0226612D01*
X0159634Y0226609D01*
X0159648Y0226607D01*
X0159655Y0226604D01*
X0159663Y0226602D01*
X0159676Y0226597D01*
X0159689Y0226593D01*
X0159696Y0226589D01*
X0159703Y0226586D01*
X0159715Y0226579D01*
X0159727Y0226572D01*
X0159733Y0226567D01*
X0159740Y0226563D01*
X0159751Y0226554D01*
X0159762Y0226546D01*
X0159767Y0226540D01*
X0159773Y0226535D01*
X0159782Y0226525D01*
X0159792Y0226515D01*
X0164319Y0221003D01*
X0164324Y0220996D01*
X0164329Y0220990D01*
X0164336Y0220979D01*
X0164344Y0220968D01*
X0164348Y0220960D01*
X0164352Y0220953D01*
X0164357Y0220941D01*
X0164363Y0220928D01*
X0164365Y0220921D01*
X0164368Y0220913D01*
X0164372Y0220900D01*
X0164375Y0220887D01*
X0164377Y0220879D01*
X0164378Y0220871D01*
X0164380Y0220857D01*
X0164382Y0220844D01*
X0164381Y0220836D01*
X0164382Y0220828D01*
X0164381Y0220814D01*
X0164381Y0220801D01*
X0164379Y0220793D01*
X0164378Y0220784D01*
X0164375Y0220771D01*
X0164373Y0220758D01*
X0164370Y0220750D01*
X0164368Y0220742D01*
X0164363Y0220730D01*
X0164359Y0220717D01*
X0164355Y0220710D01*
X0164352Y0220702D01*
X0164345Y0220691D01*
X0164338Y0220679D01*
X0164333Y0220672D01*
X0164329Y0220665D01*
X0164320Y0220655D01*
X0164312Y0220644D01*
X0164306Y0220638D01*
X0164301Y0220632D01*
X0164291Y0220623D01*
X0164281Y0220614D01*
X0164274Y0220609D01*
X0164268Y0220604D01*
X0164257Y0220597D01*
X0164245Y0220589D01*
X0164238Y0220585D01*
X0164231Y0220581D01*
X0164219Y0220576D01*
X0164206Y0220570D01*
X0164199Y0220568D01*
X0164191Y0220565D01*
X0164178Y0220562D01*
X0164165Y0220558D01*
X0164157Y0220556D01*
X0164149Y0220554D01*
X0164135Y0220553D01*
X0164122Y0220552D01*
X0164114Y0220552D01*
X0164105Y0220551D01*
X0152295D01*
X0152286Y0220552D01*
X0152278Y0220552D01*
X0152265Y0220553D01*
X0152251Y0220554D01*
X0152243Y0220556D01*
X0152235Y0220558D01*
X0152222Y0220562D01*
X0152209Y0220565D01*
X0152201Y0220568D01*
X0152194Y0220570D01*
X0152181Y0220576D01*
X0152169Y0220581D01*
X0152162Y0220585D01*
X0152155Y0220589D01*
X0152144Y0220597D01*
X0152132Y0220604D01*
X0152126Y0220609D01*
X0152119Y0220614D01*
X0152109Y0220623D01*
X0152099Y0220632D01*
X0152094Y0220638D01*
X0152088Y0220644D01*
X0152080Y0220655D01*
X0152071Y0220665D01*
X0152067Y0220672D01*
X0152062Y0220679D01*
X0152055Y0220690D01*
X0152048Y0220702D01*
X0152045Y0220710D01*
X0152041Y0220717D01*
X0152037Y0220730D01*
X0152032Y0220742D01*
X0152030Y0220750D01*
X0152027Y0220758D01*
X0152025Y0220771D01*
X0152022Y0220784D01*
X0152021Y0220793D01*
X0152019Y0220801D01*
X0152019Y0220814D01*
X0152018Y0220828D01*
X0152019Y0220836D01*
X0152018Y0220844D01*
X0152020Y0220857D01*
X0152022Y0220871D01*
X0152023Y0220879D01*
X0152024Y0220887D01*
X0152028Y0220900D01*
X0152032Y0220913D01*
X0152035Y0220921D01*
X0152037Y0220928D01*
X0152043Y0220941D01*
X0152048Y0220953D01*
X0152052Y0220960D01*
X0152056Y0220968D01*
X0152064Y0220979D01*
X0152071Y0220990D01*
X0152076Y0220996D01*
X0152081Y0221003D01*
X0156608Y0226515D01*
X0156618Y0226525D01*
X0156627Y0226535D01*
X0156633Y0226540D01*
X0156639Y0226546D01*
X0156649Y0226554D01*
X0156660Y0226563D01*
X0156667Y0226567D01*
X0156673Y0226572D01*
X0156685Y0226579D01*
X0156697Y0226586D01*
X0156704Y0226589D01*
X0156711Y0226593D01*
X0156724Y0226597D01*
X0156737Y0226602D01*
X0156745Y0226604D01*
X0156752Y0226607D01*
X0156766Y0226609D01*
X0156779Y0226612D01*
X0156787Y0226613D01*
X0156795Y0226614D01*
X0156808Y0226615D01*
X0156822Y0226616D01*
X0159578D01*
X0159591Y0226615D01*
D02*
G37*
G54D49*
X0559400Y0039400D02*
Y0059683D01*
X0440500Y0040050D02*
X0700200D01*
Y0101050D01*
X0286500Y0040050D02*
Y0101050D01*
X0040000Y0040050D02*
Y0101050D01*
X0040050Y0040050D02*
X0197600D01*
X0040050D02*
Y0101050D01*
Y0101050D02*
X0700200D01*
X0040000Y0040050D02*
X0440500D01*
X0040000Y0060383D02*
X0700000D01*
X0040000Y0080717D02*
X0700200D01*
X0413200D02*
Y0101050D01*
X0497200Y0080717D02*
Y0101050D01*
G54D63*
X0126900Y0073549D02*
X0130899D01*
X0128899D01*
Y0067551D01*
X0133898D02*
X0135897D01*
X0136897Y0068550D01*
Y0070550D01*
X0135897Y0071549D01*
X0133898D01*
X0132898Y0070550D01*
Y0068550D01*
X0133898Y0067551D01*
X0138896Y0065551D02*
Y0071549D01*
X0141895D01*
X0142895Y0070550D01*
Y0068550D01*
X0141895Y0067551D01*
X0138896D01*
X0154891Y0072549D02*
X0153891Y0073549D01*
X0151892D01*
X0150892Y0072549D01*
Y0071549D01*
X0151892Y0070550D01*
X0153891D01*
X0154891Y0069550D01*
Y0068550D01*
X0153891Y0067551D01*
X0151892D01*
X0150892Y0068550D01*
X0157890Y0067551D02*
X0159889D01*
X0160889Y0068550D01*
Y0070550D01*
X0159889Y0071549D01*
X0157890D01*
X0156890Y0070550D01*
Y0068550D01*
X0157890Y0067551D01*
X0162888D02*
X0164888D01*
X0163888D01*
Y0073549D01*
X0162888D01*
X0171885D02*
Y0067551D01*
X0168886D01*
X0167887Y0068550D01*
Y0070550D01*
X0168886Y0071549D01*
X0171885D01*
X0176884Y0067551D02*
X0174884D01*
X0173885Y0068550D01*
Y0070550D01*
X0174884Y0071549D01*
X0176884D01*
X0177884Y0070550D01*
Y0069550D01*
X0173885D01*
X0179883Y0071549D02*
Y0067551D01*
Y0069550D01*
X0180883Y0070550D01*
X0181882Y0071549D01*
X0182882D01*
X0126900Y0073549D02*
X0130899D01*
X0128899D01*
Y0067551D01*
X0133898D02*
X0135897D01*
X0136897Y0068550D01*
Y0070550D01*
X0135897Y0071549D01*
X0133898D01*
X0132898Y0070550D01*
Y0068550D01*
X0133898Y0067551D01*
X0138896Y0065551D02*
Y0071549D01*
X0141895D01*
X0142895Y0070550D01*
Y0068550D01*
X0141895Y0067551D01*
X0138896D01*
X0154891Y0072549D02*
X0153891Y0073549D01*
X0151892D01*
X0150892Y0072549D01*
Y0071549D01*
X0151892Y0070550D01*
X0153891D01*
X0154891Y0069550D01*
Y0068550D01*
X0153891Y0067551D01*
X0151892D01*
X0150892Y0068550D01*
X0157890Y0067551D02*
X0159889D01*
X0160889Y0068550D01*
Y0070550D01*
X0159889Y0071549D01*
X0157890D01*
X0156890Y0070550D01*
Y0068550D01*
X0157890Y0067551D01*
X0162888D02*
X0164888D01*
X0163888D01*
Y0073549D01*
X0162888D01*
X0171885D02*
Y0067551D01*
X0168886D01*
X0167887Y0068550D01*
Y0070550D01*
X0168886Y0071549D01*
X0171885D01*
X0176884Y0067551D02*
X0174884D01*
X0173885Y0068550D01*
Y0070550D01*
X0174884Y0071549D01*
X0176884D01*
X0177884Y0070550D01*
Y0069550D01*
X0173885D01*
X0179883Y0071549D02*
Y0067551D01*
Y0069550D01*
X0180883Y0070550D01*
X0181882Y0071549D01*
X0182882D01*
X0348550Y0073498D02*
X0352549D01*
X0350549D01*
Y0067500D01*
X0354548Y0073498D02*
X0356547D01*
X0355548D01*
Y0067500D01*
X0354548D01*
X0356547D01*
X0359546Y0073498D02*
Y0067500D01*
X0362545D01*
X0363545Y0068500D01*
Y0072498D01*
X0362545Y0073498D01*
X0359546D01*
X0365545Y0067500D02*
Y0071499D01*
X0367544Y0073498D01*
X0369543Y0071499D01*
Y0067500D01*
Y0070499D01*
X0365545D01*
X0371543D02*
X0375541D01*
X0377541Y0072498D02*
X0378540Y0073498D01*
X0380540D01*
X0381539Y0072498D01*
Y0068500D01*
X0380540Y0067500D01*
X0378540D01*
X0377541Y0068500D01*
Y0072498D01*
X0383539Y0067500D02*
X0385538D01*
X0384538D01*
Y0073498D01*
X0383539Y0072498D01*
X0388537D02*
X0389537Y0073498D01*
X0391536D01*
X0392536Y0072498D01*
Y0068500D01*
X0391536Y0067500D01*
X0389537D01*
X0388537Y0068500D01*
Y0072498D01*
X0394535D02*
X0395535Y0073498D01*
X0397534D01*
X0398534Y0072498D01*
Y0068500D01*
X0397534Y0067500D01*
X0395535D01*
X0394535Y0068500D01*
Y0072498D01*
X0400533D02*
X0401533Y0073498D01*
X0403532D01*
X0404532Y0072498D01*
Y0071499D01*
X0403532Y0070499D01*
X0402532D01*
X0403532D01*
X0404532Y0069499D01*
Y0068500D01*
X0403532Y0067500D01*
X0401533D01*
X0400533Y0068500D01*
X0406531Y0072498D02*
X0407531Y0073498D01*
X0409530D01*
X0410530Y0072498D01*
Y0068500D01*
X0409530Y0067500D01*
X0407531D01*
X0406531Y0068500D01*
Y0072498D01*
X0294000Y0073498D02*
X0297999D01*
X0295999D01*
Y0067500D01*
X0299998Y0073498D02*
X0301997D01*
X0300998D01*
Y0067500D01*
X0299998D01*
X0301997D01*
X0304996Y0073498D02*
Y0067500D01*
X0307996D01*
X0308995Y0068500D01*
Y0072498D01*
X0307996Y0073498D01*
X0304996D01*
X0317992Y0067500D02*
Y0073498D01*
X0319992D02*
Y0067500D01*
X0316993Y0071499D02*
X0319992D01*
X0320991D01*
X0316993Y0069499D02*
X0320991D01*
X0322991Y0071499D02*
X0323990D01*
Y0070499D01*
X0322991D01*
Y0071499D01*
Y0068500D02*
X0323990D01*
Y0067500D01*
X0322991D01*
Y0068500D01*
X0580500Y0052965D02*
X0584499D01*
X0582499D01*
Y0046966D01*
X0590497Y0052965D02*
X0586498D01*
Y0046966D01*
X0590497D01*
X0586498Y0049966D02*
X0588497D01*
X0592496Y0052965D02*
X0596495Y0046966D01*
Y0052965D02*
X0592496Y0046966D01*
X0598494D02*
Y0050965D01*
X0600493Y0052965D01*
X0602493Y0050965D01*
Y0046966D01*
Y0049966D01*
X0598494D01*
X0608491Y0051965D02*
X0607491Y0052965D01*
X0605492D01*
X0604492Y0051965D01*
Y0050965D01*
X0605492Y0049966D01*
X0607491D01*
X0608491Y0048966D01*
Y0047966D01*
X0607491Y0046966D01*
X0605492D01*
X0604492Y0047966D01*
X0616488Y0052965D02*
X0618488D01*
X0617488D01*
Y0046966D01*
X0616488D01*
X0618488D01*
X0621487D02*
Y0052965D01*
X0625486Y0046966D01*
Y0052965D01*
X0631484Y0051965D02*
X0630484Y0052965D01*
X0628484D01*
X0627485Y0051965D01*
Y0050965D01*
X0628484Y0049966D01*
X0630484D01*
X0631484Y0048966D01*
Y0047966D01*
X0630484Y0046966D01*
X0628484D01*
X0627485Y0047966D01*
X0633483Y0052965D02*
X0637482D01*
X0635482D01*
Y0046966D01*
X0639481D02*
Y0052965D01*
X0642480D01*
X0643480Y0051965D01*
Y0049966D01*
X0642480Y0048966D01*
X0639481D01*
X0641480D02*
X0643480Y0046966D01*
X0645479Y0052965D02*
Y0047966D01*
X0646479Y0046966D01*
X0648478D01*
X0649478Y0047966D01*
Y0052965D01*
X0651477Y0046966D02*
Y0052965D01*
X0653476Y0050965D01*
X0655476Y0052965D01*
Y0046966D01*
X0661474Y0052965D02*
X0657475D01*
Y0046966D01*
X0661474D01*
X0657475Y0049966D02*
X0659474D01*
X0663473Y0046966D02*
Y0052965D01*
X0667472Y0046966D01*
Y0052965D01*
X0669471D02*
X0673470D01*
X0671471D01*
Y0046966D01*
X0679468Y0051965D02*
X0678468Y0052965D01*
X0676469D01*
X0675469Y0051965D01*
Y0050965D01*
X0676469Y0049966D01*
X0678468D01*
X0679468Y0048966D01*
Y0047966D01*
X0678468Y0046966D01*
X0676469D01*
X0675469Y0047966D01*
X0454050Y0046966D02*
X0456049D01*
X0455050D01*
Y0052965D01*
X0454050Y0051965D01*
X0459048D02*
X0460048Y0052965D01*
X0462047D01*
X0463047Y0051965D01*
Y0047966D01*
X0462047Y0046966D01*
X0460048D01*
X0459048Y0047966D01*
Y0051965D01*
X0465046Y0050965D02*
X0466046D01*
Y0049966D01*
X0465046D01*
Y0050965D01*
Y0047966D02*
X0466046D01*
Y0046966D01*
X0465046D01*
Y0047966D01*
X0470045Y0046966D02*
X0472044D01*
X0471044D01*
Y0052965D01*
X0470045Y0051965D01*
X0475043D02*
X0476043Y0052965D01*
X0478042D01*
X0479042Y0051965D01*
Y0050965D01*
X0478042Y0049966D01*
X0477043D01*
X0478042D01*
X0479042Y0048966D01*
Y0047966D01*
X0478042Y0046966D01*
X0476043D01*
X0475043Y0047966D01*
X0481041Y0050965D02*
X0482041D01*
Y0049966D01*
X0481041D01*
Y0050965D01*
Y0047966D02*
X0482041D01*
Y0046966D01*
X0481041D01*
Y0047966D01*
X0490038Y0046966D02*
X0486040D01*
X0490038Y0050965D01*
Y0051965D01*
X0489039Y0052965D01*
X0487039D01*
X0486040Y0051965D01*
X0496036Y0046966D02*
X0492038D01*
X0496036Y0050965D01*
Y0051965D01*
X0495037Y0052965D01*
X0493037D01*
X0492038Y0051965D01*
X0046350Y0046966D02*
Y0052965D01*
X0049349D01*
X0050349Y0051965D01*
Y0049966D01*
X0049349Y0048966D01*
X0046350D01*
X0052348Y0052965D02*
Y0046966D01*
X0056347D01*
X0061345Y0052965D02*
X0059346D01*
X0058346Y0051965D01*
Y0047966D01*
X0059346Y0046966D01*
X0061345D01*
X0062345Y0047966D01*
Y0051965D01*
X0061345Y0052965D01*
X0064344D02*
X0068343D01*
X0066343D01*
Y0046966D01*
X0076340D02*
Y0052965D01*
X0080339Y0046966D01*
Y0052965D01*
X0082338Y0046966D02*
Y0050965D01*
X0084338Y0052965D01*
X0086337Y0050965D01*
Y0046966D01*
Y0049966D01*
X0082338D01*
X0088336Y0046966D02*
Y0052965D01*
X0090336Y0050965D01*
X0092335Y0052965D01*
Y0046966D01*
X0098333Y0052965D02*
X0094335D01*
Y0046966D01*
X0098333D01*
X0094335Y0049966D02*
X0096334D01*
X0106331Y0048966D02*
X0110329D01*
X0106331Y0050965D02*
X0110329D01*
X0046350Y0073549D02*
Y0067551D01*
X0050349D01*
X0052348D02*
Y0071549D01*
X0054347Y0073549D01*
X0056347Y0071549D01*
Y0067551D01*
Y0070550D01*
X0052348D01*
X0058346Y0073549D02*
Y0072549D01*
X0060346Y0070550D01*
X0062345Y0072549D01*
Y0073549D01*
X0060346Y0070550D02*
Y0067551D01*
X0068343Y0073549D02*
X0064344D01*
Y0067551D01*
X0068343D01*
X0064344Y0070550D02*
X0066343D01*
X0070342Y0067551D02*
Y0073549D01*
X0073341D01*
X0074341Y0072549D01*
Y0070550D01*
X0073341Y0069550D01*
X0070342D01*
X0072342D02*
X0074341Y0067551D01*
X0082338D02*
Y0073549D01*
X0086337Y0067551D01*
Y0073549D01*
X0088336Y0067551D02*
Y0071549D01*
X0090336Y0073549D01*
X0092335Y0071549D01*
Y0067551D01*
Y0070550D01*
X0088336D01*
X0094335Y0067551D02*
Y0073549D01*
X0096334Y0071549D01*
X0098333Y0073549D01*
Y0067551D01*
X0104331Y0073549D02*
X0100332D01*
Y0067551D01*
X0104331D01*
X0100332Y0070550D02*
X0102332D01*
X0112329Y0069550D02*
X0116327D01*
X0112329Y0071549D02*
X0116327D01*
X0294000Y0093831D02*
Y0087833D01*
X0296999D01*
X0297999Y0088833D01*
Y0089833D01*
X0296999Y0090832D01*
X0294000D01*
X0296999D01*
X0297999Y0091832D01*
Y0092832D01*
X0296999Y0093831D01*
X0294000D01*
X0302997D02*
X0300998D01*
X0299998Y0092832D01*
Y0088833D01*
X0300998Y0087833D01*
X0302997D01*
X0303997Y0088833D01*
Y0092832D01*
X0302997Y0093831D01*
X0305996Y0087833D02*
Y0091832D01*
X0307996Y0093831D01*
X0309995Y0091832D01*
Y0087833D01*
Y0090832D01*
X0305996D01*
X0311994Y0087833D02*
Y0093831D01*
X0314993D01*
X0315993Y0092832D01*
Y0090832D01*
X0314993Y0089833D01*
X0311994D01*
X0313994D02*
X0315993Y0087833D01*
X0317992Y0093831D02*
Y0087833D01*
X0320991D01*
X0321991Y0088833D01*
Y0092832D01*
X0320991Y0093831D01*
X0317992D01*
X0330988Y0087833D02*
Y0093831D01*
X0332987D02*
Y0087833D01*
X0329988Y0091832D02*
X0332987D01*
X0333987D01*
X0329988Y0089833D02*
X0333987D01*
X0335986Y0091832D02*
X0336986D01*
Y0090832D01*
X0335986D01*
Y0091832D01*
Y0088833D02*
X0336986D01*
Y0087833D01*
X0335986D01*
Y0088833D01*
X0348550Y0093831D02*
X0352549D01*
X0350549D01*
Y0087833D01*
X0354548Y0093831D02*
X0356547D01*
X0355548D01*
Y0087833D01*
X0354548D01*
X0356547D01*
X0359546Y0093831D02*
Y0087833D01*
X0362545D01*
X0363545Y0088833D01*
Y0092832D01*
X0362545Y0093831D01*
X0359546D01*
X0365545Y0087833D02*
Y0091832D01*
X0367544Y0093831D01*
X0369543Y0091832D01*
Y0087833D01*
Y0090832D01*
X0365545D01*
X0371543D02*
X0375541D01*
X0377541Y0092832D02*
X0378540Y0093831D01*
X0380540D01*
X0381539Y0092832D01*
Y0088833D01*
X0380540Y0087833D01*
X0378540D01*
X0377541Y0088833D01*
Y0092832D01*
X0383539Y0087833D02*
X0385538D01*
X0384538D01*
Y0093831D01*
X0383539Y0092832D01*
X0388537D02*
X0389537Y0093831D01*
X0391536D01*
X0392536Y0092832D01*
Y0088833D01*
X0391536Y0087833D01*
X0389537D01*
X0388537Y0088833D01*
Y0092832D01*
X0394535D02*
X0395535Y0093831D01*
X0397534D01*
X0398534Y0092832D01*
Y0088833D01*
X0397534Y0087833D01*
X0395535D01*
X0394535Y0088833D01*
Y0092832D01*
X0400533D02*
X0401533Y0093831D01*
X0403532D01*
X0404532Y0092832D01*
Y0091832D01*
X0403532Y0090832D01*
X0402532D01*
X0403532D01*
X0404532Y0089833D01*
Y0088833D01*
X0403532Y0087833D01*
X0401533D01*
X0400533Y0088833D01*
X0406531Y0092832D02*
X0407531Y0093831D01*
X0409530D01*
X0410530Y0092832D01*
Y0088833D01*
X0409530Y0087833D01*
X0407531D01*
X0406531Y0088833D01*
Y0092832D01*
X0466149Y0093831D02*
X0462150D01*
Y0087833D01*
X0466149D01*
X0462150Y0090832D02*
X0464149D01*
X0468148Y0087833D02*
X0470147D01*
X0469148D01*
Y0093831D01*
X0468148Y0092832D01*
X0046350Y0087833D02*
Y0091832D01*
X0048349Y0093831D01*
X0050349Y0091832D01*
Y0087833D01*
Y0090832D01*
X0046350D01*
X0052348Y0093831D02*
Y0087833D01*
X0056347D01*
X0058346Y0093831D02*
Y0087833D01*
X0062345D01*
X0070342D02*
Y0091832D01*
X0072342Y0093831D01*
X0074341Y0091832D01*
Y0087833D01*
Y0090832D01*
X0070342D01*
X0076340Y0087833D02*
Y0093831D01*
X0079339D01*
X0080339Y0092832D01*
Y0090832D01*
X0079339Y0089833D01*
X0076340D01*
X0078340D02*
X0080339Y0087833D01*
X0082338Y0093831D02*
X0086337D01*
X0084338D01*
Y0087833D01*
X0088336Y0093831D02*
Y0087833D01*
X0090336Y0089833D01*
X0092335Y0087833D01*
Y0093831D01*
X0097334D02*
X0095334D01*
X0094335Y0092832D01*
Y0088833D01*
X0095334Y0087833D01*
X0097334D01*
X0098333Y0088833D01*
Y0092832D01*
X0097334Y0093831D01*
X0100332Y0087833D02*
Y0093831D01*
X0103332D01*
X0104331Y0092832D01*
Y0090832D01*
X0103332Y0089833D01*
X0100332D01*
X0102332D02*
X0104331Y0087833D01*
X0106331Y0093831D02*
Y0087833D01*
Y0089833D01*
X0110329Y0093831D01*
X0107330Y0090832D01*
X0110329Y0087833D01*
X0118327Y0093831D02*
Y0089833D01*
X0120326Y0087833D01*
X0122325Y0089833D01*
Y0093831D01*
X0124325D02*
X0126324D01*
X0125324D01*
Y0087833D01*
X0124325D01*
X0126324D01*
X0133322Y0093831D02*
X0129323D01*
Y0087833D01*
X0133322D01*
X0129323Y0090832D02*
X0131323D01*
X0135321Y0093831D02*
Y0087833D01*
X0137321Y0089833D01*
X0139320Y0087833D01*
Y0093831D01*
X0145318D02*
X0141319D01*
Y0087833D01*
X0145318D01*
X0141319Y0090832D02*
X0143319D01*
X0147317Y0093831D02*
Y0087833D01*
X0150316D01*
X0151316Y0088833D01*
Y0092832D01*
X0150316Y0093831D01*
X0147317D01*
X0163312D02*
X0159313D01*
Y0090832D01*
X0161313D01*
X0159313D01*
Y0087833D01*
X0165312D02*
Y0093831D01*
X0168310D01*
X0169310Y0092832D01*
Y0090832D01*
X0168310Y0089833D01*
X0165312D01*
X0167311D02*
X0169310Y0087833D01*
X0174309Y0093831D02*
X0172309D01*
X0171310Y0092832D01*
Y0088833D01*
X0172309Y0087833D01*
X0174309D01*
X0175308Y0088833D01*
Y0092832D01*
X0174309Y0093831D01*
X0177308Y0087833D02*
Y0093831D01*
X0179307Y0091832D01*
X0181306Y0093831D01*
Y0087833D01*
X0189304Y0093831D02*
X0193303D01*
X0191303D01*
Y0087833D01*
X0198301Y0093831D02*
X0196301D01*
X0195302Y0092832D01*
Y0088833D01*
X0196301Y0087833D01*
X0198301D01*
X0199301Y0088833D01*
Y0092832D01*
X0198301Y0093831D01*
X0201300Y0087833D02*
Y0093831D01*
X0204299D01*
X0205299Y0092832D01*
Y0090832D01*
X0204299Y0089833D01*
X0201300D01*
X0217295Y0092832D02*
X0216295Y0093831D01*
X0214296D01*
X0213296Y0092832D01*
Y0091832D01*
X0214296Y0090832D01*
X0216295D01*
X0217295Y0089833D01*
Y0088833D01*
X0216295Y0087833D01*
X0214296D01*
X0213296Y0088833D01*
X0219294Y0093831D02*
X0221293D01*
X0220294D01*
Y0087833D01*
X0219294D01*
X0221293D01*
X0224292Y0093831D02*
Y0087833D01*
X0227291D01*
X0228291Y0088833D01*
Y0092832D01*
X0227291Y0093831D01*
X0224292D01*
X0234289D02*
X0230291D01*
Y0087833D01*
X0234289D01*
X0230291Y0090832D02*
X0232290D01*
X0298199Y0051965D02*
X0297199Y0052965D01*
X0295200D01*
X0294200Y0051965D01*
Y0047966D01*
X0295200Y0046966D01*
X0297199D01*
X0298199Y0047966D01*
Y0049966D01*
X0296199D01*
X0304197Y0052965D02*
X0300198D01*
Y0046966D01*
X0304197D01*
X0300198Y0049966D02*
X0302197D01*
X0306196Y0046966D02*
Y0052965D01*
X0310195Y0046966D01*
Y0052965D01*
X0316193D02*
X0312194D01*
Y0046966D01*
X0316193D01*
X0312194Y0049966D02*
X0314194D01*
X0318192Y0046966D02*
Y0052965D01*
X0321191D01*
X0322191Y0051965D01*
Y0049966D01*
X0321191Y0048966D01*
X0318192D01*
X0320192D02*
X0322191Y0046966D01*
X0324190D02*
Y0050965D01*
X0326190Y0052965D01*
X0328189Y0050965D01*
Y0046966D01*
Y0049966D01*
X0324190D01*
X0330188Y0052965D02*
X0334187D01*
X0332188D01*
Y0046966D01*
X0340185Y0052965D02*
X0336186D01*
Y0046966D01*
X0340185D01*
X0336186Y0049966D02*
X0338186D01*
X0342184Y0052965D02*
Y0046966D01*
X0345183D01*
X0346183Y0047966D01*
Y0051965D01*
X0345183Y0052965D01*
X0342184D01*
X0372175Y0050965D02*
X0373175D01*
Y0049966D01*
X0372175D01*
Y0050965D01*
Y0047966D02*
X0373175D01*
Y0046966D01*
X0372175D01*
Y0047966D01*
X0385149Y0046966D02*
X0381150D01*
X0385149Y0050965D01*
Y0051965D01*
X0384149Y0052965D01*
X0382150D01*
X0381150Y0051965D01*
X0387148D02*
X0388148Y0052965D01*
X0390147D01*
X0391147Y0051965D01*
Y0047966D01*
X0390147Y0046966D01*
X0388148D01*
X0387148Y0047966D01*
Y0051965D01*
X0393146Y0046966D02*
X0395146D01*
X0394146D01*
Y0052965D01*
X0393146Y0051965D01*
X0398145Y0047966D02*
X0399144Y0046966D01*
X0401144D01*
X0402143Y0047966D01*
Y0051965D01*
X0401144Y0052965D01*
X0399144D01*
X0398145Y0051965D01*
Y0050965D01*
X0399144Y0049966D01*
X0402143D01*
X0404143Y0046966D02*
X0408141Y0050965D01*
X0414139Y0052965D02*
X0412140Y0051965D01*
X0410141Y0049966D01*
Y0047966D01*
X0411140Y0046966D01*
X0413140D01*
X0414139Y0047966D01*
Y0048966D01*
X0413140Y0049966D01*
X0410141D01*
X0416139Y0046966D02*
X0420137Y0050965D01*
X0422137Y0046966D02*
X0424136D01*
X0423136D01*
Y0052965D01*
X0422137Y0051965D01*
X0427135Y0052965D02*
X0431134D01*
Y0051965D01*
X0427135Y0047966D01*
Y0046966D01*
X0126900Y0052965D02*
X0130899D01*
X0128899D01*
Y0046966D01*
X0132898Y0052965D02*
X0134897D01*
X0133898D01*
Y0046966D01*
X0132898D01*
X0134897D01*
X0137896Y0052965D02*
Y0046966D01*
X0140895D01*
X0141895Y0047966D01*
Y0051965D01*
X0140895Y0052965D01*
X0137896D01*
X0143895Y0046966D02*
Y0050965D01*
X0145894Y0052965D01*
X0147893Y0050965D01*
Y0046966D01*
Y0049966D01*
X0143895D01*
X0149893D02*
X0153891D01*
X0155891Y0051965D02*
X0156890Y0052965D01*
X0158890D01*
X0159889Y0051965D01*
Y0047966D01*
X0158890Y0046966D01*
X0156890D01*
X0155891Y0047966D01*
Y0051965D01*
X0161889Y0046966D02*
X0163888D01*
X0162888D01*
Y0052965D01*
X0161889Y0051965D01*
X0166887D02*
X0167887Y0052965D01*
X0169886D01*
X0170886Y0051965D01*
Y0047966D01*
X0169886Y0046966D01*
X0167887D01*
X0166887Y0047966D01*
Y0051965D01*
X0172885D02*
X0173885Y0052965D01*
X0175884D01*
X0176884Y0051965D01*
Y0047966D01*
X0175884Y0046966D01*
X0173885D01*
X0172885Y0047966D01*
Y0051965D01*
X0178883D02*
X0179883Y0052965D01*
X0181882D01*
X0182882Y0051965D01*
Y0050965D01*
X0181882Y0049966D01*
X0180883D01*
X0181882D01*
X0182882Y0048966D01*
Y0047966D01*
X0181882Y0046966D01*
X0179883D01*
X0178883Y0047966D01*
X0184881Y0051965D02*
X0185881Y0052965D01*
X0187880D01*
X0188880Y0051965D01*
Y0047966D01*
X0187880Y0046966D01*
X0185881D01*
X0184881Y0047966D01*
Y0051965D01*
X0194878Y0052965D02*
X0190879D01*
Y0046966D01*
X0194878D01*
X0190879Y0049966D02*
X0192879D01*
X0196877Y0046966D02*
X0198877D01*
X0197877D01*
Y0052965D01*
X0196877Y0051965D01*
X0201876Y0046966D02*
Y0047966D01*
X0202875D01*
Y0046966D01*
X0201876D01*
X0210873Y0051965D02*
X0209873Y0052965D01*
X0207874D01*
X0206874Y0051965D01*
Y0047966D01*
X0207874Y0046966D01*
X0209873D01*
X0210873Y0047966D01*
Y0049966D01*
X0208874D01*
X0212872Y0052965D02*
X0216871D01*
X0214872D01*
Y0046966D01*
X0222869Y0051965D02*
X0221869Y0052965D01*
X0219870D01*
X0218870Y0051965D01*
Y0050965D01*
X0219870Y0049966D01*
X0221869D01*
X0222869Y0048966D01*
Y0047966D01*
X0221869Y0046966D01*
X0219870D01*
X0218870Y0047966D01*
X0433000Y0087833D02*
Y0093831D01*
X0435999D01*
X0436999Y0092832D01*
Y0090832D01*
X0435999Y0089833D01*
X0433000D01*
X0434999D02*
X0436999Y0087833D01*
X0442997Y0093831D02*
X0438998D01*
Y0087833D01*
X0442997D01*
X0438998Y0090832D02*
X0440997D01*
X0444996Y0093831D02*
Y0089833D01*
X0446995Y0087833D01*
X0448995Y0089833D01*
Y0093831D01*
X0450994Y0091832D02*
X0451994D01*
Y0090832D01*
X0450994D01*
Y0091832D01*
Y0088833D02*
X0451994D01*
Y0087833D01*
X0450994D01*
Y0088833D01*
X0520799Y0092832D02*
X0519799Y0093831D01*
X0517800D01*
X0516800Y0092832D01*
Y0091832D01*
X0517800Y0090832D01*
X0519799D01*
X0520799Y0089833D01*
Y0088833D01*
X0519799Y0087833D01*
X0517800D01*
X0516800Y0088833D01*
X0522798Y0093831D02*
Y0089833D01*
X0524797Y0087833D01*
X0526797Y0089833D01*
Y0093831D01*
X0528796Y0087833D02*
Y0093831D01*
X0532795Y0087833D01*
Y0093831D01*
X0540792Y0087833D02*
Y0093831D01*
X0543791D01*
X0544791Y0092832D01*
Y0090832D01*
X0543791Y0089833D01*
X0540792D01*
X0542792D02*
X0544791Y0087833D01*
X0550789Y0093831D02*
X0546790D01*
Y0087833D01*
X0550789D01*
X0546790Y0090832D02*
X0548790D01*
X0552788Y0093831D02*
Y0089833D01*
X0554788Y0087833D01*
X0556787Y0089833D01*
Y0093831D01*
X0558786Y0091832D02*
X0559786D01*
Y0090832D01*
X0558786D01*
Y0091832D01*
Y0088833D02*
X0559786D01*
Y0087833D01*
X0558786D01*
Y0088833D01*
X0567400Y0087833D02*
Y0093831D01*
X0571399Y0087833D01*
Y0093831D01*
X0574398Y0087833D02*
X0576397D01*
X0577397Y0088833D01*
Y0090832D01*
X0576397Y0091832D01*
X0574398D01*
X0573398Y0090832D01*
Y0088833D01*
X0574398Y0087833D01*
X0580396Y0092832D02*
Y0091832D01*
X0579396D01*
X0581395D01*
X0580396D01*
Y0088833D01*
X0581395Y0087833D01*
X0590393Y0093831D02*
X0592392D01*
X0591392D01*
Y0087833D01*
X0590393D01*
X0592392D01*
X0595391D02*
Y0091832D01*
X0598390D01*
X0599390Y0090832D01*
Y0087833D01*
X0607387Y0093831D02*
Y0089833D01*
X0609386Y0087833D01*
X0611386Y0089833D01*
Y0093831D01*
X0616384Y0087833D02*
X0614385D01*
X0613385Y0088833D01*
Y0090832D01*
X0614385Y0091832D01*
X0616384D01*
X0617384Y0090832D01*
Y0089833D01*
X0613385D01*
X0619383Y0091832D02*
Y0087833D01*
Y0089833D01*
X0620383Y0090832D01*
X0621383Y0091832D01*
X0622382D01*
X0625381Y0087833D02*
X0628380D01*
X0629380Y0088833D01*
X0628380Y0089833D01*
X0626381D01*
X0625381Y0090832D01*
X0626381Y0091832D01*
X0629380D01*
X0631379Y0087833D02*
X0633379D01*
X0632379D01*
Y0091832D01*
X0631379D01*
X0637377Y0087833D02*
X0639377D01*
X0640376Y0088833D01*
Y0090832D01*
X0639377Y0091832D01*
X0637377D01*
X0636378Y0090832D01*
Y0088833D01*
X0637377Y0087833D01*
X0642376D02*
Y0091832D01*
X0645375D01*
X0646374Y0090832D01*
Y0087833D01*
X0652373Y0092832D02*
X0651373Y0093831D01*
X0649373D01*
X0648374Y0092832D01*
Y0088833D01*
X0649373Y0087833D01*
X0651373D01*
X0652373Y0088833D01*
X0655372Y0087833D02*
X0657371D01*
X0658371Y0088833D01*
Y0090832D01*
X0657371Y0091832D01*
X0655372D01*
X0654372Y0090832D01*
Y0088833D01*
X0655372Y0087833D01*
X0660370D02*
Y0091832D01*
X0663369D01*
X0664369Y0090832D01*
Y0087833D01*
X0667368Y0092832D02*
Y0091832D01*
X0666368D01*
X0668367D01*
X0667368D01*
Y0088833D01*
X0668367Y0087833D01*
X0671366Y0091832D02*
Y0087833D01*
Y0089833D01*
X0672366Y0090832D01*
X0673366Y0091832D01*
X0674365D01*
X0678364Y0087833D02*
X0680364D01*
X0681363Y0088833D01*
Y0090832D01*
X0680364Y0091832D01*
X0678364D01*
X0677364Y0090832D01*
Y0088833D01*
X0678364Y0087833D01*
X0683362D02*
X0685362D01*
X0684362D01*
Y0093831D01*
X0683362D01*
G54D97*
X0258900Y0570900D02*
D03*
G54D102*
X0422859Y0502029D02*
D03*
X0417741D02*
D03*
X0420300Y0493171D02*
D03*
G54D103*
X0273150Y0586300D02*
D03*
X0279450D02*
D03*
X0223050Y0493300D02*
D03*
X0229350D02*
D03*
X0271450Y0463200D02*
D03*
X0265150D02*
D03*
X0171850Y0459900D02*
D03*
X0165550D02*
D03*
X0137151Y0451335D02*
D03*
X0143450D02*
D03*
X0228250Y0576000D02*
D03*
X0221950D02*
D03*
X0185050Y0580700D02*
D03*
X0178750D02*
D03*
X0289050Y0317000D02*
D03*
X0295350D02*
D03*
X0300050Y0268400D02*
D03*
X0293750D02*
D03*
X0280650Y0292100D02*
D03*
X0286950D02*
D03*
X0276850Y0312600D02*
D03*
X0270550D02*
D03*
X0281450Y0335800D02*
D03*
X0287750D02*
D03*
X0274750Y0365100D02*
D03*
X0281050D02*
D03*
X0423450Y0506700D02*
D03*
X0417150D02*
D03*
X0330950Y0466700D02*
D03*
X0324650D02*
D03*
X0330950Y0456325D02*
D03*
X0324650D02*
D03*
X0330950Y0445950D02*
D03*
X0324650D02*
D03*
X0330950Y0435575D02*
D03*
X0324650D02*
D03*
X0330950Y0425200D02*
D03*
X0324650D02*
D03*
X0223050Y0487800D02*
D03*
X0229350D02*
D03*
X0219750Y0518900D02*
D03*
X0226050D02*
D03*
X0290250Y0450400D02*
D03*
X0283950D02*
D03*
X0266352Y0438500D02*
D03*
X0272651D02*
D03*
X0208850Y0507000D02*
D03*
X0202550D02*
D03*
X0179550Y0544400D02*
D03*
X0185850D02*
D03*
X0191350Y0455400D02*
D03*
X0185050D02*
D03*
X0137151Y0581290D02*
D03*
X0143450D02*
D03*
X0137151Y0570461D02*
D03*
X0143450D02*
D03*
X0137151Y0559631D02*
D03*
X0143450D02*
D03*
X0137151Y0548802D02*
D03*
X0143450D02*
D03*
X0137151Y0575876D02*
D03*
X0143450D02*
D03*
X0137151Y0565046D02*
D03*
X0143450D02*
D03*
X0137151Y0554216D02*
D03*
X0143450D02*
D03*
X0137151Y0543387D02*
D03*
X0143450D02*
D03*
X0199150Y0562100D02*
D03*
X0205450D02*
D03*
X0172981Y0564342D02*
D03*
X0179280D02*
D03*
X0172481Y0555642D02*
D03*
X0178780D02*
D03*
X0137151Y0532557D02*
D03*
X0143450D02*
D03*
X0137151Y0521728D02*
D03*
X0143450D02*
D03*
X0137151Y0510898D02*
D03*
X0143450D02*
D03*
X0137151Y0500068D02*
D03*
X0143450D02*
D03*
X0137151Y0537972D02*
D03*
X0143450D02*
D03*
X0137151Y0527142D02*
D03*
X0143450D02*
D03*
X0137151Y0516313D02*
D03*
X0143450D02*
D03*
X0137151Y0505483D02*
D03*
X0143450D02*
D03*
X0137151Y0494654D02*
D03*
X0143450D02*
D03*
X0137151Y0483824D02*
D03*
X0143450D02*
D03*
X0137151Y0472994D02*
D03*
X0143450D02*
D03*
X0137151Y0462165D02*
D03*
X0143450D02*
D03*
X0137151Y0440506D02*
D03*
X0143450D02*
D03*
X0137151Y0489239D02*
D03*
X0143450D02*
D03*
X0137151Y0478409D02*
D03*
X0143450D02*
D03*
X0137151Y0467580D02*
D03*
X0143450D02*
D03*
X0137151Y0456750D02*
D03*
X0143450D02*
D03*
X0137151Y0445920D02*
D03*
X0143450D02*
D03*
X0137151Y0435091D02*
D03*
X0143450D02*
D03*
X0394250Y0291500D02*
D03*
X0387950D02*
D03*
X0303550Y0159600D02*
D03*
X0297250D02*
D03*
X0261150Y0586300D02*
D03*
X0267450D02*
D03*
X0220399Y0442000D02*
D03*
X0214100D02*
D03*
X0378950Y0484700D02*
D03*
X0372650D02*
D03*
X0365350Y0544600D02*
D03*
X0359050D02*
D03*
X0397150Y0514800D02*
D03*
X0390850D02*
D03*
X0342350Y0484700D02*
D03*
X0348650D02*
D03*
X0229350Y0481800D02*
D03*
X0223050D02*
D03*
X0185050Y0460500D02*
D03*
X0191350D02*
D03*
X0149150Y0545500D02*
D03*
X0155450D02*
D03*
X0149150Y0540100D02*
D03*
X0155450D02*
D03*
X0149050Y0435000D02*
D03*
X0155350D02*
D03*
X0283550Y0555300D02*
D03*
X0277250D02*
D03*
X0161950Y0199700D02*
D03*
X0155650D02*
D03*
X0305450Y0176000D02*
D03*
X0299150D02*
D03*
X0305450Y0218600D02*
D03*
X0299150D02*
D03*
X0305450Y0261900D02*
D03*
X0299150D02*
D03*
X0102850Y0298300D02*
D03*
X0109150D02*
D03*
X0255150Y0557900D02*
D03*
X0248850D02*
D03*
X0271550Y0552400D02*
D03*
X0265250D02*
D03*
X0268250Y0557900D02*
D03*
X0261950D02*
D03*
G54D104*
X0218700Y0503550D02*
D03*
Y0497250D02*
D03*
X0275700Y0573050D02*
D03*
Y0579350D02*
D03*
X0264400Y0538150D02*
D03*
Y0544450D02*
D03*
X0176900Y0448050D02*
D03*
Y0454350D02*
D03*
X0160507Y0448050D02*
D03*
Y0454350D02*
D03*
X0171500Y0448050D02*
D03*
Y0454350D02*
D03*
X0166000Y0454350D02*
D03*
Y0448050D02*
D03*
X0204000Y0574850D02*
D03*
Y0581150D02*
D03*
X0243300Y0557750D02*
D03*
Y0551450D02*
D03*
X0225433Y0430850D02*
D03*
Y0437150D02*
D03*
X0209133Y0430850D02*
D03*
Y0437150D02*
D03*
X0268800Y0296650D02*
D03*
Y0290350D02*
D03*
X0299100Y0282450D02*
D03*
Y0288750D02*
D03*
X0263100Y0300850D02*
D03*
Y0294550D02*
D03*
X0263200Y0312550D02*
D03*
Y0306250D02*
D03*
X0167200Y0270550D02*
D03*
Y0264250D02*
D03*
X0288700Y0348350D02*
D03*
Y0342050D02*
D03*
X0189800Y0270850D02*
D03*
Y0264550D02*
D03*
X0204300Y0307250D02*
D03*
Y0300950D02*
D03*
X0269190Y0365094D02*
D03*
Y0358795D02*
D03*
X0263840Y0365094D02*
D03*
Y0358795D02*
D03*
X0258490Y0365094D02*
D03*
Y0358795D02*
D03*
X0253140Y0365094D02*
D03*
Y0358795D02*
D03*
X0380900Y0491000D02*
D03*
Y0497300D02*
D03*
X0340200Y0502800D02*
D03*
Y0509100D02*
D03*
X0340193Y0496700D02*
D03*
Y0490400D02*
D03*
X0333800Y0529750D02*
D03*
Y0536050D02*
D03*
X0328200Y0529750D02*
D03*
Y0536050D02*
D03*
X0277416Y0518009D02*
D03*
Y0511709D02*
D03*
X0271916Y0518009D02*
D03*
Y0511709D02*
D03*
X0311900Y0488650D02*
D03*
Y0494950D02*
D03*
X0246400Y0479650D02*
D03*
Y0473350D02*
D03*
X0244900Y0485350D02*
D03*
Y0491650D02*
D03*
X0231940Y0517453D02*
D03*
Y0511154D02*
D03*
X0209200Y0514150D02*
D03*
Y0520450D02*
D03*
X0294800Y0425450D02*
D03*
Y0431750D02*
D03*
X0294600Y0444450D02*
D03*
Y0438150D02*
D03*
X0300900Y0438250D02*
D03*
Y0444550D02*
D03*
X0091100Y0574250D02*
D03*
Y0580550D02*
D03*
X0388000Y0282950D02*
D03*
Y0276650D02*
D03*
X0309100Y0166050D02*
D03*
Y0159750D02*
D03*
X0220000Y0430850D02*
D03*
Y0437150D02*
D03*
X0214560Y0437150D02*
D03*
Y0430850D02*
D03*
X0257600Y0294550D02*
D03*
Y0300850D02*
D03*
X0281190Y0348271D02*
D03*
Y0341971D02*
D03*
X0220600Y0458950D02*
D03*
Y0452650D02*
D03*
X0270777Y0538114D02*
D03*
Y0544413D02*
D03*
X0292700Y0494795D02*
D03*
Y0488495D02*
D03*
X0293600Y0538114D02*
D03*
Y0544413D02*
D03*
X0206900Y0476450D02*
D03*
Y0470150D02*
D03*
X0209600Y0501750D02*
D03*
Y0495450D02*
D03*
X0149100Y0581250D02*
D03*
Y0574950D02*
D03*
Y0569250D02*
D03*
Y0562950D02*
D03*
X0149000Y0557250D02*
D03*
Y0550950D02*
D03*
Y0534550D02*
D03*
Y0528250D02*
D03*
Y0522650D02*
D03*
Y0516350D02*
D03*
Y0510750D02*
D03*
Y0504450D02*
D03*
Y0487950D02*
D03*
Y0481650D02*
D03*
Y0475950D02*
D03*
Y0469650D02*
D03*
Y0464050D02*
D03*
Y0457750D02*
D03*
Y0452250D02*
D03*
Y0445950D02*
D03*
X0351100Y0529750D02*
D03*
Y0536050D02*
D03*
X0371300Y0530450D02*
D03*
Y0536750D02*
D03*
X0402800Y0521250D02*
D03*
Y0514950D02*
D03*
X0343100Y0530450D02*
D03*
Y0536750D02*
D03*
X0341700Y0437050D02*
D03*
Y0430750D02*
D03*
X0275700Y0567200D02*
D03*
Y0560901D02*
D03*
X0149400Y0206150D02*
D03*
Y0199850D02*
D03*
X0281100Y0560901D02*
D03*
Y0567200D02*
D03*
X0177100Y0239550D02*
D03*
Y0245850D02*
D03*
X0170900Y0276650D02*
D03*
Y0282950D02*
D03*
X0177100Y0196550D02*
D03*
Y0202850D02*
D03*
X0109100Y0292550D02*
D03*
Y0286250D02*
D03*
X0221900Y0314150D02*
D03*
Y0307850D02*
D03*
G54D105*
X0274500Y0523376D02*
D03*
X0270760Y0532824D02*
D03*
X0278240D02*
D03*
X0392100Y0445576D02*
D03*
X0388360Y0455024D02*
D03*
X0395840D02*
D03*
X0212600Y0571576D02*
D03*
X0208860Y0581024D02*
D03*
X0216340D02*
D03*
X0195300Y0571676D02*
D03*
X0191560Y0581124D02*
D03*
X0199040D02*
D03*
X0158400Y0214324D02*
D03*
X0162140Y0204876D02*
D03*
X0154660D02*
D03*
X0223100Y0504076D02*
D03*
X0219360Y0513524D02*
D03*
X0226840D02*
D03*
X0189131Y0565267D02*
D03*
X0192871Y0555818D02*
D03*
X0185390D02*
D03*
X0245060Y0541276D02*
D03*
X0252540D02*
D03*
X0248800Y0550724D02*
D03*
G54D106*
X0127049Y0448215D02*
D03*
X0117600Y0444475D02*
D03*
Y0451955D02*
D03*
X0227924Y0298000D02*
D03*
X0218476Y0294260D02*
D03*
Y0301740D02*
D03*
X0184424Y0266500D02*
D03*
X0174976Y0262760D02*
D03*
Y0270240D02*
D03*
X0352224Y0545500D02*
D03*
X0342776Y0541760D02*
D03*
Y0549240D02*
D03*
X0232776Y0504900D02*
D03*
X0242224Y0508640D02*
D03*
Y0501160D02*
D03*
X0275326Y0429100D02*
D03*
X0265877Y0425360D02*
D03*
Y0432840D02*
D03*
X0127049Y0577440D02*
D03*
X0117600Y0573700D02*
D03*
Y0581180D02*
D03*
X0127049Y0565692D02*
D03*
X0117600Y0561952D02*
D03*
Y0569432D02*
D03*
X0127049Y0553945D02*
D03*
X0117600Y0550205D02*
D03*
Y0557685D02*
D03*
X0127049Y0542197D02*
D03*
X0117600Y0538457D02*
D03*
Y0545937D02*
D03*
X0127024Y0530100D02*
D03*
X0117576Y0526360D02*
D03*
Y0533840D02*
D03*
X0127049Y0518701D02*
D03*
X0117600Y0514961D02*
D03*
Y0522441D02*
D03*
X0127049Y0506954D02*
D03*
X0117600Y0503213D02*
D03*
Y0510694D02*
D03*
X0127024Y0495600D02*
D03*
X0117576Y0491860D02*
D03*
Y0499340D02*
D03*
X0127024Y0483100D02*
D03*
X0117576Y0479360D02*
D03*
Y0486840D02*
D03*
X0127049Y0471710D02*
D03*
X0117600Y0467970D02*
D03*
Y0475451D02*
D03*
X0127049Y0459963D02*
D03*
X0117600Y0456222D02*
D03*
Y0463703D02*
D03*
X0127049Y0436467D02*
D03*
X0117600Y0432727D02*
D03*
Y0440207D02*
D03*
X0352524Y0558400D02*
D03*
X0343076Y0554660D02*
D03*
Y0562140D02*
D03*
X0241776Y0343500D02*
D03*
X0251224Y0347240D02*
D03*
Y0339760D02*
D03*
G54D107*
X0131799Y0450946D02*
D03*
Y0446615D02*
D03*
X0131800Y0579531D02*
D03*
Y0575200D02*
D03*
X0131800Y0567841D02*
D03*
Y0563510D02*
D03*
X0131800Y0556152D02*
D03*
Y0551821D02*
D03*
X0131800Y0544462D02*
D03*
Y0540131D02*
D03*
X0131800Y0532772D02*
D03*
Y0528442D02*
D03*
Y0521083D02*
D03*
Y0516752D02*
D03*
X0131800Y0509393D02*
D03*
Y0505063D02*
D03*
X0131799Y0497704D02*
D03*
Y0493373D02*
D03*
X0131800Y0486014D02*
D03*
Y0481683D02*
D03*
Y0474325D02*
D03*
Y0469994D02*
D03*
Y0462635D02*
D03*
Y0458304D02*
D03*
X0131799Y0439256D02*
D03*
Y0434925D02*
D03*
G54D108*
X0269628Y0563400D02*
D03*
Y0568400D02*
D03*
Y0573400D02*
D03*
Y0578400D02*
D03*
X0248172Y0563400D02*
D03*
Y0568400D02*
D03*
Y0573400D02*
D03*
Y0578400D02*
D03*
G54D109*
X0258133Y0328500D02*
D03*
X0260692D02*
D03*
X0263251D02*
D03*
X0265810D02*
D03*
X0268369D02*
D03*
X0270928D02*
D03*
X0273487D02*
D03*
X0276046D02*
D03*
X0258133Y0350941D02*
D03*
X0260692D02*
D03*
X0263251D02*
D03*
X0265810D02*
D03*
X0268369D02*
D03*
X0270928D02*
D03*
X0273487D02*
D03*
X0276046D02*
D03*
G54D110*
X0388072Y0507900D02*
D03*
Y0502900D02*
D03*
Y0497900D02*
D03*
Y0492900D02*
D03*
X0409528Y0507900D02*
D03*
Y0502900D02*
D03*
Y0497900D02*
D03*
Y0492900D02*
D03*
G54D111*
X0408387Y0523140D02*
D03*
Y0519400D02*
D03*
Y0515660D02*
D03*
X0419213D02*
D03*
Y0523140D02*
D03*
X0369345Y0550460D02*
D03*
Y0554200D02*
D03*
Y0557940D02*
D03*
X0358518D02*
D03*
Y0550460D02*
D03*
X0287627Y0545840D02*
D03*
Y0538360D02*
D03*
X0276800D02*
D03*
Y0542100D02*
D03*
Y0545840D02*
D03*
X0366613Y0529860D02*
D03*
Y0533600D02*
D03*
Y0537340D02*
D03*
X0355787D02*
D03*
Y0529860D02*
D03*
G54D112*
X0373495Y0503550D02*
D03*
Y0508550D02*
D03*
X0347905Y0503550D02*
D03*
Y0508550D02*
D03*
Y0495800D02*
D03*
Y0490800D02*
D03*
X0373495Y0495800D02*
D03*
Y0490800D02*
D03*
X0347905Y0436400D02*
D03*
Y0431400D02*
D03*
X0373495Y0436400D02*
D03*
Y0431400D02*
D03*
G54D113*
X0241317Y0475217D02*
D03*
X0238758D02*
D03*
X0236199D02*
D03*
X0233640D02*
D03*
X0231081D02*
D03*
X0228522D02*
D03*
X0225963D02*
D03*
X0241317Y0451989D02*
D03*
X0238758D02*
D03*
X0236199D02*
D03*
X0233640D02*
D03*
X0231081D02*
D03*
X0228522D02*
D03*
X0225963D02*
D03*
G54D114*
X0285014Y0469484D02*
D03*
Y0471452D02*
D03*
Y0473420D02*
D03*
Y0475389D02*
D03*
Y0477357D02*
D03*
Y0479326D02*
D03*
Y0481294D02*
D03*
Y0483263D02*
D03*
Y0485231D02*
D03*
Y0487200D02*
D03*
Y0489169D02*
D03*
Y0491137D02*
D03*
Y0493106D02*
D03*
Y0495074D02*
D03*
Y0497043D02*
D03*
Y0499011D02*
D03*
Y0500980D02*
D03*
Y0502948D02*
D03*
Y0504916D02*
D03*
X0261786Y0469484D02*
D03*
Y0471452D02*
D03*
Y0473420D02*
D03*
Y0475389D02*
D03*
Y0477357D02*
D03*
Y0479326D02*
D03*
Y0481294D02*
D03*
Y0483263D02*
D03*
Y0485231D02*
D03*
Y0487200D02*
D03*
Y0489169D02*
D03*
Y0491137D02*
D03*
Y0493106D02*
D03*
Y0495074D02*
D03*
Y0497043D02*
D03*
Y0499011D02*
D03*
Y0500980D02*
D03*
Y0502948D02*
D03*
Y0504916D02*
D03*
X0172369Y0507356D02*
D03*
Y0505388D02*
D03*
Y0503419D02*
D03*
Y0501451D02*
D03*
Y0499482D02*
D03*
Y0497514D02*
D03*
Y0495545D02*
D03*
Y0493577D02*
D03*
Y0491608D02*
D03*
Y0489640D02*
D03*
Y0487671D02*
D03*
Y0485703D02*
D03*
Y0483734D02*
D03*
Y0481766D02*
D03*
Y0479797D02*
D03*
Y0477829D02*
D03*
Y0475860D02*
D03*
Y0473892D02*
D03*
Y0471923D02*
D03*
Y0469955D02*
D03*
Y0467986D02*
D03*
Y0466018D02*
D03*
X0195598Y0507356D02*
D03*
Y0505388D02*
D03*
Y0503419D02*
D03*
Y0501451D02*
D03*
Y0499482D02*
D03*
Y0497514D02*
D03*
Y0495545D02*
D03*
Y0493577D02*
D03*
Y0491608D02*
D03*
Y0489640D02*
D03*
Y0487671D02*
D03*
Y0485703D02*
D03*
Y0483734D02*
D03*
Y0481766D02*
D03*
Y0479797D02*
D03*
Y0477829D02*
D03*
Y0475860D02*
D03*
Y0473892D02*
D03*
Y0471923D02*
D03*
Y0469955D02*
D03*
Y0467986D02*
D03*
Y0466018D02*
D03*
G54D115*
X0375039Y0564100D02*
D03*
Y0554100D02*
D03*
Y0544100D02*
D03*
X0411024D02*
D03*
Y0554100D02*
D03*
Y0564100D02*
D03*
G54D116*
X0225652Y0533400D02*
D03*
X0257148D02*
D03*
X0326352Y0520400D02*
D03*
X0357848D02*
D03*
G54D117*
X0251614Y0323600D02*
D03*
X0228386D02*
D03*
X0251614Y0310400D02*
D03*
X0228386D02*
D03*
X0190786Y0413500D02*
D03*
X0214014D02*
D03*
X0190786Y0400100D02*
D03*
X0214014D02*
D03*
G54D118*
X0274000Y0297500D02*
D03*
X0280000D02*
D03*
X0155200Y0440400D02*
D03*
X0149200D02*
D03*
X0239600Y0521400D02*
D03*
X0245600D02*
D03*
G54D119*
X0394800Y0471700D02*
D03*
Y0477700D02*
D03*
Y0463100D02*
D03*
Y0469100D02*
D03*
X0380900Y0509350D02*
D03*
Y0503350D02*
D03*
X0390000Y0469200D02*
D03*
Y0463200D02*
D03*
X0209600Y0484400D02*
D03*
Y0490400D02*
D03*
X0203000Y0492000D02*
D03*
Y0486000D02*
D03*
X0202900Y0502200D02*
D03*
Y0496200D02*
D03*
X0201700Y0477500D02*
D03*
Y0471500D02*
D03*
X0215700D02*
D03*
Y0477500D02*
D03*
X0153600Y0492000D02*
D03*
Y0498000D02*
D03*
X0149000Y0492500D02*
D03*
Y0498500D02*
D03*
X0211500Y0471500D02*
D03*
Y0477500D02*
D03*
X0306500Y0495900D02*
D03*
Y0489900D02*
D03*
G54D120*
X0099382Y0577700D02*
D03*
X0110800D02*
D03*
X0099382Y0565892D02*
D03*
X0110800D02*
D03*
X0099382Y0554083D02*
D03*
X0110800D02*
D03*
X0099382Y0542275D02*
D03*
X0110800D02*
D03*
X0099291Y0529700D02*
D03*
X0110709D02*
D03*
X0099391Y0518400D02*
D03*
X0110809D02*
D03*
X0099382Y0506850D02*
D03*
X0110800D02*
D03*
X0099382Y0496342D02*
D03*
X0110800D02*
D03*
X0099382Y0483233D02*
D03*
X0110800D02*
D03*
X0099382Y0471425D02*
D03*
X0110800D02*
D03*
X0099382Y0459617D02*
D03*
X0110800D02*
D03*
X0099382Y0447808D02*
D03*
X0110800D02*
D03*
X0099382Y0436000D02*
D03*
X0110800D02*
D03*
G54D121*
X0255258Y0266521D02*
D03*
Y0223471D02*
D03*
Y0180421D02*
D03*
X0220285Y0266521D02*
D03*
Y0223471D02*
D03*
Y0180421D02*
D03*
G54D122*
X0294234Y0276521D02*
D03*
Y0256521D02*
D03*
Y0233471D02*
D03*
Y0213471D02*
D03*
Y0190421D02*
D03*
Y0170421D02*
D03*
X0181309Y0256521D02*
D03*
Y0276521D02*
D03*
Y0213471D02*
D03*
Y0233471D02*
D03*
Y0170421D02*
D03*
Y0190421D02*
D03*
G54D123*
X0291400Y0288940D02*
D03*
X0293959Y0281460D02*
D03*
X0288841D02*
D03*
G54D124*
X0288784Y0570100D02*
D03*
X0324217D02*
D03*
G54D125*
X0126295Y0177600D02*
D03*
X0163105D02*
D03*
G54D126*
X0150129Y0241300D02*
D03*
X0166271D02*
D03*
G54D127*
X0158200Y0219351D02*
D03*
G54D128*
X0407000Y0274699D02*
D03*
Y0292101D02*
D03*
X0094100Y0299601D02*
D03*
Y0282199D02*
D03*
G54D129*
X0173553Y0573600D02*
D03*
X0186447D02*
D03*
X0270553Y0304600D02*
D03*
X0283447D02*
D03*
X0276647Y0319800D02*
D03*
X0263753D02*
D03*
X0261653Y0455659D02*
D03*
X0274547D02*
D03*
X0178953Y0285000D02*
D03*
X0191847D02*
D03*
X0191453Y0294300D02*
D03*
X0204347D02*
D03*
X0423147Y0538700D02*
D03*
X0410253D02*
D03*
X0298247Y0524700D02*
D03*
X0285353D02*
D03*
X0305653D02*
D03*
X0318547D02*
D03*
X0184447Y0515100D02*
D03*
X0171553D02*
D03*
X0184447Y0527500D02*
D03*
X0171553D02*
D03*
X0184647Y0537100D02*
D03*
X0171753D02*
D03*
X0210847Y0555600D02*
D03*
X0197953D02*
D03*
X0146447Y0429300D02*
D03*
X0133553D02*
D03*
G54D130*
X0307600Y0297747D02*
D03*
Y0284853D02*
D03*
X0299200Y0298854D02*
D03*
Y0311748D02*
D03*
X0307600Y0268153D02*
D03*
Y0281047D02*
D03*
X0290000Y0298853D02*
D03*
Y0311747D02*
D03*
X0160100Y0276747D02*
D03*
Y0263853D02*
D03*
X0421800Y0552653D02*
D03*
Y0565547D02*
D03*
X0258102Y0426653D02*
D03*
Y0439547D02*
D03*
X0213400Y0293553D02*
D03*
Y0306447D02*
D03*
X0227700Y0556053D02*
D03*
Y0568947D02*
D03*
X0219400Y0556053D02*
D03*
Y0568947D02*
D03*
G54D131*
X0285135Y0445400D02*
D03*
X0289465D02*
D03*
X0300765Y0450500D02*
D03*
X0296435D02*
D03*
G54D132*
X0311400Y0546400D02*
D03*
Y0538400D02*
D03*
X0302700Y0546400D02*
D03*
Y0538400D02*
D03*
X0299600Y0489045D02*
D03*
Y0497045D02*
D03*
G54D133*
X0275290Y0358121D02*
D03*
X0283290D02*
D03*
X0415100Y0530000D02*
D03*
X0423100D02*
D03*
X0266500Y0446200D02*
D03*
X0258500D02*
D03*
G54D134*
X0383257Y0462900D02*
D03*
Y0467900D02*
D03*
Y0472900D02*
D03*
Y0477900D02*
D03*
X0340343Y0462900D02*
D03*
Y0467900D02*
D03*
Y0472900D02*
D03*
Y0477900D02*
D03*
G54D135*
X0238300Y0566291D02*
D03*
Y0577709D02*
D03*
X0285102Y0437209D02*
D03*
Y0425791D02*
D03*
G54D136*
X0189704Y0541700D02*
D03*
X0202696D02*
D03*
X0189704Y0517100D02*
D03*
X0202696D02*
D03*
X0189704Y0529400D02*
D03*
X0202696D02*
D03*
G54D137*
X0326650Y0430500D02*
D03*
X0320350D02*
D03*
X0326650Y0440850D02*
D03*
X0320350D02*
D03*
X0326650Y0451200D02*
D03*
X0320350D02*
D03*
X0326650Y0461550D02*
D03*
X0320350D02*
D03*
X0326650Y0471900D02*
D03*
X0320350D02*
D03*
G54D138*
X0306600Y0445331D02*
D03*
Y0436669D02*
D03*
G54D139*
X0217727Y0321273D02*
D03*
X0213273Y0325727D02*
D03*
G54D140*
X0090100Y0566300D02*
D03*
Y0556300D02*
D03*
Y0546300D02*
D03*
Y0536300D02*
D03*
Y0526300D02*
D03*
Y0516300D02*
D03*
Y0506300D02*
D03*
Y0496300D02*
D03*
Y0486300D02*
D03*
Y0476300D02*
D03*
Y0466300D02*
D03*
Y0456300D02*
D03*
Y0446300D02*
D03*
X0080000Y0566300D02*
D03*
Y0556300D02*
D03*
Y0546300D02*
D03*
Y0536300D02*
D03*
Y0526300D02*
D03*
Y0516300D02*
D03*
Y0506300D02*
D03*
Y0496300D02*
D03*
Y0486300D02*
D03*
Y0476300D02*
D03*
Y0466300D02*
D03*
Y0456300D02*
D03*
Y0446300D02*
D03*
X0141700Y0188700D02*
D03*
Y0198700D02*
D03*
Y0208700D02*
D03*
X0289200Y0460400D02*
D03*
X0296000Y0515200D02*
D03*
X0306000D02*
D03*
X0316000D02*
D03*
X0263400Y0521500D02*
D03*
X0253400Y0511500D02*
D03*
X0263400D02*
D03*
G54D141*
X0090100Y0436300D02*
D03*
X0080000D02*
D03*
X0141700Y0218700D02*
D03*
X0253400Y0521500D02*
D03*
G54D142*
X0080900Y0204800D02*
D03*
X0100600D02*
D03*
X0120300D02*
D03*
Y0232400D02*
D03*
X0100600D02*
D03*
X0080900D02*
D03*
Y0338100D02*
D03*
X0100600D02*
D03*
X0120300D02*
D03*
Y0365700D02*
D03*
X0100600D02*
D03*
X0080900D02*
D03*
X0378700Y0335600D02*
D03*
X0398400D02*
D03*
X0418100D02*
D03*
Y0363200D02*
D03*
X0398400D02*
D03*
X0378700D02*
D03*
Y0202300D02*
D03*
X0398400D02*
D03*
X0418100D02*
D03*
Y0229900D02*
D03*
X0398400D02*
D03*
X0378700D02*
D03*
G54D143*
X0232400Y0437247D02*
D03*
Y0443153D02*
D03*
X0218300Y0548653D02*
D03*
Y0542747D02*
D03*
X0224000Y0548653D02*
D03*
Y0542747D02*
D03*
X0229700Y0548653D02*
D03*
Y0542747D02*
D03*
G54D144*
X0410900Y0451350D02*
D03*
Y0473300D02*
D03*
Y0429400D02*
D03*
G54D145*
Y0461350D02*
D03*
Y0483300D02*
D03*
Y0439400D02*
D03*
G54D146*
X0299200Y0460400D02*
D03*
X0286000Y0515200D02*
D03*
G54D147*
X0251000Y0544400D02*
D03*
X0255600Y0333200D02*
D03*
X0261700Y0333800D02*
D03*
X0185200Y0474900D02*
D03*
X0180700Y0465200D02*
D03*
X0187400Y0483300D02*
D03*
X0258300Y0585500D02*
D03*
X0341400Y0557500D02*
D03*
X0279600Y0481500D02*
D03*
X0351400Y0526100D02*
D03*
X0176000Y0248800D02*
D03*
Y0205700D02*
D03*
X0304200Y0221000D02*
D03*
Y0264700D02*
D03*
X0318500Y0226500D02*
D03*
X0315300D02*
D03*
Y0232900D02*
D03*
Y0229700D02*
D03*
X0321700D02*
D03*
X0318500D02*
D03*
Y0236100D02*
D03*
Y0232900D02*
D03*
X0324900D02*
D03*
X0321700D02*
D03*
Y0239300D02*
D03*
Y0236100D02*
D03*
X0324900D02*
D03*
X0318500Y0261700D02*
D03*
Y0264900D02*
D03*
X0315300D02*
D03*
X0321700Y0261700D02*
D03*
Y0264900D02*
D03*
X0324900Y0261700D02*
D03*
X0315300Y0236100D02*
D03*
Y0239300D02*
D03*
Y0242500D02*
D03*
Y0245700D02*
D03*
Y0248900D02*
D03*
Y0252100D02*
D03*
Y0255300D02*
D03*
Y0258500D02*
D03*
Y0261700D02*
D03*
X0318500Y0255300D02*
D03*
Y0258500D02*
D03*
X0321700Y0255300D02*
D03*
Y0258500D02*
D03*
X0315300Y0268100D02*
D03*
X0246400Y0441400D02*
D03*
X0341700Y0539200D02*
D03*
X0414900Y0553900D02*
D03*
X0415200Y0551200D02*
D03*
X0416400Y0548700D02*
D03*
X0413700Y0548800D02*
D03*
X0412400Y0551100D02*
D03*
X0288700Y0289700D02*
D03*
X0113900Y0160900D02*
D03*
X0110700D02*
D03*
X0107500D02*
D03*
X0104300D02*
D03*
X0113900Y0164100D02*
D03*
X0110700D02*
D03*
X0107500D02*
D03*
X0104300D02*
D03*
X0113900Y0167300D02*
D03*
X0110700D02*
D03*
X0107500D02*
D03*
X0104300D02*
D03*
X0113900Y0170500D02*
D03*
X0110700D02*
D03*
X0107500D02*
D03*
X0104300D02*
D03*
X0113900Y0173700D02*
D03*
X0110700D02*
D03*
X0107500D02*
D03*
X0104300D02*
D03*
X0113900Y0176900D02*
D03*
X0110700D02*
D03*
X0107500D02*
D03*
X0104300D02*
D03*
X0113900Y0180100D02*
D03*
X0110700D02*
D03*
X0107500D02*
D03*
X0104300D02*
D03*
X0113900Y0183300D02*
D03*
X0110700D02*
D03*
X0107500D02*
D03*
X0104300D02*
D03*
X0113900Y0186500D02*
D03*
X0110700D02*
D03*
X0107500D02*
D03*
X0104300D02*
D03*
X0113900Y0189700D02*
D03*
X0110700D02*
D03*
X0107500D02*
D03*
X0104300D02*
D03*
X0113900Y0192900D02*
D03*
X0110700D02*
D03*
X0107500D02*
D03*
X0104300D02*
D03*
X0113900Y0196100D02*
D03*
X0110700D02*
D03*
X0107500D02*
D03*
X0104300D02*
D03*
X0133400Y0285300D02*
D03*
X0136600D02*
D03*
X0139800D02*
D03*
X0143000D02*
D03*
X0133400Y0282100D02*
D03*
X0143000D02*
D03*
X0139800D02*
D03*
X0136600D02*
D03*
X0133400Y0278900D02*
D03*
X0136600D02*
D03*
X0139800D02*
D03*
X0143000D02*
D03*
X0133400Y0275700D02*
D03*
X0136600D02*
D03*
X0139800D02*
D03*
X0143000D02*
D03*
X0133400Y0272500D02*
D03*
X0136600D02*
D03*
X0139800D02*
D03*
X0143000D02*
D03*
X0133400Y0269300D02*
D03*
X0136600D02*
D03*
X0139800D02*
D03*
X0143000D02*
D03*
X0133400Y0266100D02*
D03*
X0136600D02*
D03*
X0139800D02*
D03*
X0143000D02*
D03*
X0133400Y0262900D02*
D03*
X0136600D02*
D03*
X0139800D02*
D03*
X0143000D02*
D03*
X0133400Y0259700D02*
D03*
X0136600D02*
D03*
X0139800D02*
D03*
X0143000D02*
D03*
X0133400Y0256500D02*
D03*
X0136600D02*
D03*
X0139800D02*
D03*
X0143000D02*
D03*
X0133400Y0253300D02*
D03*
X0136600D02*
D03*
X0139800D02*
D03*
X0143000D02*
D03*
X0133400Y0250100D02*
D03*
X0136600D02*
D03*
X0139800D02*
D03*
X0143000D02*
D03*
X0133400Y0246900D02*
D03*
X0136600D02*
D03*
X0139800D02*
D03*
X0143000D02*
D03*
X0133400Y0243700D02*
D03*
X0136600D02*
D03*
X0139800D02*
D03*
X0143000D02*
D03*
X0133400Y0240500D02*
D03*
X0136600D02*
D03*
X0139800D02*
D03*
X0143000D02*
D03*
X0133400Y0237300D02*
D03*
X0136600D02*
D03*
X0139800D02*
D03*
X0143000D02*
D03*
X0133400Y0234100D02*
D03*
X0136600D02*
D03*
X0139800D02*
D03*
X0143000D02*
D03*
X0133400Y0230900D02*
D03*
X0136600D02*
D03*
X0139800D02*
D03*
X0143000D02*
D03*
X0324900Y0175300D02*
D03*
X0321700D02*
D03*
X0318500D02*
D03*
X0315300D02*
D03*
X0324900Y0178500D02*
D03*
X0321700D02*
D03*
X0318500D02*
D03*
X0315300D02*
D03*
X0324900Y0181700D02*
D03*
X0321700D02*
D03*
X0318500D02*
D03*
X0315300D02*
D03*
X0324900Y0184900D02*
D03*
X0321700D02*
D03*
X0318500D02*
D03*
X0315300D02*
D03*
X0324900Y0188100D02*
D03*
X0321700D02*
D03*
X0318500D02*
D03*
X0315300D02*
D03*
X0324900Y0191300D02*
D03*
X0321700D02*
D03*
X0318500D02*
D03*
X0315300D02*
D03*
X0324900Y0194500D02*
D03*
X0321700D02*
D03*
X0318500D02*
D03*
X0315300D02*
D03*
X0324900Y0197700D02*
D03*
X0321700D02*
D03*
X0318500D02*
D03*
X0315300D02*
D03*
X0324900Y0200900D02*
D03*
X0321700D02*
D03*
X0318500D02*
D03*
X0315300D02*
D03*
X0324900Y0204100D02*
D03*
X0321700D02*
D03*
X0318500D02*
D03*
X0315300D02*
D03*
X0324900Y0207300D02*
D03*
X0321700D02*
D03*
X0318500D02*
D03*
X0315300D02*
D03*
X0324900Y0210500D02*
D03*
X0321700D02*
D03*
X0318500D02*
D03*
X0315300D02*
D03*
X0324900Y0213700D02*
D03*
X0321700D02*
D03*
X0318500D02*
D03*
X0315300D02*
D03*
X0324900Y0216900D02*
D03*
X0321700D02*
D03*
X0318500D02*
D03*
X0315300D02*
D03*
X0324900Y0220100D02*
D03*
X0321700D02*
D03*
X0318500D02*
D03*
X0315300D02*
D03*
X0324900Y0223300D02*
D03*
X0321700D02*
D03*
X0318500D02*
D03*
X0315300D02*
D03*
X0324900Y0226500D02*
D03*
X0321700D02*
D03*
X0324900Y0229700D02*
D03*
Y0239300D02*
D03*
X0318500D02*
D03*
X0324900Y0242500D02*
D03*
X0321700D02*
D03*
X0318500D02*
D03*
X0324900Y0245700D02*
D03*
X0321700D02*
D03*
X0318500D02*
D03*
X0324900Y0248900D02*
D03*
X0321700D02*
D03*
X0318500D02*
D03*
X0324900Y0252100D02*
D03*
X0321700D02*
D03*
X0318500D02*
D03*
X0324900Y0255300D02*
D03*
Y0258500D02*
D03*
Y0264900D02*
D03*
Y0268100D02*
D03*
X0321700D02*
D03*
X0318500D02*
D03*
X0183000Y0325400D02*
D03*
X0179800D02*
D03*
X0176600D02*
D03*
X0173400D02*
D03*
X0183000Y0328600D02*
D03*
X0179800D02*
D03*
X0176600D02*
D03*
X0173400D02*
D03*
X0183000Y0331800D02*
D03*
X0179800D02*
D03*
X0176600D02*
D03*
X0173400D02*
D03*
X0183000Y0335000D02*
D03*
X0179800D02*
D03*
X0176600D02*
D03*
X0173400D02*
D03*
X0183000Y0338200D02*
D03*
X0179800D02*
D03*
X0176600D02*
D03*
X0173400D02*
D03*
X0183000Y0341400D02*
D03*
X0179800D02*
D03*
X0176600D02*
D03*
X0173400D02*
D03*
X0183000Y0344600D02*
D03*
X0179800D02*
D03*
X0176600D02*
D03*
X0173400D02*
D03*
X0183000Y0347800D02*
D03*
X0179800D02*
D03*
X0176600D02*
D03*
X0173400D02*
D03*
X0183000Y0351000D02*
D03*
X0179800D02*
D03*
X0176600D02*
D03*
X0173400D02*
D03*
X0183000Y0354200D02*
D03*
X0179800D02*
D03*
X0176600D02*
D03*
X0173400D02*
D03*
X0183000Y0357400D02*
D03*
X0173400D02*
D03*
X0176600D02*
D03*
X0179800D02*
D03*
X0183000Y0360600D02*
D03*
X0179800D02*
D03*
X0176600D02*
D03*
X0173400D02*
D03*
X0183000Y0363800D02*
D03*
X0179800D02*
D03*
X0176600D02*
D03*
X0173400D02*
D03*
X0183000Y0367000D02*
D03*
X0179800D02*
D03*
X0176600D02*
D03*
X0173400D02*
D03*
X0183000Y0370200D02*
D03*
X0179800D02*
D03*
X0176600D02*
D03*
X0173400D02*
D03*
X0183000Y0373400D02*
D03*
X0179800D02*
D03*
X0176600D02*
D03*
X0173400D02*
D03*
X0183000Y0376600D02*
D03*
X0179800D02*
D03*
X0176600D02*
D03*
X0173400D02*
D03*
X0183000Y0379800D02*
D03*
X0179800D02*
D03*
X0176600D02*
D03*
X0173400D02*
D03*
X0183000Y0383000D02*
D03*
X0179800D02*
D03*
X0176600D02*
D03*
X0173400D02*
D03*
X0183000Y0386200D02*
D03*
X0179800D02*
D03*
X0176600D02*
D03*
X0173400D02*
D03*
X0183000Y0389400D02*
D03*
X0179800D02*
D03*
X0176600D02*
D03*
X0173400D02*
D03*
X0183000Y0392600D02*
D03*
X0179800D02*
D03*
X0176600D02*
D03*
X0173400D02*
D03*
X0183000Y0395800D02*
D03*
X0179800D02*
D03*
X0176600D02*
D03*
X0173400D02*
D03*
X0183000Y0399000D02*
D03*
X0179800D02*
D03*
X0176600D02*
D03*
X0173400D02*
D03*
X0183000Y0402200D02*
D03*
X0179800D02*
D03*
X0176600D02*
D03*
X0173400D02*
D03*
X0183000Y0405400D02*
D03*
X0179800D02*
D03*
X0176600D02*
D03*
X0173400D02*
D03*
X0183000Y0408600D02*
D03*
X0179800D02*
D03*
X0176600D02*
D03*
X0173400D02*
D03*
X0183000Y0411800D02*
D03*
X0179800D02*
D03*
X0176600D02*
D03*
X0173400D02*
D03*
X0183000Y0415000D02*
D03*
X0179800D02*
D03*
X0176600D02*
D03*
X0173400D02*
D03*
X0183000Y0418200D02*
D03*
X0179800D02*
D03*
X0176600D02*
D03*
X0173400D02*
D03*
X0272400Y0395700D02*
D03*
X0269200D02*
D03*
X0266000D02*
D03*
X0262800D02*
D03*
X0272400Y0398900D02*
D03*
X0269200D02*
D03*
X0266000D02*
D03*
X0262800D02*
D03*
X0272400Y0402100D02*
D03*
X0269200D02*
D03*
X0266000D02*
D03*
X0262800D02*
D03*
X0272400Y0405300D02*
D03*
X0269200D02*
D03*
X0266000D02*
D03*
X0262800D02*
D03*
X0272400Y0408500D02*
D03*
X0269200D02*
D03*
X0266000D02*
D03*
X0262800D02*
D03*
X0272400Y0411700D02*
D03*
X0269200D02*
D03*
X0266000D02*
D03*
X0262800D02*
D03*
X0272400Y0414900D02*
D03*
X0269200D02*
D03*
X0266000D02*
D03*
X0262800D02*
D03*
X0272400Y0418100D02*
D03*
X0269200D02*
D03*
X0266000D02*
D03*
X0262800D02*
D03*
X0279700D02*
D03*
X0282900D02*
D03*
X0286100D02*
D03*
X0289300D02*
D03*
X0279700Y0414900D02*
D03*
X0282900D02*
D03*
X0286100D02*
D03*
X0289300D02*
D03*
X0279700Y0411700D02*
D03*
X0282900D02*
D03*
X0286100D02*
D03*
X0289300D02*
D03*
X0279700Y0408500D02*
D03*
X0282900D02*
D03*
X0286100D02*
D03*
X0289300D02*
D03*
X0279700Y0405300D02*
D03*
X0282900D02*
D03*
X0286100D02*
D03*
X0289300D02*
D03*
X0279700Y0402100D02*
D03*
X0282900D02*
D03*
X0286100D02*
D03*
X0289300D02*
D03*
X0279700Y0398900D02*
D03*
X0282900D02*
D03*
X0286100D02*
D03*
X0289300D02*
D03*
X0279700Y0395700D02*
D03*
X0282900D02*
D03*
X0286100D02*
D03*
X0289300D02*
D03*
X0279700Y0392500D02*
D03*
X0282900D02*
D03*
X0286100D02*
D03*
X0289300D02*
D03*
X0279700Y0389300D02*
D03*
X0282900D02*
D03*
X0286100D02*
D03*
X0289300D02*
D03*
X0279700Y0386100D02*
D03*
X0282900D02*
D03*
X0286100D02*
D03*
X0289300D02*
D03*
X0279700Y0382900D02*
D03*
X0282900D02*
D03*
X0286100D02*
D03*
X0289300D02*
D03*
X0279700Y0379700D02*
D03*
X0282900D02*
D03*
X0286100D02*
D03*
X0289300D02*
D03*
X0311400Y0354100D02*
D03*
X0308200D02*
D03*
X0305000D02*
D03*
X0301800D02*
D03*
X0311400Y0357300D02*
D03*
X0301800D02*
D03*
X0305000D02*
D03*
X0308200D02*
D03*
X0311400Y0360500D02*
D03*
X0308200D02*
D03*
X0305000D02*
D03*
X0301800D02*
D03*
X0311400Y0363700D02*
D03*
X0308200D02*
D03*
X0305000D02*
D03*
X0301800D02*
D03*
X0311400Y0366900D02*
D03*
X0308200D02*
D03*
X0305000D02*
D03*
X0301800D02*
D03*
X0311400Y0370100D02*
D03*
X0308200D02*
D03*
X0305000D02*
D03*
X0301800D02*
D03*
X0311400Y0373300D02*
D03*
X0308200D02*
D03*
X0305000D02*
D03*
X0301800D02*
D03*
X0311400Y0376500D02*
D03*
X0308200D02*
D03*
X0305000D02*
D03*
X0301800D02*
D03*
X0311400Y0379700D02*
D03*
X0308200D02*
D03*
X0305000D02*
D03*
X0301800D02*
D03*
X0311400Y0382900D02*
D03*
X0308200D02*
D03*
X0305000D02*
D03*
X0301800D02*
D03*
X0311400Y0386100D02*
D03*
X0308200D02*
D03*
X0305000D02*
D03*
X0301800D02*
D03*
X0311400Y0389300D02*
D03*
X0308200D02*
D03*
X0305000D02*
D03*
X0301800D02*
D03*
X0311400Y0392500D02*
D03*
X0308200D02*
D03*
X0305000D02*
D03*
X0301800D02*
D03*
X0311400Y0395700D02*
D03*
X0308200D02*
D03*
X0305000D02*
D03*
X0301800D02*
D03*
X0311400Y0398900D02*
D03*
X0308200D02*
D03*
X0305000D02*
D03*
X0301800D02*
D03*
X0311400Y0402100D02*
D03*
X0308200D02*
D03*
X0305000D02*
D03*
X0301800D02*
D03*
X0311400Y0405300D02*
D03*
X0308200D02*
D03*
X0305000D02*
D03*
X0301800D02*
D03*
X0311400Y0408500D02*
D03*
X0308200D02*
D03*
X0305000D02*
D03*
X0301800D02*
D03*
X0311400Y0411700D02*
D03*
X0308200D02*
D03*
X0305000D02*
D03*
X0301800D02*
D03*
X0311400Y0414900D02*
D03*
X0308200D02*
D03*
X0305000D02*
D03*
X0301800D02*
D03*
X0311400Y0418100D02*
D03*
X0308200D02*
D03*
X0305000D02*
D03*
X0301800D02*
D03*
X0205700Y0261200D02*
D03*
Y0264400D02*
D03*
Y0267600D02*
D03*
Y0270800D02*
D03*
X0208900Y0261200D02*
D03*
Y0270800D02*
D03*
Y0267600D02*
D03*
Y0264400D02*
D03*
X0212100Y0261200D02*
D03*
Y0264400D02*
D03*
Y0267600D02*
D03*
Y0270800D02*
D03*
X0215300Y0261200D02*
D03*
Y0264400D02*
D03*
Y0267600D02*
D03*
Y0270800D02*
D03*
X0218500Y0261200D02*
D03*
Y0264400D02*
D03*
Y0267600D02*
D03*
Y0270800D02*
D03*
X0221700Y0261200D02*
D03*
Y0264400D02*
D03*
Y0267600D02*
D03*
Y0270800D02*
D03*
X0224900Y0261200D02*
D03*
Y0264400D02*
D03*
Y0267600D02*
D03*
Y0270800D02*
D03*
X0228100Y0261200D02*
D03*
Y0264400D02*
D03*
Y0267600D02*
D03*
Y0270800D02*
D03*
X0231300Y0261200D02*
D03*
Y0264400D02*
D03*
Y0267600D02*
D03*
Y0270800D02*
D03*
X0234500Y0261200D02*
D03*
Y0264400D02*
D03*
Y0267600D02*
D03*
Y0270800D02*
D03*
X0237700Y0261200D02*
D03*
Y0264400D02*
D03*
Y0267600D02*
D03*
Y0270800D02*
D03*
X0240900Y0261200D02*
D03*
Y0264400D02*
D03*
Y0267600D02*
D03*
Y0270800D02*
D03*
X0244100Y0261200D02*
D03*
Y0264400D02*
D03*
Y0267600D02*
D03*
Y0270800D02*
D03*
X0247300Y0261200D02*
D03*
Y0264400D02*
D03*
Y0267600D02*
D03*
Y0270800D02*
D03*
X0250500Y0261200D02*
D03*
Y0264400D02*
D03*
Y0267600D02*
D03*
Y0270800D02*
D03*
X0253700Y0261200D02*
D03*
Y0264400D02*
D03*
Y0267600D02*
D03*
Y0270800D02*
D03*
X0256900Y0261200D02*
D03*
Y0264400D02*
D03*
Y0267600D02*
D03*
Y0270800D02*
D03*
X0260100Y0261200D02*
D03*
Y0264400D02*
D03*
Y0267600D02*
D03*
Y0270800D02*
D03*
X0263300Y0261200D02*
D03*
Y0264400D02*
D03*
Y0267600D02*
D03*
Y0270800D02*
D03*
X0266500Y0261200D02*
D03*
Y0264400D02*
D03*
Y0267600D02*
D03*
Y0270800D02*
D03*
X0269700Y0261200D02*
D03*
Y0264400D02*
D03*
Y0267600D02*
D03*
Y0270800D02*
D03*
X0205700Y0218200D02*
D03*
Y0221400D02*
D03*
Y0224600D02*
D03*
Y0227800D02*
D03*
X0208900Y0218200D02*
D03*
Y0227800D02*
D03*
Y0224600D02*
D03*
Y0221400D02*
D03*
X0212100Y0218200D02*
D03*
Y0221400D02*
D03*
Y0224600D02*
D03*
Y0227800D02*
D03*
X0215300Y0218200D02*
D03*
Y0221400D02*
D03*
Y0224600D02*
D03*
Y0227800D02*
D03*
X0218500Y0218200D02*
D03*
Y0221400D02*
D03*
Y0224600D02*
D03*
Y0227800D02*
D03*
X0221700Y0218200D02*
D03*
Y0221400D02*
D03*
Y0224600D02*
D03*
Y0227800D02*
D03*
X0224900Y0218200D02*
D03*
Y0221400D02*
D03*
Y0224600D02*
D03*
Y0227800D02*
D03*
X0228100Y0218200D02*
D03*
Y0221400D02*
D03*
Y0224600D02*
D03*
Y0227800D02*
D03*
X0231300Y0218200D02*
D03*
Y0221400D02*
D03*
Y0224600D02*
D03*
Y0227800D02*
D03*
X0234500Y0218200D02*
D03*
Y0221400D02*
D03*
Y0224600D02*
D03*
Y0227800D02*
D03*
X0237700Y0218200D02*
D03*
Y0221400D02*
D03*
Y0224600D02*
D03*
Y0227800D02*
D03*
X0240900Y0218200D02*
D03*
Y0221400D02*
D03*
Y0224600D02*
D03*
Y0227800D02*
D03*
X0244100Y0218200D02*
D03*
Y0221400D02*
D03*
Y0224600D02*
D03*
Y0227800D02*
D03*
X0247300Y0218200D02*
D03*
Y0221400D02*
D03*
Y0224600D02*
D03*
Y0227800D02*
D03*
X0250500Y0218200D02*
D03*
Y0221400D02*
D03*
Y0224600D02*
D03*
Y0227800D02*
D03*
X0253700Y0218200D02*
D03*
Y0221400D02*
D03*
Y0224600D02*
D03*
Y0227800D02*
D03*
X0256900Y0218200D02*
D03*
Y0221400D02*
D03*
Y0224600D02*
D03*
Y0227800D02*
D03*
X0260100Y0218200D02*
D03*
Y0221400D02*
D03*
Y0224600D02*
D03*
Y0227800D02*
D03*
X0263300Y0218200D02*
D03*
Y0221400D02*
D03*
Y0224600D02*
D03*
Y0227800D02*
D03*
X0266500Y0218200D02*
D03*
Y0221400D02*
D03*
Y0224600D02*
D03*
Y0227800D02*
D03*
X0269700Y0218200D02*
D03*
Y0221400D02*
D03*
Y0224600D02*
D03*
Y0227800D02*
D03*
X0205800Y0174900D02*
D03*
Y0178100D02*
D03*
Y0181300D02*
D03*
Y0184500D02*
D03*
X0209000Y0174900D02*
D03*
Y0184500D02*
D03*
Y0181300D02*
D03*
Y0178100D02*
D03*
X0212200Y0174900D02*
D03*
Y0178100D02*
D03*
Y0181300D02*
D03*
Y0184500D02*
D03*
X0215400Y0174900D02*
D03*
Y0178100D02*
D03*
Y0181300D02*
D03*
Y0184500D02*
D03*
X0218600Y0174900D02*
D03*
Y0178100D02*
D03*
Y0181300D02*
D03*
Y0184500D02*
D03*
X0221800Y0174900D02*
D03*
Y0178100D02*
D03*
Y0181300D02*
D03*
Y0184500D02*
D03*
X0225000Y0174900D02*
D03*
Y0178100D02*
D03*
Y0181300D02*
D03*
Y0184500D02*
D03*
X0228200Y0174900D02*
D03*
Y0178100D02*
D03*
Y0181300D02*
D03*
Y0184500D02*
D03*
X0231400Y0174900D02*
D03*
Y0178100D02*
D03*
Y0181300D02*
D03*
Y0184500D02*
D03*
X0234600Y0174900D02*
D03*
Y0178100D02*
D03*
Y0181300D02*
D03*
Y0184500D02*
D03*
X0237800Y0174900D02*
D03*
Y0178100D02*
D03*
Y0181300D02*
D03*
Y0184500D02*
D03*
X0241000Y0174900D02*
D03*
Y0178100D02*
D03*
Y0181300D02*
D03*
Y0184500D02*
D03*
X0244200Y0174900D02*
D03*
Y0178100D02*
D03*
Y0181300D02*
D03*
Y0184500D02*
D03*
X0247400Y0174900D02*
D03*
Y0178100D02*
D03*
Y0181300D02*
D03*
Y0184500D02*
D03*
X0250600Y0174900D02*
D03*
Y0178100D02*
D03*
Y0181300D02*
D03*
Y0184500D02*
D03*
X0253800Y0174900D02*
D03*
Y0178100D02*
D03*
Y0181300D02*
D03*
Y0184500D02*
D03*
X0257000Y0174900D02*
D03*
Y0178100D02*
D03*
Y0181300D02*
D03*
Y0184500D02*
D03*
X0260200Y0174900D02*
D03*
Y0178100D02*
D03*
Y0181300D02*
D03*
Y0184500D02*
D03*
X0263400Y0174900D02*
D03*
Y0178100D02*
D03*
Y0181300D02*
D03*
Y0184500D02*
D03*
X0266600Y0174900D02*
D03*
Y0178100D02*
D03*
Y0181300D02*
D03*
Y0184500D02*
D03*
X0269800Y0174900D02*
D03*
Y0178100D02*
D03*
Y0181300D02*
D03*
Y0184500D02*
D03*
X0230900Y0354200D02*
D03*
X0227700D02*
D03*
X0224500D02*
D03*
X0221300D02*
D03*
X0230900Y0357400D02*
D03*
X0227700D02*
D03*
X0224500D02*
D03*
X0221300D02*
D03*
X0230900Y0360600D02*
D03*
X0227700D02*
D03*
X0224500D02*
D03*
X0221300D02*
D03*
X0230900Y0363800D02*
D03*
X0227700D02*
D03*
X0224500D02*
D03*
X0221300D02*
D03*
X0230900Y0367000D02*
D03*
X0227700D02*
D03*
X0224500D02*
D03*
X0221300D02*
D03*
X0230900Y0370200D02*
D03*
X0227700D02*
D03*
X0224500D02*
D03*
X0221300D02*
D03*
X0230900Y0373400D02*
D03*
X0227700D02*
D03*
X0224500D02*
D03*
X0221300D02*
D03*
X0230900Y0376600D02*
D03*
X0227700D02*
D03*
X0224500D02*
D03*
X0221300D02*
D03*
X0230900Y0379800D02*
D03*
X0227700D02*
D03*
X0224500D02*
D03*
X0221300D02*
D03*
X0230900Y0383000D02*
D03*
X0227700D02*
D03*
X0224500D02*
D03*
X0221300D02*
D03*
X0230900Y0386200D02*
D03*
X0227700D02*
D03*
X0224500D02*
D03*
X0221300D02*
D03*
X0230900Y0389400D02*
D03*
X0227700D02*
D03*
X0224500D02*
D03*
X0221300D02*
D03*
X0230900Y0392600D02*
D03*
X0227700D02*
D03*
X0224500D02*
D03*
X0221300D02*
D03*
X0230900Y0395800D02*
D03*
X0227700D02*
D03*
X0224500D02*
D03*
X0221300D02*
D03*
X0230900Y0399000D02*
D03*
X0227700D02*
D03*
X0224500D02*
D03*
X0221300D02*
D03*
X0230900Y0402200D02*
D03*
X0227700D02*
D03*
X0224500D02*
D03*
X0221300D02*
D03*
X0230900Y0405400D02*
D03*
X0227700D02*
D03*
X0224500D02*
D03*
X0221300D02*
D03*
X0230900Y0408600D02*
D03*
X0227700D02*
D03*
X0224500D02*
D03*
X0221300D02*
D03*
X0230900Y0411800D02*
D03*
X0227700D02*
D03*
X0224500D02*
D03*
X0221300D02*
D03*
X0224500Y0415000D02*
D03*
X0227700D02*
D03*
X0230900D02*
D03*
X0221300D02*
D03*
X0230900Y0418200D02*
D03*
X0227700D02*
D03*
X0224500D02*
D03*
X0374300Y0463000D02*
D03*
X0349700Y0523800D02*
D03*
X0348400Y0526300D02*
D03*
X0354400Y0554400D02*
D03*
X0352900Y0549700D02*
D03*
X0350260Y0550460D02*
D03*
X0344700Y0557500D02*
D03*
X0372500Y0481400D02*
D03*
X0372400Y0488200D02*
D03*
X0405700Y0490100D02*
D03*
X0403900Y0492300D02*
D03*
Y0494900D02*
D03*
X0301557Y0550200D02*
D03*
X0297500Y0547400D02*
D03*
X0280700Y0462300D02*
D03*
X0348200Y0511300D02*
D03*
X0333900Y0484200D02*
D03*
X0336700D02*
D03*
X0339200Y0485600D02*
D03*
Y0482800D02*
D03*
X0344900Y0459400D02*
D03*
X0342200D02*
D03*
X0339500D02*
D03*
X0340900Y0456500D02*
D03*
X0343600D02*
D03*
X0313900Y0476200D02*
D03*
X0331500Y0430450D02*
D03*
Y0440800D02*
D03*
Y0451150D02*
D03*
Y0461500D02*
D03*
X0349200Y0438700D02*
D03*
X0307100Y0550200D02*
D03*
X0304328D02*
D03*
X0298786D02*
D03*
X0296014D02*
D03*
X0293243D02*
D03*
X0290471D02*
D03*
X0146100Y0488900D02*
D03*
X0279300Y0342000D02*
D03*
X0182900Y0534700D02*
D03*
X0160200Y0484900D02*
D03*
X0157400Y0546100D02*
D03*
X0187900Y0528600D02*
D03*
X0304200Y0178600D02*
D03*
X0281700Y0334000D02*
D03*
X0221300Y0418200D02*
D03*
X0180600Y0542200D02*
D03*
X0212800Y0487500D02*
D03*
X0212000Y0538200D02*
D03*
X0209400Y0533700D02*
D03*
X0208400Y0515800D02*
D03*
X0172300Y0524100D02*
D03*
X0151600Y0533300D02*
D03*
X0382000Y0485800D02*
D03*
X0319200Y0504500D02*
D03*
X0316000Y0508100D02*
D03*
X0329100Y0504500D02*
D03*
X0329200Y0500300D02*
D03*
X0169200Y0428000D02*
D03*
X0172000D02*
D03*
X0174800D02*
D03*
X0177600D02*
D03*
X0180400D02*
D03*
X0183200D02*
D03*
X0186000D02*
D03*
X0187400Y0425500D02*
D03*
X0184600D02*
D03*
X0181800D02*
D03*
X0167800D02*
D03*
X0170600D02*
D03*
X0173400D02*
D03*
X0176200D02*
D03*
X0179000D02*
D03*
X0106400Y0579250D02*
D03*
Y0576500D02*
D03*
X0107300Y0564600D02*
D03*
Y0567350D02*
D03*
Y0552105D02*
D03*
Y0554854D02*
D03*
Y0541000D02*
D03*
Y0543750D02*
D03*
X0107276Y0528260D02*
D03*
X0107300Y0531500D02*
D03*
X0106600Y0519800D02*
D03*
Y0509000D02*
D03*
Y0505600D02*
D03*
X0106300Y0437700D02*
D03*
Y0434200D02*
D03*
Y0449700D02*
D03*
Y0446400D02*
D03*
Y0461700D02*
D03*
Y0458200D02*
D03*
Y0473200D02*
D03*
Y0469800D02*
D03*
Y0484500D02*
D03*
X0106600Y0497600D02*
D03*
Y0494400D02*
D03*
X0106300Y0481600D02*
D03*
X0106600Y0517000D02*
D03*
X0214200Y0427200D02*
D03*
X0177000Y0444600D02*
D03*
X0160500D02*
D03*
X0200900Y0406800D02*
D03*
X0205100D02*
D03*
X0245500Y0582300D02*
D03*
Y0585500D02*
D03*
Y0588700D02*
D03*
X0248700Y0582300D02*
D03*
Y0585500D02*
D03*
Y0588700D02*
D03*
X0251900Y0582300D02*
D03*
Y0585500D02*
D03*
Y0588700D02*
D03*
X0255100Y0582300D02*
D03*
Y0585500D02*
D03*
Y0588700D02*
D03*
X0258300Y0582300D02*
D03*
Y0588700D02*
D03*
X0261500Y0582300D02*
D03*
X0297500Y0544300D02*
D03*
X0287700Y0550200D02*
D03*
X0397700Y0490700D02*
D03*
X0377500Y0463000D02*
D03*
X0420300Y0495700D02*
D03*
X0420100Y0487400D02*
D03*
X0174800Y0283400D02*
D03*
X0266800Y0452400D02*
D03*
X0219800Y0523700D02*
D03*
X0245100Y0455100D02*
D03*
X0248400Y0478100D02*
D03*
X0189800Y0474900D02*
D03*
X0280700Y0459100D02*
D03*
X0267600Y0482400D02*
D03*
X0267200Y0496159D02*
D03*
X0268700Y0500200D02*
D03*
X0268100Y0486600D02*
D03*
X0315600Y0539900D02*
D03*
X0280200Y0492300D02*
D03*
X0291600Y0519300D02*
D03*
Y0504600D02*
D03*
X0302200Y0490600D02*
D03*
X0269900Y0443900D02*
D03*
X0218400Y0516379D02*
D03*
X0209400Y0508900D02*
D03*
X0285400Y0527200D02*
D03*
X0217250Y0427200D02*
D03*
X0249500Y0541600D02*
D03*
X0295100Y0498200D02*
D03*
X0304300Y0498400D02*
D03*
Y0501500D02*
D03*
X0301200D02*
D03*
X0298100D02*
D03*
X0295000D02*
D03*
X0267100Y0490300D02*
D03*
X0255400Y0492400D02*
D03*
X0251500Y0492100D02*
D03*
X0244900Y0448900D02*
D03*
X0240800Y0444700D02*
D03*
X0240600Y0438200D02*
D03*
X0248600Y0426350D02*
D03*
X0238900Y0507000D02*
D03*
X0238700Y0510000D02*
D03*
X0234500Y0487800D02*
D03*
X0177400Y0486200D02*
D03*
X0172300Y0539000D02*
D03*
X0220300Y0427200D02*
D03*
X0292400Y0499800D02*
D03*
X0352100Y0552600D02*
D03*
X0251200Y0430500D02*
D03*
X0204400Y0551400D02*
D03*
X0236500Y0553000D02*
D03*
X0253800Y0544400D02*
D03*
X0255700Y0541600D02*
D03*
X0185500Y0467000D02*
D03*
X0226000Y0462300D02*
D03*
X0189200Y0465200D02*
D03*
G54D148*
X0261065Y0568341D02*
D03*
X0256735D02*
D03*
X0261065Y0573459D02*
D03*
X0256735D02*
D03*
M02*
