G04 Layer_Physical_Order=2*
G04 Layer_Color=16711680*
%FSAX25Y25*%
%MOIN*%
G70*
G01*
G75*
%ADD29R,0.05118X0.07283*%
%ADD49C,0.01000*%
%ADD50C,0.02000*%
%ADD51C,0.04000*%
%ADD52C,0.02300*%
%ADD53C,0.01500*%
%ADD54C,0.03000*%
%ADD55C,0.01200*%
%ADD56C,0.01100*%
%ADD57C,0.02500*%
%ADD58C,0.03500*%
%ADD60C,0.05000*%
%ADD63C,0.00800*%
%ADD68C,0.05905*%
%ADD69R,0.05905X0.05905*%
%ADD70C,0.11000*%
%ADD71C,0.04331*%
G04:AMPARAMS|DCode=72|XSize=61.02mil|YSize=61.02mil|CornerRadius=1.83mil|HoleSize=0mil|Usage=FLASHONLY|Rotation=90.000|XOffset=0mil|YOffset=0mil|HoleType=Round|Shape=RoundedRectangle|*
%AMROUNDEDRECTD72*
21,1,0.06102,0.05736,0,0,90.0*
21,1,0.05736,0.06102,0,0,90.0*
1,1,0.00366,0.02868,0.02868*
1,1,0.00366,0.02868,-0.02868*
1,1,0.00366,-0.02868,-0.02868*
1,1,0.00366,-0.02868,0.02868*
%
%ADD72ROUNDEDRECTD72*%
%ADD73C,0.06102*%
%ADD74R,0.05905X0.05905*%
%ADD75C,0.03000*%
%ADD76C,0.01968*%
%ADD77R,0.16700X0.07400*%
G36*
X0120200Y0466434D02*
X0103700D01*
Y0477038D01*
X0120200D01*
Y0466434D01*
D02*
G37*
G36*
Y0454625D02*
X0103700D01*
Y0465200D01*
X0120200D01*
Y0454625D01*
D02*
G37*
G36*
Y0442817D02*
X0103700D01*
Y0453400D01*
X0120200D01*
Y0442817D01*
D02*
G37*
G36*
X0259700Y0545900D02*
Y0535200D01*
Y0517507D01*
X0258700Y0517408D01*
X0258636Y0517729D01*
X0258393Y0518093D01*
X0258393Y0518093D01*
X0256953Y0519533D01*
Y0525053D01*
X0249847D01*
Y0517947D01*
X0255367D01*
X0256479Y0516835D01*
Y0514876D01*
X0255479Y0514383D01*
X0255192Y0514603D01*
X0254327Y0514961D01*
X0253400Y0515083D01*
X0252473Y0514961D01*
X0251608Y0514603D01*
X0250866Y0514034D01*
X0250297Y0513292D01*
X0249939Y0512428D01*
X0249817Y0511500D01*
X0249939Y0510572D01*
X0250297Y0509708D01*
X0250866Y0508966D01*
X0251608Y0508397D01*
X0252473Y0508039D01*
X0253400Y0507917D01*
X0253677Y0507953D01*
X0254677Y0507173D01*
Y0497225D01*
X0251660Y0494209D01*
X0251500Y0494241D01*
X0250681Y0494078D01*
X0249986Y0493614D01*
X0249522Y0492919D01*
X0249359Y0492100D01*
X0249451Y0491637D01*
X0241707Y0483893D01*
X0241464Y0483529D01*
X0241378Y0483100D01*
X0241378Y0483100D01*
Y0475027D01*
X0239073Y0472722D01*
X0196527D01*
X0195456Y0473793D01*
X0195092Y0474036D01*
X0194663Y0474122D01*
X0194663Y0474122D01*
X0192749D01*
X0191941Y0474900D01*
X0191778Y0475719D01*
X0191314Y0476414D01*
X0190619Y0476878D01*
X0189800Y0477041D01*
X0188981Y0476878D01*
X0188286Y0476414D01*
X0188056Y0476069D01*
X0188041Y0476063D01*
X0186959D01*
X0186944Y0476069D01*
X0186714Y0476414D01*
X0186019Y0476878D01*
X0185200Y0477041D01*
X0184381Y0476878D01*
X0183686Y0476414D01*
X0183222Y0475719D01*
X0183059Y0474900D01*
X0183222Y0474081D01*
X0183686Y0473386D01*
X0184381Y0472922D01*
X0185200Y0472759D01*
X0185663Y0472851D01*
X0186669Y0471845D01*
X0186286Y0470922D01*
X0183600D01*
X0183600Y0470922D01*
X0183171Y0470836D01*
X0182807Y0470593D01*
X0179907Y0467693D01*
X0179664Y0467329D01*
X0179596Y0466988D01*
X0179186Y0466714D01*
X0178722Y0466019D01*
X0178559Y0465200D01*
X0178722Y0464381D01*
X0179186Y0463686D01*
X0179881Y0463222D01*
X0180700Y0463059D01*
X0181519Y0463222D01*
X0182214Y0463686D01*
X0182678Y0464381D01*
X0182841Y0465200D01*
X0182785Y0465484D01*
X0183727Y0465874D01*
X0183986Y0465486D01*
X0184681Y0465022D01*
X0185500Y0464859D01*
X0186319Y0465022D01*
X0187215Y0464417D01*
X0187222Y0464381D01*
X0187686Y0463686D01*
X0188381Y0463222D01*
X0189200Y0463059D01*
X0190019Y0463222D01*
X0190714Y0463686D01*
X0190976Y0464078D01*
X0223460D01*
X0224018Y0463126D01*
X0224014Y0463078D01*
X0223859Y0462300D01*
X0224022Y0461481D01*
X0224486Y0460786D01*
X0224623Y0460694D01*
Y0443647D01*
X0224728Y0443120D01*
X0225027Y0442674D01*
X0229713Y0437987D01*
X0229706Y0437969D01*
X0229611Y0437247D01*
X0229706Y0436525D01*
X0229984Y0435853D01*
X0230428Y0435275D01*
X0231005Y0434832D01*
X0231678Y0434553D01*
X0232400Y0434458D01*
X0233122Y0434553D01*
X0233795Y0434832D01*
X0234372Y0435275D01*
X0234816Y0435853D01*
X0235094Y0436525D01*
X0235189Y0437247D01*
X0235094Y0437969D01*
X0234816Y0438642D01*
X0234372Y0439220D01*
X0233795Y0439663D01*
Y0440737D01*
X0234372Y0441181D01*
X0234524Y0441378D01*
X0234845Y0441486D01*
X0235585Y0441505D01*
X0235768Y0441445D01*
X0238551Y0438663D01*
X0238459Y0438200D01*
X0238622Y0437381D01*
X0239086Y0436686D01*
X0239781Y0436222D01*
X0240600Y0436059D01*
X0241419Y0436222D01*
X0242114Y0436686D01*
X0242578Y0437381D01*
X0242741Y0438200D01*
X0242578Y0439019D01*
X0242405Y0439278D01*
X0242932Y0440278D01*
X0244624D01*
X0244886Y0439886D01*
X0245581Y0439422D01*
X0246400Y0439259D01*
X0247219Y0439422D01*
X0247914Y0439886D01*
X0248378Y0440581D01*
X0248541Y0441400D01*
X0248378Y0442219D01*
X0247914Y0442914D01*
X0247219Y0443378D01*
X0246400Y0443541D01*
X0245581Y0443378D01*
X0244886Y0442914D01*
X0244624Y0442522D01*
X0242983D01*
X0242538Y0443522D01*
X0242778Y0443881D01*
X0242941Y0444700D01*
X0242778Y0445519D01*
X0242314Y0446214D01*
X0241921Y0446476D01*
Y0447984D01*
X0242921Y0448082D01*
X0242922Y0448081D01*
X0243386Y0447386D01*
X0244081Y0446922D01*
X0244900Y0446759D01*
X0245719Y0446922D01*
X0246414Y0447386D01*
X0246878Y0448081D01*
X0247041Y0448900D01*
X0246949Y0449363D01*
X0249193Y0451607D01*
X0249193Y0451607D01*
X0249436Y0451971D01*
X0249522Y0452400D01*
X0249521Y0452400D01*
Y0473835D01*
X0256965Y0481278D01*
X0265824D01*
X0266086Y0480886D01*
X0266781Y0480422D01*
X0267100Y0480358D01*
Y0454787D01*
X0266800Y0454541D01*
X0265981Y0454378D01*
X0265286Y0453914D01*
X0264822Y0453219D01*
X0264659Y0452400D01*
X0264822Y0451581D01*
X0265286Y0450886D01*
X0265981Y0450422D01*
X0266509Y0450317D01*
X0266841Y0449406D01*
X0266846Y0449308D01*
X0265119Y0447581D01*
X0264710Y0446969D01*
X0264567Y0446247D01*
Y0431202D01*
X0261551Y0428186D01*
X0249632D01*
X0249419Y0428328D01*
X0248600Y0428491D01*
X0247781Y0428328D01*
X0247086Y0427864D01*
X0246622Y0427169D01*
X0246459Y0426350D01*
X0246622Y0425531D01*
X0247086Y0424836D01*
X0247781Y0424372D01*
X0248142Y0424300D01*
X0248043Y0423300D01*
X0205414D01*
Y0434510D01*
X0192624Y0447300D01*
X0159800D01*
X0158300Y0445800D01*
Y0443600D01*
X0161400Y0440500D01*
X0192600D01*
X0200600Y0432500D01*
Y0423300D01*
X0122200D01*
Y0533393D01*
X0127007Y0538200D01*
X0146386D01*
X0146769Y0537276D01*
X0144947Y0535454D01*
X0144593Y0534924D01*
X0144469Y0534300D01*
Y0490238D01*
X0144122Y0489719D01*
X0143959Y0488900D01*
X0144122Y0488081D01*
X0144586Y0487386D01*
X0145281Y0486922D01*
X0146100Y0486759D01*
X0146919Y0486922D01*
X0147614Y0487386D01*
X0148078Y0488081D01*
X0148241Y0488900D01*
X0148078Y0489719D01*
X0147731Y0490238D01*
Y0533624D01*
X0148807Y0534700D01*
X0149622Y0534119D01*
X0149459Y0533300D01*
X0149622Y0532481D01*
X0150086Y0531786D01*
X0150781Y0531322D01*
X0151600Y0531159D01*
X0168013D01*
X0170159Y0529013D01*
Y0524100D01*
X0170322Y0523281D01*
X0170786Y0522586D01*
X0171481Y0522122D01*
X0172300Y0521959D01*
X0173119Y0522122D01*
X0173259Y0522215D01*
X0174259Y0521680D01*
Y0501987D01*
X0158686Y0486414D01*
X0158222Y0485719D01*
X0158059Y0484900D01*
X0158222Y0484081D01*
X0158686Y0483386D01*
X0159381Y0482922D01*
X0160200Y0482759D01*
X0161019Y0482922D01*
X0161714Y0483386D01*
X0177914Y0499586D01*
X0178378Y0500281D01*
X0178541Y0501100D01*
Y0527313D01*
X0184414Y0533186D01*
X0184759Y0533702D01*
X0185618Y0533591D01*
X0185759Y0533536D01*
Y0528600D01*
X0185922Y0527781D01*
X0186386Y0527086D01*
X0187081Y0526622D01*
X0187900Y0526459D01*
X0188719Y0526622D01*
X0189414Y0527086D01*
X0189878Y0527781D01*
X0190041Y0528600D01*
Y0538200D01*
X0192893D01*
X0206769Y0524324D01*
Y0517138D01*
X0206422Y0516619D01*
X0206259Y0515800D01*
X0206422Y0514981D01*
X0206886Y0514286D01*
X0207581Y0513822D01*
X0208400Y0513659D01*
X0209219Y0513822D01*
X0209569Y0514055D01*
X0210569Y0513603D01*
Y0512376D01*
X0209193Y0511000D01*
X0208581Y0510878D01*
X0207886Y0510414D01*
X0207422Y0509719D01*
X0207259Y0508900D01*
X0207422Y0508081D01*
X0207886Y0507386D01*
X0208581Y0506922D01*
X0209400Y0506759D01*
X0210219Y0506922D01*
X0210226Y0506926D01*
X0210863Y0506149D01*
X0192035Y0487322D01*
X0179176D01*
X0178914Y0487714D01*
X0178219Y0488178D01*
X0177400Y0488341D01*
X0176581Y0488178D01*
X0175886Y0487714D01*
X0175422Y0487019D01*
X0175259Y0486200D01*
X0175422Y0485381D01*
X0175886Y0484686D01*
X0176581Y0484222D01*
X0177400Y0484059D01*
X0178219Y0484222D01*
X0178914Y0484686D01*
X0179176Y0485078D01*
X0184860D01*
X0185418Y0484126D01*
X0185414Y0484078D01*
X0185259Y0483300D01*
X0185422Y0482481D01*
X0185886Y0481786D01*
X0186581Y0481322D01*
X0187400Y0481159D01*
X0188219Y0481322D01*
X0188914Y0481786D01*
X0189378Y0482481D01*
X0189541Y0483300D01*
X0189565Y0483328D01*
X0214050D01*
X0214050Y0483328D01*
X0214479Y0483414D01*
X0214843Y0483657D01*
X0216393Y0485207D01*
X0216393Y0485207D01*
X0216636Y0485571D01*
X0216722Y0486000D01*
X0216722Y0486000D01*
Y0501768D01*
X0226393Y0511440D01*
X0226393Y0511440D01*
X0226636Y0511804D01*
X0226722Y0512233D01*
X0226722Y0512233D01*
Y0524600D01*
X0226636Y0525029D01*
X0226393Y0525393D01*
X0226393Y0525393D01*
X0214586Y0537200D01*
X0215000Y0538200D01*
X0232500D01*
X0240200Y0545900D01*
X0259700Y0545900D01*
D02*
G37*
G36*
X0120200Y0478242D02*
X0103700D01*
Y0487276D01*
X0115100D01*
X0115100Y0487276D01*
X0115220Y0487300D01*
X0120200D01*
Y0478242D01*
D02*
G37*
G36*
X0384484Y0591500D02*
X0384484Y0536784D01*
X0372719Y0525019D01*
X0363584Y0525019D01*
X0351100Y0512535D01*
Y0423606D01*
X0274200Y0423329D01*
X0273249Y0445302D01*
X0277273Y0449327D01*
X0277273Y0449327D01*
X0277572Y0449773D01*
X0277677Y0450300D01*
X0277677Y0450300D01*
Y0489794D01*
X0277692Y0489809D01*
X0279176Y0490458D01*
X0279381Y0490322D01*
X0279491Y0490300D01*
X0279535Y0490235D01*
X0294435Y0475335D01*
X0294832Y0475070D01*
X0295300Y0474976D01*
X0312192D01*
X0312386Y0474686D01*
X0313081Y0474222D01*
X0313900Y0474059D01*
X0314719Y0474222D01*
X0315414Y0474686D01*
X0315878Y0475381D01*
X0316041Y0476200D01*
X0315878Y0477019D01*
X0315414Y0477714D01*
X0314719Y0478178D01*
X0313900Y0478341D01*
X0313081Y0478178D01*
X0312386Y0477714D01*
X0312192Y0477423D01*
X0295807D01*
X0282007Y0491224D01*
X0282178Y0491481D01*
X0282341Y0492300D01*
X0282178Y0493119D01*
X0281714Y0493814D01*
X0281019Y0494278D01*
X0280200Y0494441D01*
X0279381Y0494278D01*
X0279176Y0494142D01*
X0277692Y0494791D01*
X0277677Y0494806D01*
Y0542000D01*
X0277677Y0542000D01*
X0277572Y0542527D01*
X0277273Y0542973D01*
X0263423Y0556823D01*
X0262977Y0557122D01*
X0262450Y0557227D01*
X0185606D01*
X0185079Y0557122D01*
X0184633Y0556823D01*
X0183213Y0555403D01*
X0139304D01*
X0121754Y0572954D01*
X0121224Y0573307D01*
X0120849Y0574000D01*
Y0581400D01*
X0120659Y0581859D01*
X0120200Y0582049D01*
X0103500D01*
X0102541Y0581942D01*
X0102541Y0581942D01*
X0096223D01*
Y0579331D01*
X0093270D01*
X0092646Y0579207D01*
X0092116Y0578853D01*
X0088946Y0575683D01*
X0088593Y0575154D01*
X0088469Y0574530D01*
Y0569470D01*
X0088308Y0569403D01*
X0087566Y0568834D01*
X0086997Y0568092D01*
X0086639Y0567228D01*
X0086517Y0566300D01*
X0086639Y0565373D01*
X0086997Y0564508D01*
X0087566Y0563766D01*
X0088308Y0563197D01*
X0089173Y0562839D01*
X0090100Y0562717D01*
X0091027Y0562839D01*
X0091892Y0563197D01*
X0092769Y0561997D01*
X0090591Y0559819D01*
X0090100Y0559883D01*
X0089173Y0559761D01*
X0088365Y0559427D01*
X0081735D01*
X0080927Y0559761D01*
X0080000Y0559883D01*
X0079073Y0559761D01*
X0078208Y0559403D01*
X0077466Y0558834D01*
X0076897Y0558092D01*
X0076539Y0557228D01*
X0076417Y0556300D01*
X0076493Y0555724D01*
X0075902Y0554752D01*
X0075382Y0554245D01*
X0072600Y0554300D01*
X0072600Y0591500D01*
X0384484Y0591500D01*
D02*
G37*
G36*
X0120200Y0428300D02*
X0103700D01*
Y0441613D01*
X0120200D01*
Y0428300D01*
D02*
G37*
G36*
X0425300Y0164000D02*
X0305100D01*
Y0176071D01*
X0305552Y0176258D01*
X0306112Y0176688D01*
X0306542Y0177248D01*
X0306812Y0177900D01*
X0306904Y0178600D01*
X0306812Y0179300D01*
X0306542Y0179952D01*
X0306424Y0180106D01*
Y0219494D01*
X0306542Y0219648D01*
X0306812Y0220300D01*
X0306904Y0221000D01*
X0306812Y0221700D01*
X0306542Y0222352D01*
X0306424Y0222506D01*
Y0263194D01*
X0306542Y0263348D01*
X0306812Y0264000D01*
X0306904Y0264700D01*
X0306812Y0265400D01*
X0306542Y0266052D01*
X0306424Y0266206D01*
Y0274200D01*
X0306424Y0274200D01*
X0306255Y0275051D01*
X0305772Y0275773D01*
X0305100Y0276445D01*
Y0278300D01*
X0425300D01*
Y0164000D01*
D02*
G37*
G36*
X0152500Y0226700D02*
X0142600D01*
X0141620Y0226652D01*
X0139697Y0226269D01*
X0137886Y0225519D01*
X0136256Y0224430D01*
X0134870Y0223044D01*
X0133781Y0221414D01*
X0133031Y0219603D01*
X0132648Y0217680D01*
X0132600Y0216700D01*
Y0157900D01*
X0074400D01*
Y0288300D01*
X0152500D01*
Y0226700D01*
D02*
G37*
G36*
X0298126Y0277129D02*
Y0156300D01*
X0178526D01*
Y0204792D01*
X0178612Y0205000D01*
X0178704Y0205700D01*
X0178612Y0206400D01*
X0178526Y0206608D01*
Y0247892D01*
X0178612Y0248100D01*
X0178704Y0248800D01*
X0178612Y0249500D01*
X0178526Y0249708D01*
Y0281200D01*
X0294055D01*
X0298126Y0277129D01*
D02*
G37*
G36*
X0425400Y0556100D02*
X0425400Y0422800D01*
X0370300Y0422800D01*
Y0510500D01*
X0382600Y0510500D01*
X0396500Y0524400D01*
X0407600Y0535500D01*
X0407600Y0556100D01*
X0425400Y0556100D01*
D02*
G37*
G36*
X0193400Y0291600D02*
X0074400D01*
Y0420700D01*
X0193400D01*
Y0291600D01*
D02*
G37*
G36*
X0425300Y0420700D02*
X0425300Y0291500D01*
X0289786Y0291500D01*
X0289519Y0291678D01*
X0288700Y0291841D01*
X0287881Y0291678D01*
X0287614Y0291500D01*
X0211500Y0291500D01*
X0211500Y0420700D01*
X0425300Y0420700D01*
D02*
G37*
G36*
X0117100Y0501859D02*
X0103700D01*
Y0512463D01*
X0117100D01*
Y0501859D01*
D02*
G37*
G36*
X0125100Y0548100D02*
Y0545707D01*
X0117424Y0538031D01*
X0104000D01*
X0103500Y0538442D01*
X0103500Y0548100D01*
X0125100Y0548100D01*
D02*
G37*
G36*
X0117200Y0525475D02*
X0105300D01*
Y0534275D01*
X0117200D01*
Y0525475D01*
D02*
G37*
G36*
X0104839Y0524363D02*
X0105300Y0524271D01*
X0117100D01*
Y0513667D01*
X0103700D01*
Y0524400D01*
X0104783D01*
X0104839Y0524363D01*
D02*
G37*
G36*
X0117100Y0494645D02*
X0114179Y0491724D01*
X0103700D01*
Y0500150D01*
X0117100D01*
Y0494645D01*
D02*
G37*
G36*
X0128969Y0561124D02*
X0128586Y0560200D01*
X0103500Y0560200D01*
X0103500Y0569700D01*
X0120393Y0569700D01*
X0128969Y0561124D01*
D02*
G37*
G36*
X0131600Y0558493D02*
X0131600Y0552012D01*
X0131576Y0552007D01*
X0131046Y0551653D01*
X0128485Y0549092D01*
X0103500Y0549092D01*
X0103500Y0559200D01*
X0130893Y0559200D01*
X0131600Y0558493D01*
D02*
G37*
%LPC*%
G36*
X0080000Y0569883D02*
X0079073Y0569761D01*
X0078208Y0569403D01*
X0077466Y0568834D01*
X0076897Y0568092D01*
X0076539Y0567228D01*
X0076417Y0566300D01*
X0076539Y0565373D01*
X0076897Y0564508D01*
X0077466Y0563766D01*
X0078208Y0563197D01*
X0079073Y0562839D01*
X0080000Y0562717D01*
X0080927Y0562839D01*
X0081792Y0563197D01*
X0082534Y0563766D01*
X0083103Y0564508D01*
X0083461Y0565373D01*
X0083583Y0566300D01*
X0083461Y0567228D01*
X0083103Y0568092D01*
X0082534Y0568834D01*
X0081792Y0569403D01*
X0080927Y0569761D01*
X0080000Y0569883D01*
D02*
G37*
G36*
X0341000Y0542041D02*
X0315600D01*
X0314781Y0541878D01*
X0314086Y0541414D01*
X0313622Y0540719D01*
X0313459Y0539900D01*
X0313622Y0539081D01*
X0314086Y0538386D01*
X0314781Y0537922D01*
X0315600Y0537759D01*
X0340113D01*
X0340186Y0537686D01*
X0340881Y0537222D01*
X0341700Y0537059D01*
X0342519Y0537222D01*
X0343214Y0537686D01*
X0343678Y0538381D01*
X0343841Y0539200D01*
X0343678Y0540019D01*
X0343214Y0540714D01*
X0342514Y0541414D01*
X0341819Y0541878D01*
X0341000Y0542041D01*
D02*
G37*
G36*
X0316000Y0510241D02*
X0315181Y0510078D01*
X0314486Y0509614D01*
X0314022Y0508919D01*
X0313859Y0508100D01*
X0314022Y0507281D01*
X0314486Y0506586D01*
X0314879Y0506324D01*
Y0502800D01*
X0314878Y0502800D01*
X0314964Y0502371D01*
X0315207Y0502007D01*
X0317707Y0499507D01*
X0317707Y0499507D01*
X0318071Y0499264D01*
X0318500Y0499178D01*
X0327424D01*
X0327686Y0498786D01*
X0328381Y0498322D01*
X0329200Y0498159D01*
X0330019Y0498322D01*
X0330714Y0498786D01*
X0331178Y0499481D01*
X0331341Y0500300D01*
X0331178Y0501119D01*
X0330714Y0501814D01*
X0330614Y0502986D01*
X0331078Y0503681D01*
X0331241Y0504500D01*
X0331078Y0505319D01*
X0330614Y0506014D01*
X0329919Y0506478D01*
X0329100Y0506641D01*
X0328281Y0506478D01*
X0327586Y0506014D01*
X0327358Y0505673D01*
X0320942D01*
X0320714Y0506014D01*
X0320019Y0506478D01*
X0319262Y0506629D01*
X0319173Y0506674D01*
X0318112Y0507954D01*
X0318141Y0508100D01*
X0317978Y0508919D01*
X0317514Y0509614D01*
X0316819Y0510078D01*
X0316000Y0510241D01*
D02*
G37*
G36*
X0302753Y0463953D02*
X0295647D01*
Y0456847D01*
X0302753D01*
Y0463953D01*
D02*
G37*
G36*
X0306000Y0518783D02*
X0305073Y0518661D01*
X0304208Y0518303D01*
X0303466Y0517734D01*
X0302897Y0516992D01*
X0302539Y0516127D01*
X0302417Y0515200D01*
X0302539Y0514272D01*
X0302897Y0513408D01*
X0303466Y0512666D01*
X0304208Y0512097D01*
X0305073Y0511739D01*
X0306000Y0511617D01*
X0306927Y0511739D01*
X0307792Y0512097D01*
X0308534Y0512666D01*
X0309103Y0513408D01*
X0309461Y0514272D01*
X0309583Y0515200D01*
X0309461Y0516127D01*
X0309103Y0516992D01*
X0308534Y0517734D01*
X0307792Y0518303D01*
X0306927Y0518661D01*
X0306000Y0518783D01*
D02*
G37*
G36*
X0291600Y0521441D02*
X0290781Y0521278D01*
X0290086Y0520814D01*
X0289677Y0520201D01*
X0289622Y0520119D01*
X0289622Y0520119D01*
X0289459Y0519300D01*
X0288038Y0518753D01*
X0282447D01*
Y0511647D01*
X0284624D01*
Y0500900D01*
X0284728Y0500373D01*
X0285027Y0499927D01*
X0295327Y0489627D01*
X0295773Y0489328D01*
X0296300Y0489223D01*
X0300594D01*
X0300686Y0489086D01*
X0301381Y0488622D01*
X0302200Y0488459D01*
X0303019Y0488622D01*
X0303714Y0489086D01*
X0304178Y0489781D01*
X0304341Y0490600D01*
X0304178Y0491419D01*
X0303714Y0492114D01*
X0303019Y0492578D01*
X0302200Y0492741D01*
X0301381Y0492578D01*
X0300686Y0492114D01*
X0300594Y0491976D01*
X0296870D01*
X0287376Y0501470D01*
Y0511647D01*
X0289553Y0511647D01*
X0290478Y0510531D01*
Y0506376D01*
X0290086Y0506114D01*
X0289622Y0505419D01*
X0289459Y0504600D01*
X0289622Y0503781D01*
X0290086Y0503086D01*
X0290781Y0502622D01*
X0291600Y0502459D01*
X0292419Y0502622D01*
X0293114Y0503086D01*
X0293578Y0503781D01*
X0293741Y0504600D01*
X0293578Y0505419D01*
X0293114Y0506114D01*
X0292722Y0506376D01*
Y0511347D01*
X0294208Y0512097D01*
X0295073Y0511739D01*
X0296000Y0511617D01*
X0296927Y0511739D01*
X0297792Y0512097D01*
X0298534Y0512666D01*
X0299103Y0513408D01*
X0299461Y0514272D01*
X0299583Y0515200D01*
X0299461Y0516127D01*
X0299103Y0516992D01*
X0298534Y0517734D01*
X0297792Y0518303D01*
X0296927Y0518661D01*
X0296000Y0518783D01*
X0295073Y0518661D01*
X0294875Y0518756D01*
X0293661Y0519700D01*
X0293578Y0520119D01*
X0293114Y0520814D01*
X0292419Y0521278D01*
X0291600Y0521441D01*
D02*
G37*
G36*
X0414920Y0438900D02*
X0411400D01*
Y0435380D01*
X0411958Y0435453D01*
X0412943Y0435861D01*
X0413789Y0436511D01*
X0414439Y0437357D01*
X0414847Y0438342D01*
X0414920Y0438900D01*
D02*
G37*
G36*
X0410400D02*
X0406880D01*
X0406953Y0438342D01*
X0407361Y0437357D01*
X0408011Y0436511D01*
X0408857Y0435861D01*
X0409842Y0435453D01*
X0410400Y0435380D01*
Y0438900D01*
D02*
G37*
G36*
X0413768Y0433067D02*
X0408032D01*
X0407726Y0433006D01*
X0407467Y0432833D01*
X0407294Y0432574D01*
X0407233Y0432268D01*
Y0426532D01*
X0407294Y0426226D01*
X0407467Y0425967D01*
X0407726Y0425794D01*
X0408032Y0425734D01*
X0413768D01*
X0414074Y0425794D01*
X0414333Y0425967D01*
X0414506Y0426226D01*
X0414567Y0426532D01*
Y0432268D01*
X0414506Y0432574D01*
X0414333Y0432833D01*
X0414074Y0433006D01*
X0413768Y0433067D01*
D02*
G37*
G36*
Y0476966D02*
X0408032D01*
X0407726Y0476906D01*
X0407467Y0476733D01*
X0407294Y0476474D01*
X0407233Y0476168D01*
Y0470432D01*
X0407294Y0470126D01*
X0407467Y0469867D01*
X0407726Y0469694D01*
X0408032Y0469633D01*
X0413768D01*
X0414074Y0469694D01*
X0414333Y0469867D01*
X0414506Y0470126D01*
X0414567Y0470432D01*
Y0476168D01*
X0414506Y0476474D01*
X0414333Y0476733D01*
X0414074Y0476906D01*
X0413768Y0476966D01*
D02*
G37*
G36*
X0410900Y0465033D02*
X0409947Y0464907D01*
X0409059Y0464539D01*
X0408296Y0463954D01*
X0407711Y0463191D01*
X0407343Y0462303D01*
X0407217Y0461350D01*
X0407343Y0460397D01*
X0407711Y0459509D01*
X0408296Y0458746D01*
X0409059Y0458161D01*
X0409947Y0457793D01*
X0410900Y0457667D01*
X0411853Y0457793D01*
X0412741Y0458161D01*
X0413504Y0458746D01*
X0414089Y0459509D01*
X0414457Y0460397D01*
X0414583Y0461350D01*
X0414457Y0462303D01*
X0414089Y0463191D01*
X0413504Y0463954D01*
X0412741Y0464539D01*
X0411853Y0464907D01*
X0410900Y0465033D01*
D02*
G37*
G36*
X0397700Y0492841D02*
X0396881Y0492678D01*
X0396186Y0492214D01*
X0395722Y0491519D01*
X0395600Y0490907D01*
X0392124Y0487431D01*
X0383338D01*
X0382819Y0487778D01*
X0382000Y0487941D01*
X0381181Y0487778D01*
X0380486Y0487314D01*
X0380022Y0486619D01*
X0379859Y0485800D01*
X0380022Y0484981D01*
X0380486Y0484286D01*
X0381181Y0483822D01*
X0382000Y0483659D01*
X0382819Y0483822D01*
X0383338Y0484169D01*
X0392800D01*
X0393424Y0484293D01*
X0393953Y0484647D01*
X0397907Y0488600D01*
X0398519Y0488722D01*
X0399214Y0489186D01*
X0399678Y0489881D01*
X0399841Y0490700D01*
X0399678Y0491519D01*
X0399214Y0492214D01*
X0398519Y0492678D01*
X0397700Y0492841D01*
D02*
G37*
G36*
X0410900Y0486983D02*
X0409947Y0486857D01*
X0409059Y0486489D01*
X0408296Y0485904D01*
X0407711Y0485141D01*
X0407343Y0484253D01*
X0407217Y0483300D01*
X0407343Y0482347D01*
X0407711Y0481459D01*
X0408296Y0480696D01*
X0409059Y0480111D01*
X0409947Y0479743D01*
X0410900Y0479617D01*
X0411853Y0479743D01*
X0412741Y0480111D01*
X0413504Y0480696D01*
X0414089Y0481459D01*
X0414457Y0482347D01*
X0414583Y0483300D01*
X0414457Y0484253D01*
X0414089Y0485141D01*
X0413504Y0485904D01*
X0412741Y0486489D01*
X0411853Y0486857D01*
X0410900Y0486983D01*
D02*
G37*
G36*
X0411400Y0443420D02*
Y0439900D01*
X0414920D01*
X0414847Y0440458D01*
X0414439Y0441443D01*
X0413789Y0442289D01*
X0412943Y0442939D01*
X0411958Y0443347D01*
X0411400Y0443420D01*
D02*
G37*
G36*
X0410400D02*
X0409842Y0443347D01*
X0408857Y0442939D01*
X0408011Y0442289D01*
X0407361Y0441443D01*
X0406953Y0440458D01*
X0406880Y0439900D01*
X0410400D01*
Y0443420D01*
D02*
G37*
G36*
X0413768Y0455017D02*
X0408032D01*
X0407726Y0454956D01*
X0407467Y0454783D01*
X0407294Y0454524D01*
X0407233Y0454218D01*
Y0448482D01*
X0407294Y0448176D01*
X0407467Y0447917D01*
X0407726Y0447744D01*
X0408032Y0447683D01*
X0413768D01*
X0414074Y0447744D01*
X0414333Y0447917D01*
X0414506Y0448176D01*
X0414567Y0448482D01*
Y0454218D01*
X0414506Y0454524D01*
X0414333Y0454783D01*
X0414074Y0454956D01*
X0413768Y0455017D01*
D02*
G37*
G36*
X0279300Y0344141D02*
X0278481Y0343978D01*
X0277786Y0343514D01*
X0277322Y0342819D01*
X0277290Y0342657D01*
X0274319Y0339686D01*
X0260200D01*
X0259478Y0339543D01*
X0258866Y0339134D01*
X0254943Y0335210D01*
X0254781Y0335178D01*
X0254086Y0334714D01*
X0253622Y0334019D01*
X0253459Y0333200D01*
X0253622Y0332381D01*
X0254086Y0331686D01*
X0254781Y0331222D01*
X0255600Y0331059D01*
X0256419Y0331222D01*
X0257114Y0331686D01*
X0257578Y0332381D01*
X0257610Y0332543D01*
X0258594Y0333526D01*
X0259679Y0333197D01*
X0259722Y0332981D01*
X0260186Y0332286D01*
X0260881Y0331822D01*
X0261700Y0331659D01*
X0262519Y0331822D01*
X0263214Y0332286D01*
X0263306Y0332423D01*
X0280279D01*
X0280881Y0332022D01*
X0281700Y0331859D01*
X0282519Y0332022D01*
X0283214Y0332486D01*
X0283678Y0333181D01*
X0283841Y0334000D01*
X0283678Y0334819D01*
X0283214Y0335514D01*
X0282519Y0335978D01*
X0281700Y0336141D01*
X0280881Y0335978D01*
X0280186Y0335514D01*
X0279960Y0335176D01*
X0276166D01*
X0276111Y0335319D01*
X0276000Y0336176D01*
X0276434Y0336466D01*
X0279957Y0339990D01*
X0280119Y0340022D01*
X0280814Y0340486D01*
X0281278Y0341181D01*
X0281441Y0342000D01*
X0281278Y0342819D01*
X0280814Y0343514D01*
X0280119Y0343978D01*
X0279300Y0344141D01*
D02*
G37*
%LPD*%
G54D29*
X0099382Y0577700D02*
D03*
X0110800D02*
D03*
X0099382Y0565892D02*
D03*
X0110800D02*
D03*
X0099382Y0554083D02*
D03*
X0110800D02*
D03*
X0099382Y0542275D02*
D03*
X0110800D02*
D03*
X0099382Y0530467D02*
D03*
X0110800D02*
D03*
X0099382Y0518658D02*
D03*
X0110800D02*
D03*
X0099382Y0506850D02*
D03*
X0110800D02*
D03*
X0099382Y0496342D02*
D03*
X0110800D02*
D03*
X0099382Y0483233D02*
D03*
X0110800D02*
D03*
X0099382Y0471425D02*
D03*
X0110800D02*
D03*
X0099382Y0459617D02*
D03*
X0110800D02*
D03*
X0099382Y0447808D02*
D03*
X0110800D02*
D03*
X0099382Y0436000D02*
D03*
X0110800D02*
D03*
G54D49*
X0180700Y0465200D02*
Y0466900D01*
X0214050Y0484450D02*
X0215600Y0486000D01*
X0188550Y0484450D02*
X0214050D01*
X0187400Y0483300D02*
X0188550Y0484450D01*
X0219800Y0523700D02*
X0221350Y0522150D01*
X0203700Y0408100D02*
Y0433800D01*
X0193337Y0441900D02*
X0202100Y0433137D01*
X0225600Y0512233D02*
Y0524600D01*
X0212000Y0538200D02*
X0225600Y0524600D01*
X0318500Y0500300D02*
X0329200D01*
X0163200Y0441900D02*
X0193337D01*
X0192900Y0444600D02*
X0203700Y0433800D01*
X0177000Y0444600D02*
X0192900D01*
X0160500D02*
X0163200Y0441900D01*
X0203700Y0408100D02*
X0205100Y0406700D01*
X0202100Y0408000D02*
Y0433137D01*
X0200900Y0406800D02*
X0202100Y0408000D01*
X0215600Y0486000D02*
Y0502233D01*
X0225600Y0512233D01*
X0316000Y0502800D02*
Y0508100D01*
Y0502800D02*
X0318500Y0500300D01*
X0291600Y0505800D02*
Y0519300D01*
X0266800Y0452400D02*
X0271350Y0456950D01*
X0255100Y0489400D02*
X0266200D01*
X0267100Y0490300D01*
X0245700Y0480000D02*
X0255100Y0489400D01*
X0244100Y0473900D02*
Y0480663D01*
X0255400Y0491963D01*
Y0492400D01*
X0242500Y0483100D02*
X0251500Y0492100D01*
X0255400Y0492400D02*
X0257600Y0494600D01*
X0253400Y0521500D02*
X0257600Y0517300D01*
Y0494600D02*
Y0517300D01*
X0240800Y0450800D02*
X0245100Y0455100D01*
X0244900Y0448900D02*
X0248400Y0452400D01*
X0240800Y0443800D02*
Y0444700D01*
Y0450800D01*
X0240200Y0441400D02*
X0246400D01*
X0237900Y0443700D02*
X0240200Y0441400D01*
X0236300Y0442500D02*
X0240600Y0438200D01*
X0177400Y0485800D02*
Y0486200D01*
X0260247Y0548653D02*
X0271350Y0537550D01*
Y0456950D02*
Y0537550D01*
X0229700Y0548653D02*
X0260247D01*
X0177400Y0486200D02*
X0192500D01*
X0221350Y0515050D01*
Y0522150D01*
X0236300Y0442500D02*
Y0456900D01*
X0228000Y0465200D02*
X0236300Y0456900D01*
X0237900Y0443700D02*
Y0458100D01*
X0245700Y0472800D02*
Y0480000D01*
X0242500Y0474563D02*
Y0483100D01*
X0239537Y0471600D02*
X0242500Y0474563D01*
X0185500Y0467000D02*
X0186300Y0467800D01*
X0241300Y0468400D02*
X0245700Y0472800D01*
X0180700Y0466900D02*
X0183600Y0469800D01*
X0229200Y0466800D02*
X0237900Y0458100D01*
X0186300Y0467800D02*
X0192600D01*
X0183600Y0469800D02*
X0192863D01*
X0240200Y0470000D02*
X0244100Y0473900D01*
X0185200Y0474900D02*
X0188700Y0471400D01*
X0194000D01*
X0191700Y0473000D02*
X0194663D01*
X0189800Y0474900D02*
X0191700Y0473000D01*
X0256500Y0482400D02*
X0267600D01*
X0248400Y0452400D02*
Y0474300D01*
X0256500Y0482400D01*
X0192600Y0467800D02*
X0193600Y0466800D01*
X0192863Y0469800D02*
X0194263Y0468400D01*
X0194663Y0473000D02*
X0196063Y0471600D01*
X0239537D01*
X0194000Y0471400D02*
X0195400Y0470000D01*
X0240200D01*
X0194263Y0468400D02*
X0241300D01*
X0193600Y0466800D02*
X0229200D01*
X0189200Y0465200D02*
X0228000D01*
X0559400Y0039400D02*
Y0059683D01*
X0440500Y0040050D02*
X0700200D01*
Y0101050D01*
X0286500Y0040050D02*
Y0101050D01*
X0040000Y0040050D02*
Y0101050D01*
X0040050Y0040050D02*
X0197600D01*
X0040050D02*
Y0101050D01*
Y0101050D02*
X0700200D01*
X0040000Y0040050D02*
X0440500D01*
X0040000Y0060383D02*
X0700000D01*
X0040000Y0080717D02*
X0700200D01*
X0413200D02*
Y0101050D01*
X0497200Y0080717D02*
Y0101050D01*
G54D50*
X0288700Y0289700D02*
X0304200Y0274200D01*
Y0264700D02*
Y0274200D01*
X0176000Y0205700D02*
Y0248800D01*
X0304200Y0178600D02*
Y0221000D01*
Y0264700D01*
X0392800Y0485800D02*
X0397700Y0490700D01*
X0382000Y0485800D02*
X0392800D01*
X0118100Y0536400D02*
X0132200Y0550500D01*
X0128700Y0542200D02*
X0180600D01*
X0146100Y0534300D02*
X0150600Y0538800D01*
X0146100Y0488900D02*
Y0534300D01*
X0119400Y0532900D02*
X0128700Y0542200D01*
X0119400Y0493800D02*
Y0532900D01*
X0115100Y0489500D02*
X0119400Y0493800D01*
X0090100Y0486300D02*
X0096200D01*
X0099400Y0489500D01*
X0115100D01*
X0132200Y0550500D02*
X0182900D01*
X0208400Y0525000D01*
Y0515800D02*
Y0525000D01*
X0174800Y0283400D02*
X0176000Y0282200D01*
Y0248800D02*
Y0282200D01*
X0090100Y0566300D02*
X0095600Y0571800D01*
X0090100Y0566300D02*
Y0574530D01*
X0093270Y0577700D01*
X0099382D01*
X0212200Y0511700D02*
Y0525100D01*
X0209400Y0508900D02*
X0212200Y0511700D01*
X0150600Y0538800D02*
X0150800Y0539000D01*
X0172300D01*
X0099382Y0530467D02*
Y0531782D01*
X0104000Y0536400D01*
X0118100D01*
X0183528Y0553772D02*
X0212200Y0525100D01*
X0095600Y0571800D02*
X0120600D01*
X0138628Y0553772D01*
X0183528D01*
G54D51*
X0090100Y0476300D02*
X0093200D01*
X0098075Y0471425D01*
X0090100Y0466300D02*
X0092699D01*
X0099382Y0459617D01*
X0096315Y0486300D02*
X0099382Y0483233D01*
X0096200Y0486300D02*
X0096315D01*
G54D52*
X0248400Y0478100D02*
X0256900Y0486600D01*
X0268100D01*
G54D53*
X0281500Y0333800D02*
X0281700Y0334000D01*
X0261700Y0333800D02*
X0281500D01*
X0226000Y0443647D02*
X0232400Y0437247D01*
X0179075Y0542200D02*
X0180600D01*
X0098729Y0472079D02*
X0099382Y0471425D01*
X0099228Y0565737D02*
X0099382Y0565892D01*
X0098633Y0553334D02*
X0099382Y0554083D01*
X0098324Y0518658D02*
X0099382D01*
X0090063Y0506278D02*
X0098810D01*
X0098124Y0496300D02*
X0099382Y0495042D01*
X0209400Y0533700D02*
X0213884D01*
X0223750Y0523834D01*
Y0513200D02*
Y0523834D01*
X0212800Y0502250D02*
X0223750Y0513200D01*
X0212800Y0487500D02*
Y0502250D01*
X0269900Y0443900D02*
X0276300Y0450300D01*
Y0542000D01*
X0262450Y0555850D02*
X0276300Y0542000D01*
X0185606Y0555850D02*
X0262450D01*
X0183528Y0553772D02*
X0185606Y0555850D01*
X0226000Y0443647D02*
Y0462300D01*
X0286000Y0500900D02*
Y0515200D01*
Y0500900D02*
X0296300Y0490600D01*
X0302200D01*
G54D54*
X0090100Y0446300D02*
X0099382Y0437018D01*
Y0436000D02*
Y0437018D01*
Y0565582D02*
Y0565892D01*
X0090100Y0556300D02*
X0099382Y0565582D01*
X0151600Y0533300D02*
X0168900D01*
X0172300Y0529900D01*
Y0524100D02*
Y0529900D01*
X0157400Y0546100D02*
X0182423D01*
X0187900Y0540623D01*
Y0528600D02*
Y0540623D01*
X0160200Y0484900D02*
X0176400Y0501100D01*
Y0528200D01*
X0182900Y0534700D01*
X0315600Y0539900D02*
X0341000D01*
X0341700Y0539200D01*
G54D55*
X0263200Y0523600D02*
X0264350Y0522450D01*
X0263400Y0521500D02*
X0268700Y0516200D01*
Y0500200D02*
Y0516200D01*
X0265800Y0497559D02*
Y0509100D01*
X0263400Y0511500D02*
X0265800Y0509100D01*
Y0497559D02*
X0267200Y0496159D01*
X0280400Y0491100D02*
X0295300Y0476200D01*
X0313900D01*
X0212221Y0516379D02*
X0218400D01*
X0253400Y0511500D02*
X0255900Y0509000D01*
Y0496718D02*
Y0509000D01*
X0251500Y0492318D02*
X0255900Y0496718D01*
X0251500Y0492100D02*
Y0492318D01*
X0224000Y0548653D02*
Y0548836D01*
X0204400Y0551400D02*
X0205300Y0552300D01*
X0220536D01*
X0224000Y0548836D01*
G54D56*
X0319200Y0504500D02*
X0329100D01*
G54D57*
X0260200Y0337800D02*
X0275100D01*
X0255600Y0333200D02*
X0260200Y0337800D01*
X0275100D02*
X0279300Y0342000D01*
X0266453Y0446247D02*
X0273700Y0453494D01*
X0248600Y0426300D02*
Y0426350D01*
X0262333Y0426300D02*
X0266453Y0430420D01*
Y0446247D01*
X0248600Y0426300D02*
X0262333D01*
X0229700Y0536900D02*
Y0542747D01*
X0273700Y0453494D02*
Y0539700D01*
X0236500Y0553000D02*
X0260400D01*
X0273700Y0539700D01*
G54D58*
X0074300Y0431600D02*
Y0558900D01*
X0080800Y0425100D02*
X0125200D01*
X0074300Y0431600D02*
X0080800Y0425100D01*
G54D60*
X0080000Y0556300D02*
X0090100D01*
X0080000Y0536300D02*
X0090100D01*
X0080000Y0526300D02*
X0090100D01*
Y0546300D02*
X0097883Y0554083D01*
X0080000Y0546300D02*
X0090100D01*
Y0536300D02*
X0093407D01*
X0099382Y0542275D01*
X0090100Y0526300D02*
X0095216D01*
X0099382Y0530467D01*
X0090100Y0516300D02*
X0091400Y0517600D01*
X0098324D01*
X0080000Y0516300D02*
X0090100D01*
Y0506300D02*
X0098832D01*
X0080000D02*
X0090100D01*
X0080000Y0496300D02*
X0090100D01*
X0098124D01*
X0099341D01*
X0080000Y0486300D02*
X0090100D01*
X0080000Y0476300D02*
X0090100D01*
X0080000Y0466300D02*
X0090100D01*
X0080000Y0456300D02*
X0090100D01*
X0090891D01*
X0099382Y0447808D01*
X0080000Y0446300D02*
X0090100D01*
X0080000Y0436300D02*
X0090100D01*
G54D63*
X0126900Y0073549D02*
Y0067551D01*
X0129899D01*
X0130899Y0068550D01*
Y0069550D01*
X0129899Y0070550D01*
X0126900D01*
X0129899D01*
X0130899Y0071549D01*
Y0072549D01*
X0129899Y0073549D01*
X0126900D01*
X0133898Y0067551D02*
X0135897D01*
X0136897Y0068550D01*
Y0070550D01*
X0135897Y0071549D01*
X0133898D01*
X0132898Y0070550D01*
Y0068550D01*
X0133898Y0067551D01*
X0139896Y0072549D02*
Y0071549D01*
X0138896D01*
X0140895D01*
X0139896D01*
Y0068550D01*
X0140895Y0067551D01*
X0144894Y0072549D02*
Y0071549D01*
X0143895D01*
X0145894D01*
X0144894D01*
Y0068550D01*
X0145894Y0067551D01*
X0149893D02*
X0151892D01*
X0152892Y0068550D01*
Y0070550D01*
X0151892Y0071549D01*
X0149893D01*
X0148893Y0070550D01*
Y0068550D01*
X0149893Y0067551D01*
X0154891D02*
Y0071549D01*
X0155891D01*
X0156890Y0070550D01*
Y0067551D01*
Y0070550D01*
X0157890Y0071549D01*
X0158890Y0070550D01*
Y0067551D01*
X0166887Y0073549D02*
Y0067551D01*
X0170886D01*
X0173885Y0071549D02*
X0175884D01*
X0176884Y0070550D01*
Y0067551D01*
X0173885D01*
X0172885Y0068550D01*
X0173885Y0069550D01*
X0176884D01*
X0178883Y0071549D02*
Y0068550D01*
X0179883Y0067551D01*
X0182882D01*
Y0066551D01*
X0181882Y0065551D01*
X0180883D01*
X0182882Y0067551D02*
Y0071549D01*
X0187880Y0067551D02*
X0185881D01*
X0184881Y0068550D01*
Y0070550D01*
X0185881Y0071549D01*
X0187880D01*
X0188880Y0070550D01*
Y0069550D01*
X0184881D01*
X0190879Y0071549D02*
Y0067551D01*
Y0069550D01*
X0191879Y0070550D01*
X0192879Y0071549D01*
X0193878D01*
X0348550Y0073498D02*
X0352549D01*
X0350549D01*
Y0067500D01*
X0354548Y0073498D02*
X0356547D01*
X0355548D01*
Y0067500D01*
X0354548D01*
X0356547D01*
X0359546Y0073498D02*
Y0067500D01*
X0362545D01*
X0363545Y0068500D01*
Y0072498D01*
X0362545Y0073498D01*
X0359546D01*
X0365545Y0067500D02*
Y0071499D01*
X0367544Y0073498D01*
X0369543Y0071499D01*
Y0067500D01*
Y0070499D01*
X0365545D01*
X0371543D02*
X0375541D01*
X0377541Y0072498D02*
X0378540Y0073498D01*
X0380540D01*
X0381539Y0072498D01*
Y0068500D01*
X0380540Y0067500D01*
X0378540D01*
X0377541Y0068500D01*
Y0072498D01*
X0383539Y0067500D02*
X0385538D01*
X0384538D01*
Y0073498D01*
X0383539Y0072498D01*
X0388537D02*
X0389537Y0073498D01*
X0391536D01*
X0392536Y0072498D01*
Y0068500D01*
X0391536Y0067500D01*
X0389537D01*
X0388537Y0068500D01*
Y0072498D01*
X0394535D02*
X0395535Y0073498D01*
X0397534D01*
X0398534Y0072498D01*
Y0068500D01*
X0397534Y0067500D01*
X0395535D01*
X0394535Y0068500D01*
Y0072498D01*
X0400533D02*
X0401533Y0073498D01*
X0403532D01*
X0404532Y0072498D01*
Y0071499D01*
X0403532Y0070499D01*
X0402532D01*
X0403532D01*
X0404532Y0069499D01*
Y0068500D01*
X0403532Y0067500D01*
X0401533D01*
X0400533Y0068500D01*
X0406531Y0072498D02*
X0407531Y0073498D01*
X0409530D01*
X0410530Y0072498D01*
Y0068500D01*
X0409530Y0067500D01*
X0407531D01*
X0406531Y0068500D01*
Y0072498D01*
X0294000Y0073498D02*
X0297999D01*
X0295999D01*
Y0067500D01*
X0299998Y0073498D02*
X0301997D01*
X0300998D01*
Y0067500D01*
X0299998D01*
X0301997D01*
X0304996Y0073498D02*
Y0067500D01*
X0307996D01*
X0308995Y0068500D01*
Y0072498D01*
X0307996Y0073498D01*
X0304996D01*
X0317992Y0067500D02*
Y0073498D01*
X0319992D02*
Y0067500D01*
X0316993Y0071499D02*
X0319992D01*
X0320991D01*
X0316993Y0069499D02*
X0320991D01*
X0322991Y0071499D02*
X0323990D01*
Y0070499D01*
X0322991D01*
Y0071499D01*
Y0068500D02*
X0323990D01*
Y0067500D01*
X0322991D01*
Y0068500D01*
X0580500Y0052965D02*
X0584499D01*
X0582499D01*
Y0046966D01*
X0590497Y0052965D02*
X0586498D01*
Y0046966D01*
X0590497D01*
X0586498Y0049966D02*
X0588497D01*
X0592496Y0052965D02*
X0596495Y0046966D01*
Y0052965D02*
X0592496Y0046966D01*
X0598494D02*
Y0050965D01*
X0600493Y0052965D01*
X0602493Y0050965D01*
Y0046966D01*
Y0049966D01*
X0598494D01*
X0608491Y0051965D02*
X0607491Y0052965D01*
X0605492D01*
X0604492Y0051965D01*
Y0050965D01*
X0605492Y0049966D01*
X0607491D01*
X0608491Y0048966D01*
Y0047966D01*
X0607491Y0046966D01*
X0605492D01*
X0604492Y0047966D01*
X0616488Y0052965D02*
X0618488D01*
X0617488D01*
Y0046966D01*
X0616488D01*
X0618488D01*
X0621487D02*
Y0052965D01*
X0625486Y0046966D01*
Y0052965D01*
X0631484Y0051965D02*
X0630484Y0052965D01*
X0628484D01*
X0627485Y0051965D01*
Y0050965D01*
X0628484Y0049966D01*
X0630484D01*
X0631484Y0048966D01*
Y0047966D01*
X0630484Y0046966D01*
X0628484D01*
X0627485Y0047966D01*
X0633483Y0052965D02*
X0637482D01*
X0635482D01*
Y0046966D01*
X0639481D02*
Y0052965D01*
X0642480D01*
X0643480Y0051965D01*
Y0049966D01*
X0642480Y0048966D01*
X0639481D01*
X0641480D02*
X0643480Y0046966D01*
X0645479Y0052965D02*
Y0047966D01*
X0646479Y0046966D01*
X0648478D01*
X0649478Y0047966D01*
Y0052965D01*
X0651477Y0046966D02*
Y0052965D01*
X0653476Y0050965D01*
X0655476Y0052965D01*
Y0046966D01*
X0661474Y0052965D02*
X0657475D01*
Y0046966D01*
X0661474D01*
X0657475Y0049966D02*
X0659474D01*
X0663473Y0046966D02*
Y0052965D01*
X0667472Y0046966D01*
Y0052965D01*
X0669471D02*
X0673470D01*
X0671471D01*
Y0046966D01*
X0679468Y0051965D02*
X0678468Y0052965D01*
X0676469D01*
X0675469Y0051965D01*
Y0050965D01*
X0676469Y0049966D01*
X0678468D01*
X0679468Y0048966D01*
Y0047966D01*
X0678468Y0046966D01*
X0676469D01*
X0675469Y0047966D01*
X0454050Y0046966D02*
X0456049D01*
X0455050D01*
Y0052965D01*
X0454050Y0051965D01*
X0459048D02*
X0460048Y0052965D01*
X0462047D01*
X0463047Y0051965D01*
Y0047966D01*
X0462047Y0046966D01*
X0460048D01*
X0459048Y0047966D01*
Y0051965D01*
X0465046Y0050965D02*
X0466046D01*
Y0049966D01*
X0465046D01*
Y0050965D01*
Y0047966D02*
X0466046D01*
Y0046966D01*
X0465046D01*
Y0047966D01*
X0470045Y0046966D02*
X0472044D01*
X0471044D01*
Y0052965D01*
X0470045Y0051965D01*
X0475043D02*
X0476043Y0052965D01*
X0478042D01*
X0479042Y0051965D01*
Y0050965D01*
X0478042Y0049966D01*
X0477043D01*
X0478042D01*
X0479042Y0048966D01*
Y0047966D01*
X0478042Y0046966D01*
X0476043D01*
X0475043Y0047966D01*
X0481041Y0050965D02*
X0482041D01*
Y0049966D01*
X0481041D01*
Y0050965D01*
Y0047966D02*
X0482041D01*
Y0046966D01*
X0481041D01*
Y0047966D01*
X0490038Y0046966D02*
X0486040D01*
X0490038Y0050965D01*
Y0051965D01*
X0489039Y0052965D01*
X0487039D01*
X0486040Y0051965D01*
X0492038D02*
X0493037Y0052965D01*
X0495037D01*
X0496036Y0051965D01*
Y0047966D01*
X0495037Y0046966D01*
X0493037D01*
X0492038Y0047966D01*
Y0051965D01*
X0046350Y0046966D02*
Y0052965D01*
X0049349D01*
X0050349Y0051965D01*
Y0049966D01*
X0049349Y0048966D01*
X0046350D01*
X0052348Y0052965D02*
Y0046966D01*
X0056347D01*
X0061345Y0052965D02*
X0059346D01*
X0058346Y0051965D01*
Y0047966D01*
X0059346Y0046966D01*
X0061345D01*
X0062345Y0047966D01*
Y0051965D01*
X0061345Y0052965D01*
X0064344D02*
X0068343D01*
X0066343D01*
Y0046966D01*
X0076340D02*
Y0052965D01*
X0080339Y0046966D01*
Y0052965D01*
X0082338Y0046966D02*
Y0050965D01*
X0084338Y0052965D01*
X0086337Y0050965D01*
Y0046966D01*
Y0049966D01*
X0082338D01*
X0088336Y0046966D02*
Y0052965D01*
X0090336Y0050965D01*
X0092335Y0052965D01*
Y0046966D01*
X0098333Y0052965D02*
X0094335D01*
Y0046966D01*
X0098333D01*
X0094335Y0049966D02*
X0096334D01*
X0106331Y0048966D02*
X0110329D01*
X0106331Y0050965D02*
X0110329D01*
X0046350Y0073549D02*
Y0067551D01*
X0050349D01*
X0052348D02*
Y0071549D01*
X0054347Y0073549D01*
X0056347Y0071549D01*
Y0067551D01*
Y0070550D01*
X0052348D01*
X0058346Y0073549D02*
Y0072549D01*
X0060346Y0070550D01*
X0062345Y0072549D01*
Y0073549D01*
X0060346Y0070550D02*
Y0067551D01*
X0068343Y0073549D02*
X0064344D01*
Y0067551D01*
X0068343D01*
X0064344Y0070550D02*
X0066343D01*
X0070342Y0067551D02*
Y0073549D01*
X0073341D01*
X0074341Y0072549D01*
Y0070550D01*
X0073341Y0069550D01*
X0070342D01*
X0072342D02*
X0074341Y0067551D01*
X0082338D02*
Y0073549D01*
X0086337Y0067551D01*
Y0073549D01*
X0088336Y0067551D02*
Y0071549D01*
X0090336Y0073549D01*
X0092335Y0071549D01*
Y0067551D01*
Y0070550D01*
X0088336D01*
X0094335Y0067551D02*
Y0073549D01*
X0096334Y0071549D01*
X0098333Y0073549D01*
Y0067551D01*
X0104331Y0073549D02*
X0100332D01*
Y0067551D01*
X0104331D01*
X0100332Y0070550D02*
X0102332D01*
X0112329Y0069550D02*
X0116327D01*
X0112329Y0071549D02*
X0116327D01*
X0294000Y0093831D02*
Y0087833D01*
X0296999D01*
X0297999Y0088833D01*
Y0089833D01*
X0296999Y0090832D01*
X0294000D01*
X0296999D01*
X0297999Y0091832D01*
Y0092832D01*
X0296999Y0093831D01*
X0294000D01*
X0302997D02*
X0300998D01*
X0299998Y0092832D01*
Y0088833D01*
X0300998Y0087833D01*
X0302997D01*
X0303997Y0088833D01*
Y0092832D01*
X0302997Y0093831D01*
X0305996Y0087833D02*
Y0091832D01*
X0307996Y0093831D01*
X0309995Y0091832D01*
Y0087833D01*
Y0090832D01*
X0305996D01*
X0311994Y0087833D02*
Y0093831D01*
X0314993D01*
X0315993Y0092832D01*
Y0090832D01*
X0314993Y0089833D01*
X0311994D01*
X0313994D02*
X0315993Y0087833D01*
X0317992Y0093831D02*
Y0087833D01*
X0320991D01*
X0321991Y0088833D01*
Y0092832D01*
X0320991Y0093831D01*
X0317992D01*
X0330988Y0087833D02*
Y0093831D01*
X0332987D02*
Y0087833D01*
X0329988Y0091832D02*
X0332987D01*
X0333987D01*
X0329988Y0089833D02*
X0333987D01*
X0335986Y0091832D02*
X0336986D01*
Y0090832D01*
X0335986D01*
Y0091832D01*
Y0088833D02*
X0336986D01*
Y0087833D01*
X0335986D01*
Y0088833D01*
X0348550Y0093831D02*
X0352549D01*
X0350549D01*
Y0087833D01*
X0354548Y0093831D02*
X0356547D01*
X0355548D01*
Y0087833D01*
X0354548D01*
X0356547D01*
X0359546Y0093831D02*
Y0087833D01*
X0362545D01*
X0363545Y0088833D01*
Y0092832D01*
X0362545Y0093831D01*
X0359546D01*
X0365545Y0087833D02*
Y0091832D01*
X0367544Y0093831D01*
X0369543Y0091832D01*
Y0087833D01*
Y0090832D01*
X0365545D01*
X0371543D02*
X0375541D01*
X0377541Y0092832D02*
X0378540Y0093831D01*
X0380540D01*
X0381539Y0092832D01*
Y0088833D01*
X0380540Y0087833D01*
X0378540D01*
X0377541Y0088833D01*
Y0092832D01*
X0383539Y0087833D02*
X0385538D01*
X0384538D01*
Y0093831D01*
X0383539Y0092832D01*
X0388537D02*
X0389537Y0093831D01*
X0391536D01*
X0392536Y0092832D01*
Y0088833D01*
X0391536Y0087833D01*
X0389537D01*
X0388537Y0088833D01*
Y0092832D01*
X0394535D02*
X0395535Y0093831D01*
X0397534D01*
X0398534Y0092832D01*
Y0088833D01*
X0397534Y0087833D01*
X0395535D01*
X0394535Y0088833D01*
Y0092832D01*
X0400533D02*
X0401533Y0093831D01*
X0403532D01*
X0404532Y0092832D01*
Y0091832D01*
X0403532Y0090832D01*
X0402532D01*
X0403532D01*
X0404532Y0089833D01*
Y0088833D01*
X0403532Y0087833D01*
X0401533D01*
X0400533Y0088833D01*
X0406531Y0092832D02*
X0407531Y0093831D01*
X0409530D01*
X0410530Y0092832D01*
Y0088833D01*
X0409530Y0087833D01*
X0407531D01*
X0406531Y0088833D01*
Y0092832D01*
X0466149Y0093831D02*
X0462150D01*
Y0087833D01*
X0466149D01*
X0462150Y0090832D02*
X0464149D01*
X0468148Y0087833D02*
X0470147D01*
X0469148D01*
Y0093831D01*
X0468148Y0092832D01*
X0046350Y0087833D02*
Y0091832D01*
X0048349Y0093831D01*
X0050349Y0091832D01*
Y0087833D01*
Y0090832D01*
X0046350D01*
X0052348Y0093831D02*
Y0087833D01*
X0056347D01*
X0058346Y0093831D02*
Y0087833D01*
X0062345D01*
X0070342D02*
Y0091832D01*
X0072342Y0093831D01*
X0074341Y0091832D01*
Y0087833D01*
Y0090832D01*
X0070342D01*
X0076340Y0087833D02*
Y0093831D01*
X0079339D01*
X0080339Y0092832D01*
Y0090832D01*
X0079339Y0089833D01*
X0076340D01*
X0078340D02*
X0080339Y0087833D01*
X0082338Y0093831D02*
X0086337D01*
X0084338D01*
Y0087833D01*
X0088336Y0093831D02*
Y0087833D01*
X0090336Y0089833D01*
X0092335Y0087833D01*
Y0093831D01*
X0097334D02*
X0095334D01*
X0094335Y0092832D01*
Y0088833D01*
X0095334Y0087833D01*
X0097334D01*
X0098333Y0088833D01*
Y0092832D01*
X0097334Y0093831D01*
X0100332Y0087833D02*
Y0093831D01*
X0103332D01*
X0104331Y0092832D01*
Y0090832D01*
X0103332Y0089833D01*
X0100332D01*
X0102332D02*
X0104331Y0087833D01*
X0106331Y0093831D02*
Y0087833D01*
Y0089833D01*
X0110329Y0093831D01*
X0107330Y0090832D01*
X0110329Y0087833D01*
X0118327Y0093831D02*
Y0089833D01*
X0120326Y0087833D01*
X0122325Y0089833D01*
Y0093831D01*
X0124325D02*
X0126324D01*
X0125324D01*
Y0087833D01*
X0124325D01*
X0126324D01*
X0133322Y0093831D02*
X0129323D01*
Y0087833D01*
X0133322D01*
X0129323Y0090832D02*
X0131323D01*
X0135321Y0093831D02*
Y0087833D01*
X0137321Y0089833D01*
X0139320Y0087833D01*
Y0093831D01*
X0145318D02*
X0141319D01*
Y0087833D01*
X0145318D01*
X0141319Y0090832D02*
X0143319D01*
X0147317Y0093831D02*
Y0087833D01*
X0150316D01*
X0151316Y0088833D01*
Y0092832D01*
X0150316Y0093831D01*
X0147317D01*
X0163312D02*
X0159313D01*
Y0090832D01*
X0161313D01*
X0159313D01*
Y0087833D01*
X0165312D02*
Y0093831D01*
X0168310D01*
X0169310Y0092832D01*
Y0090832D01*
X0168310Y0089833D01*
X0165312D01*
X0167311D02*
X0169310Y0087833D01*
X0174309Y0093831D02*
X0172309D01*
X0171310Y0092832D01*
Y0088833D01*
X0172309Y0087833D01*
X0174309D01*
X0175308Y0088833D01*
Y0092832D01*
X0174309Y0093831D01*
X0177308Y0087833D02*
Y0093831D01*
X0179307Y0091832D01*
X0181306Y0093831D01*
Y0087833D01*
X0189304Y0093831D02*
X0193303D01*
X0191303D01*
Y0087833D01*
X0198301Y0093831D02*
X0196301D01*
X0195302Y0092832D01*
Y0088833D01*
X0196301Y0087833D01*
X0198301D01*
X0199301Y0088833D01*
Y0092832D01*
X0198301Y0093831D01*
X0201300Y0087833D02*
Y0093831D01*
X0204299D01*
X0205299Y0092832D01*
Y0090832D01*
X0204299Y0089833D01*
X0201300D01*
X0217295Y0092832D02*
X0216295Y0093831D01*
X0214296D01*
X0213296Y0092832D01*
Y0091832D01*
X0214296Y0090832D01*
X0216295D01*
X0217295Y0089833D01*
Y0088833D01*
X0216295Y0087833D01*
X0214296D01*
X0213296Y0088833D01*
X0219294Y0093831D02*
X0221293D01*
X0220294D01*
Y0087833D01*
X0219294D01*
X0221293D01*
X0224292Y0093831D02*
Y0087833D01*
X0227291D01*
X0228291Y0088833D01*
Y0092832D01*
X0227291Y0093831D01*
X0224292D01*
X0234289D02*
X0230291D01*
Y0087833D01*
X0234289D01*
X0230291Y0090832D02*
X0232290D01*
X0298199Y0051965D02*
X0297199Y0052965D01*
X0295200D01*
X0294200Y0051965D01*
Y0047966D01*
X0295200Y0046966D01*
X0297199D01*
X0298199Y0047966D01*
Y0049966D01*
X0296199D01*
X0304197Y0052965D02*
X0300198D01*
Y0046966D01*
X0304197D01*
X0300198Y0049966D02*
X0302197D01*
X0306196Y0046966D02*
Y0052965D01*
X0310195Y0046966D01*
Y0052965D01*
X0316193D02*
X0312194D01*
Y0046966D01*
X0316193D01*
X0312194Y0049966D02*
X0314194D01*
X0318192Y0046966D02*
Y0052965D01*
X0321191D01*
X0322191Y0051965D01*
Y0049966D01*
X0321191Y0048966D01*
X0318192D01*
X0320192D02*
X0322191Y0046966D01*
X0324190D02*
Y0050965D01*
X0326190Y0052965D01*
X0328189Y0050965D01*
Y0046966D01*
Y0049966D01*
X0324190D01*
X0330188Y0052965D02*
X0334187D01*
X0332188D01*
Y0046966D01*
X0340185Y0052965D02*
X0336186D01*
Y0046966D01*
X0340185D01*
X0336186Y0049966D02*
X0338186D01*
X0342184Y0052965D02*
Y0046966D01*
X0345183D01*
X0346183Y0047966D01*
Y0051965D01*
X0345183Y0052965D01*
X0342184D01*
X0372175Y0050965D02*
X0373175D01*
Y0049966D01*
X0372175D01*
Y0050965D01*
Y0047966D02*
X0373175D01*
Y0046966D01*
X0372175D01*
Y0047966D01*
X0385149Y0046966D02*
X0381150D01*
X0385149Y0050965D01*
Y0051965D01*
X0384149Y0052965D01*
X0382150D01*
X0381150Y0051965D01*
X0387148D02*
X0388148Y0052965D01*
X0390147D01*
X0391147Y0051965D01*
Y0047966D01*
X0390147Y0046966D01*
X0388148D01*
X0387148Y0047966D01*
Y0051965D01*
X0393146Y0046966D02*
X0395146D01*
X0394146D01*
Y0052965D01*
X0393146Y0051965D01*
X0398145Y0047966D02*
X0399144Y0046966D01*
X0401144D01*
X0402143Y0047966D01*
Y0051965D01*
X0401144Y0052965D01*
X0399144D01*
X0398145Y0051965D01*
Y0050965D01*
X0399144Y0049966D01*
X0402143D01*
X0404143Y0046966D02*
X0408141Y0050965D01*
X0414139Y0052965D02*
X0412140Y0051965D01*
X0410141Y0049966D01*
Y0047966D01*
X0411140Y0046966D01*
X0413140D01*
X0414139Y0047966D01*
Y0048966D01*
X0413140Y0049966D01*
X0410141D01*
X0416139Y0046966D02*
X0420137Y0050965D01*
X0422137Y0046966D02*
X0424136D01*
X0423136D01*
Y0052965D01*
X0422137Y0051965D01*
X0427135Y0052965D02*
X0431134D01*
Y0051965D01*
X0427135Y0047966D01*
Y0046966D01*
X0126900Y0052965D02*
X0130899D01*
X0128899D01*
Y0046966D01*
X0132898Y0052965D02*
X0134897D01*
X0133898D01*
Y0046966D01*
X0132898D01*
X0134897D01*
X0137896Y0052965D02*
Y0046966D01*
X0140895D01*
X0141895Y0047966D01*
Y0051965D01*
X0140895Y0052965D01*
X0137896D01*
X0143895Y0046966D02*
Y0050965D01*
X0145894Y0052965D01*
X0147893Y0050965D01*
Y0046966D01*
Y0049966D01*
X0143895D01*
X0149893D02*
X0153891D01*
X0155891Y0051965D02*
X0156890Y0052965D01*
X0158890D01*
X0159889Y0051965D01*
Y0047966D01*
X0158890Y0046966D01*
X0156890D01*
X0155891Y0047966D01*
Y0051965D01*
X0161889Y0046966D02*
X0163888D01*
X0162888D01*
Y0052965D01*
X0161889Y0051965D01*
X0166887D02*
X0167887Y0052965D01*
X0169886D01*
X0170886Y0051965D01*
Y0047966D01*
X0169886Y0046966D01*
X0167887D01*
X0166887Y0047966D01*
Y0051965D01*
X0172885D02*
X0173885Y0052965D01*
X0175884D01*
X0176884Y0051965D01*
Y0047966D01*
X0175884Y0046966D01*
X0173885D01*
X0172885Y0047966D01*
Y0051965D01*
X0178883D02*
X0179883Y0052965D01*
X0181882D01*
X0182882Y0051965D01*
Y0050965D01*
X0181882Y0049966D01*
X0180883D01*
X0181882D01*
X0182882Y0048966D01*
Y0047966D01*
X0181882Y0046966D01*
X0179883D01*
X0178883Y0047966D01*
X0184881Y0051965D02*
X0185881Y0052965D01*
X0187880D01*
X0188880Y0051965D01*
Y0047966D01*
X0187880Y0046966D01*
X0185881D01*
X0184881Y0047966D01*
Y0051965D01*
X0194878Y0052965D02*
X0190879D01*
Y0046966D01*
X0194878D01*
X0190879Y0049966D02*
X0192879D01*
X0196877Y0046966D02*
X0198877D01*
X0197877D01*
Y0052965D01*
X0196877Y0051965D01*
X0201876Y0046966D02*
Y0047966D01*
X0202875D01*
Y0046966D01*
X0201876D01*
X0210873Y0051965D02*
X0209873Y0052965D01*
X0207874D01*
X0206874Y0051965D01*
Y0047966D01*
X0207874Y0046966D01*
X0209873D01*
X0210873Y0047966D01*
Y0049966D01*
X0208874D01*
X0212872Y0052965D02*
Y0046966D01*
X0215871D01*
X0216871Y0047966D01*
Y0048966D01*
X0215871Y0049966D01*
X0212872D01*
X0215871D01*
X0216871Y0050965D01*
Y0051965D01*
X0215871Y0052965D01*
X0212872D01*
X0218870D02*
Y0046966D01*
X0222869D01*
X0433000Y0087833D02*
Y0093831D01*
X0435999D01*
X0436999Y0092832D01*
Y0090832D01*
X0435999Y0089833D01*
X0433000D01*
X0434999D02*
X0436999Y0087833D01*
X0442997Y0093831D02*
X0438998D01*
Y0087833D01*
X0442997D01*
X0438998Y0090832D02*
X0440997D01*
X0444996Y0093831D02*
Y0089833D01*
X0446995Y0087833D01*
X0448995Y0089833D01*
Y0093831D01*
X0450994Y0091832D02*
X0451994D01*
Y0090832D01*
X0450994D01*
Y0091832D01*
Y0088833D02*
X0451994D01*
Y0087833D01*
X0450994D01*
Y0088833D01*
X0520799Y0092832D02*
X0519799Y0093831D01*
X0517800D01*
X0516800Y0092832D01*
Y0091832D01*
X0517800Y0090832D01*
X0519799D01*
X0520799Y0089833D01*
Y0088833D01*
X0519799Y0087833D01*
X0517800D01*
X0516800Y0088833D01*
X0522798Y0093831D02*
Y0089833D01*
X0524797Y0087833D01*
X0526797Y0089833D01*
Y0093831D01*
X0528796Y0087833D02*
Y0093831D01*
X0532795Y0087833D01*
Y0093831D01*
X0540792Y0087833D02*
Y0093831D01*
X0543791D01*
X0544791Y0092832D01*
Y0090832D01*
X0543791Y0089833D01*
X0540792D01*
X0542792D02*
X0544791Y0087833D01*
X0550789Y0093831D02*
X0546790D01*
Y0087833D01*
X0550789D01*
X0546790Y0090832D02*
X0548790D01*
X0552788Y0093831D02*
Y0089833D01*
X0554788Y0087833D01*
X0556787Y0089833D01*
Y0093831D01*
X0558786Y0091832D02*
X0559786D01*
Y0090832D01*
X0558786D01*
Y0091832D01*
Y0088833D02*
X0559786D01*
Y0087833D01*
X0558786D01*
Y0088833D01*
X0567400Y0087833D02*
Y0093831D01*
X0571399Y0087833D01*
Y0093831D01*
X0574398Y0087833D02*
X0576397D01*
X0577397Y0088833D01*
Y0090832D01*
X0576397Y0091832D01*
X0574398D01*
X0573398Y0090832D01*
Y0088833D01*
X0574398Y0087833D01*
X0580396Y0092832D02*
Y0091832D01*
X0579396D01*
X0581395D01*
X0580396D01*
Y0088833D01*
X0581395Y0087833D01*
X0590393Y0093831D02*
X0592392D01*
X0591392D01*
Y0087833D01*
X0590393D01*
X0592392D01*
X0595391D02*
Y0091832D01*
X0598390D01*
X0599390Y0090832D01*
Y0087833D01*
X0607387Y0093831D02*
Y0089833D01*
X0609386Y0087833D01*
X0611386Y0089833D01*
Y0093831D01*
X0616384Y0087833D02*
X0614385D01*
X0613385Y0088833D01*
Y0090832D01*
X0614385Y0091832D01*
X0616384D01*
X0617384Y0090832D01*
Y0089833D01*
X0613385D01*
X0619383Y0091832D02*
Y0087833D01*
Y0089833D01*
X0620383Y0090832D01*
X0621383Y0091832D01*
X0622382D01*
X0625381Y0087833D02*
X0628380D01*
X0629380Y0088833D01*
X0628380Y0089833D01*
X0626381D01*
X0625381Y0090832D01*
X0626381Y0091832D01*
X0629380D01*
X0631379Y0087833D02*
X0633379D01*
X0632379D01*
Y0091832D01*
X0631379D01*
X0637377Y0087833D02*
X0639377D01*
X0640376Y0088833D01*
Y0090832D01*
X0639377Y0091832D01*
X0637377D01*
X0636378Y0090832D01*
Y0088833D01*
X0637377Y0087833D01*
X0642376D02*
Y0091832D01*
X0645375D01*
X0646374Y0090832D01*
Y0087833D01*
X0652373Y0092832D02*
X0651373Y0093831D01*
X0649373D01*
X0648374Y0092832D01*
Y0088833D01*
X0649373Y0087833D01*
X0651373D01*
X0652373Y0088833D01*
X0655372Y0087833D02*
X0657371D01*
X0658371Y0088833D01*
Y0090832D01*
X0657371Y0091832D01*
X0655372D01*
X0654372Y0090832D01*
Y0088833D01*
X0655372Y0087833D01*
X0660370D02*
Y0091832D01*
X0663369D01*
X0664369Y0090832D01*
Y0087833D01*
X0667368Y0092832D02*
Y0091832D01*
X0666368D01*
X0668367D01*
X0667368D01*
Y0088833D01*
X0668367Y0087833D01*
X0671366Y0091832D02*
Y0087833D01*
Y0089833D01*
X0672366Y0090832D01*
X0673366Y0091832D01*
X0674365D01*
X0678364Y0087833D02*
X0680364D01*
X0681363Y0088833D01*
Y0090832D01*
X0680364Y0091832D01*
X0678364D01*
X0677364Y0090832D01*
Y0088833D01*
X0678364Y0087833D01*
X0683362D02*
X0685362D01*
X0684362D01*
Y0093831D01*
X0683362D01*
G54D68*
X0090100Y0566300D02*
D03*
Y0556300D02*
D03*
Y0546300D02*
D03*
Y0536300D02*
D03*
Y0526300D02*
D03*
Y0516300D02*
D03*
Y0506300D02*
D03*
Y0496300D02*
D03*
Y0486300D02*
D03*
Y0476300D02*
D03*
Y0466300D02*
D03*
Y0456300D02*
D03*
Y0446300D02*
D03*
X0080000Y0566300D02*
D03*
Y0556300D02*
D03*
Y0546300D02*
D03*
Y0536300D02*
D03*
Y0526300D02*
D03*
Y0516300D02*
D03*
Y0506300D02*
D03*
Y0496300D02*
D03*
Y0486300D02*
D03*
Y0476300D02*
D03*
Y0466300D02*
D03*
Y0456300D02*
D03*
Y0446300D02*
D03*
X0141700Y0188700D02*
D03*
Y0198700D02*
D03*
Y0208700D02*
D03*
X0289200Y0460400D02*
D03*
X0296000Y0515200D02*
D03*
X0306000D02*
D03*
X0316000D02*
D03*
X0263400Y0521500D02*
D03*
X0253400Y0511500D02*
D03*
X0263400D02*
D03*
G54D69*
X0090100Y0436300D02*
D03*
X0080000D02*
D03*
X0141700Y0218700D02*
D03*
X0253400Y0521500D02*
D03*
G54D70*
X0080900Y0204800D02*
D03*
X0100600D02*
D03*
X0120300D02*
D03*
Y0232400D02*
D03*
X0100600D02*
D03*
X0080900D02*
D03*
Y0338100D02*
D03*
X0100600D02*
D03*
X0120300D02*
D03*
Y0365700D02*
D03*
X0100600D02*
D03*
X0080900D02*
D03*
X0378700Y0335600D02*
D03*
X0398400D02*
D03*
X0418100D02*
D03*
Y0363200D02*
D03*
X0398400D02*
D03*
X0378700D02*
D03*
Y0202300D02*
D03*
X0398400D02*
D03*
X0418100D02*
D03*
Y0229900D02*
D03*
X0398400D02*
D03*
X0378700D02*
D03*
G54D71*
X0232400Y0437247D02*
D03*
Y0443153D02*
D03*
X0218300Y0548653D02*
D03*
Y0542747D02*
D03*
X0224000Y0548653D02*
D03*
Y0542747D02*
D03*
X0229700Y0548653D02*
D03*
Y0542747D02*
D03*
G54D72*
X0410900Y0451350D02*
D03*
Y0473300D02*
D03*
Y0429400D02*
D03*
G54D73*
Y0461350D02*
D03*
Y0483300D02*
D03*
Y0439400D02*
D03*
G54D74*
X0299200Y0460400D02*
D03*
X0286000Y0515200D02*
D03*
G54D75*
X0251000Y0544400D02*
D03*
X0255600Y0333200D02*
D03*
X0261700Y0333800D02*
D03*
X0185200Y0474900D02*
D03*
X0180700Y0465200D02*
D03*
X0187400Y0483300D02*
D03*
X0258300Y0585500D02*
D03*
X0341400Y0557500D02*
D03*
X0279600Y0481500D02*
D03*
X0351400Y0526100D02*
D03*
X0176000Y0248800D02*
D03*
Y0205700D02*
D03*
X0304200Y0221000D02*
D03*
Y0264700D02*
D03*
X0318500Y0226500D02*
D03*
X0315300D02*
D03*
Y0232900D02*
D03*
Y0229700D02*
D03*
X0321700D02*
D03*
X0318500D02*
D03*
Y0236100D02*
D03*
Y0232900D02*
D03*
X0324900D02*
D03*
X0321700D02*
D03*
Y0239300D02*
D03*
Y0236100D02*
D03*
X0324900D02*
D03*
X0318500Y0261700D02*
D03*
Y0264900D02*
D03*
X0315300D02*
D03*
X0321700Y0261700D02*
D03*
Y0264900D02*
D03*
X0324900Y0261700D02*
D03*
X0315300Y0236100D02*
D03*
Y0239300D02*
D03*
Y0242500D02*
D03*
Y0245700D02*
D03*
Y0248900D02*
D03*
Y0252100D02*
D03*
Y0255300D02*
D03*
Y0258500D02*
D03*
Y0261700D02*
D03*
X0318500Y0255300D02*
D03*
Y0258500D02*
D03*
X0321700Y0255300D02*
D03*
Y0258500D02*
D03*
X0315300Y0268100D02*
D03*
X0246400Y0441400D02*
D03*
X0341700Y0539200D02*
D03*
X0414900Y0553900D02*
D03*
X0415200Y0551200D02*
D03*
X0416400Y0548700D02*
D03*
X0413700Y0548800D02*
D03*
X0412400Y0551100D02*
D03*
X0288700Y0289700D02*
D03*
X0113900Y0160900D02*
D03*
X0110700D02*
D03*
X0107500D02*
D03*
X0104300D02*
D03*
X0113900Y0164100D02*
D03*
X0110700D02*
D03*
X0107500D02*
D03*
X0104300D02*
D03*
X0113900Y0167300D02*
D03*
X0110700D02*
D03*
X0107500D02*
D03*
X0104300D02*
D03*
X0113900Y0170500D02*
D03*
X0110700D02*
D03*
X0107500D02*
D03*
X0104300D02*
D03*
X0113900Y0173700D02*
D03*
X0110700D02*
D03*
X0107500D02*
D03*
X0104300D02*
D03*
X0113900Y0176900D02*
D03*
X0110700D02*
D03*
X0107500D02*
D03*
X0104300D02*
D03*
X0113900Y0180100D02*
D03*
X0110700D02*
D03*
X0107500D02*
D03*
X0104300D02*
D03*
X0113900Y0183300D02*
D03*
X0110700D02*
D03*
X0107500D02*
D03*
X0104300D02*
D03*
X0113900Y0186500D02*
D03*
X0110700D02*
D03*
X0107500D02*
D03*
X0104300D02*
D03*
X0113900Y0189700D02*
D03*
X0110700D02*
D03*
X0107500D02*
D03*
X0104300D02*
D03*
X0113900Y0192900D02*
D03*
X0110700D02*
D03*
X0107500D02*
D03*
X0104300D02*
D03*
X0113900Y0196100D02*
D03*
X0110700D02*
D03*
X0107500D02*
D03*
X0104300D02*
D03*
X0133400Y0285300D02*
D03*
X0136600D02*
D03*
X0139800D02*
D03*
X0143000D02*
D03*
X0133400Y0282100D02*
D03*
X0143000D02*
D03*
X0139800D02*
D03*
X0136600D02*
D03*
X0133400Y0278900D02*
D03*
X0136600D02*
D03*
X0139800D02*
D03*
X0143000D02*
D03*
X0133400Y0275700D02*
D03*
X0136600D02*
D03*
X0139800D02*
D03*
X0143000D02*
D03*
X0133400Y0272500D02*
D03*
X0136600D02*
D03*
X0139800D02*
D03*
X0143000D02*
D03*
X0133400Y0269300D02*
D03*
X0136600D02*
D03*
X0139800D02*
D03*
X0143000D02*
D03*
X0133400Y0266100D02*
D03*
X0136600D02*
D03*
X0139800D02*
D03*
X0143000D02*
D03*
X0133400Y0262900D02*
D03*
X0136600D02*
D03*
X0139800D02*
D03*
X0143000D02*
D03*
X0133400Y0259700D02*
D03*
X0136600D02*
D03*
X0139800D02*
D03*
X0143000D02*
D03*
X0133400Y0256500D02*
D03*
X0136600D02*
D03*
X0139800D02*
D03*
X0143000D02*
D03*
X0133400Y0253300D02*
D03*
X0136600D02*
D03*
X0139800D02*
D03*
X0143000D02*
D03*
X0133400Y0250100D02*
D03*
X0136600D02*
D03*
X0139800D02*
D03*
X0143000D02*
D03*
X0133400Y0246900D02*
D03*
X0136600D02*
D03*
X0139800D02*
D03*
X0143000D02*
D03*
X0133400Y0243700D02*
D03*
X0136600D02*
D03*
X0139800D02*
D03*
X0143000D02*
D03*
X0133400Y0240500D02*
D03*
X0136600D02*
D03*
X0139800D02*
D03*
X0143000D02*
D03*
X0133400Y0237300D02*
D03*
X0136600D02*
D03*
X0139800D02*
D03*
X0143000D02*
D03*
X0133400Y0234100D02*
D03*
X0136600D02*
D03*
X0139800D02*
D03*
X0143000D02*
D03*
X0133400Y0230900D02*
D03*
X0136600D02*
D03*
X0139800D02*
D03*
X0143000D02*
D03*
X0324900Y0175300D02*
D03*
X0321700D02*
D03*
X0318500D02*
D03*
X0315300D02*
D03*
X0324900Y0178500D02*
D03*
X0321700D02*
D03*
X0318500D02*
D03*
X0315300D02*
D03*
X0324900Y0181700D02*
D03*
X0321700D02*
D03*
X0318500D02*
D03*
X0315300D02*
D03*
X0324900Y0184900D02*
D03*
X0321700D02*
D03*
X0318500D02*
D03*
X0315300D02*
D03*
X0324900Y0188100D02*
D03*
X0321700D02*
D03*
X0318500D02*
D03*
X0315300D02*
D03*
X0324900Y0191300D02*
D03*
X0321700D02*
D03*
X0318500D02*
D03*
X0315300D02*
D03*
X0324900Y0194500D02*
D03*
X0321700D02*
D03*
X0318500D02*
D03*
X0315300D02*
D03*
X0324900Y0197700D02*
D03*
X0321700D02*
D03*
X0318500D02*
D03*
X0315300D02*
D03*
X0324900Y0200900D02*
D03*
X0321700D02*
D03*
X0318500D02*
D03*
X0315300D02*
D03*
X0324900Y0204100D02*
D03*
X0321700D02*
D03*
X0318500D02*
D03*
X0315300D02*
D03*
X0324900Y0207300D02*
D03*
X0321700D02*
D03*
X0318500D02*
D03*
X0315300D02*
D03*
X0324900Y0210500D02*
D03*
X0321700D02*
D03*
X0318500D02*
D03*
X0315300D02*
D03*
X0324900Y0213700D02*
D03*
X0321700D02*
D03*
X0318500D02*
D03*
X0315300D02*
D03*
X0324900Y0216900D02*
D03*
X0321700D02*
D03*
X0318500D02*
D03*
X0315300D02*
D03*
X0324900Y0220100D02*
D03*
X0321700D02*
D03*
X0318500D02*
D03*
X0315300D02*
D03*
X0324900Y0223300D02*
D03*
X0321700D02*
D03*
X0318500D02*
D03*
X0315300D02*
D03*
X0324900Y0226500D02*
D03*
X0321700D02*
D03*
X0324900Y0229700D02*
D03*
Y0239300D02*
D03*
X0318500D02*
D03*
X0324900Y0242500D02*
D03*
X0321700D02*
D03*
X0318500D02*
D03*
X0324900Y0245700D02*
D03*
X0321700D02*
D03*
X0318500D02*
D03*
X0324900Y0248900D02*
D03*
X0321700D02*
D03*
X0318500D02*
D03*
X0324900Y0252100D02*
D03*
X0321700D02*
D03*
X0318500D02*
D03*
X0324900Y0255300D02*
D03*
Y0258500D02*
D03*
Y0264900D02*
D03*
Y0268100D02*
D03*
X0321700D02*
D03*
X0318500D02*
D03*
X0183000Y0325400D02*
D03*
X0179800D02*
D03*
X0176600D02*
D03*
X0173400D02*
D03*
X0183000Y0328600D02*
D03*
X0179800D02*
D03*
X0176600D02*
D03*
X0173400D02*
D03*
X0183000Y0331800D02*
D03*
X0179800D02*
D03*
X0176600D02*
D03*
X0173400D02*
D03*
X0183000Y0335000D02*
D03*
X0179800D02*
D03*
X0176600D02*
D03*
X0173400D02*
D03*
X0183000Y0338200D02*
D03*
X0179800D02*
D03*
X0176600D02*
D03*
X0173400D02*
D03*
X0183000Y0341400D02*
D03*
X0179800D02*
D03*
X0176600D02*
D03*
X0173400D02*
D03*
X0183000Y0344600D02*
D03*
X0179800D02*
D03*
X0176600D02*
D03*
X0173400D02*
D03*
X0183000Y0347800D02*
D03*
X0179800D02*
D03*
X0176600D02*
D03*
X0173400D02*
D03*
X0183000Y0351000D02*
D03*
X0179800D02*
D03*
X0176600D02*
D03*
X0173400D02*
D03*
X0183000Y0354200D02*
D03*
X0179800D02*
D03*
X0176600D02*
D03*
X0173400D02*
D03*
X0183000Y0357400D02*
D03*
X0173400D02*
D03*
X0176600D02*
D03*
X0179800D02*
D03*
X0183000Y0360600D02*
D03*
X0179800D02*
D03*
X0176600D02*
D03*
X0173400D02*
D03*
X0183000Y0363800D02*
D03*
X0179800D02*
D03*
X0176600D02*
D03*
X0173400D02*
D03*
X0183000Y0367000D02*
D03*
X0179800D02*
D03*
X0176600D02*
D03*
X0173400D02*
D03*
X0183000Y0370200D02*
D03*
X0179800D02*
D03*
X0176600D02*
D03*
X0173400D02*
D03*
X0183000Y0373400D02*
D03*
X0179800D02*
D03*
X0176600D02*
D03*
X0173400D02*
D03*
X0183000Y0376600D02*
D03*
X0179800D02*
D03*
X0176600D02*
D03*
X0173400D02*
D03*
X0183000Y0379800D02*
D03*
X0179800D02*
D03*
X0176600D02*
D03*
X0173400D02*
D03*
X0183000Y0383000D02*
D03*
X0179800D02*
D03*
X0176600D02*
D03*
X0173400D02*
D03*
X0183000Y0386200D02*
D03*
X0179800D02*
D03*
X0176600D02*
D03*
X0173400D02*
D03*
X0183000Y0389400D02*
D03*
X0179800D02*
D03*
X0176600D02*
D03*
X0173400D02*
D03*
X0183000Y0392600D02*
D03*
X0179800D02*
D03*
X0176600D02*
D03*
X0173400D02*
D03*
X0183000Y0395800D02*
D03*
X0179800D02*
D03*
X0176600D02*
D03*
X0173400D02*
D03*
X0183000Y0399000D02*
D03*
X0179800D02*
D03*
X0176600D02*
D03*
X0173400D02*
D03*
X0183000Y0402200D02*
D03*
X0179800D02*
D03*
X0176600D02*
D03*
X0173400D02*
D03*
X0183000Y0405400D02*
D03*
X0179800D02*
D03*
X0176600D02*
D03*
X0173400D02*
D03*
X0183000Y0408600D02*
D03*
X0179800D02*
D03*
X0176600D02*
D03*
X0173400D02*
D03*
X0183000Y0411800D02*
D03*
X0179800D02*
D03*
X0176600D02*
D03*
X0173400D02*
D03*
X0183000Y0415000D02*
D03*
X0179800D02*
D03*
X0176600D02*
D03*
X0173400D02*
D03*
X0183000Y0418200D02*
D03*
X0179800D02*
D03*
X0176600D02*
D03*
X0173400D02*
D03*
X0272400Y0395700D02*
D03*
X0269200D02*
D03*
X0266000D02*
D03*
X0262800D02*
D03*
X0272400Y0398900D02*
D03*
X0269200D02*
D03*
X0266000D02*
D03*
X0262800D02*
D03*
X0272400Y0402100D02*
D03*
X0269200D02*
D03*
X0266000D02*
D03*
X0262800D02*
D03*
X0272400Y0405300D02*
D03*
X0269200D02*
D03*
X0266000D02*
D03*
X0262800D02*
D03*
X0272400Y0408500D02*
D03*
X0269200D02*
D03*
X0266000D02*
D03*
X0262800D02*
D03*
X0272400Y0411700D02*
D03*
X0269200D02*
D03*
X0266000D02*
D03*
X0262800D02*
D03*
X0272400Y0414900D02*
D03*
X0269200D02*
D03*
X0266000D02*
D03*
X0262800D02*
D03*
X0272400Y0418100D02*
D03*
X0269200D02*
D03*
X0266000D02*
D03*
X0262800D02*
D03*
X0279700D02*
D03*
X0282900D02*
D03*
X0286100D02*
D03*
X0289300D02*
D03*
X0279700Y0414900D02*
D03*
X0282900D02*
D03*
X0286100D02*
D03*
X0289300D02*
D03*
X0279700Y0411700D02*
D03*
X0282900D02*
D03*
X0286100D02*
D03*
X0289300D02*
D03*
X0279700Y0408500D02*
D03*
X0282900D02*
D03*
X0286100D02*
D03*
X0289300D02*
D03*
X0279700Y0405300D02*
D03*
X0282900D02*
D03*
X0286100D02*
D03*
X0289300D02*
D03*
X0279700Y0402100D02*
D03*
X0282900D02*
D03*
X0286100D02*
D03*
X0289300D02*
D03*
X0279700Y0398900D02*
D03*
X0282900D02*
D03*
X0286100D02*
D03*
X0289300D02*
D03*
X0279700Y0395700D02*
D03*
X0282900D02*
D03*
X0286100D02*
D03*
X0289300D02*
D03*
X0279700Y0392500D02*
D03*
X0282900D02*
D03*
X0286100D02*
D03*
X0289300D02*
D03*
X0279700Y0389300D02*
D03*
X0282900D02*
D03*
X0286100D02*
D03*
X0289300D02*
D03*
X0279700Y0386100D02*
D03*
X0282900D02*
D03*
X0286100D02*
D03*
X0289300D02*
D03*
X0279700Y0382900D02*
D03*
X0282900D02*
D03*
X0286100D02*
D03*
X0289300D02*
D03*
X0279700Y0379700D02*
D03*
X0282900D02*
D03*
X0286100D02*
D03*
X0289300D02*
D03*
X0311400Y0354100D02*
D03*
X0308200D02*
D03*
X0305000D02*
D03*
X0301800D02*
D03*
X0311400Y0357300D02*
D03*
X0301800D02*
D03*
X0305000D02*
D03*
X0308200D02*
D03*
X0311400Y0360500D02*
D03*
X0308200D02*
D03*
X0305000D02*
D03*
X0301800D02*
D03*
X0311400Y0363700D02*
D03*
X0308200D02*
D03*
X0305000D02*
D03*
X0301800D02*
D03*
X0311400Y0366900D02*
D03*
X0308200D02*
D03*
X0305000D02*
D03*
X0301800D02*
D03*
X0311400Y0370100D02*
D03*
X0308200D02*
D03*
X0305000D02*
D03*
X0301800D02*
D03*
X0311400Y0373300D02*
D03*
X0308200D02*
D03*
X0305000D02*
D03*
X0301800D02*
D03*
X0311400Y0376500D02*
D03*
X0308200D02*
D03*
X0305000D02*
D03*
X0301800D02*
D03*
X0311400Y0379700D02*
D03*
X0308200D02*
D03*
X0305000D02*
D03*
X0301800D02*
D03*
X0311400Y0382900D02*
D03*
X0308200D02*
D03*
X0305000D02*
D03*
X0301800D02*
D03*
X0311400Y0386100D02*
D03*
X0308200D02*
D03*
X0305000D02*
D03*
X0301800D02*
D03*
X0311400Y0389300D02*
D03*
X0308200D02*
D03*
X0305000D02*
D03*
X0301800D02*
D03*
X0311400Y0392500D02*
D03*
X0308200D02*
D03*
X0305000D02*
D03*
X0301800D02*
D03*
X0311400Y0395700D02*
D03*
X0308200D02*
D03*
X0305000D02*
D03*
X0301800D02*
D03*
X0311400Y0398900D02*
D03*
X0308200D02*
D03*
X0305000D02*
D03*
X0301800D02*
D03*
X0311400Y0402100D02*
D03*
X0308200D02*
D03*
X0305000D02*
D03*
X0301800D02*
D03*
X0311400Y0405300D02*
D03*
X0308200D02*
D03*
X0305000D02*
D03*
X0301800D02*
D03*
X0311400Y0408500D02*
D03*
X0308200D02*
D03*
X0305000D02*
D03*
X0301800D02*
D03*
X0311400Y0411700D02*
D03*
X0308200D02*
D03*
X0305000D02*
D03*
X0301800D02*
D03*
X0311400Y0414900D02*
D03*
X0308200D02*
D03*
X0305000D02*
D03*
X0301800D02*
D03*
X0311400Y0418100D02*
D03*
X0308200D02*
D03*
X0305000D02*
D03*
X0301800D02*
D03*
X0205700Y0261200D02*
D03*
Y0264400D02*
D03*
Y0267600D02*
D03*
Y0270800D02*
D03*
X0208900Y0261200D02*
D03*
Y0270800D02*
D03*
Y0267600D02*
D03*
Y0264400D02*
D03*
X0212100Y0261200D02*
D03*
Y0264400D02*
D03*
Y0267600D02*
D03*
Y0270800D02*
D03*
X0215300Y0261200D02*
D03*
Y0264400D02*
D03*
Y0267600D02*
D03*
Y0270800D02*
D03*
X0218500Y0261200D02*
D03*
Y0264400D02*
D03*
Y0267600D02*
D03*
Y0270800D02*
D03*
X0221700Y0261200D02*
D03*
Y0264400D02*
D03*
Y0267600D02*
D03*
Y0270800D02*
D03*
X0224900Y0261200D02*
D03*
Y0264400D02*
D03*
Y0267600D02*
D03*
Y0270800D02*
D03*
X0228100Y0261200D02*
D03*
Y0264400D02*
D03*
Y0267600D02*
D03*
Y0270800D02*
D03*
X0231300Y0261200D02*
D03*
Y0264400D02*
D03*
Y0267600D02*
D03*
Y0270800D02*
D03*
X0234500Y0261200D02*
D03*
Y0264400D02*
D03*
Y0267600D02*
D03*
Y0270800D02*
D03*
X0237700Y0261200D02*
D03*
Y0264400D02*
D03*
Y0267600D02*
D03*
Y0270800D02*
D03*
X0240900Y0261200D02*
D03*
Y0264400D02*
D03*
Y0267600D02*
D03*
Y0270800D02*
D03*
X0244100Y0261200D02*
D03*
Y0264400D02*
D03*
Y0267600D02*
D03*
Y0270800D02*
D03*
X0247300Y0261200D02*
D03*
Y0264400D02*
D03*
Y0267600D02*
D03*
Y0270800D02*
D03*
X0250500Y0261200D02*
D03*
Y0264400D02*
D03*
Y0267600D02*
D03*
Y0270800D02*
D03*
X0253700Y0261200D02*
D03*
Y0264400D02*
D03*
Y0267600D02*
D03*
Y0270800D02*
D03*
X0256900Y0261200D02*
D03*
Y0264400D02*
D03*
Y0267600D02*
D03*
Y0270800D02*
D03*
X0260100Y0261200D02*
D03*
Y0264400D02*
D03*
Y0267600D02*
D03*
Y0270800D02*
D03*
X0263300Y0261200D02*
D03*
Y0264400D02*
D03*
Y0267600D02*
D03*
Y0270800D02*
D03*
X0266500Y0261200D02*
D03*
Y0264400D02*
D03*
Y0267600D02*
D03*
Y0270800D02*
D03*
X0269700Y0261200D02*
D03*
Y0264400D02*
D03*
Y0267600D02*
D03*
Y0270800D02*
D03*
X0205700Y0218200D02*
D03*
Y0221400D02*
D03*
Y0224600D02*
D03*
Y0227800D02*
D03*
X0208900Y0218200D02*
D03*
Y0227800D02*
D03*
Y0224600D02*
D03*
Y0221400D02*
D03*
X0212100Y0218200D02*
D03*
Y0221400D02*
D03*
Y0224600D02*
D03*
Y0227800D02*
D03*
X0215300Y0218200D02*
D03*
Y0221400D02*
D03*
Y0224600D02*
D03*
Y0227800D02*
D03*
X0218500Y0218200D02*
D03*
Y0221400D02*
D03*
Y0224600D02*
D03*
Y0227800D02*
D03*
X0221700Y0218200D02*
D03*
Y0221400D02*
D03*
Y0224600D02*
D03*
Y0227800D02*
D03*
X0224900Y0218200D02*
D03*
Y0221400D02*
D03*
Y0224600D02*
D03*
Y0227800D02*
D03*
X0228100Y0218200D02*
D03*
Y0221400D02*
D03*
Y0224600D02*
D03*
Y0227800D02*
D03*
X0231300Y0218200D02*
D03*
Y0221400D02*
D03*
Y0224600D02*
D03*
Y0227800D02*
D03*
X0234500Y0218200D02*
D03*
Y0221400D02*
D03*
Y0224600D02*
D03*
Y0227800D02*
D03*
X0237700Y0218200D02*
D03*
Y0221400D02*
D03*
Y0224600D02*
D03*
Y0227800D02*
D03*
X0240900Y0218200D02*
D03*
Y0221400D02*
D03*
Y0224600D02*
D03*
Y0227800D02*
D03*
X0244100Y0218200D02*
D03*
Y0221400D02*
D03*
Y0224600D02*
D03*
Y0227800D02*
D03*
X0247300Y0218200D02*
D03*
Y0221400D02*
D03*
Y0224600D02*
D03*
Y0227800D02*
D03*
X0250500Y0218200D02*
D03*
Y0221400D02*
D03*
Y0224600D02*
D03*
Y0227800D02*
D03*
X0253700Y0218200D02*
D03*
Y0221400D02*
D03*
Y0224600D02*
D03*
Y0227800D02*
D03*
X0256900Y0218200D02*
D03*
Y0221400D02*
D03*
Y0224600D02*
D03*
Y0227800D02*
D03*
X0260100Y0218200D02*
D03*
Y0221400D02*
D03*
Y0224600D02*
D03*
Y0227800D02*
D03*
X0263300Y0218200D02*
D03*
Y0221400D02*
D03*
Y0224600D02*
D03*
Y0227800D02*
D03*
X0266500Y0218200D02*
D03*
Y0221400D02*
D03*
Y0224600D02*
D03*
Y0227800D02*
D03*
X0269700Y0218200D02*
D03*
Y0221400D02*
D03*
Y0224600D02*
D03*
Y0227800D02*
D03*
X0205800Y0174900D02*
D03*
Y0178100D02*
D03*
Y0181300D02*
D03*
Y0184500D02*
D03*
X0209000Y0174900D02*
D03*
Y0184500D02*
D03*
Y0181300D02*
D03*
Y0178100D02*
D03*
X0212200Y0174900D02*
D03*
Y0178100D02*
D03*
Y0181300D02*
D03*
Y0184500D02*
D03*
X0215400Y0174900D02*
D03*
Y0178100D02*
D03*
Y0181300D02*
D03*
Y0184500D02*
D03*
X0218600Y0174900D02*
D03*
Y0178100D02*
D03*
Y0181300D02*
D03*
Y0184500D02*
D03*
X0221800Y0174900D02*
D03*
Y0178100D02*
D03*
Y0181300D02*
D03*
Y0184500D02*
D03*
X0225000Y0174900D02*
D03*
Y0178100D02*
D03*
Y0181300D02*
D03*
Y0184500D02*
D03*
X0228200Y0174900D02*
D03*
Y0178100D02*
D03*
Y0181300D02*
D03*
Y0184500D02*
D03*
X0231400Y0174900D02*
D03*
Y0178100D02*
D03*
Y0181300D02*
D03*
Y0184500D02*
D03*
X0234600Y0174900D02*
D03*
Y0178100D02*
D03*
Y0181300D02*
D03*
Y0184500D02*
D03*
X0237800Y0174900D02*
D03*
Y0178100D02*
D03*
Y0181300D02*
D03*
Y0184500D02*
D03*
X0241000Y0174900D02*
D03*
Y0178100D02*
D03*
Y0181300D02*
D03*
Y0184500D02*
D03*
X0244200Y0174900D02*
D03*
Y0178100D02*
D03*
Y0181300D02*
D03*
Y0184500D02*
D03*
X0247400Y0174900D02*
D03*
Y0178100D02*
D03*
Y0181300D02*
D03*
Y0184500D02*
D03*
X0250600Y0174900D02*
D03*
Y0178100D02*
D03*
Y0181300D02*
D03*
Y0184500D02*
D03*
X0253800Y0174900D02*
D03*
Y0178100D02*
D03*
Y0181300D02*
D03*
Y0184500D02*
D03*
X0257000Y0174900D02*
D03*
Y0178100D02*
D03*
Y0181300D02*
D03*
Y0184500D02*
D03*
X0260200Y0174900D02*
D03*
Y0178100D02*
D03*
Y0181300D02*
D03*
Y0184500D02*
D03*
X0263400Y0174900D02*
D03*
Y0178100D02*
D03*
Y0181300D02*
D03*
Y0184500D02*
D03*
X0266600Y0174900D02*
D03*
Y0178100D02*
D03*
Y0181300D02*
D03*
Y0184500D02*
D03*
X0269800Y0174900D02*
D03*
Y0178100D02*
D03*
Y0181300D02*
D03*
Y0184500D02*
D03*
X0230900Y0354200D02*
D03*
X0227700D02*
D03*
X0224500D02*
D03*
X0221300D02*
D03*
X0230900Y0357400D02*
D03*
X0227700D02*
D03*
X0224500D02*
D03*
X0221300D02*
D03*
X0230900Y0360600D02*
D03*
X0227700D02*
D03*
X0224500D02*
D03*
X0221300D02*
D03*
X0230900Y0363800D02*
D03*
X0227700D02*
D03*
X0224500D02*
D03*
X0221300D02*
D03*
X0230900Y0367000D02*
D03*
X0227700D02*
D03*
X0224500D02*
D03*
X0221300D02*
D03*
X0230900Y0370200D02*
D03*
X0227700D02*
D03*
X0224500D02*
D03*
X0221300D02*
D03*
X0230900Y0373400D02*
D03*
X0227700D02*
D03*
X0224500D02*
D03*
X0221300D02*
D03*
X0230900Y0376600D02*
D03*
X0227700D02*
D03*
X0224500D02*
D03*
X0221300D02*
D03*
X0230900Y0379800D02*
D03*
X0227700D02*
D03*
X0224500D02*
D03*
X0221300D02*
D03*
X0230900Y0383000D02*
D03*
X0227700D02*
D03*
X0224500D02*
D03*
X0221300D02*
D03*
X0230900Y0386200D02*
D03*
X0227700D02*
D03*
X0224500D02*
D03*
X0221300D02*
D03*
X0230900Y0389400D02*
D03*
X0227700D02*
D03*
X0224500D02*
D03*
X0221300D02*
D03*
X0230900Y0392600D02*
D03*
X0227700D02*
D03*
X0224500D02*
D03*
X0221300D02*
D03*
X0230900Y0395800D02*
D03*
X0227700D02*
D03*
X0224500D02*
D03*
X0221300D02*
D03*
X0230900Y0399000D02*
D03*
X0227700D02*
D03*
X0224500D02*
D03*
X0221300D02*
D03*
X0230900Y0402200D02*
D03*
X0227700D02*
D03*
X0224500D02*
D03*
X0221300D02*
D03*
X0230900Y0405400D02*
D03*
X0227700D02*
D03*
X0224500D02*
D03*
X0221300D02*
D03*
X0230900Y0408600D02*
D03*
X0227700D02*
D03*
X0224500D02*
D03*
X0221300D02*
D03*
X0230900Y0411800D02*
D03*
X0227700D02*
D03*
X0224500D02*
D03*
X0221300D02*
D03*
X0224500Y0415000D02*
D03*
X0227700D02*
D03*
X0230900D02*
D03*
X0221300D02*
D03*
X0230900Y0418200D02*
D03*
X0227700D02*
D03*
X0224500D02*
D03*
X0374300Y0463000D02*
D03*
X0349700Y0523800D02*
D03*
X0348400Y0526300D02*
D03*
X0354400Y0554400D02*
D03*
X0352900Y0549700D02*
D03*
X0350260Y0550460D02*
D03*
X0344700Y0557500D02*
D03*
X0372500Y0481400D02*
D03*
X0372400Y0488200D02*
D03*
X0405700Y0490100D02*
D03*
X0403900Y0492300D02*
D03*
Y0494900D02*
D03*
X0301557Y0550200D02*
D03*
X0297500Y0547400D02*
D03*
X0280700Y0462300D02*
D03*
X0348200Y0511300D02*
D03*
X0333900Y0484200D02*
D03*
X0336700D02*
D03*
X0339200Y0485600D02*
D03*
Y0482800D02*
D03*
X0344900Y0459400D02*
D03*
X0342200D02*
D03*
X0339500D02*
D03*
X0340900Y0456500D02*
D03*
X0343600D02*
D03*
X0313900Y0476200D02*
D03*
X0331500Y0430450D02*
D03*
Y0440800D02*
D03*
Y0451150D02*
D03*
Y0461500D02*
D03*
X0349200Y0438700D02*
D03*
X0307100Y0550200D02*
D03*
X0304328D02*
D03*
X0298786D02*
D03*
X0296014D02*
D03*
X0293243D02*
D03*
X0290471D02*
D03*
X0146100Y0488900D02*
D03*
X0279300Y0342000D02*
D03*
X0182900Y0534700D02*
D03*
X0160200Y0484900D02*
D03*
X0157400Y0546100D02*
D03*
X0187900Y0528600D02*
D03*
X0304200Y0178600D02*
D03*
X0281700Y0334000D02*
D03*
X0221300Y0418200D02*
D03*
X0180600Y0542200D02*
D03*
X0212800Y0487500D02*
D03*
X0212000Y0538200D02*
D03*
X0209400Y0533700D02*
D03*
X0208400Y0515800D02*
D03*
X0172300Y0524100D02*
D03*
X0151600Y0533300D02*
D03*
X0382000Y0485800D02*
D03*
X0319200Y0504500D02*
D03*
X0316000Y0508100D02*
D03*
X0329100Y0504500D02*
D03*
X0329200Y0500300D02*
D03*
X0169200Y0428000D02*
D03*
X0172000D02*
D03*
X0174800D02*
D03*
X0177600D02*
D03*
X0180400D02*
D03*
X0183200D02*
D03*
X0186000D02*
D03*
X0187400Y0425500D02*
D03*
X0184600D02*
D03*
X0181800D02*
D03*
X0167800D02*
D03*
X0170600D02*
D03*
X0173400D02*
D03*
X0176200D02*
D03*
X0179000D02*
D03*
X0106400Y0579250D02*
D03*
Y0576500D02*
D03*
X0107300Y0564600D02*
D03*
Y0567350D02*
D03*
Y0552105D02*
D03*
Y0554854D02*
D03*
Y0541000D02*
D03*
Y0543750D02*
D03*
X0107276Y0528260D02*
D03*
X0107300Y0531500D02*
D03*
X0106600Y0519800D02*
D03*
Y0509000D02*
D03*
Y0505600D02*
D03*
X0106300Y0437700D02*
D03*
Y0434200D02*
D03*
Y0449700D02*
D03*
Y0446400D02*
D03*
Y0461700D02*
D03*
Y0458200D02*
D03*
Y0473200D02*
D03*
Y0469800D02*
D03*
Y0484500D02*
D03*
X0106600Y0497600D02*
D03*
Y0494400D02*
D03*
X0106300Y0481600D02*
D03*
X0106600Y0517000D02*
D03*
X0214200Y0427200D02*
D03*
X0177000Y0444600D02*
D03*
X0160500D02*
D03*
X0200900Y0406800D02*
D03*
X0205100D02*
D03*
X0245500Y0582300D02*
D03*
Y0585500D02*
D03*
Y0588700D02*
D03*
X0248700Y0582300D02*
D03*
Y0585500D02*
D03*
Y0588700D02*
D03*
X0251900Y0582300D02*
D03*
Y0585500D02*
D03*
Y0588700D02*
D03*
X0255100Y0582300D02*
D03*
Y0585500D02*
D03*
Y0588700D02*
D03*
X0258300Y0582300D02*
D03*
Y0588700D02*
D03*
X0261500Y0582300D02*
D03*
X0297500Y0544300D02*
D03*
X0287700Y0550200D02*
D03*
X0397700Y0490700D02*
D03*
X0377500Y0463000D02*
D03*
X0420300Y0495700D02*
D03*
X0420100Y0487400D02*
D03*
X0174800Y0283400D02*
D03*
X0266800Y0452400D02*
D03*
X0219800Y0523700D02*
D03*
X0245100Y0455100D02*
D03*
X0248400Y0478100D02*
D03*
X0189800Y0474900D02*
D03*
X0280700Y0459100D02*
D03*
X0267600Y0482400D02*
D03*
X0267200Y0496159D02*
D03*
X0268700Y0500200D02*
D03*
X0268100Y0486600D02*
D03*
X0315600Y0539900D02*
D03*
X0280200Y0492300D02*
D03*
X0291600Y0519300D02*
D03*
Y0504600D02*
D03*
X0302200Y0490600D02*
D03*
X0269900Y0443900D02*
D03*
X0218400Y0516379D02*
D03*
X0209400Y0508900D02*
D03*
X0285400Y0527200D02*
D03*
X0217250Y0427200D02*
D03*
X0249500Y0541600D02*
D03*
X0295100Y0498200D02*
D03*
X0304300Y0498400D02*
D03*
Y0501500D02*
D03*
X0301200D02*
D03*
X0298100D02*
D03*
X0295000D02*
D03*
X0267100Y0490300D02*
D03*
X0255400Y0492400D02*
D03*
X0251500Y0492100D02*
D03*
X0244900Y0448900D02*
D03*
X0240800Y0444700D02*
D03*
X0240600Y0438200D02*
D03*
X0248600Y0426350D02*
D03*
X0238900Y0507000D02*
D03*
X0238700Y0510000D02*
D03*
X0234500Y0487800D02*
D03*
X0177400Y0486200D02*
D03*
X0172300Y0539000D02*
D03*
X0220300Y0427200D02*
D03*
X0292400Y0499800D02*
D03*
X0352100Y0552600D02*
D03*
X0251200Y0430500D02*
D03*
X0204400Y0551400D02*
D03*
X0236500Y0553000D02*
D03*
X0253800Y0544400D02*
D03*
X0255700Y0541600D02*
D03*
X0185500Y0467000D02*
D03*
X0226000Y0462300D02*
D03*
X0189200Y0465200D02*
D03*
G54D76*
X0261065Y0563223D02*
D03*
X0256735D02*
D03*
Y0578577D02*
D03*
X0261065D02*
D03*
Y0568341D02*
D03*
X0256735D02*
D03*
X0261065Y0573459D02*
D03*
X0256735D02*
D03*
G54D77*
X0111850Y0577700D02*
D03*
M02*
