G04 Layer_Physical_Order=1*
G04 Layer_Color=255*
%FSAX25Y25*%
%MOIN*%
G70*
G01*
G75*
G04:AMPARAMS|DCode=10|XSize=15.75mil|YSize=33.47mil|CornerRadius=1.97mil|HoleSize=0mil|Usage=FLASHONLY|Rotation=0.000|XOffset=0mil|YOffset=0mil|HoleType=Round|Shape=RoundedRectangle|*
%AMROUNDEDRECTD10*
21,1,0.01575,0.02953,0,0,0.0*
21,1,0.01181,0.03347,0,0,0.0*
1,1,0.00394,0.00591,-0.01476*
1,1,0.00394,-0.00591,-0.01476*
1,1,0.00394,-0.00591,0.01476*
1,1,0.00394,0.00591,0.01476*
%
%ADD10ROUNDEDRECTD10*%
%ADD11R,0.03937X0.03740*%
%ADD12R,0.03740X0.03937*%
G04:AMPARAMS|DCode=13|XSize=23.62mil|YSize=39.37mil|CornerRadius=5.91mil|HoleSize=0mil|Usage=FLASHONLY|Rotation=0.000|XOffset=0mil|YOffset=0mil|HoleType=Round|Shape=RoundedRectangle|*
%AMROUNDEDRECTD13*
21,1,0.02362,0.02756,0,0,0.0*
21,1,0.01181,0.03937,0,0,0.0*
1,1,0.01181,0.00591,-0.01378*
1,1,0.01181,-0.00591,-0.01378*
1,1,0.01181,-0.00591,0.01378*
1,1,0.01181,0.00591,0.01378*
%
%ADD13ROUNDEDRECTD13*%
G04:AMPARAMS|DCode=14|XSize=23.62mil|YSize=39.37mil|CornerRadius=5.91mil|HoleSize=0mil|Usage=FLASHONLY|Rotation=90.000|XOffset=0mil|YOffset=0mil|HoleType=Round|Shape=RoundedRectangle|*
%AMROUNDEDRECTD14*
21,1,0.02362,0.02756,0,0,90.0*
21,1,0.01181,0.03937,0,0,90.0*
1,1,0.01181,0.01378,0.00591*
1,1,0.01181,0.01378,-0.00591*
1,1,0.01181,-0.01378,-0.00591*
1,1,0.01181,-0.01378,0.00591*
%
%ADD14ROUNDEDRECTD14*%
%ADD15R,0.02362X0.03150*%
G04:AMPARAMS|DCode=16|XSize=23.62mil|YSize=57.09mil|CornerRadius=2.01mil|HoleSize=0mil|Usage=FLASHONLY|Rotation=90.000|XOffset=0mil|YOffset=0mil|HoleType=Round|Shape=RoundedRectangle|*
%AMROUNDEDRECTD16*
21,1,0.02362,0.05307,0,0,90.0*
21,1,0.01961,0.05709,0,0,90.0*
1,1,0.00402,0.02653,0.00980*
1,1,0.00402,0.02653,-0.00980*
1,1,0.00402,-0.02653,-0.00980*
1,1,0.00402,-0.02653,0.00980*
%
%ADD16ROUNDEDRECTD16*%
G04:AMPARAMS|DCode=17|XSize=116.14mil|YSize=192.91mil|CornerRadius=4.07mil|HoleSize=0mil|Usage=FLASHONLY|Rotation=0.000|XOffset=0mil|YOffset=0mil|HoleType=Round|Shape=RoundedRectangle|*
%AMROUNDEDRECTD17*
21,1,0.11614,0.18478,0,0,0.0*
21,1,0.10801,0.19291,0,0,0.0*
1,1,0.00813,0.05401,-0.09239*
1,1,0.00813,-0.05401,-0.09239*
1,1,0.00813,-0.05401,0.09239*
1,1,0.00813,0.05401,0.09239*
%
%ADD17ROUNDEDRECTD17*%
%ADD18O,0.01575X0.04724*%
%ADD19O,0.05709X0.02362*%
G04:AMPARAMS|DCode=20|XSize=23.62mil|YSize=39.37mil|CornerRadius=2.01mil|HoleSize=0mil|Usage=FLASHONLY|Rotation=90.000|XOffset=0mil|YOffset=0mil|HoleType=Round|Shape=RoundedRectangle|*
%AMROUNDEDRECTD20*
21,1,0.02362,0.03535,0,0,90.0*
21,1,0.01961,0.03937,0,0,90.0*
1,1,0.00402,0.01768,0.00980*
1,1,0.00402,0.01768,-0.00980*
1,1,0.00402,-0.01768,-0.00980*
1,1,0.00402,-0.01768,0.00980*
%
%ADD20ROUNDEDRECTD20*%
%ADD21O,0.06299X0.02165*%
%ADD22O,0.01772X0.05512*%
%ADD23O,0.05512X0.01181*%
%ADD24R,0.04409X0.03780*%
%ADD25R,0.07874X0.07874*%
%ADD26R,0.05118X0.13386*%
%ADD27R,0.02000X0.03500*%
%ADD28R,0.03500X0.02000*%
%ADD29R,0.05118X0.07283*%
G04:AMPARAMS|DCode=30|XSize=340.55mil|YSize=330.71mil|CornerRadius=1.65mil|HoleSize=0mil|Usage=FLASHONLY|Rotation=270.000|XOffset=0mil|YOffset=0mil|HoleType=Round|Shape=RoundedRectangle|*
%AMROUNDEDRECTD30*
21,1,0.34055,0.32740,0,0,270.0*
21,1,0.33724,0.33071,0,0,270.0*
1,1,0.00331,-0.16370,-0.16862*
1,1,0.00331,-0.16370,0.16862*
1,1,0.00331,0.16370,0.16862*
1,1,0.00331,0.16370,-0.16862*
%
%ADD30ROUNDEDRECTD30*%
G04:AMPARAMS|DCode=31|XSize=39.37mil|YSize=137.8mil|CornerRadius=1.97mil|HoleSize=0mil|Usage=FLASHONLY|Rotation=270.000|XOffset=0mil|YOffset=0mil|HoleType=Round|Shape=RoundedRectangle|*
%AMROUNDEDRECTD31*
21,1,0.03937,0.13386,0,0,270.0*
21,1,0.03543,0.13780,0,0,270.0*
1,1,0.00394,-0.06693,-0.01772*
1,1,0.00394,-0.06693,0.01772*
1,1,0.00394,0.06693,0.01772*
1,1,0.00394,0.06693,-0.01772*
%
%ADD31ROUNDEDRECTD31*%
G04:AMPARAMS|DCode=32|XSize=18.5mil|YSize=23.62mil|CornerRadius=1.94mil|HoleSize=0mil|Usage=FLASHONLY|Rotation=0.000|XOffset=0mil|YOffset=0mil|HoleType=Round|Shape=RoundedRectangle|*
%AMROUNDEDRECTD32*
21,1,0.01850,0.01974,0,0,0.0*
21,1,0.01462,0.02362,0,0,0.0*
1,1,0.00389,0.00731,-0.00987*
1,1,0.00389,-0.00731,-0.00987*
1,1,0.00389,-0.00731,0.00987*
1,1,0.00389,0.00731,0.00987*
%
%ADD32ROUNDEDRECTD32*%
%ADD33R,0.07874X0.13780*%
%ADD34R,0.12795X0.13504*%
%ADD35R,0.04724X0.29134*%
%ADD36R,0.11811X0.02953*%
%ADD37R,0.10799X0.08500*%
%ADD38R,0.03602X0.04803*%
%ADD39R,0.04803X0.03602*%
%ADD40R,0.03150X0.02362*%
%ADD41R,0.06300X0.05000*%
%ADD42R,0.05000X0.06300*%
G04:AMPARAMS|DCode=43|XSize=23.62mil|YSize=70.87mil|CornerRadius=2.01mil|HoleSize=0mil|Usage=FLASHONLY|Rotation=90.000|XOffset=0mil|YOffset=0mil|HoleType=Round|Shape=RoundedRectangle|*
%AMROUNDEDRECTD43*
21,1,0.02362,0.06685,0,0,90.0*
21,1,0.01961,0.07087,0,0,90.0*
1,1,0.00402,0.03342,0.00980*
1,1,0.00402,0.03342,-0.00980*
1,1,0.00402,-0.03342,-0.00980*
1,1,0.00402,-0.03342,0.00980*
%
%ADD43ROUNDEDRECTD43*%
%ADD44R,0.10630X0.05118*%
%ADD45R,0.04331X0.08661*%
%ADD46R,0.03150X0.03150*%
%ADD47R,0.02362X0.02362*%
G04:AMPARAMS|DCode=48|XSize=37.4mil|YSize=39.37mil|CornerRadius=0mil|HoleSize=0mil|Usage=FLASHONLY|Rotation=45.000|XOffset=0mil|YOffset=0mil|HoleType=Round|Shape=Rectangle|*
%AMROTATEDRECTD48*
4,1,4,0.00070,-0.02714,-0.02714,0.00070,-0.00070,0.02714,0.02714,-0.00070,0.00070,-0.02714,0.0*
%
%ADD48ROTATEDRECTD48*%

%ADD49C,0.01000*%
%ADD50C,0.02000*%
%ADD51C,0.04000*%
%ADD52C,0.02300*%
%ADD53C,0.01500*%
%ADD54C,0.03000*%
%ADD55C,0.01200*%
%ADD56C,0.01100*%
%ADD57C,0.02500*%
%ADD58C,0.03500*%
%ADD59C,0.10000*%
%ADD60C,0.05000*%
%ADD61C,0.01800*%
%ADD62C,0.03800*%
%ADD63C,0.00800*%
%ADD64R,0.05200X0.09200*%
%ADD65R,0.11500X0.03900*%
%ADD66R,0.11800X0.06500*%
%ADD67R,0.09500X0.07500*%
%ADD68C,0.05905*%
%ADD69R,0.05905X0.05905*%
%ADD70C,0.11000*%
%ADD71C,0.04331*%
G04:AMPARAMS|DCode=72|XSize=61.02mil|YSize=61.02mil|CornerRadius=1.83mil|HoleSize=0mil|Usage=FLASHONLY|Rotation=90.000|XOffset=0mil|YOffset=0mil|HoleType=Round|Shape=RoundedRectangle|*
%AMROUNDEDRECTD72*
21,1,0.06102,0.05736,0,0,90.0*
21,1,0.05736,0.06102,0,0,90.0*
1,1,0.00366,0.02868,0.02868*
1,1,0.00366,0.02868,-0.02868*
1,1,0.00366,-0.02868,-0.02868*
1,1,0.00366,-0.02868,0.02868*
%
%ADD72ROUNDEDRECTD72*%
%ADD73C,0.06102*%
%ADD74R,0.05905X0.05905*%
%ADD75C,0.03000*%
%ADD76C,0.01968*%
G36*
X0114279Y0451476D02*
X0114553Y0450673D01*
X0114945Y0450087D01*
X0115531Y0449695D01*
X0116222Y0449558D01*
X0118978D01*
X0119669Y0449695D01*
X0120104Y0449986D01*
X0129124D01*
Y0446724D01*
X0128844Y0446444D01*
X0120104D01*
X0119669Y0446734D01*
X0118978Y0446872D01*
X0116222D01*
X0115531Y0446734D01*
X0114945Y0446343D01*
X0114553Y0445756D01*
X0114458Y0445276D01*
X0113396Y0444215D01*
X0103824D01*
Y0451476D01*
X0114279D01*
X0114279Y0451476D01*
D02*
G37*
G36*
X0176871Y0511300D02*
X0176987Y0510715D01*
X0177319Y0510219D01*
X0184971Y0502566D01*
Y0489054D01*
X0185000Y0488906D01*
Y0484500D01*
X0185415Y0484085D01*
X0185259Y0483300D01*
X0185422Y0482481D01*
X0185886Y0481786D01*
X0186581Y0481322D01*
X0187400Y0481159D01*
X0187970Y0481272D01*
X0190274Y0478968D01*
X0190654Y0478714D01*
X0190819Y0478681D01*
X0192034Y0477466D01*
X0191935Y0477148D01*
X0190770Y0476777D01*
X0190619Y0476878D01*
X0189800Y0477041D01*
X0188981Y0476878D01*
X0188286Y0476414D01*
X0188056Y0476069D01*
X0188041Y0476063D01*
X0186959D01*
X0186944Y0476069D01*
X0186714Y0476414D01*
X0186019Y0476878D01*
X0185200Y0477041D01*
X0184381Y0476878D01*
X0183686Y0476414D01*
X0183222Y0475719D01*
X0183059Y0474900D01*
X0183222Y0474081D01*
X0183686Y0473386D01*
X0184381Y0472922D01*
X0185200Y0472759D01*
X0185543Y0472827D01*
X0187312Y0471058D01*
X0187708Y0470793D01*
X0188177Y0470700D01*
X0195598D01*
X0195646Y0470709D01*
X0197763D01*
X0198228Y0470802D01*
X0198621Y0471065D01*
X0198884Y0471459D01*
X0198977Y0471923D01*
X0198884Y0472388D01*
X0198675Y0472701D01*
X0198854Y0473119D01*
X0199186Y0473600D01*
X0218000D01*
X0219800Y0475400D01*
Y0475992D01*
X0219822Y0476100D01*
Y0479400D01*
X0219822Y0479400D01*
X0219800Y0479508D01*
Y0480100D01*
X0216800Y0483100D01*
Y0489670D01*
X0225000D01*
Y0478231D01*
X0224892Y0478159D01*
X0224563Y0477667D01*
X0224448Y0477087D01*
Y0473347D01*
X0224563Y0472767D01*
X0224587Y0472733D01*
Y0469200D01*
Y0463881D01*
X0224486Y0463814D01*
X0224284Y0463512D01*
X0223927Y0463273D01*
X0223927Y0463273D01*
X0222171Y0461518D01*
X0218130D01*
Y0456381D01*
X0223070D01*
Y0458524D01*
X0224993Y0460447D01*
X0225181Y0460322D01*
X0226000Y0460159D01*
X0226819Y0460322D01*
X0227514Y0460786D01*
X0227978Y0461481D01*
X0228141Y0462300D01*
X0227978Y0463119D01*
X0227514Y0463814D01*
X0227340Y0463931D01*
Y0470100D01*
X0228553D01*
X0228927Y0469727D01*
X0229373Y0469428D01*
X0229900Y0469323D01*
X0243750D01*
X0244276Y0469428D01*
X0244723Y0469727D01*
X0245096Y0470100D01*
X0247400D01*
Y0461149D01*
X0246973Y0460722D01*
X0243300D01*
X0242871Y0460636D01*
X0242507Y0460393D01*
X0242507Y0460393D01*
X0237965Y0455851D01*
X0237722Y0455487D01*
X0237637Y0455058D01*
X0237637Y0455058D01*
Y0454855D01*
X0237359Y0454439D01*
X0237243Y0453859D01*
Y0450119D01*
X0236407Y0449300D01*
X0235991D01*
X0235155Y0450119D01*
Y0453859D01*
X0235040Y0454439D01*
X0234711Y0454930D01*
X0234220Y0455259D01*
X0233640Y0455374D01*
X0233060Y0455259D01*
X0232361Y0455006D01*
X0231661Y0455259D01*
X0231081Y0455374D01*
X0230501Y0455259D01*
X0230010Y0454930D01*
X0229593D01*
X0229102Y0455259D01*
X0228522Y0455374D01*
X0227942Y0455259D01*
X0227451Y0454930D01*
X0227122Y0454439D01*
X0227007Y0453859D01*
Y0450119D01*
X0226171Y0449300D01*
X0218800D01*
X0214220Y0444720D01*
X0211500D01*
X0206700Y0439920D01*
Y0439718D01*
X0206663D01*
Y0434581D01*
X0206700D01*
Y0428300D01*
X0201100Y0422700D01*
X0141400D01*
Y0431800D01*
X0151000D01*
X0152200Y0433000D01*
Y0436100D01*
X0154000Y0437900D01*
Y0442200D01*
X0164100D01*
Y0450619D01*
X0174430D01*
Y0445482D01*
X0174430D01*
X0174859Y0444600D01*
X0175022Y0443781D01*
X0175486Y0443086D01*
X0176181Y0442622D01*
X0177000Y0442459D01*
X0177819Y0442622D01*
X0178514Y0443086D01*
X0178978Y0443781D01*
X0179137Y0444579D01*
X0179370Y0445482D01*
X0179370D01*
Y0450619D01*
X0188314D01*
Y0463059D01*
X0197197D01*
X0199338Y0465200D01*
Y0469200D01*
X0197764D01*
X0197763Y0469200D01*
X0193432D01*
X0193432Y0469200D01*
X0176573D01*
X0175749Y0469955D01*
X0175656Y0470419D01*
X0175393Y0470813D01*
Y0471065D01*
X0175656Y0471459D01*
X0175727Y0471815D01*
X0175749Y0471923D01*
X0175755Y0472044D01*
X0175777Y0472488D01*
X0176221Y0472856D01*
X0176585Y0473099D01*
X0178193Y0474707D01*
X0178436Y0475071D01*
X0178522Y0475500D01*
X0178522Y0475500D01*
Y0484424D01*
X0178914Y0484686D01*
X0179378Y0485381D01*
X0179541Y0486200D01*
X0179378Y0487019D01*
X0178914Y0487714D01*
X0178219Y0488178D01*
X0177400Y0488341D01*
X0176581Y0488178D01*
X0176257Y0488274D01*
X0175656Y0489175D01*
X0175749Y0489640D01*
X0175656Y0490104D01*
X0175393Y0490498D01*
Y0490750D01*
X0175656Y0491144D01*
X0175749Y0491608D01*
X0175656Y0492073D01*
X0175393Y0492467D01*
Y0492719D01*
X0175656Y0493112D01*
X0175749Y0493577D01*
X0175656Y0494041D01*
X0175393Y0494435D01*
Y0494687D01*
X0175656Y0495081D01*
X0175749Y0495545D01*
X0175656Y0496010D01*
X0175393Y0496404D01*
Y0496656D01*
X0175656Y0497049D01*
X0175749Y0497514D01*
X0175656Y0497978D01*
X0175393Y0498372D01*
Y0498624D01*
X0175656Y0499018D01*
X0175749Y0499482D01*
X0175656Y0499947D01*
X0175393Y0500341D01*
Y0500593D01*
X0175656Y0500986D01*
X0175749Y0501451D01*
X0175656Y0501915D01*
X0175393Y0502309D01*
Y0502561D01*
X0175656Y0502955D01*
X0175749Y0503419D01*
X0175656Y0503884D01*
X0175393Y0504278D01*
Y0504529D01*
X0175656Y0504923D01*
X0175749Y0505388D01*
X0175656Y0505852D01*
X0175393Y0506246D01*
Y0506498D01*
X0175656Y0506892D01*
X0175749Y0507356D01*
X0175656Y0507821D01*
X0175393Y0508215D01*
X0174999Y0508478D01*
X0174535Y0508570D01*
X0170204D01*
X0169900Y0508820D01*
Y0511400D01*
X0176871D01*
Y0511300D01*
D02*
G37*
G36*
X0347700Y0447000D02*
X0342800Y0442100D01*
X0336500Y0442100D01*
X0336500Y0464100D01*
X0347700Y0464100D01*
X0347700Y0447000D01*
D02*
G37*
G36*
X0114226Y0439676D02*
X0114553Y0438925D01*
X0114945Y0438339D01*
X0115531Y0437948D01*
X0116222Y0437810D01*
X0118978D01*
X0119669Y0437948D01*
X0120104Y0438238D01*
X0129100D01*
Y0435010D01*
X0128786Y0434696D01*
X0120104D01*
X0119669Y0434986D01*
X0118978Y0435124D01*
X0116222D01*
X0115531Y0434986D01*
X0114945Y0434595D01*
X0114553Y0434009D01*
X0114416Y0433317D01*
Y0432327D01*
X0114389Y0432300D01*
X0103800D01*
Y0439676D01*
X0114226D01*
X0114226Y0439676D01*
D02*
G37*
G36*
X0351100Y0435100D02*
X0344751D01*
Y0436844D01*
X0348500Y0440593D01*
X0351100D01*
Y0435100D01*
D02*
G37*
G36*
X0281800Y0464200D02*
X0290700D01*
X0292400Y0462500D01*
Y0457700D01*
X0287900Y0453200D01*
X0272700D01*
X0269473Y0456427D01*
Y0472900D01*
X0273100D01*
X0281800Y0464200D01*
D02*
G37*
G36*
X0281635Y0485231D02*
X0281727Y0484767D01*
X0281991Y0484373D01*
Y0484121D01*
X0281727Y0483728D01*
X0281635Y0483263D01*
X0281727Y0482798D01*
X0281991Y0482405D01*
Y0482153D01*
X0281727Y0481759D01*
X0281635Y0481294D01*
X0281727Y0480830D01*
X0281991Y0480436D01*
Y0480184D01*
X0281727Y0479790D01*
X0281635Y0479326D01*
X0281727Y0478861D01*
X0281991Y0478468D01*
Y0478216D01*
X0281727Y0477822D01*
X0281635Y0477357D01*
X0281727Y0476893D01*
X0281991Y0476499D01*
Y0476247D01*
X0281727Y0475853D01*
X0281635Y0475389D01*
X0281727Y0474924D01*
X0281991Y0474531D01*
Y0474279D01*
X0281727Y0473885D01*
X0281635Y0473420D01*
X0281727Y0472956D01*
X0281991Y0472562D01*
Y0472310D01*
X0281727Y0471916D01*
X0281635Y0471452D01*
X0281727Y0470987D01*
X0281991Y0470594D01*
Y0470342D01*
X0281727Y0469948D01*
X0281635Y0469484D01*
X0280737Y0468870D01*
X0280716D01*
X0271436Y0478151D01*
X0271072Y0478394D01*
X0270642Y0478479D01*
X0270642Y0478479D01*
X0265928D01*
X0265165Y0479326D01*
X0265073Y0479790D01*
X0265315Y0480377D01*
X0266427Y0480658D01*
X0266781Y0480422D01*
X0267600Y0480259D01*
X0268419Y0480422D01*
X0269114Y0480886D01*
X0269578Y0481581D01*
X0269741Y0482400D01*
X0269578Y0483219D01*
X0269240Y0483725D01*
X0269139Y0484008D01*
X0269387Y0484934D01*
X0269614Y0485086D01*
X0270078Y0485781D01*
X0270117Y0485977D01*
X0280804D01*
X0281635Y0485231D01*
D02*
G37*
G36*
X0351100Y0487800D02*
X0345500D01*
Y0480600D01*
X0333847Y0480600D01*
X0328900Y0485547D01*
Y0487200D01*
X0343200D01*
Y0490329D01*
X0345071Y0492200D01*
X0347200Y0492200D01*
X0351100D01*
Y0487800D01*
D02*
G37*
G36*
X0114383Y0475076D02*
X0114416Y0474902D01*
Y0474860D01*
X0114553Y0474169D01*
X0114945Y0473583D01*
X0115531Y0473191D01*
X0116222Y0473054D01*
X0118978D01*
X0119669Y0473191D01*
X0120104Y0473482D01*
X0129124D01*
Y0470103D01*
X0128961Y0469939D01*
X0120104D01*
X0119669Y0470230D01*
X0118978Y0470367D01*
X0116222D01*
X0115531Y0470230D01*
X0114945Y0469838D01*
X0114553Y0469252D01*
X0114458Y0468772D01*
X0113410Y0467724D01*
X0103824D01*
Y0475076D01*
X0114383D01*
X0114383Y0475076D01*
D02*
G37*
G36*
X0114331Y0463276D02*
X0114553Y0462421D01*
X0114945Y0461835D01*
X0115531Y0461443D01*
X0116222Y0461306D01*
X0118978D01*
X0119669Y0461443D01*
X0120104Y0461734D01*
X0129124D01*
Y0458413D01*
X0128902Y0458191D01*
X0120104D01*
X0119669Y0458482D01*
X0118978Y0458619D01*
X0116222D01*
X0115531Y0458482D01*
X0114945Y0458090D01*
X0114553Y0457504D01*
X0114458Y0457024D01*
X0113396Y0455963D01*
X0103824D01*
Y0463276D01*
X0114331D01*
X0114331Y0463276D01*
D02*
G37*
G36*
X0396600Y0468100D02*
X0388200D01*
Y0470400D01*
X0389500D01*
X0391900Y0472800D01*
X0396600D01*
Y0468100D01*
D02*
G37*
G36*
X0296700Y0429800D02*
X0292930D01*
X0287930Y0434800D01*
X0279787D01*
Y0440200D01*
X0296700D01*
Y0429800D01*
D02*
G37*
G36*
X0151700Y0214500D02*
X0151700Y0204200D01*
X0138700Y0204200D01*
X0138700Y0221600D01*
X0144600D01*
X0151700Y0214500D01*
D02*
G37*
G36*
X0164105Y0220828D02*
X0152295D01*
X0156822Y0226339D01*
X0159578D01*
X0164105Y0220828D01*
D02*
G37*
G36*
X0151700Y0194800D02*
X0146300Y0189400D01*
X0146300Y0185200D01*
X0137000D01*
Y0201900D01*
X0151700D01*
Y0194800D01*
D02*
G37*
G36*
X0152500Y0226700D02*
X0142600D01*
X0141620Y0226652D01*
X0139697Y0226269D01*
X0137886Y0225519D01*
X0136256Y0224430D01*
X0134870Y0223044D01*
X0133781Y0221414D01*
X0133031Y0219603D01*
X0132648Y0217680D01*
X0132600Y0216700D01*
Y0157900D01*
X0074400D01*
Y0288300D01*
X0152500D01*
Y0226700D01*
D02*
G37*
G36*
X0250100Y0295400D02*
X0250100Y0289200D01*
X0253500Y0285800D01*
X0272000Y0285800D01*
X0272000Y0163200D01*
X0203400D01*
Y0288400D01*
X0204000D01*
X0211000Y0295400D01*
X0250100Y0295400D01*
D02*
G37*
G36*
X0310000Y0278900D02*
X0425300D01*
X0425300Y0164000D01*
X0287400D01*
Y0166895D01*
X0288400Y0167837D01*
X0300927D01*
X0301238Y0167899D01*
X0301501Y0168075D01*
X0301677Y0168338D01*
X0301739Y0168649D01*
Y0172193D01*
X0301677Y0172503D01*
X0301660Y0172530D01*
X0301719Y0173530D01*
X0301719D01*
Y0175690D01*
X0302719Y0176215D01*
X0302868Y0176112D01*
X0302881Y0176077D01*
Y0173530D01*
X0308018D01*
Y0178470D01*
X0306448D01*
X0306341Y0178600D01*
X0306178Y0179419D01*
X0305714Y0180114D01*
X0305019Y0180578D01*
X0304200Y0180741D01*
X0303381Y0180578D01*
X0302686Y0180114D01*
X0302222Y0179419D01*
X0302193Y0179274D01*
X0301773Y0178562D01*
X0301091Y0178470D01*
X0296582D01*
Y0175799D01*
X0296562Y0175700D01*
Y0173005D01*
X0287541D01*
X0287400Y0173121D01*
Y0209945D01*
X0288400Y0210887D01*
X0300927D01*
X0301238Y0210949D01*
X0301501Y0211125D01*
X0301677Y0211388D01*
X0301739Y0211699D01*
Y0215243D01*
X0301719Y0216130D01*
X0301719Y0216130D01*
Y0218090D01*
X0302719Y0218615D01*
X0302868Y0218512D01*
X0302881Y0218477D01*
Y0216130D01*
X0308018D01*
Y0221070D01*
X0306793D01*
X0306783Y0221084D01*
X0306210Y0221657D01*
X0306178Y0221819D01*
X0305714Y0222514D01*
X0305019Y0222978D01*
X0304200Y0223141D01*
X0303381Y0222978D01*
X0302686Y0222514D01*
X0302244Y0221853D01*
X0302221Y0221819D01*
X0301611Y0221070D01*
X0301103Y0221070D01*
X0296582D01*
Y0218199D01*
X0296562Y0218100D01*
Y0216055D01*
X0287541D01*
X0287400Y0216171D01*
X0287400Y0252995D01*
X0288400Y0253937D01*
X0300927D01*
X0301238Y0253999D01*
X0301501Y0254175D01*
X0301677Y0254438D01*
X0301739Y0254749D01*
Y0258293D01*
X0301712Y0258430D01*
X0301719Y0259430D01*
X0301719D01*
Y0261790D01*
X0302719Y0262315D01*
X0302868Y0262212D01*
X0302881Y0262177D01*
Y0259430D01*
X0308018D01*
Y0264370D01*
X0307399D01*
Y0265752D01*
X0310602D01*
Y0270554D01*
X0304598D01*
Y0270541D01*
X0302618D01*
Y0270870D01*
X0297481D01*
Y0265930D01*
X0300728D01*
X0301427Y0264947D01*
X0301241Y0264417D01*
X0301105Y0264370D01*
X0296582D01*
Y0261799D01*
X0296562Y0261700D01*
Y0259105D01*
X0287541D01*
X0287400Y0259221D01*
Y0278900D01*
X0290800D01*
Y0280300D01*
X0295000Y0284500D01*
X0310000D01*
Y0278900D01*
D02*
G37*
G36*
X0259278Y0352516D02*
Y0349366D01*
X0259385Y0348825D01*
X0259692Y0348366D01*
X0260151Y0348060D01*
X0260692Y0347952D01*
X0261233Y0348060D01*
X0261692Y0348366D01*
X0262251D01*
X0262710Y0348060D01*
X0263251Y0347952D01*
X0263792Y0348060D01*
X0263806Y0348069D01*
X0264531Y0348284D01*
X0265255Y0348069D01*
X0265269Y0348060D01*
X0265810Y0347952D01*
X0266352Y0348060D01*
X0266810Y0348366D01*
X0267369D01*
X0267828Y0348060D01*
X0268369Y0347952D01*
X0268911Y0348060D01*
X0268924Y0348069D01*
X0269649Y0348284D01*
X0270373Y0348069D01*
X0270387Y0348060D01*
X0270928Y0347952D01*
X0271470Y0348060D01*
X0272514Y0347639D01*
X0274079Y0346075D01*
X0274525Y0345776D01*
X0275052Y0345671D01*
X0279967D01*
X0280121Y0345702D01*
X0283100D01*
Y0338800D01*
X0254119D01*
X0253816Y0339169D01*
Y0340350D01*
X0253724Y0340815D01*
X0253461Y0341209D01*
X0253067Y0341472D01*
X0252602Y0341564D01*
X0251006D01*
X0249300Y0343270D01*
X0249300Y0353300D01*
X0258515D01*
X0259278Y0352516D01*
D02*
G37*
G36*
X0239141Y0375837D02*
X0239141Y0375837D01*
X0239227Y0375408D01*
X0239470Y0375044D01*
X0246579Y0367935D01*
Y0343284D01*
X0246578Y0343284D01*
X0246664Y0342855D01*
X0246907Y0342491D01*
X0247574Y0341824D01*
X0247192Y0340900D01*
X0243952D01*
X0243866Y0341130D01*
X0243786Y0341900D01*
X0244012Y0342051D01*
X0244275Y0342445D01*
X0244367Y0342910D01*
Y0344091D01*
X0244275Y0344555D01*
X0244012Y0344949D01*
X0243618Y0345212D01*
X0243154Y0345304D01*
X0240398D01*
X0239933Y0345212D01*
X0239812Y0345131D01*
X0231250D01*
X0230626Y0345007D01*
X0230097Y0344654D01*
X0213968Y0328525D01*
X0213203Y0329290D01*
X0212124Y0328210D01*
X0211200Y0328593D01*
Y0420900D01*
X0239141D01*
Y0375837D01*
D02*
G37*
G36*
X0425300Y0287900D02*
X0392051D01*
X0390519Y0289030D01*
Y0293970D01*
X0385382D01*
Y0289030D01*
X0383850Y0287900D01*
X0301570D01*
Y0291318D01*
X0300731D01*
Y0296369D01*
X0304598D01*
Y0295346D01*
X0310602D01*
Y0300148D01*
X0304598D01*
Y0299631D01*
X0302202D01*
Y0301255D01*
X0296198D01*
Y0296453D01*
X0297469D01*
Y0291318D01*
X0296630D01*
Y0290271D01*
X0296293Y0290126D01*
X0296131D01*
X0295604Y0290021D01*
X0295157Y0289723D01*
X0295007Y0289573D01*
X0294882Y0289519D01*
X0293778Y0289751D01*
X0292879Y0290237D01*
X0292704Y0290500D01*
X0292441Y0290675D01*
X0292131Y0290737D01*
X0291910D01*
X0290094Y0292553D01*
X0289564Y0292907D01*
X0289518Y0292916D01*
Y0294452D01*
X0289518Y0294570D01*
X0289803Y0296452D01*
X0293002D01*
Y0301254D01*
X0286998D01*
Y0299931D01*
X0280800D01*
X0280391Y0299850D01*
X0278400Y0299850D01*
X0278273Y0301797D01*
Y0305214D01*
X0282229Y0309171D01*
X0282483Y0309551D01*
X0282573Y0310000D01*
Y0325514D01*
X0285586Y0328527D01*
X0289700D01*
X0290149Y0328617D01*
X0290529Y0328871D01*
X0294779Y0333121D01*
X0295033Y0333501D01*
X0295123Y0333950D01*
Y0365483D01*
X0295033Y0365932D01*
X0294779Y0366313D01*
X0288263Y0372829D01*
X0287882Y0373083D01*
X0287433Y0373172D01*
X0277269D01*
X0257223Y0393219D01*
Y0420700D01*
X0425300D01*
Y0287900D01*
D02*
G37*
G36*
X0196900Y0257500D02*
D01*
X0196900Y0157700D01*
X0156600D01*
Y0190900D01*
X0162930Y0197230D01*
X0164518D01*
Y0198818D01*
Y0202170D01*
X0164323D01*
X0164093Y0202592D01*
X0163879Y0203170D01*
X0163945Y0203498D01*
Y0206254D01*
X0163852Y0206718D01*
X0163589Y0207112D01*
X0163195Y0207375D01*
X0163000Y0207414D01*
Y0209200D01*
X0166700Y0212900D01*
Y0223300D01*
X0161400Y0228600D01*
Y0258133D01*
X0156500Y0263300D01*
Y0267700D01*
X0167993D01*
X0172384Y0263309D01*
Y0262169D01*
X0172476Y0261705D01*
X0172739Y0261311D01*
X0173133Y0261048D01*
X0173598Y0260955D01*
X0176354D01*
X0176818Y0261048D01*
X0177212Y0261311D01*
X0177475Y0261705D01*
X0177567Y0262169D01*
Y0263350D01*
X0177475Y0263815D01*
X0177212Y0264209D01*
X0176818Y0264472D01*
X0176354Y0264564D01*
X0175743D01*
X0173531Y0266776D01*
X0173914Y0267700D01*
X0196900D01*
Y0257500D01*
D02*
G37*
G36*
X0193400Y0297302D02*
X0189052D01*
Y0295300D01*
X0112499D01*
X0111718Y0295830D01*
Y0300770D01*
X0106581D01*
Y0295830D01*
X0105801Y0295300D01*
X0074400D01*
Y0420700D01*
X0193400D01*
Y0297302D01*
D02*
G37*
G36*
X0316800Y0549000D02*
Y0546100D01*
X0313100Y0542400D01*
X0291700D01*
X0289600Y0544500D01*
X0282900D01*
Y0552700D01*
X0313100D01*
X0316800Y0549000D01*
D02*
G37*
G36*
X0349843Y0559100D02*
X0349933Y0558990D01*
Y0557809D01*
X0349942Y0557764D01*
X0343222Y0551045D01*
X0341398D01*
X0340933Y0550952D01*
X0340539Y0550689D01*
X0340276Y0550295D01*
X0340184Y0549831D01*
Y0548650D01*
X0340193Y0548604D01*
X0338724Y0547135D01*
X0337800Y0547518D01*
Y0556114D01*
X0340786Y0559100D01*
X0349843Y0559100D01*
D02*
G37*
G36*
X0279300Y0544600D02*
X0274847D01*
X0272647Y0542400D01*
X0262100Y0542400D01*
X0258600Y0538900D01*
X0247700Y0538900D01*
Y0547214D01*
X0248210Y0548133D01*
X0249391D01*
X0249855Y0548225D01*
X0250249Y0548488D01*
X0250512Y0548882D01*
X0250595Y0549300D01*
X0279300D01*
Y0544600D01*
D02*
G37*
G36*
X0114416Y0545346D02*
X0114553Y0544655D01*
X0114945Y0544069D01*
X0115531Y0543678D01*
X0116222Y0543540D01*
X0118978D01*
X0119669Y0543678D01*
X0120104Y0543968D01*
X0129100D01*
Y0541524D01*
X0118443D01*
X0118443Y0541524D01*
X0117592Y0541355D01*
X0117303Y0541161D01*
X0116419D01*
X0116419Y0541161D01*
X0115719Y0541069D01*
X0115067Y0540799D01*
X0114750Y0540555D01*
X0114506Y0540369D01*
X0114506Y0540369D01*
X0112942Y0538804D01*
X0103800D01*
Y0545855D01*
X0103921Y0545976D01*
X0114416D01*
Y0545346D01*
D02*
G37*
G36*
X0366613Y0559100D02*
X0366761Y0558920D01*
Y0556960D01*
X0366823Y0556647D01*
X0366508Y0555795D01*
X0366382Y0555644D01*
X0365947Y0555353D01*
X0363246Y0552654D01*
X0362893Y0552124D01*
X0362769Y0551500D01*
Y0545550D01*
X0362781Y0545487D01*
Y0544339D01*
X0360574Y0542131D01*
X0352731D01*
Y0543696D01*
X0353602D01*
X0354067Y0543788D01*
X0354461Y0544051D01*
X0354724Y0544445D01*
X0354816Y0544909D01*
Y0546091D01*
X0354724Y0546555D01*
X0354461Y0546949D01*
X0354067Y0547212D01*
X0353602Y0547304D01*
X0350847D01*
X0350382Y0547212D01*
X0349988Y0546949D01*
X0349725Y0546555D01*
X0349633Y0546091D01*
Y0545059D01*
X0349593Y0545000D01*
X0349469Y0544376D01*
Y0540500D01*
Y0538618D01*
X0348630D01*
Y0533481D01*
X0353570D01*
Y0534613D01*
X0354019Y0535543D01*
X0355276D01*
X0358373Y0532446D01*
X0358903Y0532093D01*
X0359527Y0531969D01*
X0364379D01*
X0364533Y0531865D01*
X0364846Y0531803D01*
X0368381D01*
X0368694Y0531865D01*
X0368958Y0532042D01*
X0369135Y0532307D01*
X0369198Y0532620D01*
Y0534181D01*
X0372872D01*
X0373724Y0533330D01*
Y0528424D01*
X0361800Y0516500D01*
X0337800Y0516500D01*
X0337800Y0528200D01*
Y0531497D01*
X0338724Y0531880D01*
X0340630Y0529974D01*
Y0527882D01*
X0345570D01*
Y0533019D01*
X0345570D01*
X0345489Y0533181D01*
X0345570Y0534181D01*
X0345570D01*
Y0539318D01*
X0345496D01*
Y0541200D01*
X0345367Y0541847D01*
Y0542350D01*
X0345275Y0542815D01*
X0345012Y0543209D01*
X0344618Y0543472D01*
X0344153Y0543564D01*
X0343260D01*
X0343100Y0543596D01*
X0342940Y0543564D01*
X0341398D01*
X0340457Y0544245D01*
X0340388Y0544906D01*
X0342918Y0547436D01*
X0344153D01*
X0344618Y0547528D01*
X0345012Y0547791D01*
X0345275Y0548185D01*
X0345367Y0548650D01*
Y0549296D01*
X0352667Y0556596D01*
X0353902D01*
X0354367Y0556688D01*
X0354761Y0556951D01*
X0355024Y0557345D01*
X0355116Y0557809D01*
Y0558100D01*
X0356071Y0559100D01*
X0366613Y0559100D01*
D02*
G37*
G36*
X0114200Y0557676D02*
X0114491Y0556714D01*
X0114553Y0556403D01*
X0114945Y0555817D01*
X0115531Y0555425D01*
X0116222Y0555288D01*
X0118978D01*
X0119669Y0555425D01*
X0120104Y0555716D01*
X0129100D01*
Y0552173D01*
X0120104D01*
X0119669Y0552464D01*
X0118978Y0552601D01*
X0116222D01*
X0115531Y0552464D01*
X0114945Y0552072D01*
X0114553Y0551486D01*
X0114458Y0551006D01*
X0113956Y0550504D01*
X0103800D01*
Y0556655D01*
X0104821Y0557676D01*
X0114200D01*
X0114200Y0557676D01*
D02*
G37*
G36*
X0292700Y0574000D02*
X0284800D01*
X0281600Y0577200D01*
X0266700D01*
Y0581300D01*
X0292700D01*
Y0574000D01*
D02*
G37*
G36*
X0114416Y0581771D02*
Y0580590D01*
X0114553Y0579899D01*
X0114945Y0579313D01*
X0115531Y0578921D01*
X0116222Y0578783D01*
X0118978D01*
X0119669Y0578921D01*
X0120104Y0579211D01*
X0129100D01*
Y0575669D01*
X0120104D01*
X0119669Y0575959D01*
X0118978Y0576097D01*
X0116222D01*
X0115531Y0575959D01*
X0115256Y0575776D01*
X0115149Y0575755D01*
X0114427Y0575273D01*
X0114427Y0575273D01*
X0113155Y0574000D01*
X0103800D01*
Y0582600D01*
X0113561D01*
X0114416Y0581771D01*
D02*
G37*
G36*
X0114000Y0569476D02*
X0114474Y0568551D01*
X0114553Y0568151D01*
X0114945Y0567565D01*
X0115531Y0567173D01*
X0116222Y0567036D01*
X0118978D01*
X0119669Y0567173D01*
X0120104Y0567464D01*
X0129100D01*
Y0563921D01*
X0120104D01*
X0119669Y0564212D01*
X0118978Y0564349D01*
X0116222D01*
X0115531Y0564212D01*
X0114945Y0563820D01*
X0114802Y0563606D01*
X0114680Y0563525D01*
X0114680Y0563525D01*
X0113407Y0562252D01*
X0103800D01*
Y0567164D01*
X0106112Y0569476D01*
X0114000D01*
X0114000Y0569476D01*
D02*
G37*
G36*
X0283000Y0558900D02*
X0282628Y0558882D01*
X0281897Y0558736D01*
X0281209Y0558451D01*
X0280589Y0558037D01*
X0280063Y0557511D01*
X0279649Y0556891D01*
X0279364Y0556203D01*
X0279218Y0555473D01*
X0279200Y0555100D01*
Y0553400D01*
X0275200D01*
Y0557500D01*
X0273800Y0558900D01*
Y0562900D01*
X0283000D01*
Y0558900D01*
D02*
G37*
G36*
X0264700Y0591500D02*
X0264700Y0580927D01*
Y0555400D01*
X0252500D01*
X0252500Y0571400D01*
X0251615Y0572285D01*
X0251642Y0572420D01*
Y0574380D01*
X0251579Y0574693D01*
X0251402Y0574958D01*
X0251138Y0575135D01*
X0250825Y0575197D01*
X0245518D01*
X0245206Y0575135D01*
X0244941Y0574958D01*
X0244764Y0574693D01*
X0244702Y0574380D01*
Y0573900D01*
X0225300Y0573900D01*
X0225300Y0579100D01*
X0220572D01*
X0218145Y0581527D01*
Y0582402D01*
X0218052Y0582867D01*
X0217789Y0583261D01*
X0217395Y0583524D01*
X0216931Y0583616D01*
X0215750D01*
X0215285Y0583524D01*
X0214891Y0583261D01*
X0214628Y0582867D01*
X0214536Y0582402D01*
Y0579646D01*
X0213625Y0579100D01*
X0207200D01*
X0207200Y0591500D01*
X0264700Y0591500D01*
D02*
G37*
G36*
X0114391Y0533250D02*
X0114529Y0532558D01*
X0114920Y0531972D01*
X0115506Y0531581D01*
X0116198Y0531443D01*
X0118954D01*
X0119645Y0531581D01*
X0120231Y0531972D01*
X0120397Y0532220D01*
X0129100D01*
Y0528678D01*
X0119350D01*
X0118954Y0528757D01*
X0116198D01*
X0115506Y0528619D01*
X0114920Y0528228D01*
X0114832Y0528096D01*
X0114587Y0527932D01*
X0114587Y0527932D01*
X0112879Y0526224D01*
X0104991D01*
X0104991Y0526224D01*
X0104800Y0526186D01*
X0103800Y0526831D01*
Y0533376D01*
X0103820Y0533396D01*
X0114062D01*
X0114062Y0533396D01*
X0114203Y0533414D01*
X0114391Y0533250D01*
D02*
G37*
G36*
X0407160Y0506222D02*
X0407449Y0506165D01*
Y0504635D01*
X0407160Y0504578D01*
X0406571Y0504184D01*
X0406177Y0503595D01*
X0406039Y0502900D01*
X0406177Y0502205D01*
X0406571Y0501616D01*
X0407160Y0501222D01*
X0407449Y0501165D01*
Y0499635D01*
X0407160Y0499578D01*
X0406571Y0499184D01*
X0406177Y0498595D01*
X0406039Y0497900D01*
X0406177Y0497205D01*
X0406571Y0496616D01*
X0407160Y0496222D01*
X0407855Y0496084D01*
X0411202D01*
X0411897Y0496222D01*
X0412486Y0496616D01*
X0412879Y0497205D01*
X0413018Y0497900D01*
X0413003Y0497971D01*
X0414470Y0499438D01*
X0414735Y0499835D01*
X0414828Y0500303D01*
Y0501088D01*
X0414838Y0501094D01*
X0415802Y0500746D01*
X0416262Y0500436D01*
X0416376Y0500318D01*
Y0490507D01*
X0412471Y0486601D01*
X0411853Y0486857D01*
X0410900Y0486983D01*
X0409947Y0486857D01*
X0409059Y0486489D01*
X0408296Y0485904D01*
X0407711Y0485141D01*
X0407343Y0484253D01*
X0407217Y0483300D01*
X0407343Y0482347D01*
X0407711Y0481459D01*
X0408296Y0480696D01*
X0409059Y0480111D01*
X0409947Y0479743D01*
X0410900Y0479617D01*
X0411853Y0479743D01*
X0412741Y0480111D01*
X0413504Y0480696D01*
X0414089Y0481459D01*
X0414457Y0482347D01*
X0414583Y0483300D01*
X0414457Y0484253D01*
X0414201Y0484871D01*
X0418465Y0489135D01*
X0418730Y0489532D01*
X0418823Y0490000D01*
Y0499923D01*
X0418906Y0499978D01*
X0419082Y0500242D01*
X0419144Y0500553D01*
Y0503506D01*
X0419179Y0503550D01*
X0420735Y0503601D01*
X0421456Y0502867D01*
Y0500553D01*
X0421518Y0500242D01*
X0421694Y0499978D01*
X0421776Y0499923D01*
Y0485907D01*
X0412836Y0476966D01*
X0408032D01*
X0407726Y0476906D01*
X0407467Y0476733D01*
X0407294Y0476474D01*
X0407233Y0476168D01*
Y0470432D01*
X0407294Y0470126D01*
X0407467Y0469867D01*
X0407726Y0469694D01*
X0408032Y0469633D01*
X0413768D01*
X0414074Y0469694D01*
X0414333Y0469867D01*
X0414506Y0470126D01*
X0414567Y0470432D01*
Y0475236D01*
X0423865Y0484535D01*
X0423900Y0484587D01*
X0425400Y0484211D01*
Y0422800D01*
X0370300Y0422800D01*
Y0428464D01*
X0371428Y0429684D01*
X0375562D01*
X0375986Y0429769D01*
X0407233D01*
Y0426532D01*
X0407294Y0426226D01*
X0407467Y0425967D01*
X0407726Y0425794D01*
X0408032Y0425734D01*
X0413768D01*
X0414074Y0425794D01*
X0414333Y0425967D01*
X0414506Y0426226D01*
X0414567Y0426532D01*
Y0432268D01*
X0414506Y0432574D01*
X0414333Y0432833D01*
X0414074Y0433006D01*
X0413768Y0433067D01*
X0408032D01*
X0407855Y0433031D01*
X0375986D01*
X0375562Y0433116D01*
X0371428D01*
X0370300Y0434337D01*
Y0492864D01*
X0371428Y0494084D01*
X0374909D01*
X0378430Y0490563D01*
Y0488432D01*
X0377855Y0487170D01*
X0376381D01*
Y0482230D01*
X0377318D01*
Y0480661D01*
X0377442Y0480037D01*
X0377796Y0479508D01*
X0379098Y0478206D01*
Y0476920D01*
X0379160Y0476607D01*
X0379337Y0476342D01*
X0379602Y0476165D01*
X0379605Y0476165D01*
Y0474635D01*
X0379602Y0474635D01*
X0379337Y0474458D01*
X0379160Y0474193D01*
X0379098Y0473880D01*
Y0471920D01*
X0379160Y0471607D01*
X0379337Y0471342D01*
X0379602Y0471165D01*
X0379605Y0471165D01*
Y0469635D01*
X0379602Y0469635D01*
X0379337Y0469458D01*
X0379160Y0469193D01*
X0379098Y0468880D01*
Y0466920D01*
X0379160Y0466607D01*
X0379337Y0466342D01*
X0379602Y0466165D01*
X0379914Y0466103D01*
X0385811D01*
X0386407Y0465507D01*
X0386407Y0465507D01*
X0386771Y0465264D01*
X0387200Y0465178D01*
X0387200Y0465178D01*
X0391148D01*
X0392450Y0464700D01*
Y0461500D01*
X0391355Y0460522D01*
X0390000D01*
X0389571Y0460436D01*
X0389207Y0460193D01*
X0389207Y0460193D01*
X0387567Y0458553D01*
X0387324Y0458189D01*
X0387238Y0457760D01*
X0387238Y0457760D01*
Y0457479D01*
X0386911Y0457261D01*
X0386648Y0456867D01*
X0386555Y0456402D01*
Y0453647D01*
X0386648Y0453182D01*
X0386911Y0452788D01*
X0387305Y0452525D01*
X0387769Y0452433D01*
X0388645D01*
X0392331Y0448746D01*
X0392860Y0448393D01*
X0393484Y0448269D01*
X0407276D01*
X0407294Y0448176D01*
X0407467Y0447917D01*
X0407726Y0447744D01*
X0408032Y0447683D01*
X0413768D01*
X0414074Y0447744D01*
X0414333Y0447917D01*
X0414506Y0448176D01*
X0414567Y0448482D01*
Y0454218D01*
X0414506Y0454524D01*
X0414333Y0454783D01*
X0414074Y0454956D01*
X0413768Y0455017D01*
X0408995D01*
X0408374Y0456517D01*
X0409737Y0457880D01*
X0409947Y0457793D01*
X0410900Y0457667D01*
X0411853Y0457793D01*
X0412741Y0458161D01*
X0413504Y0458746D01*
X0414089Y0459509D01*
X0414457Y0460397D01*
X0414583Y0461350D01*
X0414457Y0462303D01*
X0414089Y0463191D01*
X0413504Y0463954D01*
X0412741Y0464539D01*
X0411853Y0464907D01*
X0410900Y0465033D01*
X0409947Y0464907D01*
X0409059Y0464539D01*
X0408296Y0463954D01*
X0407711Y0463191D01*
X0407343Y0462303D01*
X0407217Y0461350D01*
X0407343Y0460397D01*
X0407430Y0460187D01*
X0403899Y0456656D01*
X0397594D01*
X0397552Y0456867D01*
X0397289Y0457261D01*
X0397242Y0457292D01*
X0397143Y0458856D01*
X0399093Y0460807D01*
X0399093Y0460807D01*
X0399336Y0461171D01*
X0399422Y0461600D01*
X0399422Y0461600D01*
Y0474800D01*
X0399422Y0474800D01*
X0399336Y0475229D01*
X0399093Y0475593D01*
X0397150Y0477536D01*
Y0479300D01*
X0392450D01*
Y0477836D01*
X0388842Y0474228D01*
X0388281Y0474215D01*
X0387263Y0474329D01*
X0387176Y0474458D01*
X0386912Y0474635D01*
X0386908Y0474635D01*
Y0476165D01*
X0386912Y0476165D01*
X0387176Y0476342D01*
X0387353Y0476607D01*
X0387416Y0476920D01*
Y0478880D01*
X0387353Y0479193D01*
X0387176Y0479458D01*
X0386912Y0479635D01*
X0386599Y0479697D01*
X0382221D01*
X0381188Y0480730D01*
X0381518Y0482230D01*
X0382627Y0483174D01*
X0382724Y0483193D01*
X0383254Y0483546D01*
X0387376Y0487669D01*
X0391500D01*
X0392124Y0487793D01*
X0392653Y0488146D01*
X0394225Y0489718D01*
X0394733Y0489773D01*
X0395951Y0489537D01*
X0396186Y0489186D01*
X0396881Y0488722D01*
X0397700Y0488559D01*
X0398519Y0488722D01*
X0399214Y0489186D01*
X0399678Y0489881D01*
X0399841Y0490700D01*
X0399678Y0491519D01*
X0399331Y0492038D01*
Y0501024D01*
X0404576Y0506269D01*
X0407091D01*
X0407160Y0506222D01*
D02*
G37*
G36*
X0114000Y0510676D02*
X0114485Y0509753D01*
X0114553Y0509412D01*
X0114945Y0508826D01*
X0115531Y0508434D01*
X0116222Y0508297D01*
X0118978D01*
X0119669Y0508434D01*
X0120104Y0508725D01*
X0129124D01*
Y0505182D01*
X0120104D01*
X0119669Y0505473D01*
X0118978Y0505610D01*
X0116222D01*
X0115531Y0505473D01*
X0114945Y0505081D01*
X0114621Y0504597D01*
X0113856Y0503832D01*
X0103824D01*
Y0510676D01*
X0114000D01*
X0114000Y0510676D01*
D02*
G37*
G36*
X0281635Y0497043D02*
X0281727Y0496578D01*
X0281991Y0496184D01*
Y0495932D01*
X0281727Y0495539D01*
X0281635Y0495074D01*
X0281636Y0495069D01*
X0281404Y0494771D01*
X0280810Y0494320D01*
X0280200Y0494441D01*
X0279381Y0494278D01*
X0278686Y0493814D01*
X0278222Y0493119D01*
X0278059Y0492300D01*
X0278222Y0491481D01*
X0278686Y0490786D01*
X0279381Y0490322D01*
X0279491Y0490300D01*
X0279535Y0490235D01*
X0279932Y0489970D01*
X0280400Y0489877D01*
X0280586Y0489914D01*
X0285014D01*
X0285063Y0489923D01*
X0287179D01*
X0287524Y0489640D01*
Y0488423D01*
X0269574D01*
X0269045Y0489283D01*
X0269094Y0489563D01*
X0269241Y0490300D01*
X0269078Y0491119D01*
X0268614Y0491814D01*
X0267919Y0492278D01*
X0267100Y0492441D01*
X0266956Y0492412D01*
X0266900Y0492423D01*
X0266583Y0492360D01*
X0265996D01*
X0265165Y0493106D01*
X0265128Y0493290D01*
X0265354Y0493778D01*
X0266381Y0494181D01*
X0267200Y0494018D01*
X0268019Y0494181D01*
X0268714Y0494645D01*
X0268908Y0494935D01*
X0269079D01*
X0269548Y0495028D01*
X0269945Y0495294D01*
X0272438Y0497788D01*
X0280804D01*
X0281635Y0497043D01*
D02*
G37*
G36*
X0114391Y0498750D02*
X0114529Y0498058D01*
X0114920Y0497472D01*
X0115506Y0497081D01*
X0116198Y0496943D01*
X0118954D01*
X0119123Y0496977D01*
X0129100D01*
Y0494724D01*
X0118216D01*
X0118216Y0494724D01*
X0117413Y0494564D01*
X0116822D01*
X0116822Y0494564D01*
X0116203Y0494483D01*
X0116122Y0494472D01*
X0115931Y0494393D01*
X0115470Y0494202D01*
X0115153Y0493959D01*
X0114910Y0493772D01*
X0114910Y0493772D01*
X0113842Y0492704D01*
X0103800D01*
Y0499384D01*
X0114391D01*
Y0498750D01*
D02*
G37*
G36*
X0308400Y0494500D02*
X0302500D01*
X0300800Y0492800D01*
X0290500D01*
X0290500Y0501865D01*
X0291281Y0502522D01*
X0291600Y0502459D01*
X0292419Y0502622D01*
X0293114Y0503086D01*
X0293578Y0503781D01*
X0293741Y0504600D01*
X0294582Y0505500D01*
X0308400Y0505500D01*
X0308400Y0494500D01*
D02*
G37*
G36*
X0244200Y0509500D02*
Y0505200D01*
X0236700D01*
Y0512000D01*
X0241700D01*
X0244200Y0509500D01*
D02*
G37*
G36*
X0417732Y0556100D02*
X0418798Y0555054D01*
Y0550252D01*
X0421516D01*
Y0541702D01*
X0420746D01*
Y0535698D01*
X0421469D01*
Y0533750D01*
X0420000D01*
Y0526250D01*
X0422969D01*
Y0521722D01*
X0418703Y0517457D01*
X0417550D01*
X0414454Y0520553D01*
X0413924Y0520907D01*
X0413300Y0521031D01*
X0410621D01*
X0410467Y0521135D01*
X0410154Y0521197D01*
X0406619D01*
X0406306Y0521135D01*
X0406042Y0520958D01*
X0405865Y0520693D01*
X0405802Y0520380D01*
Y0518798D01*
X0405574Y0518250D01*
X0404626Y0517545D01*
X0404569Y0517519D01*
X0400330D01*
Y0517291D01*
X0398009D01*
X0397903Y0517270D01*
X0394581D01*
Y0512330D01*
X0399718D01*
X0399718Y0512330D01*
X0401169Y0512211D01*
Y0507476D01*
X0396547Y0502853D01*
X0396193Y0502324D01*
X0396069Y0501700D01*
Y0495481D01*
X0395411Y0495261D01*
X0394569Y0495232D01*
X0394354Y0495553D01*
X0391450Y0498457D01*
X0391423Y0498595D01*
X0391029Y0499184D01*
X0390440Y0499578D01*
X0389745Y0499716D01*
X0386398D01*
X0385703Y0499578D01*
X0385634Y0499531D01*
X0383370D01*
Y0499868D01*
X0378430D01*
Y0497088D01*
X0376930Y0496782D01*
X0376775Y0497013D01*
X0376219Y0497385D01*
X0375562Y0497516D01*
X0371428D01*
X0370300Y0498736D01*
Y0500613D01*
X0371428Y0501834D01*
X0375562D01*
X0375986Y0501919D01*
X0378550D01*
Y0501750D01*
X0380742D01*
X0380900Y0501719D01*
X0381058Y0501750D01*
X0383250D01*
Y0504950D01*
X0381485D01*
X0381324Y0505057D01*
X0380700Y0505181D01*
X0375986D01*
X0375562Y0505266D01*
X0371428D01*
X0370300Y0506487D01*
Y0510500D01*
X0378550Y0510500D01*
Y0507750D01*
X0380742D01*
X0380900Y0507719D01*
X0384618D01*
X0384721Y0507205D01*
X0385114Y0506616D01*
X0385703Y0506222D01*
X0386398Y0506084D01*
X0389745D01*
X0390440Y0506222D01*
X0391029Y0506616D01*
X0391423Y0507205D01*
X0391561Y0507900D01*
X0391423Y0508595D01*
X0391029Y0509184D01*
X0390440Y0509578D01*
X0389745Y0509716D01*
X0388563D01*
X0387775Y0510503D01*
X0387246Y0510857D01*
X0386622Y0510981D01*
X0385041D01*
X0384467Y0512367D01*
X0396500Y0524400D01*
X0406776Y0534676D01*
X0407650Y0535507D01*
X0409100Y0535698D01*
X0412654D01*
Y0541610D01*
X0413828D01*
Y0546590D01*
X0409100D01*
X0408219Y0546590D01*
X0407600Y0547833D01*
X0407600Y0556100D01*
X0417732Y0556100D01*
D02*
G37*
G36*
X0272647Y0530500D02*
X0262530D01*
Y0540300D01*
X0272647D01*
Y0530500D01*
D02*
G37*
G36*
X0114391Y0486250D02*
X0114529Y0485558D01*
X0114920Y0484972D01*
X0115506Y0484581D01*
X0116198Y0484443D01*
X0118954D01*
X0119645Y0484581D01*
X0120231Y0484972D01*
X0120403Y0485229D01*
X0129100D01*
Y0481768D01*
X0129019Y0481687D01*
X0119305D01*
X0118954Y0481757D01*
X0116198D01*
X0115506Y0481619D01*
X0114920Y0481228D01*
X0114529Y0480642D01*
X0114516Y0480578D01*
X0113462Y0479524D01*
X0103800D01*
Y0487296D01*
X0114391D01*
Y0486250D01*
D02*
G37*
G36*
X0351100Y0512443D02*
Y0506900D01*
X0344000Y0506900D01*
Y0509900D01*
X0347724Y0513624D01*
X0349919D01*
X0351100Y0512443D01*
D02*
G37*
G36*
X0113800Y0521776D02*
X0114553Y0521160D01*
X0114945Y0520574D01*
X0115531Y0520182D01*
X0116222Y0520045D01*
X0118978D01*
X0119669Y0520182D01*
X0120104Y0520473D01*
X0129124D01*
Y0516930D01*
X0120104D01*
X0119669Y0517221D01*
X0118978Y0517358D01*
X0116222D01*
X0115531Y0517221D01*
X0115230Y0517020D01*
X0115210Y0517016D01*
X0114489Y0516534D01*
X0114489Y0516534D01*
X0113079Y0515124D01*
X0103824D01*
Y0519688D01*
X0105912Y0521776D01*
X0113800D01*
X0113800Y0521776D01*
D02*
G37*
%LPC*%
G36*
X0297918Y0319470D02*
X0292781D01*
Y0314530D01*
X0294363D01*
X0296198Y0312695D01*
Y0309346D01*
X0302202D01*
Y0314149D01*
X0299358D01*
X0297918Y0315589D01*
Y0319470D01*
D02*
G37*
G36*
X0179570Y0199119D02*
X0174630D01*
Y0193982D01*
X0174630D01*
X0174616Y0193005D01*
X0174305Y0192943D01*
X0174041Y0192767D01*
X0173865Y0192503D01*
X0173803Y0192192D01*
Y0188649D01*
X0173865Y0188338D01*
X0174041Y0188075D01*
X0174305Y0187899D01*
X0174616Y0187837D01*
X0188002D01*
X0188312Y0187899D01*
X0188576Y0188075D01*
X0188752Y0188338D01*
X0188814Y0188649D01*
Y0192192D01*
X0188752Y0192503D01*
X0188576Y0192767D01*
X0188312Y0192943D01*
X0188002Y0193005D01*
X0179626D01*
X0179570Y0193982D01*
X0179570D01*
Y0199119D01*
D02*
G37*
G36*
X0176000Y0250941D02*
X0175181Y0250778D01*
X0174486Y0250314D01*
X0174022Y0249619D01*
X0173859Y0248800D01*
X0174022Y0247981D01*
X0174486Y0247286D01*
X0174630Y0247190D01*
Y0243281D01*
X0179570D01*
Y0248418D01*
X0178843D01*
X0178843Y0248422D01*
X0178434Y0249034D01*
X0178010Y0249457D01*
X0177978Y0249619D01*
X0177514Y0250314D01*
X0176819Y0250778D01*
X0176000Y0250941D01*
D02*
G37*
G36*
Y0207841D02*
X0175181Y0207678D01*
X0174486Y0207214D01*
X0174022Y0206519D01*
X0173859Y0205700D01*
X0174022Y0204881D01*
X0174486Y0204186D01*
X0174630Y0204090D01*
Y0200281D01*
X0179570D01*
Y0205418D01*
X0178778D01*
X0178434Y0205934D01*
X0178010Y0206357D01*
X0177978Y0206519D01*
X0177514Y0207214D01*
X0176819Y0207678D01*
X0176000Y0207841D01*
D02*
G37*
G36*
X0179570Y0242119D02*
X0174630D01*
Y0236982D01*
X0174630Y0236982D01*
X0174506Y0236033D01*
X0174305Y0235993D01*
X0174041Y0235817D01*
X0173865Y0235553D01*
X0173803Y0235243D01*
Y0231699D01*
X0173865Y0231388D01*
X0174041Y0231125D01*
X0174305Y0230949D01*
X0174616Y0230887D01*
X0188002D01*
X0188312Y0230949D01*
X0188576Y0231125D01*
X0188752Y0231388D01*
X0188814Y0231699D01*
Y0235243D01*
X0188752Y0235553D01*
X0188576Y0235817D01*
X0188312Y0235993D01*
X0188002Y0236055D01*
X0179746D01*
X0179570Y0236982D01*
X0179570Y0236982D01*
X0179570Y0236982D01*
Y0242119D01*
D02*
G37*
%LPD*%
G54D10*
X0422859Y0502029D02*
D03*
X0417741D02*
D03*
X0420300Y0493171D02*
D03*
G54D11*
X0273150Y0586300D02*
D03*
X0279450D02*
D03*
X0223050Y0493300D02*
D03*
X0229350D02*
D03*
X0271450Y0463200D02*
D03*
X0265150D02*
D03*
X0171850Y0459900D02*
D03*
X0165550D02*
D03*
X0137151Y0451335D02*
D03*
X0143450D02*
D03*
X0228250Y0576000D02*
D03*
X0221950D02*
D03*
X0185050Y0580700D02*
D03*
X0178750D02*
D03*
X0289050Y0317000D02*
D03*
X0295350D02*
D03*
X0300050Y0268400D02*
D03*
X0293750D02*
D03*
X0280650Y0292100D02*
D03*
X0286950D02*
D03*
X0276850Y0312600D02*
D03*
X0270550D02*
D03*
X0281450Y0335800D02*
D03*
X0287750D02*
D03*
X0274750Y0365100D02*
D03*
X0281050D02*
D03*
X0423450Y0506700D02*
D03*
X0417150D02*
D03*
X0330950Y0466700D02*
D03*
X0324650D02*
D03*
X0330950Y0456325D02*
D03*
X0324650D02*
D03*
X0330950Y0445950D02*
D03*
X0324650D02*
D03*
X0330950Y0435575D02*
D03*
X0324650D02*
D03*
X0330950Y0425200D02*
D03*
X0324650D02*
D03*
X0223050Y0487800D02*
D03*
X0229350D02*
D03*
X0219750Y0518900D02*
D03*
X0226050D02*
D03*
X0290250Y0450400D02*
D03*
X0283950D02*
D03*
X0266352Y0438500D02*
D03*
X0272651D02*
D03*
X0208850Y0507000D02*
D03*
X0202550D02*
D03*
X0179550Y0544400D02*
D03*
X0185850D02*
D03*
X0191350Y0455400D02*
D03*
X0185050D02*
D03*
X0137151Y0581290D02*
D03*
X0143450D02*
D03*
X0137151Y0570461D02*
D03*
X0143450D02*
D03*
X0137151Y0559631D02*
D03*
X0143450D02*
D03*
X0137151Y0548802D02*
D03*
X0143450D02*
D03*
X0137151Y0575876D02*
D03*
X0143450D02*
D03*
X0137151Y0565046D02*
D03*
X0143450D02*
D03*
X0137151Y0554216D02*
D03*
X0143450D02*
D03*
X0137151Y0543387D02*
D03*
X0143450D02*
D03*
X0199150Y0562100D02*
D03*
X0205450D02*
D03*
X0172981Y0564342D02*
D03*
X0179280D02*
D03*
X0172481Y0555642D02*
D03*
X0178780D02*
D03*
X0137151Y0532557D02*
D03*
X0143450D02*
D03*
X0137151Y0521728D02*
D03*
X0143450D02*
D03*
X0137151Y0510898D02*
D03*
X0143450D02*
D03*
X0137151Y0500068D02*
D03*
X0143450D02*
D03*
X0137151Y0537972D02*
D03*
X0143450D02*
D03*
X0137151Y0527142D02*
D03*
X0143450D02*
D03*
X0137151Y0516313D02*
D03*
X0143450D02*
D03*
X0137151Y0505483D02*
D03*
X0143450D02*
D03*
X0137151Y0494654D02*
D03*
X0143450D02*
D03*
X0137151Y0483824D02*
D03*
X0143450D02*
D03*
X0137151Y0472994D02*
D03*
X0143450D02*
D03*
X0137151Y0462165D02*
D03*
X0143450D02*
D03*
X0137151Y0440506D02*
D03*
X0143450D02*
D03*
X0137151Y0489239D02*
D03*
X0143450D02*
D03*
X0137151Y0478409D02*
D03*
X0143450D02*
D03*
X0137151Y0467580D02*
D03*
X0143450D02*
D03*
X0137151Y0456750D02*
D03*
X0143450D02*
D03*
X0137151Y0445920D02*
D03*
X0143450D02*
D03*
X0137151Y0435091D02*
D03*
X0143450D02*
D03*
X0394250Y0291500D02*
D03*
X0387950D02*
D03*
X0303550Y0159600D02*
D03*
X0297250D02*
D03*
X0261150Y0586300D02*
D03*
X0267450D02*
D03*
X0220399Y0442000D02*
D03*
X0214100D02*
D03*
X0378950Y0484700D02*
D03*
X0372650D02*
D03*
X0365350Y0544600D02*
D03*
X0359050D02*
D03*
X0397150Y0514800D02*
D03*
X0390850D02*
D03*
X0342350Y0484700D02*
D03*
X0348650D02*
D03*
X0229350Y0481800D02*
D03*
X0223050D02*
D03*
X0185050Y0460500D02*
D03*
X0191350D02*
D03*
X0149150Y0545500D02*
D03*
X0155450D02*
D03*
X0149150Y0540100D02*
D03*
X0155450D02*
D03*
X0149050Y0435000D02*
D03*
X0155350D02*
D03*
X0283550Y0555300D02*
D03*
X0277250D02*
D03*
X0161950Y0199700D02*
D03*
X0155650D02*
D03*
X0305450Y0176000D02*
D03*
X0299150D02*
D03*
X0305450Y0218600D02*
D03*
X0299150D02*
D03*
X0305450Y0261900D02*
D03*
X0299150D02*
D03*
X0102850Y0298300D02*
D03*
X0109150D02*
D03*
X0255150Y0557900D02*
D03*
X0248850D02*
D03*
X0271550Y0552400D02*
D03*
X0265250D02*
D03*
X0268250Y0557900D02*
D03*
X0261950D02*
D03*
G54D12*
X0218700Y0503550D02*
D03*
Y0497250D02*
D03*
X0275700Y0573050D02*
D03*
Y0579350D02*
D03*
X0264400Y0538150D02*
D03*
Y0544450D02*
D03*
X0176900Y0448050D02*
D03*
Y0454350D02*
D03*
X0160507Y0448050D02*
D03*
Y0454350D02*
D03*
X0171500Y0448050D02*
D03*
Y0454350D02*
D03*
X0166000Y0454350D02*
D03*
Y0448050D02*
D03*
X0204000Y0574850D02*
D03*
Y0581150D02*
D03*
X0243300Y0557750D02*
D03*
Y0551450D02*
D03*
X0225433Y0430850D02*
D03*
Y0437150D02*
D03*
X0209133Y0430850D02*
D03*
Y0437150D02*
D03*
X0268800Y0296650D02*
D03*
Y0290350D02*
D03*
X0299100Y0282450D02*
D03*
Y0288750D02*
D03*
X0263100Y0300850D02*
D03*
Y0294550D02*
D03*
X0263200Y0312550D02*
D03*
Y0306250D02*
D03*
X0167200Y0270550D02*
D03*
Y0264250D02*
D03*
X0288700Y0348350D02*
D03*
Y0342050D02*
D03*
X0189800Y0270850D02*
D03*
Y0264550D02*
D03*
X0204300Y0307250D02*
D03*
Y0300950D02*
D03*
X0269190Y0365094D02*
D03*
Y0358795D02*
D03*
X0263840Y0365094D02*
D03*
Y0358795D02*
D03*
X0258490Y0365094D02*
D03*
Y0358795D02*
D03*
X0253140Y0365094D02*
D03*
Y0358795D02*
D03*
X0380900Y0491000D02*
D03*
Y0497300D02*
D03*
X0340200Y0502800D02*
D03*
Y0509100D02*
D03*
X0340193Y0496700D02*
D03*
Y0490400D02*
D03*
X0333800Y0529750D02*
D03*
Y0536050D02*
D03*
X0328200Y0529750D02*
D03*
Y0536050D02*
D03*
X0277416Y0518009D02*
D03*
Y0511709D02*
D03*
X0271916Y0518009D02*
D03*
Y0511709D02*
D03*
X0311900Y0488650D02*
D03*
Y0494950D02*
D03*
X0246400Y0479650D02*
D03*
Y0473350D02*
D03*
X0244900Y0485350D02*
D03*
Y0491650D02*
D03*
X0231940Y0517453D02*
D03*
Y0511154D02*
D03*
X0209200Y0514150D02*
D03*
Y0520450D02*
D03*
X0294800Y0425450D02*
D03*
Y0431750D02*
D03*
X0294600Y0444450D02*
D03*
Y0438150D02*
D03*
X0300900Y0438250D02*
D03*
Y0444550D02*
D03*
X0091100Y0574250D02*
D03*
Y0580550D02*
D03*
X0388000Y0282950D02*
D03*
Y0276650D02*
D03*
X0309100Y0166050D02*
D03*
Y0159750D02*
D03*
X0220000Y0430850D02*
D03*
Y0437150D02*
D03*
X0214560Y0437150D02*
D03*
Y0430850D02*
D03*
X0257600Y0294550D02*
D03*
Y0300850D02*
D03*
X0281190Y0348271D02*
D03*
Y0341971D02*
D03*
X0220600Y0458950D02*
D03*
Y0452650D02*
D03*
X0270777Y0538114D02*
D03*
Y0544413D02*
D03*
X0292700Y0494795D02*
D03*
Y0488495D02*
D03*
X0293600Y0538114D02*
D03*
Y0544413D02*
D03*
X0206900Y0476450D02*
D03*
Y0470150D02*
D03*
X0209600Y0501750D02*
D03*
Y0495450D02*
D03*
X0149100Y0581250D02*
D03*
Y0574950D02*
D03*
Y0569250D02*
D03*
Y0562950D02*
D03*
X0149000Y0557250D02*
D03*
Y0550950D02*
D03*
Y0534550D02*
D03*
Y0528250D02*
D03*
Y0522650D02*
D03*
Y0516350D02*
D03*
Y0510750D02*
D03*
Y0504450D02*
D03*
Y0487950D02*
D03*
Y0481650D02*
D03*
Y0475950D02*
D03*
Y0469650D02*
D03*
Y0464050D02*
D03*
Y0457750D02*
D03*
Y0452250D02*
D03*
Y0445950D02*
D03*
X0351100Y0529750D02*
D03*
Y0536050D02*
D03*
X0371300Y0530450D02*
D03*
Y0536750D02*
D03*
X0402800Y0521250D02*
D03*
Y0514950D02*
D03*
X0343100Y0530450D02*
D03*
Y0536750D02*
D03*
X0341700Y0437050D02*
D03*
Y0430750D02*
D03*
X0275700Y0567200D02*
D03*
Y0560901D02*
D03*
X0149400Y0206150D02*
D03*
Y0199850D02*
D03*
X0281100Y0560901D02*
D03*
Y0567200D02*
D03*
X0177100Y0239550D02*
D03*
Y0245850D02*
D03*
X0170900Y0276650D02*
D03*
Y0282950D02*
D03*
X0177100Y0196550D02*
D03*
Y0202850D02*
D03*
X0109100Y0292550D02*
D03*
Y0286250D02*
D03*
X0221900Y0314150D02*
D03*
Y0307850D02*
D03*
G54D13*
X0274500Y0523376D02*
D03*
X0270760Y0532824D02*
D03*
X0278240D02*
D03*
X0392100Y0445576D02*
D03*
X0388360Y0455024D02*
D03*
X0395840D02*
D03*
X0212600Y0571576D02*
D03*
X0208860Y0581024D02*
D03*
X0216340D02*
D03*
X0195300Y0571676D02*
D03*
X0191560Y0581124D02*
D03*
X0199040D02*
D03*
X0158400Y0214324D02*
D03*
X0162140Y0204876D02*
D03*
X0154660D02*
D03*
X0223100Y0504076D02*
D03*
X0219360Y0513524D02*
D03*
X0226840D02*
D03*
X0189131Y0565267D02*
D03*
X0192871Y0555818D02*
D03*
X0185390D02*
D03*
X0245060Y0541276D02*
D03*
X0252540D02*
D03*
X0248800Y0550724D02*
D03*
G54D14*
X0127049Y0448215D02*
D03*
X0117600Y0444475D02*
D03*
Y0451955D02*
D03*
X0227924Y0298000D02*
D03*
X0218476Y0294260D02*
D03*
Y0301740D02*
D03*
X0184424Y0266500D02*
D03*
X0174976Y0262760D02*
D03*
Y0270240D02*
D03*
X0352224Y0545500D02*
D03*
X0342776Y0541760D02*
D03*
Y0549240D02*
D03*
X0232776Y0504900D02*
D03*
X0242224Y0508640D02*
D03*
Y0501160D02*
D03*
X0275326Y0429100D02*
D03*
X0265877Y0425360D02*
D03*
Y0432840D02*
D03*
X0127049Y0577440D02*
D03*
X0117600Y0573700D02*
D03*
Y0581180D02*
D03*
X0127049Y0565692D02*
D03*
X0117600Y0561952D02*
D03*
Y0569432D02*
D03*
X0127049Y0553945D02*
D03*
X0117600Y0550205D02*
D03*
Y0557685D02*
D03*
X0127049Y0542197D02*
D03*
X0117600Y0538457D02*
D03*
Y0545937D02*
D03*
X0127024Y0530100D02*
D03*
X0117576Y0526360D02*
D03*
Y0533840D02*
D03*
X0127049Y0518701D02*
D03*
X0117600Y0514961D02*
D03*
Y0522441D02*
D03*
X0127049Y0506954D02*
D03*
X0117600Y0503213D02*
D03*
Y0510694D02*
D03*
X0127024Y0495600D02*
D03*
X0117576Y0491860D02*
D03*
Y0499340D02*
D03*
X0127024Y0483100D02*
D03*
X0117576Y0479360D02*
D03*
Y0486840D02*
D03*
X0127049Y0471710D02*
D03*
X0117600Y0467970D02*
D03*
Y0475451D02*
D03*
X0127049Y0459963D02*
D03*
X0117600Y0456222D02*
D03*
Y0463703D02*
D03*
X0127049Y0436467D02*
D03*
X0117600Y0432727D02*
D03*
Y0440207D02*
D03*
X0352524Y0558400D02*
D03*
X0343076Y0554660D02*
D03*
Y0562140D02*
D03*
X0241776Y0343500D02*
D03*
X0251224Y0347240D02*
D03*
Y0339760D02*
D03*
G54D15*
X0131799Y0450946D02*
D03*
Y0446615D02*
D03*
X0131800Y0579531D02*
D03*
Y0575200D02*
D03*
X0131800Y0567841D02*
D03*
Y0563510D02*
D03*
X0131800Y0556152D02*
D03*
Y0551821D02*
D03*
X0131800Y0544462D02*
D03*
Y0540131D02*
D03*
X0131800Y0532772D02*
D03*
Y0528442D02*
D03*
Y0521083D02*
D03*
Y0516752D02*
D03*
X0131800Y0509393D02*
D03*
Y0505063D02*
D03*
X0131799Y0497704D02*
D03*
Y0493373D02*
D03*
X0131800Y0486014D02*
D03*
Y0481683D02*
D03*
Y0474325D02*
D03*
Y0469994D02*
D03*
Y0462635D02*
D03*
Y0458304D02*
D03*
X0131799Y0439256D02*
D03*
Y0434925D02*
D03*
G54D16*
X0269628Y0563400D02*
D03*
Y0568400D02*
D03*
Y0573400D02*
D03*
Y0578400D02*
D03*
X0248172Y0563400D02*
D03*
Y0568400D02*
D03*
Y0573400D02*
D03*
Y0578400D02*
D03*
G54D17*
X0258900Y0570900D02*
D03*
G54D18*
X0258133Y0328500D02*
D03*
X0260692D02*
D03*
X0263251D02*
D03*
X0265810D02*
D03*
X0268369D02*
D03*
X0270928D02*
D03*
X0273487D02*
D03*
X0276046D02*
D03*
X0258133Y0350941D02*
D03*
X0260692D02*
D03*
X0263251D02*
D03*
X0265810D02*
D03*
X0268369D02*
D03*
X0270928D02*
D03*
X0273487D02*
D03*
X0276046D02*
D03*
G54D19*
X0388072Y0507900D02*
D03*
Y0502900D02*
D03*
Y0497900D02*
D03*
Y0492900D02*
D03*
X0409528Y0507900D02*
D03*
Y0502900D02*
D03*
Y0497900D02*
D03*
Y0492900D02*
D03*
G54D20*
X0408387Y0523140D02*
D03*
Y0519400D02*
D03*
Y0515660D02*
D03*
X0419213D02*
D03*
Y0523140D02*
D03*
X0369345Y0550460D02*
D03*
Y0554200D02*
D03*
Y0557940D02*
D03*
X0358518D02*
D03*
Y0550460D02*
D03*
X0287627Y0545840D02*
D03*
Y0538360D02*
D03*
X0276800D02*
D03*
Y0542100D02*
D03*
Y0545840D02*
D03*
X0366613Y0529860D02*
D03*
Y0533600D02*
D03*
Y0537340D02*
D03*
X0355787D02*
D03*
Y0529860D02*
D03*
G54D21*
X0373495Y0503550D02*
D03*
Y0508550D02*
D03*
X0347905Y0503550D02*
D03*
Y0508550D02*
D03*
Y0495800D02*
D03*
Y0490800D02*
D03*
X0373495Y0495800D02*
D03*
Y0490800D02*
D03*
X0347905Y0436400D02*
D03*
Y0431400D02*
D03*
X0373495Y0436400D02*
D03*
Y0431400D02*
D03*
G54D22*
X0241317Y0475217D02*
D03*
X0238758D02*
D03*
X0236199D02*
D03*
X0233640D02*
D03*
X0231081D02*
D03*
X0228522D02*
D03*
X0225963D02*
D03*
X0241317Y0451989D02*
D03*
X0238758D02*
D03*
X0236199D02*
D03*
X0233640D02*
D03*
X0231081D02*
D03*
X0228522D02*
D03*
X0225963D02*
D03*
G54D23*
X0285014Y0469484D02*
D03*
Y0471452D02*
D03*
Y0473420D02*
D03*
Y0475389D02*
D03*
Y0477357D02*
D03*
Y0479326D02*
D03*
Y0481294D02*
D03*
Y0483263D02*
D03*
Y0485231D02*
D03*
Y0487200D02*
D03*
Y0489169D02*
D03*
Y0491137D02*
D03*
Y0493106D02*
D03*
Y0495074D02*
D03*
Y0497043D02*
D03*
Y0499011D02*
D03*
Y0500980D02*
D03*
Y0502948D02*
D03*
Y0504916D02*
D03*
X0261786Y0469484D02*
D03*
Y0471452D02*
D03*
Y0473420D02*
D03*
Y0475389D02*
D03*
Y0477357D02*
D03*
Y0479326D02*
D03*
Y0481294D02*
D03*
Y0483263D02*
D03*
Y0485231D02*
D03*
Y0487200D02*
D03*
Y0489169D02*
D03*
Y0491137D02*
D03*
Y0493106D02*
D03*
Y0495074D02*
D03*
Y0497043D02*
D03*
Y0499011D02*
D03*
Y0500980D02*
D03*
Y0502948D02*
D03*
Y0504916D02*
D03*
X0172369Y0507356D02*
D03*
Y0505388D02*
D03*
Y0503419D02*
D03*
Y0501451D02*
D03*
Y0499482D02*
D03*
Y0497514D02*
D03*
Y0495545D02*
D03*
Y0493577D02*
D03*
Y0491608D02*
D03*
Y0489640D02*
D03*
Y0487671D02*
D03*
Y0485703D02*
D03*
Y0483734D02*
D03*
Y0481766D02*
D03*
Y0479797D02*
D03*
Y0477829D02*
D03*
Y0475860D02*
D03*
Y0473892D02*
D03*
Y0471923D02*
D03*
Y0469955D02*
D03*
Y0467986D02*
D03*
Y0466018D02*
D03*
X0195598Y0507356D02*
D03*
Y0505388D02*
D03*
Y0503419D02*
D03*
Y0501451D02*
D03*
Y0499482D02*
D03*
Y0497514D02*
D03*
Y0495545D02*
D03*
Y0493577D02*
D03*
Y0491608D02*
D03*
Y0489640D02*
D03*
Y0487671D02*
D03*
Y0485703D02*
D03*
Y0483734D02*
D03*
Y0481766D02*
D03*
Y0479797D02*
D03*
Y0477829D02*
D03*
Y0475860D02*
D03*
Y0473892D02*
D03*
Y0471923D02*
D03*
Y0469955D02*
D03*
Y0467986D02*
D03*
Y0466018D02*
D03*
G54D24*
X0375039Y0564100D02*
D03*
Y0554100D02*
D03*
Y0544100D02*
D03*
X0411024D02*
D03*
Y0554100D02*
D03*
Y0564100D02*
D03*
G54D25*
X0225652Y0533400D02*
D03*
X0257148D02*
D03*
X0326352Y0520400D02*
D03*
X0357848D02*
D03*
G54D26*
X0251614Y0323600D02*
D03*
X0228386D02*
D03*
X0251614Y0310400D02*
D03*
X0228386D02*
D03*
X0190786Y0413500D02*
D03*
X0214014D02*
D03*
X0190786Y0400100D02*
D03*
X0214014D02*
D03*
G54D27*
X0274000Y0297500D02*
D03*
X0280000D02*
D03*
X0155200Y0440400D02*
D03*
X0149200D02*
D03*
X0239600Y0521400D02*
D03*
X0245600D02*
D03*
G54D28*
X0394800Y0471700D02*
D03*
Y0477700D02*
D03*
Y0463100D02*
D03*
Y0469100D02*
D03*
X0380900Y0509350D02*
D03*
Y0503350D02*
D03*
X0390000Y0469200D02*
D03*
Y0463200D02*
D03*
X0209600Y0484400D02*
D03*
Y0490400D02*
D03*
X0203000Y0492000D02*
D03*
Y0486000D02*
D03*
X0202900Y0502200D02*
D03*
Y0496200D02*
D03*
X0201700Y0477500D02*
D03*
Y0471500D02*
D03*
X0215700D02*
D03*
Y0477500D02*
D03*
X0153600Y0492000D02*
D03*
Y0498000D02*
D03*
X0149000Y0492500D02*
D03*
Y0498500D02*
D03*
X0211500Y0471500D02*
D03*
Y0477500D02*
D03*
X0306500Y0495900D02*
D03*
Y0489900D02*
D03*
G54D29*
X0099382Y0577700D02*
D03*
X0110800D02*
D03*
X0099382Y0565892D02*
D03*
X0110800D02*
D03*
X0099382Y0554083D02*
D03*
X0110800D02*
D03*
X0099382Y0542275D02*
D03*
X0110800D02*
D03*
X0099291Y0529700D02*
D03*
X0110709D02*
D03*
X0099391Y0518400D02*
D03*
X0110809D02*
D03*
X0099382Y0506850D02*
D03*
X0110800D02*
D03*
X0099382Y0496342D02*
D03*
X0110800D02*
D03*
X0099382Y0483233D02*
D03*
X0110800D02*
D03*
X0099382Y0471425D02*
D03*
X0110800D02*
D03*
X0099382Y0459617D02*
D03*
X0110800D02*
D03*
X0099382Y0447808D02*
D03*
X0110800D02*
D03*
X0099382Y0436000D02*
D03*
X0110800D02*
D03*
G54D30*
X0255258Y0266521D02*
D03*
Y0223471D02*
D03*
Y0180421D02*
D03*
X0220285Y0266521D02*
D03*
Y0223471D02*
D03*
Y0180421D02*
D03*
G54D31*
X0294234Y0276521D02*
D03*
Y0256521D02*
D03*
Y0233471D02*
D03*
Y0213471D02*
D03*
Y0190421D02*
D03*
Y0170421D02*
D03*
X0181309Y0256521D02*
D03*
Y0276521D02*
D03*
Y0213471D02*
D03*
Y0233471D02*
D03*
Y0170421D02*
D03*
Y0190421D02*
D03*
G54D32*
X0291400Y0288940D02*
D03*
X0293959Y0281460D02*
D03*
X0288841D02*
D03*
G54D33*
X0288784Y0570100D02*
D03*
X0324217D02*
D03*
G54D34*
X0126295Y0177600D02*
D03*
X0163105D02*
D03*
G54D35*
X0150129Y0241300D02*
D03*
X0166271D02*
D03*
G54D36*
X0158200Y0219351D02*
D03*
G54D37*
X0407000Y0274699D02*
D03*
Y0292101D02*
D03*
X0094100Y0299601D02*
D03*
Y0282199D02*
D03*
G54D38*
X0173553Y0573600D02*
D03*
X0186447D02*
D03*
X0270553Y0304600D02*
D03*
X0283447D02*
D03*
X0276647Y0319800D02*
D03*
X0263753D02*
D03*
X0261653Y0455659D02*
D03*
X0274547D02*
D03*
X0178953Y0285000D02*
D03*
X0191847D02*
D03*
X0191453Y0294300D02*
D03*
X0204347D02*
D03*
X0423147Y0538700D02*
D03*
X0410253D02*
D03*
X0298247Y0524700D02*
D03*
X0285353D02*
D03*
X0305653D02*
D03*
X0318547D02*
D03*
X0184447Y0515100D02*
D03*
X0171553D02*
D03*
X0184447Y0527500D02*
D03*
X0171553D02*
D03*
X0184647Y0537100D02*
D03*
X0171753D02*
D03*
X0210847Y0555600D02*
D03*
X0197953D02*
D03*
X0146447Y0429300D02*
D03*
X0133553D02*
D03*
G54D39*
X0307600Y0297747D02*
D03*
Y0284853D02*
D03*
X0299200Y0298854D02*
D03*
Y0311748D02*
D03*
X0307600Y0268153D02*
D03*
Y0281047D02*
D03*
X0290000Y0298853D02*
D03*
Y0311747D02*
D03*
X0160100Y0276747D02*
D03*
Y0263853D02*
D03*
X0421800Y0552653D02*
D03*
Y0565547D02*
D03*
X0258102Y0426653D02*
D03*
Y0439547D02*
D03*
X0213400Y0293553D02*
D03*
Y0306447D02*
D03*
X0227700Y0556053D02*
D03*
Y0568947D02*
D03*
X0219400Y0556053D02*
D03*
Y0568947D02*
D03*
G54D40*
X0285135Y0445400D02*
D03*
X0289465D02*
D03*
X0300765Y0450500D02*
D03*
X0296435D02*
D03*
G54D41*
X0311400Y0546400D02*
D03*
Y0538400D02*
D03*
X0302700Y0546400D02*
D03*
Y0538400D02*
D03*
X0299600Y0489045D02*
D03*
Y0497045D02*
D03*
G54D42*
X0275290Y0358121D02*
D03*
X0283290D02*
D03*
X0415100Y0530000D02*
D03*
X0423100D02*
D03*
X0266500Y0446200D02*
D03*
X0258500D02*
D03*
G54D43*
X0383257Y0462900D02*
D03*
Y0467900D02*
D03*
Y0472900D02*
D03*
Y0477900D02*
D03*
X0340343Y0462900D02*
D03*
Y0467900D02*
D03*
Y0472900D02*
D03*
Y0477900D02*
D03*
G54D44*
X0238300Y0566291D02*
D03*
Y0577709D02*
D03*
X0285102Y0437209D02*
D03*
Y0425791D02*
D03*
G54D45*
X0189704Y0541700D02*
D03*
X0202696D02*
D03*
X0189704Y0517100D02*
D03*
X0202696D02*
D03*
X0189704Y0529400D02*
D03*
X0202696D02*
D03*
G54D46*
X0326650Y0430500D02*
D03*
X0320350D02*
D03*
X0326650Y0440850D02*
D03*
X0320350D02*
D03*
X0326650Y0451200D02*
D03*
X0320350D02*
D03*
X0326650Y0461550D02*
D03*
X0320350D02*
D03*
X0326650Y0471900D02*
D03*
X0320350D02*
D03*
G54D47*
X0306600Y0445331D02*
D03*
Y0436669D02*
D03*
G54D48*
X0217727Y0321273D02*
D03*
X0213273Y0325727D02*
D03*
G54D49*
X0243500Y0539316D02*
X0245060Y0540876D01*
X0243500Y0514291D02*
Y0539316D01*
X0247700Y0343284D02*
X0251224Y0339760D01*
X0204300Y0307250D02*
Y0312200D01*
X0229200Y0337100D01*
X0270000D01*
X0276046Y0331053D01*
X0253400Y0521500D02*
X0258500Y0516400D01*
X0267225D01*
X0271916Y0511709D01*
X0342240Y0562140D02*
X0343076D01*
X0186486Y0467986D02*
X0195598D01*
X0185500Y0467000D02*
X0186486Y0467986D01*
X0224050Y0541369D02*
Y0541647D01*
X0263200Y0521100D02*
Y0523600D01*
X0245750Y0521400D02*
Y0528050D01*
X0249600Y0531900D01*
X0257148D01*
X0293700Y0465900D02*
X0299200Y0460400D01*
X0282100Y0465900D02*
X0293700D01*
X0270642Y0477357D02*
X0282100Y0465900D01*
X0202100Y0408000D02*
Y0421263D01*
X0150300Y0495000D02*
X0155300D01*
X0149000Y0496300D02*
X0150300Y0495000D01*
X0149000Y0496300D02*
Y0498500D01*
X0194780Y0465200D02*
X0195598Y0466018D01*
X0168156Y0506616D02*
Y0562193D01*
X0149100Y0581250D02*
Y0581300D01*
X0145952Y0584448D02*
X0149100Y0581300D01*
X0095498Y0584448D02*
X0145952D01*
X0172369Y0501451D02*
Y0503419D01*
Y0489640D02*
Y0491608D01*
X0149000Y0487950D02*
X0155184Y0481766D01*
X0172369D01*
X0149000Y0475950D02*
X0152848Y0479797D01*
X0172369D01*
X0149000Y0469650D02*
X0157178Y0477829D01*
X0172369D01*
X0149000Y0457750D02*
X0152500Y0461250D01*
Y0470200D01*
X0158160Y0475860D01*
X0172369D01*
X0149000Y0445950D02*
X0154287Y0451238D01*
Y0469287D01*
X0158892Y0473892D01*
X0172369D01*
X0149050Y0435000D02*
X0152600Y0438550D01*
Y0447023D01*
X0156075Y0450497D01*
Y0468075D01*
X0159923Y0471923D01*
X0172369D01*
X0149100Y0581250D02*
X0168156Y0562193D01*
Y0506616D02*
X0169384Y0505388D01*
X0172369D01*
X0168825Y0503419D02*
X0172369D01*
X0166369Y0505876D02*
X0168825Y0503419D01*
X0166369Y0505876D02*
Y0557682D01*
X0149100Y0574950D02*
X0166369Y0557682D01*
X0149100Y0562950D02*
X0158572D01*
X0164582Y0556941D01*
Y0504417D02*
Y0556941D01*
X0172279Y0499573D02*
X0172369Y0499482D01*
X0169426Y0499573D02*
X0172279D01*
X0164582Y0504417D02*
X0169426Y0499573D01*
X0168957Y0497514D02*
X0172369D01*
X0162794Y0503677D02*
X0168957Y0497514D01*
X0162794Y0503677D02*
Y0546206D01*
X0158050Y0550950D02*
X0162794Y0546206D01*
X0149000Y0550950D02*
X0158050D01*
X0161007Y0502937D02*
X0168307Y0495636D01*
X0172369Y0495545D02*
Y0495636D01*
X0168307D02*
X0172369D01*
X0167839Y0493577D02*
X0172369D01*
X0159219Y0502196D02*
X0167839Y0493577D01*
X0159219Y0502196D02*
Y0524330D01*
X0149150Y0540100D02*
X0161007Y0528244D01*
Y0502937D02*
Y0528244D01*
X0167280Y0491608D02*
X0172369D01*
X0157432Y0501456D02*
X0167280Y0491608D01*
X0157432Y0501456D02*
Y0514218D01*
X0149000Y0522650D02*
X0157432Y0514218D01*
X0149000Y0510750D02*
X0155645Y0504105D01*
Y0500716D02*
Y0504105D01*
Y0500716D02*
X0168689Y0487671D01*
X0172369D01*
X0155300Y0495000D02*
X0166566Y0483734D01*
X0172369D01*
X0167397Y0485703D02*
X0172369D01*
X0155100Y0498000D02*
X0167397Y0485703D01*
X0212000Y0549588D02*
X0219400Y0556988D01*
X0206900Y0476450D02*
X0208350Y0475000D01*
X0217600D01*
X0215614Y0482486D02*
Y0523944D01*
X0209600Y0490400D02*
X0211000D01*
X0214000Y0493400D01*
Y0526300D01*
X0209200Y0520450D02*
Y0526167D01*
X0212000Y0538200D02*
Y0549588D01*
X0258490Y0365094D02*
Y0365139D01*
X0263840Y0365094D02*
Y0365139D01*
X0247413Y0386916D02*
X0269190Y0365139D01*
Y0365094D02*
Y0365139D01*
X0292300Y0345650D02*
Y0364800D01*
X0288700Y0342050D02*
X0292300Y0345650D01*
X0286750Y0370350D02*
X0292300Y0364800D01*
X0340193Y0496700D02*
X0341093Y0495800D01*
X0347905D01*
X0329200Y0500300D02*
X0330294D01*
X0340193Y0490400D01*
X0227700Y0555100D02*
Y0556988D01*
X0091600Y0580550D02*
X0095498Y0584448D01*
X0202100Y0421263D02*
X0205937Y0425100D01*
X0206600Y0423500D02*
X0223600D01*
X0225433Y0425333D01*
Y0430850D01*
X0205937Y0425100D02*
X0208400D01*
X0209133Y0425833D01*
Y0430850D01*
X0191700Y0406800D02*
X0200900D01*
X0205100Y0406700D02*
X0212100D01*
X0203700Y0420600D02*
X0206600Y0423500D01*
X0203700Y0408100D02*
Y0420600D01*
X0200900Y0406800D02*
X0202100Y0408000D01*
X0203700Y0408100D02*
X0205100Y0406700D01*
X0149000Y0534550D02*
X0159219Y0524330D01*
X0254400Y0392050D02*
X0276100Y0370350D01*
X0286750D01*
X0245500Y0440500D02*
X0246400Y0441400D01*
X0252658Y0365621D02*
X0253140Y0365139D01*
X0242050Y0376850D02*
X0252797Y0366103D01*
X0253140D01*
X0243838Y0380562D02*
X0258490Y0365910D01*
X0258104Y0365525D02*
X0258490Y0365139D01*
X0245625Y0383875D02*
X0263840Y0365660D01*
X0263579Y0365400D02*
X0263840Y0365139D01*
X0383257Y0467900D02*
X0385600D01*
X0387200Y0466300D01*
X0393400D01*
X0394800Y0464900D01*
Y0463100D02*
Y0464900D01*
Y0461100D02*
Y0463100D01*
X0393100Y0459400D02*
X0394800Y0461100D01*
X0390000Y0459400D02*
X0393100D01*
X0388360Y0457760D02*
X0390000Y0459400D01*
X0388360Y0455024D02*
Y0457760D01*
X0383257Y0472900D02*
X0389100D01*
X0393900Y0477700D01*
X0394800D02*
X0395400D01*
X0398300Y0474800D01*
X0395840Y0455024D02*
Y0459140D01*
X0398300Y0461600D01*
Y0474800D01*
X0240263Y0375837D02*
X0247700Y0368400D01*
Y0343284D02*
Y0368400D01*
X0276046Y0328500D02*
Y0331053D01*
X0243700Y0442900D02*
X0248200Y0447400D01*
X0190808Y0473892D02*
X0195598D01*
X0189800Y0474900D02*
X0190808Y0473892D01*
X0254400Y0452500D02*
X0257559Y0455659D01*
X0261653D01*
X0261786Y0477357D02*
X0270642D01*
X0285014Y0469484D02*
X0302420D01*
X0285014Y0471452D02*
X0302715D01*
X0266600Y0463800D02*
Y0470694D01*
X0261786Y0471452D02*
X0265842D01*
X0266600Y0470694D01*
X0315100Y0509000D02*
X0316000Y0508100D01*
X0280143Y0509000D02*
X0315100D01*
X0299450Y0531950D02*
X0315250D01*
X0291600Y0524100D02*
X0299450Y0531950D01*
X0291600Y0519300D02*
Y0524100D01*
X0285014Y0502948D02*
X0289948D01*
X0291600Y0504600D01*
X0276060Y0504916D02*
X0280143Y0509000D01*
X0261786Y0504916D02*
X0276060D01*
X0284435Y0446100D02*
X0285135Y0445400D01*
X0266800Y0452400D02*
X0267900D01*
X0274200Y0446100D01*
X0284435D01*
X0317400Y0443800D02*
X0320350Y0440850D01*
X0315800Y0435050D02*
X0320350Y0430500D01*
X0315800Y0435050D02*
Y0456104D01*
X0302420Y0469484D02*
X0315800Y0456104D01*
X0317400Y0443800D02*
Y0456767D01*
X0302715Y0471452D02*
X0317400Y0456767D01*
X0251000Y0491600D02*
X0251500Y0492100D01*
X0244632Y0510869D02*
X0244660D01*
X0245700Y0509828D01*
X0250600Y0526800D02*
X0272216D01*
X0278240Y0532824D01*
X0249100Y0525300D02*
X0250600Y0526800D01*
X0245700Y0500500D02*
Y0509828D01*
Y0500500D02*
X0249158Y0497043D01*
X0261786D01*
X0247400Y0502800D02*
Y0510391D01*
Y0502800D02*
X0251189Y0499011D01*
X0261786D01*
X0249100Y0504900D02*
Y0525300D01*
Y0504900D02*
X0253021Y0500980D01*
X0261786D01*
X0236300Y0444200D02*
X0239600Y0447500D01*
X0243500D01*
X0244900Y0448900D01*
X0237900Y0441800D02*
X0240800Y0444700D01*
X0236300Y0425537D02*
Y0444200D01*
X0237900Y0426200D02*
Y0441800D01*
X0240600Y0425900D02*
Y0438200D01*
X0243700Y0425100D02*
Y0442900D01*
X0240263Y0375837D02*
Y0421574D01*
X0236300Y0425537D02*
X0240263Y0421574D01*
X0242050Y0376850D02*
Y0422050D01*
X0237900Y0426200D02*
X0242050Y0422050D01*
X0243838Y0380562D02*
Y0422662D01*
X0240600Y0425900D02*
X0243838Y0422662D01*
X0245625Y0383875D02*
Y0423175D01*
X0243700Y0425100D02*
X0245625Y0423175D01*
X0247413Y0386916D02*
Y0423687D01*
X0245500Y0425600D02*
Y0440500D01*
Y0425600D02*
X0247413Y0423687D01*
X0243500Y0514291D02*
X0247400Y0510391D01*
X0241700Y0513800D02*
X0244632Y0510869D01*
X0241700Y0513800D02*
Y0542988D01*
X0227700Y0556988D02*
X0241700Y0542988D01*
X0245060Y0539960D02*
Y0540876D01*
X0219800Y0523700D02*
X0238100D01*
X0239600Y0522200D01*
X0172369Y0473892D02*
X0175792D01*
X0177400Y0475500D01*
Y0486200D01*
X0241317Y0475217D02*
Y0488067D01*
X0244900Y0491650D01*
X0248324Y0495074D01*
X0261786D01*
X0254400Y0392050D02*
Y0452500D01*
X0217600Y0475000D02*
X0218600Y0476000D01*
Y0479500D01*
X0215614Y0482486D02*
X0218600Y0479500D01*
X0315250Y0531950D02*
X0332000Y0548700D01*
Y0551900D01*
X0342240Y0562140D01*
X0214935Y0545287D02*
X0218300Y0548653D01*
X0229700D02*
X0233400Y0544953D01*
X0215614Y0523944D02*
X0223570Y0531900D01*
X0248100Y0458000D02*
X0252600Y0462500D01*
X0251000Y0463163D02*
Y0491600D01*
X0245100Y0455100D02*
X0247500D01*
X0254200Y0461800D01*
X0248200Y0447400D02*
Y0453500D01*
X0255800Y0461100D01*
X0241317Y0451989D02*
Y0455017D01*
X0238758Y0451989D02*
Y0455058D01*
X0243300Y0459600D01*
X0247437D01*
X0251000Y0463163D01*
X0241317Y0455017D02*
X0244300Y0458000D01*
X0248100D01*
X0252600Y0462500D02*
Y0486300D01*
X0255400Y0489100D01*
Y0492400D01*
X0255800Y0461100D02*
Y0477103D01*
X0258023Y0479326D01*
X0261786D01*
X0254200Y0461800D02*
Y0479100D01*
X0256395Y0481294D01*
X0261786D01*
X0224300Y0531900D02*
X0225652D01*
X0224300D02*
X0233400Y0541000D01*
Y0544953D01*
X0214935Y0531902D02*
Y0545287D01*
X0224000Y0541300D02*
Y0542747D01*
X0214000Y0526300D02*
X0219400Y0531700D01*
Y0536700D01*
X0224000Y0541300D01*
X0209200Y0526167D02*
X0214935Y0531902D01*
X0189200Y0465200D02*
X0194780D01*
X0559400Y0039400D02*
Y0059683D01*
X0440500Y0040050D02*
X0700200D01*
Y0101050D01*
X0286500Y0040050D02*
Y0101050D01*
X0040000Y0040050D02*
Y0101050D01*
X0040050Y0040050D02*
X0197600D01*
X0040050D02*
Y0101050D01*
Y0101050D02*
X0700200D01*
X0040000Y0040050D02*
X0440500D01*
X0040000Y0060383D02*
X0700000D01*
X0040000Y0080717D02*
X0700200D01*
X0413200D02*
Y0101050D01*
X0497200Y0080717D02*
Y0101050D01*
G54D50*
X0219226Y0504076D02*
X0223100D01*
X0300765Y0444684D02*
Y0450500D01*
X0213379Y0325628D02*
X0231250Y0343500D01*
X0241776D01*
X0253200Y0291900D02*
Y0308814D01*
X0191453Y0285394D02*
Y0294300D01*
X0204347D02*
Y0300904D01*
X0213400Y0306447D02*
X0218107Y0301740D01*
X0274500Y0518151D02*
Y0523376D01*
X0203050Y0520450D02*
X0209200D01*
X0281771Y0341971D02*
X0284502Y0344702D01*
X0285052D01*
X0281900D02*
X0284502D01*
X0285052D02*
X0288700Y0348350D01*
X0157950Y0195700D02*
X0161950Y0199700D01*
X0149200Y0195700D02*
X0157950D01*
X0172950Y0285000D02*
X0178953D01*
X0167100Y0269650D02*
Y0269747D01*
X0160100Y0276747D02*
X0167100Y0269747D01*
X0160100Y0276747D02*
X0166303Y0282950D01*
X0170900D01*
X0172950Y0285000D01*
X0294600Y0444450D02*
X0295450D01*
X0289465Y0445400D02*
X0294600D01*
X0178750Y0581450D02*
X0182000Y0584700D01*
X0189000D01*
X0191560Y0582140D01*
Y0581124D02*
Y0582140D01*
X0094982Y0441900D02*
X0114226D01*
X0280800Y0298300D02*
X0289447D01*
X0280000Y0297500D02*
X0280800Y0298300D01*
X0263100Y0294550D02*
X0264550Y0296000D01*
X0263100Y0294550D02*
X0263100Y0294550D01*
X0257600Y0294550D02*
X0263100D01*
X0264550Y0296000D02*
X0268150D01*
X0268800Y0296650D01*
X0263200Y0304700D02*
X0270453D01*
X0263200Y0300950D02*
Y0304700D01*
X0270453D02*
X0270553Y0304600D01*
X0280000Y0292750D02*
Y0297500D01*
X0255100Y0290000D02*
X0267250D01*
X0253200Y0291900D02*
X0255100Y0290000D01*
X0299200Y0311748D02*
Y0312000D01*
X0295350Y0315850D02*
X0299200Y0312000D01*
X0295350Y0315850D02*
Y0317000D01*
X0299100Y0298540D02*
X0299307Y0298747D01*
X0300054Y0298000D01*
X0299200Y0298854D02*
X0299307Y0298747D01*
X0300054Y0298000D02*
X0307347D01*
X0288940Y0291400D02*
X0291400Y0288940D01*
X0299100Y0288750D02*
Y0298540D01*
X0191847Y0272897D02*
Y0285000D01*
X0189800Y0270850D02*
X0191847Y0272897D01*
X0189391Y0270440D02*
X0189800Y0270850D01*
X0174976Y0270440D02*
X0189391D01*
X0168350Y0269650D02*
X0174976Y0263024D01*
X0167100Y0269650D02*
X0168350D01*
X0281190Y0341971D02*
X0281771D01*
X0398009Y0515660D02*
X0408387D01*
X0402800Y0507200D02*
Y0514950D01*
X0403900Y0507900D02*
X0409528D01*
X0195500Y0158700D02*
X0296350D01*
X0297250Y0159600D01*
X0387400Y0275800D02*
X0405199D01*
X0155450Y0540100D02*
Y0545500D01*
X0310650Y0489900D02*
X0311900Y0488650D01*
X0306500Y0489900D02*
X0310650D01*
X0288700Y0336750D02*
Y0342050D01*
X0184647Y0537100D02*
X0184847Y0537300D01*
X0203509Y0529400D02*
Y0530791D01*
X0149000Y0487950D02*
X0149450Y0488400D01*
X0192871Y0555818D02*
X0197235D01*
X0199150Y0557733D02*
Y0562100D01*
X0197235Y0555818D02*
X0199150Y0557733D01*
X0205450Y0562100D02*
X0210847Y0556703D01*
X0178780Y0555642D02*
X0185215D01*
X0185050Y0580700D02*
X0186447Y0579303D01*
X0194216Y0576300D02*
X0199040Y0581124D01*
X0186447Y0576300D02*
X0194216D01*
X0186447D02*
Y0579303D01*
X0204000Y0574850D02*
X0209325D01*
X0212600Y0571576D01*
X0199065Y0581150D02*
X0204000D01*
X0216340Y0581024D02*
X0221365Y0576000D01*
X0293354Y0538360D02*
X0293600Y0538114D01*
X0287627Y0538360D02*
X0293354D01*
X0276800Y0542100D02*
X0283887D01*
X0287627Y0538360D01*
X0197000Y0537300D02*
X0203509Y0530791D01*
X0351100Y0544376D02*
X0352224Y0545500D01*
X0351100Y0540500D02*
X0361250D01*
X0351100D02*
Y0544376D01*
X0352160Y0537340D02*
X0355787D01*
X0351100Y0538400D02*
X0352160Y0537340D01*
X0351100Y0538400D02*
Y0540500D01*
X0367100Y0554200D02*
X0369345D01*
X0364400Y0551500D02*
X0367100Y0554200D01*
X0364400Y0545550D02*
Y0551500D01*
X0361250Y0540500D02*
X0365350Y0544600D01*
X0369345Y0550460D02*
X0375039Y0544765D01*
Y0544100D02*
Y0544765D01*
X0369345Y0557940D02*
X0375039Y0563635D01*
Y0564100D01*
X0369445Y0554100D02*
X0375039D01*
X0359527Y0533600D02*
X0366613D01*
X0355787Y0537340D02*
X0359527Y0533600D01*
X0411024Y0564100D02*
X0411924Y0565000D01*
X0410253Y0538700D02*
Y0543329D01*
X0411024Y0552976D02*
Y0554100D01*
Y0552976D02*
X0416600Y0547400D01*
Y0531500D02*
Y0547400D01*
X0423100Y0530000D02*
Y0538653D01*
Y0530000D02*
X0424600Y0528500D01*
Y0521046D02*
Y0528500D01*
X0419213Y0515660D02*
X0424600Y0521046D01*
X0408387Y0519400D02*
X0413300D01*
X0417040Y0515660D01*
X0419213D01*
X0373495Y0495800D02*
X0375500D01*
X0410050Y0461350D02*
X0410900D01*
X0408900Y0431400D02*
X0410900Y0429400D01*
X0373495Y0436400D02*
X0407900D01*
X0410900Y0439400D01*
X0397150Y0514800D02*
X0398009Y0515660D01*
X0373495Y0431400D02*
X0408900D01*
X0421800Y0552653D02*
X0423147D01*
Y0538700D02*
Y0552653D01*
X0411924Y0565000D02*
X0421253D01*
X0114226Y0441900D02*
X0116801Y0444475D01*
X0117600D01*
X0094891Y0441809D02*
X0094982Y0441900D01*
X0114279Y0453700D02*
X0116801Y0456222D01*
X0092800Y0453700D02*
X0114279D01*
X0116801Y0456222D02*
X0117600D01*
X0116801Y0467970D02*
X0117600D01*
X0091100Y0477300D02*
X0114383D01*
X0090100Y0499600D02*
X0092108Y0501608D01*
X0090100Y0496300D02*
Y0499600D01*
X0116383Y0503213D02*
X0117600D01*
X0114777Y0501608D02*
X0116383Y0503213D01*
X0092108Y0501608D02*
X0114777D01*
X0114000Y0512900D02*
X0116061Y0514961D01*
X0117600D01*
X0090100Y0506300D02*
Y0508400D01*
X0094600Y0512900D01*
X0114000D01*
X0137151Y0494529D02*
Y0494654D01*
X0117576Y0491860D02*
X0118216Y0492500D01*
X0132955Y0494529D02*
X0137151D01*
X0130926Y0492500D02*
X0131799Y0493373D01*
X0132955Y0494529D01*
X0118216Y0492500D02*
X0130926D01*
X0117576Y0491860D02*
X0119535Y0489900D01*
X0137151Y0489239D02*
Y0489900D01*
X0119535D02*
X0137151D01*
X0114383Y0477300D02*
X0116443Y0479360D01*
X0117576D01*
X0099391Y0518400D02*
X0104991Y0524000D01*
X0114797Y0548200D02*
X0116801Y0550205D01*
X0117600D01*
X0103000Y0548200D02*
X0114797D01*
X0099382Y0544582D02*
X0103000Y0548200D01*
X0135979Y0536800D02*
X0137151Y0537972D01*
X0120400Y0536800D02*
X0135979D01*
X0118743Y0538457D02*
X0120400Y0536800D01*
X0117600Y0538457D02*
X0118443Y0539300D01*
X0130969D01*
X0136387Y0543387D02*
X0137151D01*
X0133800Y0540800D02*
X0136387Y0543387D01*
X0132469Y0540800D02*
X0133800D01*
X0104991Y0524000D02*
X0113800D01*
X0116160Y0526360D01*
X0117576D01*
X0114200Y0559900D02*
X0116252Y0561952D01*
X0117600D01*
X0099382Y0555382D02*
X0103900Y0559900D01*
X0099382Y0554083D02*
Y0555382D01*
X0103900Y0559900D02*
X0114200D01*
X0099382Y0565892D02*
X0105191Y0571700D01*
X0114000D01*
X0116000Y0573700D01*
X0116801D01*
X0092923Y0465500D02*
X0114331D01*
X0116801Y0467970D01*
X0177000Y0444600D02*
Y0447950D01*
X0160500Y0444600D02*
Y0448044D01*
X0210847Y0555600D02*
Y0556703D01*
X0283550Y0555300D02*
X0324854D01*
X0269628Y0563400D02*
X0271400D01*
X0275200Y0567200D01*
X0275700D01*
X0267250Y0557900D02*
X0269628Y0560279D01*
Y0563400D01*
X0404574Y0455024D02*
X0410900Y0461350D01*
X0395840Y0455024D02*
X0404574D01*
X0380900Y0497300D02*
X0381500Y0497900D01*
X0375500Y0495800D02*
X0380300Y0491000D01*
X0380900D02*
X0382800Y0492900D01*
X0388072D01*
X0382100Y0484700D02*
X0386700Y0489300D01*
X0391500D01*
X0393200Y0491000D01*
Y0494400D01*
X0381500Y0497900D02*
X0388072D01*
X0389700D02*
X0393200Y0494400D01*
X0388072Y0497900D02*
X0389700D01*
X0386622Y0509350D02*
X0388072Y0507900D01*
X0380700Y0503550D02*
X0380900Y0503350D01*
Y0509350D02*
X0386622D01*
X0373495Y0503550D02*
X0380700D01*
X0409450Y0449900D02*
X0410900Y0451350D01*
X0393484Y0449900D02*
X0409450D01*
X0388360Y0455024D02*
X0393484Y0449900D01*
X0397700Y0501700D02*
X0403900Y0507900D01*
X0397700Y0490700D02*
Y0501700D01*
X0378950Y0480661D02*
Y0484700D01*
Y0480661D02*
X0381711Y0477900D01*
X0383257D01*
X0378950Y0484700D02*
X0382100D01*
X0261653Y0455659D02*
X0265150Y0459156D01*
Y0463200D01*
X0244900Y0481150D02*
Y0485350D01*
Y0481150D02*
X0246400Y0479650D01*
X0218700Y0503550D02*
X0219226Y0504076D01*
X0219360Y0518509D02*
X0219750Y0518900D01*
X0226840Y0513524D02*
Y0518109D01*
X0227497Y0517453D02*
X0231940D01*
X0226050Y0518900D02*
X0226840Y0518109D01*
X0227497Y0517453D01*
X0219360Y0513524D02*
Y0518509D01*
X0154660Y0200691D02*
X0155650Y0199700D01*
X0154660Y0200691D02*
Y0204876D01*
X0153386Y0206150D02*
X0154660Y0204876D01*
X0149400Y0206150D02*
X0153386D01*
X0162140Y0199891D02*
Y0204876D01*
X0161950Y0199700D02*
X0162140Y0199891D01*
X0091100Y0567300D02*
Y0574250D01*
X0094550Y0577700D02*
X0099382D01*
X0091100Y0574250D02*
X0094550Y0577700D01*
X0109200Y0292550D02*
Y0298250D01*
X0388000Y0282950D02*
Y0291450D01*
X0324650Y0469901D02*
X0326650Y0471900D01*
X0324650Y0466700D02*
Y0469901D01*
Y0459551D02*
X0326650Y0461550D01*
X0324650Y0456325D02*
Y0459551D01*
Y0449201D02*
X0326650Y0451200D01*
X0324650Y0445950D02*
Y0449201D01*
Y0438851D02*
X0326650Y0440850D01*
X0324650Y0435575D02*
Y0438851D01*
Y0428501D02*
X0326650Y0430500D01*
X0324650Y0425200D02*
Y0428501D01*
X0275326Y0429100D02*
X0277900D01*
X0281209Y0425791D01*
X0285102D02*
X0294459D01*
X0294800Y0425450D01*
X0301681Y0445331D02*
X0306600D01*
X0300900Y0438250D02*
X0305019D01*
X0306600Y0436669D01*
Y0420300D02*
Y0436669D01*
X0247674Y0551450D02*
X0248800Y0550324D01*
X0243300Y0551450D02*
X0247674D01*
X0221950Y0569396D02*
Y0576000D01*
X0219400Y0568947D02*
X0227700D01*
X0229350Y0487800D02*
Y0493300D01*
X0222650D02*
X0223050D01*
X0218700Y0497250D02*
X0222650Y0493300D01*
X0267450Y0586300D02*
X0273150D01*
X0184447Y0527500D02*
X0189704D01*
X0184847Y0537300D02*
X0197000D01*
X0184447Y0515100D02*
X0190091D01*
X0231940Y0505735D02*
Y0511154D01*
Y0505735D02*
X0232776Y0504900D01*
X0217727Y0321273D02*
X0221900Y0317100D01*
Y0314150D02*
Y0317100D01*
Y0307850D02*
X0222800Y0306950D01*
Y0294100D02*
Y0306950D01*
X0213400Y0306447D02*
X0221103Y0314150D01*
X0221900D01*
G54D51*
X0295450Y0444550D02*
X0300900D01*
X0271916Y0518009D02*
X0277416D01*
X0172981Y0573219D02*
X0173553Y0573791D01*
Y0575503D01*
Y0573600D02*
Y0573791D01*
Y0575503D02*
X0178750Y0580700D01*
X0172981Y0564342D02*
Y0573219D01*
X0158944Y0588400D02*
X0173553Y0573791D01*
X0087900Y0588400D02*
X0158944D01*
X0080000Y0436300D02*
X0090040D01*
X0330950Y0456325D02*
Y0466700D01*
Y0445950D02*
Y0456325D01*
Y0435575D02*
Y0445950D01*
Y0425200D02*
Y0435575D01*
X0080045Y0446300D02*
X0090100D01*
X0080000Y0456300D02*
X0090040D01*
X0080000Y0466300D02*
X0090100D01*
X0092123D01*
X0080000Y0476300D02*
X0090100D01*
X0092800D02*
X0097675Y0471425D01*
X0090100Y0476300D02*
X0092800D01*
X0091440Y0484900D02*
X0097716D01*
X0099382Y0483233D01*
X0080000Y0486300D02*
X0090040D01*
X0080000Y0496300D02*
X0090100D01*
X0099340D01*
X0080000Y0506300D02*
X0090100D01*
X0098832D01*
X0080000Y0516300D02*
X0090040D01*
X0080000Y0526300D02*
X0090100D01*
X0092399Y0518658D02*
X0099382D01*
X0090100Y0526300D02*
X0095216D01*
X0080000Y0536300D02*
X0090040D01*
X0090100D02*
X0094400Y0540600D01*
X0096800D01*
X0098475Y0542275D01*
X0099382D01*
X0080000Y0546300D02*
X0090040D01*
X0080000Y0556300D02*
X0090040D01*
X0099382Y0565642D01*
X0090040Y0546300D02*
X0097824Y0554083D01*
X0095216Y0526300D02*
X0099291Y0530376D01*
X0090040Y0516300D02*
X0092399Y0518658D01*
X0092123Y0466300D02*
X0092923Y0465500D01*
X0098807Y0459617D01*
X0090040Y0456300D02*
X0098532Y0447808D01*
X0080022Y0446278D02*
X0080045Y0446300D01*
X0085400Y0566600D02*
Y0585900D01*
X0087900Y0588400D01*
X0080000Y0566300D02*
X0090100D01*
G54D52*
X0290350Y0450500D02*
X0296435D01*
X0279000Y0538360D02*
X0281600Y0535760D01*
Y0519600D02*
Y0535760D01*
Y0519600D02*
X0286000Y0515200D01*
X0271024Y0538360D02*
X0276800D01*
X0279000D01*
G54D53*
X0260692Y0332792D02*
X0261700Y0333800D01*
X0260692Y0328500D02*
Y0332792D01*
X0363135Y0515835D02*
X0375100Y0527800D01*
X0363135Y0515804D02*
Y0515835D01*
X0362344Y0515013D02*
X0363135Y0515804D01*
X0362313Y0515013D02*
X0362344D01*
X0362300Y0515000D02*
X0362313Y0515013D01*
X0375100Y0527800D02*
Y0533900D01*
X0346400Y0515000D02*
X0362300D01*
X0329200Y0509100D02*
X0340200D01*
X0326200Y0506100D02*
X0329200Y0509100D01*
X0326200Y0486300D02*
Y0506100D01*
X0273487Y0348613D02*
X0275052Y0347048D01*
X0279967D01*
X0281190Y0348271D01*
X0090063Y0436278D02*
X0096540Y0429800D01*
X0288841Y0281460D02*
X0296131Y0288750D01*
X0299100D01*
X0232400Y0443153D02*
X0233640Y0444393D01*
Y0451989D01*
X0341700Y0437050D02*
X0349500Y0444850D01*
X0225963Y0462337D02*
Y0475217D01*
X0144739Y0487950D02*
X0149000D01*
X0149650Y0429300D02*
X0155350Y0435000D01*
X0131799Y0434925D02*
X0136100D01*
X0289800Y0349450D02*
Y0363900D01*
X0288700Y0348350D02*
X0289800Y0349450D01*
X0153600Y0492000D02*
X0160200Y0485400D01*
X0149000Y0492500D02*
X0153400D01*
X0153050Y0498550D02*
X0153600Y0498000D01*
X0153050Y0498550D02*
Y0500400D01*
X0149000Y0504450D02*
X0153050Y0500400D01*
X0111059Y0577440D02*
X0127049D01*
X0117600Y0581180D02*
X0130150D01*
X0131800Y0579531D01*
X0117600Y0573700D02*
X0130300D01*
X0131800Y0575200D01*
X0117600Y0569432D02*
X0130209D01*
X0131800Y0567841D01*
X0117600Y0561952D02*
X0130242D01*
X0131800Y0563510D01*
X0110999Y0565692D02*
X0127049D01*
X0117600Y0557685D02*
X0130267D01*
X0131800Y0556152D01*
X0117600Y0550205D02*
X0130184D01*
X0131800Y0551821D01*
X0110938Y0553945D02*
X0127049D01*
X0117600Y0545937D02*
X0130325D01*
X0131800Y0544462D01*
X0110878Y0542197D02*
X0127049D01*
X0117600Y0534189D02*
X0130383D01*
X0131800Y0532772D01*
X0117600Y0526709D02*
X0130067D01*
X0131800Y0528442D01*
X0110817Y0530449D02*
X0127049D01*
X0117600Y0522441D02*
X0130441D01*
X0131800Y0521083D01*
X0117600Y0514961D02*
X0130009D01*
X0131800Y0516752D01*
X0110843Y0518701D02*
X0127049D01*
X0117600Y0510694D02*
X0130499D01*
X0131800Y0509393D01*
X0117600Y0503213D02*
X0129951D01*
X0131800Y0505063D01*
X0110903Y0506954D02*
X0127049D01*
X0117600Y0498946D02*
X0130557D01*
X0131799Y0497704D01*
X0110964Y0495206D02*
X0127049D01*
X0117600Y0479718D02*
X0129834D01*
X0131800Y0481683D01*
X0111024Y0483458D02*
X0127049D01*
X0111085Y0471710D02*
X0127049D01*
X0117600Y0475451D02*
X0130674D01*
X0131800Y0474325D01*
X0117600Y0467970D02*
X0129776D01*
X0131800Y0469994D01*
X0117600Y0463703D02*
X0130732D01*
X0131800Y0462635D01*
X0111145Y0459963D02*
X0127049D01*
X0117600Y0456222D02*
X0129718D01*
X0131800Y0458304D01*
X0117600Y0451955D02*
X0130790D01*
X0131799Y0450946D01*
X0117600Y0444475D02*
X0129659D01*
X0131799Y0446615D01*
X0111206Y0448215D02*
X0127049D01*
X0117600Y0440207D02*
X0130848D01*
X0131799Y0439256D01*
X0117600Y0432727D02*
X0129601D01*
X0131799Y0434925D01*
X0111267Y0436467D02*
X0127049D01*
X0116890Y0573700D02*
X0117600D01*
X0131799Y0439256D02*
X0133049Y0440506D01*
X0137151D01*
X0131799Y0446615D02*
X0136457D01*
X0131799Y0450946D02*
X0136761D01*
X0131800Y0458304D02*
X0133354Y0456750D01*
X0137151D01*
X0131800Y0462635D02*
X0136681D01*
X0131800Y0469994D02*
X0134214Y0467580D01*
X0137151D01*
X0131800Y0474325D02*
X0132399D01*
X0133730Y0472994D01*
X0137151D01*
X0131800Y0481683D02*
X0133984Y0479500D01*
X0136060D01*
X0137151Y0478409D01*
X0131800Y0485831D02*
Y0486014D01*
X0135144Y0485831D02*
X0137151Y0483824D01*
X0131800Y0485831D02*
X0135144D01*
X0131799Y0497704D02*
X0134164Y0500068D01*
X0137151D01*
X0131800Y0505063D02*
X0136731D01*
X0131800Y0509393D02*
X0133305Y0510898D01*
X0137151D01*
X0131800Y0516752D02*
X0136712D01*
X0131800Y0521083D02*
X0136506D01*
X0131800Y0528442D02*
X0133099Y0527142D01*
X0137151D01*
X0131800Y0532772D02*
X0136936D01*
X0131800Y0544462D02*
X0136140Y0548802D01*
X0131800Y0551821D02*
Y0552209D01*
X0135144D02*
X0137151Y0554216D01*
X0131800Y0552209D02*
X0135144D01*
X0131800Y0556152D02*
X0134148Y0558500D01*
X0136020D01*
X0137151Y0559631D01*
X0131800Y0563510D02*
X0132399D01*
X0133935Y0565046D01*
X0137151D01*
X0131800Y0567841D02*
X0134420Y0570461D01*
X0137151D01*
X0131800Y0575200D02*
X0136475D01*
X0131800Y0579531D02*
X0133560Y0581290D01*
X0137151D01*
X0143450Y0435091D02*
Y0440506D01*
Y0435091D02*
X0143541Y0435000D01*
X0149050D01*
X0149200Y0440400D02*
Y0445750D01*
X0149030Y0445920D02*
X0149200Y0445750D01*
X0143450Y0445920D02*
Y0451335D01*
Y0445920D02*
X0149030D01*
X0149000Y0452250D02*
Y0457750D01*
X0148000Y0456750D02*
X0149000Y0457750D01*
X0143450Y0456750D02*
X0148000D01*
X0143450D02*
Y0462165D01*
X0149000Y0464050D02*
Y0469650D01*
X0143250D02*
Y0472794D01*
Y0469650D02*
X0149000D01*
Y0475950D02*
Y0481650D01*
X0144050D02*
X0149000D01*
X0143450Y0481050D02*
X0144050Y0481650D01*
X0143450Y0478409D02*
Y0481050D01*
Y0483824D01*
Y0489239D02*
X0144739Y0487950D01*
X0143450Y0498300D02*
X0143650Y0498500D01*
X0149000D01*
X0143450Y0494654D02*
Y0498300D01*
X0144483Y0504450D02*
X0149000D01*
X0143450Y0505483D02*
X0144483Y0504450D01*
X0143450Y0505483D02*
Y0510898D01*
Y0516313D02*
X0148962D01*
Y0510787D02*
Y0516313D01*
X0143450D02*
Y0521728D01*
Y0527142D02*
Y0532557D01*
Y0527142D02*
X0147892D01*
X0149000Y0528250D01*
Y0522650D02*
Y0528250D01*
X0143450Y0537972D02*
X0144628D01*
X0148050Y0534550D01*
X0143450Y0543387D02*
Y0548802D01*
Y0543387D02*
X0144713D01*
X0148000Y0540100D01*
X0149150D01*
Y0545500D02*
Y0550800D01*
X0144684Y0554216D02*
X0148100Y0550800D01*
X0143450Y0554216D02*
X0144684D01*
X0148100Y0550800D02*
X0149150D01*
X0149000Y0557250D02*
Y0562850D01*
X0143450Y0554216D02*
Y0559631D01*
Y0565046D02*
Y0570461D01*
Y0565046D02*
X0147004D01*
X0149100Y0562950D01*
X0143450Y0575876D02*
Y0581290D01*
Y0575876D02*
X0144376Y0574950D01*
X0149100D01*
Y0569250D02*
Y0574950D01*
X0228522Y0472078D02*
Y0475217D01*
X0231081D01*
X0285200Y0368500D02*
X0289800Y0363900D01*
X0309813Y0492863D02*
X0311900Y0494950D01*
X0366613Y0537340D02*
X0370709D01*
X0342776Y0549240D02*
X0343365D01*
X0352524Y0558400D01*
X0358518Y0545132D02*
Y0550460D01*
Y0557940D01*
X0371300Y0536750D02*
X0372250D01*
X0375100Y0533900D01*
X0371400Y0483450D02*
X0372650Y0484700D01*
X0338600Y0533950D02*
X0343100Y0529450D01*
X0338600Y0533950D02*
Y0545065D01*
X0342776Y0549240D01*
X0146447Y0429300D02*
X0149650D01*
X0133553D02*
X0137151Y0432898D01*
Y0435091D01*
X0080022Y0446278D02*
X0090063D01*
X0098957Y0448234D02*
X0099382Y0447808D01*
X0098529Y0472279D02*
X0099382Y0471425D01*
X0117600Y0487198D02*
X0130616D01*
X0131800Y0486014D01*
X0098603Y0553304D02*
X0099382Y0554083D01*
X0099257Y0565767D02*
X0099382Y0565892D01*
X0116845Y0573656D02*
X0116890Y0573700D01*
X0096540Y0429800D02*
X0114673D01*
X0117600Y0432727D01*
X0090063Y0556278D02*
Y0556300D01*
X0080022Y0506278D02*
X0098810D01*
X0080022Y0496278D02*
X0098146D01*
X0191819Y0483734D02*
X0195598D01*
X0200734D01*
X0195598Y0469950D02*
Y0469955D01*
X0178950Y0469950D02*
X0195598D01*
X0192607Y0493605D02*
X0195598D01*
X0281050Y0365100D02*
X0285200D01*
X0287700Y0362600D01*
Y0354781D02*
Y0362600D01*
X0281190Y0348271D02*
X0287700Y0354781D01*
X0273487Y0348613D02*
Y0350941D01*
X0275209Y0368500D02*
X0285200D01*
X0268709Y0375000D02*
X0275209Y0368500D01*
X0271619Y0368413D02*
X0274750Y0365282D01*
Y0365100D02*
Y0365282D01*
X0249263Y0388800D02*
X0269650Y0368413D01*
X0271619D01*
X0273487Y0350941D02*
Y0356318D01*
X0209150Y0533950D02*
X0209400Y0533700D01*
X0209150Y0533950D02*
Y0553903D01*
X0210847Y0555600D01*
X0326200Y0486300D02*
X0334600Y0477900D01*
X0349500Y0444850D02*
Y0474000D01*
X0345600Y0477900D02*
X0349500Y0474000D01*
X0334600Y0477900D02*
X0340343D01*
X0345600D01*
X0348650Y0480950D02*
Y0484700D01*
X0345600Y0477900D02*
X0348650Y0480950D01*
X0340200Y0509100D02*
X0340500D01*
X0346400Y0515000D01*
X0253526Y0350941D02*
X0258133D01*
X0251224Y0348640D02*
X0253526Y0350941D01*
X0303418Y0492863D02*
X0309813D01*
X0299600Y0489045D02*
X0303418Y0492863D01*
X0228522Y0475217D02*
Y0481800D01*
X0249263Y0388800D02*
Y0425687D01*
X0221550Y0458950D02*
X0224900Y0462300D01*
X0272650Y0551300D02*
X0279550D01*
X0283550Y0555300D01*
X0228522Y0472078D02*
X0229900Y0470700D01*
X0243750D01*
X0246400Y0473350D01*
X0224900Y0462300D02*
X0226000D01*
X0225963Y0462337D02*
X0226000Y0462300D01*
G54D54*
X0257600Y0300850D02*
Y0331200D01*
X0255600Y0333200D02*
X0257600Y0331200D01*
X0316000Y0522153D02*
X0318547Y0524700D01*
X0316000Y0515200D02*
Y0522153D01*
X0099382Y0436000D02*
Y0437318D01*
X0094891Y0441809D02*
X0099382Y0437318D01*
X0090400Y0446300D02*
X0094891Y0441809D01*
X0090100Y0446300D02*
X0090400D01*
X0116822Y0491860D02*
X0117576D01*
X0099291Y0529700D02*
Y0530376D01*
Y0532691D01*
X0116419Y0538457D02*
X0117600D01*
X0114062Y0536100D02*
X0116419Y0538457D01*
X0099291Y0532691D02*
X0102700Y0536100D01*
X0114062D01*
X0114962Y0490000D02*
X0116822Y0491860D01*
X0090040Y0486300D02*
X0093740Y0490000D01*
X0114962D01*
X0325627Y0549927D02*
Y0554527D01*
X0293600Y0538114D02*
X0313814D01*
X0315600Y0539900D01*
X0325627Y0549927D01*
X0305258Y0261700D02*
Y0268143D01*
X0300050Y0268400D02*
X0307447D01*
G54D55*
X0253400Y0511500D02*
X0257900Y0507000D01*
X0273600D01*
X0277416Y0510816D01*
Y0511709D01*
X0188177Y0471923D02*
X0195598D01*
X0185200Y0474900D02*
X0188177Y0471923D01*
X0180700Y0464850D02*
X0185050Y0460500D01*
X0180700Y0464850D02*
Y0465200D01*
X0263200Y0513600D02*
X0265091Y0511709D01*
X0185050Y0460500D02*
X0185050Y0460500D01*
Y0455400D02*
Y0460500D01*
X0167900Y0469955D02*
X0172369D01*
X0165550Y0467605D02*
X0167900Y0469955D01*
X0165550Y0459900D02*
Y0467605D01*
X0167500Y0464250D02*
X0171850Y0459900D01*
X0167500Y0464250D02*
Y0466700D01*
X0168786Y0467986D01*
X0172369D01*
X0231081Y0448635D02*
Y0451989D01*
X0227746Y0445300D02*
X0231081Y0448635D01*
X0223699Y0445300D02*
X0227746D01*
X0220399Y0442000D02*
X0223699Y0445300D01*
X0219200Y0447100D02*
X0227000D01*
X0214100Y0442000D02*
X0219200Y0447100D01*
X0227000D02*
X0228522Y0448622D01*
Y0451989D01*
X0204600Y0484400D02*
X0209600D01*
X0203000Y0486000D02*
X0204600Y0484400D01*
X0203509Y0531609D02*
X0206700Y0534800D01*
Y0534818D01*
X0209133Y0437150D02*
X0214560D01*
X0214100Y0437610D02*
X0214560Y0437150D01*
X0214100Y0437610D02*
Y0442000D01*
X0220000Y0437150D02*
X0225433D01*
X0220000D02*
X0220399Y0437549D01*
Y0442000D01*
X0160507Y0454350D02*
X0166000D01*
X0165550Y0454799D02*
X0166000Y0454350D01*
X0165550Y0454799D02*
Y0459900D01*
X0171850Y0454764D02*
Y0459900D01*
X0171435Y0454350D02*
X0171500D01*
X0176900D01*
X0171435D02*
X0171850Y0454764D01*
X0172481Y0555642D02*
X0176123Y0552000D01*
X0195653D01*
X0195655Y0551998D01*
X0200251D01*
X0200253Y0552000D01*
X0203800D01*
X0233291Y0475566D02*
X0233640Y0475217D01*
X0206700Y0534818D02*
X0207100Y0535218D01*
Y0548700D01*
X0415100Y0510300D02*
X0419850D01*
X0409528Y0502900D02*
X0411400D01*
X0409528Y0497900D02*
X0411202D01*
X0413605Y0500303D01*
X0413700Y0508900D02*
X0415100Y0510300D01*
X0411400Y0502900D02*
X0411805Y0503305D01*
X0413605Y0500303D02*
Y0503205D01*
X0417100Y0506700D02*
X0417150D01*
X0411805Y0503305D02*
Y0504105D01*
X0413700Y0506000D01*
Y0508900D01*
X0261786Y0483263D02*
X0266763D01*
X0261786Y0491137D02*
X0266837D01*
X0268700Y0500200D02*
X0269479Y0500980D01*
X0285014D01*
X0267200Y0496159D02*
X0269079D01*
X0271932Y0499011D01*
X0285014D01*
X0278240Y0531840D02*
Y0532824D01*
X0266837Y0491137D02*
X0266900Y0491200D01*
X0280400Y0491100D02*
X0280437Y0491137D01*
X0285014D01*
Y0489169D02*
X0285591D01*
X0285769Y0489347D01*
X0287921D01*
X0292700Y0494125D01*
X0268400Y0487200D02*
X0285014D01*
X0297755D01*
X0417741Y0502029D02*
Y0506059D01*
X0413605Y0503205D02*
X0417100Y0506700D01*
X0422859Y0502029D02*
Y0506110D01*
X0419850Y0510300D02*
X0423450Y0506700D01*
X0422859Y0502029D02*
X0423000Y0501888D01*
Y0485400D02*
Y0501888D01*
X0410900Y0473300D02*
X0423000Y0485400D01*
X0417600Y0501888D02*
X0417741Y0502029D01*
X0417600Y0490000D02*
Y0501888D01*
X0410900Y0483300D02*
X0417600Y0490000D01*
X0233640Y0475217D02*
Y0483509D01*
X0229350Y0487800D02*
X0233640Y0483509D01*
X0266900Y0491200D02*
X0267100Y0491000D01*
Y0490300D02*
Y0491000D01*
X0192781Y0503419D02*
X0195598D01*
X0191300Y0504900D02*
X0192781Y0503419D01*
X0191300Y0504900D02*
Y0515504D01*
X0238758Y0475217D02*
Y0498658D01*
X0241260Y0501160D01*
X0204400Y0551400D02*
X0207100Y0548700D01*
X0203800Y0552000D02*
X0204400Y0551400D01*
X0179882Y0466018D02*
X0180700Y0465200D01*
X0172369Y0466018D02*
X0179882D01*
G54D56*
X0187400Y0483300D02*
X0187600D01*
X0191103Y0479797D01*
X0326100Y0519000D02*
X0327370D01*
X0328200Y0522148D02*
Y0529750D01*
X0326352Y0520300D02*
X0328200Y0522148D01*
X0322300Y0516248D02*
X0326352Y0520300D01*
X0306000Y0515200D02*
Y0525000D01*
X0309600Y0528600D02*
X0320150D01*
X0306000Y0525000D02*
X0309600Y0528600D01*
X0298247Y0524700D02*
X0303847Y0530300D01*
X0298247Y0517447D02*
Y0524700D01*
X0296000Y0515200D02*
X0298247Y0517447D01*
X0289700Y0329700D02*
X0293950Y0333950D01*
X0285100Y0329700D02*
X0289700D01*
X0293950Y0333950D02*
Y0365483D01*
X0281400Y0326000D02*
X0285100Y0329700D01*
X0281400Y0310000D02*
Y0326000D01*
X0289447Y0298853D02*
X0290000D01*
X0263200Y0304700D02*
Y0306250D01*
X0293155Y0276521D02*
X0294234D01*
X0270550Y0312600D02*
Y0320950D01*
X0265810Y0325690D02*
X0270550Y0320950D01*
X0287433Y0372000D02*
X0293950Y0365483D01*
X0270550Y0312600D02*
X0274000Y0309150D01*
Y0297500D02*
Y0309150D01*
X0277100Y0295801D02*
Y0305700D01*
X0271650Y0290350D02*
X0277100Y0295801D01*
Y0305700D02*
X0281400Y0310000D01*
X0341700Y0431400D02*
X0347905D01*
X0341700Y0430750D02*
Y0431400D01*
X0334800Y0437650D02*
Y0468796D01*
Y0437650D02*
X0341700Y0430750D01*
X0168206Y0515100D02*
X0171553D01*
X0192486Y0497514D02*
X0195598D01*
X0155350Y0435000D02*
Y0440250D01*
X0195598Y0501451D02*
X0200651D01*
X0201400Y0502200D01*
X0192351Y0501451D02*
X0195598D01*
Y0495545D02*
Y0497514D01*
Y0491608D02*
X0202608D01*
X0195557Y0487712D02*
X0195598Y0487671D01*
X0192634Y0487712D02*
X0195557D01*
X0191504Y0488841D02*
X0192634Y0487712D01*
X0191504Y0488841D02*
Y0490704D01*
X0192408Y0491608D01*
X0195598D01*
Y0485703D02*
Y0487671D01*
X0200734Y0483734D02*
X0203000Y0486000D01*
X0195598Y0477829D02*
X0201329D01*
X0195598Y0469955D02*
X0200155D01*
X0195598Y0489640D02*
X0209490D01*
X0195598Y0475860D02*
X0198540D01*
X0199400Y0475000D01*
X0205450D01*
X0206900Y0476450D01*
X0200155Y0469955D02*
X0200900Y0470700D01*
X0195598Y0499482D02*
X0207333D01*
X0209600Y0501750D01*
X0201809Y0495450D02*
X0209600D01*
X0263251Y0320302D02*
Y0328500D01*
X0265810Y0325690D02*
Y0328500D01*
X0276850Y0312600D02*
Y0319597D01*
X0263200Y0319247D02*
X0263753Y0319800D01*
X0263200Y0312550D02*
Y0319247D01*
X0263251Y0350941D02*
Y0353449D01*
X0258490Y0358210D02*
X0263251Y0353449D01*
X0260692Y0350941D02*
Y0353208D01*
X0258411Y0355489D02*
X0260692Y0353208D01*
X0256066Y0355489D02*
X0258411D01*
X0253140Y0358415D02*
X0256066Y0355489D01*
X0253140Y0358415D02*
Y0358795D01*
X0265810Y0350941D02*
Y0356825D01*
X0263840Y0358795D02*
X0265810Y0356825D01*
X0268369Y0350941D02*
Y0357975D01*
X0277869Y0352700D02*
X0283290Y0358121D01*
X0276308Y0352700D02*
X0277869D01*
X0273487Y0356318D02*
X0275290Y0358121D01*
Y0359340D01*
X0191103Y0479797D02*
X0195598D01*
X0209203D01*
X0211500Y0477500D01*
X0213334Y0481766D02*
X0215700Y0479400D01*
Y0477500D02*
Y0479400D01*
X0212800Y0481866D02*
Y0487500D01*
X0195598Y0481766D02*
X0213334D01*
X0209600Y0501750D02*
X0212350Y0504500D01*
Y0526983D01*
X0340950Y0503550D02*
X0347905D01*
X0329100Y0504500D02*
X0338500D01*
X0340200Y0502800D01*
X0199976Y0493617D02*
X0201809Y0495450D01*
X0195638Y0493617D02*
X0199976D01*
X0191500Y0498500D02*
X0192486Y0497514D01*
X0191500Y0498500D02*
Y0500600D01*
X0192351Y0501451D01*
X0256050Y0392733D02*
X0276783Y0372000D01*
X0287433D01*
X0338100Y0467900D02*
X0340343D01*
X0335600Y0472900D02*
X0340343D01*
X0285014Y0473420D02*
X0303080D01*
X0320247Y0456253D01*
X0285014Y0475389D02*
X0306408D01*
X0285014Y0477357D02*
X0307542D01*
X0313000Y0471900D01*
X0285014Y0485231D02*
X0303731D01*
X0306500Y0488000D01*
Y0489900D01*
X0285014Y0483263D02*
X0313363D01*
X0313900Y0476200D02*
X0327396D01*
X0334800Y0468796D01*
X0285014Y0479326D02*
X0326674D01*
X0338100Y0467900D01*
X0285014Y0481294D02*
X0327205D01*
X0335600Y0472900D01*
X0261786Y0502948D02*
X0276425D01*
X0314700Y0504500D02*
X0319200D01*
X0261786Y0475389D02*
X0266611D01*
X0268300Y0473700D01*
Y0455700D02*
Y0473700D01*
X0311850Y0507350D02*
X0314700Y0504500D01*
X0276425Y0502948D02*
X0280827Y0507350D01*
X0311850D01*
X0333800Y0536050D02*
Y0536100D01*
X0330600Y0539300D02*
X0333800Y0536100D01*
X0320150Y0528600D02*
X0327600Y0536050D01*
X0303847Y0530300D02*
X0317000D01*
X0326000Y0539300D02*
X0330600D01*
X0317000Y0530300D02*
X0325180Y0538480D01*
Y0538494D01*
X0325854Y0539168D01*
X0325868D01*
X0326000Y0539300D01*
X0258102Y0426653D02*
X0259395Y0425360D01*
X0265877D01*
X0271200Y0437049D02*
X0272651Y0438500D01*
X0271200Y0429700D02*
Y0437049D01*
X0266860Y0425360D02*
X0271200Y0429700D01*
X0268300Y0455700D02*
X0272800Y0451200D01*
X0283950D01*
X0313000Y0471900D02*
X0320350D01*
X0306408Y0475389D02*
X0320247Y0461550D01*
Y0451303D02*
Y0456253D01*
X0256050Y0424602D02*
X0258102Y0426653D01*
X0256050Y0392733D02*
Y0424602D01*
X0217100Y0541547D02*
X0218300Y0542747D01*
X0332500Y0528450D02*
X0333800Y0529750D01*
X0330600Y0513700D02*
X0332500Y0515600D01*
Y0528450D01*
X0327900Y0513700D02*
X0330600D01*
X0311900Y0488650D02*
X0322300Y0499050D01*
Y0516248D01*
X0313363Y0483263D02*
X0324000Y0493900D01*
Y0509800D01*
X0327900Y0513700D01*
X0217100Y0531733D02*
Y0541547D01*
X0212350Y0526983D02*
X0217100Y0531733D01*
G54D57*
X0271650Y0290350D02*
X0272550D01*
X0268800D02*
X0271650D01*
X0285300Y0277600D02*
X0293155D01*
X0272550Y0290350D02*
X0285300Y0277600D01*
X0288784Y0570100D02*
Y0572317D01*
X0286130Y0574970D02*
X0288784Y0572317D01*
X0350260Y0550460D02*
X0358518D01*
X0347200Y0547400D02*
X0350260Y0550460D01*
X0347200Y0532300D02*
Y0547400D01*
Y0532300D02*
X0349750Y0529750D01*
X0351100D01*
X0351209Y0529860D01*
X0366613D02*
X0370709D01*
X0355787D02*
X0366613D01*
X0351209D02*
X0355787D01*
X0370709D02*
X0371300Y0530450D01*
X0195300Y0571676D02*
X0198776Y0568200D01*
X0208200D01*
X0213509Y0562891D01*
X0175650Y0510161D02*
X0175800Y0510011D01*
Y0510000D02*
Y0510011D01*
Y0510000D02*
X0183700Y0502100D01*
Y0484900D02*
Y0502100D01*
X0252000Y0390900D02*
X0270337Y0372563D01*
X0179280Y0564342D02*
X0188042D01*
X0189000Y0565300D01*
X0265250Y0552300D02*
X0267250Y0554299D01*
Y0557900D01*
X0281100Y0567200D02*
X0285883D01*
X0248200Y0568300D02*
Y0573300D01*
X0240409Y0568400D02*
X0248172D01*
X0238300Y0566291D02*
X0240409Y0568400D01*
X0251224Y0348640D02*
X0257865Y0342000D01*
X0279300D01*
X0265877Y0432840D02*
Y0438025D01*
X0266352Y0438500D01*
X0259148D02*
X0266352D01*
X0258102Y0439547D02*
X0259148Y0438500D01*
X0258102Y0439547D02*
Y0445802D01*
X0258500Y0446200D01*
X0158400Y0214324D02*
Y0219151D01*
X0177100Y0245850D02*
Y0247700D01*
X0176000Y0248800D02*
X0177100Y0247700D01*
Y0202850D02*
Y0204600D01*
X0176000Y0205700D02*
X0177100Y0204600D01*
X0305450Y0218600D02*
Y0219750D01*
X0304200Y0221000D02*
X0305450Y0219750D01*
X0269628Y0578400D02*
X0274550D01*
X0275700Y0579550D01*
X0269628Y0573400D02*
X0275350D01*
X0213509Y0562891D02*
X0234900D01*
X0248172Y0558579D02*
Y0563400D01*
X0243300Y0557750D02*
X0247342D01*
X0248172Y0558579D01*
X0279450Y0579050D02*
Y0586300D01*
X0193742Y0515809D02*
X0202550Y0507000D01*
X0190800Y0515809D02*
X0193742D01*
X0252000Y0390900D02*
Y0429700D01*
X0196109Y0548900D02*
X0203309Y0541700D01*
X0175650Y0510161D02*
Y0547250D01*
X0177300Y0548900D01*
X0196109D01*
X0251200Y0430500D02*
X0252000Y0429700D01*
X0236500Y0553000D02*
Y0564491D01*
G54D58*
X0298958Y0170542D02*
Y0175700D01*
Y0215073D02*
Y0218100D01*
Y0256542D02*
Y0261700D01*
X0177100Y0190373D02*
Y0196150D01*
Y0233400D02*
Y0239350D01*
X0303700Y0159750D02*
X0309100D01*
X0303550Y0159600D02*
X0303700Y0159750D01*
X0343100Y0535300D02*
Y0536750D01*
Y0541200D01*
X0171029Y0276521D02*
X0181309D01*
X0170900Y0276650D02*
X0171029Y0276521D01*
G54D59*
X0188400Y0418500D02*
Y0432038D01*
G54D60*
X0324217Y0570100D02*
X0325627Y0568689D01*
Y0554527D02*
Y0568689D01*
G54D61*
X0272205Y0545840D02*
X0276800D01*
X0270777Y0544413D02*
X0272205Y0545840D01*
X0188900Y0496200D02*
Y0504230D01*
Y0496200D02*
X0191442Y0493658D01*
X0192363D01*
X0186500Y0489054D02*
X0191819Y0483734D01*
X0186500Y0489054D02*
Y0503200D01*
X0180913Y0512218D02*
X0188900Y0504230D01*
X0178400Y0511300D02*
X0186500Y0503200D01*
X0234500Y0487800D02*
X0236199Y0486101D01*
Y0475217D02*
Y0486101D01*
X0178400Y0511300D02*
Y0530853D01*
X0184647Y0537100D01*
X0180913Y0512218D02*
Y0523966D01*
X0184447Y0527500D01*
G54D62*
X0202696Y0517100D02*
Y0517404D01*
X0189704Y0529400D02*
X0190200D01*
X0202500Y0517100D01*
X0202696D01*
G54D63*
X0126900Y0073549D02*
X0130899D01*
X0128899D01*
Y0067551D01*
X0133898D02*
X0135897D01*
X0136897Y0068550D01*
Y0070550D01*
X0135897Y0071549D01*
X0133898D01*
X0132898Y0070550D01*
Y0068550D01*
X0133898Y0067551D01*
X0138896Y0065551D02*
Y0071549D01*
X0141895D01*
X0142895Y0070550D01*
Y0068550D01*
X0141895Y0067551D01*
X0138896D01*
X0150892Y0073549D02*
Y0067551D01*
X0154891D01*
X0157890Y0071549D02*
X0159889D01*
X0160889Y0070550D01*
Y0067551D01*
X0157890D01*
X0156890Y0068550D01*
X0157890Y0069550D01*
X0160889D01*
X0162888Y0071549D02*
Y0068550D01*
X0163888Y0067551D01*
X0166887D01*
Y0066551D01*
X0165887Y0065551D01*
X0164888D01*
X0166887Y0067551D02*
Y0071549D01*
X0171885Y0067551D02*
X0169886D01*
X0168886Y0068550D01*
Y0070550D01*
X0169886Y0071549D01*
X0171885D01*
X0172885Y0070550D01*
Y0069550D01*
X0168886D01*
X0174884Y0071549D02*
Y0067551D01*
Y0069550D01*
X0175884Y0070550D01*
X0176884Y0071549D01*
X0177884D01*
X0348550Y0073498D02*
X0352549D01*
X0350549D01*
Y0067500D01*
X0354548Y0073498D02*
X0356547D01*
X0355548D01*
Y0067500D01*
X0354548D01*
X0356547D01*
X0359546Y0073498D02*
Y0067500D01*
X0362545D01*
X0363545Y0068500D01*
Y0072498D01*
X0362545Y0073498D01*
X0359546D01*
X0365545Y0067500D02*
Y0071499D01*
X0367544Y0073498D01*
X0369543Y0071499D01*
Y0067500D01*
Y0070499D01*
X0365545D01*
X0371543D02*
X0375541D01*
X0377541Y0072498D02*
X0378540Y0073498D01*
X0380540D01*
X0381539Y0072498D01*
Y0068500D01*
X0380540Y0067500D01*
X0378540D01*
X0377541Y0068500D01*
Y0072498D01*
X0383539Y0067500D02*
X0385538D01*
X0384538D01*
Y0073498D01*
X0383539Y0072498D01*
X0388537D02*
X0389537Y0073498D01*
X0391536D01*
X0392536Y0072498D01*
Y0068500D01*
X0391536Y0067500D01*
X0389537D01*
X0388537Y0068500D01*
Y0072498D01*
X0394535D02*
X0395535Y0073498D01*
X0397534D01*
X0398534Y0072498D01*
Y0068500D01*
X0397534Y0067500D01*
X0395535D01*
X0394535Y0068500D01*
Y0072498D01*
X0400533D02*
X0401533Y0073498D01*
X0403532D01*
X0404532Y0072498D01*
Y0071499D01*
X0403532Y0070499D01*
X0402532D01*
X0403532D01*
X0404532Y0069499D01*
Y0068500D01*
X0403532Y0067500D01*
X0401533D01*
X0400533Y0068500D01*
X0406531Y0072498D02*
X0407531Y0073498D01*
X0409530D01*
X0410530Y0072498D01*
Y0068500D01*
X0409530Y0067500D01*
X0407531D01*
X0406531Y0068500D01*
Y0072498D01*
X0294000Y0073498D02*
X0297999D01*
X0295999D01*
Y0067500D01*
X0299998Y0073498D02*
X0301997D01*
X0300998D01*
Y0067500D01*
X0299998D01*
X0301997D01*
X0304996Y0073498D02*
Y0067500D01*
X0307996D01*
X0308995Y0068500D01*
Y0072498D01*
X0307996Y0073498D01*
X0304996D01*
X0317992Y0067500D02*
Y0073498D01*
X0319992D02*
Y0067500D01*
X0316993Y0071499D02*
X0319992D01*
X0320991D01*
X0316993Y0069499D02*
X0320991D01*
X0322991Y0071499D02*
X0323990D01*
Y0070499D01*
X0322991D01*
Y0071499D01*
Y0068500D02*
X0323990D01*
Y0067500D01*
X0322991D01*
Y0068500D01*
X0580500Y0052965D02*
X0584499D01*
X0582499D01*
Y0046966D01*
X0590497Y0052965D02*
X0586498D01*
Y0046966D01*
X0590497D01*
X0586498Y0049966D02*
X0588497D01*
X0592496Y0052965D02*
X0596495Y0046966D01*
Y0052965D02*
X0592496Y0046966D01*
X0598494D02*
Y0050965D01*
X0600493Y0052965D01*
X0602493Y0050965D01*
Y0046966D01*
Y0049966D01*
X0598494D01*
X0608491Y0051965D02*
X0607491Y0052965D01*
X0605492D01*
X0604492Y0051965D01*
Y0050965D01*
X0605492Y0049966D01*
X0607491D01*
X0608491Y0048966D01*
Y0047966D01*
X0607491Y0046966D01*
X0605492D01*
X0604492Y0047966D01*
X0616488Y0052965D02*
X0618488D01*
X0617488D01*
Y0046966D01*
X0616488D01*
X0618488D01*
X0621487D02*
Y0052965D01*
X0625486Y0046966D01*
Y0052965D01*
X0631484Y0051965D02*
X0630484Y0052965D01*
X0628484D01*
X0627485Y0051965D01*
Y0050965D01*
X0628484Y0049966D01*
X0630484D01*
X0631484Y0048966D01*
Y0047966D01*
X0630484Y0046966D01*
X0628484D01*
X0627485Y0047966D01*
X0633483Y0052965D02*
X0637482D01*
X0635482D01*
Y0046966D01*
X0639481D02*
Y0052965D01*
X0642480D01*
X0643480Y0051965D01*
Y0049966D01*
X0642480Y0048966D01*
X0639481D01*
X0641480D02*
X0643480Y0046966D01*
X0645479Y0052965D02*
Y0047966D01*
X0646479Y0046966D01*
X0648478D01*
X0649478Y0047966D01*
Y0052965D01*
X0651477Y0046966D02*
Y0052965D01*
X0653476Y0050965D01*
X0655476Y0052965D01*
Y0046966D01*
X0661474Y0052965D02*
X0657475D01*
Y0046966D01*
X0661474D01*
X0657475Y0049966D02*
X0659474D01*
X0663473Y0046966D02*
Y0052965D01*
X0667472Y0046966D01*
Y0052965D01*
X0669471D02*
X0673470D01*
X0671471D01*
Y0046966D01*
X0679468Y0051965D02*
X0678468Y0052965D01*
X0676469D01*
X0675469Y0051965D01*
Y0050965D01*
X0676469Y0049966D01*
X0678468D01*
X0679468Y0048966D01*
Y0047966D01*
X0678468Y0046966D01*
X0676469D01*
X0675469Y0047966D01*
X0454050Y0046966D02*
X0456049D01*
X0455050D01*
Y0052965D01*
X0454050Y0051965D01*
X0459048D02*
X0460048Y0052965D01*
X0462047D01*
X0463047Y0051965D01*
Y0047966D01*
X0462047Y0046966D01*
X0460048D01*
X0459048Y0047966D01*
Y0051965D01*
X0465046Y0050965D02*
X0466046D01*
Y0049966D01*
X0465046D01*
Y0050965D01*
Y0047966D02*
X0466046D01*
Y0046966D01*
X0465046D01*
Y0047966D01*
X0470045Y0046966D02*
X0472044D01*
X0471044D01*
Y0052965D01*
X0470045Y0051965D01*
X0475043D02*
X0476043Y0052965D01*
X0478042D01*
X0479042Y0051965D01*
Y0050965D01*
X0478042Y0049966D01*
X0477043D01*
X0478042D01*
X0479042Y0048966D01*
Y0047966D01*
X0478042Y0046966D01*
X0476043D01*
X0475043Y0047966D01*
X0481041Y0050965D02*
X0482041D01*
Y0049966D01*
X0481041D01*
Y0050965D01*
Y0047966D02*
X0482041D01*
Y0046966D01*
X0481041D01*
Y0047966D01*
X0490038Y0046966D02*
X0486040D01*
X0490038Y0050965D01*
Y0051965D01*
X0489039Y0052965D01*
X0487039D01*
X0486040Y0051965D01*
X0492038D02*
X0493037Y0052965D01*
X0495037D01*
X0496036Y0051965D01*
Y0047966D01*
X0495037Y0046966D01*
X0493037D01*
X0492038Y0047966D01*
Y0051965D01*
X0046350Y0046966D02*
Y0052965D01*
X0049349D01*
X0050349Y0051965D01*
Y0049966D01*
X0049349Y0048966D01*
X0046350D01*
X0052348Y0052965D02*
Y0046966D01*
X0056347D01*
X0061345Y0052965D02*
X0059346D01*
X0058346Y0051965D01*
Y0047966D01*
X0059346Y0046966D01*
X0061345D01*
X0062345Y0047966D01*
Y0051965D01*
X0061345Y0052965D01*
X0064344D02*
X0068343D01*
X0066343D01*
Y0046966D01*
X0076340D02*
Y0052965D01*
X0080339Y0046966D01*
Y0052965D01*
X0082338Y0046966D02*
Y0050965D01*
X0084338Y0052965D01*
X0086337Y0050965D01*
Y0046966D01*
Y0049966D01*
X0082338D01*
X0088336Y0046966D02*
Y0052965D01*
X0090336Y0050965D01*
X0092335Y0052965D01*
Y0046966D01*
X0098333Y0052965D02*
X0094335D01*
Y0046966D01*
X0098333D01*
X0094335Y0049966D02*
X0096334D01*
X0106331Y0048966D02*
X0110329D01*
X0106331Y0050965D02*
X0110329D01*
X0046350Y0073549D02*
Y0067551D01*
X0050349D01*
X0052348D02*
Y0071549D01*
X0054347Y0073549D01*
X0056347Y0071549D01*
Y0067551D01*
Y0070550D01*
X0052348D01*
X0058346Y0073549D02*
Y0072549D01*
X0060346Y0070550D01*
X0062345Y0072549D01*
Y0073549D01*
X0060346Y0070550D02*
Y0067551D01*
X0068343Y0073549D02*
X0064344D01*
Y0067551D01*
X0068343D01*
X0064344Y0070550D02*
X0066343D01*
X0070342Y0067551D02*
Y0073549D01*
X0073341D01*
X0074341Y0072549D01*
Y0070550D01*
X0073341Y0069550D01*
X0070342D01*
X0072342D02*
X0074341Y0067551D01*
X0082338D02*
Y0073549D01*
X0086337Y0067551D01*
Y0073549D01*
X0088336Y0067551D02*
Y0071549D01*
X0090336Y0073549D01*
X0092335Y0071549D01*
Y0067551D01*
Y0070550D01*
X0088336D01*
X0094335Y0067551D02*
Y0073549D01*
X0096334Y0071549D01*
X0098333Y0073549D01*
Y0067551D01*
X0104331Y0073549D02*
X0100332D01*
Y0067551D01*
X0104331D01*
X0100332Y0070550D02*
X0102332D01*
X0112329Y0069550D02*
X0116327D01*
X0112329Y0071549D02*
X0116327D01*
X0294000Y0093831D02*
Y0087833D01*
X0296999D01*
X0297999Y0088833D01*
Y0089833D01*
X0296999Y0090832D01*
X0294000D01*
X0296999D01*
X0297999Y0091832D01*
Y0092832D01*
X0296999Y0093831D01*
X0294000D01*
X0302997D02*
X0300998D01*
X0299998Y0092832D01*
Y0088833D01*
X0300998Y0087833D01*
X0302997D01*
X0303997Y0088833D01*
Y0092832D01*
X0302997Y0093831D01*
X0305996Y0087833D02*
Y0091832D01*
X0307996Y0093831D01*
X0309995Y0091832D01*
Y0087833D01*
Y0090832D01*
X0305996D01*
X0311994Y0087833D02*
Y0093831D01*
X0314993D01*
X0315993Y0092832D01*
Y0090832D01*
X0314993Y0089833D01*
X0311994D01*
X0313994D02*
X0315993Y0087833D01*
X0317992Y0093831D02*
Y0087833D01*
X0320991D01*
X0321991Y0088833D01*
Y0092832D01*
X0320991Y0093831D01*
X0317992D01*
X0330988Y0087833D02*
Y0093831D01*
X0332987D02*
Y0087833D01*
X0329988Y0091832D02*
X0332987D01*
X0333987D01*
X0329988Y0089833D02*
X0333987D01*
X0335986Y0091832D02*
X0336986D01*
Y0090832D01*
X0335986D01*
Y0091832D01*
Y0088833D02*
X0336986D01*
Y0087833D01*
X0335986D01*
Y0088833D01*
X0348550Y0093831D02*
X0352549D01*
X0350549D01*
Y0087833D01*
X0354548Y0093831D02*
X0356547D01*
X0355548D01*
Y0087833D01*
X0354548D01*
X0356547D01*
X0359546Y0093831D02*
Y0087833D01*
X0362545D01*
X0363545Y0088833D01*
Y0092832D01*
X0362545Y0093831D01*
X0359546D01*
X0365545Y0087833D02*
Y0091832D01*
X0367544Y0093831D01*
X0369543Y0091832D01*
Y0087833D01*
Y0090832D01*
X0365545D01*
X0371543D02*
X0375541D01*
X0377541Y0092832D02*
X0378540Y0093831D01*
X0380540D01*
X0381539Y0092832D01*
Y0088833D01*
X0380540Y0087833D01*
X0378540D01*
X0377541Y0088833D01*
Y0092832D01*
X0383539Y0087833D02*
X0385538D01*
X0384538D01*
Y0093831D01*
X0383539Y0092832D01*
X0388537D02*
X0389537Y0093831D01*
X0391536D01*
X0392536Y0092832D01*
Y0088833D01*
X0391536Y0087833D01*
X0389537D01*
X0388537Y0088833D01*
Y0092832D01*
X0394535D02*
X0395535Y0093831D01*
X0397534D01*
X0398534Y0092832D01*
Y0088833D01*
X0397534Y0087833D01*
X0395535D01*
X0394535Y0088833D01*
Y0092832D01*
X0400533D02*
X0401533Y0093831D01*
X0403532D01*
X0404532Y0092832D01*
Y0091832D01*
X0403532Y0090832D01*
X0402532D01*
X0403532D01*
X0404532Y0089833D01*
Y0088833D01*
X0403532Y0087833D01*
X0401533D01*
X0400533Y0088833D01*
X0406531Y0092832D02*
X0407531Y0093831D01*
X0409530D01*
X0410530Y0092832D01*
Y0088833D01*
X0409530Y0087833D01*
X0407531D01*
X0406531Y0088833D01*
Y0092832D01*
X0466149Y0093831D02*
X0462150D01*
Y0087833D01*
X0466149D01*
X0462150Y0090832D02*
X0464149D01*
X0468148Y0087833D02*
X0470147D01*
X0469148D01*
Y0093831D01*
X0468148Y0092832D01*
X0046350Y0087833D02*
Y0091832D01*
X0048349Y0093831D01*
X0050349Y0091832D01*
Y0087833D01*
Y0090832D01*
X0046350D01*
X0052348Y0093831D02*
Y0087833D01*
X0056347D01*
X0058346Y0093831D02*
Y0087833D01*
X0062345D01*
X0070342D02*
Y0091832D01*
X0072342Y0093831D01*
X0074341Y0091832D01*
Y0087833D01*
Y0090832D01*
X0070342D01*
X0076340Y0087833D02*
Y0093831D01*
X0079339D01*
X0080339Y0092832D01*
Y0090832D01*
X0079339Y0089833D01*
X0076340D01*
X0078340D02*
X0080339Y0087833D01*
X0082338Y0093831D02*
X0086337D01*
X0084338D01*
Y0087833D01*
X0088336Y0093831D02*
Y0087833D01*
X0090336Y0089833D01*
X0092335Y0087833D01*
Y0093831D01*
X0097334D02*
X0095334D01*
X0094335Y0092832D01*
Y0088833D01*
X0095334Y0087833D01*
X0097334D01*
X0098333Y0088833D01*
Y0092832D01*
X0097334Y0093831D01*
X0100332Y0087833D02*
Y0093831D01*
X0103332D01*
X0104331Y0092832D01*
Y0090832D01*
X0103332Y0089833D01*
X0100332D01*
X0102332D02*
X0104331Y0087833D01*
X0106331Y0093831D02*
Y0087833D01*
Y0089833D01*
X0110329Y0093831D01*
X0107330Y0090832D01*
X0110329Y0087833D01*
X0118327Y0093831D02*
Y0089833D01*
X0120326Y0087833D01*
X0122325Y0089833D01*
Y0093831D01*
X0124325D02*
X0126324D01*
X0125324D01*
Y0087833D01*
X0124325D01*
X0126324D01*
X0133322Y0093831D02*
X0129323D01*
Y0087833D01*
X0133322D01*
X0129323Y0090832D02*
X0131323D01*
X0135321Y0093831D02*
Y0087833D01*
X0137321Y0089833D01*
X0139320Y0087833D01*
Y0093831D01*
X0145318D02*
X0141319D01*
Y0087833D01*
X0145318D01*
X0141319Y0090832D02*
X0143319D01*
X0147317Y0093831D02*
Y0087833D01*
X0150316D01*
X0151316Y0088833D01*
Y0092832D01*
X0150316Y0093831D01*
X0147317D01*
X0163312D02*
X0159313D01*
Y0090832D01*
X0161313D01*
X0159313D01*
Y0087833D01*
X0165312D02*
Y0093831D01*
X0168310D01*
X0169310Y0092832D01*
Y0090832D01*
X0168310Y0089833D01*
X0165312D01*
X0167311D02*
X0169310Y0087833D01*
X0174309Y0093831D02*
X0172309D01*
X0171310Y0092832D01*
Y0088833D01*
X0172309Y0087833D01*
X0174309D01*
X0175308Y0088833D01*
Y0092832D01*
X0174309Y0093831D01*
X0177308Y0087833D02*
Y0093831D01*
X0179307Y0091832D01*
X0181306Y0093831D01*
Y0087833D01*
X0189304Y0093831D02*
X0193303D01*
X0191303D01*
Y0087833D01*
X0198301Y0093831D02*
X0196301D01*
X0195302Y0092832D01*
Y0088833D01*
X0196301Y0087833D01*
X0198301D01*
X0199301Y0088833D01*
Y0092832D01*
X0198301Y0093831D01*
X0201300Y0087833D02*
Y0093831D01*
X0204299D01*
X0205299Y0092832D01*
Y0090832D01*
X0204299Y0089833D01*
X0201300D01*
X0217295Y0092832D02*
X0216295Y0093831D01*
X0214296D01*
X0213296Y0092832D01*
Y0091832D01*
X0214296Y0090832D01*
X0216295D01*
X0217295Y0089833D01*
Y0088833D01*
X0216295Y0087833D01*
X0214296D01*
X0213296Y0088833D01*
X0219294Y0093831D02*
X0221293D01*
X0220294D01*
Y0087833D01*
X0219294D01*
X0221293D01*
X0224292Y0093831D02*
Y0087833D01*
X0227291D01*
X0228291Y0088833D01*
Y0092832D01*
X0227291Y0093831D01*
X0224292D01*
X0234289D02*
X0230291D01*
Y0087833D01*
X0234289D01*
X0230291Y0090832D02*
X0232290D01*
X0298199Y0051965D02*
X0297199Y0052965D01*
X0295200D01*
X0294200Y0051965D01*
Y0047966D01*
X0295200Y0046966D01*
X0297199D01*
X0298199Y0047966D01*
Y0049966D01*
X0296199D01*
X0304197Y0052965D02*
X0300198D01*
Y0046966D01*
X0304197D01*
X0300198Y0049966D02*
X0302197D01*
X0306196Y0046966D02*
Y0052965D01*
X0310195Y0046966D01*
Y0052965D01*
X0316193D02*
X0312194D01*
Y0046966D01*
X0316193D01*
X0312194Y0049966D02*
X0314194D01*
X0318192Y0046966D02*
Y0052965D01*
X0321191D01*
X0322191Y0051965D01*
Y0049966D01*
X0321191Y0048966D01*
X0318192D01*
X0320192D02*
X0322191Y0046966D01*
X0324190D02*
Y0050965D01*
X0326190Y0052965D01*
X0328189Y0050965D01*
Y0046966D01*
Y0049966D01*
X0324190D01*
X0330188Y0052965D02*
X0334187D01*
X0332188D01*
Y0046966D01*
X0340185Y0052965D02*
X0336186D01*
Y0046966D01*
X0340185D01*
X0336186Y0049966D02*
X0338186D01*
X0342184Y0052965D02*
Y0046966D01*
X0345183D01*
X0346183Y0047966D01*
Y0051965D01*
X0345183Y0052965D01*
X0342184D01*
X0372175Y0050965D02*
X0373175D01*
Y0049966D01*
X0372175D01*
Y0050965D01*
Y0047966D02*
X0373175D01*
Y0046966D01*
X0372175D01*
Y0047966D01*
X0385149Y0046966D02*
X0381150D01*
X0385149Y0050965D01*
Y0051965D01*
X0384149Y0052965D01*
X0382150D01*
X0381150Y0051965D01*
X0387148D02*
X0388148Y0052965D01*
X0390147D01*
X0391147Y0051965D01*
Y0047966D01*
X0390147Y0046966D01*
X0388148D01*
X0387148Y0047966D01*
Y0051965D01*
X0393146Y0046966D02*
X0395146D01*
X0394146D01*
Y0052965D01*
X0393146Y0051965D01*
X0398145Y0047966D02*
X0399144Y0046966D01*
X0401144D01*
X0402143Y0047966D01*
Y0051965D01*
X0401144Y0052965D01*
X0399144D01*
X0398145Y0051965D01*
Y0050965D01*
X0399144Y0049966D01*
X0402143D01*
X0404143Y0046966D02*
X0408141Y0050965D01*
X0414139Y0052965D02*
X0412140Y0051965D01*
X0410141Y0049966D01*
Y0047966D01*
X0411140Y0046966D01*
X0413140D01*
X0414139Y0047966D01*
Y0048966D01*
X0413140Y0049966D01*
X0410141D01*
X0416139Y0046966D02*
X0420137Y0050965D01*
X0422137Y0046966D02*
X0424136D01*
X0423136D01*
Y0052965D01*
X0422137Y0051965D01*
X0427135Y0052965D02*
X0431134D01*
Y0051965D01*
X0427135Y0047966D01*
Y0046966D01*
X0126900Y0052965D02*
X0130899D01*
X0128899D01*
Y0046966D01*
X0132898Y0052965D02*
X0134897D01*
X0133898D01*
Y0046966D01*
X0132898D01*
X0134897D01*
X0137896Y0052965D02*
Y0046966D01*
X0140895D01*
X0141895Y0047966D01*
Y0051965D01*
X0140895Y0052965D01*
X0137896D01*
X0143895Y0046966D02*
Y0050965D01*
X0145894Y0052965D01*
X0147893Y0050965D01*
Y0046966D01*
Y0049966D01*
X0143895D01*
X0149893D02*
X0153891D01*
X0155891Y0051965D02*
X0156890Y0052965D01*
X0158890D01*
X0159889Y0051965D01*
Y0047966D01*
X0158890Y0046966D01*
X0156890D01*
X0155891Y0047966D01*
Y0051965D01*
X0161889Y0046966D02*
X0163888D01*
X0162888D01*
Y0052965D01*
X0161889Y0051965D01*
X0166887D02*
X0167887Y0052965D01*
X0169886D01*
X0170886Y0051965D01*
Y0047966D01*
X0169886Y0046966D01*
X0167887D01*
X0166887Y0047966D01*
Y0051965D01*
X0172885D02*
X0173885Y0052965D01*
X0175884D01*
X0176884Y0051965D01*
Y0047966D01*
X0175884Y0046966D01*
X0173885D01*
X0172885Y0047966D01*
Y0051965D01*
X0178883D02*
X0179883Y0052965D01*
X0181882D01*
X0182882Y0051965D01*
Y0050965D01*
X0181882Y0049966D01*
X0180883D01*
X0181882D01*
X0182882Y0048966D01*
Y0047966D01*
X0181882Y0046966D01*
X0179883D01*
X0178883Y0047966D01*
X0184881Y0051965D02*
X0185881Y0052965D01*
X0187880D01*
X0188880Y0051965D01*
Y0047966D01*
X0187880Y0046966D01*
X0185881D01*
X0184881Y0047966D01*
Y0051965D01*
X0194878Y0052965D02*
X0190879D01*
Y0046966D01*
X0194878D01*
X0190879Y0049966D02*
X0192879D01*
X0196877Y0046966D02*
X0198877D01*
X0197877D01*
Y0052965D01*
X0196877Y0051965D01*
X0201876Y0046966D02*
Y0047966D01*
X0202875D01*
Y0046966D01*
X0201876D01*
X0210873Y0051965D02*
X0209873Y0052965D01*
X0207874D01*
X0206874Y0051965D01*
Y0047966D01*
X0207874Y0046966D01*
X0209873D01*
X0210873Y0047966D01*
Y0049966D01*
X0208874D01*
X0212872Y0052965D02*
X0216871D01*
X0214872D01*
Y0046966D01*
X0218870Y0052965D02*
Y0046966D01*
X0222869D01*
X0433000Y0087833D02*
Y0093831D01*
X0435999D01*
X0436999Y0092832D01*
Y0090832D01*
X0435999Y0089833D01*
X0433000D01*
X0434999D02*
X0436999Y0087833D01*
X0442997Y0093831D02*
X0438998D01*
Y0087833D01*
X0442997D01*
X0438998Y0090832D02*
X0440997D01*
X0444996Y0093831D02*
Y0089833D01*
X0446995Y0087833D01*
X0448995Y0089833D01*
Y0093831D01*
X0450994Y0091832D02*
X0451994D01*
Y0090832D01*
X0450994D01*
Y0091832D01*
Y0088833D02*
X0451994D01*
Y0087833D01*
X0450994D01*
Y0088833D01*
X0520799Y0092832D02*
X0519799Y0093831D01*
X0517800D01*
X0516800Y0092832D01*
Y0091832D01*
X0517800Y0090832D01*
X0519799D01*
X0520799Y0089833D01*
Y0088833D01*
X0519799Y0087833D01*
X0517800D01*
X0516800Y0088833D01*
X0522798Y0093831D02*
Y0089833D01*
X0524797Y0087833D01*
X0526797Y0089833D01*
Y0093831D01*
X0528796Y0087833D02*
Y0093831D01*
X0532795Y0087833D01*
Y0093831D01*
X0540792Y0087833D02*
Y0093831D01*
X0543791D01*
X0544791Y0092832D01*
Y0090832D01*
X0543791Y0089833D01*
X0540792D01*
X0542792D02*
X0544791Y0087833D01*
X0550789Y0093831D02*
X0546790D01*
Y0087833D01*
X0550789D01*
X0546790Y0090832D02*
X0548790D01*
X0552788Y0093831D02*
Y0089833D01*
X0554788Y0087833D01*
X0556787Y0089833D01*
Y0093831D01*
X0558786Y0091832D02*
X0559786D01*
Y0090832D01*
X0558786D01*
Y0091832D01*
Y0088833D02*
X0559786D01*
Y0087833D01*
X0558786D01*
Y0088833D01*
X0567400Y0087833D02*
Y0093831D01*
X0571399Y0087833D01*
Y0093831D01*
X0574398Y0087833D02*
X0576397D01*
X0577397Y0088833D01*
Y0090832D01*
X0576397Y0091832D01*
X0574398D01*
X0573398Y0090832D01*
Y0088833D01*
X0574398Y0087833D01*
X0580396Y0092832D02*
Y0091832D01*
X0579396D01*
X0581395D01*
X0580396D01*
Y0088833D01*
X0581395Y0087833D01*
X0590393Y0093831D02*
X0592392D01*
X0591392D01*
Y0087833D01*
X0590393D01*
X0592392D01*
X0595391D02*
Y0091832D01*
X0598390D01*
X0599390Y0090832D01*
Y0087833D01*
X0607387Y0093831D02*
Y0089833D01*
X0609386Y0087833D01*
X0611386Y0089833D01*
Y0093831D01*
X0616384Y0087833D02*
X0614385D01*
X0613385Y0088833D01*
Y0090832D01*
X0614385Y0091832D01*
X0616384D01*
X0617384Y0090832D01*
Y0089833D01*
X0613385D01*
X0619383Y0091832D02*
Y0087833D01*
Y0089833D01*
X0620383Y0090832D01*
X0621383Y0091832D01*
X0622382D01*
X0625381Y0087833D02*
X0628380D01*
X0629380Y0088833D01*
X0628380Y0089833D01*
X0626381D01*
X0625381Y0090832D01*
X0626381Y0091832D01*
X0629380D01*
X0631379Y0087833D02*
X0633379D01*
X0632379D01*
Y0091832D01*
X0631379D01*
X0637377Y0087833D02*
X0639377D01*
X0640376Y0088833D01*
Y0090832D01*
X0639377Y0091832D01*
X0637377D01*
X0636378Y0090832D01*
Y0088833D01*
X0637377Y0087833D01*
X0642376D02*
Y0091832D01*
X0645375D01*
X0646374Y0090832D01*
Y0087833D01*
X0652373Y0092832D02*
X0651373Y0093831D01*
X0649373D01*
X0648374Y0092832D01*
Y0088833D01*
X0649373Y0087833D01*
X0651373D01*
X0652373Y0088833D01*
X0655372Y0087833D02*
X0657371D01*
X0658371Y0088833D01*
Y0090832D01*
X0657371Y0091832D01*
X0655372D01*
X0654372Y0090832D01*
Y0088833D01*
X0655372Y0087833D01*
X0660370D02*
Y0091832D01*
X0663369D01*
X0664369Y0090832D01*
Y0087833D01*
X0667368Y0092832D02*
Y0091832D01*
X0666368D01*
X0668367D01*
X0667368D01*
Y0088833D01*
X0668367Y0087833D01*
X0671366Y0091832D02*
Y0087833D01*
Y0089833D01*
X0672366Y0090832D01*
X0673366Y0091832D01*
X0674365D01*
X0678364Y0087833D02*
X0680364D01*
X0681363Y0088833D01*
Y0090832D01*
X0680364Y0091832D01*
X0678364D01*
X0677364Y0090832D01*
Y0088833D01*
X0678364Y0087833D01*
X0683362D02*
X0685362D01*
X0684362D01*
Y0093831D01*
X0683362D01*
G54D64*
X0228400Y0301400D02*
D03*
G54D65*
X0205350Y0520450D02*
D03*
G54D66*
X0174900Y0284150D02*
D03*
G54D67*
X0217250Y0429150D02*
D03*
G54D68*
X0090100Y0566300D02*
D03*
Y0556300D02*
D03*
Y0546300D02*
D03*
Y0536300D02*
D03*
Y0526300D02*
D03*
Y0516300D02*
D03*
Y0506300D02*
D03*
Y0496300D02*
D03*
Y0486300D02*
D03*
Y0476300D02*
D03*
Y0466300D02*
D03*
Y0456300D02*
D03*
Y0446300D02*
D03*
X0080000Y0566300D02*
D03*
Y0556300D02*
D03*
Y0546300D02*
D03*
Y0536300D02*
D03*
Y0526300D02*
D03*
Y0516300D02*
D03*
Y0506300D02*
D03*
Y0496300D02*
D03*
Y0486300D02*
D03*
Y0476300D02*
D03*
Y0466300D02*
D03*
Y0456300D02*
D03*
Y0446300D02*
D03*
X0141700Y0188700D02*
D03*
Y0198700D02*
D03*
Y0208700D02*
D03*
X0289200Y0460400D02*
D03*
X0296000Y0515200D02*
D03*
X0306000D02*
D03*
X0316000D02*
D03*
X0263400Y0521500D02*
D03*
X0253400Y0511500D02*
D03*
X0263400D02*
D03*
G54D69*
X0090100Y0436300D02*
D03*
X0080000D02*
D03*
X0141700Y0218700D02*
D03*
X0253400Y0521500D02*
D03*
G54D70*
X0080900Y0204800D02*
D03*
X0100600D02*
D03*
X0120300D02*
D03*
Y0232400D02*
D03*
X0100600D02*
D03*
X0080900D02*
D03*
Y0338100D02*
D03*
X0100600D02*
D03*
X0120300D02*
D03*
Y0365700D02*
D03*
X0100600D02*
D03*
X0080900D02*
D03*
X0378700Y0335600D02*
D03*
X0398400D02*
D03*
X0418100D02*
D03*
Y0363200D02*
D03*
X0398400D02*
D03*
X0378700D02*
D03*
Y0202300D02*
D03*
X0398400D02*
D03*
X0418100D02*
D03*
Y0229900D02*
D03*
X0398400D02*
D03*
X0378700D02*
D03*
G54D71*
X0232400Y0437247D02*
D03*
Y0443153D02*
D03*
X0218300Y0548653D02*
D03*
Y0542747D02*
D03*
X0224000Y0548653D02*
D03*
Y0542747D02*
D03*
X0229700Y0548653D02*
D03*
Y0542747D02*
D03*
G54D72*
X0410900Y0451350D02*
D03*
Y0473300D02*
D03*
Y0429400D02*
D03*
G54D73*
Y0461350D02*
D03*
Y0483300D02*
D03*
Y0439400D02*
D03*
G54D74*
X0299200Y0460400D02*
D03*
X0286000Y0515200D02*
D03*
G54D75*
X0251000Y0544400D02*
D03*
X0255600Y0333200D02*
D03*
X0261700Y0333800D02*
D03*
X0185200Y0474900D02*
D03*
X0180700Y0465200D02*
D03*
X0187400Y0483300D02*
D03*
X0258300Y0585500D02*
D03*
X0341400Y0557500D02*
D03*
X0279600Y0481500D02*
D03*
X0351400Y0526100D02*
D03*
X0176000Y0248800D02*
D03*
Y0205700D02*
D03*
X0304200Y0221000D02*
D03*
Y0264700D02*
D03*
X0318500Y0226500D02*
D03*
X0315300D02*
D03*
Y0232900D02*
D03*
Y0229700D02*
D03*
X0321700D02*
D03*
X0318500D02*
D03*
Y0236100D02*
D03*
Y0232900D02*
D03*
X0324900D02*
D03*
X0321700D02*
D03*
Y0239300D02*
D03*
Y0236100D02*
D03*
X0324900D02*
D03*
X0318500Y0261700D02*
D03*
Y0264900D02*
D03*
X0315300D02*
D03*
X0321700Y0261700D02*
D03*
Y0264900D02*
D03*
X0324900Y0261700D02*
D03*
X0315300Y0236100D02*
D03*
Y0239300D02*
D03*
Y0242500D02*
D03*
Y0245700D02*
D03*
Y0248900D02*
D03*
Y0252100D02*
D03*
Y0255300D02*
D03*
Y0258500D02*
D03*
Y0261700D02*
D03*
X0318500Y0255300D02*
D03*
Y0258500D02*
D03*
X0321700Y0255300D02*
D03*
Y0258500D02*
D03*
X0315300Y0268100D02*
D03*
X0246400Y0441400D02*
D03*
X0341700Y0539200D02*
D03*
X0414900Y0553900D02*
D03*
X0415200Y0551200D02*
D03*
X0416400Y0548700D02*
D03*
X0413700Y0548800D02*
D03*
X0412400Y0551100D02*
D03*
X0288700Y0289700D02*
D03*
X0113900Y0160900D02*
D03*
X0110700D02*
D03*
X0107500D02*
D03*
X0104300D02*
D03*
X0113900Y0164100D02*
D03*
X0110700D02*
D03*
X0107500D02*
D03*
X0104300D02*
D03*
X0113900Y0167300D02*
D03*
X0110700D02*
D03*
X0107500D02*
D03*
X0104300D02*
D03*
X0113900Y0170500D02*
D03*
X0110700D02*
D03*
X0107500D02*
D03*
X0104300D02*
D03*
X0113900Y0173700D02*
D03*
X0110700D02*
D03*
X0107500D02*
D03*
X0104300D02*
D03*
X0113900Y0176900D02*
D03*
X0110700D02*
D03*
X0107500D02*
D03*
X0104300D02*
D03*
X0113900Y0180100D02*
D03*
X0110700D02*
D03*
X0107500D02*
D03*
X0104300D02*
D03*
X0113900Y0183300D02*
D03*
X0110700D02*
D03*
X0107500D02*
D03*
X0104300D02*
D03*
X0113900Y0186500D02*
D03*
X0110700D02*
D03*
X0107500D02*
D03*
X0104300D02*
D03*
X0113900Y0189700D02*
D03*
X0110700D02*
D03*
X0107500D02*
D03*
X0104300D02*
D03*
X0113900Y0192900D02*
D03*
X0110700D02*
D03*
X0107500D02*
D03*
X0104300D02*
D03*
X0113900Y0196100D02*
D03*
X0110700D02*
D03*
X0107500D02*
D03*
X0104300D02*
D03*
X0133400Y0285300D02*
D03*
X0136600D02*
D03*
X0139800D02*
D03*
X0143000D02*
D03*
X0133400Y0282100D02*
D03*
X0143000D02*
D03*
X0139800D02*
D03*
X0136600D02*
D03*
X0133400Y0278900D02*
D03*
X0136600D02*
D03*
X0139800D02*
D03*
X0143000D02*
D03*
X0133400Y0275700D02*
D03*
X0136600D02*
D03*
X0139800D02*
D03*
X0143000D02*
D03*
X0133400Y0272500D02*
D03*
X0136600D02*
D03*
X0139800D02*
D03*
X0143000D02*
D03*
X0133400Y0269300D02*
D03*
X0136600D02*
D03*
X0139800D02*
D03*
X0143000D02*
D03*
X0133400Y0266100D02*
D03*
X0136600D02*
D03*
X0139800D02*
D03*
X0143000D02*
D03*
X0133400Y0262900D02*
D03*
X0136600D02*
D03*
X0139800D02*
D03*
X0143000D02*
D03*
X0133400Y0259700D02*
D03*
X0136600D02*
D03*
X0139800D02*
D03*
X0143000D02*
D03*
X0133400Y0256500D02*
D03*
X0136600D02*
D03*
X0139800D02*
D03*
X0143000D02*
D03*
X0133400Y0253300D02*
D03*
X0136600D02*
D03*
X0139800D02*
D03*
X0143000D02*
D03*
X0133400Y0250100D02*
D03*
X0136600D02*
D03*
X0139800D02*
D03*
X0143000D02*
D03*
X0133400Y0246900D02*
D03*
X0136600D02*
D03*
X0139800D02*
D03*
X0143000D02*
D03*
X0133400Y0243700D02*
D03*
X0136600D02*
D03*
X0139800D02*
D03*
X0143000D02*
D03*
X0133400Y0240500D02*
D03*
X0136600D02*
D03*
X0139800D02*
D03*
X0143000D02*
D03*
X0133400Y0237300D02*
D03*
X0136600D02*
D03*
X0139800D02*
D03*
X0143000D02*
D03*
X0133400Y0234100D02*
D03*
X0136600D02*
D03*
X0139800D02*
D03*
X0143000D02*
D03*
X0133400Y0230900D02*
D03*
X0136600D02*
D03*
X0139800D02*
D03*
X0143000D02*
D03*
X0324900Y0175300D02*
D03*
X0321700D02*
D03*
X0318500D02*
D03*
X0315300D02*
D03*
X0324900Y0178500D02*
D03*
X0321700D02*
D03*
X0318500D02*
D03*
X0315300D02*
D03*
X0324900Y0181700D02*
D03*
X0321700D02*
D03*
X0318500D02*
D03*
X0315300D02*
D03*
X0324900Y0184900D02*
D03*
X0321700D02*
D03*
X0318500D02*
D03*
X0315300D02*
D03*
X0324900Y0188100D02*
D03*
X0321700D02*
D03*
X0318500D02*
D03*
X0315300D02*
D03*
X0324900Y0191300D02*
D03*
X0321700D02*
D03*
X0318500D02*
D03*
X0315300D02*
D03*
X0324900Y0194500D02*
D03*
X0321700D02*
D03*
X0318500D02*
D03*
X0315300D02*
D03*
X0324900Y0197700D02*
D03*
X0321700D02*
D03*
X0318500D02*
D03*
X0315300D02*
D03*
X0324900Y0200900D02*
D03*
X0321700D02*
D03*
X0318500D02*
D03*
X0315300D02*
D03*
X0324900Y0204100D02*
D03*
X0321700D02*
D03*
X0318500D02*
D03*
X0315300D02*
D03*
X0324900Y0207300D02*
D03*
X0321700D02*
D03*
X0318500D02*
D03*
X0315300D02*
D03*
X0324900Y0210500D02*
D03*
X0321700D02*
D03*
X0318500D02*
D03*
X0315300D02*
D03*
X0324900Y0213700D02*
D03*
X0321700D02*
D03*
X0318500D02*
D03*
X0315300D02*
D03*
X0324900Y0216900D02*
D03*
X0321700D02*
D03*
X0318500D02*
D03*
X0315300D02*
D03*
X0324900Y0220100D02*
D03*
X0321700D02*
D03*
X0318500D02*
D03*
X0315300D02*
D03*
X0324900Y0223300D02*
D03*
X0321700D02*
D03*
X0318500D02*
D03*
X0315300D02*
D03*
X0324900Y0226500D02*
D03*
X0321700D02*
D03*
X0324900Y0229700D02*
D03*
Y0239300D02*
D03*
X0318500D02*
D03*
X0324900Y0242500D02*
D03*
X0321700D02*
D03*
X0318500D02*
D03*
X0324900Y0245700D02*
D03*
X0321700D02*
D03*
X0318500D02*
D03*
X0324900Y0248900D02*
D03*
X0321700D02*
D03*
X0318500D02*
D03*
X0324900Y0252100D02*
D03*
X0321700D02*
D03*
X0318500D02*
D03*
X0324900Y0255300D02*
D03*
Y0258500D02*
D03*
Y0264900D02*
D03*
Y0268100D02*
D03*
X0321700D02*
D03*
X0318500D02*
D03*
X0183000Y0325400D02*
D03*
X0179800D02*
D03*
X0176600D02*
D03*
X0173400D02*
D03*
X0183000Y0328600D02*
D03*
X0179800D02*
D03*
X0176600D02*
D03*
X0173400D02*
D03*
X0183000Y0331800D02*
D03*
X0179800D02*
D03*
X0176600D02*
D03*
X0173400D02*
D03*
X0183000Y0335000D02*
D03*
X0179800D02*
D03*
X0176600D02*
D03*
X0173400D02*
D03*
X0183000Y0338200D02*
D03*
X0179800D02*
D03*
X0176600D02*
D03*
X0173400D02*
D03*
X0183000Y0341400D02*
D03*
X0179800D02*
D03*
X0176600D02*
D03*
X0173400D02*
D03*
X0183000Y0344600D02*
D03*
X0179800D02*
D03*
X0176600D02*
D03*
X0173400D02*
D03*
X0183000Y0347800D02*
D03*
X0179800D02*
D03*
X0176600D02*
D03*
X0173400D02*
D03*
X0183000Y0351000D02*
D03*
X0179800D02*
D03*
X0176600D02*
D03*
X0173400D02*
D03*
X0183000Y0354200D02*
D03*
X0179800D02*
D03*
X0176600D02*
D03*
X0173400D02*
D03*
X0183000Y0357400D02*
D03*
X0173400D02*
D03*
X0176600D02*
D03*
X0179800D02*
D03*
X0183000Y0360600D02*
D03*
X0179800D02*
D03*
X0176600D02*
D03*
X0173400D02*
D03*
X0183000Y0363800D02*
D03*
X0179800D02*
D03*
X0176600D02*
D03*
X0173400D02*
D03*
X0183000Y0367000D02*
D03*
X0179800D02*
D03*
X0176600D02*
D03*
X0173400D02*
D03*
X0183000Y0370200D02*
D03*
X0179800D02*
D03*
X0176600D02*
D03*
X0173400D02*
D03*
X0183000Y0373400D02*
D03*
X0179800D02*
D03*
X0176600D02*
D03*
X0173400D02*
D03*
X0183000Y0376600D02*
D03*
X0179800D02*
D03*
X0176600D02*
D03*
X0173400D02*
D03*
X0183000Y0379800D02*
D03*
X0179800D02*
D03*
X0176600D02*
D03*
X0173400D02*
D03*
X0183000Y0383000D02*
D03*
X0179800D02*
D03*
X0176600D02*
D03*
X0173400D02*
D03*
X0183000Y0386200D02*
D03*
X0179800D02*
D03*
X0176600D02*
D03*
X0173400D02*
D03*
X0183000Y0389400D02*
D03*
X0179800D02*
D03*
X0176600D02*
D03*
X0173400D02*
D03*
X0183000Y0392600D02*
D03*
X0179800D02*
D03*
X0176600D02*
D03*
X0173400D02*
D03*
X0183000Y0395800D02*
D03*
X0179800D02*
D03*
X0176600D02*
D03*
X0173400D02*
D03*
X0183000Y0399000D02*
D03*
X0179800D02*
D03*
X0176600D02*
D03*
X0173400D02*
D03*
X0183000Y0402200D02*
D03*
X0179800D02*
D03*
X0176600D02*
D03*
X0173400D02*
D03*
X0183000Y0405400D02*
D03*
X0179800D02*
D03*
X0176600D02*
D03*
X0173400D02*
D03*
X0183000Y0408600D02*
D03*
X0179800D02*
D03*
X0176600D02*
D03*
X0173400D02*
D03*
X0183000Y0411800D02*
D03*
X0179800D02*
D03*
X0176600D02*
D03*
X0173400D02*
D03*
X0183000Y0415000D02*
D03*
X0179800D02*
D03*
X0176600D02*
D03*
X0173400D02*
D03*
X0183000Y0418200D02*
D03*
X0179800D02*
D03*
X0176600D02*
D03*
X0173400D02*
D03*
X0272400Y0395700D02*
D03*
X0269200D02*
D03*
X0266000D02*
D03*
X0262800D02*
D03*
X0272400Y0398900D02*
D03*
X0269200D02*
D03*
X0266000D02*
D03*
X0262800D02*
D03*
X0272400Y0402100D02*
D03*
X0269200D02*
D03*
X0266000D02*
D03*
X0262800D02*
D03*
X0272400Y0405300D02*
D03*
X0269200D02*
D03*
X0266000D02*
D03*
X0262800D02*
D03*
X0272400Y0408500D02*
D03*
X0269200D02*
D03*
X0266000D02*
D03*
X0262800D02*
D03*
X0272400Y0411700D02*
D03*
X0269200D02*
D03*
X0266000D02*
D03*
X0262800D02*
D03*
X0272400Y0414900D02*
D03*
X0269200D02*
D03*
X0266000D02*
D03*
X0262800D02*
D03*
X0272400Y0418100D02*
D03*
X0269200D02*
D03*
X0266000D02*
D03*
X0262800D02*
D03*
X0279700D02*
D03*
X0282900D02*
D03*
X0286100D02*
D03*
X0289300D02*
D03*
X0279700Y0414900D02*
D03*
X0282900D02*
D03*
X0286100D02*
D03*
X0289300D02*
D03*
X0279700Y0411700D02*
D03*
X0282900D02*
D03*
X0286100D02*
D03*
X0289300D02*
D03*
X0279700Y0408500D02*
D03*
X0282900D02*
D03*
X0286100D02*
D03*
X0289300D02*
D03*
X0279700Y0405300D02*
D03*
X0282900D02*
D03*
X0286100D02*
D03*
X0289300D02*
D03*
X0279700Y0402100D02*
D03*
X0282900D02*
D03*
X0286100D02*
D03*
X0289300D02*
D03*
X0279700Y0398900D02*
D03*
X0282900D02*
D03*
X0286100D02*
D03*
X0289300D02*
D03*
X0279700Y0395700D02*
D03*
X0282900D02*
D03*
X0286100D02*
D03*
X0289300D02*
D03*
X0279700Y0392500D02*
D03*
X0282900D02*
D03*
X0286100D02*
D03*
X0289300D02*
D03*
X0279700Y0389300D02*
D03*
X0282900D02*
D03*
X0286100D02*
D03*
X0289300D02*
D03*
X0279700Y0386100D02*
D03*
X0282900D02*
D03*
X0286100D02*
D03*
X0289300D02*
D03*
X0279700Y0382900D02*
D03*
X0282900D02*
D03*
X0286100D02*
D03*
X0289300D02*
D03*
X0279700Y0379700D02*
D03*
X0282900D02*
D03*
X0286100D02*
D03*
X0289300D02*
D03*
X0311400Y0354100D02*
D03*
X0308200D02*
D03*
X0305000D02*
D03*
X0301800D02*
D03*
X0311400Y0357300D02*
D03*
X0301800D02*
D03*
X0305000D02*
D03*
X0308200D02*
D03*
X0311400Y0360500D02*
D03*
X0308200D02*
D03*
X0305000D02*
D03*
X0301800D02*
D03*
X0311400Y0363700D02*
D03*
X0308200D02*
D03*
X0305000D02*
D03*
X0301800D02*
D03*
X0311400Y0366900D02*
D03*
X0308200D02*
D03*
X0305000D02*
D03*
X0301800D02*
D03*
X0311400Y0370100D02*
D03*
X0308200D02*
D03*
X0305000D02*
D03*
X0301800D02*
D03*
X0311400Y0373300D02*
D03*
X0308200D02*
D03*
X0305000D02*
D03*
X0301800D02*
D03*
X0311400Y0376500D02*
D03*
X0308200D02*
D03*
X0305000D02*
D03*
X0301800D02*
D03*
X0311400Y0379700D02*
D03*
X0308200D02*
D03*
X0305000D02*
D03*
X0301800D02*
D03*
X0311400Y0382900D02*
D03*
X0308200D02*
D03*
X0305000D02*
D03*
X0301800D02*
D03*
X0311400Y0386100D02*
D03*
X0308200D02*
D03*
X0305000D02*
D03*
X0301800D02*
D03*
X0311400Y0389300D02*
D03*
X0308200D02*
D03*
X0305000D02*
D03*
X0301800D02*
D03*
X0311400Y0392500D02*
D03*
X0308200D02*
D03*
X0305000D02*
D03*
X0301800D02*
D03*
X0311400Y0395700D02*
D03*
X0308200D02*
D03*
X0305000D02*
D03*
X0301800D02*
D03*
X0311400Y0398900D02*
D03*
X0308200D02*
D03*
X0305000D02*
D03*
X0301800D02*
D03*
X0311400Y0402100D02*
D03*
X0308200D02*
D03*
X0305000D02*
D03*
X0301800D02*
D03*
X0311400Y0405300D02*
D03*
X0308200D02*
D03*
X0305000D02*
D03*
X0301800D02*
D03*
X0311400Y0408500D02*
D03*
X0308200D02*
D03*
X0305000D02*
D03*
X0301800D02*
D03*
X0311400Y0411700D02*
D03*
X0308200D02*
D03*
X0305000D02*
D03*
X0301800D02*
D03*
X0311400Y0414900D02*
D03*
X0308200D02*
D03*
X0305000D02*
D03*
X0301800D02*
D03*
X0311400Y0418100D02*
D03*
X0308200D02*
D03*
X0305000D02*
D03*
X0301800D02*
D03*
X0205700Y0261200D02*
D03*
Y0264400D02*
D03*
Y0267600D02*
D03*
Y0270800D02*
D03*
X0208900Y0261200D02*
D03*
Y0270800D02*
D03*
Y0267600D02*
D03*
Y0264400D02*
D03*
X0212100Y0261200D02*
D03*
Y0264400D02*
D03*
Y0267600D02*
D03*
Y0270800D02*
D03*
X0215300Y0261200D02*
D03*
Y0264400D02*
D03*
Y0267600D02*
D03*
Y0270800D02*
D03*
X0218500Y0261200D02*
D03*
Y0264400D02*
D03*
Y0267600D02*
D03*
Y0270800D02*
D03*
X0221700Y0261200D02*
D03*
Y0264400D02*
D03*
Y0267600D02*
D03*
Y0270800D02*
D03*
X0224900Y0261200D02*
D03*
Y0264400D02*
D03*
Y0267600D02*
D03*
Y0270800D02*
D03*
X0228100Y0261200D02*
D03*
Y0264400D02*
D03*
Y0267600D02*
D03*
Y0270800D02*
D03*
X0231300Y0261200D02*
D03*
Y0264400D02*
D03*
Y0267600D02*
D03*
Y0270800D02*
D03*
X0234500Y0261200D02*
D03*
Y0264400D02*
D03*
Y0267600D02*
D03*
Y0270800D02*
D03*
X0237700Y0261200D02*
D03*
Y0264400D02*
D03*
Y0267600D02*
D03*
Y0270800D02*
D03*
X0240900Y0261200D02*
D03*
Y0264400D02*
D03*
Y0267600D02*
D03*
Y0270800D02*
D03*
X0244100Y0261200D02*
D03*
Y0264400D02*
D03*
Y0267600D02*
D03*
Y0270800D02*
D03*
X0247300Y0261200D02*
D03*
Y0264400D02*
D03*
Y0267600D02*
D03*
Y0270800D02*
D03*
X0250500Y0261200D02*
D03*
Y0264400D02*
D03*
Y0267600D02*
D03*
Y0270800D02*
D03*
X0253700Y0261200D02*
D03*
Y0264400D02*
D03*
Y0267600D02*
D03*
Y0270800D02*
D03*
X0256900Y0261200D02*
D03*
Y0264400D02*
D03*
Y0267600D02*
D03*
Y0270800D02*
D03*
X0260100Y0261200D02*
D03*
Y0264400D02*
D03*
Y0267600D02*
D03*
Y0270800D02*
D03*
X0263300Y0261200D02*
D03*
Y0264400D02*
D03*
Y0267600D02*
D03*
Y0270800D02*
D03*
X0266500Y0261200D02*
D03*
Y0264400D02*
D03*
Y0267600D02*
D03*
Y0270800D02*
D03*
X0269700Y0261200D02*
D03*
Y0264400D02*
D03*
Y0267600D02*
D03*
Y0270800D02*
D03*
X0205700Y0218200D02*
D03*
Y0221400D02*
D03*
Y0224600D02*
D03*
Y0227800D02*
D03*
X0208900Y0218200D02*
D03*
Y0227800D02*
D03*
Y0224600D02*
D03*
Y0221400D02*
D03*
X0212100Y0218200D02*
D03*
Y0221400D02*
D03*
Y0224600D02*
D03*
Y0227800D02*
D03*
X0215300Y0218200D02*
D03*
Y0221400D02*
D03*
Y0224600D02*
D03*
Y0227800D02*
D03*
X0218500Y0218200D02*
D03*
Y0221400D02*
D03*
Y0224600D02*
D03*
Y0227800D02*
D03*
X0221700Y0218200D02*
D03*
Y0221400D02*
D03*
Y0224600D02*
D03*
Y0227800D02*
D03*
X0224900Y0218200D02*
D03*
Y0221400D02*
D03*
Y0224600D02*
D03*
Y0227800D02*
D03*
X0228100Y0218200D02*
D03*
Y0221400D02*
D03*
Y0224600D02*
D03*
Y0227800D02*
D03*
X0231300Y0218200D02*
D03*
Y0221400D02*
D03*
Y0224600D02*
D03*
Y0227800D02*
D03*
X0234500Y0218200D02*
D03*
Y0221400D02*
D03*
Y0224600D02*
D03*
Y0227800D02*
D03*
X0237700Y0218200D02*
D03*
Y0221400D02*
D03*
Y0224600D02*
D03*
Y0227800D02*
D03*
X0240900Y0218200D02*
D03*
Y0221400D02*
D03*
Y0224600D02*
D03*
Y0227800D02*
D03*
X0244100Y0218200D02*
D03*
Y0221400D02*
D03*
Y0224600D02*
D03*
Y0227800D02*
D03*
X0247300Y0218200D02*
D03*
Y0221400D02*
D03*
Y0224600D02*
D03*
Y0227800D02*
D03*
X0250500Y0218200D02*
D03*
Y0221400D02*
D03*
Y0224600D02*
D03*
Y0227800D02*
D03*
X0253700Y0218200D02*
D03*
Y0221400D02*
D03*
Y0224600D02*
D03*
Y0227800D02*
D03*
X0256900Y0218200D02*
D03*
Y0221400D02*
D03*
Y0224600D02*
D03*
Y0227800D02*
D03*
X0260100Y0218200D02*
D03*
Y0221400D02*
D03*
Y0224600D02*
D03*
Y0227800D02*
D03*
X0263300Y0218200D02*
D03*
Y0221400D02*
D03*
Y0224600D02*
D03*
Y0227800D02*
D03*
X0266500Y0218200D02*
D03*
Y0221400D02*
D03*
Y0224600D02*
D03*
Y0227800D02*
D03*
X0269700Y0218200D02*
D03*
Y0221400D02*
D03*
Y0224600D02*
D03*
Y0227800D02*
D03*
X0205800Y0174900D02*
D03*
Y0178100D02*
D03*
Y0181300D02*
D03*
Y0184500D02*
D03*
X0209000Y0174900D02*
D03*
Y0184500D02*
D03*
Y0181300D02*
D03*
Y0178100D02*
D03*
X0212200Y0174900D02*
D03*
Y0178100D02*
D03*
Y0181300D02*
D03*
Y0184500D02*
D03*
X0215400Y0174900D02*
D03*
Y0178100D02*
D03*
Y0181300D02*
D03*
Y0184500D02*
D03*
X0218600Y0174900D02*
D03*
Y0178100D02*
D03*
Y0181300D02*
D03*
Y0184500D02*
D03*
X0221800Y0174900D02*
D03*
Y0178100D02*
D03*
Y0181300D02*
D03*
Y0184500D02*
D03*
X0225000Y0174900D02*
D03*
Y0178100D02*
D03*
Y0181300D02*
D03*
Y0184500D02*
D03*
X0228200Y0174900D02*
D03*
Y0178100D02*
D03*
Y0181300D02*
D03*
Y0184500D02*
D03*
X0231400Y0174900D02*
D03*
Y0178100D02*
D03*
Y0181300D02*
D03*
Y0184500D02*
D03*
X0234600Y0174900D02*
D03*
Y0178100D02*
D03*
Y0181300D02*
D03*
Y0184500D02*
D03*
X0237800Y0174900D02*
D03*
Y0178100D02*
D03*
Y0181300D02*
D03*
Y0184500D02*
D03*
X0241000Y0174900D02*
D03*
Y0178100D02*
D03*
Y0181300D02*
D03*
Y0184500D02*
D03*
X0244200Y0174900D02*
D03*
Y0178100D02*
D03*
Y0181300D02*
D03*
Y0184500D02*
D03*
X0247400Y0174900D02*
D03*
Y0178100D02*
D03*
Y0181300D02*
D03*
Y0184500D02*
D03*
X0250600Y0174900D02*
D03*
Y0178100D02*
D03*
Y0181300D02*
D03*
Y0184500D02*
D03*
X0253800Y0174900D02*
D03*
Y0178100D02*
D03*
Y0181300D02*
D03*
Y0184500D02*
D03*
X0257000Y0174900D02*
D03*
Y0178100D02*
D03*
Y0181300D02*
D03*
Y0184500D02*
D03*
X0260200Y0174900D02*
D03*
Y0178100D02*
D03*
Y0181300D02*
D03*
Y0184500D02*
D03*
X0263400Y0174900D02*
D03*
Y0178100D02*
D03*
Y0181300D02*
D03*
Y0184500D02*
D03*
X0266600Y0174900D02*
D03*
Y0178100D02*
D03*
Y0181300D02*
D03*
Y0184500D02*
D03*
X0269800Y0174900D02*
D03*
Y0178100D02*
D03*
Y0181300D02*
D03*
Y0184500D02*
D03*
X0230900Y0354200D02*
D03*
X0227700D02*
D03*
X0224500D02*
D03*
X0221300D02*
D03*
X0230900Y0357400D02*
D03*
X0227700D02*
D03*
X0224500D02*
D03*
X0221300D02*
D03*
X0230900Y0360600D02*
D03*
X0227700D02*
D03*
X0224500D02*
D03*
X0221300D02*
D03*
X0230900Y0363800D02*
D03*
X0227700D02*
D03*
X0224500D02*
D03*
X0221300D02*
D03*
X0230900Y0367000D02*
D03*
X0227700D02*
D03*
X0224500D02*
D03*
X0221300D02*
D03*
X0230900Y0370200D02*
D03*
X0227700D02*
D03*
X0224500D02*
D03*
X0221300D02*
D03*
X0230900Y0373400D02*
D03*
X0227700D02*
D03*
X0224500D02*
D03*
X0221300D02*
D03*
X0230900Y0376600D02*
D03*
X0227700D02*
D03*
X0224500D02*
D03*
X0221300D02*
D03*
X0230900Y0379800D02*
D03*
X0227700D02*
D03*
X0224500D02*
D03*
X0221300D02*
D03*
X0230900Y0383000D02*
D03*
X0227700D02*
D03*
X0224500D02*
D03*
X0221300D02*
D03*
X0230900Y0386200D02*
D03*
X0227700D02*
D03*
X0224500D02*
D03*
X0221300D02*
D03*
X0230900Y0389400D02*
D03*
X0227700D02*
D03*
X0224500D02*
D03*
X0221300D02*
D03*
X0230900Y0392600D02*
D03*
X0227700D02*
D03*
X0224500D02*
D03*
X0221300D02*
D03*
X0230900Y0395800D02*
D03*
X0227700D02*
D03*
X0224500D02*
D03*
X0221300D02*
D03*
X0230900Y0399000D02*
D03*
X0227700D02*
D03*
X0224500D02*
D03*
X0221300D02*
D03*
X0230900Y0402200D02*
D03*
X0227700D02*
D03*
X0224500D02*
D03*
X0221300D02*
D03*
X0230900Y0405400D02*
D03*
X0227700D02*
D03*
X0224500D02*
D03*
X0221300D02*
D03*
X0230900Y0408600D02*
D03*
X0227700D02*
D03*
X0224500D02*
D03*
X0221300D02*
D03*
X0230900Y0411800D02*
D03*
X0227700D02*
D03*
X0224500D02*
D03*
X0221300D02*
D03*
X0224500Y0415000D02*
D03*
X0227700D02*
D03*
X0230900D02*
D03*
X0221300D02*
D03*
X0230900Y0418200D02*
D03*
X0227700D02*
D03*
X0224500D02*
D03*
X0374300Y0463000D02*
D03*
X0349700Y0523800D02*
D03*
X0348400Y0526300D02*
D03*
X0354400Y0554400D02*
D03*
X0352900Y0549700D02*
D03*
X0350260Y0550460D02*
D03*
X0344700Y0557500D02*
D03*
X0372500Y0481400D02*
D03*
X0372400Y0488200D02*
D03*
X0405700Y0490100D02*
D03*
X0403900Y0492300D02*
D03*
Y0494900D02*
D03*
X0301557Y0550200D02*
D03*
X0297500Y0547400D02*
D03*
X0280700Y0462300D02*
D03*
X0348200Y0511300D02*
D03*
X0333900Y0484200D02*
D03*
X0336700D02*
D03*
X0339200Y0485600D02*
D03*
Y0482800D02*
D03*
X0344900Y0459400D02*
D03*
X0342200D02*
D03*
X0339500D02*
D03*
X0340900Y0456500D02*
D03*
X0343600D02*
D03*
X0313900Y0476200D02*
D03*
X0331500Y0430450D02*
D03*
Y0440800D02*
D03*
Y0451150D02*
D03*
Y0461500D02*
D03*
X0349200Y0438700D02*
D03*
X0307100Y0550200D02*
D03*
X0304328D02*
D03*
X0298786D02*
D03*
X0296014D02*
D03*
X0293243D02*
D03*
X0290471D02*
D03*
X0146100Y0488900D02*
D03*
X0279300Y0342000D02*
D03*
X0182900Y0534700D02*
D03*
X0160200Y0484900D02*
D03*
X0157400Y0546100D02*
D03*
X0187900Y0528600D02*
D03*
X0304200Y0178600D02*
D03*
X0281700Y0334000D02*
D03*
X0221300Y0418200D02*
D03*
X0180600Y0542200D02*
D03*
X0212800Y0487500D02*
D03*
X0212000Y0538200D02*
D03*
X0209400Y0533700D02*
D03*
X0208400Y0515800D02*
D03*
X0172300Y0524100D02*
D03*
X0151600Y0533300D02*
D03*
X0382000Y0485800D02*
D03*
X0319200Y0504500D02*
D03*
X0316000Y0508100D02*
D03*
X0329100Y0504500D02*
D03*
X0329200Y0500300D02*
D03*
X0169200Y0428000D02*
D03*
X0172000D02*
D03*
X0174800D02*
D03*
X0177600D02*
D03*
X0180400D02*
D03*
X0183200D02*
D03*
X0186000D02*
D03*
X0187400Y0425500D02*
D03*
X0184600D02*
D03*
X0181800D02*
D03*
X0167800D02*
D03*
X0170600D02*
D03*
X0173400D02*
D03*
X0176200D02*
D03*
X0179000D02*
D03*
X0106400Y0579250D02*
D03*
Y0576500D02*
D03*
X0107300Y0564600D02*
D03*
Y0567350D02*
D03*
Y0552105D02*
D03*
Y0554854D02*
D03*
Y0541000D02*
D03*
Y0543750D02*
D03*
X0107276Y0528260D02*
D03*
X0107300Y0531500D02*
D03*
X0106600Y0519800D02*
D03*
Y0509000D02*
D03*
Y0505600D02*
D03*
X0106300Y0437700D02*
D03*
Y0434200D02*
D03*
Y0449700D02*
D03*
Y0446400D02*
D03*
Y0461700D02*
D03*
Y0458200D02*
D03*
Y0473200D02*
D03*
Y0469800D02*
D03*
Y0484500D02*
D03*
X0106600Y0497600D02*
D03*
Y0494400D02*
D03*
X0106300Y0481600D02*
D03*
X0106600Y0517000D02*
D03*
X0214200Y0427200D02*
D03*
X0177000Y0444600D02*
D03*
X0160500D02*
D03*
X0200900Y0406800D02*
D03*
X0205100D02*
D03*
X0245500Y0582300D02*
D03*
Y0585500D02*
D03*
Y0588700D02*
D03*
X0248700Y0582300D02*
D03*
Y0585500D02*
D03*
Y0588700D02*
D03*
X0251900Y0582300D02*
D03*
Y0585500D02*
D03*
Y0588700D02*
D03*
X0255100Y0582300D02*
D03*
Y0585500D02*
D03*
Y0588700D02*
D03*
X0258300Y0582300D02*
D03*
Y0588700D02*
D03*
X0261500Y0582300D02*
D03*
X0297500Y0544300D02*
D03*
X0287700Y0550200D02*
D03*
X0397700Y0490700D02*
D03*
X0377500Y0463000D02*
D03*
X0420300Y0495700D02*
D03*
X0420100Y0487400D02*
D03*
X0174800Y0283400D02*
D03*
X0266800Y0452400D02*
D03*
X0219800Y0523700D02*
D03*
X0245100Y0455100D02*
D03*
X0248400Y0478100D02*
D03*
X0189800Y0474900D02*
D03*
X0280700Y0459100D02*
D03*
X0267600Y0482400D02*
D03*
X0267200Y0496159D02*
D03*
X0268700Y0500200D02*
D03*
X0268100Y0486600D02*
D03*
X0315600Y0539900D02*
D03*
X0280200Y0492300D02*
D03*
X0291600Y0519300D02*
D03*
Y0504600D02*
D03*
X0302200Y0490600D02*
D03*
X0269900Y0443900D02*
D03*
X0218400Y0516379D02*
D03*
X0209400Y0508900D02*
D03*
X0285400Y0527200D02*
D03*
X0217250Y0427200D02*
D03*
X0249500Y0541600D02*
D03*
X0295100Y0498200D02*
D03*
X0304300Y0498400D02*
D03*
Y0501500D02*
D03*
X0301200D02*
D03*
X0298100D02*
D03*
X0295000D02*
D03*
X0267100Y0490300D02*
D03*
X0255400Y0492400D02*
D03*
X0251500Y0492100D02*
D03*
X0244900Y0448900D02*
D03*
X0240800Y0444700D02*
D03*
X0240600Y0438200D02*
D03*
X0248600Y0426350D02*
D03*
X0238900Y0507000D02*
D03*
X0238700Y0510000D02*
D03*
X0234500Y0487800D02*
D03*
X0177400Y0486200D02*
D03*
X0172300Y0539000D02*
D03*
X0220300Y0427200D02*
D03*
X0292400Y0499800D02*
D03*
X0352100Y0552600D02*
D03*
X0251200Y0430500D02*
D03*
X0204400Y0551400D02*
D03*
X0236500Y0553000D02*
D03*
X0253800Y0544400D02*
D03*
X0255700Y0541600D02*
D03*
X0185500Y0467000D02*
D03*
X0226000Y0462300D02*
D03*
X0189200Y0465200D02*
D03*
G54D76*
X0261065Y0563223D02*
D03*
X0256735D02*
D03*
Y0578577D02*
D03*
X0261065D02*
D03*
Y0568341D02*
D03*
X0256735D02*
D03*
X0261065Y0573459D02*
D03*
X0256735D02*
D03*
M02*
