G04 Layer_Color=16711935*
%FSAX25Y25*%
%MOIN*%
G70*
G01*
G75*
%ADD49C,0.01000*%
%ADD63C,0.00800*%
%ADD120R,0.05512X0.07677*%
%ADD140C,0.06299*%
%ADD141R,0.06299X0.06299*%
%ADD142C,0.11394*%
%ADD143C,0.04724*%
G04:AMPARAMS|DCode=144|XSize=64.96mil|YSize=64.96mil|CornerRadius=3.8mil|HoleSize=0mil|Usage=FLASHONLY|Rotation=90.000|XOffset=0mil|YOffset=0mil|HoleType=Round|Shape=RoundedRectangle|*
%AMROUNDEDRECTD144*
21,1,0.06496,0.05736,0,0,90.0*
21,1,0.05736,0.06496,0,0,90.0*
1,1,0.00760,0.02868,0.02868*
1,1,0.00760,0.02868,-0.02868*
1,1,0.00760,-0.02868,-0.02868*
1,1,0.00760,-0.02868,0.02868*
%
%ADD144ROUNDEDRECTD144*%
%ADD145C,0.06496*%
%ADD146R,0.06299X0.06299*%
%ADD147C,0.03394*%
%ADD148C,0.02362*%
G54D49*
X0559400Y0039400D02*
Y0059683D01*
X0440500Y0040050D02*
X0700200D01*
Y0101050D01*
X0286500Y0040050D02*
Y0101050D01*
X0040000Y0040050D02*
Y0101050D01*
X0040050Y0040050D02*
X0197600D01*
X0040050D02*
Y0101050D01*
Y0101050D02*
X0700200D01*
X0040000Y0040050D02*
X0440500D01*
X0040000Y0060383D02*
X0700000D01*
X0040000Y0080717D02*
X0700200D01*
X0413200D02*
Y0101050D01*
X0497200Y0080717D02*
Y0101050D01*
G54D63*
X0126900Y0073549D02*
Y0067551D01*
X0129899D01*
X0130899Y0068550D01*
Y0069550D01*
X0129899Y0070550D01*
X0126900D01*
X0129899D01*
X0130899Y0071549D01*
Y0072549D01*
X0129899Y0073549D01*
X0126900D01*
X0133898Y0067551D02*
X0135897D01*
X0136897Y0068550D01*
Y0070550D01*
X0135897Y0071549D01*
X0133898D01*
X0132898Y0070550D01*
Y0068550D01*
X0133898Y0067551D01*
X0139896Y0072549D02*
Y0071549D01*
X0138896D01*
X0140895D01*
X0139896D01*
Y0068550D01*
X0140895Y0067551D01*
X0144894Y0072549D02*
Y0071549D01*
X0143895D01*
X0145894D01*
X0144894D01*
Y0068550D01*
X0145894Y0067551D01*
X0149893D02*
X0151892D01*
X0152892Y0068550D01*
Y0070550D01*
X0151892Y0071549D01*
X0149893D01*
X0148893Y0070550D01*
Y0068550D01*
X0149893Y0067551D01*
X0154891D02*
Y0071549D01*
X0155891D01*
X0156890Y0070550D01*
Y0067551D01*
Y0070550D01*
X0157890Y0071549D01*
X0158890Y0070550D01*
Y0067551D01*
X0170886Y0072549D02*
X0169886Y0073549D01*
X0167887D01*
X0166887Y0072549D01*
Y0071549D01*
X0167887Y0070550D01*
X0169886D01*
X0170886Y0069550D01*
Y0068550D01*
X0169886Y0067551D01*
X0167887D01*
X0166887Y0068550D01*
X0173885Y0067551D02*
X0175884D01*
X0176884Y0068550D01*
Y0070550D01*
X0175884Y0071549D01*
X0173885D01*
X0172885Y0070550D01*
Y0068550D01*
X0173885Y0067551D01*
X0178883D02*
X0180883D01*
X0179883D01*
Y0073549D01*
X0178883D01*
X0187880D02*
Y0067551D01*
X0184881D01*
X0183882Y0068550D01*
Y0070550D01*
X0184881Y0071549D01*
X0187880D01*
X0192879Y0067551D02*
X0190879D01*
X0189880Y0068550D01*
Y0070550D01*
X0190879Y0071549D01*
X0192879D01*
X0193878Y0070550D01*
Y0069550D01*
X0189880D01*
X0195878Y0071549D02*
Y0067551D01*
Y0069550D01*
X0196877Y0070550D01*
X0197877Y0071549D01*
X0198877D01*
X0348550Y0073498D02*
X0352549D01*
X0350549D01*
Y0067500D01*
X0354548Y0073498D02*
X0356547D01*
X0355548D01*
Y0067500D01*
X0354548D01*
X0356547D01*
X0359546Y0073498D02*
Y0067500D01*
X0362545D01*
X0363545Y0068500D01*
Y0072498D01*
X0362545Y0073498D01*
X0359546D01*
X0365545Y0067500D02*
Y0071499D01*
X0367544Y0073498D01*
X0369543Y0071499D01*
Y0067500D01*
Y0070499D01*
X0365545D01*
X0371543D02*
X0375541D01*
X0377541Y0072498D02*
X0378540Y0073498D01*
X0380540D01*
X0381539Y0072498D01*
Y0068500D01*
X0380540Y0067500D01*
X0378540D01*
X0377541Y0068500D01*
Y0072498D01*
X0383539Y0067500D02*
X0385538D01*
X0384538D01*
Y0073498D01*
X0383539Y0072498D01*
X0388537D02*
X0389537Y0073498D01*
X0391536D01*
X0392536Y0072498D01*
Y0068500D01*
X0391536Y0067500D01*
X0389537D01*
X0388537Y0068500D01*
Y0072498D01*
X0394535D02*
X0395535Y0073498D01*
X0397534D01*
X0398534Y0072498D01*
Y0068500D01*
X0397534Y0067500D01*
X0395535D01*
X0394535Y0068500D01*
Y0072498D01*
X0400533D02*
X0401533Y0073498D01*
X0403532D01*
X0404532Y0072498D01*
Y0071499D01*
X0403532Y0070499D01*
X0402532D01*
X0403532D01*
X0404532Y0069499D01*
Y0068500D01*
X0403532Y0067500D01*
X0401533D01*
X0400533Y0068500D01*
X0406531Y0072498D02*
X0407531Y0073498D01*
X0409530D01*
X0410530Y0072498D01*
Y0068500D01*
X0409530Y0067500D01*
X0407531D01*
X0406531Y0068500D01*
Y0072498D01*
X0294000Y0073498D02*
X0297999D01*
X0295999D01*
Y0067500D01*
X0299998Y0073498D02*
X0301997D01*
X0300998D01*
Y0067500D01*
X0299998D01*
X0301997D01*
X0304996Y0073498D02*
Y0067500D01*
X0307996D01*
X0308995Y0068500D01*
Y0072498D01*
X0307996Y0073498D01*
X0304996D01*
X0317992Y0067500D02*
Y0073498D01*
X0319992D02*
Y0067500D01*
X0316993Y0071499D02*
X0319992D01*
X0320991D01*
X0316993Y0069499D02*
X0320991D01*
X0322991Y0071499D02*
X0323990D01*
Y0070499D01*
X0322991D01*
Y0071499D01*
Y0068500D02*
X0323990D01*
Y0067500D01*
X0322991D01*
Y0068500D01*
X0580500Y0052965D02*
X0584499D01*
X0582499D01*
Y0046966D01*
X0590497Y0052965D02*
X0586498D01*
Y0046966D01*
X0590497D01*
X0586498Y0049966D02*
X0588497D01*
X0592496Y0052965D02*
X0596495Y0046966D01*
Y0052965D02*
X0592496Y0046966D01*
X0598494D02*
Y0050965D01*
X0600493Y0052965D01*
X0602493Y0050965D01*
Y0046966D01*
Y0049966D01*
X0598494D01*
X0608491Y0051965D02*
X0607491Y0052965D01*
X0605492D01*
X0604492Y0051965D01*
Y0050965D01*
X0605492Y0049966D01*
X0607491D01*
X0608491Y0048966D01*
Y0047966D01*
X0607491Y0046966D01*
X0605492D01*
X0604492Y0047966D01*
X0616488Y0052965D02*
X0618488D01*
X0617488D01*
Y0046966D01*
X0616488D01*
X0618488D01*
X0621487D02*
Y0052965D01*
X0625486Y0046966D01*
Y0052965D01*
X0631484Y0051965D02*
X0630484Y0052965D01*
X0628484D01*
X0627485Y0051965D01*
Y0050965D01*
X0628484Y0049966D01*
X0630484D01*
X0631484Y0048966D01*
Y0047966D01*
X0630484Y0046966D01*
X0628484D01*
X0627485Y0047966D01*
X0633483Y0052965D02*
X0637482D01*
X0635482D01*
Y0046966D01*
X0639481D02*
Y0052965D01*
X0642480D01*
X0643480Y0051965D01*
Y0049966D01*
X0642480Y0048966D01*
X0639481D01*
X0641480D02*
X0643480Y0046966D01*
X0645479Y0052965D02*
Y0047966D01*
X0646479Y0046966D01*
X0648478D01*
X0649478Y0047966D01*
Y0052965D01*
X0651477Y0046966D02*
Y0052965D01*
X0653476Y0050965D01*
X0655476Y0052965D01*
Y0046966D01*
X0661474Y0052965D02*
X0657475D01*
Y0046966D01*
X0661474D01*
X0657475Y0049966D02*
X0659474D01*
X0663473Y0046966D02*
Y0052965D01*
X0667472Y0046966D01*
Y0052965D01*
X0669471D02*
X0673470D01*
X0671471D01*
Y0046966D01*
X0679468Y0051965D02*
X0678468Y0052965D01*
X0676469D01*
X0675469Y0051965D01*
Y0050965D01*
X0676469Y0049966D01*
X0678468D01*
X0679468Y0048966D01*
Y0047966D01*
X0678468Y0046966D01*
X0676469D01*
X0675469Y0047966D01*
X0454050Y0046966D02*
X0456049D01*
X0455050D01*
Y0052965D01*
X0454050Y0051965D01*
X0459048D02*
X0460048Y0052965D01*
X0462047D01*
X0463047Y0051965D01*
Y0047966D01*
X0462047Y0046966D01*
X0460048D01*
X0459048Y0047966D01*
Y0051965D01*
X0465046Y0050965D02*
X0466046D01*
Y0049966D01*
X0465046D01*
Y0050965D01*
Y0047966D02*
X0466046D01*
Y0046966D01*
X0465046D01*
Y0047966D01*
X0470045Y0046966D02*
X0472044D01*
X0471044D01*
Y0052965D01*
X0470045Y0051965D01*
X0475043D02*
X0476043Y0052965D01*
X0478042D01*
X0479042Y0051965D01*
Y0050965D01*
X0478042Y0049966D01*
X0477043D01*
X0478042D01*
X0479042Y0048966D01*
Y0047966D01*
X0478042Y0046966D01*
X0476043D01*
X0475043Y0047966D01*
X0481041Y0050965D02*
X0482041D01*
Y0049966D01*
X0481041D01*
Y0050965D01*
Y0047966D02*
X0482041D01*
Y0046966D01*
X0481041D01*
Y0047966D01*
X0490038Y0046966D02*
X0486040D01*
X0490038Y0050965D01*
Y0051965D01*
X0489039Y0052965D01*
X0487039D01*
X0486040Y0051965D01*
X0496036Y0046966D02*
X0492038D01*
X0496036Y0050965D01*
Y0051965D01*
X0495037Y0052965D01*
X0493037D01*
X0492038Y0051965D01*
X0046350Y0046966D02*
Y0052965D01*
X0049349D01*
X0050349Y0051965D01*
Y0049966D01*
X0049349Y0048966D01*
X0046350D01*
X0052348Y0052965D02*
Y0046966D01*
X0056347D01*
X0061345Y0052965D02*
X0059346D01*
X0058346Y0051965D01*
Y0047966D01*
X0059346Y0046966D01*
X0061345D01*
X0062345Y0047966D01*
Y0051965D01*
X0061345Y0052965D01*
X0064344D02*
X0068343D01*
X0066343D01*
Y0046966D01*
X0076340D02*
Y0052965D01*
X0080339Y0046966D01*
Y0052965D01*
X0082338Y0046966D02*
Y0050965D01*
X0084338Y0052965D01*
X0086337Y0050965D01*
Y0046966D01*
Y0049966D01*
X0082338D01*
X0088336Y0046966D02*
Y0052965D01*
X0090336Y0050965D01*
X0092335Y0052965D01*
Y0046966D01*
X0098333Y0052965D02*
X0094335D01*
Y0046966D01*
X0098333D01*
X0094335Y0049966D02*
X0096334D01*
X0106331Y0048966D02*
X0110329D01*
X0106331Y0050965D02*
X0110329D01*
X0046350Y0073549D02*
Y0067551D01*
X0050349D01*
X0052348D02*
Y0071549D01*
X0054347Y0073549D01*
X0056347Y0071549D01*
Y0067551D01*
Y0070550D01*
X0052348D01*
X0058346Y0073549D02*
Y0072549D01*
X0060346Y0070550D01*
X0062345Y0072549D01*
Y0073549D01*
X0060346Y0070550D02*
Y0067551D01*
X0068343Y0073549D02*
X0064344D01*
Y0067551D01*
X0068343D01*
X0064344Y0070550D02*
X0066343D01*
X0070342Y0067551D02*
Y0073549D01*
X0073341D01*
X0074341Y0072549D01*
Y0070550D01*
X0073341Y0069550D01*
X0070342D01*
X0072342D02*
X0074341Y0067551D01*
X0082338D02*
Y0073549D01*
X0086337Y0067551D01*
Y0073549D01*
X0088336Y0067551D02*
Y0071549D01*
X0090336Y0073549D01*
X0092335Y0071549D01*
Y0067551D01*
Y0070550D01*
X0088336D01*
X0094335Y0067551D02*
Y0073549D01*
X0096334Y0071549D01*
X0098333Y0073549D01*
Y0067551D01*
X0104331Y0073549D02*
X0100332D01*
Y0067551D01*
X0104331D01*
X0100332Y0070550D02*
X0102332D01*
X0112329Y0069550D02*
X0116327D01*
X0112329Y0071549D02*
X0116327D01*
X0294000Y0093831D02*
Y0087833D01*
X0296999D01*
X0297999Y0088833D01*
Y0089833D01*
X0296999Y0090832D01*
X0294000D01*
X0296999D01*
X0297999Y0091832D01*
Y0092832D01*
X0296999Y0093831D01*
X0294000D01*
X0302997D02*
X0300998D01*
X0299998Y0092832D01*
Y0088833D01*
X0300998Y0087833D01*
X0302997D01*
X0303997Y0088833D01*
Y0092832D01*
X0302997Y0093831D01*
X0305996Y0087833D02*
Y0091832D01*
X0307996Y0093831D01*
X0309995Y0091832D01*
Y0087833D01*
Y0090832D01*
X0305996D01*
X0311994Y0087833D02*
Y0093831D01*
X0314993D01*
X0315993Y0092832D01*
Y0090832D01*
X0314993Y0089833D01*
X0311994D01*
X0313994D02*
X0315993Y0087833D01*
X0317992Y0093831D02*
Y0087833D01*
X0320991D01*
X0321991Y0088833D01*
Y0092832D01*
X0320991Y0093831D01*
X0317992D01*
X0330988Y0087833D02*
Y0093831D01*
X0332987D02*
Y0087833D01*
X0329988Y0091832D02*
X0332987D01*
X0333987D01*
X0329988Y0089833D02*
X0333987D01*
X0335986Y0091832D02*
X0336986D01*
Y0090832D01*
X0335986D01*
Y0091832D01*
Y0088833D02*
X0336986D01*
Y0087833D01*
X0335986D01*
Y0088833D01*
X0348550Y0093831D02*
X0352549D01*
X0350549D01*
Y0087833D01*
X0354548Y0093831D02*
X0356547D01*
X0355548D01*
Y0087833D01*
X0354548D01*
X0356547D01*
X0359546Y0093831D02*
Y0087833D01*
X0362545D01*
X0363545Y0088833D01*
Y0092832D01*
X0362545Y0093831D01*
X0359546D01*
X0365545Y0087833D02*
Y0091832D01*
X0367544Y0093831D01*
X0369543Y0091832D01*
Y0087833D01*
Y0090832D01*
X0365545D01*
X0371543D02*
X0375541D01*
X0377541Y0092832D02*
X0378540Y0093831D01*
X0380540D01*
X0381539Y0092832D01*
Y0088833D01*
X0380540Y0087833D01*
X0378540D01*
X0377541Y0088833D01*
Y0092832D01*
X0383539Y0087833D02*
X0385538D01*
X0384538D01*
Y0093831D01*
X0383539Y0092832D01*
X0388537D02*
X0389537Y0093831D01*
X0391536D01*
X0392536Y0092832D01*
Y0088833D01*
X0391536Y0087833D01*
X0389537D01*
X0388537Y0088833D01*
Y0092832D01*
X0394535D02*
X0395535Y0093831D01*
X0397534D01*
X0398534Y0092832D01*
Y0088833D01*
X0397534Y0087833D01*
X0395535D01*
X0394535Y0088833D01*
Y0092832D01*
X0400533D02*
X0401533Y0093831D01*
X0403532D01*
X0404532Y0092832D01*
Y0091832D01*
X0403532Y0090832D01*
X0402532D01*
X0403532D01*
X0404532Y0089833D01*
Y0088833D01*
X0403532Y0087833D01*
X0401533D01*
X0400533Y0088833D01*
X0406531Y0092832D02*
X0407531Y0093831D01*
X0409530D01*
X0410530Y0092832D01*
Y0088833D01*
X0409530Y0087833D01*
X0407531D01*
X0406531Y0088833D01*
Y0092832D01*
X0466149Y0093831D02*
X0462150D01*
Y0087833D01*
X0466149D01*
X0462150Y0090832D02*
X0464149D01*
X0468148Y0087833D02*
X0470147D01*
X0469148D01*
Y0093831D01*
X0468148Y0092832D01*
X0046350Y0087833D02*
Y0091832D01*
X0048349Y0093831D01*
X0050349Y0091832D01*
Y0087833D01*
Y0090832D01*
X0046350D01*
X0052348Y0093831D02*
Y0087833D01*
X0056347D01*
X0058346Y0093831D02*
Y0087833D01*
X0062345D01*
X0070342D02*
Y0091832D01*
X0072342Y0093831D01*
X0074341Y0091832D01*
Y0087833D01*
Y0090832D01*
X0070342D01*
X0076340Y0087833D02*
Y0093831D01*
X0079339D01*
X0080339Y0092832D01*
Y0090832D01*
X0079339Y0089833D01*
X0076340D01*
X0078340D02*
X0080339Y0087833D01*
X0082338Y0093831D02*
X0086337D01*
X0084338D01*
Y0087833D01*
X0088336Y0093831D02*
Y0087833D01*
X0090336Y0089833D01*
X0092335Y0087833D01*
Y0093831D01*
X0097334D02*
X0095334D01*
X0094335Y0092832D01*
Y0088833D01*
X0095334Y0087833D01*
X0097334D01*
X0098333Y0088833D01*
Y0092832D01*
X0097334Y0093831D01*
X0100332Y0087833D02*
Y0093831D01*
X0103332D01*
X0104331Y0092832D01*
Y0090832D01*
X0103332Y0089833D01*
X0100332D01*
X0102332D02*
X0104331Y0087833D01*
X0106331Y0093831D02*
Y0087833D01*
Y0089833D01*
X0110329Y0093831D01*
X0107330Y0090832D01*
X0110329Y0087833D01*
X0118327Y0093831D02*
Y0089833D01*
X0120326Y0087833D01*
X0122325Y0089833D01*
Y0093831D01*
X0124325D02*
X0126324D01*
X0125324D01*
Y0087833D01*
X0124325D01*
X0126324D01*
X0133322Y0093831D02*
X0129323D01*
Y0087833D01*
X0133322D01*
X0129323Y0090832D02*
X0131323D01*
X0135321Y0093831D02*
Y0087833D01*
X0137321Y0089833D01*
X0139320Y0087833D01*
Y0093831D01*
X0145318D02*
X0141319D01*
Y0087833D01*
X0145318D01*
X0141319Y0090832D02*
X0143319D01*
X0147317Y0093831D02*
Y0087833D01*
X0150316D01*
X0151316Y0088833D01*
Y0092832D01*
X0150316Y0093831D01*
X0147317D01*
X0163312D02*
X0159313D01*
Y0090832D01*
X0161313D01*
X0159313D01*
Y0087833D01*
X0165312D02*
Y0093831D01*
X0168310D01*
X0169310Y0092832D01*
Y0090832D01*
X0168310Y0089833D01*
X0165312D01*
X0167311D02*
X0169310Y0087833D01*
X0174309Y0093831D02*
X0172309D01*
X0171310Y0092832D01*
Y0088833D01*
X0172309Y0087833D01*
X0174309D01*
X0175308Y0088833D01*
Y0092832D01*
X0174309Y0093831D01*
X0177308Y0087833D02*
Y0093831D01*
X0179307Y0091832D01*
X0181306Y0093831D01*
Y0087833D01*
X0189304Y0093831D02*
X0193303D01*
X0191303D01*
Y0087833D01*
X0198301Y0093831D02*
X0196301D01*
X0195302Y0092832D01*
Y0088833D01*
X0196301Y0087833D01*
X0198301D01*
X0199301Y0088833D01*
Y0092832D01*
X0198301Y0093831D01*
X0201300Y0087833D02*
Y0093831D01*
X0204299D01*
X0205299Y0092832D01*
Y0090832D01*
X0204299Y0089833D01*
X0201300D01*
X0217295Y0092832D02*
X0216295Y0093831D01*
X0214296D01*
X0213296Y0092832D01*
Y0091832D01*
X0214296Y0090832D01*
X0216295D01*
X0217295Y0089833D01*
Y0088833D01*
X0216295Y0087833D01*
X0214296D01*
X0213296Y0088833D01*
X0219294Y0093831D02*
X0221293D01*
X0220294D01*
Y0087833D01*
X0219294D01*
X0221293D01*
X0224292Y0093831D02*
Y0087833D01*
X0227291D01*
X0228291Y0088833D01*
Y0092832D01*
X0227291Y0093831D01*
X0224292D01*
X0234289D02*
X0230291D01*
Y0087833D01*
X0234289D01*
X0230291Y0090832D02*
X0232290D01*
X0298199Y0051965D02*
X0297199Y0052965D01*
X0295200D01*
X0294200Y0051965D01*
Y0047966D01*
X0295200Y0046966D01*
X0297199D01*
X0298199Y0047966D01*
Y0049966D01*
X0296199D01*
X0304197Y0052965D02*
X0300198D01*
Y0046966D01*
X0304197D01*
X0300198Y0049966D02*
X0302197D01*
X0306196Y0046966D02*
Y0052965D01*
X0310195Y0046966D01*
Y0052965D01*
X0316193D02*
X0312194D01*
Y0046966D01*
X0316193D01*
X0312194Y0049966D02*
X0314194D01*
X0318192Y0046966D02*
Y0052965D01*
X0321191D01*
X0322191Y0051965D01*
Y0049966D01*
X0321191Y0048966D01*
X0318192D01*
X0320192D02*
X0322191Y0046966D01*
X0324190D02*
Y0050965D01*
X0326190Y0052965D01*
X0328189Y0050965D01*
Y0046966D01*
Y0049966D01*
X0324190D01*
X0330188Y0052965D02*
X0334187D01*
X0332188D01*
Y0046966D01*
X0340185Y0052965D02*
X0336186D01*
Y0046966D01*
X0340185D01*
X0336186Y0049966D02*
X0338186D01*
X0342184Y0052965D02*
Y0046966D01*
X0345183D01*
X0346183Y0047966D01*
Y0051965D01*
X0345183Y0052965D01*
X0342184D01*
X0372175Y0050965D02*
X0373175D01*
Y0049966D01*
X0372175D01*
Y0050965D01*
Y0047966D02*
X0373175D01*
Y0046966D01*
X0372175D01*
Y0047966D01*
X0385149Y0046966D02*
X0381150D01*
X0385149Y0050965D01*
Y0051965D01*
X0384149Y0052965D01*
X0382150D01*
X0381150Y0051965D01*
X0387148D02*
X0388148Y0052965D01*
X0390147D01*
X0391147Y0051965D01*
Y0047966D01*
X0390147Y0046966D01*
X0388148D01*
X0387148Y0047966D01*
Y0051965D01*
X0393146Y0046966D02*
X0395146D01*
X0394146D01*
Y0052965D01*
X0393146Y0051965D01*
X0398145Y0047966D02*
X0399144Y0046966D01*
X0401144D01*
X0402143Y0047966D01*
Y0051965D01*
X0401144Y0052965D01*
X0399144D01*
X0398145Y0051965D01*
Y0050965D01*
X0399144Y0049966D01*
X0402143D01*
X0404143Y0046966D02*
X0408141Y0050965D01*
X0414139Y0052965D02*
X0412140Y0051965D01*
X0410141Y0049966D01*
Y0047966D01*
X0411140Y0046966D01*
X0413140D01*
X0414139Y0047966D01*
Y0048966D01*
X0413140Y0049966D01*
X0410141D01*
X0416139Y0046966D02*
X0420137Y0050965D01*
X0422137Y0046966D02*
X0424136D01*
X0423136D01*
Y0052965D01*
X0422137Y0051965D01*
X0427135Y0052965D02*
X0431134D01*
Y0051965D01*
X0427135Y0047966D01*
Y0046966D01*
X0126900Y0052965D02*
X0130899D01*
X0128899D01*
Y0046966D01*
X0132898Y0052965D02*
X0134897D01*
X0133898D01*
Y0046966D01*
X0132898D01*
X0134897D01*
X0137896Y0052965D02*
Y0046966D01*
X0140895D01*
X0141895Y0047966D01*
Y0051965D01*
X0140895Y0052965D01*
X0137896D01*
X0143895Y0046966D02*
Y0050965D01*
X0145894Y0052965D01*
X0147893Y0050965D01*
Y0046966D01*
Y0049966D01*
X0143895D01*
X0149893D02*
X0153891D01*
X0155891Y0051965D02*
X0156890Y0052965D01*
X0158890D01*
X0159889Y0051965D01*
Y0047966D01*
X0158890Y0046966D01*
X0156890D01*
X0155891Y0047966D01*
Y0051965D01*
X0161889Y0046966D02*
X0163888D01*
X0162888D01*
Y0052965D01*
X0161889Y0051965D01*
X0166887D02*
X0167887Y0052965D01*
X0169886D01*
X0170886Y0051965D01*
Y0047966D01*
X0169886Y0046966D01*
X0167887D01*
X0166887Y0047966D01*
Y0051965D01*
X0172885D02*
X0173885Y0052965D01*
X0175884D01*
X0176884Y0051965D01*
Y0047966D01*
X0175884Y0046966D01*
X0173885D01*
X0172885Y0047966D01*
Y0051965D01*
X0178883D02*
X0179883Y0052965D01*
X0181882D01*
X0182882Y0051965D01*
Y0050965D01*
X0181882Y0049966D01*
X0180883D01*
X0181882D01*
X0182882Y0048966D01*
Y0047966D01*
X0181882Y0046966D01*
X0179883D01*
X0178883Y0047966D01*
X0184881Y0051965D02*
X0185881Y0052965D01*
X0187880D01*
X0188880Y0051965D01*
Y0047966D01*
X0187880Y0046966D01*
X0185881D01*
X0184881Y0047966D01*
Y0051965D01*
X0194878Y0052965D02*
X0190879D01*
Y0046966D01*
X0194878D01*
X0190879Y0049966D02*
X0192879D01*
X0196877Y0046966D02*
X0198877D01*
X0197877D01*
Y0052965D01*
X0196877Y0051965D01*
X0201876Y0046966D02*
Y0047966D01*
X0202875D01*
Y0046966D01*
X0201876D01*
X0210873Y0051965D02*
X0209873Y0052965D01*
X0207874D01*
X0206874Y0051965D01*
Y0047966D01*
X0207874Y0046966D01*
X0209873D01*
X0210873Y0047966D01*
Y0049966D01*
X0208874D01*
X0212872Y0052965D02*
Y0046966D01*
X0215871D01*
X0216871Y0047966D01*
Y0048966D01*
X0215871Y0049966D01*
X0212872D01*
X0215871D01*
X0216871Y0050965D01*
Y0051965D01*
X0215871Y0052965D01*
X0212872D01*
X0222869Y0051965D02*
X0221869Y0052965D01*
X0219870D01*
X0218870Y0051965D01*
Y0050965D01*
X0219870Y0049966D01*
X0221869D01*
X0222869Y0048966D01*
Y0047966D01*
X0221869Y0046966D01*
X0219870D01*
X0218870Y0047966D01*
X0433000Y0087833D02*
Y0093831D01*
X0435999D01*
X0436999Y0092832D01*
Y0090832D01*
X0435999Y0089833D01*
X0433000D01*
X0434999D02*
X0436999Y0087833D01*
X0442997Y0093831D02*
X0438998D01*
Y0087833D01*
X0442997D01*
X0438998Y0090832D02*
X0440997D01*
X0444996Y0093831D02*
Y0089833D01*
X0446995Y0087833D01*
X0448995Y0089833D01*
Y0093831D01*
X0450994Y0091832D02*
X0451994D01*
Y0090832D01*
X0450994D01*
Y0091832D01*
Y0088833D02*
X0451994D01*
Y0087833D01*
X0450994D01*
Y0088833D01*
X0520799Y0092832D02*
X0519799Y0093831D01*
X0517800D01*
X0516800Y0092832D01*
Y0091832D01*
X0517800Y0090832D01*
X0519799D01*
X0520799Y0089833D01*
Y0088833D01*
X0519799Y0087833D01*
X0517800D01*
X0516800Y0088833D01*
X0522798Y0093831D02*
Y0089833D01*
X0524797Y0087833D01*
X0526797Y0089833D01*
Y0093831D01*
X0528796Y0087833D02*
Y0093831D01*
X0532795Y0087833D01*
Y0093831D01*
X0540792Y0087833D02*
Y0093831D01*
X0543791D01*
X0544791Y0092832D01*
Y0090832D01*
X0543791Y0089833D01*
X0540792D01*
X0542792D02*
X0544791Y0087833D01*
X0550789Y0093831D02*
X0546790D01*
Y0087833D01*
X0550789D01*
X0546790Y0090832D02*
X0548790D01*
X0552788Y0093831D02*
Y0089833D01*
X0554788Y0087833D01*
X0556787Y0089833D01*
Y0093831D01*
X0558786Y0091832D02*
X0559786D01*
Y0090832D01*
X0558786D01*
Y0091832D01*
Y0088833D02*
X0559786D01*
Y0087833D01*
X0558786D01*
Y0088833D01*
X0567400Y0087833D02*
Y0093831D01*
X0571399Y0087833D01*
Y0093831D01*
X0574398Y0087833D02*
X0576397D01*
X0577397Y0088833D01*
Y0090832D01*
X0576397Y0091832D01*
X0574398D01*
X0573398Y0090832D01*
Y0088833D01*
X0574398Y0087833D01*
X0580396Y0092832D02*
Y0091832D01*
X0579396D01*
X0581395D01*
X0580396D01*
Y0088833D01*
X0581395Y0087833D01*
X0590393Y0093831D02*
X0592392D01*
X0591392D01*
Y0087833D01*
X0590393D01*
X0592392D01*
X0595391D02*
Y0091832D01*
X0598390D01*
X0599390Y0090832D01*
Y0087833D01*
X0607387Y0093831D02*
Y0089833D01*
X0609386Y0087833D01*
X0611386Y0089833D01*
Y0093831D01*
X0616384Y0087833D02*
X0614385D01*
X0613385Y0088833D01*
Y0090832D01*
X0614385Y0091832D01*
X0616384D01*
X0617384Y0090832D01*
Y0089833D01*
X0613385D01*
X0619383Y0091832D02*
Y0087833D01*
Y0089833D01*
X0620383Y0090832D01*
X0621383Y0091832D01*
X0622382D01*
X0625381Y0087833D02*
X0628380D01*
X0629380Y0088833D01*
X0628380Y0089833D01*
X0626381D01*
X0625381Y0090832D01*
X0626381Y0091832D01*
X0629380D01*
X0631379Y0087833D02*
X0633379D01*
X0632379D01*
Y0091832D01*
X0631379D01*
X0637377Y0087833D02*
X0639377D01*
X0640376Y0088833D01*
Y0090832D01*
X0639377Y0091832D01*
X0637377D01*
X0636378Y0090832D01*
Y0088833D01*
X0637377Y0087833D01*
X0642376D02*
Y0091832D01*
X0645375D01*
X0646374Y0090832D01*
Y0087833D01*
X0652373Y0092832D02*
X0651373Y0093831D01*
X0649373D01*
X0648374Y0092832D01*
Y0088833D01*
X0649373Y0087833D01*
X0651373D01*
X0652373Y0088833D01*
X0655372Y0087833D02*
X0657371D01*
X0658371Y0088833D01*
Y0090832D01*
X0657371Y0091832D01*
X0655372D01*
X0654372Y0090832D01*
Y0088833D01*
X0655372Y0087833D01*
X0660370D02*
Y0091832D01*
X0663369D01*
X0664369Y0090832D01*
Y0087833D01*
X0667368Y0092832D02*
Y0091832D01*
X0666368D01*
X0668367D01*
X0667368D01*
Y0088833D01*
X0668367Y0087833D01*
X0671366Y0091832D02*
Y0087833D01*
Y0089833D01*
X0672366Y0090832D01*
X0673366Y0091832D01*
X0674365D01*
X0678364Y0087833D02*
X0680364D01*
X0681363Y0088833D01*
Y0090832D01*
X0680364Y0091832D01*
X0678364D01*
X0677364Y0090832D01*
Y0088833D01*
X0678364Y0087833D01*
X0683362D02*
X0685362D01*
X0684362D01*
Y0093831D01*
X0683362D01*
G54D120*
X0099382Y0577700D02*
D03*
X0110800D02*
D03*
X0099382Y0565892D02*
D03*
X0110800D02*
D03*
X0099382Y0554083D02*
D03*
X0110800D02*
D03*
X0099382Y0542275D02*
D03*
X0110800D02*
D03*
X0099382Y0530467D02*
D03*
X0110800D02*
D03*
X0099382Y0518658D02*
D03*
X0110800D02*
D03*
X0099382Y0506850D02*
D03*
X0110800D02*
D03*
X0099382Y0496342D02*
D03*
X0110800D02*
D03*
X0099382Y0483233D02*
D03*
X0110800D02*
D03*
X0099382Y0471425D02*
D03*
X0110800D02*
D03*
X0099382Y0459617D02*
D03*
X0110800D02*
D03*
X0099382Y0447808D02*
D03*
X0110800D02*
D03*
X0099382Y0436000D02*
D03*
X0110800D02*
D03*
G54D140*
X0090100Y0566300D02*
D03*
Y0556300D02*
D03*
Y0546300D02*
D03*
Y0536300D02*
D03*
Y0526300D02*
D03*
Y0516300D02*
D03*
Y0506300D02*
D03*
Y0496300D02*
D03*
Y0486300D02*
D03*
Y0476300D02*
D03*
Y0466300D02*
D03*
Y0456300D02*
D03*
Y0446300D02*
D03*
X0080000Y0566300D02*
D03*
Y0556300D02*
D03*
Y0546300D02*
D03*
Y0536300D02*
D03*
Y0526300D02*
D03*
Y0516300D02*
D03*
Y0506300D02*
D03*
Y0496300D02*
D03*
Y0486300D02*
D03*
Y0476300D02*
D03*
Y0466300D02*
D03*
Y0456300D02*
D03*
Y0446300D02*
D03*
X0141700Y0188700D02*
D03*
Y0198700D02*
D03*
Y0208700D02*
D03*
X0289200Y0460400D02*
D03*
X0296000Y0515200D02*
D03*
X0306000D02*
D03*
X0316000D02*
D03*
X0263400Y0521500D02*
D03*
X0253400Y0511500D02*
D03*
X0263400D02*
D03*
G54D141*
X0090100Y0436300D02*
D03*
X0080000D02*
D03*
X0141700Y0218700D02*
D03*
X0253400Y0521500D02*
D03*
G54D142*
X0080900Y0204800D02*
D03*
X0100600D02*
D03*
X0120300D02*
D03*
Y0232400D02*
D03*
X0100600D02*
D03*
X0080900D02*
D03*
Y0338100D02*
D03*
X0100600D02*
D03*
X0120300D02*
D03*
Y0365700D02*
D03*
X0100600D02*
D03*
X0080900D02*
D03*
X0378700Y0335600D02*
D03*
X0398400D02*
D03*
X0418100D02*
D03*
Y0363200D02*
D03*
X0398400D02*
D03*
X0378700D02*
D03*
Y0202300D02*
D03*
X0398400D02*
D03*
X0418100D02*
D03*
Y0229900D02*
D03*
X0398400D02*
D03*
X0378700D02*
D03*
G54D143*
X0232400Y0437247D02*
D03*
Y0443153D02*
D03*
X0218300Y0548653D02*
D03*
Y0542747D02*
D03*
X0224000Y0548653D02*
D03*
Y0542747D02*
D03*
X0229700Y0548653D02*
D03*
Y0542747D02*
D03*
G54D144*
X0410900Y0451350D02*
D03*
Y0473300D02*
D03*
Y0429400D02*
D03*
G54D145*
Y0461350D02*
D03*
Y0483300D02*
D03*
Y0439400D02*
D03*
G54D146*
X0299200Y0460400D02*
D03*
X0286000Y0515200D02*
D03*
G54D147*
X0251000Y0544400D02*
D03*
X0255600Y0333200D02*
D03*
X0261700Y0333800D02*
D03*
X0185200Y0474900D02*
D03*
X0180700Y0465200D02*
D03*
X0187400Y0483300D02*
D03*
X0258300Y0585500D02*
D03*
X0341400Y0557500D02*
D03*
X0279600Y0481500D02*
D03*
X0351400Y0526100D02*
D03*
X0176000Y0248800D02*
D03*
Y0205700D02*
D03*
X0304200Y0221000D02*
D03*
Y0264700D02*
D03*
X0318500Y0226500D02*
D03*
X0315300D02*
D03*
Y0232900D02*
D03*
Y0229700D02*
D03*
X0321700D02*
D03*
X0318500D02*
D03*
Y0236100D02*
D03*
Y0232900D02*
D03*
X0324900D02*
D03*
X0321700D02*
D03*
Y0239300D02*
D03*
Y0236100D02*
D03*
X0324900D02*
D03*
X0318500Y0261700D02*
D03*
Y0264900D02*
D03*
X0315300D02*
D03*
X0321700Y0261700D02*
D03*
Y0264900D02*
D03*
X0324900Y0261700D02*
D03*
X0315300Y0236100D02*
D03*
Y0239300D02*
D03*
Y0242500D02*
D03*
Y0245700D02*
D03*
Y0248900D02*
D03*
Y0252100D02*
D03*
Y0255300D02*
D03*
Y0258500D02*
D03*
Y0261700D02*
D03*
X0318500Y0255300D02*
D03*
Y0258500D02*
D03*
X0321700Y0255300D02*
D03*
Y0258500D02*
D03*
X0315300Y0268100D02*
D03*
X0246400Y0441400D02*
D03*
X0341700Y0539200D02*
D03*
X0414900Y0553900D02*
D03*
X0415200Y0551200D02*
D03*
X0416400Y0548700D02*
D03*
X0413700Y0548800D02*
D03*
X0412400Y0551100D02*
D03*
X0288700Y0289700D02*
D03*
X0113900Y0160900D02*
D03*
X0110700D02*
D03*
X0107500D02*
D03*
X0104300D02*
D03*
X0113900Y0164100D02*
D03*
X0110700D02*
D03*
X0107500D02*
D03*
X0104300D02*
D03*
X0113900Y0167300D02*
D03*
X0110700D02*
D03*
X0107500D02*
D03*
X0104300D02*
D03*
X0113900Y0170500D02*
D03*
X0110700D02*
D03*
X0107500D02*
D03*
X0104300D02*
D03*
X0113900Y0173700D02*
D03*
X0110700D02*
D03*
X0107500D02*
D03*
X0104300D02*
D03*
X0113900Y0176900D02*
D03*
X0110700D02*
D03*
X0107500D02*
D03*
X0104300D02*
D03*
X0113900Y0180100D02*
D03*
X0110700D02*
D03*
X0107500D02*
D03*
X0104300D02*
D03*
X0113900Y0183300D02*
D03*
X0110700D02*
D03*
X0107500D02*
D03*
X0104300D02*
D03*
X0113900Y0186500D02*
D03*
X0110700D02*
D03*
X0107500D02*
D03*
X0104300D02*
D03*
X0113900Y0189700D02*
D03*
X0110700D02*
D03*
X0107500D02*
D03*
X0104300D02*
D03*
X0113900Y0192900D02*
D03*
X0110700D02*
D03*
X0107500D02*
D03*
X0104300D02*
D03*
X0113900Y0196100D02*
D03*
X0110700D02*
D03*
X0107500D02*
D03*
X0104300D02*
D03*
X0133400Y0285300D02*
D03*
X0136600D02*
D03*
X0139800D02*
D03*
X0143000D02*
D03*
X0133400Y0282100D02*
D03*
X0143000D02*
D03*
X0139800D02*
D03*
X0136600D02*
D03*
X0133400Y0278900D02*
D03*
X0136600D02*
D03*
X0139800D02*
D03*
X0143000D02*
D03*
X0133400Y0275700D02*
D03*
X0136600D02*
D03*
X0139800D02*
D03*
X0143000D02*
D03*
X0133400Y0272500D02*
D03*
X0136600D02*
D03*
X0139800D02*
D03*
X0143000D02*
D03*
X0133400Y0269300D02*
D03*
X0136600D02*
D03*
X0139800D02*
D03*
X0143000D02*
D03*
X0133400Y0266100D02*
D03*
X0136600D02*
D03*
X0139800D02*
D03*
X0143000D02*
D03*
X0133400Y0262900D02*
D03*
X0136600D02*
D03*
X0139800D02*
D03*
X0143000D02*
D03*
X0133400Y0259700D02*
D03*
X0136600D02*
D03*
X0139800D02*
D03*
X0143000D02*
D03*
X0133400Y0256500D02*
D03*
X0136600D02*
D03*
X0139800D02*
D03*
X0143000D02*
D03*
X0133400Y0253300D02*
D03*
X0136600D02*
D03*
X0139800D02*
D03*
X0143000D02*
D03*
X0133400Y0250100D02*
D03*
X0136600D02*
D03*
X0139800D02*
D03*
X0143000D02*
D03*
X0133400Y0246900D02*
D03*
X0136600D02*
D03*
X0139800D02*
D03*
X0143000D02*
D03*
X0133400Y0243700D02*
D03*
X0136600D02*
D03*
X0139800D02*
D03*
X0143000D02*
D03*
X0133400Y0240500D02*
D03*
X0136600D02*
D03*
X0139800D02*
D03*
X0143000D02*
D03*
X0133400Y0237300D02*
D03*
X0136600D02*
D03*
X0139800D02*
D03*
X0143000D02*
D03*
X0133400Y0234100D02*
D03*
X0136600D02*
D03*
X0139800D02*
D03*
X0143000D02*
D03*
X0133400Y0230900D02*
D03*
X0136600D02*
D03*
X0139800D02*
D03*
X0143000D02*
D03*
X0324900Y0175300D02*
D03*
X0321700D02*
D03*
X0318500D02*
D03*
X0315300D02*
D03*
X0324900Y0178500D02*
D03*
X0321700D02*
D03*
X0318500D02*
D03*
X0315300D02*
D03*
X0324900Y0181700D02*
D03*
X0321700D02*
D03*
X0318500D02*
D03*
X0315300D02*
D03*
X0324900Y0184900D02*
D03*
X0321700D02*
D03*
X0318500D02*
D03*
X0315300D02*
D03*
X0324900Y0188100D02*
D03*
X0321700D02*
D03*
X0318500D02*
D03*
X0315300D02*
D03*
X0324900Y0191300D02*
D03*
X0321700D02*
D03*
X0318500D02*
D03*
X0315300D02*
D03*
X0324900Y0194500D02*
D03*
X0321700D02*
D03*
X0318500D02*
D03*
X0315300D02*
D03*
X0324900Y0197700D02*
D03*
X0321700D02*
D03*
X0318500D02*
D03*
X0315300D02*
D03*
X0324900Y0200900D02*
D03*
X0321700D02*
D03*
X0318500D02*
D03*
X0315300D02*
D03*
X0324900Y0204100D02*
D03*
X0321700D02*
D03*
X0318500D02*
D03*
X0315300D02*
D03*
X0324900Y0207300D02*
D03*
X0321700D02*
D03*
X0318500D02*
D03*
X0315300D02*
D03*
X0324900Y0210500D02*
D03*
X0321700D02*
D03*
X0318500D02*
D03*
X0315300D02*
D03*
X0324900Y0213700D02*
D03*
X0321700D02*
D03*
X0318500D02*
D03*
X0315300D02*
D03*
X0324900Y0216900D02*
D03*
X0321700D02*
D03*
X0318500D02*
D03*
X0315300D02*
D03*
X0324900Y0220100D02*
D03*
X0321700D02*
D03*
X0318500D02*
D03*
X0315300D02*
D03*
X0324900Y0223300D02*
D03*
X0321700D02*
D03*
X0318500D02*
D03*
X0315300D02*
D03*
X0324900Y0226500D02*
D03*
X0321700D02*
D03*
X0324900Y0229700D02*
D03*
Y0239300D02*
D03*
X0318500D02*
D03*
X0324900Y0242500D02*
D03*
X0321700D02*
D03*
X0318500D02*
D03*
X0324900Y0245700D02*
D03*
X0321700D02*
D03*
X0318500D02*
D03*
X0324900Y0248900D02*
D03*
X0321700D02*
D03*
X0318500D02*
D03*
X0324900Y0252100D02*
D03*
X0321700D02*
D03*
X0318500D02*
D03*
X0324900Y0255300D02*
D03*
Y0258500D02*
D03*
Y0264900D02*
D03*
Y0268100D02*
D03*
X0321700D02*
D03*
X0318500D02*
D03*
X0183000Y0325400D02*
D03*
X0179800D02*
D03*
X0176600D02*
D03*
X0173400D02*
D03*
X0183000Y0328600D02*
D03*
X0179800D02*
D03*
X0176600D02*
D03*
X0173400D02*
D03*
X0183000Y0331800D02*
D03*
X0179800D02*
D03*
X0176600D02*
D03*
X0173400D02*
D03*
X0183000Y0335000D02*
D03*
X0179800D02*
D03*
X0176600D02*
D03*
X0173400D02*
D03*
X0183000Y0338200D02*
D03*
X0179800D02*
D03*
X0176600D02*
D03*
X0173400D02*
D03*
X0183000Y0341400D02*
D03*
X0179800D02*
D03*
X0176600D02*
D03*
X0173400D02*
D03*
X0183000Y0344600D02*
D03*
X0179800D02*
D03*
X0176600D02*
D03*
X0173400D02*
D03*
X0183000Y0347800D02*
D03*
X0179800D02*
D03*
X0176600D02*
D03*
X0173400D02*
D03*
X0183000Y0351000D02*
D03*
X0179800D02*
D03*
X0176600D02*
D03*
X0173400D02*
D03*
X0183000Y0354200D02*
D03*
X0179800D02*
D03*
X0176600D02*
D03*
X0173400D02*
D03*
X0183000Y0357400D02*
D03*
X0173400D02*
D03*
X0176600D02*
D03*
X0179800D02*
D03*
X0183000Y0360600D02*
D03*
X0179800D02*
D03*
X0176600D02*
D03*
X0173400D02*
D03*
X0183000Y0363800D02*
D03*
X0179800D02*
D03*
X0176600D02*
D03*
X0173400D02*
D03*
X0183000Y0367000D02*
D03*
X0179800D02*
D03*
X0176600D02*
D03*
X0173400D02*
D03*
X0183000Y0370200D02*
D03*
X0179800D02*
D03*
X0176600D02*
D03*
X0173400D02*
D03*
X0183000Y0373400D02*
D03*
X0179800D02*
D03*
X0176600D02*
D03*
X0173400D02*
D03*
X0183000Y0376600D02*
D03*
X0179800D02*
D03*
X0176600D02*
D03*
X0173400D02*
D03*
X0183000Y0379800D02*
D03*
X0179800D02*
D03*
X0176600D02*
D03*
X0173400D02*
D03*
X0183000Y0383000D02*
D03*
X0179800D02*
D03*
X0176600D02*
D03*
X0173400D02*
D03*
X0183000Y0386200D02*
D03*
X0179800D02*
D03*
X0176600D02*
D03*
X0173400D02*
D03*
X0183000Y0389400D02*
D03*
X0179800D02*
D03*
X0176600D02*
D03*
X0173400D02*
D03*
X0183000Y0392600D02*
D03*
X0179800D02*
D03*
X0176600D02*
D03*
X0173400D02*
D03*
X0183000Y0395800D02*
D03*
X0179800D02*
D03*
X0176600D02*
D03*
X0173400D02*
D03*
X0183000Y0399000D02*
D03*
X0179800D02*
D03*
X0176600D02*
D03*
X0173400D02*
D03*
X0183000Y0402200D02*
D03*
X0179800D02*
D03*
X0176600D02*
D03*
X0173400D02*
D03*
X0183000Y0405400D02*
D03*
X0179800D02*
D03*
X0176600D02*
D03*
X0173400D02*
D03*
X0183000Y0408600D02*
D03*
X0179800D02*
D03*
X0176600D02*
D03*
X0173400D02*
D03*
X0183000Y0411800D02*
D03*
X0179800D02*
D03*
X0176600D02*
D03*
X0173400D02*
D03*
X0183000Y0415000D02*
D03*
X0179800D02*
D03*
X0176600D02*
D03*
X0173400D02*
D03*
X0183000Y0418200D02*
D03*
X0179800D02*
D03*
X0176600D02*
D03*
X0173400D02*
D03*
X0272400Y0395700D02*
D03*
X0269200D02*
D03*
X0266000D02*
D03*
X0262800D02*
D03*
X0272400Y0398900D02*
D03*
X0269200D02*
D03*
X0266000D02*
D03*
X0262800D02*
D03*
X0272400Y0402100D02*
D03*
X0269200D02*
D03*
X0266000D02*
D03*
X0262800D02*
D03*
X0272400Y0405300D02*
D03*
X0269200D02*
D03*
X0266000D02*
D03*
X0262800D02*
D03*
X0272400Y0408500D02*
D03*
X0269200D02*
D03*
X0266000D02*
D03*
X0262800D02*
D03*
X0272400Y0411700D02*
D03*
X0269200D02*
D03*
X0266000D02*
D03*
X0262800D02*
D03*
X0272400Y0414900D02*
D03*
X0269200D02*
D03*
X0266000D02*
D03*
X0262800D02*
D03*
X0272400Y0418100D02*
D03*
X0269200D02*
D03*
X0266000D02*
D03*
X0262800D02*
D03*
X0279700D02*
D03*
X0282900D02*
D03*
X0286100D02*
D03*
X0289300D02*
D03*
X0279700Y0414900D02*
D03*
X0282900D02*
D03*
X0286100D02*
D03*
X0289300D02*
D03*
X0279700Y0411700D02*
D03*
X0282900D02*
D03*
X0286100D02*
D03*
X0289300D02*
D03*
X0279700Y0408500D02*
D03*
X0282900D02*
D03*
X0286100D02*
D03*
X0289300D02*
D03*
X0279700Y0405300D02*
D03*
X0282900D02*
D03*
X0286100D02*
D03*
X0289300D02*
D03*
X0279700Y0402100D02*
D03*
X0282900D02*
D03*
X0286100D02*
D03*
X0289300D02*
D03*
X0279700Y0398900D02*
D03*
X0282900D02*
D03*
X0286100D02*
D03*
X0289300D02*
D03*
X0279700Y0395700D02*
D03*
X0282900D02*
D03*
X0286100D02*
D03*
X0289300D02*
D03*
X0279700Y0392500D02*
D03*
X0282900D02*
D03*
X0286100D02*
D03*
X0289300D02*
D03*
X0279700Y0389300D02*
D03*
X0282900D02*
D03*
X0286100D02*
D03*
X0289300D02*
D03*
X0279700Y0386100D02*
D03*
X0282900D02*
D03*
X0286100D02*
D03*
X0289300D02*
D03*
X0279700Y0382900D02*
D03*
X0282900D02*
D03*
X0286100D02*
D03*
X0289300D02*
D03*
X0279700Y0379700D02*
D03*
X0282900D02*
D03*
X0286100D02*
D03*
X0289300D02*
D03*
X0311400Y0354100D02*
D03*
X0308200D02*
D03*
X0305000D02*
D03*
X0301800D02*
D03*
X0311400Y0357300D02*
D03*
X0301800D02*
D03*
X0305000D02*
D03*
X0308200D02*
D03*
X0311400Y0360500D02*
D03*
X0308200D02*
D03*
X0305000D02*
D03*
X0301800D02*
D03*
X0311400Y0363700D02*
D03*
X0308200D02*
D03*
X0305000D02*
D03*
X0301800D02*
D03*
X0311400Y0366900D02*
D03*
X0308200D02*
D03*
X0305000D02*
D03*
X0301800D02*
D03*
X0311400Y0370100D02*
D03*
X0308200D02*
D03*
X0305000D02*
D03*
X0301800D02*
D03*
X0311400Y0373300D02*
D03*
X0308200D02*
D03*
X0305000D02*
D03*
X0301800D02*
D03*
X0311400Y0376500D02*
D03*
X0308200D02*
D03*
X0305000D02*
D03*
X0301800D02*
D03*
X0311400Y0379700D02*
D03*
X0308200D02*
D03*
X0305000D02*
D03*
X0301800D02*
D03*
X0311400Y0382900D02*
D03*
X0308200D02*
D03*
X0305000D02*
D03*
X0301800D02*
D03*
X0311400Y0386100D02*
D03*
X0308200D02*
D03*
X0305000D02*
D03*
X0301800D02*
D03*
X0311400Y0389300D02*
D03*
X0308200D02*
D03*
X0305000D02*
D03*
X0301800D02*
D03*
X0311400Y0392500D02*
D03*
X0308200D02*
D03*
X0305000D02*
D03*
X0301800D02*
D03*
X0311400Y0395700D02*
D03*
X0308200D02*
D03*
X0305000D02*
D03*
X0301800D02*
D03*
X0311400Y0398900D02*
D03*
X0308200D02*
D03*
X0305000D02*
D03*
X0301800D02*
D03*
X0311400Y0402100D02*
D03*
X0308200D02*
D03*
X0305000D02*
D03*
X0301800D02*
D03*
X0311400Y0405300D02*
D03*
X0308200D02*
D03*
X0305000D02*
D03*
X0301800D02*
D03*
X0311400Y0408500D02*
D03*
X0308200D02*
D03*
X0305000D02*
D03*
X0301800D02*
D03*
X0311400Y0411700D02*
D03*
X0308200D02*
D03*
X0305000D02*
D03*
X0301800D02*
D03*
X0311400Y0414900D02*
D03*
X0308200D02*
D03*
X0305000D02*
D03*
X0301800D02*
D03*
X0311400Y0418100D02*
D03*
X0308200D02*
D03*
X0305000D02*
D03*
X0301800D02*
D03*
X0205700Y0261200D02*
D03*
Y0264400D02*
D03*
Y0267600D02*
D03*
Y0270800D02*
D03*
X0208900Y0261200D02*
D03*
Y0270800D02*
D03*
Y0267600D02*
D03*
Y0264400D02*
D03*
X0212100Y0261200D02*
D03*
Y0264400D02*
D03*
Y0267600D02*
D03*
Y0270800D02*
D03*
X0215300Y0261200D02*
D03*
Y0264400D02*
D03*
Y0267600D02*
D03*
Y0270800D02*
D03*
X0218500Y0261200D02*
D03*
Y0264400D02*
D03*
Y0267600D02*
D03*
Y0270800D02*
D03*
X0221700Y0261200D02*
D03*
Y0264400D02*
D03*
Y0267600D02*
D03*
Y0270800D02*
D03*
X0224900Y0261200D02*
D03*
Y0264400D02*
D03*
Y0267600D02*
D03*
Y0270800D02*
D03*
X0228100Y0261200D02*
D03*
Y0264400D02*
D03*
Y0267600D02*
D03*
Y0270800D02*
D03*
X0231300Y0261200D02*
D03*
Y0264400D02*
D03*
Y0267600D02*
D03*
Y0270800D02*
D03*
X0234500Y0261200D02*
D03*
Y0264400D02*
D03*
Y0267600D02*
D03*
Y0270800D02*
D03*
X0237700Y0261200D02*
D03*
Y0264400D02*
D03*
Y0267600D02*
D03*
Y0270800D02*
D03*
X0240900Y0261200D02*
D03*
Y0264400D02*
D03*
Y0267600D02*
D03*
Y0270800D02*
D03*
X0244100Y0261200D02*
D03*
Y0264400D02*
D03*
Y0267600D02*
D03*
Y0270800D02*
D03*
X0247300Y0261200D02*
D03*
Y0264400D02*
D03*
Y0267600D02*
D03*
Y0270800D02*
D03*
X0250500Y0261200D02*
D03*
Y0264400D02*
D03*
Y0267600D02*
D03*
Y0270800D02*
D03*
X0253700Y0261200D02*
D03*
Y0264400D02*
D03*
Y0267600D02*
D03*
Y0270800D02*
D03*
X0256900Y0261200D02*
D03*
Y0264400D02*
D03*
Y0267600D02*
D03*
Y0270800D02*
D03*
X0260100Y0261200D02*
D03*
Y0264400D02*
D03*
Y0267600D02*
D03*
Y0270800D02*
D03*
X0263300Y0261200D02*
D03*
Y0264400D02*
D03*
Y0267600D02*
D03*
Y0270800D02*
D03*
X0266500Y0261200D02*
D03*
Y0264400D02*
D03*
Y0267600D02*
D03*
Y0270800D02*
D03*
X0269700Y0261200D02*
D03*
Y0264400D02*
D03*
Y0267600D02*
D03*
Y0270800D02*
D03*
X0205700Y0218200D02*
D03*
Y0221400D02*
D03*
Y0224600D02*
D03*
Y0227800D02*
D03*
X0208900Y0218200D02*
D03*
Y0227800D02*
D03*
Y0224600D02*
D03*
Y0221400D02*
D03*
X0212100Y0218200D02*
D03*
Y0221400D02*
D03*
Y0224600D02*
D03*
Y0227800D02*
D03*
X0215300Y0218200D02*
D03*
Y0221400D02*
D03*
Y0224600D02*
D03*
Y0227800D02*
D03*
X0218500Y0218200D02*
D03*
Y0221400D02*
D03*
Y0224600D02*
D03*
Y0227800D02*
D03*
X0221700Y0218200D02*
D03*
Y0221400D02*
D03*
Y0224600D02*
D03*
Y0227800D02*
D03*
X0224900Y0218200D02*
D03*
Y0221400D02*
D03*
Y0224600D02*
D03*
Y0227800D02*
D03*
X0228100Y0218200D02*
D03*
Y0221400D02*
D03*
Y0224600D02*
D03*
Y0227800D02*
D03*
X0231300Y0218200D02*
D03*
Y0221400D02*
D03*
Y0224600D02*
D03*
Y0227800D02*
D03*
X0234500Y0218200D02*
D03*
Y0221400D02*
D03*
Y0224600D02*
D03*
Y0227800D02*
D03*
X0237700Y0218200D02*
D03*
Y0221400D02*
D03*
Y0224600D02*
D03*
Y0227800D02*
D03*
X0240900Y0218200D02*
D03*
Y0221400D02*
D03*
Y0224600D02*
D03*
Y0227800D02*
D03*
X0244100Y0218200D02*
D03*
Y0221400D02*
D03*
Y0224600D02*
D03*
Y0227800D02*
D03*
X0247300Y0218200D02*
D03*
Y0221400D02*
D03*
Y0224600D02*
D03*
Y0227800D02*
D03*
X0250500Y0218200D02*
D03*
Y0221400D02*
D03*
Y0224600D02*
D03*
Y0227800D02*
D03*
X0253700Y0218200D02*
D03*
Y0221400D02*
D03*
Y0224600D02*
D03*
Y0227800D02*
D03*
X0256900Y0218200D02*
D03*
Y0221400D02*
D03*
Y0224600D02*
D03*
Y0227800D02*
D03*
X0260100Y0218200D02*
D03*
Y0221400D02*
D03*
Y0224600D02*
D03*
Y0227800D02*
D03*
X0263300Y0218200D02*
D03*
Y0221400D02*
D03*
Y0224600D02*
D03*
Y0227800D02*
D03*
X0266500Y0218200D02*
D03*
Y0221400D02*
D03*
Y0224600D02*
D03*
Y0227800D02*
D03*
X0269700Y0218200D02*
D03*
Y0221400D02*
D03*
Y0224600D02*
D03*
Y0227800D02*
D03*
X0205800Y0174900D02*
D03*
Y0178100D02*
D03*
Y0181300D02*
D03*
Y0184500D02*
D03*
X0209000Y0174900D02*
D03*
Y0184500D02*
D03*
Y0181300D02*
D03*
Y0178100D02*
D03*
X0212200Y0174900D02*
D03*
Y0178100D02*
D03*
Y0181300D02*
D03*
Y0184500D02*
D03*
X0215400Y0174900D02*
D03*
Y0178100D02*
D03*
Y0181300D02*
D03*
Y0184500D02*
D03*
X0218600Y0174900D02*
D03*
Y0178100D02*
D03*
Y0181300D02*
D03*
Y0184500D02*
D03*
X0221800Y0174900D02*
D03*
Y0178100D02*
D03*
Y0181300D02*
D03*
Y0184500D02*
D03*
X0225000Y0174900D02*
D03*
Y0178100D02*
D03*
Y0181300D02*
D03*
Y0184500D02*
D03*
X0228200Y0174900D02*
D03*
Y0178100D02*
D03*
Y0181300D02*
D03*
Y0184500D02*
D03*
X0231400Y0174900D02*
D03*
Y0178100D02*
D03*
Y0181300D02*
D03*
Y0184500D02*
D03*
X0234600Y0174900D02*
D03*
Y0178100D02*
D03*
Y0181300D02*
D03*
Y0184500D02*
D03*
X0237800Y0174900D02*
D03*
Y0178100D02*
D03*
Y0181300D02*
D03*
Y0184500D02*
D03*
X0241000Y0174900D02*
D03*
Y0178100D02*
D03*
Y0181300D02*
D03*
Y0184500D02*
D03*
X0244200Y0174900D02*
D03*
Y0178100D02*
D03*
Y0181300D02*
D03*
Y0184500D02*
D03*
X0247400Y0174900D02*
D03*
Y0178100D02*
D03*
Y0181300D02*
D03*
Y0184500D02*
D03*
X0250600Y0174900D02*
D03*
Y0178100D02*
D03*
Y0181300D02*
D03*
Y0184500D02*
D03*
X0253800Y0174900D02*
D03*
Y0178100D02*
D03*
Y0181300D02*
D03*
Y0184500D02*
D03*
X0257000Y0174900D02*
D03*
Y0178100D02*
D03*
Y0181300D02*
D03*
Y0184500D02*
D03*
X0260200Y0174900D02*
D03*
Y0178100D02*
D03*
Y0181300D02*
D03*
Y0184500D02*
D03*
X0263400Y0174900D02*
D03*
Y0178100D02*
D03*
Y0181300D02*
D03*
Y0184500D02*
D03*
X0266600Y0174900D02*
D03*
Y0178100D02*
D03*
Y0181300D02*
D03*
Y0184500D02*
D03*
X0269800Y0174900D02*
D03*
Y0178100D02*
D03*
Y0181300D02*
D03*
Y0184500D02*
D03*
X0230900Y0354200D02*
D03*
X0227700D02*
D03*
X0224500D02*
D03*
X0221300D02*
D03*
X0230900Y0357400D02*
D03*
X0227700D02*
D03*
X0224500D02*
D03*
X0221300D02*
D03*
X0230900Y0360600D02*
D03*
X0227700D02*
D03*
X0224500D02*
D03*
X0221300D02*
D03*
X0230900Y0363800D02*
D03*
X0227700D02*
D03*
X0224500D02*
D03*
X0221300D02*
D03*
X0230900Y0367000D02*
D03*
X0227700D02*
D03*
X0224500D02*
D03*
X0221300D02*
D03*
X0230900Y0370200D02*
D03*
X0227700D02*
D03*
X0224500D02*
D03*
X0221300D02*
D03*
X0230900Y0373400D02*
D03*
X0227700D02*
D03*
X0224500D02*
D03*
X0221300D02*
D03*
X0230900Y0376600D02*
D03*
X0227700D02*
D03*
X0224500D02*
D03*
X0221300D02*
D03*
X0230900Y0379800D02*
D03*
X0227700D02*
D03*
X0224500D02*
D03*
X0221300D02*
D03*
X0230900Y0383000D02*
D03*
X0227700D02*
D03*
X0224500D02*
D03*
X0221300D02*
D03*
X0230900Y0386200D02*
D03*
X0227700D02*
D03*
X0224500D02*
D03*
X0221300D02*
D03*
X0230900Y0389400D02*
D03*
X0227700D02*
D03*
X0224500D02*
D03*
X0221300D02*
D03*
X0230900Y0392600D02*
D03*
X0227700D02*
D03*
X0224500D02*
D03*
X0221300D02*
D03*
X0230900Y0395800D02*
D03*
X0227700D02*
D03*
X0224500D02*
D03*
X0221300D02*
D03*
X0230900Y0399000D02*
D03*
X0227700D02*
D03*
X0224500D02*
D03*
X0221300D02*
D03*
X0230900Y0402200D02*
D03*
X0227700D02*
D03*
X0224500D02*
D03*
X0221300D02*
D03*
X0230900Y0405400D02*
D03*
X0227700D02*
D03*
X0224500D02*
D03*
X0221300D02*
D03*
X0230900Y0408600D02*
D03*
X0227700D02*
D03*
X0224500D02*
D03*
X0221300D02*
D03*
X0230900Y0411800D02*
D03*
X0227700D02*
D03*
X0224500D02*
D03*
X0221300D02*
D03*
X0224500Y0415000D02*
D03*
X0227700D02*
D03*
X0230900D02*
D03*
X0221300D02*
D03*
X0230900Y0418200D02*
D03*
X0227700D02*
D03*
X0224500D02*
D03*
X0374300Y0463000D02*
D03*
X0349700Y0523800D02*
D03*
X0348400Y0526300D02*
D03*
X0354400Y0554400D02*
D03*
X0352900Y0549700D02*
D03*
X0350260Y0550460D02*
D03*
X0344700Y0557500D02*
D03*
X0372500Y0481400D02*
D03*
X0372400Y0488200D02*
D03*
X0405700Y0490100D02*
D03*
X0403900Y0492300D02*
D03*
Y0494900D02*
D03*
X0301557Y0550200D02*
D03*
X0297500Y0547400D02*
D03*
X0280700Y0462300D02*
D03*
X0348200Y0511300D02*
D03*
X0333900Y0484200D02*
D03*
X0336700D02*
D03*
X0339200Y0485600D02*
D03*
Y0482800D02*
D03*
X0344900Y0459400D02*
D03*
X0342200D02*
D03*
X0339500D02*
D03*
X0340900Y0456500D02*
D03*
X0343600D02*
D03*
X0313900Y0476200D02*
D03*
X0331500Y0430450D02*
D03*
Y0440800D02*
D03*
Y0451150D02*
D03*
Y0461500D02*
D03*
X0349200Y0438700D02*
D03*
X0307100Y0550200D02*
D03*
X0304328D02*
D03*
X0298786D02*
D03*
X0296014D02*
D03*
X0293243D02*
D03*
X0290471D02*
D03*
X0146100Y0488900D02*
D03*
X0279300Y0342000D02*
D03*
X0182900Y0534700D02*
D03*
X0160200Y0484900D02*
D03*
X0157400Y0546100D02*
D03*
X0187900Y0528600D02*
D03*
X0304200Y0178600D02*
D03*
X0281700Y0334000D02*
D03*
X0221300Y0418200D02*
D03*
X0180600Y0542200D02*
D03*
X0212800Y0487500D02*
D03*
X0212000Y0538200D02*
D03*
X0209400Y0533700D02*
D03*
X0208400Y0515800D02*
D03*
X0172300Y0524100D02*
D03*
X0151600Y0533300D02*
D03*
X0382000Y0485800D02*
D03*
X0319200Y0504500D02*
D03*
X0316000Y0508100D02*
D03*
X0329100Y0504500D02*
D03*
X0329200Y0500300D02*
D03*
X0169200Y0428000D02*
D03*
X0172000D02*
D03*
X0174800D02*
D03*
X0177600D02*
D03*
X0180400D02*
D03*
X0183200D02*
D03*
X0186000D02*
D03*
X0187400Y0425500D02*
D03*
X0184600D02*
D03*
X0181800D02*
D03*
X0167800D02*
D03*
X0170600D02*
D03*
X0173400D02*
D03*
X0176200D02*
D03*
X0179000D02*
D03*
X0106400Y0579250D02*
D03*
Y0576500D02*
D03*
X0107300Y0564600D02*
D03*
Y0567350D02*
D03*
Y0552105D02*
D03*
Y0554854D02*
D03*
Y0541000D02*
D03*
Y0543750D02*
D03*
X0107276Y0528260D02*
D03*
X0107300Y0531500D02*
D03*
X0106600Y0519800D02*
D03*
Y0509000D02*
D03*
Y0505600D02*
D03*
X0106300Y0437700D02*
D03*
Y0434200D02*
D03*
Y0449700D02*
D03*
Y0446400D02*
D03*
Y0461700D02*
D03*
Y0458200D02*
D03*
Y0473200D02*
D03*
Y0469800D02*
D03*
Y0484500D02*
D03*
X0106600Y0497600D02*
D03*
Y0494400D02*
D03*
X0106300Y0481600D02*
D03*
X0106600Y0517000D02*
D03*
X0214200Y0427200D02*
D03*
X0177000Y0444600D02*
D03*
X0160500D02*
D03*
X0200900Y0406800D02*
D03*
X0205100D02*
D03*
X0245500Y0582300D02*
D03*
Y0585500D02*
D03*
Y0588700D02*
D03*
X0248700Y0582300D02*
D03*
Y0585500D02*
D03*
Y0588700D02*
D03*
X0251900Y0582300D02*
D03*
Y0585500D02*
D03*
Y0588700D02*
D03*
X0255100Y0582300D02*
D03*
Y0585500D02*
D03*
Y0588700D02*
D03*
X0258300Y0582300D02*
D03*
Y0588700D02*
D03*
X0261500Y0582300D02*
D03*
X0297500Y0544300D02*
D03*
X0287700Y0550200D02*
D03*
X0397700Y0490700D02*
D03*
X0377500Y0463000D02*
D03*
X0420300Y0495700D02*
D03*
X0420100Y0487400D02*
D03*
X0174800Y0283400D02*
D03*
X0266800Y0452400D02*
D03*
X0219800Y0523700D02*
D03*
X0245100Y0455100D02*
D03*
X0248400Y0478100D02*
D03*
X0189800Y0474900D02*
D03*
X0280700Y0459100D02*
D03*
X0267600Y0482400D02*
D03*
X0267200Y0496159D02*
D03*
X0268700Y0500200D02*
D03*
X0268100Y0486600D02*
D03*
X0315600Y0539900D02*
D03*
X0280200Y0492300D02*
D03*
X0291600Y0519300D02*
D03*
Y0504600D02*
D03*
X0302200Y0490600D02*
D03*
X0269900Y0443900D02*
D03*
X0218400Y0516379D02*
D03*
X0209400Y0508900D02*
D03*
X0285400Y0527200D02*
D03*
X0217250Y0427200D02*
D03*
X0249500Y0541600D02*
D03*
X0295100Y0498200D02*
D03*
X0304300Y0498400D02*
D03*
Y0501500D02*
D03*
X0301200D02*
D03*
X0298100D02*
D03*
X0295000D02*
D03*
X0267100Y0490300D02*
D03*
X0255400Y0492400D02*
D03*
X0251500Y0492100D02*
D03*
X0244900Y0448900D02*
D03*
X0240800Y0444700D02*
D03*
X0240600Y0438200D02*
D03*
X0248600Y0426350D02*
D03*
X0238900Y0507000D02*
D03*
X0238700Y0510000D02*
D03*
X0234500Y0487800D02*
D03*
X0177400Y0486200D02*
D03*
X0172300Y0539000D02*
D03*
X0220300Y0427200D02*
D03*
X0292400Y0499800D02*
D03*
X0352100Y0552600D02*
D03*
X0251200Y0430500D02*
D03*
X0204400Y0551400D02*
D03*
X0236500Y0553000D02*
D03*
X0253800Y0544400D02*
D03*
X0255700Y0541600D02*
D03*
X0185500Y0467000D02*
D03*
X0226000Y0462300D02*
D03*
G54D148*
X0261065Y0568341D02*
D03*
X0256735D02*
D03*
X0261065Y0573459D02*
D03*
X0256735D02*
D03*
M02*
