M48
;Layer_Color=9474304
;FILE_FORMAT=2:5
INCH,LZ
;TYPE=PLATED
T1F00S00C0.00984
T2F00S00C0.01968
T3F00S00C0.03583
T4F00S00C0.03937
T5F00S00C0.04331
T6F00S00C0.04724
T7F00S00C0.05906
T9F00S00C0.10236
%
T01
X0031496Y0022835
X0065748Y002126
X0071653Y0006299
X007441Y0035433
X0114173Y0032677
X0116535Y0044488
X0131427Y0043598
X0145138Y004317
X0142353Y0031815
X0128427Y0032029
X0155422Y0030529
X0167323Y0030709
X0162064Y004317
X0182283Y0042913
X019252Y0041732
X0198057Y0030101
X0183917Y0029458
X0249606Y011063
X0277559Y0106299
X0283071Y0104331
X0286614Y0094882
X0297244Y0090945
X0295276Y0127165
X027559Y0125197
X023189Y0131102
X0166142Y0121653
X0165748Y0108268
X0133858Y0108661
X0133465Y0111811
X0129528Y0114567
X012126Y0108267
X011811Y0110236
X0106299Y0111024
X0096063Y0108661
X0066535
X0061417
X0060236Y0091339
X0131496Y0077165
X0152362Y0056693
X0127953Y0138583
X0162598Y0197638
X0038583Y0136614
X0029134Y011063
Y0103937
Y0096063
X0044094Y0091732
X0051968
X0038976Y0062992
X0010236Y0150787
X0167717Y0275197
X0181496
X0187795Y0275984
X0187008Y0286221
X0180315Y028189
X0174409Y0286614
X0179921Y029685
X0191339Y0296457
X019685Y0282283
X0199606Y027441
X0167717Y029685
X0270472Y0290945
T02
X0301575Y0137008
X0311811Y0140551
T03
X0285827Y0281496
X0305827
T04
X0015748Y0012598
Y0022441
Y0032283
Y0042126
Y0051968
Y0077165
Y0087008
Y009685
Y0106693
X0276575Y0300787
X0286417
T05
X0037008Y0012992
X004685
X0056693
X0066535
X0076378
X0086221
X0026516Y0269642
Y0289327
T06
X0054527Y0029134
Y0046457
X0080118
Y0029134
X0144488Y0074213
Y0084252
Y0094291
X0144882Y015
Y0160039
Y0170079
X0209525Y0170028
Y0159989
Y014995
X0207874Y0094685
Y0084646
Y0074606
T07
X0279528Y0062205
X0198819Y0208661
X0179921
X0146457
Y0227559
X014685Y0256693
Y027559
X0122441Y0270866
X0103543
X0087008
X006811
Y0294488
X0087008
X0103543
X0122441
X0180315Y0256693
X0199213
T09
X0078347Y0098032
X0010236Y0137795
M30
