G04*
G04 #@! TF.GenerationSoftware,Altium Limited,Altium Designer,20.1.14 (287)*
G04*
G04 Layer_Color=16711935*
%FSLAX25Y25*%
%MOIN*%
G70*
G04*
G04 #@! TF.SameCoordinates,7663C7E1-D25E-47D6-87D1-FA2199C3474E*
G04*
G04*
G04 #@! TF.FilePolarity,Negative*
G04*
G01*
G75*
%ADD55R,0.03937X0.03937*%
%ADD69C,0.12611*%
%ADD70C,0.07480*%
%ADD71C,0.07887*%
%ADD72C,0.08674*%
%ADD73R,0.08674X0.08674*%
%ADD74R,0.07887X0.07887*%
%ADD75C,0.07099*%
%ADD76R,0.08674X0.08674*%
%ADD77C,0.12205*%
%ADD78R,0.12205X0.12205*%
%ADD79R,0.08268X0.08268*%
%ADD80C,0.08268*%
%ADD82C,0.04737*%
%ADD83C,0.14580*%
D55*
X219685Y86024D02*
D03*
Y80118D02*
D03*
X222047Y162402D02*
D03*
Y156496D02*
D03*
D69*
X198819Y208661D02*
D03*
X179921D02*
D03*
X146457Y227559D02*
D03*
Y208661D02*
D03*
X279528Y62205D02*
D03*
X199213Y256693D02*
D03*
X180315D02*
D03*
X146850Y275590D02*
D03*
Y256693D02*
D03*
X103543Y270866D02*
D03*
X122441D02*
D03*
Y294488D02*
D03*
X103543D02*
D03*
X68110Y270866D02*
D03*
X87008D02*
D03*
Y294488D02*
D03*
X68110D02*
D03*
D70*
X54527Y29134D02*
D03*
Y46457D02*
D03*
X80118D02*
D03*
Y29134D02*
D03*
D71*
X209525Y149950D02*
D03*
Y159989D02*
D03*
Y170028D02*
D03*
X207874Y74606D02*
D03*
Y84646D02*
D03*
Y94685D02*
D03*
X144488Y74213D02*
D03*
Y84252D02*
D03*
Y94291D02*
D03*
X86221Y12992D02*
D03*
X46850D02*
D03*
X56693D02*
D03*
X66535D02*
D03*
X76378D02*
D03*
X144882Y150000D02*
D03*
Y160039D02*
D03*
Y170079D02*
D03*
D72*
X15748Y77165D02*
D03*
Y87008D02*
D03*
Y96850D02*
D03*
Y12598D02*
D03*
Y42126D02*
D03*
Y32283D02*
D03*
Y22441D02*
D03*
X276575Y300787D02*
D03*
D73*
X15748Y106693D02*
D03*
Y51968D02*
D03*
D74*
X37008Y12992D02*
D03*
D75*
X305827Y281496D02*
D03*
X285827D02*
D03*
D76*
X286417Y300787D02*
D03*
D77*
X275492Y227362D02*
D03*
X284646Y250098D02*
D03*
X275492Y212598D02*
D03*
X45768Y203543D02*
D03*
X36614Y166043D02*
D03*
X45768Y188779D02*
D03*
D78*
X290158Y190847D02*
D03*
X275492D02*
D03*
X228740Y207677D02*
D03*
Y239862D02*
D03*
X92520Y176279D02*
D03*
Y208465D02*
D03*
X45768Y225295D02*
D03*
X31102D02*
D03*
D79*
X26516Y269642D02*
D03*
D80*
Y289327D02*
D03*
D82*
X311811Y140551D02*
D03*
X301575Y137008D02*
D03*
D83*
X78347Y98032D02*
D03*
X10236Y137795D02*
D03*
M02*
