G04*
G04 #@! TF.GenerationSoftware,Altium Limited,Altium Designer,20.1.14 (287)*
G04*
G04 Layer_Color=8388736*
%FSLAX25Y25*%
%MOIN*%
G70*
G04*
G04 #@! TF.SameCoordinates,7663C7E1-D25E-47D6-87D1-FA2199C3474E*
G04*
G04*
G04 #@! TF.FilePolarity,Negative*
G04*
G01*
G75*
G04:AMPARAMS|DCode=47|XSize=86.74mil|YSize=157.61mil|CornerRadius=0mil|HoleSize=0mil|Usage=FLASHONLY|Rotation=180.000|XOffset=0mil|YOffset=0mil|HoleType=Round|Shape=Octagon|*
%AMOCTAGOND47*
4,1,8,0.02169,-0.07880,-0.02169,-0.07880,-0.04337,-0.05712,-0.04337,0.05712,-0.02169,0.07880,0.02169,0.07880,0.04337,0.05712,0.04337,-0.05712,0.02169,-0.07880,0.0*
%
%ADD47OCTAGOND47*%

%ADD48R,0.07099X0.02375*%
%ADD49R,0.10052X0.16548*%
%ADD50R,0.03937X0.03937*%
%ADD51R,0.03556X0.04147*%
%ADD52R,0.07887X0.03753*%
%ADD53O,0.07887X0.03753*%
%ADD54R,0.09855X0.13595*%
%ADD55R,0.03937X0.03937*%
%ADD56R,0.06299X0.13780*%
%ADD57R,0.03950X0.03162*%
%ADD58R,0.04737X0.04737*%
%ADD59R,0.04147X0.03556*%
%ADD60R,0.03950X0.06312*%
%ADD61R,0.04737X0.08099*%
%ADD62R,0.03800X0.03800*%
%ADD63R,0.03800X0.03800*%
%ADD64R,0.07887X0.03359*%
%ADD65O,0.07887X0.03359*%
%ADD66R,0.02598X0.03386*%
%ADD67R,0.03162X0.03950*%
%ADD68R,0.04737X0.04737*%
%ADD69C,0.12611*%
%ADD70C,0.07480*%
%ADD71C,0.07887*%
%ADD72C,0.08674*%
%ADD73R,0.08674X0.08674*%
%ADD74R,0.07887X0.07887*%
%ADD75C,0.07099*%
%ADD76R,0.08674X0.08674*%
%ADD77C,0.12205*%
%ADD78R,0.12205X0.12205*%
%ADD79R,0.08268X0.08268*%
%ADD80C,0.08268*%
%ADD81C,0.02769*%
%ADD82C,0.04737*%
%ADD83C,0.14580*%
D47*
X105118Y65748D02*
D03*
D48*
X73425Y84350D02*
D03*
Y61319D02*
D03*
Y68996D02*
D03*
Y81791D02*
D03*
Y79232D02*
D03*
Y76673D02*
D03*
Y74114D02*
D03*
Y71555D02*
D03*
Y66437D02*
D03*
Y63878D02*
D03*
X50591Y84350D02*
D03*
Y81791D02*
D03*
Y79232D02*
D03*
Y76673D02*
D03*
Y66437D02*
D03*
Y61319D02*
D03*
Y63878D02*
D03*
Y68996D02*
D03*
Y71555D02*
D03*
Y74114D02*
D03*
D49*
X237008Y91339D02*
D03*
X260827D02*
D03*
D50*
X300787Y119291D02*
D03*
X294882D02*
D03*
X300787Y112992D02*
D03*
X294882D02*
D03*
X292323Y100787D02*
D03*
X286417D02*
D03*
X286221Y131102D02*
D03*
X280315D02*
D03*
X273031Y101575D02*
D03*
X278937D02*
D03*
X264961Y131496D02*
D03*
X270866D02*
D03*
X153543Y117717D02*
D03*
X147638D02*
D03*
X153740Y132677D02*
D03*
X147835D02*
D03*
X111221Y90551D02*
D03*
X105315D02*
D03*
X44882Y137008D02*
D03*
X50787D02*
D03*
X38189D02*
D03*
X32283D02*
D03*
Y130709D02*
D03*
X38189D02*
D03*
X54331Y108661D02*
D03*
X48425D02*
D03*
X87598Y61024D02*
D03*
X81693D02*
D03*
X184055Y134646D02*
D03*
X189961D02*
D03*
X248228Y301181D02*
D03*
X242323D02*
D03*
X261614Y295669D02*
D03*
X255709D02*
D03*
X223031Y308661D02*
D03*
X228937D02*
D03*
D51*
X273425Y95276D02*
D03*
X282480D02*
D03*
X102953Y137992D02*
D03*
X93898D02*
D03*
D52*
X286811Y108248D02*
D03*
D53*
Y113248D02*
D03*
Y118248D02*
D03*
Y123248D02*
D03*
X264764Y108248D02*
D03*
Y113248D02*
D03*
Y118248D02*
D03*
Y123248D02*
D03*
D54*
X275787Y115748D02*
D03*
D55*
X256102Y118701D02*
D03*
Y112795D02*
D03*
Y124606D02*
D03*
Y130512D02*
D03*
X219094Y112795D02*
D03*
Y118701D02*
D03*
Y125000D02*
D03*
Y130905D02*
D03*
X173228Y58071D02*
D03*
Y63976D02*
D03*
X88976Y137402D02*
D03*
Y131496D02*
D03*
X83071Y137402D02*
D03*
Y131496D02*
D03*
X41339Y114173D02*
D03*
Y120079D02*
D03*
X87598Y73622D02*
D03*
Y67716D02*
D03*
X40945Y35630D02*
D03*
Y41535D02*
D03*
X129134Y120669D02*
D03*
Y114764D02*
D03*
D56*
X236811Y132283D02*
D03*
Y111811D02*
D03*
D57*
X167323Y63583D02*
D03*
Y57677D02*
D03*
D58*
X160236Y125000D02*
D03*
X168898Y128740D02*
D03*
X160236Y132480D02*
D03*
Y117913D02*
D03*
X168898Y114173D02*
D03*
X160236Y110433D02*
D03*
D59*
X175984Y119095D02*
D03*
Y110039D02*
D03*
Y123819D02*
D03*
Y132874D02*
D03*
D60*
X111024Y76772D02*
D03*
X99213D02*
D03*
D61*
X105118Y75878D02*
D03*
D62*
X105124Y85046D02*
D03*
X110574Y85039D02*
D03*
X112936Y137992D02*
D03*
X107486Y137998D02*
D03*
X222890Y302756D02*
D03*
X228341Y302749D02*
D03*
D63*
X98813Y84652D02*
D03*
X98819Y90102D02*
D03*
D64*
X96063Y130925D02*
D03*
X47441Y130728D02*
D03*
D65*
X96063Y125925D02*
D03*
Y120925D02*
D03*
Y115925D02*
D03*
X118110Y130925D02*
D03*
Y125925D02*
D03*
Y120925D02*
D03*
Y115925D02*
D03*
X69488Y115728D02*
D03*
Y120728D02*
D03*
Y125728D02*
D03*
Y130728D02*
D03*
X47441Y115728D02*
D03*
Y120728D02*
D03*
Y125728D02*
D03*
D66*
X75787Y53937D02*
D03*
X82087D02*
D03*
D67*
X173425Y138583D02*
D03*
X167520D02*
D03*
D68*
X262402Y301969D02*
D03*
X258662Y310630D02*
D03*
X254921Y301969D02*
D03*
D69*
X198819Y208661D02*
D03*
X179921D02*
D03*
X146457Y227559D02*
D03*
Y208661D02*
D03*
X279528Y62205D02*
D03*
X199213Y256693D02*
D03*
X180315D02*
D03*
X146850Y275590D02*
D03*
Y256693D02*
D03*
X103543Y270866D02*
D03*
X122441D02*
D03*
Y294488D02*
D03*
X103543D02*
D03*
X68110Y270866D02*
D03*
X87008D02*
D03*
Y294488D02*
D03*
X68110D02*
D03*
D70*
X54527Y29134D02*
D03*
Y46457D02*
D03*
X80118D02*
D03*
Y29134D02*
D03*
D71*
X209525Y149950D02*
D03*
Y159989D02*
D03*
Y170028D02*
D03*
X207874Y74606D02*
D03*
Y84646D02*
D03*
Y94685D02*
D03*
X144488Y74213D02*
D03*
Y84252D02*
D03*
Y94291D02*
D03*
X86221Y12992D02*
D03*
X46850D02*
D03*
X56693D02*
D03*
X66535D02*
D03*
X76378D02*
D03*
X144882Y150000D02*
D03*
Y160039D02*
D03*
Y170079D02*
D03*
D72*
X15748Y77165D02*
D03*
Y87008D02*
D03*
Y96850D02*
D03*
Y12598D02*
D03*
Y42126D02*
D03*
Y32283D02*
D03*
Y22441D02*
D03*
X276575Y300787D02*
D03*
D73*
X15748Y106693D02*
D03*
Y51968D02*
D03*
D74*
X37008Y12992D02*
D03*
D75*
X305827Y281496D02*
D03*
X285827D02*
D03*
D76*
X286417Y300787D02*
D03*
D77*
X275492Y227362D02*
D03*
X284646Y250098D02*
D03*
X275492Y212598D02*
D03*
X45768Y203543D02*
D03*
X36614Y166043D02*
D03*
X45768Y188779D02*
D03*
D78*
X290158Y190847D02*
D03*
X275492D02*
D03*
X228740Y207677D02*
D03*
Y239862D02*
D03*
X92520Y176279D02*
D03*
Y208465D02*
D03*
X45768Y225295D02*
D03*
X31102D02*
D03*
D79*
X26516Y269642D02*
D03*
D80*
Y289327D02*
D03*
D81*
X87795Y126772D02*
D03*
X88189Y123228D02*
D03*
X151575Y126772D02*
D03*
Y122047D02*
D03*
D82*
X311811Y140551D02*
D03*
X301575Y137008D02*
D03*
D83*
X78347Y98032D02*
D03*
X10236Y137795D02*
D03*
M02*
