%TF.GenerationSoftware,Altium Limited,Altium Designer,21.0.8 (223)*%
G04 Layer_Physical_Order=1*
G04 Layer_Color=255*
%FSLAX26Y26*%
%MOIN*%
%TF.SameCoordinates,3528F89D-DF25-4B87-B81C-8702AA7ACEB5*%
%TF.FilePolarity,Positive*%
%TF.FileFunction,Copper,L1,Top,Signal*%
%TF.Part,Single*%
G01*
G75*
%TA.AperFunction,SMDPad,CuDef*%
%ADD10R,0.030000X0.030000*%
%ADD11R,0.035433X0.035433*%
%ADD12R,0.035433X0.035433*%
%ADD13O,0.070866X0.025591*%
%ADD14R,0.070866X0.025591*%
%ADD15R,0.030000X0.030000*%
%ADD16R,0.027559X0.033465*%
%ADD17R,0.039370X0.039370*%
%ADD18R,0.059055X0.133858*%
%ADD19R,0.070866X0.029528*%
%ADD20O,0.070866X0.029528*%
%ADD21R,0.090551X0.127953*%
%ADD22R,0.039370X0.039370*%
%ADD23R,0.023622X0.031496*%
%ADD24R,0.062992X0.015748*%
%ADD25R,0.092520X0.157480*%
%TA.AperFunction,Conductor*%
%ADD26C,0.011811*%
%ADD27C,0.098425*%
%ADD28C,0.118110*%
%ADD29C,0.003937*%
%ADD30C,0.007874*%
%ADD31C,0.019685*%
%ADD32C,0.023622*%
%ADD33C,0.031496*%
%ADD34C,0.078740*%
%ADD35C,0.039370*%
%ADD36C,0.196850*%
%ADD37C,0.015748*%
%ADD38C,0.007000*%
%TA.AperFunction,ComponentPad*%
%ADD39C,0.062992*%
%ADD40R,0.078740X0.078740*%
%ADD41C,0.078740*%
%ADD42C,0.118110*%
%ADD43O,0.062992X0.090551*%
%ADD44R,0.118110X0.118110*%
%ADD45C,0.086614*%
%ADD46C,0.098425*%
%ADD47C,0.070866*%
%ADD48R,0.070866X0.070866*%
%TA.AperFunction,ViaPad*%
%ADD49C,0.118110*%
%TA.AperFunction,ComponentPad*%
%ADD50R,0.078740X0.078740*%
%TA.AperFunction,ViaPad*%
%ADD51C,0.039370*%
G36*
X1723425Y2006890D02*
Y1938976D01*
X1722441Y1937992D01*
X1625000D01*
Y1973425D01*
Y1974409D01*
X1650591Y2000984D01*
Y2039370D01*
X1690945D01*
X1723425Y2006890D01*
D02*
G37*
G36*
X1831693Y1895669D02*
X1831693Y1812992D01*
X1807087Y1788386D01*
X1737205D01*
Y1812992D01*
X1745079Y1820866D01*
Y1917323D01*
X1810039D01*
X1831693Y1895669D01*
D02*
G37*
G36*
X1595473Y2179134D02*
Y2143701D01*
X1524606Y2072835D01*
Y1919291D01*
X1552165Y1891732D01*
Y1757874D01*
X1489173D01*
X1437992Y1809055D01*
X1319882D01*
Y1844488D01*
X1426181Y2112205D01*
X1497047Y2183071D01*
X1595473D01*
Y2179134D01*
D02*
G37*
G36*
X1807818Y1680123D02*
Y1646183D01*
X1800471Y1638835D01*
X1708268D01*
X1706355Y1643455D01*
X1745074Y1682175D01*
X1750000Y1681195D01*
X1795276D01*
X1802818Y1682695D01*
X1803709Y1682799D01*
X1807818Y1680123D01*
D02*
G37*
G36*
X781796Y983615D02*
X786765Y978647D01*
X792850Y975134D01*
X799636Y973315D01*
X799974D01*
X801887Y968696D01*
X764657Y931466D01*
X661528D01*
Y958772D01*
X584536D01*
Y929024D01*
Y901252D01*
X584099Y901165D01*
X581133Y899183D01*
X549310Y867360D01*
X547327Y864393D01*
X546631Y860894D01*
Y848073D01*
X542012Y846160D01*
X515444Y872728D01*
X511971Y875048D01*
X507874Y875863D01*
X433181D01*
Y903433D01*
Y930740D01*
X469488D01*
X474524Y931741D01*
X478793Y934593D01*
X531041Y986842D01*
X779933D01*
X781796Y983615D01*
D02*
G37*
G36*
X1729331Y900591D02*
X1727362Y898622D01*
X1639764D01*
X1625984Y912402D01*
Y954724D01*
X1688976Y1017716D01*
X1729331D01*
Y900591D01*
D02*
G37*
G36*
X687489Y900529D02*
X667243Y880284D01*
X661528D01*
Y905149D01*
X685575D01*
X687489Y900529D01*
D02*
G37*
G36*
X1024606Y968504D02*
Y879921D01*
X1023622Y878937D01*
X1022638Y879921D01*
X986221D01*
Y916339D01*
X967520Y935039D01*
X870079D01*
X870079Y973425D01*
X872047Y975394D01*
X1017717D01*
X1024606Y968504D01*
D02*
G37*
G36*
X1832730Y1629786D02*
X1834431Y1628646D01*
Y1614965D01*
X1816918Y1597452D01*
X1816918Y1597452D01*
X1816918Y1597452D01*
X1475383Y1255917D01*
X1472965Y1252299D01*
X1472116Y1248032D01*
X1472117Y1248031D01*
Y1119095D01*
X1472116Y1119094D01*
X1472965Y1114827D01*
X1475383Y1111209D01*
X1602148Y984444D01*
Y956803D01*
X1559929D01*
Y940171D01*
X1544623Y924865D01*
X1539595Y917341D01*
X1537830Y908465D01*
Y893166D01*
X1533211Y891253D01*
X1530637Y893826D01*
X1528322Y895373D01*
X1525591Y895917D01*
X1337599Y895917D01*
X1333661D01*
X1332973Y895780D01*
X1329614D01*
Y894494D01*
X1328615Y893826D01*
X1327068Y891511D01*
X1326524Y888779D01*
Y842520D01*
X1327068Y839788D01*
X1328615Y837473D01*
X1329614Y836474D01*
Y822213D01*
X1098454D01*
X1093419Y821212D01*
X1089150Y818360D01*
X1082231Y811441D01*
X1079379Y807172D01*
X1078377Y802136D01*
Y756484D01*
X1075150Y754621D01*
X1070182Y749653D01*
X1066669Y743568D01*
X1064851Y736781D01*
Y729755D01*
X1066669Y722968D01*
X1070182Y716883D01*
X1075150Y711914D01*
X1081236Y708401D01*
X1088022Y706583D01*
X1095049D01*
X1101835Y708401D01*
X1107920Y711914D01*
X1112889Y716883D01*
X1116402Y722968D01*
X1118220Y729755D01*
Y736781D01*
X1116402Y743568D01*
X1112889Y749653D01*
X1107920Y754621D01*
X1104694Y756484D01*
Y795897D01*
X1329614D01*
Y787291D01*
X1379047D01*
Y832430D01*
X1392606D01*
Y787291D01*
X1394129D01*
Y769795D01*
X1392606D01*
Y720362D01*
X1442039D01*
Y721885D01*
X1466929D01*
X1475805Y723651D01*
X1483330Y728678D01*
X1491948Y737297D01*
X1518700D01*
X1526424Y738834D01*
X1532972Y743209D01*
X1537347Y749757D01*
X1538884Y757480D01*
X1537347Y765204D01*
X1532972Y771752D01*
X1526424Y776127D01*
X1518700Y777663D01*
X1476668D01*
X1476378Y777721D01*
X1476087Y777663D01*
X1473425D01*
X1465701Y776127D01*
X1459153Y771752D01*
X1456829Y768273D01*
X1442039D01*
Y769795D01*
X1440516D01*
Y787291D01*
X1442039D01*
Y832430D01*
X1471758D01*
X1472250Y827430D01*
X1465701Y826127D01*
X1459153Y821752D01*
X1454778Y815204D01*
X1453242Y807480D01*
X1454778Y799757D01*
X1459153Y793209D01*
X1465701Y788834D01*
X1473425Y787297D01*
X1485324D01*
X1487187Y786052D01*
X1496063Y784287D01*
X1542574D01*
X1551450Y786052D01*
X1558974Y791080D01*
X1577424Y809530D01*
X1582452Y817055D01*
X1584217Y825930D01*
Y898858D01*
X1592730Y907370D01*
X1602595D01*
X1602996Y905352D01*
X1605414Y901735D01*
X1658734Y848414D01*
X1658734Y848414D01*
X1662352Y845997D01*
X1666620Y845148D01*
X1666620Y845148D01*
X1678330D01*
X1679626Y843209D01*
X1686174Y838834D01*
X1693898Y837297D01*
X1699003D01*
X1703078Y834171D01*
X1706717Y832663D01*
X1705723Y827663D01*
X1693898D01*
X1686174Y826127D01*
X1679626Y821752D01*
X1675251Y815204D01*
X1673714Y807480D01*
X1675251Y799757D01*
X1679626Y793209D01*
X1686174Y788834D01*
X1693898Y787297D01*
X1739173D01*
X1746897Y788834D01*
X1753445Y793209D01*
X1757820Y799757D01*
X1759356Y807480D01*
X1757820Y815204D01*
X1753445Y821752D01*
X1747738Y825565D01*
X1748146Y829441D01*
X1748570Y830565D01*
X1794757D01*
X1819541Y805780D01*
Y556424D01*
X1736970Y473852D01*
X1732692Y468278D01*
X1730003Y461786D01*
X1729086Y454820D01*
X1729975Y448074D01*
Y276595D01*
X1702736Y249356D01*
X1263409D01*
X1261291Y251475D01*
X1251615Y257061D01*
X1240823Y259953D01*
X1230867D01*
X1115489Y375331D01*
X1109914Y379609D01*
X1106112Y381184D01*
X1103423Y382298D01*
X1096457Y383215D01*
X937992D01*
X931026Y382298D01*
X927932Y381016D01*
X913276D01*
Y366360D01*
X911994Y363265D01*
X911077Y356299D01*
X911994Y349333D01*
X913276Y346239D01*
Y331583D01*
X927932D01*
X931026Y330301D01*
X937992Y329384D01*
X1085308D01*
X1152186Y262506D01*
X1149597Y258024D01*
X1142398Y259953D01*
X1131225D01*
X1120433Y257061D01*
X1110757Y251475D01*
X1102856Y243574D01*
X1097270Y233898D01*
X1094378Y223106D01*
Y211933D01*
X1097270Y201141D01*
X1102856Y191465D01*
X1110757Y183565D01*
X1120433Y177978D01*
X1131225Y175087D01*
X1142398D01*
X1153190Y177978D01*
X1162866Y183565D01*
X1170766Y191465D01*
X1176352Y201141D01*
X1179244Y211933D01*
Y223106D01*
X1177315Y230306D01*
X1181798Y232894D01*
X1192803Y221889D01*
Y211933D01*
X1195695Y201141D01*
X1201281Y191465D01*
X1209182Y183565D01*
X1218858Y177978D01*
X1229650Y175087D01*
X1240823D01*
X1251615Y177978D01*
X1261291Y183565D01*
X1269191Y191465D01*
X1271535Y195526D01*
X1713884D01*
X1720851Y196443D01*
X1724974Y198151D01*
X1729975Y195231D01*
Y88109D01*
X1694560Y52695D01*
X278676D01*
X175465Y155906D01*
Y172134D01*
X185150D01*
Y264874D01*
X165695D01*
Y475284D01*
X185150D01*
Y494738D01*
X277051D01*
X284018Y495655D01*
X290509Y498344D01*
X296083Y502622D01*
X319229Y525767D01*
X341350Y547888D01*
X347203D01*
X347801Y546446D01*
X348703Y542888D01*
X346735Y539942D01*
X345920Y535846D01*
Y498770D01*
X229635Y382485D01*
X227314Y379012D01*
X226499Y374915D01*
Y263641D01*
X219307Y261714D01*
X208733Y255609D01*
X200100Y246976D01*
X193995Y236402D01*
X190835Y224609D01*
Y212399D01*
X193995Y200606D01*
X200100Y190032D01*
X208733Y181399D01*
X219307Y175294D01*
X231100Y172134D01*
X243310D01*
X255103Y175294D01*
X265677Y181399D01*
X274310Y190032D01*
X280415Y200606D01*
X283575Y212399D01*
Y224609D01*
X280415Y236402D01*
X274310Y246976D01*
X265677Y255609D01*
X255103Y261714D01*
X247911Y263641D01*
Y370480D01*
X355061Y477631D01*
X359680Y475717D01*
Y454725D01*
X361446Y445849D01*
X364063Y441932D01*
Y431977D01*
X380633D01*
X382874Y431531D01*
X385115Y431977D01*
X401685D01*
X401913Y427071D01*
Y259242D01*
X402728Y255145D01*
X403686Y253712D01*
X396950Y246976D01*
X390845Y236402D01*
X387685Y224609D01*
Y212399D01*
X390845Y200606D01*
X396950Y190032D01*
X405583Y181399D01*
X411697Y177869D01*
X413382Y171207D01*
X412987Y170561D01*
X396504D01*
X374309Y192757D01*
X378840Y200606D01*
X382000Y212399D01*
Y224609D01*
X378840Y236402D01*
X372735Y246976D01*
X364102Y255609D01*
X353528Y261714D01*
X341735Y264874D01*
X329525D01*
X317732Y261714D01*
X307158Y255609D01*
X298525Y246976D01*
X292420Y236402D01*
X289260Y224609D01*
Y212399D01*
X292420Y200606D01*
X298525Y190032D01*
X307158Y181399D01*
X317732Y175294D01*
X329525Y172134D01*
X341735D01*
X353528Y175294D01*
X361377Y179825D01*
X386251Y154951D01*
X389217Y152969D01*
X392717Y152273D01*
X461614D01*
X465113Y152969D01*
X468080Y154951D01*
X488860Y175731D01*
X490842Y178698D01*
X491538Y182197D01*
Y341425D01*
X490842Y344924D01*
X488860Y347891D01*
X453877Y382874D01*
X560382Y489379D01*
X688484D01*
X691983Y490075D01*
X694950Y492058D01*
X819732Y616840D01*
X833552D01*
Y605205D01*
X886922D01*
Y658575D01*
X833552D01*
Y635129D01*
X815945D01*
X812446Y634432D01*
X809479Y632450D01*
X684697Y507668D01*
X556594D01*
X553095Y506972D01*
X550129Y504989D01*
X440945Y395806D01*
X434231Y402520D01*
Y431977D01*
X464677D01*
Y449250D01*
X516080Y500653D01*
X519802Y506224D01*
X521110Y512795D01*
Y601771D01*
X526110Y603842D01*
X530048Y599903D01*
X539724Y594317D01*
X550516Y591425D01*
X561689D01*
X572481Y594317D01*
X582157Y599903D01*
X590057Y607804D01*
X595644Y617480D01*
X598535Y628272D01*
Y639445D01*
X595644Y650237D01*
X590057Y659913D01*
X582157Y667813D01*
X572481Y673400D01*
X569261Y674262D01*
Y698824D01*
X579916Y709480D01*
X584536Y707567D01*
Y698709D01*
X661528D01*
Y724299D01*
Y749890D01*
Y775481D01*
Y802787D01*
X675653D01*
X682625Y795814D01*
X686894Y792962D01*
X691930Y791960D01*
X702646D01*
Y780402D01*
X752079D01*
Y829835D01*
X714766D01*
X712695Y834835D01*
X721254Y843394D01*
X752079D01*
Y886338D01*
X761701D01*
Y843394D01*
X811134D01*
Y850938D01*
X826662D01*
Y841425D01*
X880032D01*
Y894795D01*
X826662D01*
Y885283D01*
X811134D01*
Y892827D01*
X796371D01*
X794458Y897446D01*
X858322Y961311D01*
X862942Y959397D01*
X862942Y935039D01*
X863485Y932308D01*
X864064Y931442D01*
Y928039D01*
X869390D01*
X870079Y927902D01*
X964563D01*
X979083Y913382D01*
Y879921D01*
X979627Y877190D01*
X980205Y876325D01*
Y872921D01*
X985531D01*
X986221Y872784D01*
X1020231D01*
X1020891Y872343D01*
X1023622Y871800D01*
X1026353Y872343D01*
X1027219Y872921D01*
X1029638D01*
Y874859D01*
X1029653Y874875D01*
X1031200Y877190D01*
X1031744Y879921D01*
Y968504D01*
X1031266Y970905D01*
X1031278Y971361D01*
X1034094Y975905D01*
X1061898D01*
X1066933Y976906D01*
X1071202Y979759D01*
X1703962Y1612519D01*
X1805921D01*
X1810957Y1613520D01*
X1815226Y1616373D01*
X1829431Y1630579D01*
X1832730Y1629786D01*
D02*
G37*
G36*
X702646Y871937D02*
Y862003D01*
X695337Y854694D01*
X685941D01*
X683870Y859694D01*
X698026Y873850D01*
X702646Y871937D01*
D02*
G37*
G36*
X467484Y849746D02*
X465886Y847335D01*
X460657Y846754D01*
X457959Y849452D01*
X459922Y854452D01*
X465256D01*
X467484Y849746D01*
D02*
G37*
G36*
X1525591Y888779D02*
X1535433Y878937D01*
X1535433Y844488D01*
X1530512Y839567D01*
X1336614D01*
X1333661Y842520D01*
Y888779D01*
X1337599D01*
X1525591Y888779D01*
D02*
G37*
G36*
X702646Y826852D02*
Y818277D01*
X697380D01*
X692279Y823377D01*
X694350Y828377D01*
X700787D01*
X702646Y826852D01*
D02*
G37*
G36*
X584536Y870189D02*
Y826662D01*
Y781062D01*
X583547D01*
X576975Y779755D01*
X571404Y776033D01*
X569920Y774548D01*
X564920Y776619D01*
Y857106D01*
X579916Y872102D01*
X584536Y870189D01*
D02*
G37*
G36*
X351526Y900149D02*
X351382Y900053D01*
X188530Y737201D01*
X187404Y735515D01*
X181990Y736402D01*
X179536Y740652D01*
X344033Y905149D01*
X350009D01*
X351526Y900149D01*
D02*
G37*
G36*
X516447Y715032D02*
X516182Y713697D01*
Y693516D01*
X512538Y690573D01*
X508160Y692456D01*
Y713816D01*
X511839Y717495D01*
X516447Y715032D01*
D02*
G37*
G36*
X489872Y704419D02*
Y689811D01*
X482845Y682784D01*
X478225Y684698D01*
Y699306D01*
X485252Y706332D01*
X489872Y704419D01*
D02*
G37*
G36*
X356189Y698709D02*
X433181D01*
X434176Y694121D01*
Y587026D01*
X418287Y571137D01*
X413551Y573472D01*
X413726Y574803D01*
X412809Y581770D01*
X411528Y584864D01*
Y599520D01*
X396872D01*
X393777Y600802D01*
X386811Y601719D01*
X338039D01*
Y720529D01*
X339511Y722001D01*
X356189D01*
Y698709D01*
D02*
G37*
G36*
X454402Y573917D02*
X456814Y572550D01*
Y538688D01*
X416147Y498021D01*
X411528Y499935D01*
Y534860D01*
X413825Y536395D01*
X451814Y574384D01*
X454402Y573917D01*
D02*
G37*
G36*
X5012371Y262942D02*
X4755758Y6330D01*
X1731394D01*
X1729323Y11330D01*
X1775922Y57929D01*
X1780199Y63503D01*
X1782888Y69995D01*
X1783805Y76961D01*
Y247047D01*
Y265447D01*
Y444560D01*
X1865489Y526244D01*
X1869766Y531818D01*
X1872455Y538309D01*
X1873372Y545275D01*
Y816929D01*
X1872455Y823895D01*
X1869766Y830387D01*
X1865489Y835961D01*
X1824150Y877300D01*
X1818576Y881577D01*
X1812084Y884266D01*
X1805118Y885183D01*
X1799138Y884396D01*
X1716535D01*
X1709569Y883479D01*
X1703078Y880790D01*
X1699003Y877663D01*
X1693898D01*
X1686174Y876127D01*
X1679626Y871752D01*
X1676752Y867451D01*
X1671238D01*
X1651823Y886866D01*
X1653737Y891485D01*
X1727362D01*
X1730094Y892028D01*
X1732409Y893575D01*
X1734378Y895544D01*
X1735925Y897859D01*
X1736468Y900591D01*
Y906316D01*
X1741031Y907370D01*
X1741468Y907370D01*
X1790464D01*
Y909877D01*
X1837282D01*
X1842118Y902640D01*
X2007222Y737537D01*
X2014746Y732509D01*
X2023622Y730743D01*
X2519685D01*
X2528561Y732509D01*
X2536086Y737537D01*
X2626147Y827598D01*
X2631175Y835123D01*
X2632940Y843999D01*
Y1003788D01*
X2644336Y1015183D01*
X2648868Y1012645D01*
X2645551Y998827D01*
X2644249Y982284D01*
Y569394D01*
X2603834Y528980D01*
X2325787D01*
X2309244Y527678D01*
X2293109Y523804D01*
X2277778Y517453D01*
X2263628Y508783D01*
X2251010Y498006D01*
X2240233Y485387D01*
X2231562Y471238D01*
X2225212Y455907D01*
X2221338Y439772D01*
X2220036Y423228D01*
X2221338Y406685D01*
X2225212Y390550D01*
X2231562Y375218D01*
X2240233Y361069D01*
X2251010Y348451D01*
X2263628Y337674D01*
X2277778Y329003D01*
X2293109Y322653D01*
X2309244Y318779D01*
X2325787Y317477D01*
X2647638D01*
X2664181Y318779D01*
X2680317Y322653D01*
X2695648Y329003D01*
X2709797Y337674D01*
X2722415Y348451D01*
X2824778Y450813D01*
X2835555Y463432D01*
X2844225Y477580D01*
X2850575Y492912D01*
X2854449Y509048D01*
X2855751Y525591D01*
Y982284D01*
X2854449Y998827D01*
X2850575Y1014962D01*
X2844225Y1030293D01*
X2835555Y1044443D01*
X2824778Y1057061D01*
X2812159Y1067838D01*
X2800043Y1075263D01*
X2801453Y1080263D01*
X3048339D01*
X3057215Y1082029D01*
X3064739Y1087056D01*
X3479491Y1501808D01*
X3522403Y1544720D01*
X4195866D01*
X4204742Y1546485D01*
X4212267Y1551513D01*
X4270439Y1609685D01*
X4275467Y1617210D01*
X4277232Y1626086D01*
Y1636808D01*
X4284913Y1641242D01*
X4292813Y1649142D01*
X4298400Y1658818D01*
X4301291Y1669611D01*
Y1680783D01*
X4298400Y1691575D01*
X4292813Y1701251D01*
X4284913Y1709152D01*
X4275237Y1714738D01*
X4264445Y1717630D01*
X4253272D01*
X4242480Y1714738D01*
X4232804Y1709152D01*
X4224903Y1701251D01*
X4219317Y1691575D01*
X4216425Y1680783D01*
Y1669611D01*
X4219317Y1658818D01*
X4224903Y1649142D01*
X4230845Y1643201D01*
Y1635693D01*
X4186259Y1591107D01*
X3512796D01*
X3503920Y1589342D01*
X3496395Y1584314D01*
X3484897Y1572815D01*
X3480277Y1574729D01*
Y1643693D01*
X3485727Y1649142D01*
X3491313Y1658818D01*
X3494205Y1669611D01*
Y1680783D01*
X3491313Y1691575D01*
X3485727Y1701251D01*
X3477826Y1709152D01*
X3468150Y1714738D01*
X3457358Y1717630D01*
X3446185D01*
X3435393Y1714738D01*
X3425717Y1709152D01*
X3417817Y1701251D01*
X3412230Y1691575D01*
X3409339Y1680783D01*
Y1669611D01*
X3412230Y1658818D01*
X3417817Y1649142D01*
X3425717Y1641242D01*
X3433890Y1636524D01*
Y1524216D01*
X3434289Y1522208D01*
X3038732Y1126650D01*
X2699809D01*
X2690933Y1124885D01*
X2683408Y1119857D01*
X2593346Y1029795D01*
X2588318Y1022271D01*
X2586553Y1013395D01*
Y922119D01*
X2581553Y921125D01*
X2581175Y922037D01*
X2573946Y932856D01*
X2564746Y942056D01*
X2553927Y949285D01*
X2541905Y954265D01*
X2529144Y956803D01*
X2516132D01*
X2503370Y954265D01*
X2491349Y949285D01*
X2480530Y942056D01*
X2471330Y932856D01*
X2464101Y922037D01*
X2459121Y910016D01*
X2456583Y897254D01*
Y884242D01*
X2459121Y871480D01*
X2464101Y859459D01*
X2471330Y848640D01*
X2480530Y839440D01*
X2491349Y832211D01*
X2503370Y827231D01*
X2516132Y824693D01*
X2529144D01*
X2541905Y827231D01*
X2553927Y832211D01*
X2564746Y839440D01*
X2573946Y848640D01*
X2581175Y859459D01*
X2581553Y860371D01*
X2586553Y859377D01*
Y853606D01*
X2510078Y777131D01*
X2033229D01*
X1884304Y926056D01*
X1893369Y935120D01*
X1898397Y942645D01*
X1900162Y951521D01*
Y1040937D01*
X1901835Y1043834D01*
X1903654Y1050621D01*
Y1057647D01*
X1901835Y1064434D01*
X1898322Y1070519D01*
X1893354Y1075487D01*
X1887269Y1079000D01*
X1880482Y1080819D01*
X1873455D01*
X1866669Y1079000D01*
X1860584Y1075487D01*
X1855615Y1070519D01*
X1852102Y1064434D01*
X1850284Y1057647D01*
Y1050621D01*
X1852102Y1043834D01*
X1853775Y1040937D01*
Y961128D01*
X1848911Y956265D01*
X1790464D01*
Y956803D01*
X1741468D01*
X1741031Y956803D01*
X1736468Y957857D01*
Y1017716D01*
X1735925Y1020448D01*
X1734378Y1022763D01*
X1732062Y1024310D01*
X1729331Y1024854D01*
X1688976D01*
X1686245Y1024310D01*
X1685380Y1023732D01*
X1681976D01*
Y1020810D01*
X1665154Y1003987D01*
X1664931Y1004047D01*
X1657904D01*
X1651117Y1002229D01*
X1645032Y998716D01*
X1640064Y993747D01*
X1636551Y987662D01*
X1634732Y980875D01*
Y973849D01*
X1634792Y973626D01*
X1629070Y967903D01*
X1624450Y969817D01*
Y989063D01*
X1624450Y989063D01*
X1623601Y993331D01*
X1621184Y996948D01*
X1494419Y1123714D01*
Y1243412D01*
X1832688Y1581681D01*
X1832688Y1581682D01*
X1853468Y1602461D01*
X1853468Y1602461D01*
X1855885Y1606079D01*
X1856734Y1610346D01*
X1856734Y1610347D01*
Y1972331D01*
X1855885Y1976598D01*
X1853468Y1980216D01*
X1853468Y1980216D01*
X1840562Y1993121D01*
X1836945Y1995539D01*
X1832677Y1996388D01*
X1832677Y1996388D01*
X1730562D01*
Y2006890D01*
X1730019Y2009621D01*
X1728472Y2011936D01*
X1696961Y2043448D01*
Y2046370D01*
X1691634D01*
X1690945Y2046507D01*
X1670984D01*
X1670276Y2046600D01*
X1669568Y2046507D01*
X1650591D01*
X1649901Y2046370D01*
X1643591D01*
Y2040060D01*
X1643454Y2039370D01*
Y2020392D01*
X1643360Y2019685D01*
X1643454Y2018978D01*
Y2003862D01*
X1621832Y1981409D01*
X1618000D01*
Y1975099D01*
X1617863Y1974409D01*
Y1937992D01*
X1618000Y1937303D01*
Y1931976D01*
X1621404D01*
X1622269Y1931398D01*
X1625000Y1930855D01*
X1722441D01*
X1725172Y1931398D01*
X1727253Y1932788D01*
X1727768D01*
Y1933226D01*
X1728472Y1933930D01*
X1730019Y1936245D01*
X1730562Y1938976D01*
Y1974085D01*
X1828058D01*
X1834431Y1967712D01*
Y1909557D01*
X1829812Y1907644D01*
X1815086Y1922370D01*
X1812771Y1923917D01*
X1810039Y1924460D01*
X1745079D01*
X1744390Y1924323D01*
X1738079D01*
Y1918013D01*
X1737942Y1917323D01*
Y1875510D01*
X1559303D01*
Y1891732D01*
X1558759Y1894464D01*
X1557212Y1896779D01*
X1557197Y1896794D01*
Y1902669D01*
X1551322D01*
X1531744Y1922248D01*
Y2069878D01*
X1600519Y2138654D01*
X1600529Y2138669D01*
X1602472D01*
Y2143011D01*
X1602610Y2143701D01*
Y2183071D01*
X1602472Y2183761D01*
Y2188102D01*
X1600529D01*
X1600519Y2188118D01*
X1598204Y2189665D01*
X1595473Y2190208D01*
X1497047D01*
X1494316Y2189665D01*
X1492001Y2188118D01*
X1423088Y2119205D01*
X1421150D01*
Y2117267D01*
X1421134Y2117251D01*
X1421105Y2117207D01*
X1421061Y2117176D01*
X1420334Y2116054D01*
X1419587Y2114936D01*
X1419577Y2114883D01*
X1419548Y2114838D01*
X1314982Y1851488D01*
X1314850D01*
Y1851156D01*
X1313249Y1847122D01*
X1313007Y1845804D01*
X1312745Y1844488D01*
Y1809055D01*
X1313288Y1806324D01*
X1314835Y1804008D01*
X1314850Y1803998D01*
Y1802055D01*
X1319192D01*
X1319882Y1801918D01*
X1435036D01*
X1484127Y1752827D01*
X1486442Y1751280D01*
X1489173Y1750737D01*
X1552165D01*
X1554897Y1751280D01*
X1557212Y1752827D01*
X1558759Y1755143D01*
X1559303Y1757874D01*
Y1781970D01*
X1730205D01*
Y1781583D01*
X1735526D01*
X1737205Y1781249D01*
X1807087D01*
X1808765Y1781583D01*
X1815071D01*
Y1786277D01*
X1821391Y1792597D01*
X1825394Y1795669D01*
X1828347Y1798621D01*
X1829431Y1800034D01*
X1834431Y1798337D01*
Y1737764D01*
X1832730Y1736623D01*
X1829431Y1735831D01*
X1815197Y1750065D01*
X1815459Y1751378D01*
X1813922Y1759102D01*
X1809547Y1765649D01*
X1802999Y1770025D01*
X1795276Y1771561D01*
X1750000D01*
X1742276Y1770025D01*
X1735729Y1765649D01*
X1731353Y1759102D01*
X1729817Y1751378D01*
X1731353Y1743654D01*
X1735729Y1737106D01*
X1742276Y1732731D01*
X1750000Y1731195D01*
X1795276D01*
X1796589Y1731456D01*
X1802903Y1725142D01*
X1800440Y1720534D01*
X1795276Y1721561D01*
X1750000D01*
X1742276Y1720025D01*
X1735729Y1715649D01*
X1731353Y1709102D01*
X1730423Y1704426D01*
X1729475Y1703792D01*
X1046715Y1021032D01*
X859674D01*
X854639Y1020031D01*
X850370Y1017178D01*
X834454Y1001262D01*
X829835Y1003176D01*
Y1003513D01*
X828016Y1010300D01*
X824503Y1016385D01*
X819535Y1021353D01*
X813450Y1024867D01*
X806663Y1026685D01*
X799636D01*
X792850Y1024867D01*
X786765Y1021353D01*
X781796Y1016385D01*
X779933Y1013158D01*
X525591D01*
X520555Y1012157D01*
X516286Y1009304D01*
X464038Y957056D01*
X433181D01*
Y958772D01*
X356189D01*
Y931466D01*
X338583D01*
X333547Y930464D01*
X329279Y927611D01*
X160928Y759260D01*
X156678Y761714D01*
X144884Y764874D01*
X132675D01*
X120881Y761714D01*
X110308Y755609D01*
X101674Y746976D01*
X95570Y736402D01*
X92409Y724609D01*
Y712399D01*
X95570Y700606D01*
X101674Y690032D01*
X110308Y681399D01*
X120881Y675294D01*
X132675Y672134D01*
X144884D01*
X156678Y675294D01*
X167251Y681399D01*
X175885Y690032D01*
X179676Y696599D01*
X184676Y695259D01*
Y684584D01*
X160928Y660835D01*
X156678Y663289D01*
X144884Y666449D01*
X132675D01*
X120881Y663289D01*
X110308Y657184D01*
X101674Y648551D01*
X95570Y637977D01*
X92409Y626183D01*
Y613974D01*
X95570Y602181D01*
X101674Y591607D01*
X110308Y582973D01*
X120881Y576869D01*
X132675Y573709D01*
X144884D01*
X156678Y576869D01*
X167251Y582973D01*
X175885Y591607D01*
X181990Y602181D01*
X185150Y613974D01*
Y626183D01*
X181990Y637977D01*
X179536Y642227D01*
X207139Y669830D01*
X209991Y674098D01*
X210993Y679134D01*
Y722447D01*
X351570Y863023D01*
X356189Y861110D01*
Y826662D01*
Y801071D01*
X395383D01*
X396654Y800818D01*
X435495D01*
X457737Y778576D01*
X458754Y774780D01*
X462267Y768695D01*
X467236Y763727D01*
X473321Y760214D01*
X480108Y758395D01*
X487134D01*
X493921Y760214D01*
X500006Y763727D01*
X504974Y768695D01*
X508487Y774780D01*
X510306Y781567D01*
Y788593D01*
X508487Y795380D01*
X504974Y801465D01*
X503224Y803215D01*
X504047Y809464D01*
X504726Y809856D01*
X509694Y814824D01*
X513207Y820909D01*
X515026Y827696D01*
Y834722D01*
X514634Y836187D01*
X519116Y838775D01*
X532601Y825290D01*
Y783962D01*
X460588Y711948D01*
X457999Y712415D01*
X455588Y713782D01*
Y760663D01*
X454773Y764760D01*
X452452Y768233D01*
X448351Y772334D01*
X444878Y774655D01*
X440781Y775470D01*
X433181D01*
Y779638D01*
X356189D01*
Y756346D01*
X332397D01*
X325826Y755039D01*
X320255Y751316D01*
X308723Y739785D01*
X305001Y734214D01*
X303694Y727642D01*
Y586360D01*
X281165Y563831D01*
X265903Y548569D01*
X185150D01*
Y568024D01*
X92409D01*
Y475284D01*
X111864D01*
Y264874D01*
X92409D01*
Y172134D01*
X121634D01*
Y144757D01*
X122551Y137791D01*
X125240Y131300D01*
X129518Y125725D01*
X243913Y11330D01*
X241842Y6330D01*
X9282D01*
Y1503790D01*
X1384989Y2879497D01*
X5012371D01*
X5012371Y262942D01*
D02*
G37*
G36*
X434479Y376409D02*
X434479Y376408D01*
X473250Y337637D01*
Y251958D01*
X468250Y249887D01*
X462527Y255609D01*
X451953Y261714D01*
X440160Y264874D01*
X427951D01*
X423324Y268811D01*
Y381031D01*
X427943Y382944D01*
X434479Y376409D01*
D02*
G37*
G36*
X463386Y176121D02*
X459303Y172037D01*
X455065Y172534D01*
X456414Y177869D01*
X460316Y180122D01*
X463386Y176121D01*
D02*
G37*
%LPC*%
G36*
X811134Y829835D02*
X761701D01*
Y780402D01*
X811134D01*
Y784009D01*
X824693D01*
Y770559D01*
X878063D01*
Y823929D01*
X824693D01*
Y818354D01*
X811134D01*
Y829835D01*
D02*
G37*
G36*
X1739173Y777663D02*
X1693898D01*
X1686174Y776127D01*
X1679626Y771752D01*
X1675251Y765204D01*
X1673714Y757480D01*
X1675251Y749757D01*
X1679626Y743209D01*
X1686174Y738834D01*
X1693898Y737297D01*
X1739173D01*
X1746897Y738834D01*
X1753445Y743209D01*
X1757820Y749757D01*
X1759356Y757480D01*
X1757820Y765204D01*
X1753445Y771752D01*
X1746897Y776127D01*
X1739173Y777663D01*
D02*
G37*
G36*
X1023622Y863710D02*
X987205D01*
X985142Y863299D01*
X980205D01*
Y857262D01*
X980068Y856572D01*
X980068Y812996D01*
X953737Y786665D01*
X918307D01*
X917615Y786527D01*
X911307D01*
Y780217D01*
X911170Y779528D01*
Y739173D01*
X911307Y738484D01*
Y733157D01*
X914230D01*
X914245Y733142D01*
X916560Y731595D01*
X919291Y731052D01*
X956604D01*
X957040Y730615D01*
X963125Y727102D01*
X969912Y725284D01*
X976938D01*
X983725Y727102D01*
X989810Y730615D01*
X990247Y731052D01*
X1023622D01*
X1026353Y731595D01*
X1028669Y733142D01*
X1030216Y735458D01*
X1030759Y738189D01*
Y856572D01*
X1030216Y859304D01*
X1029638Y860169D01*
Y863299D01*
X1025685D01*
X1023622Y863710D01*
D02*
G37*
G36*
X1739173Y727663D02*
X1693898D01*
X1686174Y726127D01*
X1679626Y721752D01*
X1675251Y715204D01*
X1673714Y707480D01*
X1675251Y699757D01*
X1679626Y693209D01*
X1686174Y688834D01*
X1693898Y687297D01*
X1739173D01*
X1746897Y688834D01*
X1753445Y693209D01*
X1757820Y699757D01*
X1759356Y707480D01*
X1757820Y715204D01*
X1753445Y721752D01*
X1746897Y726127D01*
X1739173Y727663D01*
D02*
G37*
G36*
X849520Y571961D02*
X796150D01*
Y518591D01*
X803655D01*
Y502079D01*
X798118D01*
Y452646D01*
X847551D01*
Y458183D01*
X870953D01*
Y452646D01*
X920386D01*
Y502079D01*
X870953D01*
Y496542D01*
X847551D01*
Y502079D01*
X842014D01*
Y518591D01*
X849520D01*
Y571961D01*
D02*
G37*
G36*
X964143Y443024D02*
X957117D01*
X950330Y441205D01*
X944245Y437692D01*
X941048Y434495D01*
X920386D01*
Y443024D01*
X870953D01*
Y393591D01*
X920386D01*
Y400150D01*
X939163D01*
X939277Y399954D01*
X944245Y394985D01*
X950330Y391472D01*
X957117Y389654D01*
X964143D01*
X970930Y391472D01*
X977015Y394985D01*
X981983Y399954D01*
X985496Y406039D01*
X987315Y412825D01*
Y419852D01*
X985496Y426639D01*
X981983Y432724D01*
X977015Y437692D01*
X970930Y441205D01*
X964143Y443024D01*
D02*
G37*
G36*
X734917Y420386D02*
X723744D01*
X712952Y417494D01*
X703276Y411908D01*
X695376Y404007D01*
X689789Y394331D01*
X686898Y383539D01*
Y372366D01*
X689789Y361574D01*
X695376Y351898D01*
X703276Y343998D01*
X712952Y338411D01*
X723744Y335520D01*
X734917D01*
X745709Y338411D01*
X755385Y343998D01*
X763286Y351898D01*
X768872Y361574D01*
X771764Y372366D01*
Y383539D01*
X768872Y394331D01*
X763286Y404007D01*
X755385Y411908D01*
X745709Y417494D01*
X734917Y420386D01*
D02*
G37*
G36*
X561689D02*
X550516D01*
X539724Y417494D01*
X530048Y411908D01*
X522148Y404007D01*
X516561Y394331D01*
X513669Y383539D01*
Y372366D01*
X516561Y361574D01*
X522148Y351898D01*
X530048Y343998D01*
X539724Y338411D01*
X550516Y335520D01*
X561689D01*
X572481Y338411D01*
X582157Y343998D01*
X590057Y351898D01*
X595644Y361574D01*
X598535Y372366D01*
Y383539D01*
X595644Y394331D01*
X590057Y404007D01*
X582157Y411908D01*
X572481Y417494D01*
X561689Y420386D01*
D02*
G37*
G36*
X937992Y324159D02*
X931026Y323242D01*
X927932Y321961D01*
X913276D01*
Y307305D01*
X911994Y304210D01*
X911077Y297244D01*
Y248645D01*
X906006Y243574D01*
X900419Y233898D01*
X897528Y223106D01*
Y211933D01*
X900419Y201141D01*
X906006Y191465D01*
X913906Y183565D01*
X923582Y177978D01*
X934374Y175087D01*
X945547D01*
X956339Y177978D01*
X966015Y183565D01*
X973916Y191465D01*
X979502Y201141D01*
X982394Y211933D01*
Y223106D01*
X979502Y233898D01*
X973916Y243574D01*
X966015Y251475D01*
X964908Y252114D01*
Y297244D01*
X963990Y304210D01*
X962709Y307305D01*
Y321961D01*
X948053D01*
X944958Y323242D01*
X937992Y324159D01*
D02*
G37*
G36*
X847122Y259953D02*
X835949D01*
X825157Y257061D01*
X815481Y251475D01*
X807581Y243574D01*
X801994Y233898D01*
X799102Y223106D01*
Y211933D01*
X801994Y201141D01*
X807581Y191465D01*
X815481Y183565D01*
X825157Y177978D01*
X835949Y175087D01*
X847122D01*
X857914Y177978D01*
X867590Y183565D01*
X875490Y191465D01*
X881077Y201141D01*
X883968Y211933D01*
Y223106D01*
X881077Y233898D01*
X875490Y243574D01*
X867590Y251475D01*
X857914Y257061D01*
X847122Y259953D01*
D02*
G37*
%LPD*%
G36*
X1023622Y738189D02*
X919291D01*
X918307Y739173D01*
Y779528D01*
X956693D01*
X987205Y810039D01*
X987205Y856572D01*
X1023622D01*
Y738189D01*
D02*
G37*
%LPC*%
G36*
X3989774Y2811134D02*
X3976762D01*
X3964000Y2808595D01*
X3951979Y2803616D01*
X3949226Y2801776D01*
X3809633D01*
X3806879Y2803616D01*
X3794858Y2808595D01*
X3782097Y2811134D01*
X3769085D01*
X3756323Y2808595D01*
X3744302Y2803616D01*
X3741549Y2801776D01*
X3662979D01*
X3660226Y2803616D01*
X3648205Y2808595D01*
X3635443Y2811134D01*
X3622431D01*
X3609669Y2808595D01*
X3597648Y2803616D01*
X3594895Y2801776D01*
X3473018D01*
X3470265Y2803616D01*
X3458244Y2808595D01*
X3445482Y2811134D01*
X3432470D01*
X3419709Y2808595D01*
X3407688Y2803616D01*
X3399298Y2798010D01*
X3246234D01*
X3231559Y2796078D01*
X3230660Y2795705D01*
X3031496D01*
X3018547Y2794430D01*
X3006096Y2790653D01*
X2994620Y2784519D01*
X2984562Y2776265D01*
X2976308Y2766206D01*
X2970174Y2754731D01*
X2966397Y2742280D01*
X2965121Y2729331D01*
X2966397Y2716382D01*
X2970174Y2703930D01*
X2976308Y2692455D01*
X2984562Y2682397D01*
X2994620Y2674142D01*
X3006096Y2668008D01*
X3018547Y2664231D01*
X3031496Y2662956D01*
X3234252D01*
X3247201Y2664231D01*
X3259653Y2668008D01*
X3271128Y2674142D01*
X3281186Y2682397D01*
X3283006Y2684615D01*
X3412340D01*
X3419709Y2681562D01*
X3432470Y2679024D01*
X3445482D01*
X3458244Y2681562D01*
X3470265Y2686541D01*
X3473018Y2688381D01*
X3594895D01*
X3597648Y2686541D01*
X3609669Y2681562D01*
X3622431Y2679024D01*
X3635443D01*
X3648205Y2681562D01*
X3660226Y2686541D01*
X3662979Y2688381D01*
X3741549D01*
X3744302Y2686541D01*
X3756323Y2681562D01*
X3769085Y2679024D01*
X3782097D01*
X3794858Y2681562D01*
X3806879Y2686541D01*
X3809633Y2688381D01*
X3949226D01*
X3951979Y2686541D01*
X3964000Y2681562D01*
X3976762Y2679024D01*
X3989774D01*
X4002535Y2681562D01*
X4014557Y2686541D01*
X4025375Y2693770D01*
X4034576Y2702971D01*
X4041805Y2713790D01*
X4046784Y2725811D01*
X4049323Y2738573D01*
Y2751585D01*
X4046784Y2764346D01*
X4041805Y2776367D01*
X4034576Y2787186D01*
X4025375Y2796387D01*
X4014557Y2803616D01*
X4002535Y2808595D01*
X3989774Y2811134D01*
D02*
G37*
G36*
X3261811Y2582925D02*
X3260467Y2582657D01*
X3259136Y2582404D01*
X3259110Y2582387D01*
X3259080Y2582381D01*
X3257941Y2581620D01*
X3256807Y2580877D01*
X3256790Y2580851D01*
X3256764Y2580834D01*
X3256005Y2579698D01*
X3255241Y2578575D01*
X3255234Y2578544D01*
X3255217Y2578519D01*
X3254951Y2577180D01*
X3254674Y2575848D01*
X3254202Y2520241D01*
X1409449D01*
X1400573Y2518476D01*
X1393049Y2513448D01*
X857615Y1978015D01*
X852588Y1970490D01*
X850822Y1961614D01*
Y1904638D01*
X848315D01*
Y1855205D01*
X849838D01*
Y1841646D01*
X848315D01*
Y1810571D01*
X843696Y1808657D01*
X838693Y1813660D01*
Y1841646D01*
X789260D01*
Y1792213D01*
X817246D01*
X848315Y1761143D01*
Y1733158D01*
X897748D01*
Y1742709D01*
X930720D01*
X930720Y1742708D01*
X931507Y1742865D01*
X933458Y1738155D01*
X933128Y1737935D01*
X928318Y1730736D01*
X927784Y1728050D01*
X921746Y1722013D01*
X897748D01*
Y1723535D01*
X848315D01*
Y1674102D01*
X897748D01*
Y1675625D01*
X931353D01*
X940229Y1677391D01*
X947754Y1682418D01*
X964386Y1699050D01*
X969488D01*
X974533Y1700054D01*
X990157D01*
X998649Y1701743D01*
X1005848Y1706553D01*
X1010659Y1713752D01*
X1012348Y1722244D01*
X1010659Y1730736D01*
X1005848Y1737935D01*
X998649Y1742745D01*
X990157Y1744434D01*
X976325D01*
X975585Y1745054D01*
X977401Y1750054D01*
X990157D01*
X998649Y1751743D01*
X1005848Y1756553D01*
X1010659Y1763752D01*
X1012348Y1772244D01*
X1010659Y1780736D01*
X1005848Y1787935D01*
X998649Y1792745D01*
X990157Y1794434D01*
X977401D01*
X975585Y1799434D01*
X976325Y1800054D01*
X990157D01*
X998649Y1801743D01*
X1005848Y1806553D01*
X1010659Y1813752D01*
X1012348Y1822244D01*
X1010659Y1830736D01*
X1005848Y1837935D01*
X998649Y1842745D01*
X990157Y1844434D01*
X978234D01*
X976555Y1849434D01*
X977937Y1850480D01*
X1011921D01*
Y1894008D01*
X992682D01*
Y1915590D01*
X1008623Y1931531D01*
X1025480D01*
Y1930008D01*
X1074913D01*
Y1979441D01*
X1025480D01*
Y1977918D01*
X999016D01*
X990140Y1976153D01*
X982615Y1971125D01*
X953088Y1941597D01*
X948060Y1934073D01*
X946294Y1925197D01*
Y1894008D01*
X927055D01*
Y1850480D01*
X957493D01*
X957532Y1850438D01*
X955315Y1845438D01*
X896225D01*
Y1855205D01*
X897748D01*
Y1904638D01*
X897210D01*
Y1952007D01*
X1419056Y2473854D01*
X3250257D01*
X3253777Y2470303D01*
X3251889Y2248092D01*
X3251894Y2248062D01*
X3251888Y2248032D01*
X3252154Y2246694D01*
X3252409Y2245356D01*
X3252426Y2245331D01*
X3252432Y2245300D01*
X3253188Y2244168D01*
X3253936Y2243028D01*
X3253962Y2243010D01*
X3253979Y2242985D01*
X3255112Y2242227D01*
X3256238Y2241461D01*
X3256269Y2241455D01*
X3256294Y2241438D01*
X3257630Y2241172D01*
X3258965Y2240895D01*
X3258995Y2240901D01*
X3259026Y2240894D01*
X4527863Y2240894D01*
X4534155Y2238288D01*
X4546260Y2236694D01*
X4558365Y2238288D01*
X4564657Y2240894D01*
X4711614D01*
X4714345Y2241438D01*
X4716661Y2242985D01*
X4718208Y2245300D01*
X4718751Y2248031D01*
Y2574803D01*
X4718208Y2577534D01*
X4716661Y2579850D01*
X4714345Y2581397D01*
X4711614Y2581940D01*
X3265212Y2581940D01*
X3264598Y2582358D01*
X3264568Y2582364D01*
X3264542Y2582381D01*
X3263200Y2582648D01*
X3261872Y2582924D01*
X3261841Y2582918D01*
X3261811Y2582925D01*
D02*
G37*
G36*
X4204975Y2232839D02*
X3529528D01*
X3520652Y2231074D01*
X3513127Y2226046D01*
X3468423Y2181342D01*
X3465232Y2182197D01*
X3454059D01*
X3450869Y2181342D01*
X3412180Y2220030D01*
X3404655Y2225058D01*
X3395780Y2226824D01*
X3017606D01*
X3008730Y2225058D01*
X3001206Y2220030D01*
X2555354Y1774178D01*
X2479331D01*
X2477090Y1773732D01*
X2452646D01*
Y1773194D01*
X2437118D01*
Y1774716D01*
X2387685D01*
Y1725284D01*
X2437118D01*
Y1726806D01*
X2452646D01*
Y1724299D01*
X2502079D01*
Y1727791D01*
X2564961D01*
X2573836Y1729556D01*
X2581361Y1734584D01*
X3027213Y2180436D01*
X3227479D01*
X3229176Y2175436D01*
X3225787Y2172835D01*
X3225787Y2172835D01*
X3220866Y2167914D01*
X3217062Y2162957D01*
X3061024D01*
X3052148Y2161192D01*
X3044623Y2156164D01*
X2601613Y1713154D01*
X2502079D01*
Y1714677D01*
X2452646D01*
Y1713154D01*
X2423229D01*
X2414353Y1711389D01*
X2406828Y1706361D01*
X2404317Y1703850D01*
X2387685D01*
Y1654417D01*
X2437118D01*
Y1666767D01*
X2452646D01*
Y1665244D01*
X2502079D01*
Y1666767D01*
X2611220D01*
X2620096Y1668532D01*
X2627621Y1673560D01*
X3070631Y2116570D01*
X3207167D01*
Y1962598D01*
X3208760Y1950493D01*
X3213433Y1939213D01*
X3220866Y1929527D01*
X3304608Y1845785D01*
Y1675197D01*
Y1608245D01*
X3281417Y1585055D01*
X3281206Y1585075D01*
X2972441D01*
X2959492Y1583800D01*
X2947041Y1580023D01*
X2935565Y1573889D01*
X2925507Y1565635D01*
X2463648Y1103776D01*
X2157480D01*
X2154235Y1103457D01*
X2091425D01*
Y1040647D01*
X2091106Y1037402D01*
X2091425Y1034157D01*
Y971346D01*
X2154235D01*
X2157480Y971027D01*
X2491142D01*
X2504091Y972302D01*
X2516542Y976079D01*
X2528018Y982213D01*
X2538076Y990468D01*
X2999934Y1452326D01*
X3281206D01*
X3294155Y1453601D01*
X3303531Y1456446D01*
X3331693D01*
X3334424Y1456989D01*
X3336740Y1458536D01*
X3393826Y1515623D01*
X3395373Y1517938D01*
X3395917Y1520669D01*
Y1575227D01*
X3396555Y1576767D01*
X3398148Y1588872D01*
Y1675197D01*
Y1865158D01*
X3396555Y1877263D01*
X3391882Y1888543D01*
X3384450Y1898229D01*
X3300707Y1981971D01*
Y2119625D01*
X3304035Y2127659D01*
X3305628Y2139764D01*
X3304035Y2151869D01*
X3299363Y2163149D01*
X3291930Y2172835D01*
X3288540Y2175436D01*
X3290238Y2180436D01*
X3334832D01*
X3336172Y2175436D01*
X3333198Y2173719D01*
X3325297Y2165818D01*
X3319711Y2156142D01*
X3316819Y2145350D01*
Y2134177D01*
X3319711Y2123385D01*
X3325297Y2113709D01*
X3333198Y2105809D01*
X3342874Y2100222D01*
X3353666Y2097331D01*
X3364838D01*
X3375631Y2100222D01*
X3385307Y2105809D01*
X3393207Y2113709D01*
X3398793Y2123385D01*
X3401685Y2134177D01*
Y2145350D01*
X3398793Y2156142D01*
X3393207Y2165818D01*
X3386384Y2172641D01*
X3386896Y2176752D01*
X3387629Y2178151D01*
X3388282Y2178326D01*
X3418068Y2148541D01*
X3417213Y2145350D01*
Y2134177D01*
X3420104Y2123385D01*
X3425691Y2113709D01*
X3433591Y2105809D01*
X3443267Y2100222D01*
X3454059Y2097331D01*
X3465232D01*
X3476024Y2100222D01*
X3485700Y2105809D01*
X3493601Y2113709D01*
X3499187Y2123385D01*
X3502079Y2134177D01*
Y2145350D01*
X3501224Y2148541D01*
X3539135Y2186452D01*
X4056921D01*
X4057579Y2181452D01*
X4049566Y2179305D01*
X4039890Y2173719D01*
X4031990Y2165818D01*
X4026404Y2156142D01*
X4023512Y2145350D01*
Y2134177D01*
X4026404Y2123385D01*
X4031990Y2113709D01*
X4039890Y2105809D01*
X4049566Y2100222D01*
X4060358Y2097331D01*
X4071531D01*
X4082323Y2100222D01*
X4091999Y2105809D01*
X4099900Y2113709D01*
X4105486Y2123385D01*
X4108378Y2134177D01*
Y2145350D01*
X4105486Y2156142D01*
X4099900Y2165818D01*
X4091999Y2173719D01*
X4082323Y2179305D01*
X4074311Y2181452D01*
X4074969Y2186452D01*
X4157314D01*
X4157972Y2181452D01*
X4149960Y2179305D01*
X4140284Y2173719D01*
X4132384Y2165818D01*
X4126797Y2156142D01*
X4123906Y2145350D01*
Y2134177D01*
X4126797Y2123385D01*
X4132384Y2113709D01*
X4140284Y2105809D01*
X4149960Y2100222D01*
X4160752Y2097331D01*
X4171925D01*
X4182717Y2100222D01*
X4192393Y2105809D01*
X4200293Y2113709D01*
X4205880Y2123385D01*
X4208772Y2134177D01*
Y2145350D01*
X4205880Y2156142D01*
X4200293Y2165818D01*
X4192393Y2173719D01*
X4182717Y2179305D01*
X4174705Y2181452D01*
X4175363Y2186452D01*
X4195368D01*
X4226871Y2154949D01*
X4224299Y2145350D01*
Y2134177D01*
X4227191Y2123385D01*
X4232777Y2113709D01*
X4240678Y2105809D01*
X4250354Y2100222D01*
X4261146Y2097331D01*
X4272319D01*
X4283111Y2100222D01*
X4292787Y2105809D01*
X4300687Y2113709D01*
X4306274Y2123385D01*
X4309165Y2134177D01*
Y2145350D01*
X4306274Y2156142D01*
X4300687Y2165818D01*
X4292787Y2173719D01*
X4283111Y2179305D01*
X4272319Y2182197D01*
X4265225D01*
X4221376Y2226046D01*
X4213851Y2231074D01*
X4204975Y2232839D01*
D02*
G37*
G36*
X1721457Y2189224D02*
X1619094D01*
X1616363Y2188680D01*
X1615498Y2188102D01*
X1612095D01*
Y2182776D01*
X1611957Y2182087D01*
Y2107284D01*
X1612501Y2104552D01*
X1614048Y2102237D01*
X1643591Y2072694D01*
Y2067803D01*
X1650886D01*
X1651575Y2067666D01*
X1691929D01*
X1692618Y2067803D01*
X1696961D01*
Y2069746D01*
X1696976Y2069756D01*
X1698523Y2072072D01*
X1699066Y2074803D01*
Y2111217D01*
X1725362Y2137513D01*
X1727768D01*
Y2139918D01*
X1728472Y2140623D01*
X1730019Y2142938D01*
X1730562Y2145669D01*
Y2180118D01*
X1730019Y2182849D01*
X1728472Y2185165D01*
X1726503Y2187133D01*
X1724188Y2188680D01*
X1721457Y2189224D01*
D02*
G37*
G36*
X2578356Y2060150D02*
X2565345D01*
X2552583Y2057611D01*
X2540562Y2052632D01*
X2529743Y2045403D01*
X2520542Y2036202D01*
X2513313Y2025383D01*
X2508334Y2013362D01*
X2505795Y2000600D01*
Y1987589D01*
X2508334Y1974827D01*
X2513313Y1962806D01*
X2520542Y1951987D01*
X2529743Y1942786D01*
X2540562Y1935557D01*
X2552583Y1930578D01*
X2565345Y1928039D01*
X2578356D01*
X2591118Y1930578D01*
X2603139Y1935557D01*
X2613958Y1942786D01*
X2623159Y1951987D01*
X2630388Y1962806D01*
X2635367Y1974827D01*
X2637905Y1987589D01*
Y2000600D01*
X2635367Y2013362D01*
X2630388Y2025383D01*
X2623159Y2036202D01*
X2613958Y2045403D01*
X2603139Y2052632D01*
X2591118Y2057611D01*
X2578356Y2060150D01*
D02*
G37*
G36*
X4889380Y2056213D02*
X4876368D01*
X4863606Y2053674D01*
X4851585Y2048695D01*
X4840766Y2041466D01*
X4831566Y2032265D01*
X4824337Y2021446D01*
X4819358Y2009425D01*
X4816819Y1996663D01*
Y1983652D01*
X4819358Y1970890D01*
X4824337Y1958869D01*
X4831566Y1948050D01*
X4840766Y1938849D01*
X4851585Y1931620D01*
X4863606Y1926641D01*
X4876368Y1924102D01*
X4889380D01*
X4902142Y1926641D01*
X4914163Y1931620D01*
X4924982Y1938849D01*
X4934182Y1948050D01*
X4941411Y1958869D01*
X4946391Y1970890D01*
X4948929Y1983652D01*
Y1996663D01*
X4946391Y2009425D01*
X4941411Y2021446D01*
X4934182Y2032265D01*
X4924982Y2041466D01*
X4914163Y2048695D01*
X4902142Y2053674D01*
X4889380Y2056213D01*
D02*
G37*
G36*
X1283465Y2119342D02*
X1172244Y2119342D01*
X1169513Y2118798D01*
X1167197Y2117251D01*
X1107143Y2057197D01*
X1104220D01*
Y2054274D01*
X1086489Y2036543D01*
X1084942Y2034227D01*
X1084398Y2031496D01*
Y1971457D01*
Y1927165D01*
X1084942Y1924434D01*
X1086489Y1922119D01*
X1157355Y1851253D01*
X1159670Y1849705D01*
X1162402Y1849162D01*
X1238189D01*
X1240920Y1849705D01*
X1243236Y1851253D01*
X1244783Y1853568D01*
X1245326Y1856299D01*
Y1906493D01*
X1286558Y1947725D01*
X1289480D01*
Y1951128D01*
X1290058Y1951993D01*
X1290602Y1954724D01*
Y2112205D01*
X1290058Y2114936D01*
X1289480Y2115801D01*
Y2119205D01*
X1284154D01*
X1283465Y2119342D01*
D02*
G37*
G36*
X2218614Y1934165D02*
X2145559D01*
Y1883430D01*
X2105315D01*
X2096439Y1881664D01*
X2088915Y1876637D01*
X2034684Y1822406D01*
X1948583D01*
X1931658Y1839332D01*
Y1875984D01*
X1929893Y1884860D01*
X1929244Y1885831D01*
Y1899716D01*
X1887685D01*
Y1885831D01*
X1887036Y1884860D01*
X1885271Y1875984D01*
Y1829724D01*
X1887036Y1820849D01*
X1892064Y1813324D01*
X1922576Y1782812D01*
X1930101Y1777784D01*
X1938976Y1776019D01*
X1967255D01*
X1967747Y1771019D01*
X1962749Y1770025D01*
X1956201Y1765649D01*
X1951826Y1759102D01*
X1950290Y1751378D01*
X1951826Y1743654D01*
X1956201Y1737106D01*
X1962749Y1732731D01*
X1970473Y1731195D01*
X1979929D01*
X1982316Y1727517D01*
X1980428Y1724572D01*
X1968504D01*
X1959628Y1722806D01*
X1952104Y1717778D01*
X1947076Y1710254D01*
X1945310Y1701378D01*
X1947076Y1692502D01*
X1952104Y1684977D01*
X1959628Y1679950D01*
X1968504Y1678184D01*
X1981988D01*
X1983763Y1673184D01*
X1981765Y1671561D01*
X1970473D01*
X1962749Y1670025D01*
X1956201Y1665649D01*
X1951826Y1659102D01*
X1950290Y1651378D01*
X1951826Y1643654D01*
X1956201Y1637106D01*
X1962749Y1632731D01*
X1970473Y1631195D01*
X1982371D01*
X1984235Y1629950D01*
X1993110Y1628184D01*
X2006338D01*
X2099741Y1534781D01*
X2107266Y1529753D01*
X2116142Y1527987D01*
X2292323D01*
X2301199Y1529753D01*
X2308723Y1534781D01*
X2361431Y1587488D01*
X2378063D01*
Y1636921D01*
X2328630D01*
Y1620289D01*
X2282716Y1574375D01*
X2125749D01*
X2032345Y1667778D01*
X2024821Y1672806D01*
X2022920Y1673184D01*
X2023413Y1678184D01*
X2145559D01*
Y1581583D01*
X2218614D01*
Y1679562D01*
X2296850D01*
X2311711Y1664702D01*
X2319235Y1659674D01*
X2328111Y1657909D01*
X2328630D01*
Y1654417D01*
X2378063D01*
Y1703850D01*
X2353619D01*
X2351378Y1704296D01*
X2337718D01*
X2322858Y1719156D01*
X2317861Y1722495D01*
X2319378Y1727495D01*
X2328630D01*
Y1725284D01*
X2378063D01*
Y1774716D01*
X2328630D01*
Y1773883D01*
X2056328D01*
X2054811Y1778883D01*
X2060692Y1782812D01*
X2114922Y1837043D01*
X2145559D01*
Y1786307D01*
X2218614D01*
Y1934165D01*
D02*
G37*
G36*
X1301291Y1796370D02*
X1251858D01*
Y1795438D01*
X1163386D01*
X1154510Y1793672D01*
X1146986Y1788645D01*
X1141958Y1781120D01*
X1140192Y1772244D01*
X1141958Y1763368D01*
X1146986Y1755844D01*
X1154510Y1750816D01*
X1163386Y1749050D01*
X1166869D01*
X1167361Y1744050D01*
X1160800Y1742745D01*
X1153601Y1737935D01*
X1148790Y1730736D01*
X1147101Y1722244D01*
X1148790Y1713752D01*
X1153601Y1706553D01*
X1160800Y1701743D01*
X1169291Y1700054D01*
X1209523D01*
X1209824Y1699604D01*
X1242116Y1667312D01*
X1242116Y1667312D01*
X1245734Y1664894D01*
X1250001Y1664045D01*
X1251858Y1659731D01*
Y1620953D01*
X1260387D01*
Y1609362D01*
X1253827D01*
Y1559929D01*
X1303260D01*
Y1609362D01*
X1294732D01*
Y1620953D01*
X1301291D01*
Y1664046D01*
X1310039D01*
X1310039Y1664045D01*
X1314307Y1664894D01*
X1317925Y1667312D01*
X1330621Y1680008D01*
X1364283D01*
Y1729441D01*
X1362761D01*
Y1743000D01*
X1364283D01*
Y1792433D01*
X1314850D01*
Y1743000D01*
X1316373D01*
Y1729441D01*
X1314850D01*
Y1695778D01*
X1306291Y1687219D01*
X1301291Y1688451D01*
Y1729441D01*
X1299769D01*
Y1746937D01*
X1301291D01*
Y1796370D01*
D02*
G37*
G36*
X4164051Y1717630D02*
X4152878D01*
X4142086Y1714738D01*
X4132410Y1709152D01*
X4124510Y1701251D01*
X4118923Y1691575D01*
X4116032Y1680783D01*
Y1669611D01*
X4118923Y1658818D01*
X4124510Y1649142D01*
X4132410Y1641242D01*
X4142086Y1635656D01*
X4152878Y1632764D01*
X4164051D01*
X4174843Y1635656D01*
X4184519Y1641242D01*
X4192419Y1649142D01*
X4198006Y1658818D01*
X4200898Y1669611D01*
Y1680783D01*
X4198006Y1691575D01*
X4192419Y1701251D01*
X4184519Y1709152D01*
X4174843Y1714738D01*
X4164051Y1717630D01*
D02*
G37*
G36*
X4063657D02*
X4052485D01*
X4041692Y1714738D01*
X4032016Y1709152D01*
X4024116Y1701251D01*
X4018530Y1691575D01*
X4015638Y1680783D01*
Y1669611D01*
X4018530Y1658818D01*
X4024116Y1649142D01*
X4032016Y1641242D01*
X4041692Y1635656D01*
X4052485Y1632764D01*
X4063657D01*
X4074449Y1635656D01*
X4084125Y1641242D01*
X4092026Y1649142D01*
X4097612Y1658818D01*
X4100504Y1669611D01*
Y1680783D01*
X4097612Y1691575D01*
X4092026Y1701251D01*
X4084125Y1709152D01*
X4074449Y1714738D01*
X4063657Y1717630D01*
D02*
G37*
G36*
X2437118Y1636921D02*
X2387685D01*
Y1587488D01*
X2400266D01*
Y1521422D01*
X2395032Y1518401D01*
X2390064Y1513432D01*
X2386551Y1507347D01*
X2384732Y1500561D01*
Y1493534D01*
X2386551Y1486747D01*
X2390064Y1480662D01*
X2395032Y1475694D01*
X2401117Y1472181D01*
X2407904Y1470362D01*
X2414931D01*
X2421717Y1472181D01*
X2427802Y1475694D01*
X2432771Y1480662D01*
X2436284Y1486747D01*
X2438102Y1493534D01*
Y1500561D01*
X2436284Y1507347D01*
X2432771Y1513432D01*
X2427802Y1518401D01*
X2422569Y1521422D01*
Y1587488D01*
X2437118D01*
Y1636921D01*
D02*
G37*
G36*
X4885443Y1595583D02*
X4872431D01*
X4859669Y1593044D01*
X4847648Y1588065D01*
X4836829Y1580836D01*
X4827629Y1571635D01*
X4820400Y1560816D01*
X4815420Y1548795D01*
X4812882Y1536034D01*
Y1523022D01*
X4815420Y1510260D01*
X4820400Y1498239D01*
X4827629Y1487420D01*
X4836829Y1478219D01*
X4847648Y1470990D01*
X4859669Y1466011D01*
X4872431Y1463473D01*
X4885443D01*
X4898205Y1466011D01*
X4910226Y1470990D01*
X4921045Y1478219D01*
X4930245Y1487420D01*
X4937474Y1498239D01*
X4942454Y1510260D01*
X4944992Y1523022D01*
Y1536034D01*
X4942454Y1548795D01*
X4937474Y1560816D01*
X4930245Y1571635D01*
X4921045Y1580836D01*
X4910226Y1588065D01*
X4898205Y1593044D01*
X4885443Y1595583D01*
D02*
G37*
G36*
X2562608Y1591646D02*
X2549597D01*
X2536835Y1589107D01*
X2524814Y1584128D01*
X2513995Y1576899D01*
X2504794Y1567698D01*
X2497565Y1556879D01*
X2492586Y1544858D01*
X2490047Y1532097D01*
Y1519085D01*
X2492586Y1506323D01*
X2497565Y1494302D01*
X2504794Y1483483D01*
X2513995Y1474282D01*
X2524814Y1467053D01*
X2536835Y1462074D01*
X2549597Y1459535D01*
X2562608D01*
X2575370Y1462074D01*
X2587391Y1467053D01*
X2598210Y1474282D01*
X2607411Y1483483D01*
X2614640Y1494302D01*
X2619619Y1506323D01*
X2622157Y1519085D01*
Y1532097D01*
X2619619Y1544858D01*
X2614640Y1556879D01*
X2607411Y1567698D01*
X2598210Y1576899D01*
X2587391Y1584128D01*
X2575370Y1589107D01*
X2562608Y1591646D01*
D02*
G37*
G36*
X3250984Y1721967D02*
X2888780D01*
X2876675Y1720373D01*
X2865394Y1715701D01*
X2855708Y1708268D01*
X2479643Y1332203D01*
X1646574D01*
X1646386Y1332312D01*
X1633592Y1335740D01*
X1620345D01*
X1607551Y1332312D01*
X1596079Y1325689D01*
X1586713Y1316322D01*
X1580090Y1304851D01*
X1576661Y1292056D01*
Y1278810D01*
X1580090Y1266015D01*
X1586713Y1254544D01*
X1596079Y1245177D01*
X1607551Y1238554D01*
X1620345Y1235126D01*
X1633592D01*
X1646386Y1238554D01*
X1646574Y1238663D01*
X2499016D01*
X2511121Y1240256D01*
X2522401Y1244929D01*
X2532087Y1252362D01*
X2908153Y1628427D01*
X3250984D01*
X3263089Y1630020D01*
X3274369Y1634693D01*
X3284056Y1642125D01*
X3291488Y1651812D01*
X3296161Y1663092D01*
X3297755Y1675197D01*
X3296161Y1687302D01*
X3291488Y1698582D01*
X3284056Y1708268D01*
X3274369Y1715701D01*
X3263089Y1720373D01*
X3250984Y1721967D01*
D02*
G37*
G36*
X4546260Y2130235D02*
X4534155Y2128641D01*
X4522875Y2123969D01*
X4513188Y2116536D01*
X4505756Y2106850D01*
X4501083Y2095570D01*
X4499490Y2083465D01*
Y1536417D01*
X4501083Y1524312D01*
X4505756Y1513032D01*
X4513188Y1503346D01*
X4673621Y1342913D01*
X4683308Y1335480D01*
X4694588Y1330808D01*
X4706693Y1329214D01*
X4825677D01*
Y1324693D01*
X4918417D01*
Y1417433D01*
X4888231D01*
X4879231Y1421161D01*
X4867126Y1422755D01*
X4726066D01*
X4593030Y1555790D01*
Y2083465D01*
X4591436Y2095570D01*
X4586764Y2106850D01*
X4579331Y2116536D01*
X4569645Y2123969D01*
X4558365Y2128641D01*
X4546260Y2130235D01*
D02*
G37*
G36*
X3399717Y1075898D02*
X3267606D01*
Y943787D01*
X3399717D01*
Y1075898D01*
D02*
G37*
G36*
X2381506Y956803D02*
X2368494D01*
X2355733Y954265D01*
X2343711Y949285D01*
X2332892Y942056D01*
X2323692Y932856D01*
X2316463Y922037D01*
X2311483Y910016D01*
X2308945Y897254D01*
Y884242D01*
X2311483Y871480D01*
X2316463Y859459D01*
X2323692Y848640D01*
X2332892Y839440D01*
X2343711Y832211D01*
X2355733Y827231D01*
X2368494Y824693D01*
X2381506D01*
X2394268Y827231D01*
X2406289Y832211D01*
X2417108Y839440D01*
X2426308Y848640D01*
X2433537Y859459D01*
X2438517Y871480D01*
X2441055Y884242D01*
Y897254D01*
X2438517Y910016D01*
X2433537Y922037D01*
X2426308Y932856D01*
X2417108Y942056D01*
X2406289Y949285D01*
X2394268Y954265D01*
X2381506Y956803D01*
D02*
G37*
G36*
X2223535D02*
X2091425D01*
Y824693D01*
X2223535D01*
Y956803D01*
D02*
G37*
G36*
X3705325Y929244D02*
X3692313D01*
X3679551Y926706D01*
X3667530Y921726D01*
X3656711Y914497D01*
X3647511Y905297D01*
X3640282Y894478D01*
X3635302Y882457D01*
X3632764Y869695D01*
Y856683D01*
X3635302Y843921D01*
X3640282Y831900D01*
X3647511Y821081D01*
X3656711Y811881D01*
X3667530Y804652D01*
X3679551Y799672D01*
X3692313Y797134D01*
X3705325D01*
X3718087Y799672D01*
X3730108Y804652D01*
X3740927Y811881D01*
X3750127Y821081D01*
X3757356Y831900D01*
X3762336Y843921D01*
X3764874Y856683D01*
Y869695D01*
X3762336Y882457D01*
X3757356Y894478D01*
X3750127Y905297D01*
X3740927Y914497D01*
X3730108Y921726D01*
X3718087Y926706D01*
X3705325Y929244D01*
D02*
G37*
G36*
X3557687D02*
X3544675D01*
X3531914Y926706D01*
X3519892Y921726D01*
X3509073Y914497D01*
X3499873Y905297D01*
X3492644Y894478D01*
X3487665Y882457D01*
X3485126Y869695D01*
Y856683D01*
X3487665Y843921D01*
X3492644Y831900D01*
X3499873Y821081D01*
X3509073Y811881D01*
X3519892Y804652D01*
X3531914Y799672D01*
X3544675Y797134D01*
X3557687D01*
X3570449Y799672D01*
X3582470Y804652D01*
X3593289Y811881D01*
X3602490Y821081D01*
X3609718Y831900D01*
X3614698Y843921D01*
X3617236Y856683D01*
Y869695D01*
X3614698Y882457D01*
X3609718Y894478D01*
X3602490Y905297D01*
X3593289Y914497D01*
X3582470Y921726D01*
X3570449Y926706D01*
X3557687Y929244D01*
D02*
G37*
G36*
X3399717D02*
X3267606D01*
Y797134D01*
X3399717D01*
Y929244D01*
D02*
G37*
G36*
X3926181Y1060476D02*
X3909638Y1059174D01*
X3893502Y1055300D01*
X3878171Y1048949D01*
X3864022Y1040279D01*
X3851404Y1029502D01*
X3840627Y1016883D01*
X3831956Y1002734D01*
X3825606Y987403D01*
X3821732Y971268D01*
X3820430Y954724D01*
Y890903D01*
X3821732Y874360D01*
X3825606Y858224D01*
X3831956Y842893D01*
X3840627Y828744D01*
X3851404Y816125D01*
X3966716Y700813D01*
X3970761Y697359D01*
X3970957Y692362D01*
X3780015Y501421D01*
X3501969D01*
X3485425Y500118D01*
X3469290Y496245D01*
X3453959Y489894D01*
X3439810Y481224D01*
X3427191Y470447D01*
X3416414Y457828D01*
X3407744Y443679D01*
X3401393Y428348D01*
X3397519Y412212D01*
X3396217Y395669D01*
X3397519Y379126D01*
X3401393Y362990D01*
X3407744Y347659D01*
X3416414Y333510D01*
X3427191Y320892D01*
X3439810Y310115D01*
X3453959Y301444D01*
X3469290Y295094D01*
X3485425Y291220D01*
X3501969Y289918D01*
X3823819D01*
X3840362Y291220D01*
X3856498Y295094D01*
X3871829Y301444D01*
X3885978Y310115D01*
X3898596Y320892D01*
X4094001Y516296D01*
X4398622D01*
X4415165Y517598D01*
X4422828Y519438D01*
X4643701D01*
X4646432Y519981D01*
X4648748Y521528D01*
X4654653Y527434D01*
X4656200Y529749D01*
X4656743Y532480D01*
Y564517D01*
X4874986D01*
X4882153Y557350D01*
X4893895Y548339D01*
X4903197Y544487D01*
Y542402D01*
X4909649D01*
X4922244Y540743D01*
X4934840Y542402D01*
X4947197D01*
Y546933D01*
X4950593Y548339D01*
X4962336Y557350D01*
X4971346Y569092D01*
X4977010Y582767D01*
X4978942Y597441D01*
X4977010Y612115D01*
X4971346Y625790D01*
X4962336Y637532D01*
X4938562Y661306D01*
X4926820Y670316D01*
X4913145Y675980D01*
X4898471Y677912D01*
X4656743D01*
Y869095D01*
X4656200Y871826D01*
X4654653Y874141D01*
X4644810Y883984D01*
X4642495Y885531D01*
X4639764Y886074D01*
X4311024D01*
X4308292Y885531D01*
X4305977Y883984D01*
X4303335Y881342D01*
X4085297D01*
X4031932Y934707D01*
Y954724D01*
X4030630Y971268D01*
X4026757Y987403D01*
X4020406Y1002734D01*
X4011736Y1016883D01*
X4000959Y1029502D01*
X3988340Y1040279D01*
X3974191Y1048949D01*
X3958860Y1055300D01*
X3942724Y1059174D01*
X3926181Y1060476D01*
D02*
G37*
G36*
X4925133Y533095D02*
X4919132Y531902D01*
X4903133D01*
Y515903D01*
X4901939Y509902D01*
X4902003Y509580D01*
Y452756D01*
X4902449Y450515D01*
Y426071D01*
X4951882D01*
Y475504D01*
X4948391D01*
Y509838D01*
X4947133Y516161D01*
Y531902D01*
X4931134D01*
X4925133Y533095D01*
D02*
G37*
G36*
X4937008Y416849D02*
X4933970Y416449D01*
X4902449D01*
Y401663D01*
X4831021Y330235D01*
X4580307D01*
X4575769Y334773D01*
X4564950Y342002D01*
X4552929Y346981D01*
X4540167Y349520D01*
X4527156D01*
X4514394Y346981D01*
X4502373Y342002D01*
X4491554Y334773D01*
X4487016Y330235D01*
X4445268D01*
X4440730Y334773D01*
X4429911Y342002D01*
X4417890Y346981D01*
X4405128Y349520D01*
X4392116D01*
X4379355Y346981D01*
X4367333Y342002D01*
X4356514Y334773D01*
X4347314Y325572D01*
X4340085Y314753D01*
X4335105Y302732D01*
X4332567Y289971D01*
Y276959D01*
X4335105Y264197D01*
X4340085Y252176D01*
X4347314Y241357D01*
X4356514Y232156D01*
X4367333Y224927D01*
X4379355Y219948D01*
X4392116Y217410D01*
X4405128D01*
X4417890Y219948D01*
X4429911Y224927D01*
X4440730Y232156D01*
X4445268Y236695D01*
X4487016D01*
X4491554Y232156D01*
X4502373Y224927D01*
X4514394Y219948D01*
X4527156Y217410D01*
X4540167D01*
X4552929Y219948D01*
X4564950Y224927D01*
X4575769Y232156D01*
X4580307Y236694D01*
X4850394D01*
X4862499Y238288D01*
X4873779Y242960D01*
X4883465Y250393D01*
X4970079Y337007D01*
X4977512Y346694D01*
X4982184Y357974D01*
X4983778Y370079D01*
X4982184Y382184D01*
X4977512Y393464D01*
X4970079Y403150D01*
X4960393Y410583D01*
X4951882Y414108D01*
Y416449D01*
X4940046D01*
X4937008Y416849D01*
D02*
G37*
%LPD*%
G36*
X3262795Y2574803D02*
X4711614Y2574803D01*
Y2248031D01*
X3259026Y2248032D01*
X3261811Y2575787D01*
X3262795Y2574803D01*
D02*
G37*
G36*
X946889Y1794050D02*
X940327Y1792745D01*
X933128Y1787935D01*
X928318Y1780736D01*
X927370Y1775971D01*
X924438Y1773039D01*
X897748D01*
Y1782591D01*
X869762D01*
X864759Y1787593D01*
X866673Y1792213D01*
X897748D01*
Y1799050D01*
X946396D01*
X946889Y1794050D01*
D02*
G37*
G36*
X3388780Y1682733D02*
Y1684055D01*
X3389764Y1685039D01*
X3388780Y1682733D01*
D02*
G37*
G36*
Y1520669D02*
X3331693Y1463583D01*
X3295276D01*
X3388780Y1682733D01*
Y1520669D01*
D02*
G37*
G36*
X1723425Y2180118D02*
Y2145669D01*
X1691929Y2114173D01*
Y2074803D01*
X1651575D01*
X1619094Y2107284D01*
Y2182087D01*
X1721457D01*
X1723425Y2180118D01*
D02*
G37*
G36*
X1283465Y1954724D02*
X1238189Y1909449D01*
Y1856299D01*
X1162402D01*
X1091535Y1927165D01*
Y1971457D01*
Y2031496D01*
X1172244Y2112204D01*
X1283465Y2112205D01*
Y1954724D01*
D02*
G37*
G36*
X1251858Y1746937D02*
X1253382D01*
Y1729441D01*
X1251858D01*
Y1695643D01*
X1247239Y1693729D01*
X1229563Y1711406D01*
X1231131Y1713752D01*
X1232820Y1722244D01*
X1231131Y1730736D01*
X1226321Y1737935D01*
X1219122Y1742745D01*
X1212560Y1744050D01*
X1213052Y1749050D01*
X1251858D01*
Y1746937D01*
D02*
G37*
G36*
X4649606Y869095D02*
Y532480D01*
X4643701Y526575D01*
X4304134D01*
X4282480Y557087D01*
Y850394D01*
X4311024Y878937D01*
X4639764D01*
X4649606Y869095D01*
D02*
G37*
D10*
X4925133Y509902D02*
D03*
X4925197Y564402D02*
D03*
D11*
X4927166Y391732D02*
D03*
Y450788D02*
D03*
X1417323Y745079D02*
D03*
Y686024D02*
D03*
Y812008D02*
D03*
Y871063D02*
D03*
X1354331D02*
D03*
Y812008D02*
D03*
X2477362Y1689961D02*
D03*
Y1749016D02*
D03*
X1642717Y1956693D02*
D03*
Y1897638D02*
D03*
X1276575Y1704724D02*
D03*
Y1645669D02*
D03*
Y1771653D02*
D03*
Y1830709D02*
D03*
X1339567Y1704725D02*
D03*
Y1645669D02*
D03*
Y1767716D02*
D03*
Y1826772D02*
D03*
X1004921Y897638D02*
D03*
Y838583D02*
D03*
X822835Y477362D02*
D03*
Y418307D02*
D03*
X895669Y477362D02*
D03*
Y418307D02*
D03*
X937992Y297244D02*
D03*
Y356299D02*
D03*
X386811Y515748D02*
D03*
Y574803D02*
D03*
D12*
X1706693Y932087D02*
D03*
X1765748D02*
D03*
X1706693Y999016D02*
D03*
X1765748D02*
D03*
X1584645Y932087D02*
D03*
X1643701D02*
D03*
X2353347Y1612205D02*
D03*
X2412402D02*
D03*
X2353347Y1679134D02*
D03*
X2412402D02*
D03*
X2353347Y1750000D02*
D03*
X2412402D02*
D03*
X1703740Y1899606D02*
D03*
X1762795D02*
D03*
X1636811Y2163386D02*
D03*
X1577756D02*
D03*
X1278543Y1584646D02*
D03*
X1337599D02*
D03*
X1050197Y1954724D02*
D03*
X1109252D02*
D03*
X873032Y1698819D02*
D03*
X813976D02*
D03*
X873032Y1757874D02*
D03*
X813976D02*
D03*
X813976Y1816929D02*
D03*
X873032D02*
D03*
X873032Y1879921D02*
D03*
X813976D02*
D03*
X727362Y805118D02*
D03*
X786418D02*
D03*
X727362Y868110D02*
D03*
X786418D02*
D03*
D13*
X1716535Y707480D02*
D03*
Y757480D02*
D03*
Y807480D02*
D03*
Y857480D02*
D03*
X1496063Y757480D02*
D03*
Y807480D02*
D03*
Y707480D02*
D03*
X1772638Y1751378D02*
D03*
Y1701378D02*
D03*
X1993110Y1801378D02*
D03*
Y1751378D02*
D03*
Y1701378D02*
D03*
Y1651378D02*
D03*
X1772638D02*
D03*
D14*
X1496063Y857480D02*
D03*
X1772638Y1801378D02*
D03*
D15*
X1705768Y1954788D02*
D03*
X1760268Y1954724D02*
D03*
X1705768Y2159513D02*
D03*
X1760268Y2159449D02*
D03*
D16*
X1908465Y1875984D02*
D03*
X1817913D02*
D03*
X1125000Y2033465D02*
D03*
X1034449D02*
D03*
D17*
X1670276Y2094488D02*
D03*
Y2019685D02*
D03*
X1756890Y2057086D02*
D03*
X851378Y797244D02*
D03*
X937992Y759842D02*
D03*
X851378Y722441D02*
D03*
D18*
X1520669Y1624016D02*
D03*
Y1828740D02*
D03*
X2182087Y1860236D02*
D03*
Y1655512D02*
D03*
D19*
X969488Y1872244D02*
D03*
D20*
Y1772244D02*
D03*
Y1722244D02*
D03*
X1189961Y1872244D02*
D03*
Y1772244D02*
D03*
Y1722244D02*
D03*
X969488Y1822244D02*
D03*
X1189961D02*
D03*
D21*
X1079724Y1797244D02*
D03*
D22*
X860237Y631890D02*
D03*
X822835Y545276D02*
D03*
X897638D02*
D03*
X928150Y868110D02*
D03*
X890749Y954724D02*
D03*
X853347Y868110D02*
D03*
D23*
X382874Y454725D02*
D03*
X445866D02*
D03*
D24*
X394685Y841536D02*
D03*
Y815945D02*
D03*
Y739173D02*
D03*
Y713583D02*
D03*
Y764764D02*
D03*
Y867126D02*
D03*
Y892717D02*
D03*
Y918307D02*
D03*
Y943898D02*
D03*
X623032Y713583D02*
D03*
Y739173D02*
D03*
Y764764D02*
D03*
Y790355D02*
D03*
Y815945D02*
D03*
Y841536D02*
D03*
Y867126D02*
D03*
Y892717D02*
D03*
Y918307D02*
D03*
Y943898D02*
D03*
X394685Y790355D02*
D03*
D25*
X1474409Y2033465D02*
D03*
X1236220D02*
D03*
D26*
X469488Y943898D02*
X525591Y1000000D01*
X486856Y829724D02*
X488341Y831209D01*
X481623Y783083D02*
X483621Y785080D01*
X440945Y813976D02*
X471839Y783083D01*
X447267Y841536D02*
X459078Y829724D01*
X471839Y783083D02*
X481623D01*
X396654Y813976D02*
X440945D01*
X394685Y841536D02*
X447267D01*
X459078Y829724D02*
X486856D01*
X394685Y943898D02*
X469488D01*
X525591Y1000000D02*
X803150D01*
X394685Y815945D02*
X396654Y813976D01*
X392717Y890748D02*
X394685Y892717D01*
X197835Y727897D02*
X360686Y890748D01*
X392717D01*
X138780Y620079D02*
X197835Y679134D01*
Y727897D01*
X1091535Y802136D02*
X1098454Y809055D01*
X1091535Y733268D02*
Y802136D01*
X1098454Y809055D02*
X1351378D01*
X1354331Y812008D01*
X1698512Y1625677D02*
X1805921D01*
X1795276Y1751378D02*
X1820976Y1725677D01*
X1772638Y1751378D02*
X1795276D01*
X1820976Y1640732D02*
Y1725677D01*
X1805921Y1625677D02*
X1820976Y1640732D01*
X705064Y899496D02*
X777899D01*
X867466Y989063D01*
X1061898D01*
X1052165Y1007874D02*
X1738780Y1694488D01*
X859674Y1007874D02*
X1052165D01*
X770108Y918307D02*
X859674Y1007874D01*
X623032Y918307D02*
X770108D01*
X1061898Y989063D02*
X1698512Y1625677D01*
X1746271Y1701378D02*
X1772638D01*
X1739381Y1694488D02*
X1746271Y1701378D01*
X1738780Y1694488D02*
X1739381D01*
X623032Y867126D02*
X672694D01*
X705064Y899496D01*
X623032Y815945D02*
X681103D01*
X691930Y805118D02*
X727362D01*
X681103Y815945D02*
X691930Y805118D01*
X623032Y841536D02*
X700788D01*
X727362Y868110D01*
X621063Y737205D02*
X623032Y739173D01*
X589033Y737205D02*
X621063D01*
X556102Y704275D02*
X589033Y737205D01*
X556102Y633858D02*
Y704275D01*
X338583Y918307D02*
X394685D01*
X138780Y718504D02*
X338583Y918307D01*
D27*
X3234252Y2729331D02*
X3246234Y2741312D01*
X3435210D02*
X3438976Y2745079D01*
X3246234Y2741312D02*
X3435210D01*
X4536884Y623524D02*
Y781155D01*
X4398622Y622047D02*
X4538360D01*
Y621215D02*
X4898471D01*
X4922244Y597441D01*
X3775591Y2745079D02*
X3983268D01*
X4398130Y622539D02*
Y775098D01*
X4534840Y779111D02*
X4536884Y781155D01*
X4397638Y775591D02*
X4401158Y779111D01*
X4534840D01*
X4536884Y623524D02*
X4538360Y622047D01*
X4398130Y622539D02*
X4398622Y622047D01*
X4397638Y775591D02*
X4398130Y775098D01*
X3438976Y2745079D02*
X3628937D01*
X3775591D01*
D28*
X3031496Y2729331D02*
X3234252D01*
X2491142Y1037402D02*
X2972441Y1518701D01*
X2157480Y1037402D02*
X2491142D01*
X2972441Y1518701D02*
X3281206D01*
D29*
X815945Y625984D02*
X854331D01*
X556594Y498524D02*
X688484D01*
X815945Y625984D01*
X854331D02*
X860237Y631890D01*
X440945Y382874D02*
X556594Y498524D01*
X425087Y398732D02*
X440945Y382874D01*
X425087Y398732D02*
Y474188D01*
X440945Y382874D02*
Y382874D01*
Y382874D02*
X482394Y341425D01*
Y182197D02*
Y341425D01*
X555776Y774363D02*
Y860894D01*
X587599Y892717D02*
X623032D01*
X555776Y860894D02*
X587599Y892717D01*
X425087Y474188D02*
X479988Y529089D01*
Y666996D02*
X499016Y686024D01*
Y717603D01*
X555776Y774363D01*
X479988Y529089D02*
Y666996D01*
X392717Y161417D02*
X461614D01*
X335630Y218504D02*
X392717Y161417D01*
X461614D02*
X482394Y182197D01*
D30*
X1824803Y1589567D02*
X1824803D01*
X1483268Y1119094D02*
Y1248032D01*
X1824803Y1589567D01*
X1824803D02*
X1845583Y1610346D01*
X2411417Y1497047D02*
Y1611220D01*
X1845583Y1610346D02*
Y1972331D01*
X1832677Y1985236D02*
X1845583Y1972331D01*
X2411417Y1611220D02*
X2412402Y1612205D01*
X1483268Y1119094D02*
X1613299Y989063D01*
X1704725Y1985236D02*
X1832677D01*
X1715354Y856299D02*
X1716535Y857480D01*
X1666620Y856299D02*
X1715354D01*
X1613299Y909620D02*
Y989063D01*
Y909620D02*
X1666620Y856299D01*
X1310039Y1675197D02*
X1339567Y1704725D01*
X1250001Y1675197D02*
X1310039D01*
X1217709Y1707489D02*
X1250001Y1675197D01*
X1189961Y1722244D02*
X1204771D01*
X1217709Y1709306D01*
Y1707489D02*
Y1709306D01*
D31*
X896654Y417323D02*
X959646D01*
X895669Y418307D02*
X896654Y417323D01*
X959646D02*
X960630Y416339D01*
X786418Y805118D02*
X790355Y801181D01*
X847441D01*
X851378Y797244D01*
X786418Y868110D02*
X853347D01*
X445866Y454725D02*
X503937Y512795D01*
Y656496D02*
X533354Y685913D01*
X503937Y512795D02*
Y612095D01*
Y655622D02*
Y656496D01*
X503827Y612205D02*
Y655511D01*
Y612205D02*
X503937Y612095D01*
X503827Y655511D02*
X503937Y655622D01*
X533354Y713697D02*
X583547Y763890D01*
X622158D01*
X533354Y685913D02*
Y713697D01*
X622158Y763890D02*
X623032Y764764D01*
X300197Y538514D02*
Y544799D01*
X332397Y739173D02*
X394685D01*
X320866Y727642D02*
X332397Y739173D01*
X320866Y565468D02*
Y727642D01*
X1276575Y1645669D02*
X1277559Y1644685D01*
Y1585630D02*
Y1644685D01*
Y1585630D02*
X1278543Y1584646D01*
D32*
X822835Y477362D02*
X895669D01*
X822835D02*
X822835Y477362D01*
Y545276D01*
D33*
X1858519Y919040D02*
Y933071D01*
Y919040D02*
X2023622Y753937D01*
X2519685D01*
X2699809Y1103457D02*
X3048339D01*
X2609747Y1013395D02*
X2699809Y1103457D01*
X2609747Y843999D02*
Y1013395D01*
X2519685Y753937D02*
X2609747Y843999D01*
X1766732Y933071D02*
X1858519D01*
X1876969Y951521D01*
X1765748Y932087D02*
X1766732Y933071D01*
X1876969Y951521D02*
Y1054134D01*
X3529528Y2209646D02*
X4204975D01*
X4266732Y2139764D02*
Y2147889D01*
X4204975Y2209646D02*
X4266732Y2147889D01*
X3459646Y2139764D02*
X3529528Y2209646D01*
X3017606Y2203630D02*
X3395780D01*
X3459646Y2139764D01*
X2564961Y1750984D02*
X3017606Y2203630D01*
X3048339Y1103457D02*
X3463091Y1518209D01*
X3512796Y1567913D01*
X4195866D01*
X4254038Y1626086D01*
X3457084Y1524216D02*
Y1669885D01*
Y1524216D02*
X3463091Y1518209D01*
X4925197Y452756D02*
X4927166Y450788D01*
X4925133Y509902D02*
X4925197Y509838D01*
Y452756D02*
Y509838D01*
X874016Y1961614D02*
X1409449Y2497047D01*
X3428150D02*
X3439961Y2508858D01*
X1409449Y2497047D02*
X3428150D01*
X874016Y1880905D02*
Y1961614D01*
X873032Y1879921D02*
X874016Y1880905D01*
X873032Y1816929D02*
X878346Y1822244D01*
X969488D01*
X873032Y1816929D02*
Y1879921D01*
X873032Y1816929D02*
X873032Y1816929D01*
X2477362Y1689961D02*
X2611220D01*
X3061024Y2139764D02*
X3258858D01*
X2611220Y1689961D02*
X3061024Y2139764D01*
X1561024Y825930D02*
Y908465D01*
X1542574Y807480D02*
X1561024Y825930D01*
X1496063Y807480D02*
X1542574D01*
X1561024Y908465D02*
X1584645Y932087D01*
X1466929Y745079D02*
X1476378Y754528D01*
X1417323Y745079D02*
X1466929D01*
X1417323D02*
Y812008D01*
X382874Y454725D02*
Y498649D01*
X384843Y500618D01*
Y513780D01*
X386811Y515748D01*
X3451772Y1675197D02*
X3457084Y1669885D01*
X4254038Y1670377D02*
X4258858Y1675197D01*
X4254038Y1626086D02*
Y1670377D01*
X2423229Y1689961D02*
X2477362D01*
X2412402Y1679134D02*
X2423229Y1689961D01*
X2476378Y1750000D02*
X2477362Y1749016D01*
X2412402Y1750000D02*
X2476378D01*
X2477362Y1749016D02*
X2479331Y1750984D01*
X2564961D01*
X2015945Y1651378D02*
X2116142Y1551181D01*
X2292323D02*
X2353347Y1612205D01*
X2116142Y1551181D02*
X2292323D01*
X1993110Y1651378D02*
X2015945D01*
X1993110Y1751378D02*
X1993799Y1750689D01*
X2352658D01*
X2353347Y1750000D01*
X1993110Y1701378D02*
X2182087D01*
X1968504D02*
X1993110D01*
X2351378Y1681102D02*
X2353347Y1679134D01*
X2195866Y1702756D02*
X2306457D01*
X2328111Y1681102D01*
X2351378D01*
X2182087Y1655512D02*
Y1688976D01*
X2195866Y1702756D01*
X1938976Y1799213D02*
X2044291D01*
X2105315Y1860236D02*
X2182087D01*
X2044291Y1799213D02*
X2105315Y1860236D01*
X1908465Y1829724D02*
Y1875984D01*
Y1829724D02*
X1938976Y1799213D01*
X1339567Y1704725D02*
Y1767716D01*
X1274606Y1769685D02*
X1276575Y1767716D01*
X1270670Y1769685D02*
X1274606D01*
X1163386Y1772244D02*
X1268111D01*
X1270670Y1769685D01*
X1276575Y1704725D02*
Y1767716D01*
X1276575Y1704724D02*
X1276575Y1704725D01*
X969488Y1925197D02*
X999016Y1954724D01*
X969488Y1872244D02*
Y1925197D01*
X999016Y1954724D02*
X1050197D01*
X873032Y1698819D02*
X931353D01*
X949803Y1717269D01*
Y1721260D01*
X950788Y1722244D01*
X969488D01*
D34*
X2499016Y1285433D02*
X2888780Y1675197D01*
X1626969Y1285433D02*
X2499016D01*
X3253937Y1962598D02*
Y2134843D01*
Y1962598D02*
X3351378Y1865158D01*
Y1675197D02*
Y1865158D01*
Y1588872D02*
Y1675197D01*
X3253937Y2134843D02*
X3258858Y2139764D01*
Y2139764D01*
X3281206Y1518701D02*
X3351378Y1588872D01*
X4533662Y283465D02*
X4850394D01*
X4937008Y370079D01*
X2888780Y1675197D02*
X3250984D01*
X4398622Y283465D02*
X4533661D01*
X4533662Y283465D01*
X4546260Y1536417D02*
X4706693Y1375984D01*
X4867126D01*
X4546260Y1536417D02*
Y2083465D01*
X4669291Y2406496D02*
Y2485236D01*
X4546260Y2283465D02*
X4669291Y2406496D01*
X1520669Y1828740D02*
X1792323D01*
X1795276Y1831693D01*
D35*
X4258209Y2139764D02*
X4266732D01*
X1756002Y454820D02*
X1846457Y545275D01*
X1716535Y857480D02*
X1804331D01*
X1805118Y858268D01*
X1846457Y545275D02*
Y816929D01*
X1805118Y858268D02*
X1846457Y816929D01*
X1756002Y454820D02*
X1756890Y453932D01*
Y265447D02*
Y453932D01*
X1713884Y222441D02*
X1756890Y265447D01*
Y76961D02*
Y247047D01*
X1235236Y217520D02*
X1240158Y222441D01*
X1756890Y247047D02*
Y265447D01*
X1240158Y222441D02*
X1713884D01*
X937992Y219488D02*
Y297244D01*
Y219488D02*
X939961Y217520D01*
X1096457Y356299D02*
X1235236Y217520D01*
X937992Y356299D02*
X1096457D01*
X148550Y144757D02*
X267527Y25780D01*
X1705709D02*
X1756890Y76961D01*
X267527Y25780D02*
X1705709D01*
X277051Y521654D02*
X300197Y544799D01*
X138780Y521654D02*
X277051D01*
X1670276Y2019685D02*
X1704725Y1985236D01*
X330201Y574803D02*
X386811D01*
X300197Y544799D02*
X330201Y574803D01*
X138780Y218504D02*
X148550Y208734D01*
Y144757D02*
Y208734D01*
X138780Y218504D02*
Y521654D01*
D36*
X4050197Y622047D02*
X4398622D01*
X2750000Y525591D02*
Y982284D01*
X2647638Y423228D02*
X2750000Y525591D01*
X2325787Y423228D02*
X2647638D01*
X4041494Y775591D02*
X4397638D01*
X3926181Y890903D02*
X4041494Y775591D01*
X3926181Y890903D02*
Y954724D01*
X3823819Y395669D02*
X4050197Y622047D01*
X3501969Y395669D02*
X3823819D01*
D37*
X863189Y1767717D02*
X863189D01*
X813976Y1816929D02*
X863189Y1767717D01*
X945090Y1772244D02*
X969488D01*
X930720Y1757874D02*
X945090Y1772244D01*
X873032Y1757874D02*
X930720D01*
X863189Y1767717D02*
X873032Y1757874D01*
D38*
X434055Y218504D02*
Y237805D01*
X412618Y259242D02*
X434055Y237805D01*
X412618Y479352D02*
X467520Y534254D01*
X412618Y259242D02*
Y479352D01*
X394685Y867126D02*
X396654Y865158D01*
X543307Y779528D02*
Y829725D01*
X467520Y534254D02*
Y703740D01*
X396654Y865158D02*
X507874D01*
X543307Y829725D01*
X467520Y703740D02*
X543307Y779528D01*
X444882Y582592D02*
Y760663D01*
X406255Y543965D02*
X444882Y582592D01*
X394685Y764764D02*
X440781D01*
X444882Y760663D01*
X237205Y374915D02*
X356626Y494336D01*
Y535846D01*
X364745Y543965D01*
X406255D01*
X237205Y218504D02*
Y374915D01*
D39*
X4546260Y2083465D02*
D03*
Y2283465D02*
D03*
D40*
X4669291Y2485236D02*
D03*
X138780Y218504D02*
D03*
D41*
X4669291Y2682087D02*
D03*
X4872047Y1272638D02*
D03*
X138780Y816929D02*
D03*
X532480Y218504D02*
D03*
X434055D02*
D03*
X335630D02*
D03*
X237205D02*
D03*
X138780Y718504D02*
D03*
Y620079D02*
D03*
D42*
X3990157Y2508858D02*
D03*
X3438976Y2745079D02*
D03*
X2750000Y982284D02*
D03*
X2522638Y890748D02*
D03*
X2375000D02*
D03*
X4398622Y622047D02*
D03*
Y283465D02*
D03*
X3551181Y863189D02*
D03*
X3698819D02*
D03*
X3926181Y954724D02*
D03*
D43*
X2354331Y2729331D02*
D03*
X2557087D02*
D03*
X3031496D02*
D03*
X3234252D02*
D03*
D44*
X2647638Y423228D02*
D03*
X2325787D02*
D03*
X2157480Y1037402D02*
D03*
Y890748D02*
D03*
X3333662Y863189D02*
D03*
Y1009842D02*
D03*
X3501969Y395669D02*
D03*
X3823819D02*
D03*
D45*
X1626969Y1285433D02*
D03*
D46*
X626969D02*
D03*
D47*
X1136811Y217520D02*
D03*
X939961D02*
D03*
X841535D02*
D03*
X1235236D02*
D03*
X1038386D02*
D03*
X729331Y377953D02*
D03*
X556102Y633858D02*
D03*
Y377953D02*
D03*
X729331Y633858D02*
D03*
X4166339Y2139764D02*
D03*
X3359252D02*
D03*
X3451772Y1675197D02*
D03*
X3351378D02*
D03*
X3250984D02*
D03*
X3459646Y2139764D02*
D03*
X3258858D02*
D03*
X4258858Y1675197D02*
D03*
X4158465D02*
D03*
X4058071D02*
D03*
X4266732Y2139764D02*
D03*
X4065945D02*
D03*
D48*
X743110Y217520D02*
D03*
D49*
X4533662Y283465D02*
D03*
X4535433Y776575D02*
D03*
X4397638Y775591D02*
D03*
X4538360Y621215D02*
D03*
X3983268Y2745079D02*
D03*
X3628937D02*
D03*
X3775591D02*
D03*
X3439961Y2508858D02*
D03*
X3628937D02*
D03*
X2556102Y1525591D02*
D03*
X2571850Y1994094D02*
D03*
X4882874Y1990158D02*
D03*
X4878937Y1529528D02*
D03*
D50*
X138780Y521654D02*
D03*
X4872047Y1371063D02*
D03*
D51*
X483621Y785080D02*
D03*
X803150Y1000000D02*
D03*
X488341Y831209D02*
D03*
X3348425Y1803150D02*
D03*
X4061024Y935039D02*
D03*
X4095472Y1020669D02*
D03*
X3943898Y1086614D02*
D03*
X4033465D02*
D03*
X3848425D02*
D03*
X3743110Y1074803D02*
D03*
X3762795Y990158D02*
D03*
X3654528D02*
D03*
X3456693Y725394D02*
D03*
X3046260Y692913D02*
D03*
X3480315Y1846457D02*
D03*
X3610236Y1756890D02*
D03*
X3899606Y1860236D02*
D03*
X3788386Y1858268D02*
D03*
X3638780Y1854331D02*
D03*
X3559055Y1803150D02*
D03*
X3669291Y1786417D02*
D03*
X3745079Y1789370D02*
D03*
X3793307Y1790354D02*
D03*
X3860236Y1785433D02*
D03*
X3838583Y1618110D02*
D03*
X3716535Y1616142D02*
D03*
X3649606Y1615158D02*
D03*
X3874016Y1693898D02*
D03*
X3809055Y1697835D02*
D03*
X3735236D02*
D03*
X3690945Y1694882D02*
D03*
X3605315Y1693898D02*
D03*
X2593504Y737205D02*
D03*
X3646654Y1072835D02*
D03*
X3519685Y996063D02*
D03*
X2548228Y675197D02*
D03*
X2903543Y696850D02*
D03*
X2902559Y779528D02*
D03*
Y869095D02*
D03*
X2050197Y812992D02*
D03*
X2027559Y896654D02*
D03*
Y971457D02*
D03*
X2030512Y1049213D02*
D03*
X960630Y416339D02*
D03*
X973425Y751968D02*
D03*
X1091535Y733268D02*
D03*
X1661417Y977362D02*
D03*
X945866Y954724D02*
D03*
X1876969Y1054134D02*
D03*
X2411417Y1497047D02*
D03*
%TF.MD5,b8976314de40ceae012b112f705d777b*%
M02*
