%TF.GenerationSoftware,Altium Limited,Altium Designer,21.0.8 (223)*%
G04 Layer_Physical_Order=2*
G04 Layer_Color=16711680*
%FSLAX26Y26*%
%MOIN*%
%TF.SameCoordinates,3528F89D-DF25-4B87-B81C-8702AA7ACEB5*%
%TF.FilePolarity,Positive*%
%TF.FileFunction,Copper,L2,Bot,Signal*%
%TF.Part,Single*%
G01*
G75*
%TA.AperFunction,SMDPad,CuDef*%
%ADD16R,0.027559X0.033465*%
%TA.AperFunction,Conductor*%
%ADD26C,0.011811*%
%ADD27C,0.098425*%
%ADD31C,0.019685*%
%ADD33C,0.031496*%
%ADD34C,0.078740*%
%ADD35C,0.039370*%
%ADD36C,0.196850*%
%TA.AperFunction,ComponentPad*%
%ADD39C,0.062992*%
%ADD40R,0.078740X0.078740*%
%ADD41C,0.078740*%
%ADD42C,0.118110*%
%ADD43O,0.062992X0.090551*%
%ADD44R,0.118110X0.118110*%
%ADD45C,0.086614*%
%ADD47C,0.070866*%
%ADD48R,0.070866X0.070866*%
%TA.AperFunction,ViaPad*%
%ADD49C,0.118110*%
%TA.AperFunction,ComponentPad*%
%ADD50R,0.078740X0.078740*%
%TA.AperFunction,ViaPad*%
%ADD51C,0.039370*%
G36*
X5012371Y262942D02*
X4755758Y6330D01*
X9282D01*
Y1503790D01*
X1384989Y2879497D01*
X5012371D01*
X5012371Y262942D01*
D02*
G37*
%LPC*%
G36*
X3989774Y2811134D02*
X3976762D01*
X3964000Y2808595D01*
X3951979Y2803616D01*
X3941160Y2796387D01*
X3931959Y2787186D01*
X3924730Y2776367D01*
X3919751Y2764346D01*
X3917213Y2751585D01*
Y2738573D01*
X3919751Y2725811D01*
X3924730Y2713790D01*
X3931959Y2702971D01*
X3941160Y2693770D01*
X3951979Y2686541D01*
X3964000Y2681562D01*
X3976762Y2679024D01*
X3989774D01*
X4002535Y2681562D01*
X4014557Y2686541D01*
X4025375Y2693770D01*
X4034576Y2702971D01*
X4041805Y2713790D01*
X4046784Y2725811D01*
X4049323Y2738573D01*
Y2751585D01*
X4046784Y2764346D01*
X4041805Y2776367D01*
X4034576Y2787186D01*
X4025375Y2796387D01*
X4014557Y2803616D01*
X4002535Y2808595D01*
X3989774Y2811134D01*
D02*
G37*
G36*
X3782097D02*
X3769085D01*
X3756323Y2808595D01*
X3744302Y2803616D01*
X3733483Y2796387D01*
X3724282Y2787186D01*
X3717053Y2776367D01*
X3712074Y2764346D01*
X3709535Y2751585D01*
Y2738573D01*
X3712074Y2725811D01*
X3717053Y2713790D01*
X3724282Y2702971D01*
X3733483Y2693770D01*
X3744302Y2686541D01*
X3756323Y2681562D01*
X3769085Y2679024D01*
X3782097D01*
X3794858Y2681562D01*
X3806879Y2686541D01*
X3817698Y2693770D01*
X3826899Y2702971D01*
X3834128Y2713790D01*
X3839107Y2725811D01*
X3841646Y2738573D01*
Y2751585D01*
X3839107Y2764346D01*
X3834128Y2776367D01*
X3826899Y2787186D01*
X3817698Y2796387D01*
X3806879Y2803616D01*
X3794858Y2808595D01*
X3782097Y2811134D01*
D02*
G37*
G36*
X3635443D02*
X3622431D01*
X3609669Y2808595D01*
X3597648Y2803616D01*
X3586829Y2796387D01*
X3577629Y2787186D01*
X3570400Y2776367D01*
X3565420Y2764346D01*
X3562882Y2751585D01*
Y2738573D01*
X3565420Y2725811D01*
X3570400Y2713790D01*
X3577629Y2702971D01*
X3586829Y2693770D01*
X3597648Y2686541D01*
X3609669Y2681562D01*
X3622431Y2679024D01*
X3635443D01*
X3648205Y2681562D01*
X3660226Y2686541D01*
X3671045Y2693770D01*
X3680245Y2702971D01*
X3687474Y2713790D01*
X3692454Y2725811D01*
X3694992Y2738573D01*
Y2751585D01*
X3692454Y2764346D01*
X3687474Y2776367D01*
X3680245Y2787186D01*
X3671045Y2796387D01*
X3660226Y2803616D01*
X3648205Y2808595D01*
X3635443Y2811134D01*
D02*
G37*
G36*
X3445482D02*
X3432470D01*
X3419709Y2808595D01*
X3407688Y2803616D01*
X3396869Y2796387D01*
X3387668Y2787186D01*
X3380439Y2776367D01*
X3375460Y2764346D01*
X3372921Y2751585D01*
Y2738573D01*
X3375460Y2725811D01*
X3380439Y2713790D01*
X3387668Y2702971D01*
X3396869Y2693770D01*
X3407688Y2686541D01*
X3419709Y2681562D01*
X3432470Y2679024D01*
X3445482D01*
X3458244Y2681562D01*
X3470265Y2686541D01*
X3481084Y2693770D01*
X3490285Y2702971D01*
X3497514Y2713790D01*
X3502493Y2725811D01*
X3505032Y2738573D01*
Y2751585D01*
X3502493Y2764346D01*
X3497514Y2776367D01*
X3490285Y2787186D01*
X3481084Y2796387D01*
X3470265Y2803616D01*
X3458244Y2808595D01*
X3445482Y2811134D01*
D02*
G37*
G36*
X3234252Y2781939D02*
X3224203Y2780615D01*
X3214838Y2776736D01*
X3206796Y2770566D01*
X3200626Y2762524D01*
X3196747Y2753160D01*
X3195424Y2743110D01*
Y2715551D01*
X3196747Y2705502D01*
X3200626Y2696137D01*
X3206796Y2688095D01*
X3214838Y2681925D01*
X3224203Y2678046D01*
X3234252Y2676723D01*
X3244302Y2678046D01*
X3253666Y2681925D01*
X3261708Y2688095D01*
X3267878Y2696137D01*
X3271757Y2705502D01*
X3273080Y2715551D01*
Y2743110D01*
X3271757Y2753160D01*
X3267878Y2762524D01*
X3261708Y2770566D01*
X3253666Y2776736D01*
X3244302Y2780615D01*
X3234252Y2781939D01*
D02*
G37*
G36*
X3031496D02*
X3021447Y2780615D01*
X3012082Y2776736D01*
X3004040Y2770566D01*
X2997870Y2762524D01*
X2993991Y2753160D01*
X2992668Y2743110D01*
Y2715551D01*
X2993991Y2705502D01*
X2997870Y2696137D01*
X3004040Y2688095D01*
X3012082Y2681925D01*
X3021447Y2678046D01*
X3031496Y2676723D01*
X3041546Y2678046D01*
X3050910Y2681925D01*
X3058952Y2688095D01*
X3065122Y2696137D01*
X3069001Y2705502D01*
X3070324Y2715551D01*
Y2743110D01*
X3069001Y2753160D01*
X3065122Y2762524D01*
X3058952Y2770566D01*
X3050910Y2776736D01*
X3041546Y2780615D01*
X3031496Y2781939D01*
D02*
G37*
G36*
X3439961Y2614609D02*
X3040354D01*
X3023811Y2613307D01*
X3007675Y2609434D01*
X2992344Y2603083D01*
X2978195Y2594413D01*
X2965577Y2583636D01*
X2803175Y2421234D01*
X2792398Y2408616D01*
X2783728Y2394467D01*
X2777377Y2379136D01*
X2773504Y2363000D01*
X2772202Y2346457D01*
Y1175707D01*
X2711180D01*
X2699075Y1174114D01*
X2687795Y1169441D01*
X2678109Y1162008D01*
X2559044Y1042943D01*
X2478969D01*
X2466864Y1041350D01*
X2455584Y1036677D01*
X2445898Y1029245D01*
X2373456Y956803D01*
X2368494D01*
X2355733Y954265D01*
X2343711Y949285D01*
X2340958Y947446D01*
X2223535D01*
Y956803D01*
X2091425D01*
Y824693D01*
X2223535D01*
Y834050D01*
X2335763D01*
Y771995D01*
X2337357Y759890D01*
X2342029Y748610D01*
X2349462Y738923D01*
X2359148Y731490D01*
X2370428Y726818D01*
X2382533Y725224D01*
X2394638Y726818D01*
X2405918Y731490D01*
X2415605Y738923D01*
X2419488Y743984D01*
X2423339D01*
Y749337D01*
X2427710Y759890D01*
X2429303Y771995D01*
Y853122D01*
X2433537Y859459D01*
X2438517Y871480D01*
X2441055Y884242D01*
Y892116D01*
X2452799Y903860D01*
X2457407Y901396D01*
X2456583Y897254D01*
Y884242D01*
X2459121Y871480D01*
X2464101Y859459D01*
X2468335Y853122D01*
Y789711D01*
X2469928Y777606D01*
X2472331Y771806D01*
Y743984D01*
X2472331D01*
X2473578Y740973D01*
X2445544Y712939D01*
X1225716D01*
X964898Y973756D01*
X963498Y974831D01*
X962251Y976078D01*
X960724Y976959D01*
X959324Y978034D01*
X957693Y978709D01*
X956166Y979591D01*
X954462Y980047D01*
X952832Y980723D01*
X951083Y980953D01*
X949379Y981409D01*
X947615D01*
X945866Y981640D01*
X944117Y981409D01*
X942353D01*
X940649Y980953D01*
X938900Y980723D01*
X937270Y980047D01*
X935566Y979591D01*
X934039Y978709D01*
X932409Y978034D01*
X931008Y976959D01*
X929481Y976078D01*
X928234Y974831D01*
X926834Y973756D01*
X925760Y972356D01*
X924513Y971109D01*
X923631Y969582D01*
X922557Y968182D01*
X921881Y966552D01*
X921000Y965024D01*
X920543Y963321D01*
X919868Y961691D01*
X919638Y959941D01*
X919181Y958238D01*
Y956474D01*
X918951Y954724D01*
X919181Y952975D01*
Y951211D01*
X919638Y949507D01*
X919868Y947758D01*
X920543Y946128D01*
X921000Y944424D01*
X921881Y942897D01*
X922557Y941267D01*
X923631Y939867D01*
X924513Y938339D01*
X925760Y937092D01*
X926834Y935692D01*
X1098257Y764269D01*
X1095669Y759787D01*
X1095049Y759953D01*
X1088022D01*
X1087730Y759874D01*
X1035151Y812454D01*
X1030882Y815306D01*
X1025847Y816308D01*
X922773D01*
X816308Y922773D01*
Y976784D01*
X819535Y978647D01*
X824503Y983615D01*
X828016Y989700D01*
X829835Y996487D01*
Y1003513D01*
X828016Y1010300D01*
X824503Y1016385D01*
X819535Y1021353D01*
X813450Y1024867D01*
X806663Y1026685D01*
X799636D01*
X792850Y1024867D01*
X786765Y1021353D01*
X781796Y1016385D01*
X778283Y1010300D01*
X776465Y1003513D01*
Y996487D01*
X778283Y989700D01*
X781796Y983615D01*
X786765Y978647D01*
X789991Y976784D01*
Y917323D01*
X790993Y912288D01*
X793845Y908019D01*
X908019Y793845D01*
X912288Y790993D01*
X917323Y789991D01*
X1020396D01*
X1066724Y743663D01*
X1066669Y743568D01*
X1064851Y736781D01*
Y729755D01*
X1066669Y722968D01*
X1070182Y716883D01*
X1075150Y711914D01*
X1081236Y708401D01*
X1088022Y706583D01*
X1095049D01*
X1101835Y708401D01*
X1107920Y711914D01*
X1112889Y716883D01*
X1116402Y722968D01*
X1118220Y729755D01*
Y736781D01*
X1118054Y737401D01*
X1122537Y739989D01*
X1195535Y666992D01*
X1201109Y662714D01*
X1207601Y660025D01*
X1214567Y659108D01*
X2456693D01*
X2463659Y660025D01*
X2470151Y662714D01*
X2475725Y666992D01*
X2541670Y732937D01*
X2545947Y738511D01*
X2548636Y745002D01*
X2549553Y751968D01*
Y758434D01*
X2555609Y766326D01*
X2560281Y777606D01*
X2561875Y789711D01*
Y837522D01*
X2564746Y839440D01*
X2573946Y848640D01*
X2581175Y859459D01*
X2586155Y871480D01*
X2588693Y884242D01*
Y897254D01*
X2586155Y910016D01*
X2581175Y922037D01*
X2573946Y932856D01*
X2564746Y942056D01*
X2561234Y944403D01*
X2562750Y949403D01*
X2578416D01*
X2590521Y950997D01*
X2601802Y955669D01*
X2611488Y963102D01*
X2730553Y1082167D01*
X2783214D01*
X2783728Y1080927D01*
X2792398Y1066778D01*
X2803175Y1054160D01*
X2803176Y1054159D01*
X3129947Y727388D01*
X3142566Y716611D01*
X3156714Y707940D01*
X3172046Y701590D01*
X3188181Y697716D01*
X3204724Y696414D01*
X3296260D01*
X3312803Y697716D01*
X3328939Y701590D01*
X3344270Y707940D01*
X3358419Y716611D01*
X3371037Y727388D01*
X3381814Y740006D01*
X3390485Y754155D01*
X3396835Y769486D01*
X3400709Y785622D01*
X3402011Y802165D01*
X3401960Y802819D01*
X3405354Y806491D01*
X3507364D01*
Y761811D01*
X3508957Y749706D01*
X3513630Y738426D01*
X3521062Y728740D01*
X3548622Y701180D01*
X3558308Y693748D01*
X3569588Y689075D01*
X3581693Y687482D01*
X3593798Y689075D01*
X3605078Y693748D01*
X3614765Y701180D01*
X3622197Y710867D01*
X3626870Y722147D01*
X3628463Y734252D01*
X3626870Y746357D01*
X3622197Y757637D01*
X3614765Y767323D01*
X3600904Y781184D01*
Y819496D01*
X3602490Y821081D01*
X3609718Y831900D01*
X3614698Y843921D01*
X3617236Y856683D01*
Y869695D01*
X3614698Y882457D01*
X3609718Y894478D01*
X3602490Y905297D01*
X3593289Y914497D01*
X3582470Y921726D01*
X3570449Y926706D01*
X3557687Y929244D01*
X3544675D01*
X3531914Y926706D01*
X3519892Y921726D01*
X3517139Y919887D01*
X3399717D01*
Y929244D01*
X3267606D01*
Y907917D01*
X3248528D01*
X2983704Y1172741D01*
Y2302653D01*
X3084158Y2403107D01*
X3248646D01*
X3252167Y2399556D01*
X3250904Y2251045D01*
X3250910Y2251015D01*
X3250904Y2250984D01*
X3251170Y2249647D01*
X3251424Y2248309D01*
X3251441Y2248283D01*
X3251447Y2248253D01*
X3252204Y2247121D01*
X3252952Y2245981D01*
X3252977Y2245963D01*
X3252994Y2245938D01*
X3312482Y2186450D01*
Y2139764D01*
X3312745Y2137767D01*
X3312745Y2100394D01*
X3313288Y2097662D01*
X3314835Y2095347D01*
X3317151Y2093800D01*
X3319882Y2093256D01*
X3357255Y2093256D01*
X3359252Y2092994D01*
X3361249Y2093256D01*
X3395669Y2093257D01*
X3395838Y2093290D01*
X3396009Y2093265D01*
X3397199Y2093561D01*
X3398401Y2093800D01*
X3398544Y2093896D01*
X3398711Y2093937D01*
X3399697Y2094666D01*
X3400716Y2095347D01*
X3400812Y2095491D01*
X3400950Y2095593D01*
X3401581Y2096642D01*
X3402263Y2097662D01*
X3402297Y2097832D01*
X3402386Y2097979D01*
X3413472Y2128820D01*
X3418707Y2128601D01*
X3420104Y2123385D01*
X3425691Y2113709D01*
X3433591Y2105809D01*
X3443267Y2100222D01*
X3454059Y2097331D01*
X3465232D01*
X3476024Y2100222D01*
X3485700Y2105809D01*
X3493601Y2113709D01*
X3499187Y2123385D01*
X3502079Y2134177D01*
Y2145350D01*
X3499187Y2156142D01*
X3493601Y2165818D01*
X3485700Y2173719D01*
X3476024Y2179305D01*
X3465232Y2182197D01*
X3454059D01*
X3443267Y2179305D01*
X3435275Y2174691D01*
X3431189Y2178105D01*
X3454822Y2243847D01*
X4045272Y2243847D01*
X4119568Y2169551D01*
Y2139764D01*
X4121162Y2127659D01*
X4125834Y2116379D01*
X4133267Y2106692D01*
X4142953Y2099260D01*
X4154234Y2094587D01*
X4166339Y2092994D01*
X4178444Y2094587D01*
X4189724Y2099260D01*
X4199410Y2106692D01*
X4206843Y2116379D01*
X4211515Y2127659D01*
X4213109Y2139764D01*
Y2164630D01*
X4260952Y2212473D01*
X4262499Y2214788D01*
X4263043Y2217520D01*
Y2243847D01*
X4710630Y2243847D01*
X4713361Y2244390D01*
X4715676Y2245937D01*
X4717224Y2248253D01*
X4717767Y2250984D01*
Y2577756D01*
X4717224Y2580487D01*
X4715676Y2582802D01*
X4713361Y2584350D01*
X4710630Y2584893D01*
X3513266Y2584893D01*
X3502120Y2594413D01*
X3487971Y2603083D01*
X3472640Y2609434D01*
X3456504Y2613307D01*
X3439961Y2614609D01*
D02*
G37*
G36*
X4272319Y2182197D02*
X4261146D01*
X4250354Y2179305D01*
X4240678Y2173719D01*
X4232777Y2165818D01*
X4227191Y2156142D01*
X4224299Y2145350D01*
Y2134177D01*
X4227191Y2123385D01*
X4232777Y2113709D01*
X4240678Y2105809D01*
X4250354Y2100222D01*
X4261146Y2097331D01*
X4272319D01*
X4283111Y2100222D01*
X4292787Y2105809D01*
X4300687Y2113709D01*
X4306274Y2123385D01*
X4309165Y2134177D01*
Y2145350D01*
X4306274Y2156142D01*
X4300687Y2165818D01*
X4292787Y2173719D01*
X4283111Y2179305D01*
X4272319Y2182197D01*
D02*
G37*
G36*
X4551328Y2121961D02*
X4541192D01*
X4531401Y2119337D01*
X4522623Y2114269D01*
X4515455Y2107102D01*
X4510387Y2098323D01*
X4507764Y2088533D01*
Y2078396D01*
X4510387Y2068606D01*
X4515455Y2059827D01*
X4522623Y2052660D01*
X4531401Y2047592D01*
X4541192Y2044969D01*
X4551328D01*
X4561119Y2047592D01*
X4569897Y2052660D01*
X4577064Y2059827D01*
X4582132Y2068606D01*
X4584756Y2078396D01*
Y2088533D01*
X4582132Y2098323D01*
X4577064Y2107102D01*
X4569897Y2114269D01*
X4561119Y2119337D01*
X4551328Y2121961D01*
D02*
G37*
G36*
X4065945Y2186534D02*
X4053840Y2184940D01*
X4042560Y2180268D01*
X4032873Y2172835D01*
X4025441Y2163149D01*
X4020768Y2151869D01*
X4019175Y2139764D01*
Y1989684D01*
X3324356D01*
X3305628Y2008411D01*
Y2139764D01*
X3304035Y2151869D01*
X3299363Y2163149D01*
X3291930Y2172835D01*
X3282243Y2180268D01*
X3270963Y2184940D01*
X3258858Y2186534D01*
X3246753Y2184940D01*
X3235473Y2180268D01*
X3225787Y2172835D01*
X3218354Y2163149D01*
X3213682Y2151869D01*
X3212088Y2139764D01*
Y1989038D01*
Y1953740D01*
X3213682Y1941635D01*
X3218354Y1930355D01*
X3225787Y1920669D01*
X3304608Y1841848D01*
Y1675197D01*
X3306202Y1663092D01*
X3310874Y1651812D01*
X3318307Y1642125D01*
X3327993Y1634693D01*
X3339273Y1630020D01*
X3351378Y1628427D01*
X3363483Y1630020D01*
X3374763Y1634693D01*
X3384450Y1642125D01*
X3391882Y1651812D01*
X3396555Y1663092D01*
X3398148Y1675197D01*
Y1861220D01*
X3396555Y1873325D01*
X3391882Y1884605D01*
X3386866Y1891143D01*
X3389331Y1896143D01*
X4023304D01*
X4025441Y1890985D01*
X4032873Y1881299D01*
X4111694Y1802478D01*
Y1675197D01*
Y1535121D01*
X3926493Y1349920D01*
X3626969D01*
X3614864Y1348326D01*
X3603584Y1343654D01*
X3593897Y1336221D01*
X3333574Y1075898D01*
X3267606D01*
Y943787D01*
X3399717D01*
Y1009755D01*
X3646341Y1256379D01*
X3945866D01*
X3957971Y1257973D01*
X3969251Y1262645D01*
X3978938Y1270078D01*
X4191536Y1482676D01*
X4198969Y1492363D01*
X4203641Y1503643D01*
X4205235Y1515748D01*
Y1675197D01*
Y1821851D01*
X4203641Y1833956D01*
X4198969Y1845236D01*
X4191536Y1854922D01*
X4112715Y1933743D01*
Y2139764D01*
X4111121Y2151869D01*
X4106449Y2163149D01*
X4099016Y2172835D01*
X4089330Y2180268D01*
X4078050Y2184940D01*
X4065945Y2186534D01*
D02*
G37*
G36*
X2578356Y2060150D02*
X2565345D01*
X2552583Y2057611D01*
X2540562Y2052632D01*
X2529743Y2045403D01*
X2520542Y2036202D01*
X2513313Y2025383D01*
X2508334Y2013362D01*
X2505795Y2000600D01*
Y1987589D01*
X2508334Y1974827D01*
X2513313Y1962806D01*
X2520542Y1951987D01*
X2529743Y1942786D01*
X2540562Y1935557D01*
X2552583Y1930578D01*
X2565345Y1928039D01*
X2578356D01*
X2591118Y1930578D01*
X2603139Y1935557D01*
X2613958Y1942786D01*
X2623159Y1951987D01*
X2630388Y1962806D01*
X2635367Y1974827D01*
X2637905Y1987589D01*
Y2000600D01*
X2635367Y2013362D01*
X2630388Y2025383D01*
X2623159Y2036202D01*
X2613958Y2045403D01*
X2603139Y2052632D01*
X2591118Y2057611D01*
X2578356Y2060150D01*
D02*
G37*
G36*
X4889380Y2056213D02*
X4876368D01*
X4863606Y2053674D01*
X4851585Y2048695D01*
X4840766Y2041466D01*
X4831566Y2032265D01*
X4824337Y2021446D01*
X4819358Y2009425D01*
X4816819Y1996663D01*
Y1983652D01*
X4819358Y1970890D01*
X4824337Y1958869D01*
X4831566Y1948050D01*
X4840766Y1938849D01*
X4851585Y1931620D01*
X4863606Y1926641D01*
X4876368Y1924102D01*
X4889380D01*
X4902142Y1926641D01*
X4914163Y1931620D01*
X4924982Y1938849D01*
X4934182Y1948050D01*
X4941411Y1958869D01*
X4946391Y1970890D01*
X4948929Y1983652D01*
Y1996663D01*
X4946391Y2009425D01*
X4941411Y2021446D01*
X4934182Y2032265D01*
X4924982Y2041466D01*
X4914163Y2048695D01*
X4902142Y2053674D01*
X4889380Y2056213D01*
D02*
G37*
G36*
X4264445Y1717630D02*
X4253272D01*
X4242480Y1714738D01*
X4232804Y1709152D01*
X4224903Y1701251D01*
X4219317Y1691575D01*
X4216425Y1680783D01*
Y1669611D01*
X4219317Y1658818D01*
X4224903Y1649142D01*
X4232804Y1641242D01*
X4242480Y1635656D01*
X4253272Y1632764D01*
X4264445D01*
X4275237Y1635656D01*
X4284913Y1641242D01*
X4292813Y1649142D01*
X4298400Y1658818D01*
X4301291Y1669611D01*
Y1680783D01*
X4298400Y1691575D01*
X4292813Y1701251D01*
X4284913Y1709152D01*
X4275237Y1714738D01*
X4264445Y1717630D01*
D02*
G37*
G36*
X3457358D02*
X3446185D01*
X3435393Y1714738D01*
X3425717Y1709152D01*
X3417817Y1701251D01*
X3412230Y1691575D01*
X3409339Y1680783D01*
Y1669611D01*
X3412230Y1658818D01*
X3417817Y1649142D01*
X3425717Y1641242D01*
X3435393Y1635656D01*
X3446185Y1632764D01*
X3457358D01*
X3468150Y1635656D01*
X3477826Y1641242D01*
X3485727Y1649142D01*
X3491313Y1658818D01*
X3494205Y1669611D01*
Y1680783D01*
X3491313Y1691575D01*
X3485727Y1701251D01*
X3477826Y1709152D01*
X3468150Y1714738D01*
X3457358Y1717630D01*
D02*
G37*
G36*
X4058071Y1721967D02*
X4045966Y1720373D01*
X4034686Y1715701D01*
X4024999Y1708268D01*
X4017567Y1698582D01*
X4012894Y1687302D01*
X4011301Y1675197D01*
Y1598113D01*
X3986533Y1573345D01*
X3316482D01*
X3297755Y1592073D01*
Y1675197D01*
X3296161Y1687302D01*
X3291488Y1698582D01*
X3284056Y1708268D01*
X3274369Y1715701D01*
X3263089Y1720373D01*
X3250984Y1721967D01*
X3238879Y1720373D01*
X3227599Y1715701D01*
X3217913Y1708268D01*
X3210480Y1698582D01*
X3205808Y1687302D01*
X3204214Y1675197D01*
Y1572700D01*
X3205808Y1560595D01*
X3210480Y1549315D01*
X3217913Y1539628D01*
X3264038Y1493503D01*
X3273724Y1486071D01*
X3285004Y1481398D01*
X3297109Y1479805D01*
X4005906D01*
X4018011Y1481398D01*
X4029291Y1486071D01*
X4038977Y1493503D01*
X4091142Y1545669D01*
X4098575Y1555355D01*
X4103248Y1566635D01*
X4104841Y1578740D01*
Y1675197D01*
X4103247Y1687302D01*
X4098575Y1698582D01*
X4091142Y1708268D01*
X4081456Y1715701D01*
X4070176Y1720373D01*
X4058071Y1721967D01*
D02*
G37*
G36*
X2414931Y1523732D02*
X2407904D01*
X2401117Y1521914D01*
X2398220Y1520241D01*
X2319882D01*
X2311006Y1518476D01*
X2303482Y1513448D01*
X1869900Y1079866D01*
X1866669Y1079000D01*
X1860584Y1075487D01*
X1855615Y1070519D01*
X1852102Y1064434D01*
X1850284Y1057647D01*
Y1050621D01*
X1852102Y1043834D01*
X1855615Y1037749D01*
X1860584Y1032781D01*
X1866669Y1029267D01*
X1873455Y1027449D01*
X1880482D01*
X1887269Y1029267D01*
X1893354Y1032781D01*
X1898322Y1037749D01*
X1901835Y1043834D01*
X1902701Y1047065D01*
X2329489Y1473854D01*
X2398220D01*
X2401117Y1472181D01*
X2407904Y1470362D01*
X2414931D01*
X2421717Y1472181D01*
X2427802Y1475694D01*
X2432771Y1480662D01*
X2436284Y1486747D01*
X2438102Y1493534D01*
Y1500561D01*
X2436284Y1507347D01*
X2432771Y1513432D01*
X2427802Y1518401D01*
X2421717Y1521914D01*
X2414931Y1523732D01*
D02*
G37*
G36*
X4885443Y1595583D02*
X4872431D01*
X4859669Y1593044D01*
X4847648Y1588065D01*
X4836829Y1580836D01*
X4827629Y1571635D01*
X4820400Y1560816D01*
X4815420Y1548795D01*
X4812882Y1536034D01*
Y1523022D01*
X4815420Y1510260D01*
X4820400Y1498239D01*
X4827629Y1487420D01*
X4836829Y1478219D01*
X4847648Y1470990D01*
X4859669Y1466011D01*
X4872431Y1463473D01*
X4885443D01*
X4898205Y1466011D01*
X4910226Y1470990D01*
X4921045Y1478219D01*
X4930245Y1487420D01*
X4937474Y1498239D01*
X4942454Y1510260D01*
X4944992Y1523022D01*
Y1536034D01*
X4942454Y1548795D01*
X4937474Y1560816D01*
X4930245Y1571635D01*
X4921045Y1580836D01*
X4910226Y1588065D01*
X4898205Y1593044D01*
X4885443Y1595583D01*
D02*
G37*
G36*
X2562608Y1591646D02*
X2549597D01*
X2536835Y1589107D01*
X2524814Y1584128D01*
X2513995Y1576899D01*
X2504794Y1567698D01*
X2497565Y1556879D01*
X2492586Y1544858D01*
X2490047Y1532097D01*
Y1519085D01*
X2492586Y1506323D01*
X2497565Y1494302D01*
X2504794Y1483483D01*
X2513995Y1474282D01*
X2524814Y1467053D01*
X2536835Y1462074D01*
X2549597Y1459535D01*
X2562608D01*
X2575370Y1462074D01*
X2587391Y1467053D01*
X2598210Y1474282D01*
X2607411Y1483483D01*
X2614640Y1494302D01*
X2619619Y1506323D01*
X2622157Y1519085D01*
Y1532097D01*
X2619619Y1544858D01*
X2614640Y1556879D01*
X2607411Y1567698D01*
X2598210Y1576899D01*
X2587391Y1584128D01*
X2575370Y1589107D01*
X2562608Y1591646D01*
D02*
G37*
G36*
X4918417Y1417433D02*
X4825677D01*
Y1388236D01*
X4597441D01*
X4590869Y1386928D01*
X4585298Y1383206D01*
X3772414Y570322D01*
X1100394D01*
X1093822Y569015D01*
X1088251Y565292D01*
X965593Y442635D01*
X964143Y443024D01*
X957117D01*
X950330Y441205D01*
X944245Y437692D01*
X939277Y432724D01*
X935764Y426639D01*
X933945Y419852D01*
Y412825D01*
X935764Y406039D01*
X939277Y399954D01*
X944245Y394985D01*
X950330Y391472D01*
X957117Y389654D01*
X964143D01*
X970930Y391472D01*
X977015Y394985D01*
X981983Y399954D01*
X985496Y406039D01*
X987315Y412825D01*
Y415785D01*
X1107507Y535977D01*
X3779528D01*
X3786099Y537284D01*
X3791670Y541007D01*
X4604554Y1353890D01*
X4825677D01*
Y1324693D01*
X4918417D01*
Y1417433D01*
D02*
G37*
G36*
X2223535Y1103457D02*
X2091425D01*
Y971346D01*
X2223535D01*
Y1103457D01*
D02*
G37*
G36*
X1633592Y1335740D02*
X1620345D01*
X1607551Y1332312D01*
X1596079Y1325689D01*
X1586713Y1316322D01*
X1580090Y1304851D01*
X1576661Y1292056D01*
Y1278810D01*
X1580090Y1266015D01*
X1586713Y1254544D01*
X1596079Y1245177D01*
X1600053Y1242883D01*
Y1016732D01*
X1600970Y1009766D01*
X1603659Y1003274D01*
X1607937Y997700D01*
X1635545Y970091D01*
X1636094Y968766D01*
X1636551Y967062D01*
X1637433Y965534D01*
X1638108Y963904D01*
X1639182Y962505D01*
X1640064Y960977D01*
X1641311Y959730D01*
X1642385Y958330D01*
X1643785Y957256D01*
X1645032Y956009D01*
X1646560Y955127D01*
X1647960Y954053D01*
X1649590Y953378D01*
X1651117Y952496D01*
X1652821Y952039D01*
X1654451Y951364D01*
X1656200Y951134D01*
X1657904Y950677D01*
X1659668D01*
X1661417Y950447D01*
X1663167Y950677D01*
X1664931D01*
X1666634Y951134D01*
X1668384Y951364D01*
X1670014Y952039D01*
X1671717Y952496D01*
X1673245Y953378D01*
X1674875Y954053D01*
X1676275Y955127D01*
X1677802Y956009D01*
X1679050Y957256D01*
X1680449Y958330D01*
X1681524Y959730D01*
X1682771Y960977D01*
X1683653Y962505D01*
X1684727Y963904D01*
X1685402Y965534D01*
X1686284Y967062D01*
X1686740Y968766D01*
X1687416Y970396D01*
X1687646Y972145D01*
X1688102Y973849D01*
Y975613D01*
X1688333Y977362D01*
Y982283D01*
X1687416Y989250D01*
X1684727Y995741D01*
X1680449Y1001315D01*
X1653884Y1027881D01*
Y1242883D01*
X1657858Y1245177D01*
X1667224Y1254544D01*
X1673847Y1266015D01*
X1677276Y1278810D01*
Y1292056D01*
X1673847Y1304851D01*
X1667224Y1316322D01*
X1657858Y1325689D01*
X1646386Y1332312D01*
X1633592Y1335740D01*
D02*
G37*
G36*
X2756506Y1048339D02*
X2743494D01*
X2730733Y1045800D01*
X2718711Y1040821D01*
X2707892Y1033592D01*
X2698692Y1024391D01*
X2691463Y1013572D01*
X2686483Y1001551D01*
X2683945Y988789D01*
Y975778D01*
X2686483Y963016D01*
X2691463Y950995D01*
X2698692Y940176D01*
X2707892Y930975D01*
X2718711Y923746D01*
X2730733Y918767D01*
X2743494Y916228D01*
X2756506D01*
X2769268Y918767D01*
X2781289Y923746D01*
X2792108Y930975D01*
X2801308Y940176D01*
X2808537Y950995D01*
X2813517Y963016D01*
X2816055Y975778D01*
Y988789D01*
X2813517Y1001551D01*
X2808537Y1013572D01*
X2801308Y1024391D01*
X2792108Y1033592D01*
X2781289Y1040821D01*
X2769268Y1045800D01*
X2756506Y1048339D01*
D02*
G37*
G36*
X3932687Y1020779D02*
X3919675D01*
X3906914Y1018241D01*
X3894892Y1013262D01*
X3884073Y1006033D01*
X3874873Y996832D01*
X3867644Y986013D01*
X3862665Y973992D01*
X3860126Y961230D01*
Y948218D01*
X3862665Y935457D01*
X3867644Y923436D01*
X3874873Y912617D01*
X3884073Y903416D01*
X3894892Y896187D01*
X3906914Y891208D01*
X3919675Y888669D01*
X3932687D01*
X3945449Y891208D01*
X3957470Y896187D01*
X3968289Y903416D01*
X3977490Y912617D01*
X3984718Y923436D01*
X3989698Y935457D01*
X3992236Y948218D01*
Y961230D01*
X3989698Y973992D01*
X3984718Y986013D01*
X3977490Y996832D01*
X3968289Y1006033D01*
X3957470Y1013262D01*
X3945449Y1018241D01*
X3932687Y1020779D01*
D02*
G37*
G36*
X4541939Y842630D02*
X4528927D01*
X4516166Y840091D01*
X4504144Y835112D01*
X4493325Y827883D01*
X4484125Y818683D01*
X4476896Y807864D01*
X4471917Y795842D01*
X4469378Y783081D01*
Y770069D01*
X4471917Y757307D01*
X4476896Y745286D01*
X4484125Y734467D01*
X4493325Y725267D01*
X4504144Y718038D01*
X4516166Y713058D01*
X4528927Y710520D01*
X4541939D01*
X4554701Y713058D01*
X4566722Y718038D01*
X4577541Y725267D01*
X4586741Y734467D01*
X4593970Y745286D01*
X4598950Y757307D01*
X4601488Y770069D01*
Y783081D01*
X4598950Y795842D01*
X4593970Y807864D01*
X4586741Y818683D01*
X4577541Y827883D01*
X4566722Y835112D01*
X4554701Y840091D01*
X4541939Y842630D01*
D02*
G37*
G36*
X4404144Y841646D02*
X4391132D01*
X4378370Y839107D01*
X4366349Y834128D01*
X4355530Y826899D01*
X4346329Y817698D01*
X4339100Y806879D01*
X4334121Y794858D01*
X4331583Y782096D01*
Y769085D01*
X4334121Y756323D01*
X4339100Y744302D01*
X4346329Y733483D01*
X4355530Y724282D01*
X4366349Y717053D01*
X4378370Y712074D01*
X4391132Y709535D01*
X4404144D01*
X4416905Y712074D01*
X4428927Y717053D01*
X4439745Y724282D01*
X4448946Y733483D01*
X4456175Y744302D01*
X4461154Y756323D01*
X4463693Y769085D01*
Y782096D01*
X4461154Y794858D01*
X4456175Y806879D01*
X4448946Y817698D01*
X4439745Y826899D01*
X4428927Y834128D01*
X4416905Y839107D01*
X4404144Y841646D01*
D02*
G37*
G36*
X144884Y764874D02*
X132675D01*
X120881Y761714D01*
X110308Y755609D01*
X101674Y746976D01*
X95570Y736402D01*
X92409Y724609D01*
Y712399D01*
X95570Y700606D01*
X101674Y690032D01*
X110308Y681399D01*
X120881Y675294D01*
X132675Y672134D01*
X144884D01*
X156678Y675294D01*
X167251Y681399D01*
X175885Y690032D01*
X181990Y700606D01*
X185150Y712399D01*
Y724609D01*
X181990Y736402D01*
X175885Y746976D01*
X167251Y755609D01*
X156678Y761714D01*
X144884Y764874D01*
D02*
G37*
G36*
X3705325Y929244D02*
X3692313D01*
X3679551Y926706D01*
X3667530Y921726D01*
X3656711Y914497D01*
X3647511Y905297D01*
X3640282Y894478D01*
X3635302Y882457D01*
X3632764Y869695D01*
Y856683D01*
X3635302Y843921D01*
X3640282Y831900D01*
X3644516Y825563D01*
Y747388D01*
X3646110Y735283D01*
X3650782Y724003D01*
X3651465Y723113D01*
Y710520D01*
X3663163D01*
X3667901Y706884D01*
X3671904Y705226D01*
Y673975D01*
X3639017Y641088D01*
X1122369D01*
X992457Y771000D01*
X991057Y772075D01*
X989810Y773322D01*
X988283Y774203D01*
X986883Y775278D01*
X985253Y775953D01*
X983725Y776835D01*
X982021Y777292D01*
X980391Y777967D01*
X978643Y778197D01*
X976938Y778654D01*
X975174D01*
X973425Y778884D01*
X971676Y778654D01*
X969912D01*
X968208Y778197D01*
X966459Y777967D01*
X964830Y777292D01*
X963125Y776835D01*
X961598Y775953D01*
X959968Y775278D01*
X958567Y774203D01*
X957040Y773322D01*
X955793Y772075D01*
X954393Y771000D01*
X953319Y769601D01*
X952072Y768354D01*
X951190Y766826D01*
X950116Y765426D01*
X949441Y763796D01*
X948559Y762269D01*
X948102Y760564D01*
X947427Y758935D01*
X947197Y757186D01*
X946740Y755482D01*
Y753718D01*
X946510Y751968D01*
X946740Y750219D01*
Y748455D01*
X947197Y746751D01*
X947427Y745002D01*
X948102Y743373D01*
X948559Y741668D01*
X949441Y740141D01*
X950116Y738511D01*
X951190Y737111D01*
X952072Y735583D01*
X953319Y734336D01*
X954393Y732937D01*
X1092189Y595141D01*
X1097763Y590864D01*
X1104254Y588175D01*
X1111221Y587258D01*
X3650166D01*
X3657132Y588175D01*
X3659821Y589289D01*
X3663624Y590864D01*
X3669198Y595141D01*
X3717851Y643794D01*
X3722128Y649369D01*
X3724817Y655860D01*
X3725734Y662826D01*
Y716111D01*
X3731790Y724003D01*
X3736463Y735283D01*
X3738056Y747388D01*
Y809963D01*
X3740927Y811881D01*
X3750127Y821081D01*
X3757356Y831900D01*
X3762336Y843921D01*
X3764874Y856683D01*
Y869695D01*
X3762336Y882457D01*
X3757356Y894478D01*
X3750127Y905297D01*
X3740927Y914497D01*
X3730108Y921726D01*
X3718087Y926706D01*
X3705325Y929244D01*
D02*
G37*
G36*
X561689Y676291D02*
X550516D01*
X539724Y673400D01*
X530048Y667813D01*
X522148Y659913D01*
X516561Y650237D01*
X513669Y639445D01*
Y628272D01*
X516561Y617480D01*
X522148Y607804D01*
X530048Y599903D01*
X539724Y594317D01*
X550516Y591425D01*
X561689D01*
X572481Y594317D01*
X582157Y599903D01*
X590057Y607804D01*
X595644Y617480D01*
X598535Y628272D01*
Y639445D01*
X595644Y650237D01*
X590057Y659913D01*
X582157Y667813D01*
X572481Y673400D01*
X561689Y676291D01*
D02*
G37*
G36*
X144884Y666449D02*
X132675D01*
X120881Y663289D01*
X110308Y657184D01*
X101674Y648551D01*
X95570Y637977D01*
X92409Y626183D01*
Y613974D01*
X95570Y602181D01*
X101674Y591607D01*
X110308Y582973D01*
X120881Y576869D01*
X132675Y573709D01*
X144884D01*
X156678Y576869D01*
X167251Y582973D01*
X175885Y591607D01*
X181990Y602181D01*
X185150Y613974D01*
Y626183D01*
X181990Y637977D01*
X175885Y648551D01*
X167251Y657184D01*
X156678Y663289D01*
X144884Y666449D01*
D02*
G37*
G36*
X4405128Y688102D02*
X4392116D01*
X4379355Y685564D01*
X4367333Y680585D01*
X4356514Y673356D01*
X4347314Y664155D01*
X4340085Y653336D01*
X4335105Y641315D01*
X4332567Y628553D01*
Y615542D01*
X4335105Y602780D01*
X4340085Y590759D01*
X4347314Y579940D01*
X4356514Y570739D01*
X4367333Y563510D01*
X4379355Y558531D01*
X4392116Y555992D01*
X4405128D01*
X4417890Y558531D01*
X4429911Y563510D01*
X4440730Y570739D01*
X4449930Y579940D01*
X4457159Y590759D01*
X4462139Y602780D01*
X4464677Y615542D01*
Y628553D01*
X4462139Y641315D01*
X4457159Y653336D01*
X4449930Y664155D01*
X4440730Y673356D01*
X4429911Y680585D01*
X4417890Y685564D01*
X4405128Y688102D01*
D02*
G37*
G36*
X4544866Y687270D02*
X4531854D01*
X4519093Y684731D01*
X4507072Y679752D01*
X4496253Y672523D01*
X4487052Y663322D01*
X4479823Y652503D01*
X4474844Y640482D01*
X4472305Y627720D01*
Y614709D01*
X4474844Y601947D01*
X4479823Y589926D01*
X4487052Y579107D01*
X4496253Y569906D01*
X4507072Y562677D01*
X4519093Y557698D01*
X4531854Y555159D01*
X4544866D01*
X4557628Y557698D01*
X4569649Y562677D01*
X4580468Y569906D01*
X4589669Y579107D01*
X4596898Y589926D01*
X4601877Y601947D01*
X4604415Y614709D01*
Y627720D01*
X4601877Y640482D01*
X4596898Y652503D01*
X4589669Y663322D01*
X4580468Y672523D01*
X4569649Y679752D01*
X4557628Y684731D01*
X4544866Y687270D01*
D02*
G37*
G36*
X185150Y568024D02*
X92409D01*
Y475284D01*
X185150D01*
Y568024D01*
D02*
G37*
G36*
X2391843Y489284D02*
X2259732D01*
Y357173D01*
X2391843D01*
Y489284D01*
D02*
G37*
G36*
X734917Y420386D02*
X723744D01*
X712952Y417494D01*
X703276Y411908D01*
X695376Y404007D01*
X689789Y394331D01*
X686898Y383539D01*
Y372366D01*
X689789Y361574D01*
X695376Y351898D01*
X703276Y343998D01*
X712952Y338411D01*
X723744Y335520D01*
X734917D01*
X745709Y338411D01*
X755385Y343998D01*
X763286Y351898D01*
X768872Y361574D01*
X771764Y372366D01*
Y383539D01*
X768872Y394331D01*
X763286Y404007D01*
X755385Y411908D01*
X745709Y417494D01*
X734917Y420386D01*
D02*
G37*
G36*
X3889874Y461724D02*
X3757764D01*
Y329614D01*
X3889874D01*
Y461724D01*
D02*
G37*
G36*
X3568024D02*
X3435914D01*
Y329614D01*
X3568024D01*
Y461724D01*
D02*
G37*
G36*
X1240823Y259953D02*
X1229650D01*
X1218858Y257061D01*
X1209182Y251475D01*
X1201281Y243574D01*
X1195695Y233898D01*
X1192803Y223106D01*
Y211933D01*
X1195695Y201141D01*
X1201281Y191465D01*
X1209182Y183565D01*
X1218858Y177978D01*
X1229650Y175087D01*
X1240823D01*
X1251615Y177978D01*
X1261291Y183565D01*
X1269191Y191465D01*
X1274778Y201141D01*
X1277669Y211933D01*
Y223106D01*
X1274778Y233898D01*
X1269191Y243574D01*
X1261291Y251475D01*
X1251615Y257061D01*
X1240823Y259953D01*
D02*
G37*
G36*
X491854Y857894D02*
X484828D01*
X478041Y856076D01*
X471956Y852563D01*
X466988Y847594D01*
X463474Y841509D01*
X461656Y834722D01*
Y827696D01*
X463474Y820909D01*
X466988Y814824D01*
X468738Y813074D01*
X467915Y806826D01*
X467236Y806433D01*
X462267Y801465D01*
X458754Y795380D01*
X456936Y788593D01*
Y781567D01*
X458754Y774780D01*
X462267Y768695D01*
X467236Y763727D01*
X473321Y760214D01*
X479952Y758437D01*
Y372584D01*
X480954Y367548D01*
X483806Y363279D01*
X567983Y279102D01*
X572252Y276250D01*
X577287Y275248D01*
X765198D01*
X803661Y236785D01*
X801994Y233898D01*
X799102Y223106D01*
Y211933D01*
X801994Y201141D01*
X807581Y191465D01*
X815481Y183565D01*
X825157Y177978D01*
X835949Y175087D01*
X847122D01*
X857914Y177978D01*
X867590Y183565D01*
X875490Y191465D01*
X881077Y201141D01*
X883968Y211933D01*
Y223106D01*
X881077Y233898D01*
X875490Y243574D01*
X867590Y251475D01*
X857914Y257061D01*
X847122Y259953D01*
X835949D01*
X825157Y257061D01*
X822270Y255394D01*
X779953Y297711D01*
X775684Y300563D01*
X770649Y301565D01*
X582738D01*
X553783Y330520D01*
X555854Y335520D01*
X561689D01*
X572481Y338411D01*
X582157Y343998D01*
X590057Y351898D01*
X595644Y361574D01*
X598535Y372366D01*
Y383539D01*
X595644Y394331D01*
X590057Y404007D01*
X582157Y411908D01*
X572481Y417494D01*
X561689Y420386D01*
X550516D01*
X539724Y417494D01*
X530048Y411908D01*
X522148Y404007D01*
X516561Y394331D01*
X513669Y383539D01*
Y380370D01*
X508669Y377923D01*
X506269Y379765D01*
Y770937D01*
X508487Y774780D01*
X510306Y781567D01*
Y788593D01*
X508487Y795380D01*
X504974Y801465D01*
X503224Y803215D01*
X504047Y809464D01*
X504726Y809856D01*
X509694Y814824D01*
X511557Y818051D01*
X571805D01*
X616763Y773093D01*
Y630906D01*
X617765Y625870D01*
X620617Y621601D01*
X908019Y334200D01*
X912288Y331347D01*
X917323Y330346D01*
X1003408D01*
X1098216Y235537D01*
X1097270Y233898D01*
X1094378Y223106D01*
Y211933D01*
X1097270Y201141D01*
X1102856Y191465D01*
X1110757Y183565D01*
X1120433Y177978D01*
X1131225Y175087D01*
X1142398D01*
X1153190Y177978D01*
X1162866Y183565D01*
X1170766Y191465D01*
X1176352Y201141D01*
X1179244Y211933D01*
Y223106D01*
X1176352Y233898D01*
X1170766Y243574D01*
X1162866Y251475D01*
X1153190Y257061D01*
X1142398Y259953D01*
X1131225D01*
X1120433Y257061D01*
X1116297Y254673D01*
X1018163Y352808D01*
X1013894Y355661D01*
X1008858Y356662D01*
X922773D01*
X643080Y636356D01*
Y778543D01*
X642078Y783579D01*
X639226Y787848D01*
X586560Y840514D01*
X582291Y843366D01*
X577255Y844368D01*
X511557D01*
X509694Y847594D01*
X504726Y852563D01*
X498641Y856076D01*
X491854Y857894D01*
D02*
G37*
G36*
X945547Y259953D02*
X934374D01*
X923582Y257061D01*
X913906Y251475D01*
X906006Y243574D01*
X900419Y233898D01*
X897528Y223106D01*
Y211933D01*
X900419Y201141D01*
X906006Y191465D01*
X913906Y183565D01*
X923582Y177978D01*
X934374Y175087D01*
X945547D01*
X956339Y177978D01*
X966015Y183565D01*
X973916Y191465D01*
X979502Y201141D01*
X982394Y211933D01*
Y223106D01*
X979502Y233898D01*
X973916Y243574D01*
X966015Y251475D01*
X956339Y257061D01*
X945547Y259953D01*
D02*
G37*
G36*
X440160Y264874D02*
X427950D01*
X416157Y261714D01*
X405583Y255609D01*
X396950Y246976D01*
X390845Y236402D01*
X387685Y224609D01*
Y212399D01*
X390845Y200606D01*
X396950Y190032D01*
X405583Y181399D01*
X416157Y175294D01*
X427950Y172134D01*
X440160D01*
X451953Y175294D01*
X462527Y181399D01*
X471161Y190032D01*
X477265Y200606D01*
X480425Y212399D01*
Y224609D01*
X477265Y236402D01*
X471161Y246976D01*
X462527Y255609D01*
X451953Y261714D01*
X440160Y264874D01*
D02*
G37*
G36*
X341735D02*
X329525D01*
X317732Y261714D01*
X307158Y255609D01*
X298525Y246976D01*
X292420Y236402D01*
X289260Y224609D01*
Y212399D01*
X292420Y200606D01*
X298525Y190032D01*
X307158Y181399D01*
X317732Y175294D01*
X329525Y172134D01*
X341735D01*
X353528Y175294D01*
X364102Y181399D01*
X372735Y190032D01*
X378840Y200606D01*
X382000Y212399D01*
Y224609D01*
X378840Y236402D01*
X372735Y246976D01*
X364102Y255609D01*
X353528Y261714D01*
X341735Y264874D01*
D02*
G37*
G36*
X243310D02*
X231100D01*
X219307Y261714D01*
X208733Y255609D01*
X200100Y246976D01*
X193995Y236402D01*
X190835Y224609D01*
Y212399D01*
X193995Y200606D01*
X200100Y190032D01*
X208733Y181399D01*
X219307Y175294D01*
X231100Y172134D01*
X243310D01*
X255103Y175294D01*
X265677Y181399D01*
X274310Y190032D01*
X280415Y200606D01*
X283575Y212399D01*
Y224609D01*
X280415Y236402D01*
X274310Y246976D01*
X265677Y255609D01*
X255103Y261714D01*
X243310Y264874D01*
D02*
G37*
G36*
X185150D02*
X92409D01*
Y172134D01*
X185150D01*
Y264874D01*
D02*
G37*
G36*
X2647638Y528980D02*
X2631095Y527678D01*
X2614959Y523804D01*
X2599628Y517453D01*
X2585479Y508783D01*
X2572860Y498006D01*
X2562083Y485387D01*
X2553413Y471238D01*
X2547063Y455907D01*
X2543189Y439772D01*
X2541887Y423228D01*
X2543189Y406685D01*
X2547063Y390550D01*
X2553413Y375218D01*
X2562083Y361069D01*
X2572860Y348451D01*
X2849435Y71876D01*
X2862054Y61099D01*
X2876203Y52429D01*
X2891534Y46078D01*
X2907670Y42204D01*
X2924213Y40902D01*
X4301181D01*
X4317724Y42204D01*
X4333860Y46078D01*
X4349191Y52429D01*
X4363340Y61099D01*
X4375959Y71876D01*
X4481796Y177713D01*
X4533662D01*
X4550205Y179015D01*
X4566340Y182889D01*
X4581672Y189240D01*
X4595820Y197910D01*
X4608439Y208687D01*
X4619216Y221306D01*
X4627886Y235455D01*
X4634237Y250786D01*
X4638111Y266921D01*
X4639413Y283465D01*
X4638111Y300008D01*
X4634237Y316144D01*
X4627886Y331475D01*
X4619216Y345624D01*
X4608439Y358242D01*
X4595820Y369019D01*
X4581672Y377690D01*
X4566340Y384040D01*
X4550205Y387914D01*
X4533662Y389216D01*
X4437992D01*
X4421449Y387914D01*
X4405313Y384040D01*
X4389982Y377690D01*
X4375833Y369019D01*
X4363215Y358242D01*
X4257378Y252405D01*
X2968016D01*
X2722415Y498006D01*
X2709797Y508783D01*
X2695648Y517453D01*
X2680317Y523804D01*
X2664181Y527678D01*
X2647638Y528980D01*
D02*
G37*
%LPD*%
G36*
X3261811Y2577756D02*
X4710630Y2577756D01*
Y2250984D01*
X4255906Y2250984D01*
Y2217520D01*
X4178150Y2139764D01*
X4159449D01*
X4048228Y2250984D01*
X3449803Y2250984D01*
X3395669Y2100394D01*
X3319882Y2100394D01*
X3319882Y2189144D01*
X3258041Y2250984D01*
X3260827Y2578740D01*
X3261811Y2577756D01*
D02*
G37*
D16*
X3581693Y734252D02*
D03*
X3672244D02*
D03*
X2493110Y767716D02*
D03*
X2402559D02*
D03*
D26*
X629921Y630906D02*
Y778543D01*
X917323Y343504D02*
X1008858D01*
X629921Y630906D02*
X917323Y343504D01*
X1091535Y733268D02*
Y737461D01*
X1025847Y803150D02*
X1091535Y737461D01*
X917323Y803150D02*
X1025847D01*
X803150Y917323D02*
X917323Y803150D01*
X803150Y917323D02*
Y1000000D01*
X770649Y288407D02*
X841535Y217520D01*
X1008858Y343504D02*
X1134843Y217520D01*
X1136811D01*
X577255Y831209D02*
X629921Y778543D01*
X488341Y831209D02*
X577255D01*
X483621Y785080D02*
X493110Y775591D01*
Y372584D02*
Y775591D01*
Y372584D02*
X577287Y288407D01*
X770649D01*
D27*
X3333662Y863189D02*
X3551181D01*
X2157480Y890748D02*
X2375000D01*
D31*
X963583Y416339D02*
X1100394Y553150D01*
X3779528D01*
X960630Y416339D02*
X963583D01*
X3779528Y553150D02*
X4597441Y1371063D01*
X4872047D01*
D33*
X2319882Y1497047D02*
X2411417D01*
X1876969Y1054134D02*
X2319882Y1497047D01*
D34*
X2515105Y789711D02*
Y883215D01*
X2522638Y890748D01*
X4166339Y2139764D02*
Y2332677D01*
X4000985Y2508685D02*
Y2508858D01*
X3990157D02*
X4166339Y2332677D01*
X2578416Y996173D02*
X2711180Y1128937D01*
X2478969Y996173D02*
X2578416D01*
X2375000Y892204D02*
X2478969Y996173D01*
X2711180Y1128937D02*
X2877953D01*
X2375000Y890748D02*
Y892204D01*
X2877953Y1128937D02*
X2877953D01*
X3990157Y2508858D02*
X4000985D01*
X3359252Y2428150D02*
X3439961Y2508858D01*
X3359252Y2139764D02*
Y2428150D01*
X3554134Y761811D02*
Y860236D01*
X3551181Y863189D02*
X3554134Y860236D01*
Y761811D02*
X3581693Y734252D01*
X3691286Y747388D02*
Y855656D01*
X3698819Y863189D01*
X2382533Y771995D02*
Y883215D01*
X2375000Y890748D02*
X2382533Y883215D01*
X4158465Y1515748D02*
Y1675197D01*
Y1821851D01*
X3333662Y1009842D02*
X3626969Y1303150D01*
X3945866D02*
X4158465Y1515748D01*
X3626969Y1303150D02*
X3945866D01*
X3297109Y1526575D02*
X4005906D01*
X4058071Y1578740D01*
Y1675197D01*
X3258858Y1953740D02*
Y1989038D01*
X3351378Y1675197D02*
Y1861220D01*
X3258858Y1953740D02*
X3351378Y1861220D01*
X3250984Y1572700D02*
Y1675197D01*
Y1572700D02*
X3297109Y1526575D01*
X3304983Y1942913D02*
X4065945D01*
X3258858Y1989038D02*
Y2139764D01*
Y1989038D02*
X3304983Y1942913D01*
X4065945Y1914370D02*
X4158465Y1821851D01*
X4065945Y1914370D02*
Y2139764D01*
D35*
X3698819Y662826D02*
Y863189D01*
X3650166Y614173D02*
X3698819Y662826D01*
X1111221Y614173D02*
X3650166D01*
X973425Y751968D02*
X1111221Y614173D01*
X1214567Y686024D02*
X2456693D01*
X945866Y954724D02*
X1214567Y686024D01*
X2522638Y751968D02*
Y890748D01*
X2456693Y686024D02*
X2522638Y751968D01*
X1626969Y1016732D02*
Y1285433D01*
X1661417Y977362D02*
Y982283D01*
X1626969Y1016732D02*
X1661417Y982283D01*
D36*
X3040354Y2508858D02*
X3439961D01*
X4301181Y146654D02*
X4437992Y283465D01*
X2877953Y2346457D02*
X3040354Y2508858D01*
X2877953Y1128937D02*
Y2346457D01*
X2877953Y1128937D02*
X3204724Y802165D01*
X3296260D01*
X4437992Y283465D02*
X4533662D01*
X2924213Y146654D02*
X4301181D01*
X2647638Y423228D02*
X2924213Y146654D01*
D39*
X4546260Y2083465D02*
D03*
Y2283465D02*
D03*
D40*
X4669291Y2485236D02*
D03*
X138780Y218504D02*
D03*
D41*
X4669291Y2682087D02*
D03*
X4872047Y1272638D02*
D03*
X138780Y816929D02*
D03*
X532480Y218504D02*
D03*
X434055D02*
D03*
X335630D02*
D03*
X237205D02*
D03*
X138780Y718504D02*
D03*
Y620079D02*
D03*
D42*
X3990157Y2508858D02*
D03*
X3438976Y2745079D02*
D03*
X2750000Y982284D02*
D03*
X2522638Y890748D02*
D03*
X2375000D02*
D03*
X626969Y1285433D02*
D03*
X4398622Y622047D02*
D03*
Y283465D02*
D03*
X3551181Y863189D02*
D03*
X3698819D02*
D03*
X3926181Y954724D02*
D03*
D43*
X2354331Y2729331D02*
D03*
X2557087D02*
D03*
X3031496D02*
D03*
X3234252D02*
D03*
D44*
X2647638Y423228D02*
D03*
X2325787D02*
D03*
X2157480Y1037402D02*
D03*
Y890748D02*
D03*
X3333662Y863189D02*
D03*
Y1009842D02*
D03*
X3501969Y395669D02*
D03*
X3823819D02*
D03*
D45*
X1626969Y1285433D02*
D03*
D47*
X1136811Y217520D02*
D03*
X939961D02*
D03*
X841535D02*
D03*
X1235236D02*
D03*
X1038386D02*
D03*
X729331Y377953D02*
D03*
X556102Y633858D02*
D03*
Y377953D02*
D03*
X729331Y633858D02*
D03*
X4166339Y2139764D02*
D03*
X3359252D02*
D03*
X3451772Y1675197D02*
D03*
X3351378D02*
D03*
X3250984D02*
D03*
X3459646Y2139764D02*
D03*
X3258858D02*
D03*
X4258858Y1675197D02*
D03*
X4158465D02*
D03*
X4058071D02*
D03*
X4266732Y2139764D02*
D03*
X4065945D02*
D03*
D48*
X743110Y217520D02*
D03*
D49*
X4533662Y283465D02*
D03*
X4535433Y776575D02*
D03*
X4397638Y775591D02*
D03*
X4538360Y621215D02*
D03*
X3983268Y2745079D02*
D03*
X3628937D02*
D03*
X3775591D02*
D03*
X3439961Y2508858D02*
D03*
X3628937D02*
D03*
X2556102Y1525591D02*
D03*
X2571850Y1994094D02*
D03*
X4882874Y1990158D02*
D03*
X4878937Y1529528D02*
D03*
D50*
X138780Y521654D02*
D03*
X4872047Y1371063D02*
D03*
D51*
X483621Y785080D02*
D03*
X803150Y1000000D02*
D03*
X488341Y831209D02*
D03*
X3348425Y1803150D02*
D03*
X4061024Y935039D02*
D03*
X4095472Y1020669D02*
D03*
X3943898Y1086614D02*
D03*
X4033465D02*
D03*
X3848425D02*
D03*
X3743110Y1074803D02*
D03*
X3762795Y990158D02*
D03*
X3654528D02*
D03*
X3456693Y725394D02*
D03*
X3046260Y692913D02*
D03*
X3480315Y1846457D02*
D03*
X3610236Y1756890D02*
D03*
X3899606Y1860236D02*
D03*
X3788386Y1858268D02*
D03*
X3638780Y1854331D02*
D03*
X3559055Y1803150D02*
D03*
X3669291Y1786417D02*
D03*
X3745079Y1789370D02*
D03*
X3793307Y1790354D02*
D03*
X3860236Y1785433D02*
D03*
X3838583Y1618110D02*
D03*
X3716535Y1616142D02*
D03*
X3649606Y1615158D02*
D03*
X3874016Y1693898D02*
D03*
X3809055Y1697835D02*
D03*
X3735236D02*
D03*
X3690945Y1694882D02*
D03*
X3605315Y1693898D02*
D03*
X2593504Y737205D02*
D03*
X3646654Y1072835D02*
D03*
X3519685Y996063D02*
D03*
X2548228Y675197D02*
D03*
X2903543Y696850D02*
D03*
X2902559Y779528D02*
D03*
Y869095D02*
D03*
X2050197Y812992D02*
D03*
X2027559Y896654D02*
D03*
Y971457D02*
D03*
X2030512Y1049213D02*
D03*
X960630Y416339D02*
D03*
X973425Y751968D02*
D03*
X1091535Y733268D02*
D03*
X1661417Y977362D02*
D03*
X945866Y954724D02*
D03*
X1876969Y1054134D02*
D03*
X2411417Y1497047D02*
D03*
%TF.MD5,16164571859b3b707175e31e0008f0c0*%
M02*
