%TF.GenerationSoftware,Altium Limited,Altium Designer,21.0.8 (223)*%
G04 Layer_Color=16711935*
%FSLAX26Y26*%
%MOIN*%
%TF.SameCoordinates,3528F89D-DF25-4B87-B81C-8702AA7ACEB5*%
%TF.FilePolarity,Negative*%
%TF.FileFunction,Soldermask,Bot*%
%TF.Part,Single*%
G01*
G75*
%TA.AperFunction,NonConductor*%
%ADD56C,0.118110*%
%ADD57C,0.078740*%
%TA.AperFunction,SMDPad,CuDef*%
%ADD58R,0.035559X0.041465*%
%TA.AperFunction,ComponentPad*%
%ADD59C,0.070992*%
%ADD60R,0.082677X0.082677*%
%ADD61C,0.082677*%
%ADD62C,0.126110*%
%ADD63O,0.070992X0.098551*%
%ADD64R,0.122047X0.122047*%
%ADD65C,0.122047*%
%ADD66C,0.090551*%
%ADD67C,0.078866*%
%ADD68R,0.078866X0.078866*%
%ADD69C,0.074803*%
%TA.AperFunction,ViaPad*%
%ADD70C,0.126110*%
%TA.AperFunction,ComponentPad*%
%ADD71C,0.086740*%
%ADD72R,0.086740X0.086740*%
%ADD73R,0.086740X0.086740*%
%TA.AperFunction,ViaPad*%
%ADD74C,0.047370*%
D56*
X2547244Y1147638D02*
X2802165D01*
X2515748Y1116142D02*
X2547244Y1147638D01*
X2375000Y975394D02*
X2515748Y1116142D01*
X2375000Y890748D02*
Y975394D01*
D57*
X3359252Y2139764D02*
Y2428150D01*
X3434055Y2502953D01*
X3488189Y395669D02*
X3520669D01*
D58*
X3581693Y734252D02*
D03*
X3672244D02*
D03*
X2493110Y767716D02*
D03*
X2402559D02*
D03*
D59*
X4546260Y2083465D02*
D03*
Y2283465D02*
D03*
D60*
X4669291Y2485236D02*
D03*
D61*
Y2682087D02*
D03*
D62*
X3990157Y2508858D02*
D03*
X3438976Y2745079D02*
D03*
X4398622Y622047D02*
D03*
Y283465D02*
D03*
D63*
X2354331Y2729331D02*
D03*
X2557087D02*
D03*
X3031496D02*
D03*
X3234252D02*
D03*
D64*
X2647638Y423228D02*
D03*
X2325787D02*
D03*
X2157480Y1037402D02*
D03*
Y890748D02*
D03*
X3333662Y863189D02*
D03*
Y1009842D02*
D03*
X3501969Y395669D02*
D03*
X3823819D02*
D03*
D65*
X2750000Y982284D02*
D03*
X2522638Y890748D02*
D03*
X2375000D02*
D03*
X626969Y1285433D02*
D03*
X3551181Y863189D02*
D03*
X3698819D02*
D03*
X3926181Y954724D02*
D03*
D66*
X1626969Y1285433D02*
D03*
D67*
X1136811Y217520D02*
D03*
X939961D02*
D03*
X841535D02*
D03*
X1235236D02*
D03*
X1038386D02*
D03*
X4166339Y2139764D02*
D03*
X3359252D02*
D03*
X3451772Y1675197D02*
D03*
X3351378D02*
D03*
X3250984D02*
D03*
X3459646Y2139764D02*
D03*
X3258858D02*
D03*
X4258858Y1675197D02*
D03*
X4158465D02*
D03*
X4058071D02*
D03*
X4266732Y2139764D02*
D03*
X4065945D02*
D03*
D68*
X743110Y217520D02*
D03*
D69*
X729331Y377953D02*
D03*
X556102Y633858D02*
D03*
Y377953D02*
D03*
X729331Y633858D02*
D03*
D70*
X4533662Y283465D02*
D03*
X4535433Y776575D02*
D03*
X4397638Y775591D02*
D03*
X4538360Y621215D02*
D03*
X3983268Y2745079D02*
D03*
X3628937D02*
D03*
X3775591D02*
D03*
X3439961Y2508858D02*
D03*
X3628937D02*
D03*
X2556102Y1525591D02*
D03*
X2571850Y1994094D02*
D03*
X4882874Y1990158D02*
D03*
X4878937Y1529528D02*
D03*
D71*
X4872047Y1272638D02*
D03*
X138780Y816929D02*
D03*
X532480Y218504D02*
D03*
X434055D02*
D03*
X335630D02*
D03*
X237205D02*
D03*
X138780Y718504D02*
D03*
Y620079D02*
D03*
D72*
Y218504D02*
D03*
D73*
Y521654D02*
D03*
X4872047Y1371063D02*
D03*
D74*
X483621Y785080D02*
D03*
X803150Y1000000D02*
D03*
X488341Y831209D02*
D03*
X960630Y416339D02*
D03*
X973425Y751968D02*
D03*
X1091535Y733268D02*
D03*
X1661417Y977362D02*
D03*
X945866Y954724D02*
D03*
X1876969Y1054134D02*
D03*
X2411417Y1497047D02*
D03*
%TF.MD5,feae291f42f23af3f37c110add214f41*%
M02*
