%TF.GenerationSoftware,Altium Limited,Altium Designer,21.0.8 (223)*%
G04 Layer_Color=255*
%FSLAX26Y26*%
%MOIN*%
%TF.SameCoordinates,3528F89D-DF25-4B87-B81C-8702AA7ACEB5*%
%TF.FilePolarity,Positive*%
%TF.FileFunction,Pads,Bot*%
%TF.Part,Single*%
G01*
G75*
%TA.AperFunction,SMDPad,CuDef*%
%ADD16R,0.027559X0.033465*%
%TA.AperFunction,ComponentPad*%
%ADD39C,0.062992*%
%ADD40R,0.078740X0.078740*%
%ADD41C,0.078740*%
%ADD42C,0.118110*%
%ADD43O,0.062992X0.090551*%
%ADD44R,0.118110X0.118110*%
%ADD45C,0.086614*%
%ADD47C,0.070866*%
%ADD48R,0.070866X0.070866*%
%TA.AperFunction,ViaPad*%
%ADD49C,0.118110*%
%TA.AperFunction,ComponentPad*%
%ADD50R,0.078740X0.078740*%
D16*
X3581693Y734252D02*
D03*
X3672244D02*
D03*
X2493110Y767716D02*
D03*
X2402559D02*
D03*
D39*
X4546260Y2083465D02*
D03*
Y2283465D02*
D03*
D40*
X4669291Y2485236D02*
D03*
X138780Y218504D02*
D03*
D41*
X4669291Y2682087D02*
D03*
X4872047Y1272638D02*
D03*
X138780Y816929D02*
D03*
X532480Y218504D02*
D03*
X434055D02*
D03*
X335630D02*
D03*
X237205D02*
D03*
X138780Y718504D02*
D03*
Y620079D02*
D03*
D42*
X3990157Y2508858D02*
D03*
X3438976Y2745079D02*
D03*
X2750000Y982284D02*
D03*
X2522638Y890748D02*
D03*
X2375000D02*
D03*
X626969Y1285433D02*
D03*
X4398622Y622047D02*
D03*
Y283465D02*
D03*
X3551181Y863189D02*
D03*
X3698819D02*
D03*
X3926181Y954724D02*
D03*
D43*
X2354331Y2729331D02*
D03*
X2557087D02*
D03*
X3031496D02*
D03*
X3234252D02*
D03*
D44*
X2647638Y423228D02*
D03*
X2325787D02*
D03*
X2157480Y1037402D02*
D03*
Y890748D02*
D03*
X3333662Y863189D02*
D03*
Y1009842D02*
D03*
X3501969Y395669D02*
D03*
X3823819D02*
D03*
D45*
X1626969Y1285433D02*
D03*
D47*
X1136811Y217520D02*
D03*
X939961D02*
D03*
X841535D02*
D03*
X1235236D02*
D03*
X1038386D02*
D03*
X729331Y377953D02*
D03*
X556102Y633858D02*
D03*
Y377953D02*
D03*
X729331Y633858D02*
D03*
X4166339Y2139764D02*
D03*
X3359252D02*
D03*
X3451772Y1675197D02*
D03*
X3351378D02*
D03*
X3250984D02*
D03*
X3459646Y2139764D02*
D03*
X3258858D02*
D03*
X4258858Y1675197D02*
D03*
X4158465D02*
D03*
X4058071D02*
D03*
X4266732Y2139764D02*
D03*
X4065945D02*
D03*
D48*
X743110Y217520D02*
D03*
D49*
X4533662Y283465D02*
D03*
X4535433Y776575D02*
D03*
X4397638Y775591D02*
D03*
X4538360Y621215D02*
D03*
D50*
X138780Y521654D02*
D03*
X4872047Y1371063D02*
D03*
%TF.MD5,c9205c4a1aee76c6b7316cddebe090e4*%
M02*
