%TF.GenerationSoftware,Altium Limited,Altium Designer,21.0.8 (223)*%
G04 Layer_Color=32896*
%FSLAX26Y26*%
%MOIN*%
%TF.SameCoordinates,3528F89D-DF25-4B87-B81C-8702AA7ACEB5*%
%TF.FilePolarity,Positive*%
%TF.FileFunction,Legend,Bot*%
%TF.Part,Single*%
G01*
G75*
%TA.AperFunction,NonConductor*%
%ADD52C,0.010000*%
%ADD53C,0.019685*%
%ADD54C,0.031496*%
%ADD55C,0.005000*%
D52*
X3613969Y709252D02*
Y759252D01*
X3591969D02*
X3661969D01*
X3591969Y709252D02*
X3661969D01*
X2412835Y742716D02*
X2482835D01*
X2412835Y792716D02*
X2482835D01*
X2434835Y742716D02*
Y792716D01*
X3673015Y855778D02*
Y795797D01*
X3643025D01*
X3633028Y805794D01*
Y845781D01*
X3643025Y855778D01*
X3673015D01*
X3573048D02*
X3613035D01*
Y825787D01*
X3593041Y835784D01*
X3583044D01*
X3573048Y825787D01*
Y805794D01*
X3583044Y795797D01*
X3603038D01*
X3613035Y805794D01*
X2495047Y887650D02*
Y827669D01*
X2465057D01*
X2455060Y837666D01*
Y877653D01*
X2465057Y887650D01*
X2495047D01*
X2405076Y827669D02*
Y887650D01*
X2435067Y857660D01*
X2395080D01*
D53*
X1086811Y178150D02*
Y256890D01*
X988386Y178150D02*
Y256890D01*
X889960Y178150D02*
Y256890D01*
X791535Y178150D02*
Y256890D01*
X1185236Y178150D02*
Y256890D01*
X187992Y183441D02*
Y262181D01*
X286417Y182441D02*
Y261181D01*
X384843Y183441D02*
Y262181D01*
X483268Y183441D02*
Y262181D01*
X95102Y570866D02*
X173843D01*
X96102Y669291D02*
X174843D01*
X95102Y767717D02*
X173843D01*
X4836984Y1321850D02*
X4915725D01*
D54*
X3300984Y1648197D02*
Y1702197D01*
X3401378Y1648197D02*
Y1702197D01*
X3308858Y2112764D02*
Y2166764D01*
X3409252Y2112764D02*
Y2166764D01*
X4108071Y1648197D02*
Y1702197D01*
X4208465Y1648197D02*
Y1702197D01*
X4115945Y2112764D02*
Y2166764D01*
X4216339Y2112764D02*
Y2166764D01*
D55*
X606956Y203515D02*
X583630D01*
Y221010D01*
X595293Y215178D01*
X601124D01*
X606956Y221010D01*
Y232673D01*
X601124Y238504D01*
X589461D01*
X583630Y232673D01*
X79992Y232504D02*
X91655D01*
X85824D01*
Y197515D01*
X79992Y203347D01*
X118780Y887573D02*
X153768D01*
X136274Y870079D01*
Y893405D01*
X124780Y462866D02*
Y474529D01*
Y468698D01*
X159768D01*
X153937Y462866D01*
X4886047Y1429850D02*
Y1418188D01*
Y1424019D01*
X4851059D01*
X4856890Y1429850D01*
X4891047Y1202525D02*
Y1225850D01*
X4867721Y1202525D01*
X4861890D01*
X4856059Y1208356D01*
Y1220019D01*
X4861890Y1225850D01*
%TF.MD5,aaabcd25ddfb0c7ced91d1f00abc2b36*%
M02*
