G04*
G04 #@! TF.GenerationSoftware,Altium Limited,Altium Designer,22.4.2 (48)*
G04*
G04 Layer_Color=8388736*
%FSLAX44Y44*%
%MOMM*%
G71*
G04*
G04 #@! TF.SameCoordinates,66DA3E34-DB1B-427B-9A16-6C510F1B548E*
G04*
G04*
G04 #@! TF.FilePolarity,Negative*
G04*
G01*
G75*
%ADD11C,0.3000*%
%ADD37R,1.0000X1.0000*%
%ADD38O,2.0032X0.8532*%
%ADD39R,2.0032X0.8532*%
%ADD40R,0.9032X1.0532*%
%ADD41R,1.0000X1.0000*%
%ADD42R,1.1000X1.3000*%
%ADD43R,1.1032X1.8032*%
%ADD44R,0.5200X1.7400*%
%ADD45R,1.7400X0.5200*%
%ADD46R,1.6000X1.7000*%
%ADD47R,2.6000X3.5000*%
%ADD48R,1.1532X2.1032*%
%ADD49R,7.0032X7.1032*%
%ADD50R,4.2000X1.9000*%
%ADD51R,1.4032X2.4032*%
%ADD52R,3.8032X2.4032*%
%ADD53R,2.5032X2.7032*%
%ADD54C,2.2032*%
%ADD55R,2.2032X2.2032*%
%ADD56C,1.9032*%
%ADD57R,1.9032X1.9032*%
%ADD58C,2.0032*%
%ADD59R,2.0032X2.0032*%
%ADD60O,2.2032X3.2032*%
%ADD61C,0.7032*%
D11*
X697500Y567500D02*
Y582500D01*
X715000Y567500D02*
Y582500D01*
X735000Y567500D02*
Y582500D01*
X622500Y567500D02*
Y582500D01*
X605000Y567500D02*
Y582500D01*
X587500Y567500D02*
Y582500D01*
X412500Y697500D02*
X420000Y690000D01*
X332500Y697500D02*
X412500D01*
X417500Y715000D02*
X425000Y707500D01*
X332500Y715000D02*
X417500D01*
D37*
X401000Y526500D02*
D03*
Y511500D02*
D03*
Y664500D02*
D03*
Y649500D02*
D03*
Y628500D02*
D03*
Y613500D02*
D03*
X400000Y287500D02*
D03*
Y272500D02*
D03*
X380000D02*
D03*
Y287500D02*
D03*
X360000D02*
D03*
Y272500D02*
D03*
X90000Y587500D02*
D03*
Y572500D02*
D03*
X55000D02*
D03*
Y587500D02*
D03*
X37000Y572500D02*
D03*
Y587500D02*
D03*
X-4000Y572500D02*
D03*
Y587500D02*
D03*
X-21000Y572500D02*
D03*
Y587500D02*
D03*
X-38000Y572500D02*
D03*
Y587500D02*
D03*
X-59000D02*
D03*
Y572500D02*
D03*
X385000Y407500D02*
D03*
Y422500D02*
D03*
X403000Y407500D02*
D03*
Y422500D02*
D03*
X421000D02*
D03*
Y407500D02*
D03*
X367000D02*
D03*
Y422500D02*
D03*
X348000D02*
D03*
Y407500D02*
D03*
X340000Y487500D02*
D03*
Y472500D02*
D03*
X401000Y475500D02*
D03*
Y490500D02*
D03*
X402000Y559500D02*
D03*
Y544500D02*
D03*
Y592500D02*
D03*
Y577500D02*
D03*
X340000Y577500D02*
D03*
Y562500D02*
D03*
Y662500D02*
D03*
Y647500D02*
D03*
D38*
X413000Y311900D02*
D03*
Y324600D02*
D03*
Y337300D02*
D03*
Y350000D02*
D03*
Y362700D02*
D03*
Y375400D02*
D03*
Y388100D02*
D03*
X357000Y311900D02*
D03*
Y324600D02*
D03*
Y337300D02*
D03*
Y350000D02*
D03*
Y362700D02*
D03*
Y375400D02*
D03*
X318000Y630950D02*
D03*
Y643650D02*
D03*
Y656350D02*
D03*
Y669050D02*
D03*
X262000Y630950D02*
D03*
Y643650D02*
D03*
Y656350D02*
D03*
Y481350D02*
D03*
Y468650D02*
D03*
Y455950D02*
D03*
X318000Y494050D02*
D03*
Y481350D02*
D03*
Y468650D02*
D03*
Y455950D02*
D03*
X262000Y571350D02*
D03*
Y558650D02*
D03*
Y545950D02*
D03*
X318000Y584050D02*
D03*
Y571350D02*
D03*
Y558650D02*
D03*
Y545950D02*
D03*
D39*
X357000Y388100D02*
D03*
X262000Y669050D02*
D03*
Y494050D02*
D03*
Y584050D02*
D03*
D40*
X360500Y555000D02*
D03*
X383500D02*
D03*
X360500Y509000D02*
D03*
X383500D02*
D03*
X360500Y474000D02*
D03*
X383500D02*
D03*
X301500Y605000D02*
D03*
X278500D02*
D03*
X301500Y515000D02*
D03*
X278500D02*
D03*
X360500Y572000D02*
D03*
X383500D02*
D03*
X361500Y630000D02*
D03*
X384500D02*
D03*
X361500Y649000D02*
D03*
X384500D02*
D03*
X301500Y690000D02*
D03*
X278500D02*
D03*
D41*
X365500Y492000D02*
D03*
X380500D02*
D03*
X312500Y405000D02*
D03*
X327500D02*
D03*
X312500Y385000D02*
D03*
X327500D02*
D03*
Y365000D02*
D03*
X312500D02*
D03*
Y345000D02*
D03*
X327500D02*
D03*
X312500Y325000D02*
D03*
X327500D02*
D03*
X327500Y309000D02*
D03*
X312500D02*
D03*
X327500Y294000D02*
D03*
X312500D02*
D03*
Y279000D02*
D03*
X327500D02*
D03*
X210500Y336000D02*
D03*
X225500D02*
D03*
X210500Y353000D02*
D03*
X225500D02*
D03*
X210500Y370000D02*
D03*
X225500D02*
D03*
X210500Y386000D02*
D03*
X225500D02*
D03*
X210500Y405000D02*
D03*
X225500D02*
D03*
X210500Y424000D02*
D03*
X225500D02*
D03*
Y442000D02*
D03*
X210500D02*
D03*
X225500Y462000D02*
D03*
X210500D02*
D03*
X225500Y482000D02*
D03*
X210500D02*
D03*
Y500000D02*
D03*
X225500D02*
D03*
X210500Y518000D02*
D03*
X225500D02*
D03*
X210500Y538000D02*
D03*
X225500D02*
D03*
X210500Y558000D02*
D03*
X225500D02*
D03*
X210500Y578000D02*
D03*
X225500D02*
D03*
X210500Y598000D02*
D03*
X225500D02*
D03*
X3500Y396000D02*
D03*
X18500D02*
D03*
Y379000D02*
D03*
X3500D02*
D03*
X18500Y362000D02*
D03*
X3500D02*
D03*
X18500Y425000D02*
D03*
X3500D02*
D03*
Y442000D02*
D03*
X18500D02*
D03*
X365500Y457000D02*
D03*
X380500D02*
D03*
X365500Y540000D02*
D03*
X380500D02*
D03*
X364500Y588000D02*
D03*
X379500D02*
D03*
X365500Y615000D02*
D03*
X380500D02*
D03*
Y665000D02*
D03*
X365500D02*
D03*
D42*
X420000Y269500D02*
D03*
Y290500D02*
D03*
D43*
X286000Y425000D02*
D03*
X254000D02*
D03*
X285000Y395000D02*
D03*
X253000D02*
D03*
X285000Y366000D02*
D03*
X253000D02*
D03*
D44*
X62500Y537000D02*
D03*
X67500D02*
D03*
X72500D02*
D03*
X77500D02*
D03*
X82500D02*
D03*
X87500D02*
D03*
X92500D02*
D03*
X97500D02*
D03*
X102500D02*
D03*
X107500D02*
D03*
X112500D02*
D03*
X117500D02*
D03*
X122500D02*
D03*
X127500D02*
D03*
X132500D02*
D03*
X137500D02*
D03*
Y423000D02*
D03*
X132500D02*
D03*
X127500D02*
D03*
X122500D02*
D03*
X117500D02*
D03*
X112500D02*
D03*
X107500D02*
D03*
X102500D02*
D03*
X97500D02*
D03*
X92500D02*
D03*
X87500D02*
D03*
X82500D02*
D03*
X77500D02*
D03*
X72500D02*
D03*
X67500D02*
D03*
X62500D02*
D03*
D45*
X157000Y517500D02*
D03*
Y512500D02*
D03*
Y507500D02*
D03*
Y502500D02*
D03*
Y497500D02*
D03*
Y492500D02*
D03*
Y487500D02*
D03*
Y482500D02*
D03*
Y477500D02*
D03*
Y472500D02*
D03*
Y467500D02*
D03*
Y462500D02*
D03*
Y457500D02*
D03*
Y452500D02*
D03*
Y447500D02*
D03*
Y442500D02*
D03*
X43000D02*
D03*
Y447500D02*
D03*
Y452500D02*
D03*
Y457500D02*
D03*
Y462500D02*
D03*
Y467500D02*
D03*
Y472500D02*
D03*
Y477500D02*
D03*
Y482500D02*
D03*
Y487500D02*
D03*
Y492500D02*
D03*
Y497500D02*
D03*
Y502500D02*
D03*
Y507500D02*
D03*
Y512500D02*
D03*
Y517500D02*
D03*
D46*
X-20500Y506000D02*
D03*
X-55500D02*
D03*
X-20500Y479000D02*
D03*
X-55500D02*
D03*
D47*
X720500Y422000D02*
D03*
X669500D02*
D03*
X610500D02*
D03*
X559500D02*
D03*
X504500Y421000D02*
D03*
X453500D02*
D03*
D48*
X452000Y463000D02*
D03*
X498000D02*
D03*
X452000Y601500D02*
D03*
X498000D02*
D03*
X608000Y463000D02*
D03*
X562000D02*
D03*
X608000Y603000D02*
D03*
X562000D02*
D03*
X718000Y463000D02*
D03*
X672000D02*
D03*
X718000Y601500D02*
D03*
X672000D02*
D03*
D49*
X475000Y525000D02*
D03*
Y663500D02*
D03*
X585000Y525000D02*
D03*
Y665000D02*
D03*
X695000Y525000D02*
D03*
Y663500D02*
D03*
D50*
X1500Y680000D02*
D03*
X88500D02*
D03*
D51*
X-37000Y696000D02*
D03*
X-60000D02*
D03*
X-83000D02*
D03*
D52*
X-60000Y634000D02*
D03*
D53*
X-124995Y648499D02*
D03*
Y691499D02*
D03*
D54*
X195000Y630000D02*
D03*
X220400D02*
D03*
X169600D02*
D03*
X77600Y373000D02*
D03*
X103000D02*
D03*
D55*
X144200Y630000D02*
D03*
X128400Y373000D02*
D03*
D56*
X-80000Y280000D02*
D03*
X-55000D02*
D03*
X20000D02*
D03*
X45000D02*
D03*
X70000D02*
D03*
X95000D02*
D03*
X170000D02*
D03*
X145000D02*
D03*
X120000D02*
D03*
X-5000D02*
D03*
X-30000D02*
D03*
D57*
X195000D02*
D03*
D58*
X-145000Y307500D02*
D03*
Y332500D02*
D03*
Y357500D02*
D03*
Y382500D02*
D03*
Y282500D02*
D03*
Y565000D02*
D03*
Y540000D02*
D03*
Y515000D02*
D03*
Y490000D02*
D03*
Y590000D02*
D03*
D59*
Y407500D02*
D03*
Y465000D02*
D03*
D60*
X154600Y695000D02*
D03*
X205400D02*
D03*
X534200Y320000D02*
D03*
X585000D02*
D03*
X635800D02*
D03*
D61*
X145000Y397500D02*
D03*
X87179Y550070D02*
D03*
X425000Y290000D02*
D03*
X387500Y272500D02*
D03*
X518893Y656621D02*
D03*
Y663621D02*
D03*
Y670621D02*
D03*
Y677621D02*
D03*
X524893Y656621D02*
D03*
Y663621D02*
D03*
Y670621D02*
D03*
Y677621D02*
D03*
X545893Y656621D02*
D03*
X538893D02*
D03*
X531893D02*
D03*
X545893Y663621D02*
D03*
X538893D02*
D03*
X531893D02*
D03*
X545893Y670621D02*
D03*
X538893D02*
D03*
X531893D02*
D03*
X545893Y677621D02*
D03*
X538893D02*
D03*
X531893D02*
D03*
X531500Y713500D02*
D03*
X538500D02*
D03*
X545500D02*
D03*
X531500Y706500D02*
D03*
X538500D02*
D03*
X545500D02*
D03*
X531500Y699500D02*
D03*
X538500D02*
D03*
X545500D02*
D03*
X531500Y692500D02*
D03*
X538500D02*
D03*
X545500D02*
D03*
X524500Y713500D02*
D03*
Y706500D02*
D03*
Y699500D02*
D03*
Y692500D02*
D03*
X518500Y713500D02*
D03*
Y706500D02*
D03*
Y699500D02*
D03*
Y692500D02*
D03*
X704000Y591000D02*
D03*
Y598000D02*
D03*
Y605000D02*
D03*
Y612000D02*
D03*
X710000Y591000D02*
D03*
Y598000D02*
D03*
Y605000D02*
D03*
Y612000D02*
D03*
X731000Y591000D02*
D03*
X724000D02*
D03*
X717000D02*
D03*
X731000Y598000D02*
D03*
X724000D02*
D03*
X717000D02*
D03*
X731000Y605000D02*
D03*
X724000D02*
D03*
X717000D02*
D03*
X731000Y612000D02*
D03*
X724000D02*
D03*
X717000D02*
D03*
X696000Y537000D02*
D03*
Y544000D02*
D03*
Y551000D02*
D03*
Y558000D02*
D03*
X702000Y537000D02*
D03*
Y544000D02*
D03*
Y551000D02*
D03*
Y558000D02*
D03*
X723000Y537000D02*
D03*
X716000D02*
D03*
X709000D02*
D03*
X723000Y544000D02*
D03*
X716000D02*
D03*
X709000D02*
D03*
X723000Y551000D02*
D03*
X716000D02*
D03*
X709000D02*
D03*
X723000Y558000D02*
D03*
X716000D02*
D03*
X709000D02*
D03*
X596000Y590000D02*
D03*
Y597000D02*
D03*
Y604000D02*
D03*
Y611000D02*
D03*
X602000Y590000D02*
D03*
Y597000D02*
D03*
Y604000D02*
D03*
Y611000D02*
D03*
X623000Y590000D02*
D03*
X616000D02*
D03*
X609000D02*
D03*
X623000Y597000D02*
D03*
X616000D02*
D03*
X609000D02*
D03*
X623000Y604000D02*
D03*
X616000D02*
D03*
X609000D02*
D03*
X623000Y611000D02*
D03*
X616000D02*
D03*
X609000D02*
D03*
X588000Y536000D02*
D03*
Y543000D02*
D03*
Y550000D02*
D03*
Y557000D02*
D03*
X594000Y536000D02*
D03*
Y543000D02*
D03*
Y550000D02*
D03*
Y557000D02*
D03*
X615000Y536000D02*
D03*
X608000D02*
D03*
X601000D02*
D03*
X615000Y543000D02*
D03*
X608000D02*
D03*
X601000D02*
D03*
X615000Y550000D02*
D03*
X608000D02*
D03*
X601000D02*
D03*
X615000Y557000D02*
D03*
X608000D02*
D03*
X601000D02*
D03*
X64000Y455000D02*
D03*
X58000Y448000D02*
D03*
X107000Y409000D02*
D03*
X97000Y408000D02*
D03*
X193000Y436980D02*
D03*
X168000Y434000D02*
D03*
X213000Y420000D02*
D03*
X222000Y390000D02*
D03*
Y357000D02*
D03*
X52251Y442481D02*
D03*
X209000Y382000D02*
D03*
X214000Y333000D02*
D03*
X194020Y349000D02*
D03*
X207000Y353000D02*
D03*
X291000Y425000D02*
D03*
X-21000Y421000D02*
D03*
X59000Y462000D02*
D03*
X72000Y478000D02*
D03*
X71000Y468000D02*
D03*
X62000Y475000D02*
D03*
X59000Y348000D02*
D03*
X51000Y354000D02*
D03*
X36450Y353450D02*
D03*
X0Y428000D02*
D03*
X58000Y493020D02*
D03*
X43791Y346890D02*
D03*
X29000Y492000D02*
D03*
X73000Y519000D02*
D03*
X79000Y510000D02*
D03*
X30412Y345588D02*
D03*
X23000Y516000D02*
D03*
X340000Y422000D02*
D03*
X138000Y412000D02*
D03*
X306090Y309000D02*
D03*
X294000D02*
D03*
X327000Y342000D02*
D03*
X367000Y427000D02*
D03*
X491000Y556000D02*
D03*
X498000D02*
D03*
X505000D02*
D03*
X491000Y549000D02*
D03*
X498000D02*
D03*
X505000D02*
D03*
X491000Y542000D02*
D03*
X498000D02*
D03*
X505000D02*
D03*
X491000Y535000D02*
D03*
X498000D02*
D03*
X505000D02*
D03*
X484000Y556000D02*
D03*
Y549000D02*
D03*
Y542000D02*
D03*
Y535000D02*
D03*
X478000Y556000D02*
D03*
Y549000D02*
D03*
Y542000D02*
D03*
Y535000D02*
D03*
X499000Y610000D02*
D03*
X506000D02*
D03*
X513000D02*
D03*
X499000Y603000D02*
D03*
X506000D02*
D03*
X513000D02*
D03*
X499000Y596000D02*
D03*
X506000D02*
D03*
X513000D02*
D03*
X499000Y589000D02*
D03*
X506000D02*
D03*
X513000D02*
D03*
X492000Y610000D02*
D03*
Y603000D02*
D03*
Y596000D02*
D03*
Y589000D02*
D03*
X486000Y610000D02*
D03*
Y603000D02*
D03*
Y596000D02*
D03*
Y589000D02*
D03*
X426000Y356000D02*
D03*
X569000Y407000D02*
D03*
Y413000D02*
D03*
Y420000D02*
D03*
Y427000D02*
D03*
Y434000D02*
D03*
X534000Y407000D02*
D03*
Y413000D02*
D03*
Y420000D02*
D03*
Y427000D02*
D03*
Y434000D02*
D03*
X540000Y407000D02*
D03*
Y413000D02*
D03*
Y420000D02*
D03*
Y427000D02*
D03*
Y434000D02*
D03*
X561000Y407000D02*
D03*
X554000D02*
D03*
X547000D02*
D03*
X561000Y413000D02*
D03*
X554000D02*
D03*
X547000D02*
D03*
X561000Y420000D02*
D03*
X554000D02*
D03*
X547000D02*
D03*
X561000Y427000D02*
D03*
X554000D02*
D03*
X547000D02*
D03*
X561000Y434000D02*
D03*
X554000D02*
D03*
X547000D02*
D03*
X432000Y557500D02*
D03*
X450000Y593000D02*
D03*
X256000Y454000D02*
D03*
Y545000D02*
D03*
Y629000D02*
D03*
X177000Y507000D02*
D03*
Y481000D02*
D03*
X-13000Y510000D02*
D03*
X93000Y559000D02*
D03*
X46000Y544000D02*
D03*
Y554000D02*
D03*
X11000Y679000D02*
D03*
X-4000Y566090D02*
D03*
X4000Y357000D02*
D03*
X-58000Y592000D02*
D03*
X370000Y350000D02*
D03*
M02*
