G04*
G04 #@! TF.GenerationSoftware,Altium Limited,Altium Designer,20.1.14 (287)*
G04*
G04 Layer_Color=128*
%FSLAX25Y25*%
%MOIN*%
G70*
G04*
G04 #@! TF.SameCoordinates,3184D8B6-75A7-45C6-B4AC-6B65BD642244*
G04*
G04*
G04 #@! TF.FilePolarity,Positive*
G04*
G01*
G75*
%ADD118C,0.00200*%
D118*
X214816Y56500D02*
X218753D01*
X216785Y54532D02*
Y58469D01*
X210590Y65563D02*
X214527D01*
X212558Y63595D02*
Y67532D01*
X223268Y38374D02*
X227205D01*
X225237Y36405D02*
Y40342D01*
X219042Y47437D02*
X222979D01*
X221011Y45469D02*
Y49406D01*
X205527Y22456D02*
X209464D01*
X207496Y20488D02*
Y24425D01*
X212598Y29528D02*
X216535D01*
X214567Y27559D02*
Y31496D01*
X181313Y24282D02*
X185250D01*
X183281Y22313D02*
Y26250D01*
X161994Y29458D02*
X165931D01*
X163963Y27490D02*
Y31427D01*
X171653Y26870D02*
X175591D01*
X173622Y24902D02*
Y28839D01*
X302323Y300401D02*
X306323D01*
X304323Y298401D02*
Y302401D01*
X295252Y307472D02*
X299252D01*
X297252Y305472D02*
Y309472D01*
X252354Y246858D02*
X256291D01*
X254323Y244890D02*
Y248827D01*
X245283Y253929D02*
X249220D01*
X247252Y251961D02*
Y255898D01*
X-5126Y249599D02*
X-1189D01*
X-3157Y247630D02*
Y251567D01*
X-12197Y242528D02*
X-8260D01*
X-10228Y240559D02*
Y244496D01*
X-63827Y306284D02*
X-59827D01*
X-61827Y304284D02*
Y308284D01*
X-70898Y299213D02*
X-66898D01*
X-68898Y297213D02*
Y301213D01*
X19163Y48725D02*
X23494D01*
X21328Y46560D02*
Y50890D01*
X22529Y57974D02*
X26860D01*
X24695Y55809D02*
Y60139D01*
X25896Y67223D02*
X30226D01*
X28061Y65058D02*
Y69388D01*
X32628Y85721D02*
X36959D01*
X34794Y83555D02*
Y87886D01*
X29262Y76472D02*
X33593D01*
X31427Y74306D02*
Y78637D01*
X15797Y39476D02*
X20127D01*
X17962Y37311D02*
Y41641D01*
X79239Y53656D02*
X83176D01*
X81208Y51688D02*
Y55625D01*
X69580Y51068D02*
X73517D01*
X71548Y49100D02*
Y53037D01*
X70858Y40376D02*
X74795D01*
X72827Y38407D02*
Y42344D01*
X80518Y42964D02*
X84455D01*
X82486Y40995D02*
Y44932D01*
X83106Y33305D02*
X87043D01*
X85074Y31336D02*
Y35273D01*
X73447Y30716D02*
X77384D01*
X75415Y28748D02*
Y32685D01*
X63787Y28128D02*
X67724D01*
X65756Y26160D02*
Y30097D01*
X61199Y37788D02*
X65136D01*
X63168Y35819D02*
Y39756D01*
X54128Y25540D02*
X58065D01*
X56097Y23572D02*
Y27509D01*
X51540Y35199D02*
X55477D01*
X53508Y33231D02*
Y37168D01*
X5126Y12591D02*
X9063D01*
X7094Y10622D02*
Y14559D01*
X12197Y5520D02*
X16134D01*
X14165Y3551D02*
Y7488D01*
X-69709Y-59850D02*
X-65709D01*
X-67709Y-61850D02*
Y-57850D01*
X-62638Y-66921D02*
X-58638D01*
X-60638Y-68921D02*
Y-64921D01*
X299583Y-70465D02*
X303583D01*
X301583Y-72465D02*
Y-68465D01*
X306654Y-63394D02*
X310654D01*
X308654Y-65394D02*
Y-61394D01*
X197319Y79020D02*
X200862D01*
X199091Y77248D02*
Y80791D01*
X187319Y79020D02*
X190862D01*
X189091Y77248D02*
Y80791D01*
X197319Y89020D02*
X200862D01*
X199091Y87248D02*
Y90791D01*
X187319Y89020D02*
X190862D01*
X189091Y87248D02*
Y90791D01*
X197319Y99020D02*
X200862D01*
X199091Y97248D02*
Y100791D01*
X187319Y99020D02*
X190862D01*
X189091Y97248D02*
Y100791D01*
X197319Y109020D02*
X200862D01*
X199091Y107248D02*
Y110791D01*
X187319Y109020D02*
X190862D01*
X189091Y107248D02*
Y110791D01*
X197319Y119020D02*
X200862D01*
X199091Y117248D02*
Y120791D01*
X187319Y119020D02*
X190862D01*
X189091Y117248D02*
Y120791D01*
X139173Y112992D02*
X145079D01*
X142126Y110039D02*
Y115945D01*
X124262Y96309D02*
X130167D01*
X127215Y93356D02*
Y99262D01*
X133268Y153150D02*
X139173D01*
X136221Y150197D02*
Y156102D01*
X108465Y132677D02*
X114370D01*
X111417Y129724D02*
Y135630D01*
X191929Y132283D02*
X197835D01*
X194882Y129331D02*
Y135236D01*
X71850Y98032D02*
X77756D01*
X74803Y95079D02*
Y100984D01*
X71850Y116535D02*
X77756D01*
X74803Y113583D02*
Y119488D01*
X222638Y232283D02*
X228543D01*
X225590Y229331D02*
Y235236D01*
X191535Y171653D02*
X197441D01*
X194488Y168701D02*
Y174606D01*
X191535Y153543D02*
X197441D01*
X194488Y150591D02*
Y156496D01*
X222638Y213386D02*
X228543D01*
X225590Y210433D02*
Y216339D01*
X30118Y59941D02*
X31299D01*
X30709Y59350D02*
Y60532D01*
X154528Y37402D02*
X155709D01*
X155118Y36811D02*
Y37992D01*
X158071Y32874D02*
X159252D01*
X158661Y32283D02*
Y33465D01*
X180217Y45374D02*
X181398D01*
X180807Y44783D02*
Y45965D01*
X178429Y40463D02*
X179610D01*
X179019Y39873D02*
Y41054D01*
X177165Y33445D02*
X178347D01*
X177756Y32854D02*
Y34035D01*
X184744Y54823D02*
X185925D01*
X185335Y54232D02*
Y55413D01*
X185945Y36295D02*
X187126D01*
X186535Y35704D02*
Y36885D01*
X185335Y67126D02*
X186516D01*
X185925Y66535D02*
Y67716D01*
X168898Y74410D02*
X170079D01*
X169488Y73819D02*
Y75000D01*
X174311Y79134D02*
X175492D01*
X174902Y78543D02*
Y79724D01*
X195472Y113878D02*
X196653D01*
X196063Y113287D02*
Y114469D01*
X57382Y155413D02*
X58563D01*
X57972Y154823D02*
Y156004D01*
X202756Y145669D02*
X203937D01*
X203346Y145079D02*
Y146260D01*
X168307Y119390D02*
X169488D01*
X168898Y118799D02*
Y119980D01*
X190256Y71063D02*
X191437D01*
X190847Y70472D02*
Y71653D01*
X33399Y41258D02*
X34580D01*
X33990Y40668D02*
Y41849D01*
X61024Y58760D02*
X62205D01*
X61614Y58169D02*
Y59350D01*
X187894Y18996D02*
X189075D01*
X188484Y18406D02*
Y19587D01*
X93878Y42815D02*
X95059D01*
X94468Y42224D02*
Y43406D01*
X97382Y42815D02*
X98563D01*
X97973Y42224D02*
Y43406D01*
X128462Y30925D02*
X129643D01*
X129053Y30335D02*
Y31516D01*
X143996Y29429D02*
X145177D01*
X144587Y28839D02*
Y30020D01*
X97441Y40236D02*
X98622D01*
X98032Y39646D02*
Y40827D01*
X101378Y60374D02*
X102559D01*
X101969Y59784D02*
Y60965D01*
X85728Y59252D02*
X86910D01*
X86319Y58661D02*
Y59842D01*
X119095Y47835D02*
X120276D01*
X119685Y47244D02*
Y48425D01*
X113475Y53561D02*
X114656D01*
X114066Y52970D02*
Y54151D01*
X113671Y55994D02*
X114852D01*
X114261Y55403D02*
Y56584D01*
X113583Y51122D02*
X114764D01*
X114173Y50532D02*
Y51713D01*
X115945Y58268D02*
X117126D01*
X116535Y57677D02*
Y58858D01*
X132334Y47453D02*
X133515D01*
X132925Y46862D02*
Y48043D01*
X231918Y5362D02*
X233100D01*
X232509Y4771D02*
Y5952D01*
X183342Y41654D02*
X184523D01*
X183932Y41063D02*
Y42244D01*
X104757Y44751D02*
X105938D01*
X105348Y44160D02*
Y45341D01*
X124606Y42421D02*
X125787D01*
X125197Y41831D02*
Y43012D01*
X-12500Y-6004D02*
X-11319D01*
X-11909Y-6594D02*
Y-5413D01*
X126378Y82579D02*
X127559D01*
X126969Y81988D02*
Y83169D01*
X171653Y87303D02*
X172835D01*
X172244Y86713D02*
Y87894D01*
X200361Y71509D02*
X201542D01*
X200952Y70918D02*
Y72100D01*
X93209Y62697D02*
X94390D01*
X93799Y62106D02*
Y63287D01*
X43504Y59449D02*
X44685D01*
X44094Y58858D02*
Y60039D01*
X171555Y75886D02*
X172736D01*
X172146Y75295D02*
Y76476D01*
X177953Y81890D02*
X179134D01*
X178543Y81299D02*
Y82480D01*
X115791Y91945D02*
X116972D01*
X116382Y91355D02*
Y92536D01*
X135531Y58268D02*
X136713D01*
X136122Y57677D02*
Y58858D01*
X132382Y58169D02*
X133563D01*
X132972Y57579D02*
Y58760D01*
X129331Y58169D02*
X130512D01*
X129921Y57579D02*
Y58760D01*
X125492Y57972D02*
X126673D01*
X126083Y57382D02*
Y58563D01*
X135630Y62106D02*
X136811D01*
X136221Y61516D02*
Y62697D01*
X132071Y61972D02*
X133252D01*
X132661Y61382D02*
Y62563D01*
X129078Y61972D02*
X130259D01*
X129669Y61382D02*
Y62563D01*
X125591Y62008D02*
X126772D01*
X126181Y61417D02*
Y62598D01*
X135925Y65748D02*
X137106D01*
X136516Y65158D02*
Y66339D01*
X132287Y66049D02*
X133468D01*
X132878Y65459D02*
Y66640D01*
X129429Y65551D02*
X130610D01*
X130020Y64961D02*
Y66142D01*
X125787Y65551D02*
X126969D01*
X126378Y64961D02*
Y66142D01*
X135728Y68996D02*
X136909D01*
X136319Y68405D02*
Y69587D01*
X132283Y68996D02*
X133465D01*
X132874Y68405D02*
Y69587D01*
X129134Y68898D02*
X130315D01*
X129724Y68307D02*
Y69488D01*
X125787Y68996D02*
X126969D01*
X126378Y68405D02*
Y69587D01*
X147560Y68368D02*
X148741D01*
X148150Y67778D02*
Y68959D01*
X21457Y27854D02*
X22638D01*
X22047Y27264D02*
Y28445D01*
X89961Y52264D02*
X91142D01*
X90551Y51673D02*
Y52854D01*
X22343Y225295D02*
X23524D01*
X22933Y224705D02*
Y225886D01*
X198228Y43110D02*
X199409D01*
X198819Y42520D02*
Y43701D01*
X167520Y50492D02*
X168701D01*
X168110Y49902D02*
Y51083D01*
X95725Y88541D02*
X96906D01*
X96315Y87950D02*
Y89131D01*
X98285Y82217D02*
X99466D01*
X98875Y81626D02*
Y82808D01*
X89173Y80905D02*
X90354D01*
X89764Y80315D02*
Y81496D01*
X107874Y59941D02*
X109055D01*
X108465Y59350D02*
Y60532D01*
X108760Y44783D02*
X109941D01*
X109350Y44193D02*
Y45374D01*
X97194Y71933D02*
X98375D01*
X97785Y71342D02*
Y72523D01*
X143171Y48248D02*
X144352D01*
X143761Y47657D02*
Y48839D01*
X141929Y44390D02*
X143110D01*
X142520Y43799D02*
Y44980D01*
X141240Y50098D02*
X142421D01*
X141831Y49508D02*
Y50689D01*
X190157Y52067D02*
X191339D01*
X190748Y51476D02*
Y52658D01*
X192806Y60174D02*
X193987D01*
X193396Y59583D02*
Y60764D01*
X188484Y67716D02*
X189665D01*
X189075Y67126D02*
Y68307D01*
X194980Y66831D02*
X196161D01*
X195571Y66240D02*
Y67421D01*
X182874Y72342D02*
X184055D01*
X183465Y71752D02*
Y72933D01*
X176575Y74803D02*
X177756D01*
X177165Y74213D02*
Y75394D01*
X156299Y62402D02*
X157480D01*
X156890Y61811D02*
Y62992D01*
X152264Y55709D02*
X153445D01*
X152854Y55118D02*
Y56299D01*
X152103Y60945D02*
X153284D01*
X152694Y60354D02*
Y61535D01*
X149134Y57776D02*
X150315D01*
X149724Y57186D02*
Y58367D01*
X160146Y64865D02*
X161327D01*
X160736Y64275D02*
Y65456D01*
X164933Y68504D02*
X166114D01*
X165523Y67913D02*
Y69095D01*
X131595Y120669D02*
X132776D01*
X132185Y120079D02*
Y121260D01*
X137735Y120650D02*
X138916D01*
X138326Y120059D02*
Y121240D01*
X135433Y100492D02*
X136614D01*
X136024Y99902D02*
Y101083D01*
Y91240D02*
X137205D01*
X136614Y90650D02*
Y91831D01*
X126575Y121653D02*
X127756D01*
X127165Y121063D02*
Y122244D01*
X152559Y83071D02*
X153740D01*
X153150Y82480D02*
Y83661D01*
X96189Y124391D02*
X97370D01*
X96780Y123801D02*
Y124982D01*
X135950Y78966D02*
X137131D01*
X136540Y78376D02*
Y79557D01*
X136024Y85138D02*
X137205D01*
X136614Y84547D02*
Y85728D01*
X130346Y76955D02*
X131527D01*
X130937Y76365D02*
Y77546D01*
X147244Y93898D02*
X148425D01*
X147835Y93307D02*
Y94488D01*
X141142Y91043D02*
X142323D01*
X141732Y90453D02*
Y91634D01*
X149543Y28588D02*
X150724D01*
X150134Y27997D02*
Y29179D01*
X138091Y28937D02*
X139272D01*
X138681Y28346D02*
Y29528D01*
X120669Y152067D02*
X121850D01*
X121260Y151476D02*
Y152657D01*
X152165Y171260D02*
X153347D01*
X152756Y170669D02*
Y171850D01*
X59153Y76378D02*
X60335D01*
X59744Y75787D02*
Y76968D01*
X45866Y54134D02*
X47047D01*
X46457Y53543D02*
Y54724D01*
X29035Y26870D02*
X30217D01*
X29626Y26280D02*
Y27461D01*
X148760Y41636D02*
X149941D01*
X149350Y41045D02*
Y42226D01*
X159426Y53405D02*
X160608D01*
X160017Y52815D02*
Y53996D01*
X148819Y38386D02*
X150000D01*
X149409Y37795D02*
Y38976D01*
X162500Y50591D02*
X163681D01*
X163091Y50000D02*
Y51181D01*
X186319Y60925D02*
X187500D01*
X186909Y60335D02*
Y61516D01*
X145177Y52165D02*
X146358D01*
X145768Y51575D02*
Y52756D01*
X84547Y77165D02*
X85728D01*
X85138Y76575D02*
Y77756D01*
X83465Y63090D02*
X84646D01*
X84055Y62500D02*
Y63681D01*
X94824Y40360D02*
X96006D01*
X95415Y39769D02*
Y40951D01*
X126870Y47244D02*
X128051D01*
X127461Y46654D02*
Y47835D01*
X147047Y33366D02*
X148228D01*
X147638Y32776D02*
Y33957D01*
X152559Y46063D02*
X153740D01*
X153150Y45472D02*
Y46654D01*
X133858Y41831D02*
X135039D01*
X134449Y41240D02*
Y42421D01*
X139173Y46457D02*
X140354D01*
X139764Y45866D02*
Y47047D01*
X135925Y45965D02*
X137106D01*
X136516Y45374D02*
Y46555D01*
X113287Y43799D02*
X114469D01*
X113878Y43209D02*
Y44390D01*
X100886Y43996D02*
X102067D01*
X101476Y43406D02*
Y44587D01*
X150787Y75000D02*
X151969D01*
X151378Y74410D02*
Y75590D01*
X150886Y79626D02*
X152067D01*
X151476Y79035D02*
Y80216D01*
X149114Y88779D02*
X150295D01*
X149705Y88189D02*
Y89370D01*
X112303Y76968D02*
X113484D01*
X112894Y76378D02*
Y77559D01*
X113406Y67154D02*
X114587D01*
X113996Y66563D02*
Y67744D01*
X119829Y73228D02*
X121010D01*
X120420Y72638D02*
Y73819D01*
X140256Y78445D02*
X141437D01*
X140847Y77854D02*
Y79035D01*
X141437Y74902D02*
X142618D01*
X142028Y74311D02*
Y75492D01*
X152165Y69291D02*
X153347D01*
X152756Y68701D02*
Y69882D01*
X161221Y74803D02*
X162402D01*
X161811Y74212D02*
Y75394D01*
X163779Y79528D02*
X164961D01*
X164370Y78937D02*
Y80118D01*
X175512Y45158D02*
X176693D01*
X176102Y44567D02*
Y45748D01*
X147441Y55905D02*
X148622D01*
X148031Y55315D02*
Y56496D01*
X174213Y63386D02*
X175394D01*
X174803Y62795D02*
Y63976D01*
X119488Y168898D02*
X121457D01*
X120472Y167913D02*
Y169882D01*
X89961Y158268D02*
X91929D01*
X90945Y157283D02*
Y159252D01*
X164496Y82659D02*
X165677D01*
X165087Y82069D02*
Y83250D01*
X164102Y87777D02*
X165284D01*
X164693Y87187D02*
Y88368D01*
X164496Y92502D02*
X165677D01*
X165087Y91911D02*
Y93092D01*
X87008Y109843D02*
X90945D01*
X88976Y107874D02*
Y111811D01*
X113824Y64325D02*
X115005D01*
X114415Y63735D02*
Y64916D01*
X147441Y70866D02*
X148622D01*
X148031Y70276D02*
Y71457D01*
X147835Y59842D02*
X149016D01*
X148425Y59252D02*
Y60433D01*
X146260Y63386D02*
X147441D01*
X146850Y62795D02*
Y63976D01*
X199409Y194488D02*
X200591D01*
X200000Y193898D02*
Y195079D01*
X243504Y231496D02*
X244685D01*
X244094Y230906D02*
Y232087D01*
X591Y225197D02*
X1772D01*
X1181Y224606D02*
Y225787D01*
X42323Y166535D02*
X43504D01*
X42913Y165945D02*
Y167126D01*
X74606Y191339D02*
X75787D01*
X75197Y190748D02*
Y191929D01*
X60039Y184252D02*
X61221D01*
X60630Y183661D02*
Y184843D01*
X59646Y179134D02*
X61614D01*
X60630Y178150D02*
Y180118D01*
X72244Y196457D02*
X73425D01*
X72835Y195866D02*
Y197047D01*
X26575Y172047D02*
X28543D01*
X27559Y171063D02*
Y173031D01*
X225394Y201181D02*
X226575D01*
X225984Y200591D02*
Y201772D01*
X60433Y199606D02*
X62402D01*
X61417Y198622D02*
Y200591D01*
X40354Y153150D02*
X42323D01*
X41339Y152165D02*
Y154134D01*
X-34843Y266142D02*
X-20276D01*
X-27559Y258858D02*
Y273425D01*
X257677Y266142D02*
X272244D01*
X264961Y258858D02*
Y273425D01*
X257677Y-26772D02*
X272244D01*
X264961Y-34055D02*
Y-19488D01*
X-34843Y-26772D02*
X-20276D01*
X-27559Y-34055D02*
Y-19488D01*
M02*
