G04*
G04 #@! TF.GenerationSoftware,Altium Limited,Altium Designer,20.1.14 (287)*
G04*
G04 Layer_Color=8388736*
%FSLAX25Y25*%
%MOIN*%
G70*
G04*
G04 #@! TF.SameCoordinates,3184D8B6-75A7-45C6-B4AC-6B65BD642244*
G04*
G04*
G04 #@! TF.FilePolarity,Negative*
G04*
G01*
G75*
%ADD50R,0.04343X0.04343*%
%ADD51R,0.03937X0.03937*%
G04:AMPARAMS|DCode=52|XSize=12.99mil|YSize=35.43mil|CornerRadius=4.23mil|HoleSize=0mil|Usage=FLASHONLY|Rotation=270.000|XOffset=0mil|YOffset=0mil|HoleType=Round|Shape=RoundedRectangle|*
%AMROUNDEDRECTD52*
21,1,0.01299,0.02697,0,0,270.0*
21,1,0.00453,0.03543,0,0,270.0*
1,1,0.00847,-0.01348,-0.00226*
1,1,0.00847,-0.01348,0.00226*
1,1,0.00847,0.01348,0.00226*
1,1,0.00847,0.01348,-0.00226*
%
%ADD52ROUNDEDRECTD52*%
G04:AMPARAMS|DCode=53|XSize=12.99mil|YSize=35.43mil|CornerRadius=4.23mil|HoleSize=0mil|Usage=FLASHONLY|Rotation=180.000|XOffset=0mil|YOffset=0mil|HoleType=Round|Shape=RoundedRectangle|*
%AMROUNDEDRECTD53*
21,1,0.01299,0.02697,0,0,180.0*
21,1,0.00453,0.03543,0,0,180.0*
1,1,0.00847,-0.00226,0.01348*
1,1,0.00847,0.00226,0.01348*
1,1,0.00847,0.00226,-0.01348*
1,1,0.00847,-0.00226,-0.01348*
%
%ADD53ROUNDEDRECTD53*%
G04:AMPARAMS|DCode=54|XSize=161.42mil|YSize=161.42mil|CornerRadius=5.91mil|HoleSize=0mil|Usage=FLASHONLY|Rotation=0.000|XOffset=0mil|YOffset=0mil|HoleType=Round|Shape=RoundedRectangle|*
%AMROUNDEDRECTD54*
21,1,0.16142,0.14961,0,0,0.0*
21,1,0.14961,0.16142,0,0,0.0*
1,1,0.01181,0.07480,-0.07480*
1,1,0.01181,-0.07480,-0.07480*
1,1,0.01181,-0.07480,0.07480*
1,1,0.01181,0.07480,0.07480*
%
%ADD54ROUNDEDRECTD54*%
%ADD55R,0.04343X0.04343*%
%ADD56R,0.06693X0.06299*%
%ADD57R,0.04147X0.04737*%
G04:AMPARAMS|DCode=58|XSize=47.37mil|YSize=47.37mil|CornerRadius=0mil|HoleSize=0mil|Usage=FLASHONLY|Rotation=225.000|XOffset=0mil|YOffset=0mil|HoleType=Round|Shape=Rectangle|*
%AMROTATEDRECTD58*
4,1,4,0.00000,0.03350,0.03350,0.00000,0.00000,-0.03350,-0.03350,0.00000,0.00000,0.03350,0.0*
%
%ADD58ROTATEDRECTD58*%

%ADD59P,0.06142X4X180.0*%
%ADD60R,0.10236X0.13780*%
%ADD61R,0.04540X0.08280*%
%ADD62R,0.27572X0.27965*%
%ADD63R,0.03937X0.03937*%
G04:AMPARAMS|DCode=64|XSize=47.37mil|YSize=47.37mil|CornerRadius=0mil|HoleSize=0mil|Usage=FLASHONLY|Rotation=315.000|XOffset=0mil|YOffset=0mil|HoleType=Round|Shape=Rectangle|*
%AMROTATEDRECTD64*
4,1,4,-0.03350,0.00000,0.00000,0.03350,0.03350,0.00000,0.00000,-0.03350,-0.03350,0.00000,0.0*
%
%ADD64ROTATEDRECTD64*%

%ADD65R,0.04737X0.04737*%
%ADD66R,0.09855X0.10642*%
%ADD67R,0.05524X0.09461*%
%ADD68R,0.14973X0.09461*%
%ADD69P,0.06142X4X90.0*%
%ADD70R,0.07099X0.04343*%
%ADD71R,0.07480X0.16535*%
%ADD72P,0.06142X4X300.0*%
%ADD73R,0.05603X0.16548*%
%ADD74R,0.37808X0.33477*%
%ADD75C,0.08674*%
%ADD76P,0.12267X4X250.0*%
%ADD77P,0.12267X4X360.0*%
%ADD78P,0.12267X4X120.0*%
%ADD79C,0.07087*%
%ADD80P,0.12267X4X90.0*%
%ADD81C,0.07887*%
%ADD82P,0.11153X4X295.0*%
%ADD83P,0.12267X4X150.0*%
%ADD84R,0.06706X0.06706*%
%ADD85C,0.06706*%
%ADD86C,0.12611*%
%ADD87C,0.02769*%
%ADD88C,0.04737*%
%ADD89C,0.17729*%
D50*
X113779Y79724D02*
D03*
Y85630D02*
D03*
X109449Y79724D02*
D03*
Y85630D02*
D03*
X127953Y86811D02*
D03*
Y80905D02*
D03*
X132283Y86811D02*
D03*
Y80905D02*
D03*
X136516Y88779D02*
D03*
Y82874D02*
D03*
X146457Y88779D02*
D03*
Y82874D02*
D03*
X159449Y54035D02*
D03*
Y59941D02*
D03*
X168110D02*
D03*
Y54035D02*
D03*
X172441D02*
D03*
Y59941D02*
D03*
Y41339D02*
D03*
Y47244D02*
D03*
X168110Y47244D02*
D03*
Y41339D02*
D03*
X163779Y47244D02*
D03*
Y41339D02*
D03*
X159449Y47244D02*
D03*
Y41339D02*
D03*
X155118Y47244D02*
D03*
Y41339D02*
D03*
X142323Y42323D02*
D03*
Y36417D02*
D03*
X136811Y42224D02*
D03*
Y36319D02*
D03*
X129921D02*
D03*
Y42224D02*
D03*
X119685Y40157D02*
D03*
Y34252D02*
D03*
X115354D02*
D03*
Y40157D02*
D03*
X110630D02*
D03*
Y34252D02*
D03*
X106299D02*
D03*
Y40157D02*
D03*
X101969D02*
D03*
Y34252D02*
D03*
X105709Y46457D02*
D03*
Y52362D02*
D03*
X101378D02*
D03*
Y46457D02*
D03*
X97047Y52362D02*
D03*
Y46457D02*
D03*
X92716D02*
D03*
Y52362D02*
D03*
X101969Y62008D02*
D03*
Y67913D02*
D03*
D51*
X104724Y79724D02*
D03*
Y85630D02*
D03*
X123622Y80905D02*
D03*
Y86811D02*
D03*
X141831Y82776D02*
D03*
Y88681D02*
D03*
X163779Y54035D02*
D03*
Y59941D02*
D03*
X110039Y52362D02*
D03*
Y46457D02*
D03*
X110630Y67913D02*
D03*
Y62008D02*
D03*
X106299Y67913D02*
D03*
Y62008D02*
D03*
X97638D02*
D03*
Y67913D02*
D03*
X93307D02*
D03*
Y62008D02*
D03*
X75590Y80905D02*
D03*
Y86811D02*
D03*
D52*
X143701Y64961D02*
D03*
Y63386D02*
D03*
Y61811D02*
D03*
Y60236D02*
D03*
Y58661D02*
D03*
Y66535D02*
D03*
Y68110D02*
D03*
Y69685D02*
D03*
Y71260D02*
D03*
Y57087D02*
D03*
Y55512D02*
D03*
Y53937D02*
D03*
X120079D02*
D03*
Y55512D02*
D03*
Y57087D02*
D03*
Y58661D02*
D03*
Y60236D02*
D03*
Y61811D02*
D03*
Y63386D02*
D03*
Y69685D02*
D03*
Y68110D02*
D03*
Y66535D02*
D03*
Y64961D02*
D03*
Y71260D02*
D03*
D53*
X140551Y50787D02*
D03*
X132677D02*
D03*
X134252D02*
D03*
X135827D02*
D03*
X137402D02*
D03*
X138976D02*
D03*
X124803D02*
D03*
X123228D02*
D03*
X126378D02*
D03*
X127953D02*
D03*
X129528D02*
D03*
X131102D02*
D03*
X132677Y74409D02*
D03*
X134252D02*
D03*
X135827D02*
D03*
X137402D02*
D03*
X140551D02*
D03*
X138976D02*
D03*
X124803D02*
D03*
X126378D02*
D03*
X127953D02*
D03*
X129528D02*
D03*
X131102D02*
D03*
X123228D02*
D03*
D54*
X131890Y62598D02*
D03*
D55*
X161024Y92520D02*
D03*
X155118D02*
D03*
X161024Y88189D02*
D03*
X155118D02*
D03*
X161024Y83858D02*
D03*
X155118D02*
D03*
X161024Y79528D02*
D03*
X155118D02*
D03*
X161024Y75197D02*
D03*
X155118D02*
D03*
X161024Y68110D02*
D03*
X155118D02*
D03*
X101772Y162992D02*
D03*
X95866D02*
D03*
X118307D02*
D03*
X112402D02*
D03*
X129331Y162992D02*
D03*
X123425D02*
D03*
X151378Y158268D02*
D03*
X145472D02*
D03*
X163189D02*
D03*
X157283D02*
D03*
X180512Y162992D02*
D03*
X174606D02*
D03*
X212008Y201575D02*
D03*
X206102D02*
D03*
X222638Y201575D02*
D03*
X216732D02*
D03*
X222638Y196850D02*
D03*
X216732D02*
D03*
X201378Y201575D02*
D03*
X195472D02*
D03*
X84842Y187008D02*
D03*
X78937D02*
D03*
Y191732D02*
D03*
X84842D02*
D03*
D56*
X180709Y49803D02*
D03*
Y63583D02*
D03*
D57*
X208661Y77756D02*
D03*
Y91535D02*
D03*
D58*
X206077Y46628D02*
D03*
X209557Y37859D02*
D03*
X200787Y41339D02*
D03*
X6522Y235262D02*
D03*
X3042Y244031D02*
D03*
X11811Y240551D02*
D03*
D59*
X197244Y29134D02*
D03*
X193068Y33310D02*
D03*
X201181Y32283D02*
D03*
X197005Y36459D02*
D03*
X250787Y236614D02*
D03*
X246612Y240790D02*
D03*
X247244Y233465D02*
D03*
X243068Y237640D02*
D03*
D60*
X179724Y103937D02*
D03*
X159646D02*
D03*
X147441D02*
D03*
X127362D02*
D03*
X114764D02*
D03*
X94685D02*
D03*
D61*
X96063Y116142D02*
D03*
X114173D02*
D03*
X128347Y115551D02*
D03*
X146457D02*
D03*
X160630Y115945D02*
D03*
X178740D02*
D03*
X157480Y171457D02*
D03*
X175591D02*
D03*
X124016Y170866D02*
D03*
X142126D02*
D03*
X94488D02*
D03*
X112598D02*
D03*
D62*
X105118Y140551D02*
D03*
X137402Y139961D02*
D03*
X169685Y140354D02*
D03*
X166535Y195866D02*
D03*
X133071Y195276D02*
D03*
X103543D02*
D03*
D63*
X95866Y158268D02*
D03*
X101772D02*
D03*
X112402Y157874D02*
D03*
X118307D02*
D03*
X123425Y158071D02*
D03*
X129331D02*
D03*
X157283Y163386D02*
D03*
X163189D02*
D03*
X145472Y162992D02*
D03*
X151378D02*
D03*
X174606Y158268D02*
D03*
X180512D02*
D03*
X78740Y200394D02*
D03*
X84646D02*
D03*
X78937Y196063D02*
D03*
X84842D02*
D03*
X63583Y187008D02*
D03*
X69488D02*
D03*
Y191732D02*
D03*
X63583D02*
D03*
X72638Y200000D02*
D03*
X66732D02*
D03*
X72638Y205512D02*
D03*
X66732D02*
D03*
X81693Y128347D02*
D03*
X75787D02*
D03*
D64*
X232876Y245645D02*
D03*
X241645Y249125D02*
D03*
X238165Y240356D02*
D03*
X24998Y21677D02*
D03*
X16229Y18198D02*
D03*
X19709Y26967D02*
D03*
D65*
X212008Y196850D02*
D03*
X208268Y188189D02*
D03*
X204528Y196850D02*
D03*
D66*
X207872Y227756D02*
D03*
Y210827D02*
D03*
D67*
X84646Y179134D02*
D03*
X75590D02*
D03*
X66536D02*
D03*
D68*
X75590Y154724D02*
D03*
D69*
X-1300Y227833D02*
D03*
X2875Y232009D02*
D03*
X-2243Y237127D02*
D03*
X-6419Y232951D02*
D03*
X33978Y22560D02*
D03*
X29802Y18384D02*
D03*
X21928Y10510D02*
D03*
X26104Y14686D02*
D03*
D70*
X83465Y146063D02*
D03*
Y133465D02*
D03*
X75197D02*
D03*
Y146063D02*
D03*
X66535D02*
D03*
Y133465D02*
D03*
D71*
X41339Y111221D02*
D03*
Y145472D02*
D03*
D72*
X31519Y51085D02*
D03*
X33048Y56789D02*
D03*
X36244Y49904D02*
D03*
X37772Y55608D02*
D03*
D73*
X47402Y167589D02*
D03*
X27402D02*
D03*
D74*
X37402Y208789D02*
D03*
D75*
X216785Y56500D02*
D03*
X212558Y65563D02*
D03*
X221011Y47437D02*
D03*
X207496Y22456D02*
D03*
X183281Y24282D02*
D03*
X173622Y26870D02*
D03*
X254323Y246858D02*
D03*
X-3157Y249599D02*
D03*
X81208Y53656D02*
D03*
X72827Y40376D02*
D03*
X85074Y33305D02*
D03*
X75415Y30716D02*
D03*
X65756Y28128D02*
D03*
X63168Y37788D02*
D03*
X56097Y25540D02*
D03*
X53508Y35199D02*
D03*
X7094Y12591D02*
D03*
X88976Y109843D02*
D03*
D76*
X225237Y38374D02*
D03*
D77*
X214567Y29528D02*
D03*
X-10228Y242528D02*
D03*
D78*
X163963Y29458D02*
D03*
D79*
X304323Y300401D02*
D03*
X297252Y307472D02*
D03*
X-61827Y306284D02*
D03*
X-68898Y299213D02*
D03*
X-67709Y-59850D02*
D03*
X-60638Y-66921D02*
D03*
X301583Y-70465D02*
D03*
X308654Y-63394D02*
D03*
D80*
X247252Y253929D02*
D03*
X14165Y5520D02*
D03*
D81*
X21328Y48725D02*
D03*
X24695Y57974D02*
D03*
X28061Y67223D02*
D03*
X31427Y76472D02*
D03*
X17962Y39476D02*
D03*
D82*
X34794Y85721D02*
D03*
D83*
X71548Y51068D02*
D03*
X82486Y42964D02*
D03*
D84*
X199091Y79020D02*
D03*
D85*
X189091D02*
D03*
X199091Y89020D02*
D03*
X189091D02*
D03*
X199091Y99020D02*
D03*
X189091D02*
D03*
X199091Y109020D02*
D03*
X189091D02*
D03*
X199091Y119020D02*
D03*
X189091D02*
D03*
D86*
X142126Y112992D02*
D03*
X127215Y96309D02*
D03*
X136221Y153150D02*
D03*
X111417Y132677D02*
D03*
X194882Y132283D02*
D03*
X74803Y98032D02*
D03*
Y116535D02*
D03*
X225590Y232283D02*
D03*
X194488Y171653D02*
D03*
Y153543D02*
D03*
X225590Y213386D02*
D03*
D87*
X30709Y59941D02*
D03*
X155118Y37402D02*
D03*
X158661Y32874D02*
D03*
X180807Y45374D02*
D03*
X179019Y40463D02*
D03*
X177756Y33445D02*
D03*
X185335Y54823D02*
D03*
X186535Y36295D02*
D03*
X185925Y67126D02*
D03*
X169488Y74410D02*
D03*
X174902Y79134D02*
D03*
X196063Y113878D02*
D03*
X57972Y155413D02*
D03*
X203346Y145669D02*
D03*
X168898Y119390D02*
D03*
X190847Y71063D02*
D03*
X33990Y41258D02*
D03*
X61614Y58760D02*
D03*
X188484Y18996D02*
D03*
X94468Y42815D02*
D03*
X97973D02*
D03*
X129053Y30925D02*
D03*
X144587Y29429D02*
D03*
X98032Y40236D02*
D03*
X101969Y60374D02*
D03*
X86319Y59252D02*
D03*
X119685Y47835D02*
D03*
X114066Y53561D02*
D03*
X114261Y55994D02*
D03*
X114173Y51122D02*
D03*
X116535Y58268D02*
D03*
X132925Y47453D02*
D03*
X232509Y5362D02*
D03*
X183932Y41654D02*
D03*
X105348Y44751D02*
D03*
X125197Y42421D02*
D03*
X-11909Y-6004D02*
D03*
X126969Y82579D02*
D03*
X172244Y87303D02*
D03*
X200952Y71509D02*
D03*
X93799Y62697D02*
D03*
X44094Y59449D02*
D03*
X172146Y75886D02*
D03*
X178543Y81890D02*
D03*
X116382Y91945D02*
D03*
X136122Y58268D02*
D03*
X132972Y58169D02*
D03*
X129921D02*
D03*
X126083Y57972D02*
D03*
X136221Y62106D02*
D03*
X132661Y61972D02*
D03*
X129669D02*
D03*
X126181Y62008D02*
D03*
X136516Y65748D02*
D03*
X132878Y66049D02*
D03*
X130020Y65551D02*
D03*
X126378D02*
D03*
X136319Y68996D02*
D03*
X132874D02*
D03*
X129724Y68898D02*
D03*
X126378Y68996D02*
D03*
X148150Y68368D02*
D03*
X22047Y27854D02*
D03*
X90551Y52264D02*
D03*
X22933Y225295D02*
D03*
X198819Y43110D02*
D03*
X168110Y50492D02*
D03*
X96315Y88541D02*
D03*
X98875Y82217D02*
D03*
X89764Y80905D02*
D03*
X108465Y59941D02*
D03*
X109350Y44783D02*
D03*
X97785Y71933D02*
D03*
X143761Y48248D02*
D03*
X142520Y44390D02*
D03*
X141831Y50098D02*
D03*
X190748Y52067D02*
D03*
X193396Y60174D02*
D03*
X189075Y67716D02*
D03*
X195571Y66831D02*
D03*
X183465Y72342D02*
D03*
X177165Y74803D02*
D03*
X156890Y62402D02*
D03*
X152854Y55709D02*
D03*
X152694Y60945D02*
D03*
X149724Y57776D02*
D03*
X160736Y64865D02*
D03*
X165523Y68504D02*
D03*
X132185Y120669D02*
D03*
X138326Y120650D02*
D03*
X136024Y100492D02*
D03*
X136614Y91240D02*
D03*
X127165Y121653D02*
D03*
X153150Y83071D02*
D03*
X96780Y124391D02*
D03*
X136540Y78966D02*
D03*
X136614Y85138D02*
D03*
X130937Y76955D02*
D03*
X147835Y93898D02*
D03*
X141732Y91043D02*
D03*
X150134Y28588D02*
D03*
X138681Y28937D02*
D03*
X121260Y152067D02*
D03*
X152756Y171260D02*
D03*
X59744Y76378D02*
D03*
X46457Y54134D02*
D03*
X29626Y26870D02*
D03*
X149350Y41636D02*
D03*
X160017Y53405D02*
D03*
X149409Y38386D02*
D03*
X163091Y50591D02*
D03*
X186909Y60925D02*
D03*
X145768Y52165D02*
D03*
X85138Y77165D02*
D03*
X84055Y63090D02*
D03*
X95415Y40360D02*
D03*
X127461Y47244D02*
D03*
X147638Y33366D02*
D03*
X153150Y46063D02*
D03*
X134449Y41831D02*
D03*
X139764Y46457D02*
D03*
X136516Y45965D02*
D03*
X113878Y43799D02*
D03*
X101476Y43996D02*
D03*
X151378Y75000D02*
D03*
X151476Y79626D02*
D03*
X149705Y88779D02*
D03*
X112894Y76968D02*
D03*
X113996Y67154D02*
D03*
X120420Y73228D02*
D03*
X140847Y78445D02*
D03*
X142028Y74902D02*
D03*
X152756Y69291D02*
D03*
X161811Y74803D02*
D03*
X164370Y79528D02*
D03*
X176102Y45158D02*
D03*
X148031Y55905D02*
D03*
X174803Y63386D02*
D03*
X165087Y82659D02*
D03*
X164693Y87777D02*
D03*
X165087Y92502D02*
D03*
X114415Y64325D02*
D03*
X148031Y70866D02*
D03*
X148425Y59842D02*
D03*
X146850Y63386D02*
D03*
X200000Y194488D02*
D03*
X244094Y231496D02*
D03*
X1181Y225197D02*
D03*
X42913Y166535D02*
D03*
X75197Y191339D02*
D03*
X60630Y184252D02*
D03*
X72835Y196457D02*
D03*
X225984Y201181D02*
D03*
D88*
X120472Y168898D02*
D03*
X90945Y158268D02*
D03*
X60630Y179134D02*
D03*
X27559Y172047D02*
D03*
X61417Y199606D02*
D03*
X41339Y153150D02*
D03*
D89*
X-27559Y266142D02*
D03*
X264961D02*
D03*
Y-26772D02*
D03*
X-27559D02*
D03*
M02*
