M48
;Layer_Color=9474304
;FILE_FORMAT=2:5
INCH,LZ
;TYPE=PLATED
T1F00S00C0.01181
T2F00S00C0.01968
T3F00S00C0.03543
T4F00S00C0.03937
T5F00S00C0.04000
T6F00S00C0.04331
T7F00S00C0.05906
T8F00S00C0.14567
%
T01
X0095415Y004036
X0098032Y0040236
X0097973Y0042815
X0094468
X0101476Y0043996
X0105348Y0044751
X010935Y0044783
X0113878Y0043799
X0114173Y0051122
X0114066Y0053561
X0114261Y0055994
X0116535Y0058268
X0114415Y0064325
X0113996Y0067154
X0112894Y0076968
X012042Y0073228
X0126378Y0068996
Y0065551
X013002
X0132878Y0066049
X0132874Y0068996
X0129724Y0068898
X0136319Y0068996
X0136516Y0065748
X0136221Y0062106
X0132661Y0061972
X0129669
X0126181Y0062008
X0126083Y0057972
X0129921Y0058169
X0132972
X0136122Y0058268
X0136516Y0045965
X0139764Y0046457
X014252Y004439
X0143761Y0048248
X0141831Y0050098
X0145768Y0052165
X0148031Y0055905
X0149724Y0057776
X0148425Y0059842
X014685Y0063386
X014815Y0068368
X0148031Y0070866
X0152756Y0069291
X0151378Y0075
X0151476Y0079626
X015315Y0083071
X0149705Y0088779
X0147835Y0093898
X0141732Y0091043
X0136614Y009124
Y0085138
X013654Y0078966
X0140847Y0078445
X0142028Y0074902
X0130937Y0076955
X0126969Y0082579
X0116382Y0091945
X0096315Y0088541
X0098875Y0082217
X0097785Y0071933
X0093799Y0062697
X0101969Y0060374
X0108465Y0059941
X0119685Y0047835
X0127461Y0047244
X0132925Y0047453
X0134449Y0041831
X0125197Y0042421
X0129053Y0030925
X0138681Y0028937
X0144587Y0029429
X0150134Y0028588
X0147638Y0033366
X0149409Y0038386
X014935Y0041636
X015315Y0046063
X0152854Y0055709
X0152694Y0060945
X015689Y0062402
X0160736Y0064865
X0165523Y0068504
X0169488Y007441
X0172146Y0075886
X0174902Y0079134
X0178543Y008189
X0177165Y0074803
X0183465Y0072342
X0185925Y0067126
X0189075Y0067716
X0190847Y0071063
X0195571Y0066831
X0193396Y0060174
X0186909Y0060925
X0185335Y0054823
X0190748Y0052067
X0180807Y0045374
X0176102Y0045158
X0179019Y0040463
X0183932Y0041654
X0186535Y0036295
X0177756Y0033445
X0158661Y0032874
X0155118Y0037402
X0160017Y0053405
X0163091Y0050591
X016811Y0050492
X0174803Y0063386
X0161811Y0074803
X016437Y0079528
X0165087Y0082659
X0164693Y0087777
X0165087Y0092502
X0172244Y0087303
X0168898Y011939
X0138326Y012065
X0132185Y0120669
X0127165Y0121653
X0136024Y0100492
X009678Y0124391
X0196063Y0113878
X0200952Y0071509
X0198819Y004311
X0188484Y0018996
X0232509Y0005362
X0090551Y0052264
X0086319Y0059252
X0084055Y006309
X0085138Y0077165
X0089764Y0080905
X0059744Y0076378
X0061614Y005876
X0044094Y0059449
X0046457Y0054134
X0030709Y0059941
X003399Y0041258
X0029626Y002687
X0022047Y0027854
X-0011909Y-0006004
X0042913Y0166535
X0057972Y0155413
X006063Y0184252
X0075197Y0191339
X0072835Y0196457
X0022933Y0225295
X0001181Y0225197
X012126Y0152067
X0152756Y017126
X02Y0194488
X0225984Y0201181
X0244094Y0231496
X0203346Y0145669
T02
X0041339Y015315
X0027559Y0172047
X006063Y0179134
X0061417Y0199606
X0090945Y0158268
X0120472Y0168898
T03
X0189091Y007902
X0199091
Y008902
X0189091
Y009902
X0199091
Y010902
X0189091
Y011902
X0199091
T04
X0163963Y0029458
X0173622Y002687
X0183281Y0024282
X0207496Y0022456
X0214567Y0029528
X0225237Y0038374
X0221011Y0047437
X0216785Y00565
X0212558Y0065563
X0081208Y0053656
X0082486Y0042964
X0085074Y0033305
X0075415Y0030716
X0072827Y0040376
X0071548Y0051068
X0063168Y0037788
X0065756Y0028128
X0056097Y002554
X0053508Y0035199
X0007094Y0012591
X0014165Y000552
X0088976Y0109843
X-0003157Y0249599
X-0010228Y0242528
X0247252Y0253929
X0254323Y0246858
T05
X-0067709Y-005985
X-0060638Y-0066921
X0301583Y-0070465
X0308654Y-0063394
X0304323Y0300401
X0297252Y0307472
X-0061827Y0306284
X-0068898Y0299213
T06
X0017962Y0039476
X0021328Y0048725
X0024695Y0057974
X0028061Y0067223
X0031427Y0076472
X0034794Y0085721
T07
X0127215Y0096309
X0142126Y0112992
X0074803Y0116535
Y0098032
X0111417Y0132677
X0136221Y015315
X0194488Y0153543
Y0171653
X0194882Y0132283
X022559Y0213386
Y0232283
T08
X0264961Y-0026772
X-0027559
Y0266142
X0264961
M30
