G04*
G04 #@! TF.GenerationSoftware,Altium Limited,Altium Designer,20.1.14 (287)*
G04*
G04 Layer_Color=255*
%FSLAX25Y25*%
%MOIN*%
G70*
G04*
G04 #@! TF.SameCoordinates,3184D8B6-75A7-45C6-B4AC-6B65BD642244*
G04*
G04*
G04 #@! TF.FilePolarity,Positive*
G04*
G01*
G75*
%ADD79C,0.07087*%
%ADD97C,0.07874*%
%ADD98P,0.11136X4X250.0*%
%ADD99P,0.11136X4X360.0*%
%ADD100P,0.11136X4X120.0*%
%ADD102P,0.11136X4X90.0*%
%ADD103P,0.10022X4X295.0*%
%ADD104P,0.11136X4X150.0*%
%ADD105R,0.05906X0.05906*%
%ADD106C,0.05906*%
%ADD107C,0.11811*%
G04:AMPARAMS|DCode=112|XSize=66.93mil|YSize=98.43mil|CornerRadius=0mil|HoleSize=0mil|Usage=FLASHONLY|Rotation=315.000|XOffset=0mil|YOffset=0mil|HoleType=Round|Shape=Round|*
%AMOVALD112*
21,1,0.03150,0.06693,0.00000,0.00000,45.0*
1,1,0.06693,-0.01114,-0.01114*
1,1,0.06693,0.01114,0.01114*
%
%ADD112OVALD112*%

G04:AMPARAMS|DCode=113|XSize=66.93mil|YSize=98.43mil|CornerRadius=0mil|HoleSize=0mil|Usage=FLASHONLY|Rotation=45.000|XOffset=0mil|YOffset=0mil|HoleType=Round|Shape=Round|*
%AMOVALD113*
21,1,0.03150,0.06693,0.00000,0.00000,135.0*
1,1,0.06693,0.01114,-0.01114*
1,1,0.06693,-0.01114,0.01114*
%
%ADD113OVALD113*%

D79*
X21328Y48725D02*
D03*
X24695Y57974D02*
D03*
X28061Y67223D02*
D03*
X31427Y76472D02*
D03*
X17962Y39476D02*
D03*
D97*
X216785Y56500D02*
D03*
X212558Y65563D02*
D03*
X221011Y47437D02*
D03*
X207496Y22456D02*
D03*
X183281Y24282D02*
D03*
X173622Y26870D02*
D03*
X254323Y246858D02*
D03*
X-3157Y249599D02*
D03*
X81208Y53656D02*
D03*
X72827Y40376D02*
D03*
X85074Y33305D02*
D03*
X75415Y30716D02*
D03*
X65756Y28128D02*
D03*
X63168Y37788D02*
D03*
X56097Y25540D02*
D03*
X53508Y35199D02*
D03*
X7094Y12591D02*
D03*
D98*
X225237Y38374D02*
D03*
D99*
X214567Y29528D02*
D03*
X-10228Y242528D02*
D03*
D100*
X163963Y29458D02*
D03*
D102*
X247252Y253929D02*
D03*
X14165Y5520D02*
D03*
D103*
X34794Y85721D02*
D03*
D104*
X71548Y51068D02*
D03*
X82486Y42964D02*
D03*
D105*
X199091Y79020D02*
D03*
D106*
X189091D02*
D03*
X199091Y89020D02*
D03*
X189091D02*
D03*
X199091Y99020D02*
D03*
X189091D02*
D03*
X199091Y109020D02*
D03*
X189091D02*
D03*
X199091Y119020D02*
D03*
X189091D02*
D03*
D107*
X142126Y112992D02*
D03*
X127215Y96309D02*
D03*
X136221Y153150D02*
D03*
X111417Y132677D02*
D03*
X194882Y132283D02*
D03*
X74803Y98032D02*
D03*
Y116535D02*
D03*
X225590Y232283D02*
D03*
X194488Y171653D02*
D03*
Y153543D02*
D03*
X225590Y213386D02*
D03*
D112*
X304323Y300401D02*
D03*
X297252Y307472D02*
D03*
X-67709Y-59850D02*
D03*
X-60638Y-66921D02*
D03*
D113*
X-61827Y306284D02*
D03*
X-68898Y299213D02*
D03*
X301583Y-70465D02*
D03*
X308654Y-63394D02*
D03*
M02*
