G04*
G04 #@! TF.GenerationSoftware,Altium Limited,Altium Designer,20.1.14 (287)*
G04*
G04 Layer_Color=32896*
%FSLAX25Y25*%
%MOIN*%
G70*
G04*
G04 #@! TF.SameCoordinates,3184D8B6-75A7-45C6-B4AC-6B65BD642244*
G04*
G04*
G04 #@! TF.FilePolarity,Positive*
G04*
G01*
G75*
%ADD19C,0.00500*%
%ADD90C,0.01968*%
%ADD93C,0.01575*%
G36*
X146324Y162491D02*
X146260D01*
X146196Y162482D01*
X146041Y162454D01*
X145868Y162409D01*
X145695Y162345D01*
X145513Y162254D01*
X145358Y162127D01*
X145349D01*
X145340Y162108D01*
X145294Y162063D01*
X145231Y161981D01*
X145158Y161871D01*
X145094Y161744D01*
X145030Y161589D01*
X144985Y161416D01*
X144966Y161325D01*
Y162500D01*
X146369D01*
X146324Y162491D01*
D02*
G37*
G36*
X180413Y156651D02*
X180395Y156660D01*
X180359Y156706D01*
X180295Y156761D01*
X180213Y156843D01*
X180104Y156943D01*
X179985Y157061D01*
X179849Y157189D01*
X179703Y157335D01*
X179548Y157490D01*
X179384Y157653D01*
X179038Y158009D01*
X178692Y158364D01*
X178364Y158729D01*
X178355Y158738D01*
X178336Y158765D01*
X178300Y158801D01*
X178254Y158856D01*
X178191Y158920D01*
X178136Y159002D01*
X177990Y159175D01*
X177835Y159366D01*
X177699Y159567D01*
X177571Y159749D01*
X177516Y159840D01*
X177480Y159922D01*
Y159931D01*
X177471Y159940D01*
X177453Y159995D01*
X177425Y160077D01*
X177389Y160186D01*
X177352Y160314D01*
X177325Y160450D01*
X177307Y160605D01*
X177298Y160760D01*
Y160769D01*
Y160778D01*
Y160824D01*
X177307Y160897D01*
X177325Y160988D01*
X177362Y161088D01*
X177407Y161197D01*
X177471Y161298D01*
X177553Y161398D01*
X177562Y161407D01*
X177598Y161434D01*
X177653Y161480D01*
X177726Y161525D01*
X177808Y161571D01*
X177917Y161616D01*
X178036Y161644D01*
X178172Y161653D01*
X178227D01*
X178272Y161644D01*
X178327Y161635D01*
X178382Y161616D01*
X178528Y161571D01*
X178601Y161534D01*
X178692Y161489D01*
X178774Y161434D01*
X178856Y161370D01*
X178947Y161298D01*
X179038Y161206D01*
X179120Y161106D01*
X179202Y160988D01*
X179366Y161061D01*
Y161070D01*
X179357Y161088D01*
X179338Y161124D01*
X179320Y161170D01*
X179302Y161215D01*
X179275Y161279D01*
X179211Y161425D01*
X179120Y161580D01*
X179020Y161744D01*
X178910Y161899D01*
X178783Y162035D01*
X178774Y162045D01*
X178755Y162054D01*
X178728Y162081D01*
X178692Y162108D01*
X178646Y162145D01*
X178591Y162181D01*
X178446Y162272D01*
X178272Y162354D01*
X178072Y162427D01*
X177854Y162482D01*
X177735Y162491D01*
X177608Y162500D01*
X180413D01*
Y156651D01*
D02*
G37*
G36*
X172706Y162491D02*
X172606Y162473D01*
X172497Y162436D01*
X172378Y162400D01*
X172260Y162336D01*
X172142Y162254D01*
X172132Y162245D01*
X172096Y162208D01*
X172041Y162154D01*
X171977Y162081D01*
X171905Y161990D01*
X171832Y161871D01*
X171759Y161744D01*
X171704Y161598D01*
X171695Y161580D01*
X171686Y161525D01*
X171659Y161443D01*
X171631Y161343D01*
X171613Y161225D01*
X171586Y161088D01*
X171577Y160933D01*
X171568Y160787D01*
Y160669D01*
X171577Y160605D01*
Y160532D01*
X171586Y160450D01*
Y160350D01*
X171613Y160141D01*
X171641Y159904D01*
X171686Y159640D01*
X171750Y159366D01*
Y159357D01*
X171759Y159330D01*
X171768Y159293D01*
X171786Y159239D01*
X171804Y159175D01*
X171823Y159102D01*
X171850Y159020D01*
X171877Y158929D01*
X171950Y158719D01*
X172041Y158492D01*
X172142Y158255D01*
X172260Y158018D01*
Y158009D01*
X172278Y157991D01*
X172287Y157963D01*
X172315Y157918D01*
X172342Y157863D01*
X172378Y157799D01*
X172469Y157663D01*
X172570Y157499D01*
X172697Y157325D01*
X172825Y157152D01*
X172970Y156988D01*
X172980Y156979D01*
X173016Y156943D01*
X173071Y156897D01*
X173135Y156843D01*
X173226Y156770D01*
X173326Y156697D01*
X173444Y156624D01*
X173572Y156551D01*
X173590Y156542D01*
X173635Y156524D01*
X173699Y156497D01*
X173790Y156469D01*
X173900Y156433D01*
X174018Y156405D01*
X174155Y156387D01*
X174292Y156378D01*
X162120D01*
X162184Y156387D01*
X162248Y156405D01*
X162330Y156424D01*
X162421Y156460D01*
X162503Y156515D01*
X162585Y156579D01*
X162594Y156588D01*
X162612Y156615D01*
X162649Y156660D01*
X162685Y156724D01*
X162722Y156797D01*
X162758Y156879D01*
X162776Y156979D01*
X162785Y157089D01*
Y157143D01*
X162776Y157198D01*
X162758Y157262D01*
X162740Y157344D01*
X162704Y157435D01*
X162649Y157517D01*
X162585Y157599D01*
X162576Y157608D01*
X162549Y157635D01*
X162503Y157663D01*
X162439Y157708D01*
X162366Y157745D01*
X162285Y157772D01*
X162184Y157799D01*
X162075Y157808D01*
X162020D01*
X161966Y157799D01*
X161902Y157781D01*
X161820Y157754D01*
X161729Y157717D01*
X161647Y157672D01*
X161565Y157599D01*
X161556Y157590D01*
X161528Y157562D01*
X161501Y157517D01*
X161456Y157453D01*
X161419Y157380D01*
X161392Y157298D01*
X161364Y157198D01*
X161355Y157089D01*
Y157043D01*
X161364Y156979D01*
X161383Y156916D01*
X161410Y156834D01*
X161446Y156743D01*
X161501Y156660D01*
X161574Y156579D01*
X161583Y156569D01*
X161610Y156551D01*
X161656Y156515D01*
X161711Y156478D01*
X161793Y156442D01*
X161874Y156405D01*
X161966Y156387D01*
X162075Y156378D01*
X158586D01*
X158641Y156387D01*
X158704D01*
X158777Y156396D01*
X158941Y156433D01*
X159132Y156478D01*
X159333Y156551D01*
X159524Y156651D01*
X159615Y156706D01*
X159697Y156779D01*
Y156788D01*
X159715Y156797D01*
X159761Y156852D01*
X159834Y156934D01*
X159907Y157052D01*
X159980Y157198D01*
X160053Y157371D01*
X160098Y157562D01*
X160107Y157672D01*
X160116Y157781D01*
Y157854D01*
X160107Y157927D01*
X160089Y158027D01*
X160071Y158145D01*
X160043Y158273D01*
X159998Y158410D01*
X159934Y158537D01*
X159925Y158555D01*
X159898Y158592D01*
X159852Y158665D01*
X159788Y158747D01*
X159715Y158847D01*
X159615Y158947D01*
X159506Y159056D01*
X159378Y159166D01*
X159369Y159175D01*
X159324Y159202D01*
X159269Y159239D01*
X159178Y159293D01*
X159078Y159357D01*
X158941Y159421D01*
X158795Y159494D01*
X158622Y159567D01*
X158631Y159585D01*
X158668Y159630D01*
X158713Y159703D01*
X158777Y159794D01*
X158841Y159895D01*
X158914Y160013D01*
X158978Y160141D01*
X159032Y160268D01*
X159041Y160286D01*
X159050Y160332D01*
X159078Y160396D01*
X159096Y160487D01*
X159123Y160587D01*
X159151Y160696D01*
X159160Y160824D01*
X159169Y160942D01*
Y160951D01*
Y160969D01*
Y161006D01*
X159160Y161051D01*
Y161106D01*
X159142Y161179D01*
X159114Y161334D01*
X159060Y161507D01*
X158987Y161689D01*
X158877Y161881D01*
X158805Y161972D01*
X158732Y162054D01*
X158722Y162063D01*
X158713Y162072D01*
X158686Y162099D01*
X158650Y162127D01*
X158604Y162154D01*
X158549Y162199D01*
X158413Y162281D01*
X158249Y162363D01*
X158039Y162427D01*
X157811Y162482D01*
X157684Y162491D01*
X157547Y162500D01*
X164207D01*
X164161Y162491D01*
X164116D01*
X164052Y162482D01*
X163906Y162454D01*
X163742Y162409D01*
X163569Y162336D01*
X163396Y162236D01*
X163314Y162181D01*
X163232Y162108D01*
X163223D01*
X163214Y162090D01*
X163168Y162045D01*
X163104Y161962D01*
X163022Y161853D01*
X162950Y161726D01*
X162886Y161571D01*
X162840Y161398D01*
X162822Y161307D01*
Y161143D01*
X162831Y161051D01*
X162849Y160942D01*
X162867Y160805D01*
X162904Y160651D01*
X162959Y160496D01*
X163022Y160332D01*
Y160323D01*
X163031Y160314D01*
X163041Y160286D01*
X163059Y160250D01*
X163123Y160159D01*
X163205Y160031D01*
X163314Y159876D01*
X163460Y159685D01*
X163542Y159585D01*
X163633Y159476D01*
X163742Y159357D01*
X163851Y159239D01*
X163860Y159230D01*
X163879Y159211D01*
X163906Y159184D01*
X163952Y159138D01*
X164006Y159084D01*
X164079Y159011D01*
X164161Y158929D01*
X164270Y158838D01*
X164389Y158719D01*
X164525Y158592D01*
X164690Y158455D01*
X164863Y158291D01*
X165054Y158118D01*
X165273Y157927D01*
X165509Y157726D01*
X165774Y157499D01*
X164562D01*
X164471Y157508D01*
X164353Y157517D01*
X164225Y157526D01*
X164097Y157553D01*
X163979Y157581D01*
X163888Y157617D01*
X163879Y157626D01*
X163851Y157644D01*
X163806Y157681D01*
X163751Y157726D01*
X163687Y157799D01*
X163624Y157881D01*
X163551Y157991D01*
X163478Y158118D01*
X163277D01*
X163961Y156497D01*
X167076D01*
Y156651D01*
X167058Y156660D01*
X167022Y156706D01*
X166958Y156761D01*
X166876Y156843D01*
X166767Y156943D01*
X166648Y157061D01*
X166511Y157189D01*
X166366Y157335D01*
X166211Y157490D01*
X166047Y157653D01*
X165701Y158009D01*
X165355Y158364D01*
X165027Y158729D01*
X165017Y158738D01*
X164999Y158765D01*
X164963Y158801D01*
X164917Y158856D01*
X164854Y158920D01*
X164799Y159002D01*
X164653Y159175D01*
X164498Y159366D01*
X164362Y159567D01*
X164234Y159749D01*
X164179Y159840D01*
X164143Y159922D01*
Y159931D01*
X164134Y159940D01*
X164116Y159995D01*
X164088Y160077D01*
X164052Y160186D01*
X164015Y160314D01*
X163988Y160450D01*
X163970Y160605D01*
X163961Y160760D01*
Y160769D01*
Y160778D01*
Y160824D01*
X163970Y160897D01*
X163988Y160988D01*
X164024Y161088D01*
X164070Y161197D01*
X164134Y161298D01*
X164216Y161398D01*
X164225Y161407D01*
X164261Y161434D01*
X164316Y161480D01*
X164389Y161525D01*
X164471Y161571D01*
X164580Y161616D01*
X164699Y161644D01*
X164835Y161653D01*
X164890D01*
X164936Y161644D01*
X164990Y161635D01*
X165045Y161616D01*
X165191Y161571D01*
X165263Y161534D01*
X165355Y161489D01*
X165437Y161434D01*
X165518Y161370D01*
X165610Y161298D01*
X165701Y161206D01*
X165783Y161106D01*
X165865Y160988D01*
X166029Y161061D01*
Y161070D01*
X166020Y161088D01*
X166001Y161124D01*
X165983Y161170D01*
X165965Y161215D01*
X165938Y161279D01*
X165874Y161425D01*
X165783Y161580D01*
X165682Y161744D01*
X165573Y161899D01*
X165446Y162035D01*
X165437Y162045D01*
X165418Y162054D01*
X165391Y162081D01*
X165355Y162108D01*
X165309Y162145D01*
X165254Y162181D01*
X165109Y162272D01*
X164936Y162354D01*
X164735Y162427D01*
X164516Y162482D01*
X164398Y162491D01*
X164270Y162500D01*
X168652D01*
X168607Y162491D01*
X168561D01*
X168498Y162482D01*
X168352Y162454D01*
X168188Y162409D01*
X168015Y162336D01*
X167842Y162236D01*
X167760Y162181D01*
X167678Y162108D01*
X167668D01*
X167659Y162090D01*
X167614Y162045D01*
X167550Y161962D01*
X167468Y161853D01*
X167395Y161726D01*
X167331Y161571D01*
X167286Y161398D01*
X167268Y161307D01*
Y161143D01*
X167277Y161051D01*
X167295Y160942D01*
X167313Y160805D01*
X167350Y160651D01*
X167404Y160496D01*
X167468Y160332D01*
Y160323D01*
X167477Y160314D01*
X167486Y160286D01*
X167505Y160250D01*
X167568Y160159D01*
X167650Y160031D01*
X167760Y159876D01*
X167905Y159685D01*
X167987Y159585D01*
X168078Y159476D01*
X168188Y159357D01*
X168297Y159239D01*
X168306Y159230D01*
X168324Y159211D01*
X168352Y159184D01*
X168397Y159138D01*
X168452Y159084D01*
X168525Y159011D01*
X168607Y158929D01*
X168716Y158838D01*
X168835Y158719D01*
X168971Y158592D01*
X169135Y158455D01*
X169308Y158291D01*
X169500Y158118D01*
X169718Y157927D01*
X169955Y157726D01*
X170219Y157499D01*
X169008D01*
X168917Y157508D01*
X168798Y157517D01*
X168671Y157526D01*
X168543Y157553D01*
X168425Y157581D01*
X168333Y157617D01*
X168324Y157626D01*
X168297Y157644D01*
X168252Y157681D01*
X168197Y157726D01*
X168133Y157799D01*
X168069Y157881D01*
X167997Y157991D01*
X167924Y158118D01*
X167723D01*
X168406Y156497D01*
X171522D01*
Y156651D01*
X171504Y156660D01*
X171467Y156706D01*
X171404Y156761D01*
X171322Y156843D01*
X171212Y156943D01*
X171094Y157061D01*
X170957Y157189D01*
X170811Y157335D01*
X170657Y157490D01*
X170493Y157653D01*
X170146Y158009D01*
X169800Y158364D01*
X169472Y158729D01*
X169463Y158738D01*
X169445Y158765D01*
X169409Y158801D01*
X169363Y158856D01*
X169299Y158920D01*
X169245Y159002D01*
X169099Y159175D01*
X168944Y159366D01*
X168807Y159567D01*
X168680Y159749D01*
X168625Y159840D01*
X168589Y159922D01*
Y159931D01*
X168579Y159940D01*
X168561Y159995D01*
X168534Y160077D01*
X168498Y160186D01*
X168461Y160314D01*
X168434Y160450D01*
X168415Y160605D01*
X168406Y160760D01*
Y160769D01*
Y160778D01*
Y160824D01*
X168415Y160897D01*
X168434Y160988D01*
X168470Y161088D01*
X168516Y161197D01*
X168579Y161298D01*
X168661Y161398D01*
X168671Y161407D01*
X168707Y161434D01*
X168762Y161480D01*
X168835Y161525D01*
X168917Y161571D01*
X169026Y161616D01*
X169144Y161644D01*
X169281Y161653D01*
X169336D01*
X169381Y161644D01*
X169436Y161635D01*
X169491Y161616D01*
X169636Y161571D01*
X169709Y161534D01*
X169800Y161489D01*
X169882Y161434D01*
X169964Y161370D01*
X170055Y161298D01*
X170146Y161206D01*
X170228Y161106D01*
X170310Y160988D01*
X170474Y161061D01*
Y161070D01*
X170465Y161088D01*
X170447Y161124D01*
X170429Y161170D01*
X170411Y161215D01*
X170383Y161279D01*
X170319Y161425D01*
X170228Y161580D01*
X170128Y161744D01*
X170019Y161899D01*
X169891Y162035D01*
X169882Y162045D01*
X169864Y162054D01*
X169837Y162081D01*
X169800Y162108D01*
X169755Y162145D01*
X169700Y162181D01*
X169554Y162272D01*
X169381Y162354D01*
X169181Y162427D01*
X168962Y162482D01*
X168844Y162491D01*
X168716Y162500D01*
X172788D01*
X172706Y162491D01*
D02*
G37*
G36*
X157438D02*
X157374D01*
X157310Y162482D01*
X157156Y162454D01*
X156983Y162409D01*
X156809Y162345D01*
X156627Y162254D01*
X156472Y162127D01*
X156463D01*
X156454Y162108D01*
X156409Y162063D01*
X156345Y161981D01*
X156272Y161871D01*
X156208Y161744D01*
X156144Y161589D01*
X156099Y161416D01*
X156081Y161325D01*
Y161170D01*
X156090Y161097D01*
X156099Y161015D01*
X156126Y160915D01*
X156154Y160815D01*
X156199Y160705D01*
X156254Y160596D01*
X156263Y160587D01*
X156281Y160550D01*
X156317Y160496D01*
X156372Y160432D01*
X156445Y160350D01*
X156518Y160268D01*
X156618Y160186D01*
X156727Y160104D01*
X156737Y160095D01*
X156764Y160077D01*
X156809Y160049D01*
X156882Y160013D01*
X156964Y159967D01*
X157074Y159922D01*
X157192Y159867D01*
X157338Y159813D01*
X157329Y159803D01*
X157319Y159785D01*
X157292Y159749D01*
X157256Y159703D01*
X157219Y159649D01*
X157174Y159594D01*
X157074Y159448D01*
X156964Y159293D01*
X156864Y159138D01*
X156773Y158993D01*
X156709Y158874D01*
X156700Y158865D01*
X156691Y158829D01*
X156673Y158774D01*
X156645Y158692D01*
X156618Y158601D01*
X156600Y158501D01*
X156591Y158391D01*
X156582Y158264D01*
Y158255D01*
Y158227D01*
Y158191D01*
X156591Y158136D01*
X156600Y158063D01*
X156609Y157981D01*
X156627Y157899D01*
X156645Y157799D01*
X156718Y157590D01*
X156755Y157480D01*
X156809Y157362D01*
X156873Y157253D01*
X156946Y157143D01*
X157028Y157034D01*
X157128Y156925D01*
X157137Y156916D01*
X157156Y156897D01*
X157183Y156870D01*
X157228Y156843D01*
X157283Y156797D01*
X157347Y156752D01*
X157420Y156706D01*
X157502Y156651D01*
X157602Y156597D01*
X157702Y156551D01*
X157939Y156460D01*
X158076Y156433D01*
X158212Y156405D01*
X158358Y156387D01*
X158513Y156378D01*
X155452D01*
X155516Y156387D01*
X155579Y156405D01*
X155661Y156424D01*
X155753Y156460D01*
X155835Y156515D01*
X155917Y156579D01*
X155926Y156588D01*
X155944Y156615D01*
X155980Y156660D01*
X156017Y156724D01*
X156053Y156797D01*
X156081Y156859D01*
X156090Y156879D01*
X156108Y156979D01*
X156117Y157089D01*
Y157098D01*
Y157143D01*
X156108Y157198D01*
X156090Y157262D01*
X156081Y157303D01*
X156071Y157344D01*
X156035Y157435D01*
X155980Y157517D01*
X155917Y157599D01*
X155907Y157608D01*
X155880Y157635D01*
X155835Y157663D01*
X155771Y157708D01*
X155698Y157745D01*
X155616Y157772D01*
X155516Y157799D01*
X155406Y157808D01*
X155352D01*
X155297Y157799D01*
X155233Y157781D01*
X155151Y157754D01*
X155060Y157717D01*
X154978Y157672D01*
X154896Y157599D01*
X154887Y157590D01*
X154860Y157562D01*
X154832Y157517D01*
X154787Y157453D01*
X154751Y157380D01*
X154723Y157298D01*
X154696Y157198D01*
X154687Y157089D01*
Y157043D01*
X154696Y156979D01*
X154714Y156916D01*
X154741Y156834D01*
X154778Y156743D01*
X154832Y156660D01*
X154905Y156579D01*
X154914Y156569D01*
X154942Y156551D01*
X154987Y156515D01*
X155042Y156478D01*
X155124Y156442D01*
X155206Y156405D01*
X155297Y156387D01*
X155406Y156378D01*
X147472D01*
X147526Y156387D01*
X147590D01*
X147663Y156396D01*
X147827Y156433D01*
X148018Y156478D01*
X148219Y156551D01*
X148410Y156651D01*
X148501Y156706D01*
X148583Y156779D01*
Y156788D01*
X148601Y156797D01*
X148647Y156852D01*
X148720Y156934D01*
X148793Y157052D01*
X148865Y157198D01*
X148938Y157371D01*
X148984Y157562D01*
X148993Y157672D01*
X149002Y157781D01*
Y157854D01*
X148993Y157927D01*
X148975Y158027D01*
X148957Y158145D01*
X148929Y158273D01*
X148884Y158410D01*
X148820Y158537D01*
X148811Y158555D01*
X148784Y158592D01*
X148738Y158665D01*
X148674Y158747D01*
X148601Y158847D01*
X148501Y158947D01*
X148392Y159056D01*
X148264Y159166D01*
X148255Y159175D01*
X148210Y159202D01*
X148155Y159239D01*
X148064Y159293D01*
X147964Y159357D01*
X147827Y159421D01*
X147681Y159494D01*
X147508Y159567D01*
X147517Y159585D01*
X147554Y159630D01*
X147599Y159703D01*
X147663Y159794D01*
X147727Y159895D01*
X147800Y160013D01*
X147863Y160141D01*
X147918Y160268D01*
X147927Y160286D01*
X147936Y160332D01*
X147964Y160396D01*
X147982Y160487D01*
X148009Y160587D01*
X148036Y160696D01*
X148046Y160824D01*
X148055Y160942D01*
Y160951D01*
Y160969D01*
Y161006D01*
X148046Y161051D01*
Y161106D01*
X148027Y161179D01*
X148000Y161334D01*
X147945Y161507D01*
X147872Y161689D01*
X147763Y161881D01*
X147690Y161972D01*
X147617Y162054D01*
X147608Y162063D01*
X147599Y162072D01*
X147572Y162099D01*
X147535Y162127D01*
X147490Y162154D01*
X147435Y162199D01*
X147299Y162281D01*
X147135Y162363D01*
X146925Y162427D01*
X146697Y162482D01*
X146570Y162491D01*
X146433Y162500D01*
X150870D01*
X150824Y162491D01*
X150779D01*
X150715Y162482D01*
X150569Y162454D01*
X150405Y162409D01*
X150232Y162336D01*
X150059Y162236D01*
X149977Y162181D01*
X149895Y162108D01*
X149886D01*
X149877Y162090D01*
X149831Y162045D01*
X149767Y161962D01*
X149685Y161853D01*
X149612Y161726D01*
X149549Y161571D01*
X149503Y161398D01*
X149485Y161307D01*
Y161143D01*
X149494Y161051D01*
X149512Y160942D01*
X149530Y160805D01*
X149567Y160651D01*
X149622Y160496D01*
X149685Y160332D01*
Y160323D01*
X149695Y160314D01*
X149704Y160286D01*
X149722Y160250D01*
X149786Y160159D01*
X149868Y160031D01*
X149977Y159876D01*
X150123Y159685D01*
X150205Y159585D01*
X150296Y159476D01*
X150405Y159357D01*
X150514Y159239D01*
X150523Y159230D01*
X150542Y159211D01*
X150569Y159184D01*
X150615Y159138D01*
X150669Y159084D01*
X150742Y159011D01*
X150824Y158929D01*
X150933Y158838D01*
X151052Y158719D01*
X151189Y158592D01*
X151353Y158455D01*
X151526Y158291D01*
X151717Y158118D01*
X151936Y157927D01*
X152172Y157726D01*
X152437Y157499D01*
X151225D01*
X151134Y157508D01*
X151015Y157517D01*
X150888Y157526D01*
X150760Y157553D01*
X150642Y157581D01*
X150551Y157617D01*
X150542Y157626D01*
X150514Y157644D01*
X150469Y157681D01*
X150414Y157726D01*
X150350Y157799D01*
X150287Y157881D01*
X150214Y157991D01*
X150141Y158118D01*
X149940D01*
X150624Y156497D01*
X153739D01*
Y156651D01*
X153721Y156660D01*
X153685Y156706D01*
X153621Y156761D01*
X153539Y156843D01*
X153430Y156943D01*
X153311Y157061D01*
X153174Y157189D01*
X153029Y157335D01*
X152874Y157490D01*
X152710Y157653D01*
X152364Y158009D01*
X152017Y158364D01*
X151690Y158729D01*
X151680Y158738D01*
X151662Y158765D01*
X151626Y158801D01*
X151580Y158856D01*
X151516Y158920D01*
X151462Y159002D01*
X151316Y159175D01*
X151161Y159366D01*
X151024Y159567D01*
X150897Y159749D01*
X150842Y159840D01*
X150806Y159922D01*
Y159931D01*
X150797Y159940D01*
X150779Y159995D01*
X150751Y160077D01*
X150715Y160186D01*
X150678Y160314D01*
X150651Y160450D01*
X150633Y160605D01*
X150624Y160760D01*
Y160769D01*
Y160778D01*
Y160824D01*
X150633Y160897D01*
X150651Y160988D01*
X150688Y161088D01*
X150733Y161197D01*
X150797Y161298D01*
X150879Y161398D01*
X150888Y161407D01*
X150924Y161434D01*
X150979Y161480D01*
X151052Y161525D01*
X151134Y161571D01*
X151243Y161616D01*
X151362Y161644D01*
X151498Y161653D01*
X151553D01*
X151599Y161644D01*
X151653Y161635D01*
X151708Y161616D01*
X151854Y161571D01*
X151926Y161534D01*
X152017Y161489D01*
X152100Y161434D01*
X152181Y161370D01*
X152273Y161298D01*
X152364Y161206D01*
X152446Y161106D01*
X152528Y160988D01*
X152692Y161061D01*
Y161070D01*
X152682Y161088D01*
X152664Y161124D01*
X152646Y161170D01*
X152628Y161215D01*
X152601Y161279D01*
X152537Y161425D01*
X152446Y161580D01*
X152346Y161744D01*
X152236Y161899D01*
X152109Y162035D01*
X152100Y162045D01*
X152081Y162054D01*
X152054Y162081D01*
X152017Y162108D01*
X151972Y162145D01*
X151917Y162181D01*
X151772Y162272D01*
X151599Y162354D01*
X151398Y162427D01*
X151179Y162482D01*
X151061Y162491D01*
X150933Y162500D01*
X157483D01*
X157438Y162491D01*
D02*
G37*
G36*
X157575Y162227D02*
X157629Y162218D01*
X157684Y162190D01*
X157739Y162163D01*
X157802Y162117D01*
X157848Y162063D01*
X157857Y162054D01*
X157884Y162008D01*
X157912Y161944D01*
X157948Y161853D01*
X157994Y161735D01*
X158021Y161598D01*
X158048Y161443D01*
X158057Y161261D01*
Y161243D01*
Y161206D01*
X158048Y161143D01*
X158039Y161070D01*
X158030Y160979D01*
X158012Y160878D01*
X157985Y160769D01*
X157948Y160669D01*
X157939Y160660D01*
X157921Y160623D01*
X157894Y160569D01*
X157848Y160487D01*
X157793Y160396D01*
X157720Y160277D01*
X157629Y160150D01*
X157520Y160013D01*
X157511Y160022D01*
X157483Y160040D01*
X157447Y160077D01*
X157392Y160122D01*
X157292Y160232D01*
X157256Y160295D01*
X157219Y160359D01*
Y160368D01*
X157210Y160377D01*
X157201Y160405D01*
X157192Y160432D01*
X157165Y160523D01*
X157128Y160651D01*
X157101Y160805D01*
X157074Y160997D01*
X157055Y161206D01*
X157046Y161452D01*
Y161461D01*
Y161471D01*
Y161525D01*
X157055Y161598D01*
X157064Y161689D01*
X157083Y161789D01*
X157101Y161890D01*
X157137Y161981D01*
X157183Y162054D01*
X157192Y162063D01*
X157210Y162081D01*
X157238Y162108D01*
X157274Y162145D01*
X157374Y162208D01*
X157429Y162227D01*
X157493Y162236D01*
X157529D01*
X157575Y162227D01*
D02*
G37*
G36*
X146460D02*
X146515Y162218D01*
X146570Y162190D01*
X146624Y162163D01*
X146688Y162117D01*
X146734Y162063D01*
X146743Y162054D01*
X146770Y162008D01*
X146798Y161944D01*
X146834Y161853D01*
X146879Y161735D01*
X146907Y161598D01*
X146934Y161443D01*
X146943Y161261D01*
Y161243D01*
Y161206D01*
X146934Y161143D01*
X146925Y161070D01*
X146916Y160979D01*
X146898Y160878D01*
X146870Y160769D01*
X146834Y160669D01*
X146825Y160660D01*
X146807Y160623D01*
X146779Y160569D01*
X146734Y160487D01*
X146679Y160396D01*
X146606Y160277D01*
X146515Y160150D01*
X146406Y160013D01*
X146397Y160022D01*
X146369Y160040D01*
X146333Y160077D01*
X146278Y160122D01*
X146178Y160232D01*
X146142Y160295D01*
X146105Y160359D01*
Y160368D01*
X146096Y160377D01*
X146087Y160405D01*
X146078Y160432D01*
X146051Y160523D01*
X146014Y160651D01*
X145987Y160805D01*
X145959Y160997D01*
X145941Y161206D01*
X145932Y161452D01*
Y161461D01*
Y161471D01*
Y161525D01*
X145941Y161598D01*
X145950Y161689D01*
X145968Y161789D01*
X145987Y161890D01*
X146023Y161981D01*
X146069Y162054D01*
X146078Y162063D01*
X146096Y162081D01*
X146123Y162108D01*
X146160Y162145D01*
X146260Y162208D01*
X146315Y162227D01*
X146378Y162236D01*
X146415D01*
X146460Y162227D01*
D02*
G37*
G36*
X177498Y162491D02*
X177453D01*
X177389Y162482D01*
X177243Y162454D01*
X177079Y162409D01*
X176906Y162336D01*
X176733Y162236D01*
X176651Y162181D01*
X176569Y162108D01*
X176560D01*
X176551Y162090D01*
X176505Y162045D01*
X176441Y161962D01*
X176359Y161853D01*
X176287Y161726D01*
X176223Y161571D01*
X176177Y161398D01*
X176159Y161307D01*
Y161143D01*
X176168Y161051D01*
X176186Y160942D01*
X176205Y160805D01*
X176241Y160651D01*
X176296Y160496D01*
X176359Y160332D01*
Y160323D01*
X176369Y160314D01*
X176378Y160286D01*
X176396Y160250D01*
X176460Y160159D01*
X176542Y160031D01*
X176651Y159876D01*
X176797Y159685D01*
X176879Y159585D01*
X176970Y159476D01*
X177079Y159357D01*
X177188Y159239D01*
X177198Y159230D01*
X177216Y159211D01*
X177243Y159184D01*
X177289Y159138D01*
X177343Y159084D01*
X177416Y159011D01*
X177498Y158929D01*
X177608Y158838D01*
X177726Y158719D01*
X177863Y158592D01*
X178027Y158455D01*
X178200Y158291D01*
X178391Y158118D01*
X178610Y157927D01*
X178847Y157726D01*
X179111Y157499D01*
X177899D01*
X177808Y157508D01*
X177690Y157517D01*
X177562Y157526D01*
X177434Y157553D01*
X177316Y157581D01*
X177225Y157617D01*
X177216Y157626D01*
X177188Y157644D01*
X177143Y157681D01*
X177088Y157726D01*
X177024Y157799D01*
X176961Y157881D01*
X176888Y157991D01*
X176815Y158118D01*
X176614D01*
X177298Y156497D01*
X180413D01*
Y156378D01*
X174346D01*
X174419Y156387D01*
X174501Y156405D01*
X174601Y156424D01*
X174701Y156460D01*
X174811Y156515D01*
X174920Y156579D01*
X174929Y156588D01*
X174966Y156615D01*
X175011Y156670D01*
X175075Y156733D01*
X175148Y156815D01*
X175221Y156925D01*
X175294Y157052D01*
X175357Y157189D01*
Y157198D01*
X175366Y157207D01*
X175385Y157262D01*
X175403Y157344D01*
X175430Y157444D01*
X175467Y157571D01*
X175485Y157717D01*
X175503Y157881D01*
X175512Y158045D01*
Y158145D01*
X175503Y158218D01*
Y158309D01*
X175494Y158410D01*
X175485Y158537D01*
X175467Y158665D01*
X175448Y158810D01*
X175421Y158965D01*
X175366Y159302D01*
X175275Y159667D01*
X175157Y160040D01*
Y160049D01*
X175139Y160077D01*
X175130Y160122D01*
X175102Y160177D01*
X175075Y160250D01*
X175039Y160341D01*
X174993Y160432D01*
X174947Y160532D01*
X174838Y160760D01*
X174711Y161006D01*
X174574Y161243D01*
X174410Y161480D01*
X174401Y161489D01*
X174392Y161507D01*
X174364Y161534D01*
X174337Y161580D01*
X174246Y161680D01*
X174137Y161808D01*
X174018Y161944D01*
X173881Y162072D01*
X173736Y162199D01*
X173672Y162245D01*
X173599Y162291D01*
X173581Y162300D01*
X173535Y162327D01*
X173462Y162354D01*
X173371Y162400D01*
X173262Y162436D01*
X173135Y162464D01*
X172998Y162491D01*
X172861Y162500D01*
X177544D01*
X177498Y162491D01*
D02*
G37*
G36*
X172898Y162199D02*
X172970Y162190D01*
X173053Y162154D01*
X173071Y162145D01*
X173116Y162108D01*
X173180Y162054D01*
X173216Y162008D01*
X173262Y161953D01*
X173271Y161944D01*
X173280Y161926D01*
X173308Y161881D01*
X173335Y161817D01*
X173380Y161726D01*
X173426Y161616D01*
X173481Y161480D01*
X173535Y161307D01*
Y161298D01*
X173554Y161261D01*
X173563Y161215D01*
X173590Y161143D01*
X173617Y161061D01*
X173654Y160951D01*
X173690Y160833D01*
X173736Y160696D01*
X173781Y160541D01*
X173836Y160368D01*
X173891Y160195D01*
X173954Y159995D01*
X174018Y159785D01*
X174082Y159567D01*
X174146Y159339D01*
X174219Y159102D01*
Y159093D01*
X174228Y159056D01*
X174246Y159011D01*
X174264Y158938D01*
X174282Y158865D01*
X174310Y158774D01*
X174364Y158564D01*
X174428Y158346D01*
X174483Y158136D01*
X174501Y158045D01*
X174528Y157954D01*
X174547Y157881D01*
X174556Y157817D01*
Y157799D01*
X174565Y157754D01*
X174583Y157672D01*
X174592Y157581D01*
X174610Y157471D01*
X174628Y157353D01*
X174638Y157234D01*
Y157116D01*
Y157107D01*
Y157080D01*
X174628Y157043D01*
X174619Y156988D01*
X174592Y156879D01*
X174565Y156825D01*
X174528Y156779D01*
X174519Y156770D01*
X174510Y156761D01*
X174483Y156743D01*
X174446Y156724D01*
X174355Y156679D01*
X174301Y156670D01*
X174246Y156660D01*
X174219D01*
X174182Y156670D01*
X174137D01*
X174046Y156697D01*
X173954Y156752D01*
X173945Y156761D01*
X173918Y156788D01*
X173872Y156834D01*
X173818Y156906D01*
X173754Y156998D01*
X173690Y157107D01*
X173626Y157244D01*
X173572Y157407D01*
Y157417D01*
X173554Y157462D01*
X173535Y157517D01*
X173508Y157608D01*
X173472Y157717D01*
X173426Y157854D01*
X173380Y158009D01*
X173326Y158191D01*
X173262Y158391D01*
X173189Y158619D01*
X173116Y158865D01*
X173034Y159129D01*
X172952Y159421D01*
X172861Y159731D01*
X172770Y160058D01*
X172670Y160405D01*
Y160414D01*
X172661Y160441D01*
X172643Y160487D01*
X172633Y160541D01*
X172615Y160614D01*
X172588Y160696D01*
X172570Y160787D01*
X172542Y160888D01*
X172506Y161106D01*
X172460Y161325D01*
X172433Y161544D01*
X172424Y161735D01*
Y161744D01*
Y161771D01*
X172433Y161808D01*
X172442Y161862D01*
X172469Y161972D01*
X172506Y162026D01*
X172542Y162081D01*
X172552Y162090D01*
X172561Y162099D01*
X172588Y162117D01*
X172624Y162145D01*
X172715Y162190D01*
X172761Y162199D01*
X172825Y162208D01*
X172843D01*
X172898Y162199D01*
D02*
G37*
G36*
X158476Y159357D02*
X158504Y159339D01*
X158540Y159302D01*
X158586Y159257D01*
X158686Y159148D01*
X158741Y159084D01*
X158777Y159029D01*
X158786Y159020D01*
X158805Y158993D01*
X158823Y158938D01*
X158859Y158865D01*
X158896Y158774D01*
X158941Y158665D01*
X158987Y158528D01*
X159032Y158373D01*
Y158364D01*
X159041Y158355D01*
X159050Y158300D01*
X159069Y158209D01*
X159087Y158091D01*
X159114Y157954D01*
X159132Y157799D01*
X159142Y157635D01*
X159151Y157453D01*
Y157435D01*
Y157389D01*
X159142Y157316D01*
X159132Y157225D01*
X159114Y157125D01*
X159087Y157025D01*
X159050Y156934D01*
X158996Y156852D01*
X158987Y156843D01*
X158968Y156825D01*
X158932Y156788D01*
X158887Y156761D01*
X158832Y156724D01*
X158759Y156688D01*
X158677Y156670D01*
X158586Y156660D01*
X158568D01*
X158531Y156670D01*
X158476Y156679D01*
X158395Y156697D01*
X158312Y156733D01*
X158221Y156779D01*
X158130Y156852D01*
X158039Y156943D01*
Y156952D01*
X158021Y156961D01*
X157985Y157016D01*
X157939Y157098D01*
X157875Y157207D01*
X157821Y157344D01*
X157766Y157508D01*
X157729Y157690D01*
X157720Y157890D01*
Y157909D01*
Y157954D01*
X157729Y158018D01*
X157739Y158109D01*
X157757Y158218D01*
X157784Y158328D01*
X157821Y158446D01*
X157875Y158564D01*
X157884Y158583D01*
X157903Y158619D01*
X157948Y158692D01*
X158003Y158783D01*
X158085Y158892D01*
X158185Y159038D01*
X158312Y159193D01*
X158467Y159366D01*
X158476Y159357D01*
D02*
G37*
G36*
X147362D02*
X147390Y159339D01*
X147426Y159302D01*
X147472Y159257D01*
X147572Y159148D01*
X147626Y159084D01*
X147663Y159029D01*
X147672Y159020D01*
X147690Y158993D01*
X147708Y158938D01*
X147745Y158865D01*
X147781Y158774D01*
X147827Y158665D01*
X147872Y158528D01*
X147918Y158373D01*
Y158364D01*
X147927Y158355D01*
X147936Y158300D01*
X147954Y158209D01*
X147973Y158091D01*
X148000Y157954D01*
X148018Y157799D01*
X148027Y157635D01*
X148036Y157453D01*
Y157435D01*
Y157389D01*
X148027Y157316D01*
X148018Y157225D01*
X148000Y157125D01*
X147973Y157025D01*
X147936Y156934D01*
X147882Y156852D01*
X147872Y156843D01*
X147854Y156825D01*
X147818Y156788D01*
X147772Y156761D01*
X147718Y156724D01*
X147645Y156688D01*
X147563Y156670D01*
X147472Y156660D01*
X147453D01*
X147417Y156670D01*
X147362Y156679D01*
X147280Y156697D01*
X147198Y156733D01*
X147107Y156779D01*
X147016Y156852D01*
X146925Y156943D01*
Y156952D01*
X146907Y156961D01*
X146870Y157016D01*
X146825Y157098D01*
X146761Y157207D01*
X146706Y157344D01*
X146652Y157508D01*
X146615Y157690D01*
X146606Y157890D01*
Y157909D01*
Y157954D01*
X146615Y158018D01*
X146624Y158109D01*
X146643Y158218D01*
X146670Y158328D01*
X146706Y158446D01*
X146761Y158564D01*
X146770Y158583D01*
X146788Y158619D01*
X146834Y158692D01*
X146889Y158783D01*
X146971Y158892D01*
X147071Y159038D01*
X147198Y159193D01*
X147353Y159366D01*
X147362Y159357D01*
D02*
G37*
G36*
X144975Y161097D02*
X144985Y161015D01*
X145012Y160915D01*
X145039Y160815D01*
X145085Y160705D01*
X145140Y160596D01*
X145149Y160587D01*
X145167Y160550D01*
X145203Y160496D01*
X145258Y160432D01*
X145331Y160350D01*
X145404Y160268D01*
X145504Y160186D01*
X145613Y160104D01*
X145622Y160095D01*
X145650Y160077D01*
X145695Y160049D01*
X145768Y160013D01*
X145850Y159967D01*
X145959Y159922D01*
X146078Y159867D01*
X146224Y159813D01*
X146214Y159803D01*
X146205Y159785D01*
X146178Y159749D01*
X146142Y159703D01*
X146105Y159649D01*
X146060Y159594D01*
X145959Y159448D01*
X145850Y159293D01*
X145750Y159138D01*
X145659Y158993D01*
X145595Y158874D01*
X145586Y158865D01*
X145577Y158829D01*
X145559Y158774D01*
X145531Y158692D01*
X145504Y158601D01*
X145486Y158501D01*
X145476Y158391D01*
X145467Y158264D01*
Y158255D01*
Y158227D01*
Y158191D01*
X145476Y158136D01*
X145486Y158063D01*
X145495Y157981D01*
X145513Y157899D01*
X145531Y157799D01*
X145604Y157590D01*
X145641Y157480D01*
X145695Y157362D01*
X145759Y157253D01*
X145832Y157143D01*
X145914Y157034D01*
X146014Y156925D01*
X146023Y156916D01*
X146041Y156897D01*
X146069Y156870D01*
X146114Y156843D01*
X146169Y156797D01*
X146233Y156752D01*
X146306Y156706D01*
X146388Y156651D01*
X146488Y156597D01*
X146588Y156551D01*
X146825Y156460D01*
X146961Y156433D01*
X147098Y156405D01*
X147244Y156387D01*
X147399Y156378D01*
X144966D01*
Y161170D01*
X144975Y161097D01*
D02*
G37*
G36*
X180610Y172403D02*
Y166518D01*
Y166399D01*
X173012D01*
X173058Y166408D01*
X173113D01*
X173186Y166418D01*
X173340Y166445D01*
X173504Y166481D01*
X173668Y166545D01*
X173823Y166627D01*
X173887Y166682D01*
X173942Y166745D01*
X173951Y166764D01*
X173987Y166809D01*
X174024Y166882D01*
X174078Y166973D01*
X174124Y167092D01*
X174170Y167228D01*
X174206Y167374D01*
X174215Y167538D01*
Y167547D01*
Y167574D01*
Y167611D01*
X174206Y167656D01*
Y167729D01*
X174197Y167802D01*
X174179Y167884D01*
X174160Y167984D01*
X174115Y168194D01*
X174042Y168440D01*
X173942Y168695D01*
X173878Y168823D01*
X173805Y168959D01*
X173796Y168968D01*
X173787Y168986D01*
X173759Y169032D01*
X173732Y169078D01*
X173714Y169103D01*
X173687Y169141D01*
X173632Y169205D01*
X173504Y169369D01*
X173340Y169551D01*
X173149Y169743D01*
X172931Y169925D01*
X172675Y170098D01*
X172666Y170107D01*
X172639Y170116D01*
X172602Y170134D01*
X172557Y170171D01*
X172484Y170198D01*
X172411Y170235D01*
X172329Y170280D01*
X172229Y170317D01*
X172010Y170398D01*
X171774Y170471D01*
X171509Y170517D01*
X171382Y170526D01*
X171245Y170535D01*
X171181D01*
X171118Y170526D01*
X171036Y170517D01*
X170944Y170490D01*
X170853Y170462D01*
X170762Y170417D01*
X170689Y170362D01*
X170680Y170353D01*
X170662Y170335D01*
X170626Y170289D01*
X170589Y170244D01*
X170562Y170180D01*
X170526Y170107D01*
X170507Y170016D01*
X170498Y169925D01*
Y169870D01*
X170507Y169806D01*
X170526Y169724D01*
X170544Y169633D01*
X170580Y169533D01*
X170626Y169415D01*
X170689Y169305D01*
X170699Y169287D01*
X170735Y169242D01*
X170790Y169169D01*
X170862Y169078D01*
X170954Y168968D01*
X171054Y168859D01*
X171181Y168750D01*
X171318Y168649D01*
X171336Y168640D01*
X171382Y168613D01*
X171464Y168567D01*
X171573Y168513D01*
X171701Y168449D01*
X171846Y168385D01*
X172010Y168331D01*
X172184Y168276D01*
X172202D01*
X172238Y168258D01*
X172311Y168249D01*
X172402Y168230D01*
X172530Y168203D01*
X172675Y168185D01*
X172839Y168167D01*
X173031Y168148D01*
Y168139D01*
X173040Y168103D01*
Y168048D01*
X173049Y167984D01*
X173058Y167830D01*
X173067Y167747D01*
Y167675D01*
Y167656D01*
Y167620D01*
X173058Y167565D01*
X173040Y167492D01*
X173022Y167410D01*
X172994Y167319D01*
X172949Y167237D01*
X172885Y167155D01*
X172876Y167146D01*
X172848Y167128D01*
X172803Y167092D01*
X172748Y167064D01*
X172675Y167028D01*
X172584Y166991D01*
X172484Y166973D01*
X172375Y166964D01*
X172320D01*
X172256Y166973D01*
X172184Y166982D01*
X172092Y166991D01*
X171983Y167019D01*
X171874Y167046D01*
X171764Y167092D01*
X171746Y167101D01*
X171710Y167119D01*
X171646Y167146D01*
X171555Y167201D01*
X171455Y167265D01*
X171327Y167338D01*
X171191Y167438D01*
X171045Y167556D01*
X170917Y167438D01*
X170926Y167429D01*
X170935Y167410D01*
X170963Y167383D01*
X170999Y167347D01*
X171099Y167246D01*
X171227Y167128D01*
X171373Y166991D01*
X171537Y166864D01*
X171710Y166736D01*
X171892Y166636D01*
X171901D01*
X171910Y166627D01*
X171938Y166618D01*
X171974Y166600D01*
X172074Y166563D01*
X172202Y166518D01*
X172357Y166472D01*
X172530Y166436D01*
X172730Y166408D01*
X172940Y166399D01*
X169387D01*
Y166418D01*
Y166454D01*
Y166518D01*
X169378Y166600D01*
Y166773D01*
Y166864D01*
Y166937D01*
Y166946D01*
Y166964D01*
Y166991D01*
Y167028D01*
Y167083D01*
Y167137D01*
X169387Y167219D01*
Y167301D01*
X169396Y167392D01*
Y167501D01*
X169405Y167620D01*
X169414Y167747D01*
X169423Y167884D01*
X169432Y168030D01*
X169441Y168185D01*
X169460Y168358D01*
Y168367D01*
Y168403D01*
X169469Y168449D01*
Y168513D01*
X169478Y168586D01*
X169487Y168668D01*
X169505Y168868D01*
X169533Y169078D01*
X169560Y169278D01*
X169578Y169378D01*
X169587Y169460D01*
X169605Y169542D01*
X169624Y169606D01*
Y169615D01*
X169642Y169642D01*
X169660Y169688D01*
X169678Y169734D01*
X169742Y169843D01*
X169778Y169897D01*
X169824Y169943D01*
X169842Y169952D01*
X169879Y169980D01*
X169942Y169998D01*
X170034Y170007D01*
X170134D01*
X170207Y169998D01*
Y170152D01*
X168767Y170535D01*
X168758Y170526D01*
X168749Y170481D01*
X168731Y170417D01*
X168694Y170326D01*
X168667Y170207D01*
X168631Y170061D01*
X168594Y169897D01*
X168549Y169715D01*
X168512Y169506D01*
X168476Y169278D01*
X168439Y169023D01*
X168403Y168759D01*
X168376Y168467D01*
X168357Y168167D01*
X168348Y167839D01*
Y167501D01*
X168339Y167511D01*
X168321Y167529D01*
X168284Y167556D01*
X168248Y167602D01*
X168193Y167656D01*
X168130Y167711D01*
X168002Y167857D01*
X167856Y168012D01*
X167710Y168176D01*
X167583Y168340D01*
X167519Y168412D01*
X167474Y168485D01*
X167464Y168504D01*
X167437Y168549D01*
X167392Y168622D01*
X167346Y168704D01*
X167310Y168804D01*
X167264Y168914D01*
X167237Y169014D01*
X167228Y169114D01*
Y169123D01*
Y169150D01*
X167237Y169187D01*
X167246Y169242D01*
X167264Y169296D01*
X167291Y169369D01*
X167328Y169442D01*
X167383Y169515D01*
X167392Y169524D01*
X167410Y169551D01*
X167428Y169588D01*
X167455Y169633D01*
X167519Y169724D01*
X167546Y169770D01*
X167565Y169806D01*
X167574Y169825D01*
X167583Y169870D01*
X167592Y169934D01*
X167601Y170007D01*
Y170016D01*
Y170043D01*
X167592Y170089D01*
X167583Y170134D01*
X167565Y170198D01*
X167537Y170253D01*
X167501Y170317D01*
X167455Y170380D01*
X167446Y170389D01*
X167428Y170408D01*
X167401Y170426D01*
X167355Y170462D01*
X167300Y170490D01*
X167237Y170508D01*
X167164Y170526D01*
X167082Y170535D01*
X167045D01*
X167000Y170526D01*
X166945Y170517D01*
X166891Y170499D01*
X166827Y170471D01*
X166772Y170435D01*
X166718Y170380D01*
X166708Y170371D01*
X166690Y170344D01*
X166654Y170298D01*
X166617Y170244D01*
X166590Y170162D01*
X166553Y170080D01*
X166535Y169989D01*
X166526Y169879D01*
Y169825D01*
X166535Y169770D01*
Y169697D01*
X166553Y169606D01*
X166572Y169506D01*
X166599Y169396D01*
X166636Y169287D01*
X166645Y169278D01*
X166654Y169242D01*
X166681Y169178D01*
X166718Y169096D01*
X166772Y168996D01*
X166836Y168886D01*
X166909Y168759D01*
X167000Y168613D01*
X167009Y168595D01*
X167045Y168549D01*
X167100Y168476D01*
X167164Y168376D01*
X167255Y168267D01*
X167346Y168148D01*
X167455Y168021D01*
X167574Y167902D01*
X167583Y167893D01*
X167601Y167875D01*
X167638Y167839D01*
X167683Y167793D01*
X167738Y167738D01*
X167811Y167666D01*
X167902Y167584D01*
X168002Y167492D01*
X168111Y167392D01*
X168239Y167274D01*
X168366Y167155D01*
X168521Y167019D01*
X168676Y166873D01*
X168849Y166727D01*
X169031Y166563D01*
X169232Y166399D01*
X165770D01*
X165825Y166408D01*
X165889Y166418D01*
X165961Y166436D01*
X166034Y166463D01*
X166107Y166499D01*
X166180Y166554D01*
X166189Y166563D01*
X166207Y166581D01*
X166235Y166618D01*
X166262Y166663D01*
X166289Y166718D01*
X166317Y166791D01*
X166335Y166864D01*
X166344Y166955D01*
Y166982D01*
X166335Y167019D01*
Y167064D01*
X166326Y167119D01*
X166307Y167192D01*
X166289Y167265D01*
X166262Y167356D01*
X165597Y169433D01*
Y169442D01*
X165579Y169478D01*
X165570Y169533D01*
X165551Y169606D01*
X165524Y169752D01*
X165506Y169816D01*
Y169879D01*
Y169888D01*
Y169897D01*
X165515Y169943D01*
X165542Y169998D01*
X165597Y170052D01*
X165615Y170061D01*
X165652Y170089D01*
X165725Y170116D01*
X165825Y170125D01*
X165989D01*
X165934Y170298D01*
X164422Y170535D01*
X164158D01*
X165114Y167474D01*
Y167465D01*
X165123Y167438D01*
X165141Y167392D01*
X165151Y167338D01*
X165187Y167228D01*
X165196Y167174D01*
Y167137D01*
Y167128D01*
X165187Y167101D01*
X165178Y167073D01*
X165160Y167037D01*
X165151Y167028D01*
X165132Y167019D01*
X165105Y167010D01*
X165078Y167000D01*
X165069D01*
X165032Y167010D01*
X164987Y167028D01*
X164932Y167064D01*
X164923Y167073D01*
X164895Y167101D01*
X164859Y167146D01*
X164804Y167210D01*
X164732Y167292D01*
X164659Y167392D01*
X164567Y167520D01*
X164467Y167675D01*
X164322Y167584D01*
X164331Y167574D01*
X164349Y167529D01*
X164385Y167474D01*
X164431Y167401D01*
X164495Y167310D01*
X164567Y167210D01*
X164649Y167101D01*
X164741Y166991D01*
X164950Y166773D01*
X165069Y166673D01*
X165187Y166581D01*
X165315Y166508D01*
X165451Y166454D01*
X165588Y166408D01*
X165725Y166399D01*
X149081D01*
X149126Y166408D01*
X149226Y166418D01*
X149363Y166445D01*
X149509Y166481D01*
X149664Y166545D01*
X149746Y166591D01*
X149809Y166627D01*
X149937Y166745D01*
X149946Y166764D01*
X149982Y166809D01*
X150037Y166882D01*
X150092Y166982D01*
X150155Y167110D01*
X150201Y167256D01*
X150238Y167420D01*
X150256Y167602D01*
Y167611D01*
Y167629D01*
Y167666D01*
Y167702D01*
X150247Y167757D01*
Y167820D01*
X150228Y167966D01*
X150201Y168139D01*
X150155Y168331D01*
X150101Y168531D01*
X150019Y168731D01*
Y168740D01*
X150010Y168759D01*
X149992Y168786D01*
X149973Y168823D01*
X149928Y168923D01*
X149855Y169041D01*
X149764Y169187D01*
X149746Y169215D01*
X149664Y169342D01*
X149545Y169497D01*
X149408Y169651D01*
X149399Y169661D01*
X149390Y169670D01*
X149345Y169715D01*
X149263Y169788D01*
X149162Y169879D01*
X149035Y169980D01*
X148889Y170089D01*
X148734Y170189D01*
X148561Y170289D01*
X148552D01*
X148543Y170298D01*
X148516Y170317D01*
X148479Y170326D01*
X148379Y170371D01*
X148251Y170417D01*
X148106Y170453D01*
X147933Y170499D01*
X147750Y170526D01*
X147559Y170535D01*
X147504D01*
X147432Y170526D01*
X147350Y170517D01*
X147249Y170499D01*
X147140Y170462D01*
X147022Y170426D01*
X146912Y170371D01*
X146903Y170362D01*
X146867Y170344D01*
X146812Y170307D01*
X146739Y170262D01*
X146666Y170198D01*
X146593Y170125D01*
X146521Y170034D01*
X146457Y169934D01*
X146448Y169925D01*
X146430Y169888D01*
X146411Y169825D01*
X146375Y169752D01*
X146347Y169661D01*
X146329Y169551D01*
X146311Y169433D01*
X146302Y169305D01*
Y169232D01*
X146311Y169187D01*
Y169123D01*
X146320Y169050D01*
X146338Y168959D01*
X146347Y168868D01*
X146402Y168658D01*
X146475Y168422D01*
X146566Y168167D01*
X146630Y168030D01*
X146703Y167902D01*
Y167893D01*
X146721Y167875D01*
X146739Y167839D01*
X146776Y167784D01*
X146812Y167729D01*
X146858Y167656D01*
X146976Y167501D01*
X147122Y167328D01*
X147304Y167146D01*
X147504Y166964D01*
X147732Y166800D01*
X147741D01*
X147760Y166782D01*
X147796Y166764D01*
X147842Y166736D01*
X147896Y166709D01*
X147969Y166673D01*
X148042Y166636D01*
X148133Y166600D01*
X148324Y166527D01*
X148543Y166463D01*
X148780Y166418D01*
X148907Y166408D01*
X149026Y166399D01*
X145482D01*
X145546Y166408D01*
X145610Y166427D01*
X145692Y166445D01*
X145783Y166481D01*
X145865Y166536D01*
X145947Y166600D01*
X145956Y166609D01*
X145974Y166636D01*
X146010Y166682D01*
X146047Y166745D01*
X146083Y166818D01*
X146120Y166900D01*
X146138Y167000D01*
X146147Y167110D01*
Y167165D01*
X146138Y167219D01*
X146120Y167283D01*
X146102Y167365D01*
X146065Y167456D01*
X146010Y167538D01*
X145947Y167620D01*
X145938Y167629D01*
X145910Y167656D01*
X145865Y167684D01*
X145801Y167729D01*
X145728Y167766D01*
X145646Y167793D01*
X145546Y167820D01*
X145437Y167830D01*
X145382D01*
X145327Y167820D01*
X145263Y167802D01*
X145181Y167775D01*
X145090Y167738D01*
X145008Y167693D01*
X144926Y167620D01*
X144917Y167611D01*
X144890Y167584D01*
X144863Y167538D01*
X144817Y167474D01*
X144781Y167401D01*
X144753Y167319D01*
X144726Y167219D01*
X144717Y167110D01*
Y167064D01*
X144726Y167000D01*
X144744Y166937D01*
X144772Y166855D01*
X144808Y166764D01*
X144863Y166682D01*
X144936Y166600D01*
X144945Y166590D01*
X144972Y166572D01*
X145018Y166536D01*
X145072Y166499D01*
X145154Y166463D01*
X145236Y166427D01*
X145327Y166408D01*
X145437Y166399D01*
X142148D01*
X142221Y166408D01*
X142303Y166427D01*
X142403Y166445D01*
X142503Y166481D01*
X142612Y166536D01*
X142722Y166600D01*
X142731Y166609D01*
X142767Y166636D01*
X142813Y166691D01*
X142877Y166754D01*
X142949Y166837D01*
X143022Y166946D01*
X143095Y167073D01*
X143159Y167210D01*
Y167219D01*
X143168Y167228D01*
X143186Y167283D01*
X143205Y167365D01*
X143232Y167465D01*
X143268Y167593D01*
X143287Y167738D01*
X143305Y167902D01*
X143314Y168066D01*
Y168167D01*
X143305Y168239D01*
Y168331D01*
X143296Y168431D01*
X143287Y168558D01*
X143268Y168686D01*
X143250Y168832D01*
X143223Y168986D01*
X143168Y169324D01*
X143077Y169688D01*
X142959Y170061D01*
Y170071D01*
X142940Y170098D01*
X142931Y170143D01*
X142904Y170198D01*
X142877Y170271D01*
X142840Y170362D01*
X142795Y170453D01*
X142749Y170553D01*
X142640Y170781D01*
X142512Y171027D01*
X142376Y171264D01*
X142212Y171501D01*
X142202Y171510D01*
X142193Y171528D01*
X142166Y171555D01*
X142139Y171601D01*
X142048Y171701D01*
X141938Y171829D01*
X141820Y171965D01*
X141683Y172093D01*
X141537Y172221D01*
X141474Y172266D01*
X141401Y172312D01*
X141383Y172321D01*
X141337Y172348D01*
X141264Y172375D01*
X141173Y172421D01*
X141064Y172457D01*
X140936Y172485D01*
X140799Y172512D01*
X140663Y172521D01*
X140590D01*
X140508Y172512D01*
X140408Y172494D01*
X140298Y172457D01*
X140180Y172421D01*
X140062Y172357D01*
X139943Y172275D01*
X139934Y172266D01*
X139898Y172230D01*
X139843Y172175D01*
X139779Y172102D01*
X139706Y172011D01*
X139634Y171893D01*
X139561Y171765D01*
X139506Y171619D01*
X139497Y171601D01*
X139488Y171546D01*
X139460Y171464D01*
X139433Y171364D01*
X139415Y171246D01*
X139388Y171109D01*
X139378Y170954D01*
X139369Y170808D01*
Y172521D01*
Y172539D01*
X164467D01*
X164413Y172530D01*
X164349Y172512D01*
X164285Y172494D01*
X164203Y172457D01*
X164130Y172412D01*
X164057Y172348D01*
X164048Y172339D01*
X164030Y172312D01*
X163994Y172275D01*
X163957Y172221D01*
X163930Y172157D01*
X163893Y172084D01*
X163875Y171993D01*
X163866Y171902D01*
Y171856D01*
X163875Y171801D01*
X163893Y171747D01*
X163912Y171674D01*
X163948Y171592D01*
X163994Y171519D01*
X164057Y171446D01*
X164067Y171437D01*
X164094Y171419D01*
X164130Y171391D01*
X164185Y171355D01*
X164249Y171319D01*
X164331Y171291D01*
X164413Y171273D01*
X164513Y171264D01*
X164558D01*
X164604Y171273D01*
X164668Y171291D01*
X164732Y171309D01*
X164804Y171337D01*
X164886Y171382D01*
X164959Y171446D01*
X164968Y171455D01*
X164987Y171483D01*
X165014Y171519D01*
X165050Y171574D01*
X165087Y171637D01*
X165114Y171720D01*
X165132Y171801D01*
X165141Y171902D01*
Y171911D01*
Y171947D01*
X165132Y171993D01*
X165114Y172056D01*
X165096Y172129D01*
X165069Y172202D01*
X165023Y172275D01*
X164959Y172348D01*
X164950Y172357D01*
X164923Y172375D01*
X164886Y172412D01*
X164832Y172448D01*
X164768Y172476D01*
X164695Y172512D01*
X164604Y172530D01*
X164513Y172539D01*
X180610D01*
Y172403D01*
D02*
G37*
G36*
X171810Y170225D02*
X171865Y170207D01*
X171938Y170171D01*
X172010Y170125D01*
X172101Y170052D01*
X172193Y169952D01*
X172202Y169943D01*
X172211Y169925D01*
X172238Y169897D01*
X172275Y169852D01*
X172311Y169797D01*
X172366Y169734D01*
X172411Y169651D01*
X172475Y169560D01*
X172539Y169451D01*
X172602Y169333D01*
X172666Y169205D01*
X172730Y169069D01*
X172803Y168914D01*
X172867Y168740D01*
X172931Y168567D01*
X172994Y168376D01*
X172976D01*
X172931Y168385D01*
X172858Y168394D01*
X172776Y168412D01*
X172685Y168440D01*
X172584Y168458D01*
X172484Y168485D01*
X172402Y168522D01*
X172393Y168531D01*
X172366Y168540D01*
X172320Y168567D01*
X172266Y168595D01*
X172202Y168640D01*
X172129Y168695D01*
X172056Y168759D01*
X171983Y168832D01*
X171974Y168841D01*
X171947Y168868D01*
X171910Y168914D01*
X171865Y168977D01*
X171810Y169059D01*
X171755Y169150D01*
X171692Y169251D01*
X171637Y169369D01*
X171628Y169387D01*
X171610Y169424D01*
X171591Y169488D01*
X171555Y169570D01*
X171528Y169661D01*
X171509Y169761D01*
X171491Y169870D01*
X171482Y169980D01*
Y169989D01*
Y169998D01*
X171491Y170052D01*
X171509Y170107D01*
X171555Y170171D01*
X171564Y170180D01*
X171600Y170207D01*
X171655Y170235D01*
X171728Y170244D01*
X171764D01*
X171810Y170225D01*
D02*
G37*
G36*
X140699Y172221D02*
X140772Y172211D01*
X140854Y172175D01*
X140872Y172166D01*
X140918Y172129D01*
X140982Y172075D01*
X141018Y172029D01*
X141064Y171975D01*
X141073Y171965D01*
X141082Y171947D01*
X141109Y171902D01*
X141137Y171838D01*
X141182Y171747D01*
X141228Y171637D01*
X141282Y171501D01*
X141337Y171328D01*
Y171319D01*
X141355Y171282D01*
X141364Y171237D01*
X141392Y171164D01*
X141419Y171082D01*
X141455Y170973D01*
X141492Y170854D01*
X141537Y170717D01*
X141583Y170563D01*
X141638Y170389D01*
X141692Y170216D01*
X141756Y170016D01*
X141820Y169806D01*
X141884Y169588D01*
X141947Y169360D01*
X142020Y169123D01*
Y169114D01*
X142029Y169078D01*
X142048Y169032D01*
X142066Y168959D01*
X142084Y168886D01*
X142111Y168795D01*
X142166Y168586D01*
X142230Y168367D01*
X142285Y168157D01*
X142303Y168066D01*
X142330Y167975D01*
X142348Y167902D01*
X142357Y167839D01*
Y167820D01*
X142367Y167775D01*
X142385Y167693D01*
X142394Y167602D01*
X142412Y167492D01*
X142430Y167374D01*
X142439Y167256D01*
Y167137D01*
Y167128D01*
Y167101D01*
X142430Y167064D01*
X142421Y167010D01*
X142394Y166900D01*
X142367Y166846D01*
X142330Y166800D01*
X142321Y166791D01*
X142312Y166782D01*
X142285Y166764D01*
X142248Y166745D01*
X142157Y166700D01*
X142102Y166691D01*
X142048Y166682D01*
X142020D01*
X141984Y166691D01*
X141938D01*
X141847Y166718D01*
X141756Y166773D01*
X141747Y166782D01*
X141720Y166809D01*
X141674Y166855D01*
X141619Y166928D01*
X141556Y167019D01*
X141492Y167128D01*
X141428Y167265D01*
X141374Y167429D01*
Y167438D01*
X141355Y167483D01*
X141337Y167538D01*
X141310Y167629D01*
X141273Y167738D01*
X141228Y167875D01*
X141182Y168030D01*
X141128Y168212D01*
X141064Y168412D01*
X140991Y168640D01*
X140918Y168886D01*
X140836Y169150D01*
X140754Y169442D01*
X140663Y169752D01*
X140572Y170080D01*
X140472Y170426D01*
Y170435D01*
X140463Y170462D01*
X140444Y170508D01*
X140435Y170563D01*
X140417Y170635D01*
X140390Y170717D01*
X140371Y170808D01*
X140344Y170909D01*
X140308Y171127D01*
X140262Y171346D01*
X140235Y171565D01*
X140226Y171756D01*
Y171765D01*
Y171792D01*
X140235Y171829D01*
X140244Y171883D01*
X140271Y171993D01*
X140308Y172047D01*
X140344Y172102D01*
X140353Y172111D01*
X140362Y172120D01*
X140390Y172139D01*
X140426Y172166D01*
X140517Y172211D01*
X140563Y172221D01*
X140626Y172230D01*
X140645D01*
X140699Y172221D01*
D02*
G37*
G36*
X147823Y170298D02*
X147878Y170289D01*
X147933Y170271D01*
X147996Y170253D01*
X148060Y170216D01*
X148124Y170171D01*
X148133Y170162D01*
X148151Y170143D01*
X148179Y170116D01*
X148206Y170080D01*
X148242Y170034D01*
X148279Y169980D01*
X148324Y169907D01*
X148370Y169825D01*
X148425Y169734D01*
X148479Y169633D01*
X148543Y169515D01*
X148598Y169378D01*
X148671Y169232D01*
X148734Y169069D01*
X148807Y168886D01*
Y168877D01*
X148826Y168841D01*
X148844Y168786D01*
X148862Y168713D01*
X148889Y168631D01*
X148926Y168531D01*
X148962Y168412D01*
X148989Y168285D01*
X149026Y168148D01*
X149062Y168003D01*
X149126Y167702D01*
X149162Y167392D01*
X149181Y167083D01*
Y167073D01*
Y167046D01*
X149172Y167010D01*
X149162Y166964D01*
X149126Y166864D01*
X149099Y166809D01*
X149062Y166754D01*
X149053Y166745D01*
X149044Y166736D01*
X149017Y166718D01*
X148980Y166691D01*
X148889Y166645D01*
X148835Y166636D01*
X148780Y166627D01*
X148753D01*
X148716Y166636D01*
X148680D01*
X148580Y166673D01*
X148525Y166691D01*
X148479Y166727D01*
X148470Y166736D01*
X148443Y166764D01*
X148406Y166809D01*
X148352Y166873D01*
X148279Y166964D01*
X148206Y167083D01*
X148115Y167237D01*
X148015Y167420D01*
Y167429D01*
X148005Y167447D01*
X147987Y167474D01*
X147969Y167520D01*
X147942Y167565D01*
X147915Y167629D01*
X147851Y167775D01*
X147778Y167957D01*
X147705Y168157D01*
X147632Y168385D01*
X147559Y168622D01*
Y168631D01*
X147550Y168649D01*
X147541Y168686D01*
X147532Y168731D01*
X147514Y168795D01*
X147504Y168859D01*
X147468Y169023D01*
X147432Y169214D01*
X147404Y169415D01*
X147386Y169624D01*
X147377Y169834D01*
Y169843D01*
Y169870D01*
X147386Y169907D01*
Y169961D01*
X147423Y170071D01*
X147450Y170125D01*
X147486Y170180D01*
X147495Y170189D01*
X147504Y170198D01*
X147559Y170244D01*
X147641Y170289D01*
X147687Y170298D01*
X147741Y170307D01*
X147778D01*
X147823Y170298D01*
D02*
G37*
G36*
X139378Y170626D02*
Y170553D01*
X139388Y170471D01*
Y170371D01*
X139415Y170162D01*
X139442Y169925D01*
X139488Y169661D01*
X139551Y169387D01*
Y169378D01*
X139561Y169351D01*
X139570Y169314D01*
X139588Y169260D01*
X139606Y169196D01*
X139624Y169123D01*
X139652Y169041D01*
X139679Y168950D01*
X139752Y168740D01*
X139843Y168513D01*
X139943Y168276D01*
X140062Y168039D01*
Y168030D01*
X140080Y168012D01*
X140089Y167984D01*
X140116Y167939D01*
X140144Y167884D01*
X140180Y167820D01*
X140271Y167684D01*
X140371Y167520D01*
X140499Y167347D01*
X140626Y167174D01*
X140772Y167010D01*
X140781Y167000D01*
X140818Y166964D01*
X140872Y166919D01*
X140936Y166864D01*
X141027Y166791D01*
X141128Y166718D01*
X141246Y166645D01*
X141374Y166572D01*
X141392Y166563D01*
X141437Y166545D01*
X141501Y166518D01*
X141592Y166490D01*
X141701Y166454D01*
X141820Y166427D01*
X141956Y166408D01*
X142093Y166399D01*
X139369D01*
Y170690D01*
X139378Y170626D01*
D02*
G37*
G36*
X162248Y182910D02*
X159205D01*
X158987Y186754D01*
X162248Y182910D01*
D02*
G37*
G36*
X123276Y185934D02*
X123348Y185916D01*
X123440Y185880D01*
X123531Y185825D01*
X123640Y185752D01*
X123768Y185661D01*
X123804Y185643D01*
X123877Y185552D01*
X124004Y185388D01*
X124077Y185296D01*
X124168Y185169D01*
X124259Y185023D01*
X124369Y184859D01*
X124478Y184677D01*
X124606Y184477D01*
X124715Y184258D01*
X124843Y184003D01*
X124970Y183730D01*
X125098Y183420D01*
Y183402D01*
X125134Y183347D01*
X125152Y183256D01*
X125207Y183147D01*
X125262Y183001D01*
X125316Y182837D01*
X125371Y182655D01*
X125426Y182454D01*
X125553Y181999D01*
X125663Y181543D01*
X125735Y181070D01*
X125772Y180614D01*
Y180596D01*
Y180541D01*
Y180468D01*
X125754Y180377D01*
X125717Y180177D01*
X125681Y180086D01*
X125626Y179994D01*
X125608Y179958D01*
X125535Y179903D01*
X125426Y179849D01*
X125298Y179812D01*
X125243D01*
X125189Y179831D01*
X125098Y179849D01*
X125006Y179885D01*
X124897Y179922D01*
X124788Y179994D01*
X124679Y180086D01*
X124642Y180122D01*
X124551Y180213D01*
X124405Y180377D01*
X124314Y180486D01*
X124205Y180614D01*
X124096Y180760D01*
X123968Y180924D01*
X123859Y181106D01*
X123731Y181325D01*
X123585Y181543D01*
X123458Y181780D01*
X123312Y182053D01*
X123185Y182345D01*
Y182363D01*
X123148Y182418D01*
X123112Y182509D01*
X123075Y182618D01*
X123021Y182746D01*
X122948Y182910D01*
X122820Y183274D01*
X122693Y183675D01*
X122565Y184112D01*
X122492Y184531D01*
X122456Y184932D01*
Y184950D01*
Y185023D01*
X122474Y185114D01*
Y185224D01*
X122547Y185479D01*
X122601Y185588D01*
X122674Y185697D01*
Y185716D01*
X122711Y185734D01*
X122802Y185825D01*
X122966Y185916D01*
X123057Y185934D01*
X123166Y185952D01*
X123221D01*
X123276Y185934D01*
D02*
G37*
G36*
X180905Y190416D02*
Y178173D01*
Y178136D01*
X78728D01*
X78345Y187975D01*
Y187993D01*
Y188011D01*
Y188121D01*
X78327Y188248D01*
Y188412D01*
Y188576D01*
X78309Y188722D01*
Y188831D01*
Y188868D01*
Y188886D01*
Y188904D01*
Y188959D01*
X78327Y189050D01*
X78345Y189159D01*
X78400Y189378D01*
X78473Y189487D01*
X78546Y189578D01*
X78564Y189596D01*
X78600Y189615D01*
X78655Y189651D01*
X78746Y189706D01*
X78855Y189760D01*
X79001Y189797D01*
X79183Y189833D01*
X79384Y189870D01*
X79274Y190180D01*
X74337D01*
X74446Y189870D01*
X74555D01*
X74665Y189851D01*
X74810Y189815D01*
X74956Y189779D01*
X75120Y189706D01*
X75284Y189596D01*
X75412Y189469D01*
X75430Y189451D01*
X75466Y189396D01*
X75521Y189287D01*
X75576Y189123D01*
X75649Y188922D01*
X75703Y188631D01*
X75758Y188303D01*
Y188102D01*
X75776Y187884D01*
X76049Y181762D01*
X71476Y187082D01*
X71458Y187100D01*
X71440Y187137D01*
X71385Y187173D01*
X71330Y187246D01*
X71185Y187428D01*
X71003Y187647D01*
X70820Y187884D01*
X70638Y188121D01*
X70492Y188339D01*
X70383Y188521D01*
X70365Y188540D01*
X70347Y188594D01*
X70310Y188667D01*
X70274Y188758D01*
X70201Y188977D01*
X70164Y189104D01*
Y189214D01*
Y189232D01*
Y189250D01*
X70183Y189341D01*
X70255Y189469D01*
X70292Y189542D01*
X70365Y189596D01*
X70401Y189633D01*
X70456Y189651D01*
X70529Y189706D01*
X70620Y189742D01*
X70747Y189797D01*
X70893Y189833D01*
X71075Y189870D01*
X70966Y190180D01*
X67723D01*
Y189870D01*
X67741D01*
X67796Y189851D01*
X67869Y189833D01*
X67960Y189797D01*
X68178Y189688D01*
X68397Y189560D01*
X68415Y189542D01*
X68470Y189505D01*
X68561Y189414D01*
X68688Y189305D01*
X68853Y189123D01*
X69053Y188922D01*
X69290Y188649D01*
X69563Y188321D01*
X78345Y178136D01*
X61692D01*
Y178409D01*
Y190416D01*
X64607Y180541D01*
X64626Y180505D01*
X64644Y180413D01*
X64680Y180286D01*
X64717Y180122D01*
X64771Y179958D01*
X64808Y179794D01*
X64826Y179666D01*
X64844Y179557D01*
Y179539D01*
Y179521D01*
X64826Y179430D01*
X64771Y179284D01*
X64680Y179120D01*
X64644Y179084D01*
X64571Y179011D01*
X64461Y178901D01*
X64334Y178828D01*
X64316D01*
X64297Y178810D01*
X64225D01*
X64115Y178792D01*
X63970Y178774D01*
X63787Y178755D01*
X63532Y178737D01*
X63204Y178719D01*
X63295Y178409D01*
X69235D01*
X69144Y178719D01*
X68853D01*
X68670Y178737D01*
X68251Y178774D01*
X68069Y178810D01*
X67923Y178847D01*
X67905D01*
X67869Y178883D01*
X67796Y178901D01*
X67723Y178945D01*
X67705Y178956D01*
X67523Y179102D01*
X67340Y179284D01*
X67322Y179302D01*
X67304Y179339D01*
X67249Y179430D01*
X67194Y179557D01*
X67122Y179721D01*
X67049Y179940D01*
X66939Y180213D01*
X66848Y180541D01*
X65136Y186390D01*
Y186408D01*
X65117Y186444D01*
X65099Y186517D01*
X65063Y186608D01*
X65008Y186827D01*
X64917Y187082D01*
X64844Y187337D01*
X64771Y187556D01*
X64753Y187647D01*
X64717Y187738D01*
X64698Y187774D01*
Y187811D01*
Y187829D01*
X64680Y187847D01*
X64662Y187938D01*
X64644Y188084D01*
Y188230D01*
Y188248D01*
Y188303D01*
X64662Y188357D01*
X64680Y188449D01*
X64735Y188649D01*
X64808Y188740D01*
X64881Y188831D01*
X64899Y188849D01*
X64917Y188868D01*
X64972Y188904D01*
X65044Y188959D01*
X65154Y188995D01*
X65263Y189032D01*
X65391Y189050D01*
X65555Y189068D01*
X65737D01*
X65864Y189050D01*
X66010D01*
X66192Y189032D01*
X66411Y189013D01*
X66484Y189341D01*
X62056Y190416D01*
X61692D01*
Y190453D01*
X118538D01*
X121490Y180742D01*
Y180723D01*
X121508Y180705D01*
X121527Y180596D01*
X121581Y180450D01*
X121618Y180268D01*
X121672Y180067D01*
X121727Y179903D01*
X121745Y179739D01*
X121763Y179648D01*
Y179630D01*
Y179594D01*
X121745Y179521D01*
X121709Y179466D01*
X121690D01*
X121654Y179448D01*
X121599Y179430D01*
X121545Y179411D01*
X121527D01*
X121454Y179430D01*
X121344Y179466D01*
X121217Y179557D01*
X121199Y179575D01*
X121162Y179612D01*
X121089Y179666D01*
X120998Y179758D01*
X120889Y179885D01*
X120761Y180049D01*
X120615Y180250D01*
X120451Y180486D01*
X120142Y180304D01*
X120160Y180286D01*
X120196Y180213D01*
X120269Y180104D01*
X120360Y179976D01*
X120470Y179812D01*
X120597Y179630D01*
X120761Y179430D01*
X120925Y179247D01*
X121326Y178847D01*
X121545Y178664D01*
X121782Y178500D01*
X122037Y178373D01*
X122292Y178264D01*
X122547Y178191D01*
X122820Y178173D01*
X122911D01*
X123002Y178191D01*
X123112Y178209D01*
X123385Y178282D01*
X123512Y178337D01*
X123640Y178428D01*
X123658Y178446D01*
X123677Y178482D01*
X123731Y178537D01*
X123768Y178628D01*
X123822Y178719D01*
X123877Y178847D01*
X123895Y178974D01*
X123913Y179138D01*
Y179156D01*
Y179211D01*
X123895Y179302D01*
X123877Y179430D01*
X123859Y179594D01*
X123804Y179794D01*
X123749Y180031D01*
X123677Y180286D01*
X123403Y181179D01*
X123421Y181161D01*
X123458Y181088D01*
X123512Y180997D01*
X123585Y180869D01*
X123677Y180723D01*
X123786Y180541D01*
X124041Y180140D01*
X124351Y179721D01*
X124660Y179302D01*
X124824Y179102D01*
X124988Y178919D01*
X125152Y178755D01*
X125298Y178628D01*
X125316Y178610D01*
X125407Y178555D01*
X125517Y178482D01*
X125681Y178409D01*
X125863Y178318D01*
X126063Y178245D01*
X126264Y178191D01*
X126482Y178173D01*
X126592D01*
X126719Y178209D01*
X126865Y178245D01*
X127047Y178300D01*
X127229Y178391D01*
X127412Y178519D01*
X127594Y178701D01*
X127612Y178719D01*
X127667Y178792D01*
X127740Y178919D01*
X127812Y179084D01*
X127885Y179302D01*
X127958Y179575D01*
X128013Y179885D01*
X128031Y180231D01*
Y180359D01*
X128013Y180450D01*
Y180578D01*
X127995Y180705D01*
X127976Y180869D01*
X127958Y181033D01*
X127885Y181416D01*
X127794Y181853D01*
X127648Y182308D01*
X127466Y182782D01*
Y182800D01*
X127448Y182837D01*
X127412Y182910D01*
X127357Y183001D01*
X127302Y183092D01*
X127248Y183219D01*
X127084Y183511D01*
X126883Y183839D01*
X126665Y184203D01*
X126409Y184549D01*
X126136Y184877D01*
X126118Y184896D01*
X126100Y184914D01*
X126009Y185023D01*
X125863Y185169D01*
X125663Y185351D01*
X125444Y185533D01*
X125189Y185734D01*
X124934Y185916D01*
X124679Y186080D01*
X124642Y186098D01*
X124551Y186135D01*
X124424Y186189D01*
X124241Y186262D01*
X124041Y186335D01*
X123804Y186390D01*
X123567Y186426D01*
X123312Y186444D01*
X123185D01*
X123112Y186426D01*
X122911Y186390D01*
X122711Y186299D01*
X122693D01*
X122656Y186262D01*
X122601Y186226D01*
X122529Y186171D01*
X122438Y186098D01*
X122328Y186007D01*
X122219Y185898D01*
X122091Y185752D01*
X121417Y187902D01*
Y187920D01*
X121399Y187938D01*
X121381Y188030D01*
X121344Y188175D01*
X121290Y188357D01*
X121199Y188740D01*
X121180Y188922D01*
X121162Y189086D01*
Y189104D01*
Y189123D01*
X121180Y189214D01*
X121235Y189323D01*
X121344Y189432D01*
X121381Y189451D01*
X121472Y189523D01*
X121618Y189578D01*
X121818Y189596D01*
X122019D01*
X122146Y189578D01*
X122073Y189924D01*
X119085Y190453D01*
X139947D01*
X142935Y180614D01*
Y180596D01*
X142953Y180578D01*
X142972Y180468D01*
X143008Y180322D01*
X143063Y180158D01*
X143117Y179958D01*
X143154Y179776D01*
X143172Y179630D01*
X143190Y179521D01*
Y179502D01*
X143172Y179466D01*
X143154Y179393D01*
X143117Y179339D01*
X143099Y179320D01*
X143063Y179302D01*
X143008Y179284D01*
X142953Y179266D01*
X142935D01*
X142862Y179284D01*
X142771Y179320D01*
X142662Y179375D01*
X142643Y179393D01*
X142589Y179448D01*
X142498Y179521D01*
X142388Y179630D01*
X142243Y179794D01*
X142097Y179976D01*
X141915Y180213D01*
X141733Y180486D01*
X141386Y180322D01*
Y180304D01*
X141423Y180268D01*
X141459Y180195D01*
X141532Y180122D01*
X141696Y179903D01*
X141896Y179630D01*
X142133Y179339D01*
X142407Y179047D01*
X142716Y178774D01*
X143008Y178537D01*
X143026Y178519D01*
X143099Y178482D01*
X143208Y178428D01*
X143354Y178355D01*
X143536Y178282D01*
X143719Y178227D01*
X143937Y178191D01*
X144156Y178173D01*
X144247D01*
X144356Y178191D01*
X144484Y178209D01*
X144630Y178245D01*
X144793Y178300D01*
X144939Y178373D01*
X145085Y178464D01*
X145103Y178482D01*
X145140Y178519D01*
X145194Y178592D01*
X145249Y178683D01*
X145304Y178792D01*
X145358Y178919D01*
X145395Y179047D01*
X145413Y179211D01*
Y179266D01*
X145395Y179339D01*
X145377Y179448D01*
X145358Y179594D01*
X145322Y179776D01*
X145267Y179976D01*
X145194Y180231D01*
X142771Y188230D01*
X142753Y188266D01*
X142735Y188339D01*
X142698Y188449D01*
X142662Y188594D01*
X142607Y188868D01*
X142571Y189013D01*
Y189104D01*
Y189123D01*
Y189141D01*
X142589Y189232D01*
X142662Y189341D01*
X142698Y189396D01*
X142771Y189432D01*
X142789D01*
X142826Y189469D01*
X142880Y189487D01*
X142972Y189523D01*
X143081Y189560D01*
X143208Y189578D01*
X143372Y189596D01*
X143554D01*
X143482Y189924D01*
X140494Y190453D01*
X156381D01*
X156764Y180796D01*
Y180760D01*
Y180669D01*
Y180559D01*
Y180395D01*
X156782Y180250D01*
Y180104D01*
Y179976D01*
Y179885D01*
Y179867D01*
Y179794D01*
X156764Y179685D01*
X156746Y179557D01*
X156673Y179266D01*
X156618Y179120D01*
X156545Y179011D01*
X156527Y178992D01*
X156491Y178974D01*
X156436Y178919D01*
X156363Y178883D01*
X156254Y178828D01*
X156108Y178774D01*
X155944Y178737D01*
X155762Y178719D01*
X155853Y178409D01*
X160918D01*
X160827Y178719D01*
X160791D01*
X160699Y178737D01*
X160590D01*
X160444Y178755D01*
X160281Y178774D01*
X160153Y178792D01*
X160044Y178810D01*
X159971Y178828D01*
X159952D01*
X159934Y178847D01*
X159825Y178938D01*
X159752Y179011D01*
X159679Y179102D01*
X159606Y179211D01*
X159533Y179339D01*
X159515Y179357D01*
X159497Y179411D01*
X159461Y179521D01*
X159424Y179666D01*
X159388Y179849D01*
X159333Y180086D01*
X159297Y180377D01*
X159278Y180705D01*
X159205Y182199D01*
X162849D01*
X163578Y181288D01*
X164416Y180286D01*
X164435Y180268D01*
X164453Y180231D01*
X164507Y180177D01*
X164562Y180104D01*
X164672Y179903D01*
X164781Y179703D01*
X164799Y179666D01*
X164817Y179575D01*
X164854Y179448D01*
X164872Y179302D01*
Y179266D01*
X164836Y179175D01*
X164781Y179065D01*
X164726Y178992D01*
X164653Y178919D01*
X164635D01*
X164599Y178883D01*
X164544Y178865D01*
X164471Y178828D01*
X164362Y178792D01*
X164234Y178755D01*
X164088Y178737D01*
X163906Y178719D01*
Y178409D01*
X167404D01*
X167332Y178719D01*
X167313D01*
X167259Y178737D01*
X167168Y178755D01*
X167040Y178792D01*
X166785Y178883D01*
X166493Y179047D01*
X166475Y179065D01*
X166402Y179120D01*
X166293Y179211D01*
X166147Y179357D01*
X165947Y179557D01*
X165710Y179794D01*
X165437Y180104D01*
X165109Y180486D01*
X156764Y190453D01*
X180905D01*
Y190416D01*
D02*
G37*
%LPC*%
G36*
X161907Y170535D02*
X161634D01*
X162190Y168668D01*
X162181Y168677D01*
X162162Y168704D01*
X162135Y168750D01*
X162099Y168804D01*
X162044Y168868D01*
X161989Y168941D01*
X161862Y169114D01*
X161725Y169305D01*
X161579Y169488D01*
X161443Y169651D01*
X161379Y169724D01*
X161324Y169788D01*
X161315Y169797D01*
X161306Y169806D01*
X161251Y169861D01*
X161179Y169934D01*
X161078Y170025D01*
X160960Y170116D01*
X160842Y170216D01*
X160723Y170298D01*
X160605Y170371D01*
X160587Y170380D01*
X160550Y170398D01*
X160495Y170426D01*
X160413Y170453D01*
X160331Y170481D01*
X160231Y170508D01*
X160131Y170526D01*
X160031Y170535D01*
X159994D01*
X159949Y170526D01*
X159894Y170517D01*
X159830Y170490D01*
X159757Y170462D01*
X159685Y170417D01*
X159621Y170353D01*
X159612Y170344D01*
X159593Y170317D01*
X159566Y170280D01*
X159530Y170225D01*
X159502Y170162D01*
X159475Y170080D01*
X159457Y169980D01*
X159448Y169879D01*
Y169870D01*
Y169834D01*
X159457Y169788D01*
Y169715D01*
X159475Y169633D01*
X159493Y169533D01*
X159521Y169415D01*
X159557Y169296D01*
X160149Y167474D01*
Y167465D01*
X160158Y167438D01*
X160177Y167392D01*
X160186Y167347D01*
X160222Y167246D01*
X160231Y167201D01*
Y167165D01*
Y167155D01*
X160222Y167137D01*
X160213Y167110D01*
X160195Y167083D01*
X160186Y167073D01*
X160177Y167064D01*
X160149Y167055D01*
X160131Y167046D01*
X160122D01*
X160104Y167055D01*
X160067Y167064D01*
X160031Y167083D01*
X160022Y167092D01*
X160003Y167110D01*
X159976Y167137D01*
X159940Y167174D01*
X159894Y167228D01*
X159839Y167283D01*
X159785Y167356D01*
X159721Y167438D01*
X159712Y167447D01*
X159694Y167483D01*
X159648Y167538D01*
X159593Y167620D01*
X159430Y167520D01*
X159439Y167511D01*
X159457Y167474D01*
X159493Y167420D01*
X159539Y167356D01*
X159603Y167274D01*
X159676Y167183D01*
X159748Y167092D01*
X159839Y166991D01*
X160049Y166800D01*
X160158Y166709D01*
X160277Y166627D01*
X160395Y166563D01*
X160523Y166508D01*
X160650Y166472D01*
X160787Y166463D01*
X160832D01*
X160878Y166472D01*
X160942Y166481D01*
X161015Y166499D01*
X161078Y166518D01*
X161151Y166554D01*
X161215Y166600D01*
X161224Y166609D01*
X161242Y166627D01*
X161261Y166654D01*
X161288Y166691D01*
X161324Y166745D01*
X161343Y166800D01*
X161361Y166873D01*
X161370Y166946D01*
Y166955D01*
Y166982D01*
X161361Y167019D01*
X161352Y167083D01*
X161343Y167155D01*
X161315Y167256D01*
X161288Y167365D01*
X161251Y167492D01*
X160669Y169342D01*
Y169351D01*
X160659Y169369D01*
X160650Y169405D01*
X160632Y169442D01*
X160614Y169533D01*
X160605Y169570D01*
Y169606D01*
Y169615D01*
X160614Y169633D01*
X160623Y169661D01*
X160650Y169688D01*
X160659Y169697D01*
X160678Y169715D01*
X160714Y169724D01*
X160750Y169734D01*
X160787D01*
X160823Y169724D01*
X160869Y169706D01*
X160933Y169679D01*
X161015Y169633D01*
X161097Y169579D01*
X161188Y169506D01*
X161197Y169497D01*
X161215Y169478D01*
X161251Y169442D01*
X161297Y169396D01*
X161361Y169342D01*
X161425Y169269D01*
X161507Y169178D01*
X161589Y169078D01*
X161689Y168968D01*
X161789Y168841D01*
X161889Y168695D01*
X161998Y168549D01*
X162108Y168376D01*
X162226Y168203D01*
X162336Y168012D01*
X162454Y167802D01*
X162828Y166518D01*
X163939D01*
X163110Y169296D01*
Y169305D01*
X163101Y169314D01*
X163092Y169360D01*
X163074Y169433D01*
X163046Y169524D01*
X163010Y169715D01*
X162991Y169806D01*
X162982Y169879D01*
Y169888D01*
Y169925D01*
X163001Y169961D01*
X163019Y169998D01*
X163028Y170007D01*
X163046Y170025D01*
X163092Y170052D01*
X163146Y170071D01*
X163165Y170080D01*
X163183D01*
X163219Y170089D01*
X163256Y170098D01*
X163310D01*
X163374Y170107D01*
X163456D01*
X163420Y170271D01*
X161907Y170535D01*
D02*
G37*
G36*
X155685Y172403D02*
X153763D01*
X151923Y168467D01*
X151103Y171328D01*
Y171337D01*
X151094Y171364D01*
X151085Y171410D01*
X151067Y171474D01*
X151048Y171601D01*
X151039Y171747D01*
Y171756D01*
Y171783D01*
X151048Y171820D01*
X151057Y171874D01*
X151076Y171929D01*
X151094Y171984D01*
X151130Y172038D01*
X151176Y172093D01*
X151185Y172102D01*
X151203Y172111D01*
X151240Y172139D01*
X151285Y172157D01*
X151349Y172184D01*
X151431Y172211D01*
X151522Y172230D01*
X151640Y172248D01*
X151595Y172403D01*
X149746D01*
X149791Y172248D01*
X149809D01*
X149846Y172239D01*
X149919Y172230D01*
X150001Y172211D01*
X150092Y172184D01*
X150192Y172148D01*
X150292Y172102D01*
X150383Y172038D01*
X150392Y172029D01*
X150420Y172002D01*
X150465Y171956D01*
X150520Y171883D01*
X150575Y171792D01*
X150638Y171665D01*
X150702Y171510D01*
X150766Y171328D01*
X152169Y166454D01*
X152305D01*
X154701Y171464D01*
X155813Y167556D01*
Y167547D01*
X155822Y167520D01*
X155831Y167483D01*
X155840Y167429D01*
X155868Y167310D01*
X155877Y167192D01*
Y167183D01*
Y167155D01*
X155868Y167110D01*
X155858Y167055D01*
X155840Y166991D01*
X155813Y166928D01*
X155776Y166864D01*
X155722Y166809D01*
X155713Y166800D01*
X155694Y166791D01*
X155658Y166764D01*
X155603Y166745D01*
X155530Y166718D01*
X155448Y166691D01*
X155348Y166682D01*
X155230Y166673D01*
X155266Y166518D01*
X157170D01*
X157134Y166673D01*
X157052D01*
X156997Y166682D01*
X156888Y166691D01*
X156833Y166700D01*
X156797Y166709D01*
X156788D01*
X156769Y166727D01*
X156733Y166745D01*
X156687Y166773D01*
X156633Y166809D01*
X156569Y166855D01*
X156505Y166909D01*
X156441Y166973D01*
X156432Y166982D01*
X156414Y167010D01*
X156378Y167055D01*
X156341Y167119D01*
X156296Y167201D01*
X156241Y167301D01*
X156195Y167420D01*
X156159Y167547D01*
X154929Y171829D01*
X154938Y171838D01*
X154966Y171874D01*
X155002Y171920D01*
X155057Y171975D01*
X155175Y172084D01*
X155239Y172129D01*
X155294Y172166D01*
X155303D01*
X155321Y172175D01*
X155357Y172193D01*
X155403Y172202D01*
X155457Y172221D01*
X155540Y172230D01*
X155622Y172239D01*
X155722Y172248D01*
X155685Y172403D01*
D02*
G37*
G36*
X179007D02*
X176247D01*
X176292Y172248D01*
X176383D01*
X176447Y172239D01*
X176584Y172211D01*
X176647Y172184D01*
X176711Y172157D01*
X176720Y172148D01*
X176748Y172139D01*
X176784Y172111D01*
X176830Y172075D01*
X176875Y172029D01*
X176930Y171975D01*
X176985Y171902D01*
X177030Y171829D01*
Y171820D01*
X177048Y171801D01*
X177067Y171756D01*
X177085Y171692D01*
X177121Y171601D01*
X177157Y171483D01*
X177203Y171346D01*
X177258Y171164D01*
X177659Y169752D01*
X178278Y167602D01*
Y167584D01*
X178296Y167547D01*
X178305Y167474D01*
X178324Y167401D01*
X178360Y167228D01*
X178369Y167146D01*
X178378Y167073D01*
Y167064D01*
Y167046D01*
X178369Y167010D01*
X178360Y166973D01*
X178342Y166919D01*
X178324Y166873D01*
X178287Y166827D01*
X178242Y166782D01*
X178233D01*
X178214Y166764D01*
X178178Y166745D01*
X178123Y166727D01*
X178050Y166709D01*
X177959Y166691D01*
X177850Y166682D01*
X177722Y166673D01*
X177768Y166518D01*
X180610D01*
X180565Y166673D01*
X180510D01*
X180446Y166682D01*
X180373D01*
X180209Y166709D01*
X180127Y166727D01*
X180064Y166754D01*
X180054D01*
X180036Y166773D01*
X180000Y166791D01*
X179963Y166818D01*
X179872Y166900D01*
X179790Y167019D01*
X179781Y167028D01*
X179772Y167055D01*
X179754Y167101D01*
X179727Y167165D01*
X179690Y167256D01*
X179645Y167374D01*
X179599Y167511D01*
X179553Y167684D01*
X178570Y171109D01*
Y171118D01*
X178560Y171136D01*
X178551Y171164D01*
X178542Y171200D01*
X178515Y171309D01*
X178488Y171428D01*
X178460Y171555D01*
X178433Y171674D01*
X178415Y171783D01*
X178406Y171829D01*
Y171865D01*
Y171874D01*
Y171893D01*
X178415Y171920D01*
X178424Y171956D01*
X178442Y171993D01*
X178460Y172038D01*
X178497Y172075D01*
X178542Y172120D01*
X178551Y172129D01*
X178570Y172139D01*
X178606Y172157D01*
X178661Y172175D01*
X178725Y172202D01*
X178816Y172221D01*
X178925Y172239D01*
X179061Y172248D01*
X179007Y172403D01*
D02*
G37*
G36*
X175928D02*
X173714D01*
X173759Y172248D01*
X173769D01*
X173805Y172239D01*
X173851D01*
X173905Y172230D01*
X174042Y172202D01*
X174179Y172166D01*
X174188D01*
X174215Y172157D01*
X174261Y172139D01*
X174315Y172111D01*
X174388Y172084D01*
X174470Y172038D01*
X174561Y171993D01*
X174661Y171929D01*
X174671Y171920D01*
X174707Y171902D01*
X174762Y171865D01*
X174835Y171820D01*
X174917Y171765D01*
X175008Y171692D01*
X175217Y171537D01*
X175618Y171164D01*
X176547Y170326D01*
X175855Y168157D01*
Y168148D01*
X175837Y168112D01*
X175818Y168057D01*
X175800Y167984D01*
X175773Y167902D01*
X175736Y167802D01*
X175663Y167593D01*
X175582Y167365D01*
X175536Y167256D01*
X175490Y167155D01*
X175454Y167064D01*
X175408Y166982D01*
X175372Y166919D01*
X175336Y166873D01*
X175326Y166864D01*
X175299Y166846D01*
X175263Y166809D01*
X175199Y166773D01*
X175135Y166736D01*
X175044Y166709D01*
X174953Y166682D01*
X174844Y166673D01*
X174889Y166518D01*
X177440D01*
X177394Y166673D01*
X177385D01*
X177349Y166682D01*
X177303D01*
X177249Y166700D01*
X177130Y166736D01*
X177067Y166773D01*
X177021Y166809D01*
X177012Y166818D01*
X177003Y166837D01*
X176985Y166864D01*
X176957Y166900D01*
X176921Y166991D01*
X176912Y167055D01*
X176902Y167119D01*
Y167128D01*
Y167155D01*
X176912Y167201D01*
X176921Y167274D01*
X176930Y167365D01*
X176957Y167465D01*
X176985Y167602D01*
X177030Y167747D01*
X177659Y169752D01*
X176128Y171164D01*
X176119Y171173D01*
X176110Y171182D01*
X176055Y171228D01*
X175982Y171300D01*
X175900Y171382D01*
X175809Y171464D01*
X175727Y171546D01*
X175663Y171610D01*
X175645Y171637D01*
X175627Y171656D01*
Y171665D01*
X175618Y171674D01*
X175591Y171729D01*
X175563Y171801D01*
X175554Y171893D01*
Y171902D01*
Y171911D01*
X175563Y171965D01*
X175600Y172038D01*
X175618Y172075D01*
X175654Y172111D01*
Y172120D01*
X175673Y172129D01*
X175691Y172148D01*
X175727Y172166D01*
X175773Y172193D01*
X175828Y172211D01*
X175891Y172230D01*
X175973Y172248D01*
X175928Y172403D01*
D02*
G37*
G36*
X150715Y186444D02*
X150697Y186426D01*
X150679Y186390D01*
X150642Y186317D01*
X150587Y186226D01*
X150515Y186098D01*
X150442Y185952D01*
X150351Y185788D01*
X150259Y185606D01*
X150077Y185187D01*
X149877Y184695D01*
X149713Y184167D01*
X149567Y183602D01*
X149549Y183620D01*
X149531Y183657D01*
X149476Y183730D01*
X149421Y183802D01*
X149276Y184021D01*
X149075Y184294D01*
X148875Y184586D01*
X148656Y184877D01*
X148456Y185133D01*
X148274Y185351D01*
X148255Y185388D01*
X148182Y185460D01*
X148073Y185570D01*
X147927Y185716D01*
X147636Y186007D01*
X147472Y186135D01*
X147326Y186226D01*
X147308Y186244D01*
X147253Y186262D01*
X147180Y186299D01*
X147089Y186335D01*
X146962Y186372D01*
X146834Y186408D01*
X146670Y186444D01*
X146451D01*
X146360Y186426D01*
X146251Y186408D01*
X146142Y186372D01*
X146014Y186335D01*
X145905Y186262D01*
X145796Y186171D01*
X145777Y186153D01*
X145759Y186116D01*
X145704Y186062D01*
X145650Y185989D01*
X145613Y185898D01*
X145559Y185770D01*
X145540Y185643D01*
X145522Y185479D01*
Y185406D01*
X145540Y185333D01*
X145559Y185242D01*
X145595Y185133D01*
X145632Y185005D01*
X145704Y184896D01*
X145796Y184786D01*
X145814Y184768D01*
X145832Y184750D01*
X145887Y184713D01*
X145959Y184659D01*
X146160Y184568D01*
X146288Y184549D01*
X146415Y184531D01*
X146524D01*
X146597Y184549D01*
X146816Y184568D01*
X147071Y184622D01*
X147089D01*
X147126Y184641D01*
X147180Y184659D01*
X147253Y184677D01*
X147417Y184713D01*
X147508Y184732D01*
X147618D01*
X147690Y184713D01*
X147782Y184695D01*
X147891Y184659D01*
X148000Y184622D01*
X148128Y184549D01*
X148255Y184458D01*
X148274Y184440D01*
X148328Y184386D01*
X148438Y184294D01*
X148565Y184149D01*
X148729Y183930D01*
X148911Y183675D01*
X149130Y183347D01*
X149239Y183165D01*
X149367Y182946D01*
Y182910D01*
X149330Y182837D01*
X149294Y182709D01*
X149239Y182527D01*
X149185Y182327D01*
X149112Y182090D01*
X149021Y181853D01*
X148929Y181580D01*
X148747Y181033D01*
X148656Y180778D01*
X148547Y180523D01*
X148456Y180286D01*
X148365Y180086D01*
X148274Y179903D01*
X148182Y179776D01*
X148164Y179758D01*
X148146Y179721D01*
X148091Y179666D01*
X148018Y179612D01*
X147854Y179502D01*
X147763Y179466D01*
X147654Y179448D01*
X147618D01*
X147527Y179466D01*
X147399Y179502D01*
X147271Y179557D01*
X147253Y179575D01*
X147217Y179594D01*
X147162Y179666D01*
X147071Y179758D01*
X146962Y179885D01*
X146834Y180067D01*
X146670Y180286D01*
X146488Y180559D01*
X146178Y180359D01*
Y180341D01*
X146215Y180304D01*
X146251Y180231D01*
X146306Y180158D01*
X146451Y179922D01*
X146652Y179666D01*
X146871Y179357D01*
X147126Y179065D01*
X147399Y178792D01*
X147672Y178573D01*
X147690Y178555D01*
X147763Y178519D01*
X147873Y178446D01*
X148018Y178373D01*
X148182Y178300D01*
X148365Y178227D01*
X148565Y178191D01*
X148765Y178173D01*
X148856D01*
X148966Y178191D01*
X149093Y178209D01*
X149385Y178282D01*
X149549Y178337D01*
X149695Y178409D01*
X149713Y178428D01*
X149749Y178464D01*
X149822Y178519D01*
X149913Y178610D01*
X150023Y178719D01*
X150132Y178865D01*
X150241Y179029D01*
X150351Y179211D01*
X150369Y179229D01*
X150405Y179320D01*
X150460Y179448D01*
X150533Y179648D01*
X150624Y179903D01*
X150733Y180213D01*
X150861Y180578D01*
X151006Y181015D01*
X151025Y180997D01*
X151043Y180960D01*
X151098Y180887D01*
X151171Y180796D01*
X151262Y180705D01*
X151353Y180578D01*
X151590Y180286D01*
X151845Y179976D01*
X152118Y179666D01*
X152373Y179375D01*
X152610Y179120D01*
X152628Y179102D01*
X152701Y179029D01*
X152810Y178919D01*
X152956Y178810D01*
X153266Y178555D01*
X153430Y178446D01*
X153576Y178355D01*
X153594D01*
X153648Y178318D01*
X153721Y178300D01*
X153812Y178264D01*
X153940Y178227D01*
X154086Y178209D01*
X154395Y178173D01*
X154468D01*
X154541Y178191D01*
X154632Y178209D01*
X154869Y178282D01*
X154978Y178337D01*
X155088Y178428D01*
X155106Y178446D01*
X155124Y178482D01*
X155179Y178537D01*
X155215Y178610D01*
X155270Y178701D01*
X155325Y178828D01*
X155343Y178956D01*
X155361Y179102D01*
Y179175D01*
X155343Y179247D01*
X155325Y179357D01*
X155288Y179466D01*
X155234Y179594D01*
X155161Y179721D01*
X155070Y179831D01*
X155051Y179849D01*
X155015Y179885D01*
X154960Y179922D01*
X154869Y179976D01*
X154760Y180031D01*
X154650Y180086D01*
X154505Y180104D01*
X154359Y180122D01*
X154268D01*
X154195Y180104D01*
X154031Y180067D01*
X153812Y179976D01*
X153794D01*
X153740Y179940D01*
X153667Y179903D01*
X153576Y179867D01*
X153375Y179794D01*
X153284Y179776D01*
X153193Y179758D01*
X153156D01*
X153047Y179776D01*
X152901Y179794D01*
X152737Y179849D01*
X152719D01*
X152683Y179885D01*
X152628Y179922D01*
X152555Y179976D01*
X152464Y180049D01*
X152355Y180158D01*
X152227Y180286D01*
X152082Y180432D01*
X152063Y180450D01*
X152027Y180486D01*
X151972Y180559D01*
X151881Y180687D01*
X151753Y180833D01*
X151608Y181033D01*
X151407Y181288D01*
X151189Y181580D01*
Y181616D01*
X151225Y181707D01*
X151262Y181871D01*
X151334Y182072D01*
X151389Y182308D01*
X151480Y182582D01*
X151571Y182891D01*
X151662Y183201D01*
X151881Y183839D01*
X151990Y184149D01*
X152100Y184440D01*
X152209Y184695D01*
X152300Y184932D01*
X152409Y185114D01*
X152500Y185260D01*
X152519Y185278D01*
X152555Y185315D01*
X152610Y185388D01*
X152701Y185460D01*
X152810Y185515D01*
X152938Y185588D01*
X153084Y185625D01*
X153248Y185643D01*
X153411D01*
X153594Y185625D01*
X153812Y185588D01*
X153740Y185916D01*
X150715Y186444D01*
D02*
G37*
G36*
X99426D02*
X98879D01*
X99990Y182709D01*
X99972Y182728D01*
X99936Y182782D01*
X99881Y182873D01*
X99808Y182983D01*
X99699Y183110D01*
X99590Y183256D01*
X99335Y183602D01*
X99061Y183985D01*
X98770Y184349D01*
X98497Y184677D01*
X98369Y184823D01*
X98260Y184950D01*
X98241Y184968D01*
X98223Y184987D01*
X98114Y185096D01*
X97968Y185242D01*
X97768Y185424D01*
X97531Y185606D01*
X97294Y185807D01*
X97057Y185971D01*
X96820Y186116D01*
X96784Y186135D01*
X96711Y186171D01*
X96602Y186226D01*
X96438Y186280D01*
X96274Y186335D01*
X96073Y186390D01*
X95873Y186426D01*
X95672Y186444D01*
X95600D01*
X95508Y186426D01*
X95399Y186408D01*
X95271Y186353D01*
X95126Y186299D01*
X94980Y186207D01*
X94852Y186080D01*
X94834Y186062D01*
X94798Y186007D01*
X94743Y185934D01*
X94670Y185825D01*
X94616Y185697D01*
X94561Y185533D01*
X94525Y185333D01*
X94506Y185133D01*
Y185114D01*
Y185041D01*
X94525Y184950D01*
Y184805D01*
X94561Y184641D01*
X94597Y184440D01*
X94652Y184203D01*
X94725Y183966D01*
X95909Y180322D01*
Y180304D01*
X95927Y180250D01*
X95964Y180158D01*
X95982Y180067D01*
X96055Y179867D01*
X96073Y179776D01*
Y179703D01*
Y179685D01*
X96055Y179648D01*
X96037Y179594D01*
X96000Y179539D01*
X95982Y179521D01*
X95964Y179502D01*
X95909Y179484D01*
X95873Y179466D01*
X95855D01*
X95818Y179484D01*
X95745Y179502D01*
X95672Y179539D01*
X95654Y179557D01*
X95618Y179594D01*
X95563Y179648D01*
X95490Y179721D01*
X95399Y179831D01*
X95290Y179940D01*
X95180Y180086D01*
X95053Y180250D01*
X95035Y180268D01*
X94998Y180341D01*
X94907Y180450D01*
X94798Y180614D01*
X94470Y180413D01*
X94488Y180395D01*
X94525Y180322D01*
X94597Y180213D01*
X94688Y180086D01*
X94816Y179922D01*
X94962Y179739D01*
X95108Y179557D01*
X95290Y179357D01*
X95709Y178974D01*
X95927Y178792D01*
X96164Y178628D01*
X96401Y178500D01*
X96656Y178391D01*
X96911Y178318D01*
X97185Y178300D01*
X97276D01*
X97367Y178318D01*
X97494Y178337D01*
X97640Y178373D01*
X97768Y178409D01*
X97913Y178482D01*
X98041Y178573D01*
X98059Y178592D01*
X98096Y178628D01*
X98132Y178683D01*
X98187Y178755D01*
X98260Y178865D01*
X98296Y178974D01*
X98333Y179120D01*
X98351Y179266D01*
Y179284D01*
Y179339D01*
X98333Y179411D01*
X98314Y179539D01*
X98296Y179685D01*
X98241Y179885D01*
X98187Y180104D01*
X98114Y180359D01*
X96948Y184057D01*
Y184076D01*
X96930Y184112D01*
X96911Y184185D01*
X96875Y184258D01*
X96838Y184440D01*
X96820Y184513D01*
Y184586D01*
Y184604D01*
X96838Y184641D01*
X96857Y184695D01*
X96911Y184750D01*
X96930Y184768D01*
X96966Y184805D01*
X97039Y184823D01*
X97112Y184841D01*
X97185D01*
X97258Y184823D01*
X97349Y184786D01*
X97476Y184732D01*
X97640Y184641D01*
X97804Y184531D01*
X97986Y184386D01*
X98005Y184367D01*
X98041Y184331D01*
X98114Y184258D01*
X98205Y184167D01*
X98333Y184057D01*
X98460Y183912D01*
X98624Y183730D01*
X98788Y183529D01*
X98988Y183310D01*
X99189Y183055D01*
X99389Y182764D01*
X99608Y182472D01*
X99827Y182126D01*
X100063Y181780D01*
X100282Y181397D01*
X100519Y180978D01*
X101266Y178409D01*
X103489D01*
X101831Y183966D01*
Y183985D01*
X101813Y184003D01*
X101794Y184094D01*
X101758Y184240D01*
X101703Y184422D01*
X101630Y184805D01*
X101594Y184987D01*
X101576Y185133D01*
Y185151D01*
Y185224D01*
X101612Y185296D01*
X101648Y185369D01*
X101667Y185388D01*
X101703Y185424D01*
X101794Y185479D01*
X101904Y185515D01*
X101940Y185533D01*
X101977D01*
X102049Y185552D01*
X102122Y185570D01*
X102232D01*
X102359Y185588D01*
X102523D01*
X102450Y185916D01*
X99426Y186444D01*
D02*
G37*
G36*
X115550D02*
X114967D01*
X116490Y181588D01*
X116480Y181598D01*
X116461Y181652D01*
X116425Y181725D01*
X116352Y181889D01*
X116243Y182126D01*
X116115Y182418D01*
X115969Y182728D01*
X115805Y183092D01*
X115623Y183456D01*
X115241Y184203D01*
X115040Y184568D01*
X114858Y184914D01*
X114658Y185242D01*
X114475Y185533D01*
X114311Y185770D01*
X114147Y185952D01*
X114129Y185971D01*
X114075Y186025D01*
X113983Y186116D01*
X113856Y186207D01*
X113710Y186280D01*
X113546Y186372D01*
X113364Y186426D01*
X113182Y186444D01*
X113127D01*
X113054Y186426D01*
X112963Y186408D01*
X112872Y186372D01*
X112781Y186335D01*
X112690Y186262D01*
X112599Y186171D01*
X112581Y186153D01*
X112562Y186116D01*
X112526Y186062D01*
X112489Y185989D01*
X112453Y185880D01*
X112417Y185752D01*
X112380Y185606D01*
Y185278D01*
X112398Y185133D01*
X112435Y184932D01*
X112471Y184713D01*
X112544Y184477D01*
X112653Y184240D01*
X112781Y184003D01*
X112799Y183985D01*
X112817Y183948D01*
X112872Y183894D01*
X112945Y183839D01*
X113127Y183711D01*
X113236Y183675D01*
X113346Y183657D01*
X113400D01*
X113455Y183675D01*
X113546Y183693D01*
X113619Y183730D01*
X113710Y183784D01*
X113783Y183857D01*
X113856Y183966D01*
Y183985D01*
X113874Y184021D01*
X113947Y184130D01*
X114020Y184258D01*
X114056Y184294D01*
X114093Y184331D01*
X114111Y184349D01*
X114129Y184367D01*
X114184Y184386D01*
X114239Y184404D01*
X114293D01*
X114348Y184386D01*
X114421Y184349D01*
X114457Y184331D01*
X114494Y184294D01*
X114548Y184240D01*
X114621Y184167D01*
X114712Y184076D01*
X114803Y183966D01*
X114913Y183821D01*
X114931Y183802D01*
X114967Y183748D01*
X115022Y183639D01*
X115113Y183511D01*
X115222Y183310D01*
X115350Y183092D01*
X115478Y182800D01*
X115641Y182472D01*
Y182454D01*
X115660Y182436D01*
X115678Y182381D01*
X115714Y182308D01*
X115787Y182144D01*
X115897Y181926D01*
X116006Y181671D01*
X116115Y181397D01*
X116225Y181124D01*
X116334Y180869D01*
X116352Y180833D01*
Y180796D01*
X116370Y180742D01*
X116407Y180669D01*
X116443Y180559D01*
X116480Y180450D01*
X116516Y180322D01*
X116571Y180158D01*
X116625Y179976D01*
X116680Y179776D01*
X116753Y179557D01*
X116826Y179302D01*
X116899Y179029D01*
X116990Y178737D01*
X117081Y178409D01*
X119194D01*
X118538Y180705D01*
X117555Y184149D01*
Y184185D01*
X117536Y184258D01*
X117500Y184367D01*
X117464Y184495D01*
X117409Y184786D01*
X117391Y184914D01*
Y185005D01*
Y185023D01*
Y185041D01*
X117409Y185133D01*
X117427Y185260D01*
X117500Y185369D01*
X117518Y185388D01*
X117573Y185442D01*
X117646Y185497D01*
X117773Y185552D01*
X117810Y185570D01*
X117864D01*
X117937Y185588D01*
X118028Y185606D01*
X118156D01*
X118320Y185625D01*
X118502D01*
X118429Y185880D01*
X115550Y186444D01*
D02*
G37*
G36*
X171650Y183201D02*
X166603D01*
X167131Y181397D01*
X172215D01*
X172178Y181514D01*
X171650Y183201D01*
D02*
G37*
G36*
X134408Y186444D02*
X134281D01*
X134153Y186426D01*
X133989Y186408D01*
X133807Y186353D01*
X133625Y186299D01*
X133442Y186207D01*
X133297Y186098D01*
X133278Y186080D01*
X133242Y186044D01*
X133169Y185952D01*
X133096Y185861D01*
X133042Y185734D01*
X132969Y185588D01*
X132932Y185406D01*
X132914Y185224D01*
Y185114D01*
X132932Y184987D01*
X132969Y184823D01*
X133005Y184641D01*
X133078Y184440D01*
X133169Y184203D01*
X133297Y183985D01*
X133315Y183948D01*
X133388Y183857D01*
X133497Y183711D01*
X133643Y183529D01*
X133825Y183310D01*
X134026Y183092D01*
X134281Y182873D01*
X134554Y182673D01*
X134590Y182655D01*
X134681Y182600D01*
X134845Y182509D01*
X135064Y182399D01*
X135319Y182272D01*
X135611Y182144D01*
X135939Y182035D01*
X136285Y181926D01*
X136321D01*
X136394Y181889D01*
X136540Y181871D01*
X136722Y181835D01*
X136977Y181780D01*
X137269Y181744D01*
X137597Y181707D01*
X137979Y181671D01*
Y181652D01*
X137997Y181580D01*
Y181470D01*
X138016Y181343D01*
X138034Y181033D01*
X138052Y180869D01*
Y180723D01*
Y180687D01*
Y180614D01*
X138034Y180505D01*
X137997Y180359D01*
X137961Y180195D01*
X137906Y180013D01*
X137815Y179849D01*
X137688Y179685D01*
X137670Y179666D01*
X137615Y179630D01*
X137524Y179557D01*
X137414Y179502D01*
X137269Y179430D01*
X137086Y179357D01*
X136886Y179320D01*
X136667Y179302D01*
X136558D01*
X136431Y179320D01*
X136285Y179339D01*
X136102Y179357D01*
X135884Y179411D01*
X135665Y179466D01*
X135447Y179557D01*
X135410Y179575D01*
X135337Y179612D01*
X135210Y179666D01*
X135028Y179776D01*
X134827Y179903D01*
X134572Y180049D01*
X134299Y180250D01*
X134007Y180486D01*
X133752Y180250D01*
X133770Y180231D01*
X133789Y180195D01*
X133843Y180140D01*
X133916Y180067D01*
X134117Y179867D01*
X134372Y179630D01*
X134663Y179357D01*
X134991Y179102D01*
X135337Y178847D01*
X135702Y178646D01*
X135720D01*
X135738Y178628D01*
X135793Y178610D01*
X135866Y178573D01*
X136066Y178500D01*
X136321Y178409D01*
X136631Y178318D01*
X136977Y178245D01*
X137378Y178191D01*
X137797Y178173D01*
X137943D01*
X138034Y178191D01*
X138143D01*
X138289Y178209D01*
X138599Y178264D01*
X138927Y178337D01*
X139255Y178464D01*
X139564Y178628D01*
X139692Y178737D01*
X139801Y178865D01*
X139819Y178901D01*
X139892Y178992D01*
X139947Y179102D01*
X139965Y179138D01*
X140075Y179320D01*
X140166Y179557D01*
X140257Y179831D01*
X140330Y180122D01*
X140348Y180450D01*
Y180468D01*
Y180523D01*
Y180596D01*
X140330Y180687D01*
Y180833D01*
X140311Y180978D01*
X140275Y181142D01*
X140238Y181343D01*
X140147Y181762D01*
X140002Y182254D01*
X139947Y182393D01*
X139801Y182764D01*
X139674Y183019D01*
X139528Y183292D01*
X139510Y183310D01*
X139491Y183347D01*
X139437Y183438D01*
X139382Y183529D01*
X139291Y183657D01*
X139182Y183784D01*
X138927Y184112D01*
X138599Y184477D01*
X138216Y184859D01*
X137779Y185224D01*
X137269Y185570D01*
X137250Y185588D01*
X137196Y185606D01*
X137123Y185643D01*
X137032Y185716D01*
X136886Y185770D01*
X136740Y185843D01*
X136576Y185934D01*
X136376Y186007D01*
X135939Y186171D01*
X135465Y186317D01*
X134936Y186408D01*
X134681Y186426D01*
X134408Y186444D01*
D02*
G37*
G36*
X87510D02*
X87382D01*
X87255Y186426D01*
X87091Y186408D01*
X86909Y186353D01*
X86726Y186299D01*
X86544Y186207D01*
X86398Y186098D01*
X86380Y186080D01*
X86344Y186044D01*
X86271Y185952D01*
X86198Y185861D01*
X86143Y185734D01*
X86070Y185588D01*
X86034Y185406D01*
X86016Y185224D01*
Y185114D01*
X86034Y184987D01*
X86070Y184823D01*
X86107Y184641D01*
X86180Y184440D01*
X86271Y184203D01*
X86398Y183985D01*
X86417Y183948D01*
X86489Y183857D01*
X86599Y183711D01*
X86745Y183529D01*
X86927Y183310D01*
X87127Y183092D01*
X87382Y182873D01*
X87656Y182673D01*
X87692Y182655D01*
X87783Y182600D01*
X87947Y182509D01*
X88166Y182399D01*
X88421Y182272D01*
X88712Y182144D01*
X89040Y182035D01*
X89386Y181926D01*
X89423D01*
X89496Y181889D01*
X89641Y181871D01*
X89824Y181835D01*
X90079Y181780D01*
X90370Y181744D01*
X90698Y181707D01*
X91081Y181671D01*
Y181652D01*
X91099Y181580D01*
Y181470D01*
X91117Y181343D01*
X91136Y181033D01*
X91154Y180869D01*
Y180723D01*
Y180687D01*
Y180614D01*
X91136Y180505D01*
X91099Y180359D01*
X91063Y180195D01*
X91008Y180013D01*
X90917Y179849D01*
X90789Y179685D01*
X90771Y179666D01*
X90716Y179630D01*
X90625Y179557D01*
X90516Y179502D01*
X90370Y179430D01*
X90188Y179357D01*
X89988Y179320D01*
X89769Y179302D01*
X89660D01*
X89532Y179320D01*
X89386Y179339D01*
X89204Y179357D01*
X88986Y179411D01*
X88767Y179466D01*
X88548Y179557D01*
X88512Y179575D01*
X88439Y179612D01*
X88311Y179666D01*
X88129Y179776D01*
X87929Y179903D01*
X87674Y180049D01*
X87401Y180250D01*
X87109Y180486D01*
X86854Y180250D01*
X86872Y180231D01*
X86890Y180195D01*
X86945Y180140D01*
X87018Y180067D01*
X87218Y179867D01*
X87473Y179630D01*
X87765Y179357D01*
X88093Y179102D01*
X88439Y178847D01*
X88803Y178646D01*
X88822D01*
X88840Y178628D01*
X88894Y178610D01*
X88967Y178573D01*
X89168Y178500D01*
X89423Y178409D01*
X89733Y178318D01*
X90079Y178245D01*
X90480Y178191D01*
X90899Y178173D01*
X91044D01*
X91136Y178191D01*
X91245D01*
X91391Y178209D01*
X91700Y178264D01*
X92028Y178337D01*
X92356Y178464D01*
X92666Y178628D01*
X92794Y178737D01*
X92903Y178865D01*
X92921Y178901D01*
X92994Y178992D01*
X93067Y179138D01*
X93176Y179320D01*
X93267Y179557D01*
X93358Y179831D01*
X93431Y180122D01*
X93449Y180450D01*
Y180596D01*
X93431Y180687D01*
Y180833D01*
X93413Y180978D01*
X93377Y181142D01*
X93340Y181343D01*
X93249Y181762D01*
X93103Y182254D01*
X92903Y182764D01*
X92775Y183019D01*
X92630Y183292D01*
X92611Y183310D01*
X92593Y183347D01*
X92538Y183438D01*
X92484Y183529D01*
X92393Y183657D01*
X92283Y183784D01*
X92028Y184112D01*
X91700Y184477D01*
X91318Y184859D01*
X90881Y185224D01*
X90370Y185570D01*
X90352Y185588D01*
X90298Y185606D01*
X90225Y185643D01*
X90134Y185716D01*
X89988Y185770D01*
X89842Y185843D01*
X89678Y185934D01*
X89477Y186007D01*
X89040Y186171D01*
X88566Y186317D01*
X88038Y186408D01*
X87783Y186426D01*
X87510Y186444D01*
D02*
G37*
G36*
X173362Y190416D02*
X172178D01*
X174638Y182345D01*
X173290D01*
X173745Y180887D01*
X175075D01*
X175895Y178173D01*
X177863D01*
X177043Y180887D01*
X180905D01*
X180486Y182345D01*
X173362Y190416D01*
D02*
G37*
G36*
X106768Y186444D02*
X106659D01*
X106513Y186426D01*
X106349Y186408D01*
X106149Y186372D01*
X105930Y186299D01*
X105693Y186226D01*
X105475Y186116D01*
X105456Y186098D01*
X105384Y186062D01*
X105274Y185989D01*
X105129Y185898D01*
X104983Y185770D01*
X104837Y185625D01*
X104691Y185442D01*
X104564Y185242D01*
X104545Y185224D01*
X104509Y185151D01*
X104473Y185023D01*
X104400Y184877D01*
X104345Y184695D01*
X104309Y184477D01*
X104272Y184240D01*
X104254Y183985D01*
Y183839D01*
X104272Y183748D01*
Y183620D01*
X104290Y183475D01*
X104327Y183292D01*
X104345Y183110D01*
X104454Y182691D01*
X104600Y182217D01*
X104782Y181707D01*
X104910Y181434D01*
X105056Y181179D01*
Y181161D01*
X105092Y181124D01*
X105129Y181051D01*
X105201Y180942D01*
X105274Y180833D01*
X105365Y180687D01*
X105602Y180377D01*
X105894Y180031D01*
X106258Y179666D01*
X106659Y179302D01*
X107115Y178974D01*
X107133D01*
X107169Y178938D01*
X107242Y178901D01*
X107333Y178847D01*
X107442Y178792D01*
X107588Y178719D01*
X107734Y178646D01*
X107916Y178573D01*
X108299Y178428D01*
X108736Y178300D01*
X109210Y178209D01*
X109465Y178191D01*
X109702Y178173D01*
X109811D01*
X109902Y178191D01*
X110103Y178209D01*
X110376Y178264D01*
X110667Y178337D01*
X110977Y178464D01*
X111269Y178628D01*
X111524Y178865D01*
X111542Y178901D01*
X111615Y178992D01*
X111724Y179138D01*
X111834Y179339D01*
X111961Y179594D01*
X112052Y179885D01*
X112125Y180213D01*
X112161Y180578D01*
Y180778D01*
X112143Y180887D01*
Y181015D01*
X112107Y181306D01*
X112052Y181652D01*
X111961Y182035D01*
X111852Y182436D01*
X111688Y182837D01*
Y182855D01*
X111670Y182891D01*
X111633Y182946D01*
X111597Y183019D01*
X111505Y183219D01*
X111360Y183456D01*
X111178Y183748D01*
X110977Y184057D01*
X110740Y184367D01*
X110467Y184677D01*
X110449Y184695D01*
X110431Y184713D01*
X110339Y184805D01*
X110176Y184950D01*
X109975Y185133D01*
X109720Y185333D01*
X109428Y185552D01*
X109119Y185752D01*
X108773Y185952D01*
X108754D01*
X108736Y185971D01*
X108681Y186007D01*
X108608Y186025D01*
X108408Y186116D01*
X108153Y186207D01*
X107861Y186280D01*
X107515Y186372D01*
X107151Y186426D01*
X106768Y186444D01*
D02*
G37*
%LPD*%
G36*
X135538Y185825D02*
X135647Y185788D01*
X135793Y185716D01*
X135939Y185625D01*
X136121Y185479D01*
X136303Y185278D01*
X136321Y185260D01*
X136339Y185224D01*
X136394Y185169D01*
X136467Y185078D01*
X136540Y184968D01*
X136649Y184841D01*
X136740Y184677D01*
X136868Y184495D01*
X136995Y184276D01*
X137123Y184039D01*
X137250Y183784D01*
X137378Y183511D01*
X137524Y183201D01*
X137651Y182855D01*
X137779Y182509D01*
X137906Y182126D01*
X137870D01*
X137779Y182144D01*
X137633Y182163D01*
X137469Y182199D01*
X137287Y182254D01*
X137086Y182290D01*
X136886Y182345D01*
X136722Y182418D01*
X136704Y182436D01*
X136649Y182454D01*
X136558Y182509D01*
X136449Y182563D01*
X136321Y182655D01*
X136175Y182764D01*
X136030Y182891D01*
X135884Y183037D01*
X135866Y183055D01*
X135811Y183110D01*
X135738Y183201D01*
X135647Y183329D01*
X135538Y183493D01*
X135428Y183675D01*
X135301Y183875D01*
X135192Y184112D01*
X135173Y184149D01*
X135137Y184221D01*
X135100Y184349D01*
X135028Y184513D01*
X134973Y184695D01*
X134936Y184896D01*
X134900Y185114D01*
X134882Y185333D01*
Y185351D01*
Y185369D01*
X134900Y185479D01*
X134936Y185588D01*
X135028Y185716D01*
X135046Y185734D01*
X135119Y185788D01*
X135228Y185843D01*
X135374Y185861D01*
X135447D01*
X135538Y185825D01*
D02*
G37*
G36*
X88639D02*
X88749Y185788D01*
X88894Y185716D01*
X89040Y185625D01*
X89223Y185479D01*
X89405Y185278D01*
X89423Y185260D01*
X89441Y185224D01*
X89496Y185169D01*
X89569Y185078D01*
X89641Y184968D01*
X89751Y184841D01*
X89842Y184677D01*
X89969Y184495D01*
X90097Y184276D01*
X90225Y184039D01*
X90352Y183784D01*
X90480Y183511D01*
X90625Y183201D01*
X90753Y182855D01*
X90881Y182509D01*
X91008Y182126D01*
X90972D01*
X90881Y182144D01*
X90735Y182163D01*
X90571Y182199D01*
X90389Y182254D01*
X90188Y182290D01*
X89988Y182345D01*
X89824Y182418D01*
X89806Y182436D01*
X89751Y182454D01*
X89660Y182509D01*
X89550Y182563D01*
X89423Y182655D01*
X89277Y182764D01*
X89131Y182891D01*
X88986Y183037D01*
X88967Y183055D01*
X88913Y183110D01*
X88840Y183201D01*
X88749Y183329D01*
X88639Y183493D01*
X88530Y183675D01*
X88403Y183875D01*
X88293Y184112D01*
X88275Y184149D01*
X88239Y184221D01*
X88202Y184349D01*
X88129Y184513D01*
X88075Y184695D01*
X88038Y184896D01*
X88002Y185114D01*
X87984Y185333D01*
Y185351D01*
Y185369D01*
X88002Y185479D01*
X88038Y185588D01*
X88129Y185716D01*
X88147Y185734D01*
X88220Y185788D01*
X88330Y185843D01*
X88476Y185861D01*
X88548D01*
X88639Y185825D01*
D02*
G37*
G36*
X179648Y182345D02*
X176624D01*
X175057Y187556D01*
X179648Y182345D01*
D02*
G37*
G36*
X107297Y185971D02*
X107406Y185952D01*
X107515Y185916D01*
X107643Y185880D01*
X107770Y185807D01*
X107898Y185716D01*
X107916Y185697D01*
X107953Y185661D01*
X108007Y185606D01*
X108062Y185533D01*
X108135Y185442D01*
X108208Y185333D01*
X108299Y185187D01*
X108390Y185023D01*
X108499Y184841D01*
X108608Y184641D01*
X108736Y184404D01*
X108845Y184130D01*
X108991Y183839D01*
X109119Y183511D01*
X109265Y183147D01*
Y183128D01*
X109301Y183055D01*
X109337Y182946D01*
X109374Y182800D01*
X109428Y182636D01*
X109501Y182436D01*
X109574Y182199D01*
X109629Y181944D01*
X109702Y181671D01*
X109775Y181379D01*
X109902Y180778D01*
X109975Y180158D01*
X110011Y179539D01*
Y179521D01*
Y179466D01*
X109993Y179393D01*
X109975Y179302D01*
X109902Y179102D01*
X109847Y178992D01*
X109775Y178883D01*
X109756Y178865D01*
X109738Y178847D01*
X109684Y178810D01*
X109611Y178755D01*
X109428Y178664D01*
X109319Y178646D01*
X109210Y178628D01*
X109155D01*
X109082Y178646D01*
X109009D01*
X108809Y178719D01*
X108700Y178755D01*
X108608Y178828D01*
X108590Y178847D01*
X108536Y178901D01*
X108463Y178992D01*
X108353Y179120D01*
X108208Y179302D01*
X108062Y179539D01*
X107880Y179849D01*
X107679Y180213D01*
Y180231D01*
X107661Y180268D01*
X107625Y180322D01*
X107588Y180413D01*
X107534Y180505D01*
X107479Y180632D01*
X107351Y180924D01*
X107206Y181288D01*
X107060Y181689D01*
X106914Y182144D01*
X106768Y182618D01*
Y182636D01*
X106750Y182673D01*
X106732Y182746D01*
X106714Y182837D01*
X106677Y182964D01*
X106659Y183092D01*
X106586Y183420D01*
X106513Y183802D01*
X106459Y184203D01*
X106422Y184622D01*
X106404Y185041D01*
Y185060D01*
Y185114D01*
X106422Y185187D01*
Y185296D01*
X106495Y185515D01*
X106550Y185625D01*
X106623Y185734D01*
X106641Y185752D01*
X106659Y185770D01*
X106768Y185861D01*
X106932Y185952D01*
X107023Y185971D01*
X107133Y185989D01*
X107206D01*
X107297Y185971D01*
D02*
G37*
D19*
X229779Y34313D02*
X230272Y33256D01*
X230025Y33784D01*
X226854Y32306D01*
X227136Y33081D01*
X211071Y72539D02*
X207900Y71060D01*
X208746Y73385D01*
X209732Y71271D01*
X157932Y28589D02*
X156806Y28891D01*
X157369Y28740D01*
X158275Y32120D01*
X158687Y31406D01*
X191787Y23572D02*
X191375Y24286D01*
X190249Y24588D01*
X189534Y24176D01*
X189383Y23612D01*
X189796Y22898D01*
X190359Y22747D01*
X189796Y22898D01*
X189082Y22486D01*
X188931Y21923D01*
X189343Y21208D01*
X190470Y20907D01*
X191184Y21319D01*
X45897Y30883D02*
X48150Y31487D01*
X47999Y32050D01*
X45142Y33700D01*
X44991Y34263D01*
X87274Y46731D02*
X88401Y47033D01*
X87837Y46882D01*
X88743Y43503D01*
X88029Y43915D01*
X91887Y37615D02*
X89634Y37011D01*
X92491Y35362D01*
X92642Y34798D01*
X92230Y34084D01*
X91103Y33782D01*
X90389Y34195D01*
X48121Y22455D02*
X48836Y22043D01*
X49962Y22345D01*
X50375Y23059D01*
X50223Y23622D01*
X49509Y24034D01*
X49922Y24749D01*
X49771Y25312D01*
X49057Y25724D01*
X47930Y25422D01*
X47518Y24708D01*
X47669Y24145D01*
X48383Y23733D01*
X47970Y23018D01*
X48121Y22455D01*
X48383Y23733D02*
X49509Y24034D01*
D90*
X19339Y54770D02*
X26738Y52077D01*
X22705Y64019D02*
X30105Y61326D01*
X26072Y73268D02*
X33471Y70575D01*
X29438Y82517D02*
X36837Y79824D01*
X15973Y45521D02*
X23372Y42828D01*
D93*
X215810Y50529D02*
X222947Y53857D01*
X211409Y59731D02*
X218545Y63059D01*
X219862Y41605D02*
X226998Y44932D01*
X207802Y28939D02*
X213369Y23371D01*
X177295Y21260D02*
X179333Y28866D01*
X167855Y23893D02*
X169893Y31499D01*
X247840Y247164D02*
X253408Y252732D01*
X-9031Y248684D02*
X-3463Y243116D01*
X75664Y55801D02*
X77702Y48195D01*
X51228Y29412D02*
X87934Y39247D01*
X76333Y45837D02*
X78371Y38231D01*
X79140Y36133D02*
X81178Y28527D01*
X57339Y40220D02*
X61860Y23351D01*
X66999Y42808D02*
X71519Y25939D01*
X8009Y6717D02*
X13577Y12285D01*
M02*
